<?xml version="1.0" encoding="utf-8"?>
<!-- Generator: Adobe Illustrator 22.0.1, SVG Export Plug-In . SVG Version: 6.00 Build 0)  -->
<svg version="1.1" xmlns="http://www.w3.org/2000/svg" xmlns:xlink="http://www.w3.org/1999/xlink" x="0px" y="0px"
	 viewBox="0 0 171 343.1" style="enable-background:new 0 0 171 343.1;" xml:space="preserve">
<style type="text/css">
	.st0{opacity:0.1;fill:#FFFFFF;}
	.st1{opacity:0.7;}
	.st2{fill:#E86B00;}
	.st3{fill:#5C5B5F;}
	.st4{fill:#FFFFFF;}
	.st5{fill:#D86344;}
	.st6{fill:#76A797;}
	.st7{stroke:#E86B00;stroke-width:2;stroke-miterlimit:10;}
</style>
<g id="Layer_1">
</g>
<g id="t3">
</g>
<g id="t2">
</g>
<g id="t1">
	<g>
		<path class="st4" d="M168.1,318.4c0,12-10.3,21.8-22.9,21.8H25.8c-12.6,0-22.9-9.8-22.9-21.8V24.7c0-12,10.3-21.8,22.9-21.8h119.4
			c12.6,0,22.9,9.8,22.9,21.8V318.4z"/>
		<g class="st1">
			<path d="M86,23.2c2.8,0,5-2.2,5-4.9s-2.2-4.9-5-4.9c-2.8,0-5,2.2-5,4.9S83.2,23.2,86,23.2z M86,16.3c1.2,0,2.1,0.9,2.1,2
				c0,1.1-1,2-2.1,2c-1.2,0-2.1-0.9-2.1-2C83.8,17.2,84.8,16.3,86,16.3z"/>
			<path d="M145.2,0H25.8C11.6,0,0,11.1,0,24.7v293.8c0,13.6,11.6,24.7,25.8,24.7h119.4c14.2,0,25.8-11.1,25.8-24.7V24.7
				C171,11.1,159.4,0,145.2,0z M168.1,318.4c0,12-10.3,21.8-22.9,21.8H25.8c-12.6,0-22.9-9.8-22.9-21.8V24.7
				c0-12,10.3-21.8,22.9-21.8h119.4c12.6,0,22.9,9.8,22.9,21.8V318.4z"/>
			<path d="M73.3,35.7H98c2.7,0,4.9-2.1,4.9-4.8c0-2.6-2.2-4.8-4.9-4.8H73.3c-2.7,0-4.9,2.1-4.9,4.8C68.4,33.6,70.6,35.7,73.3,35.7z
				 M73.3,29.1H98c1.1,0,2,0.8,2,1.9c0,1-0.9,1.9-2,1.9H73.3c-1.1,0-2-0.8-2-1.9C71.3,29.9,72.2,29.1,73.3,29.1z"/>
			<path d="M93.5,304.3H78.2c-2.5,0-4.6,2-4.6,4.4v14.7c0,2.4,2,4.4,4.6,4.4h15.3c2.5,0,4.6-2,4.6-4.4v-14.7
				C98.1,306.2,96,304.3,93.5,304.3z M93.1,309.1v13.8H78.6v-13.8H93.1z"/>
		</g>
		<path class="st1" d="M12.1,289.2h146.8V43.9H12.1V289.2z"/>
		<g>
			<g>
				<g>
					<g>
						<rect x="68.1" y="175.8" class="st3" width="74.4" height="2.5"/>
						<rect x="68.1" y="183" class="st3" width="68.7" height="2.5"/>
					</g>
					<g>
						<rect x="68.1" y="190" class="st3" width="74.4" height="2.5"/>
						<rect x="68.1" y="197.2" class="st3" width="57.2" height="2.5"/>
					</g>
				</g>
				<rect x="68.1" y="165.6" class="st3" width="25.5" height="3.8"/>
			</g>
			<g>
				<path class="st2" d="M57.1,165H31c-1.4,0-2.5,1.1-2.5,2.5v19.9c0,1.4,1.1,2.5,2.5,2.5h26.1c1.4,0,2.5-1.1,2.5-2.5v-19.9
					C59.6,166.1,58.5,165,57.1,165z M57.9,187.5c0,0.4-0.3,0.8-0.8,0.8H31c-0.4,0-0.8-0.3-0.8-0.8v-19.9c0-0.4,0.3-0.8,0.8-0.8h26.1
					c0.4,0,0.8,0.4,0.8,0.8V187.5z"/>
				<g>
					<polygon class="st2" points="46.7,179.6 45.4,177.4 41.4,170.3 37.3,177.4 33.3,184.4 41.4,184.4 44,184.4 46.2,180.6 					"/>
					<polygon class="st2" points="52.5,180 50,175.7 47.5,180 45,184.4 50,184.4 55,184.4 					"/>
				</g>
			</g>
		</g>
		<g>
			<g>
				<g>
					<g>
						<rect x="68.1" y="219.8" class="st3" width="74.4" height="2.5"/>
						<rect x="68.1" y="227" class="st3" width="68.7" height="2.5"/>
					</g>
					<g>
						<rect x="68.1" y="234" class="st3" width="74.4" height="2.5"/>
						<rect x="68.1" y="241.2" class="st3" width="57.2" height="2.5"/>
					</g>
				</g>
				<rect x="68.1" y="209.6" class="st3" width="25.5" height="3.8"/>
			</g>
			<g>
				<path class="st2" d="M57.1,209H31c-1.4,0-2.5,1.1-2.5,2.5v19.9c0,1.4,1.1,2.5,2.5,2.5h26.1c1.4,0,2.5-1.1,2.5-2.5v-19.9
					C59.6,210.1,58.5,209,57.1,209z M57.9,231.5c0,0.4-0.3,0.8-0.8,0.8H31c-0.4,0-0.8-0.3-0.8-0.8v-19.9c0-0.4,0.3-0.8,0.8-0.8h26.1
					c0.4,0,0.8,0.4,0.8,0.8V231.5z"/>
				<g>
					<polygon class="st2" points="46.7,223.6 45.4,221.4 41.4,214.3 37.3,221.4 33.3,228.4 41.4,228.4 44,228.4 46.2,224.6 					"/>
					<polygon class="st2" points="52.5,224 50,219.7 47.5,224 45,228.4 50,228.4 55,228.4 					"/>
				</g>
			</g>
		</g>
		<g>
			<g>
				<g>
					<g>
						<rect x="68.1" y="86.8" class="st3" width="74.4" height="2.5"/>
						<rect x="68.1" y="94" class="st3" width="68.7" height="2.5"/>
					</g>
					<g>
						<rect x="68.1" y="101" class="st3" width="74.4" height="2.5"/>
						<rect x="68.1" y="108.2" class="st3" width="57.2" height="2.5"/>
					</g>
				</g>
				<rect x="68.1" y="76.6" class="st3" width="25.5" height="3.8"/>
			</g>
			<g>
				<path class="st2" d="M57.1,76H31c-1.4,0-2.5,1.1-2.5,2.5v19.9c0,1.4,1.1,2.5,2.5,2.5h26.1c1.4,0,2.5-1.1,2.5-2.5V78.5
					C59.6,77.1,58.5,76,57.1,76z M57.9,98.5c0,0.4-0.3,0.8-0.8,0.8H31c-0.4,0-0.8-0.3-0.8-0.8V78.5c0-0.4,0.3-0.8,0.8-0.8h26.1
					c0.4,0,0.8,0.4,0.8,0.8V98.5z"/>
				<g>
					<polygon class="st2" points="46.7,90.6 45.4,88.4 41.4,81.3 37.3,88.4 33.3,95.4 41.4,95.4 44,95.4 46.2,91.6 					"/>
					<polygon class="st2" points="52.5,91 50,86.7 47.5,91 45,95.4 50,95.4 55,95.4 					"/>
				</g>
			</g>
		</g>
		<g>
			<g>
				<g>
					<g>
						<rect x="68.1" y="130.8" class="st3" width="74.4" height="2.5"/>
						<rect x="68.1" y="138" class="st3" width="68.7" height="2.5"/>
					</g>
					<g>
						<rect x="68.1" y="145" class="st3" width="74.4" height="2.5"/>
						<rect x="68.1" y="152.2" class="st3" width="57.2" height="2.5"/>
					</g>
				</g>
				<rect x="68.1" y="120.6" class="st3" width="25.5" height="3.8"/>
			</g>
			<g>
				<path class="st2" d="M57.1,120H31c-1.4,0-2.5,1.1-2.5,2.5v19.9c0,1.4,1.1,2.5,2.5,2.5h26.1c1.4,0,2.5-1.1,2.5-2.5v-19.9
					C59.6,121.1,58.5,120,57.1,120z M57.9,142.5c0,0.4-0.3,0.8-0.8,0.8H31c-0.4,0-0.8-0.3-0.8-0.8v-19.9c0-0.4,0.3-0.8,0.8-0.8h26.1
					c0.4,0,0.8,0.4,0.8,0.8V142.5z"/>
				<g>
					<polygon class="st2" points="46.7,134.6 45.4,132.4 41.4,125.3 37.3,132.4 33.3,139.4 41.4,139.4 44,139.4 46.2,135.6 					"/>
					<polygon class="st2" points="52.5,135 50,130.7 47.5,135 45,139.4 50,139.4 55,139.4 					"/>
				</g>
			</g>
		</g>
		<g>
			<g>
				<g>
					<rect x="68.1" y="264.8" class="st3" width="74.4" height="2.5"/>
					<rect x="68.1" y="272" class="st3" width="68.7" height="2.5"/>
				</g>
				<rect x="68.1" y="254.6" class="st3" width="25.5" height="3.8"/>
			</g>
			<g>
				<path class="st2" d="M57.1,254H31c-1.4,0-2.5,1.1-2.5,2.5v19.9c0,1.4,1.1,2.5,2.5,2.5h26.1c1.4,0,2.5-1.1,2.5-2.5v-19.9
					C59.6,255.1,58.5,254,57.1,254z M57.9,276.5c0,0.4-0.3,0.8-0.8,0.8H31c-0.4,0-0.8-0.3-0.8-0.8v-19.9c0-0.4,0.3-0.8,0.8-0.8h26.1
					c0.4,0,0.8,0.4,0.8,0.8V276.5z"/>
				<g>
					<polygon class="st2" points="46.7,268.6 45.4,266.4 41.4,259.3 37.3,266.4 33.3,273.4 41.4,273.4 44,273.4 46.2,269.6 					"/>
					<polygon class="st2" points="52.5,269 50,264.7 47.5,269 45,273.4 50,273.4 55,273.4 					"/>
				</g>
			</g>
		</g>
		<rect x="12.5" y="45.3" class="st3" width="146" height="19.8"/>
	</g>
</g>
</svg>
