<svg xmlns="http://www.w3.org/2000/svg" width="170.99" height="343.13" viewBox="0 0 170.99 343.13">
  <title>Asset 1</title>
  <g style="isolation: isolate">
    <g id="Layer_2" data-name="Layer 2">
      <g id="Layer_1-2" data-name="Layer 1">
        <g>
          <g>
            <path d="M168.88,318.44c0,12-10.28,21.82-22.9,21.82H26.54c-12.62,0-22.9-9.79-22.9-21.82V24.69c0-12,10.28-21.81,22.9-21.81H146c12.62,0,22.9,9.78,22.9,21.81Z" style="fill: #fff;opacity: 0.1"/>
            <g style="opacity: 0.7000000000000001;mix-blend-mode: multiply">
              <path d="M86,23.17a4.85,4.85,0,1,0-5-4.85A4.94,4.94,0,0,0,86,23.17Zm0-6.83a2,2,0,1,1-2.13,2A2.07,2.07,0,0,1,86,16.34Z"/>
              <path d="M145.21,0H25.78C11.56,0,0,11.07,0,24.69V318.44c0,13.62,11.56,24.69,25.78,24.69H145.21c14.21,0,25.78-11.07,25.78-24.69V24.69C171,11.07,159.42,0,145.21,0Zm22.9,318.44c0,12-10.27,21.82-22.9,21.82H25.78c-12.63,0-22.91-9.79-22.91-21.82V24.69c0-12,10.28-21.81,22.91-21.81H145.21c12.63,0,22.9,9.78,22.9,21.81Z"/>
              <path d="M73.3,35.72H98a4.76,4.76,0,1,0,0-9.51H73.3a4.76,4.76,0,1,0,0,9.51Zm0-6.64H98a1.89,1.89,0,1,1,0,3.77H73.3a1.89,1.89,0,1,1,0-3.77Z"/>
              <path d="M93.51,304.26H78.17a4.49,4.49,0,0,0-4.56,4.42v14.65a4.49,4.49,0,0,0,4.56,4.42H93.51a4.49,4.49,0,0,0,4.55-4.42V308.68A4.49,4.49,0,0,0,93.51,304.26Zm-.4,4.86v13.77H78.56V309.12Z"/>
            </g>
            <path d="M12,289.32H158.74V44H12Z" style="opacity: 0.7000000000000001;mix-blend-mode: multiply"/>
          </g>
          <g>
            <g>
              <g>
                <rect x="92.81" y="69.46" width="35.95" height="2.32" style="fill: #5c5b5f"/>
                <rect x="92.81" y="76.14" width="52.33" height="2.32" style="fill: #5c5b5f"/>
              </g>
              <g>
                <rect x="92.81" y="82.68" width="46.58" height="2.32" style="fill: #5c5b5f"/>
                <rect x="92.81" y="89.36" width="52.33" height="2.32" style="fill: #5c5b5f"/>
              </g>
            </g>
            <rect x="92.81" y="60.06" width="23.62" height="3.54" style="fill: #5c5b5f"/>
          </g>
          <g>
            <g>
              <g>
                <rect x="92.81" y="128.34" width="35.95" height="2.32" style="fill: #5c5b5f"/>
                <rect x="92.81" y="135.02" width="52.33" height="2.32" style="fill: #5c5b5f"/>
              </g>
              <g>
                <rect x="92.81" y="141.56" width="46.58" height="2.32" style="fill: #5c5b5f"/>
                <rect x="92.81" y="148.24" width="52.33" height="2.32" style="fill: #5c5b5f"/>
              </g>
            </g>
            <rect x="92.81" y="118.94" width="23.62" height="3.54" style="fill: #5c5b5f"/>
          </g>
          <g>
            <g>
              <g>
                <rect x="92.81" y="186.34" width="35.95" height="2.32" style="fill: #5c5b5f"/>
                <rect x="92.81" y="193.02" width="52.33" height="2.32" style="fill: #5c5b5f"/>
              </g>
              <g>
                <rect x="92.81" y="199.56" width="46.58" height="2.32" style="fill: #5c5b5f"/>
                <rect x="92.81" y="206.24" width="52.33" height="2.32" style="fill: #5c5b5f"/>
              </g>
            </g>
            <rect x="92.81" y="176.94" width="23.62" height="3.54" style="fill: #5c5b5f"/>
          </g>
          <g>
            <g>
              <g>
                <rect x="92.81" y="243.01" width="35.95" height="2.32" style="fill: #5c5b5f"/>
                <rect x="92.81" y="249.69" width="52.33" height="2.32" style="fill: #5c5b5f"/>
              </g>
              <g>
                <rect x="92.81" y="256.23" width="46.58" height="2.32" style="fill: #5c5b5f"/>
                <rect x="92.81" y="262.91" width="52.33" height="2.32" style="fill: #5c5b5f"/>
              </g>
            </g>
            <rect x="92.81" y="233.61" width="23.62" height="3.54" style="fill: #5c5b5f"/>
          </g>
          <g>
            <g>
              <path d="M79.84,55.75H29.19a4.93,4.93,0,0,0-4.93,4.93V99.36a4.94,4.94,0,0,0,4.93,4.94H79.84a4.94,4.94,0,0,0,4.93-4.94V60.68A4.93,4.93,0,0,0,79.84,55.75Zm1.52,43.61a1.52,1.52,0,0,1-1.52,1.52H29.19a1.52,1.52,0,0,1-1.52-1.52V60.68a1.52,1.52,0,0,1,1.52-1.52H79.84a1.52,1.52,0,0,1,1.52,1.52Z" style="fill: #e86b00"/>
              <g>
                <polygon points="59.75 84.15 57.19 79.73 49.33 66.12 41.47 79.73 33.62 93.34 49.33 93.34 54.44 93.34 58.7 85.95 59.75 84.15" style="fill: #e86b00"/>
                <polygon points="71.01 84.92 66.15 76.52 61.3 84.92 56.45 93.33 66.15 93.33 75.86 93.33 71.01 84.92" style="fill: #e86b00"/>
              </g>
            </g>
            <g>
              <path d="M79.84,113.83H29.19a4.93,4.93,0,0,0-4.93,4.93v38.68a4.94,4.94,0,0,0,4.93,4.94H79.84a4.94,4.94,0,0,0,4.93-4.94V118.76A4.93,4.93,0,0,0,79.84,113.83Zm1.52,43.61A1.52,1.52,0,0,1,79.84,159H29.19a1.52,1.52,0,0,1-1.52-1.52V118.76a1.52,1.52,0,0,1,1.52-1.52H79.84a1.52,1.52,0,0,1,1.52,1.52Z" style="fill: #e86b00"/>
              <g>
                <polygon points="59.75 142.23 57.19 137.81 49.33 124.2 41.47 137.81 33.62 151.42 49.33 151.42 54.44 151.42 58.7 144.03 59.75 142.23" style="fill: #e86b00"/>
                <polygon points="71.01 143 66.15 134.6 61.3 143 56.45 151.41 66.15 151.41 75.86 151.41 71.01 143" style="fill: #e86b00"/>
              </g>
            </g>
            <g>
              <path d="M79.84,171.91H29.19a4.93,4.93,0,0,0-4.93,4.93v38.68a4.94,4.94,0,0,0,4.93,4.94H79.84a4.94,4.94,0,0,0,4.93-4.94V176.84A4.93,4.93,0,0,0,79.84,171.91Zm1.52,43.61A1.52,1.52,0,0,1,79.84,217H29.19a1.52,1.52,0,0,1-1.52-1.52V176.84a1.52,1.52,0,0,1,1.52-1.52H79.84a1.52,1.52,0,0,1,1.52,1.52Z" style="fill: #e86b00"/>
              <g>
                <polygon points="59.75 200.31 57.19 195.89 49.33 182.28 41.47 195.89 33.62 209.5 49.33 209.5 54.44 209.5 58.7 202.11 59.75 200.31" style="fill: #e86b00"/>
                <polygon points="71.01 201.08 66.15 192.68 61.3 201.08 56.45 209.49 66.15 209.49 75.86 209.49 71.01 201.08" style="fill: #e86b00"/>
              </g>
            </g>
            <g>
              <path d="M79.84,230H29.19a4.93,4.93,0,0,0-4.93,4.93V273.6a4.94,4.94,0,0,0,4.93,4.94H79.84a4.94,4.94,0,0,0,4.93-4.94V234.92A4.93,4.93,0,0,0,79.84,230Zm1.52,43.61a1.52,1.52,0,0,1-1.52,1.52H29.19a1.52,1.52,0,0,1-1.52-1.52V234.92a1.52,1.52,0,0,1,1.52-1.52H79.84a1.52,1.52,0,0,1,1.52,1.52Z" style="fill: #e86b00"/>
              <g>
                <polygon points="59.75 258.39 57.19 253.97 49.33 240.36 41.47 253.97 33.62 267.58 49.33 267.58 54.44 267.58 58.7 260.19 59.75 258.39" style="fill: #e86b00"/>
                <polygon points="71.01 259.16 66.15 250.76 61.3 259.16 56.45 267.57 66.15 267.57 75.86 267.57 71.01 259.16" style="fill: #e86b00"/>
              </g>
            </g>
          </g>
        </g>
      </g>
    </g>
  </g>
</svg>
