<?xml version="1.0" encoding="utf-8"?>
<!-- Generator: Adobe Illustrator 22.0.1, SVG Export Plug-In . SVG Version: 6.00 Build 0)  -->
<svg version="1.1" xmlns="http://www.w3.org/2000/svg" xmlns:xlink="http://www.w3.org/1999/xlink" x="0px" y="0px"
	 viewBox="0 0 171 343.1" style="enable-background:new 0 0 171 343.1;" xml:space="preserve">
<style type="text/css">
	.st0{opacity:0.1;fill:#FFFFFF;}
	.st1{opacity:0.7;}
	.st2{fill:#E86B00;}
	.st3{fill:#5C5B5F;}
	.st4{fill:#FFFFFF;}
	.st5{fill:#D86344;}
	.st6{fill:#76A797;}
	.st7{stroke:#E86B00;stroke-width:2;stroke-miterlimit:10;}
</style>
<g id="Layer_1">
</g>
<g id="t3">
</g>
<g id="t2">
	<g>
		<path class="st4" d="M168.1,318.4c0,12-10.3,21.8-22.9,21.8H25.8c-12.6,0-22.9-9.8-22.9-21.8V24.7c0-12,10.3-21.8,22.9-21.8h119.4
			c12.6,0,22.9,9.8,22.9,21.8V318.4z"/>
		<g class="st1">
			<path d="M86,23.2c2.8,0,5-2.2,5-4.9s-2.2-4.9-5-4.9c-2.8,0-5,2.2-5,4.9S83.2,23.2,86,23.2z M86,16.3c1.2,0,2.1,0.9,2.1,2
				c0,1.1-1,2-2.1,2c-1.2,0-2.1-0.9-2.1-2C83.8,17.2,84.8,16.3,86,16.3z"/>
			<path d="M145.2,0H25.8C11.6,0,0,11.1,0,24.7v293.8c0,13.6,11.6,24.7,25.8,24.7h119.4c14.2,0,25.8-11.1,25.8-24.7V24.7
				C171,11.1,159.4,0,145.2,0z M168.1,318.4c0,12-10.3,21.8-22.9,21.8H25.8c-12.6,0-22.9-9.8-22.9-21.8V24.7
				c0-12,10.3-21.8,22.9-21.8h119.4c12.6,0,22.9,9.8,22.9,21.8V318.4z"/>
			<path d="M73.3,35.7H98c2.7,0,4.9-2.1,4.9-4.8c0-2.6-2.2-4.8-4.9-4.8H73.3c-2.7,0-4.9,2.1-4.9,4.8C68.4,33.6,70.6,35.7,73.3,35.7z
				 M73.3,29.1H98c1.1,0,2,0.8,2,1.9c0,1-0.9,1.9-2,1.9H73.3c-1.1,0-2-0.8-2-1.9C71.3,29.9,72.2,29.1,73.3,29.1z"/>
			<path d="M93.5,304.3H78.2c-2.5,0-4.6,2-4.6,4.4v14.7c0,2.4,2,4.4,4.6,4.4h15.3c2.5,0,4.6-2,4.6-4.4v-14.7
				C98.1,306.2,96,304.3,93.5,304.3z M93.1,309.1v13.8H78.6v-13.8H93.1z"/>
		</g>
		<path class="st1" d="M12.1,289.2h146.8V43.9H12.1V289.2z"/>
		<rect x="12.5" y="45.3" class="st3" width="146" height="19.8"/>
		<g>
			<g>
				<rect x="39.1" y="201.2" class="st3" width="88.9" height="3"/>
				<rect x="39.1" y="209.8" class="st3" width="82.1" height="3"/>
			</g>
			<g>
				<rect x="39.1" y="218.3" class="st3" width="88.9" height="3"/>
				<rect x="39.1" y="226.9" class="st3" width="68.4" height="3"/>
			</g>
		</g>
		<rect x="39.1" y="189.1" class="st3" width="30.4" height="4.6"/>
		<rect x="12.6" y="175.3" class="st3" width="146" height="3"/>
		<path class="st7" d="M74.3,100.4c-2.5,0-4.5,1.9-4.5,4.3c0,2.4,2,4.3,4.5,4.3c2.5,0,4.5-1.9,4.5-4.3
			C78.7,102.3,76.7,100.4,74.3,100.4z M74.3,108.8c-2.3,0-4.2-1.8-4.2-4.1c0-2.3,1.9-4.1,4.2-4.1c2.3,0,4.2,1.8,4.2,4.1
			C78.5,107,76.6,108.8,74.3,108.8z"/>
		<path class="st7" d="M74.3,117.4c-2.5,0-4.5,1.9-4.5,4.3c0,2.4,2,4.3,4.5,4.3c2.5,0,4.5-1.9,4.5-4.3
			C78.7,119.3,76.7,117.4,74.3,117.4z M74.3,125.8c-2.3,0-4.2-1.8-4.2-4.1c0-2.3,1.9-4.1,4.2-4.1c2.3,0,4.2,1.8,4.2,4.1
			C78.5,124,76.6,125.8,74.3,125.8z"/>
		<path class="st7" d="M74.3,134.4c-2.5,0-4.5,1.9-4.5,4.3c0,2.4,2,4.3,4.5,4.3c2.5,0,4.5-1.9,4.5-4.3
			C78.7,136.3,76.7,134.4,74.3,134.4z M74.3,142.8c-2.3,0-4.2-1.8-4.2-4.1c0-2.3,1.9-4.1,4.2-4.1c2.3,0,4.2,1.8,4.2,4.1
			C78.5,141,76.6,142.8,74.3,142.8z"/>
		<path class="st7" d="M74.3,151.1c-2.5,0-4.5,2-4.5,4.5c0,2.5,2,4.5,4.5,4.5c2.5,0,4.5-2,4.5-4.5C78.7,153.1,76.7,151.1,74.3,151.1
			z M74.3,159.8c-2.3,0-4.2-1.9-4.2-4.2c0-2.3,1.9-4.2,4.2-4.2c2.3,0,4.2,1.9,4.2,4.2C78.5,157.9,76.6,159.8,74.3,159.8z"/>
		<rect x="85.1" y="102.1" class="st3" width="53.5" height="4.6"/>
		<rect x="85.1" y="119.1" class="st3" width="53.5" height="4.6"/>
		<rect x="85.1" y="136.1" class="st3" width="53.5" height="4.6"/>
		<rect x="85.1" y="153.1" class="st3" width="53.5" height="4.6"/>
		<path class="st2" d="M52.7,88.8c0-5.7-5.9-10.3-13.1-10.3c-7.2,0-13.1,4.6-13.1,10.3c0,5.7,5.9,10.3,13.1,10.3c0.3,0,0.7,0,1,0
			c0.5,1.5,1.9,4,6.5,4.7c-1-1.1-3-2.8-2.4-5.5C49.4,96.7,52.7,93,52.7,88.8z M32.2,85.5h14.4v2.3H32.2V85.5z M32.2,92.6v-2.3h14.4
			v2.3H32.2z"/>
	</g>
</g>
<g id="t1">
</g>
</svg>
