<?xml version="1.0" encoding="utf-8"?>
<!-- Generator: Adobe Illustrator 22.0.1, SVG Export Plug-In . SVG Version: 6.00 Build 0)  -->
<svg version="1.1" xmlns="http://www.w3.org/2000/svg" xmlns:xlink="http://www.w3.org/1999/xlink" x="0px" y="0px"
	 viewBox="0 0 171 343.1" style="enable-background:new 0 0 171 343.1;" xml:space="preserve">
<style type="text/css">
	.st0{opacity:0.1;fill:#FFFFFF;}
	.st1{opacity:0.7;}
	.st2{fill:#E86B00;}
	.st3{fill:#5C5B5F;}
	.st4{fill:#FFFFFF;}
	.st5{fill:#D86344;}
	.st6{fill:#76A797;}
	.st7{stroke:#E86B00;stroke-width:2;stroke-miterlimit:10;}
</style>
<g id="Layer_1">
</g>
<g id="t3">
	<g>
		<path class="st4" d="M168.1,318.4c0,12-10.3,21.8-22.9,21.8H25.8c-12.6,0-22.9-9.8-22.9-21.8V24.7c0-12,10.3-21.8,22.9-21.8h119.4
			c12.6,0,22.9,9.8,22.9,21.8V318.4z"/>
		<g class="st1">
			<path d="M86,23.2c2.8,0,5-2.2,5-4.9s-2.2-4.9-5-4.9c-2.8,0-5,2.2-5,4.9S83.2,23.2,86,23.2z M86,16.3c1.2,0,2.1,0.9,2.1,2
				c0,1.1-1,2-2.1,2c-1.2,0-2.1-0.9-2.1-2C83.8,17.2,84.8,16.3,86,16.3z"/>
			<path d="M145.2,0H25.8C11.6,0,0,11.1,0,24.7v293.8c0,13.6,11.6,24.7,25.8,24.7h119.4c14.2,0,25.8-11.1,25.8-24.7V24.7
				C171,11.1,159.4,0,145.2,0z M168.1,318.4c0,12-10.3,21.8-22.9,21.8H25.8c-12.6,0-22.9-9.8-22.9-21.8V24.7
				c0-12,10.3-21.8,22.9-21.8h119.4c12.6,0,22.9,9.8,22.9,21.8V318.4z"/>
			<path d="M73.3,35.7H98c2.7,0,4.9-2.1,4.9-4.8c0-2.6-2.2-4.8-4.9-4.8H73.3c-2.7,0-4.9,2.1-4.9,4.8C68.4,33.6,70.6,35.7,73.3,35.7z
				 M73.3,29.1H98c1.1,0,2,0.8,2,1.9c0,1-0.9,1.9-2,1.9H73.3c-1.1,0-2-0.8-2-1.9C71.3,29.9,72.2,29.1,73.3,29.1z"/>
			<path d="M93.5,304.3H78.2c-2.5,0-4.6,2-4.6,4.4v14.7c0,2.4,2,4.4,4.6,4.4h15.3c2.5,0,4.6-2,4.6-4.4v-14.7
				C98.1,306.2,96,304.3,93.5,304.3z M93.1,309.1v13.8H78.6v-13.8H93.1z"/>
		</g>
		<path class="st1" d="M12.1,289.2h146.8V43.9H12.1V289.2z"/>
		<rect x="12.5" y="45.3" class="st3" width="146" height="19.8"/>
		<g>
			<g>
				<path class="st5" d="M35.2,75c7.7-1.3,14.2,5.3,12.9,12.9c-0.8,4.6-4.5,8.4-9.1,9.1c-7.7,1.3-14.2-5.3-12.9-12.9
					C26.8,79.6,30.6,75.8,35.2,75z M41.7,80.3c-0.3-0.3-0.8-0.3-1.1,0L37,83.9l-3.6-3.6c-0.3-0.3-0.8-0.3-1.1,0L31,81.5
					c-0.3,0.3-0.3,0.8,0,1.1l3.6,3.7L31,90c-0.3,0.3-0.3,0.8,0,1.1l1.3,1.3c0.3,0.3,0.8,0.3,1.1,0l3.6-3.6l3.6,3.6
					c0.3,0.3,0.8,0.3,1.1,0l1.3-1.3c0.3-0.3,0.3-0.8,0-1.1l-3.6-3.7l3.6-3.7c0.3-0.3,0.3-0.8,0-1.1L41.7,80.3z"/>
			</g>
			<g>
				<g>
					<rect x="56.2" y="85.2" class="st3" width="88.9" height="4"/>
					<rect x="56.2" y="93.8" class="st3" width="82.1" height="4"/>
				</g>
				<rect x="56.2" y="74.1" class="st3" width="30.4" height="4.6"/>
			</g>
		</g>
		<g>
			<g>
				<path id="curve0_1_" class="st6" d="M37.7,111.1c6.2,0,11.2,5,11.2,11.2c0,6.2-5,11.2-11.2,11.2s-11.2-5-11.2-11.2
					C26.5,116.1,31.5,111.1,37.7,111.1z M31.1,122.5c-0.3,0.3-0.3,0.8,0,1.1l4.5,4.5c0.3,0.3,0.8,0.3,1.1,0l8.5-8.5
					c0.3-0.3,0.3-0.8,0-1.1l-1.3-1.3c-0.3-0.3-0.8-0.3-1.1,0l-6.6,6.6l-2.6-2.6c-0.3-0.3-0.8-0.3-1.1,0L31.1,122.5z"/>
			</g>
			<g>
				<rect x="56.8" y="111.1" class="st3" width="30.4" height="4.6"/>
				<g>
					<rect x="56.8" y="122.2" class="st3" width="88.9" height="3"/>
					<rect x="56.8" y="130.8" class="st3" width="82.1" height="3"/>
				</g>
			</g>
		</g>
		<g>
			<g>
				<path class="st5" d="M35.5,148c7.7-1.3,14.2,5.3,12.9,12.9c-0.8,4.6-4.5,8.4-9.1,9.1c-7.7,1.3-14.2-5.3-12.9-12.9
					C27.2,152.6,30.9,148.8,35.5,148z M42,153.3c-0.3-0.3-0.8-0.3-1.1,0l-3.6,3.6l-3.6-3.6c-0.3-0.3-0.8-0.3-1.1,0l-1.3,1.3
					c-0.3,0.3-0.3,0.8,0,1.1l3.6,3.7l-3.6,3.7c-0.3,0.3-0.3,0.8,0,1.1l1.3,1.3c0.3,0.3,0.8,0.3,1.1,0l3.6-3.6l3.6,3.6
					c0.3,0.3,0.8,0.3,1.1,0l1.3-1.3c0.3-0.3,0.3-0.8,0-1.1l-3.6-3.7l3.6-3.7c0.3-0.3,0.3-0.8,0-1.1L42,153.3z"/>
			</g>
			<g>
				<g>
					<rect x="56.5" y="158.2" class="st3" width="88.9" height="4"/>
					<rect x="56.5" y="166.8" class="st3" width="82.1" height="4"/>
				</g>
				<rect x="56.5" y="147.1" class="st3" width="30.4" height="4.6"/>
			</g>
		</g>
		<g>
			<g>
				<path id="curve0_2_" class="st6" d="M38.7,184.1c6.2,0,11.2,5,11.2,11.2c0,6.2-5,11.2-11.2,11.2s-11.2-5-11.2-11.2
					C27.5,189.1,32.6,184.1,38.7,184.1z M32.1,195.5c-0.3,0.3-0.3,0.8,0,1.1l4.5,4.5c0.3,0.3,0.8,0.3,1.1,0l8.5-8.5
					c0.3-0.3,0.3-0.8,0-1.1l-1.3-1.3c-0.3-0.3-0.8-0.3-1.1,0l-6.6,6.6l-2.6-2.6c-0.3-0.3-0.8-0.3-1.1,0L32.1,195.5z"/>
			</g>
			<g>
				<rect x="57.8" y="184.1" class="st3" width="30.4" height="4.6"/>
				<g>
					<rect x="57.8" y="195.2" class="st3" width="88.9" height="3"/>
					<rect x="57.8" y="203.8" class="st3" width="82.1" height="3"/>
				</g>
			</g>
		</g>
	</g>
</g>
<g id="t2">
</g>
<g id="t1">
</g>
</svg>
