<svg xmlns="http://www.w3.org/2000/svg" width="1024" height="1024" shape-rendering="geometricPrecision" text-rendering="geometricPrecision" image-rendering="optimizeQuality" clip-rule="evenodd" viewBox="0 0 10240 10240"><title>3d_glasses icon</title><desc>3d_glasses icon from the IconExperience.com O-Collection. Copyright by INCORS GmbH (www.incors.com).</desc><path fill="gray" d="M6669 6080c-89-175-174-356-261-531-39-78-85-152-137-222-131-175-191-356-191-575v-592h2560v1920H6669zM3571 6080c89-175 174-356 261-531 39-78 85-152 137-222 131-175 191-356 191-575v-592H1600v1920h1971z"/><path fill="#4D82B8" d="M960 3200h8320c176 0 320 144 320 320v3200c0 176-144 320-320 320H6476c-249 0-462-132-573-354l-354-707c-83-167-243-266-429-266s-346 99-429 266l-354 707c-111 222-324 354-573 354H960c-176 0-320-144-320-320V3520c0-176 144-320 320-320zm5162 2492c120 240 249 708 547 708h1971c176 0 320-144 320-320V4160c0-176-144-320-320-320H6080c-176 0-320 144-320 320v592c0 288 83 536 255 767 41 54 76 113 107 173zm-2551 708c123 0 229-65 285-175 90-177 174-356 262-533 31-60 67-119 107-173 172-231 255-479 255-767v-592c0-176-144-320-320-320H1600c-176 0-320 144-320 320v1920c0 176 144 320 320 320h1971z"/></svg>