<svg xmlns="http://www.w3.org/2000/svg" width="1024" height="1024" shape-rendering="geometricPrecision" text-rendering="geometricPrecision" image-rendering="optimizeQuality" clip-rule="evenodd" viewBox="0 0 10240 10240"><title>add icon</title><desc>add icon from the IconExperience.com O-Collection. Copyright by INCORS GmbH (www.incors.com).</desc><path fill="#76A797" d="M5120 640c2474 0 4480 2006 4480 4480S7594 9600 5120 9600 640 7594 640 5120 2646 640 5120 640zM2240 4160c-176 0-320 144-320 320v1280c0 176 144 320 320 320h1920v1920c0 176 144 320 320 320h1280c176 0 320-144 320-320V6080h1920c176 0 320-144 320-320V4480c0-176-144-320-320-320H6080V2240c0-176-144-320-320-320H4480c-176 0-320 144-320 320v1920H2240z"/></svg>