<svg xmlns="http://www.w3.org/2000/svg" width="1024" height="1024" shape-rendering="geometricPrecision" text-rendering="geometricPrecision" image-rendering="optimizeQuality" clip-rule="evenodd" viewBox="0 0 10240 10240"><title>address_book2 icon</title><desc>address_book2 icon from the IconExperience.com O-Collection. Copyright by INCORS GmbH (www.incors.com).</desc><path fill="#4D82B8" d="M2560 640c-707 0-1280 573-1280 1280v6400c0 707 573 1280 1280 1280h6080c177 0 320-143 320-320V2560c0-353-287-640-640-640H2560c-176 0-320-144-320-320s144-320 320-320h5440c176 0 320 144 320 320 246 0 470 92 640 245v-565c0-362-287-645-640-640-1921-1-3844 0-5760 0zm3280 6095c-198 116-463 170-691 135-485-75-839-498-839-986 0-55 5-112 14-171 82-536 549-1073 1116-1073 176 0 332 19 465 64l20-117 630 105c-79 470-158 938-237 1406-29 168 40 302 146 373 94 63 214 80 316 23 218-123 260-503 260-734 0-884-716-1600-1600-1600s-1600 716-1600 1600 716 1600 1600 1600c177 0 347-29 506-82 182 119 393 191 611 207 114 8 228 0 339-22-392 335-900 537-1456 537-1237 0-2240-1003-2240-2240s1003-2240 2240-2240 2240 1003 2240 2240c0 66-3 130-8 195-47 621-394 1261-1092 1211-298-22-573-184-740-431zm-66-1256c8-79 1-125-19-143-44-40-153-56-315-56-87 0-196 56-292 152-94 94-168 223-192 376-18 116 4 232 88 321 58 62 149 111 236 111 236 0 372-114 422-343l72-418z"/></svg>