<svg xmlns="http://www.w3.org/2000/svg" width="1024" height="1024" shape-rendering="geometricPrecision" text-rendering="geometricPrecision" image-rendering="optimizeQuality" clip-rule="evenodd" viewBox="0 0 10240 10240"><title>airbrush icon</title><desc>airbrush icon from the IconExperience.com O-Collection. Copyright by INCORS GmbH (www.incors.com).</desc><path fill="#4D82B8" d="M2240 8960c177 0 320 143 320 320s-143 320-320 320-320-143-320-320 143-320 320-320zm320-960c177 0 320 143 320 320s-143 320-320 320-320-143-320-320 143-320 320-320zm320-960c177 0 320 143 320 320s-143 320-320 320-320-143-320-320 143-320 320-320zm-960 320c177 0 320 143 320 320s-143 320-320 320-320-143-320-320 143-320 320-320zm-960 320c177 0 320 143 320 320s-143 320-320 320-320-143-320-320 143-320 320-320zm640 640c177 0 320 143 320 320s-143 320-320 320-320-143-320-320 143-320 320-320z"/><path fill="gray" d="M4508 3863c316-316 701-444 859-286s30 543-286 859-701 444-859 286-30-543 286-859z"/><path fill="gray" d="M3701 5259l303-303c187 180 455 182 689 104 230-76 444-228 614-398s322-384 398-614c78-234 76-502-104-689l799-799c640-640 2880-2240 3200-1920S8320 3200 7680 3840v3200c0 352-288 640-640 640h-320c-352 0-640-287-640-640v-187c0-133-75-246-198-296-91-38-189-33-271 12-127 68-276 46-378-56l-113-113-139 139c-343 343-718 555-1189 673l-277 69c-36-290-266-521-556-556l69-277c118-471 330-846 673-1189z"/></svg>