<svg xmlns="http://www.w3.org/2000/svg" width="1024" height="1024" shape-rendering="geometricPrecision" text-rendering="geometricPrecision" image-rendering="optimizeQuality" clip-rule="evenodd" viewBox="0 0 10240 10240"><title>airplane icon</title><desc>airplane icon from the IconExperience.com O-Collection. Copyright by INCORS GmbH (www.incors.com).</desc><path fill="gray" d="M3840 9920l591-3840H3200c-265 0-628-49-1015-126l-809 971c-63 75-148 115-246 115H640l455-1364C482 5486 0 5268 0 5120s482-366 1095-556L640 3200h490c98 0 183 40 246 115l810 972c388-78 754-127 1022-127h1223L3840 320h461c115 0 219 51 273 152l1975 3688h1771c707 0 1920 430 1920 960s-1213 960-1920 960H6549L4574 9768c-54 100-158 152-273 152h-461z"/></svg>