<svg xmlns="http://www.w3.org/2000/svg" width="1024" height="1024" shape-rendering="geometricPrecision" text-rendering="geometricPrecision" image-rendering="optimizeQuality" clip-rule="evenodd" viewBox="0 0 10240 10240"><title>airplane2 icon</title><desc>airplane2 icon from the IconExperience.com O-Collection. Copyright by INCORS GmbH (www.incors.com).</desc><path fill="gray" d="M1867 6417c-707 0-1547-447-1547-977s893-960 1600-960h4535c176 0 328-63 452-187l1639-1639c63-63 138-94 227-94h703c106 0 198 47 260 133s77 187 44 288l-484 1450c-11 34-16 65-16 101v135c0 89 31 164 94 227l132 132c63 63 94 138 94 227v374c0 89-31 164-94 227l-139 139c-52 52-112 82-185 91l-1863 239-881-735c-120-99-254-148-410-148h-268l1581 1317c52 44 71 113 48 177-24 65-82 106-151 106h-687c-104 0-193-21-286-68L3200 5440v160c0 124 66 231 177 286l1061 531H1867z"/></svg>