<svg xmlns="http://www.w3.org/2000/svg" width="1024" height="1024" shape-rendering="geometricPrecision" text-rendering="geometricPrecision" image-rendering="optimizeQuality" clip-rule="evenodd" viewBox="0 0 10240 10240"><title>airship icon</title><desc>airship icon from the IconExperience.com O-Collection. Copyright by INCORS GmbH (www.incors.com).</desc><path fill="gray" d="M9460 4480c177 0 320 143 320 320s-143 320-320 320H7680c-177 0-320-143-320-320s143-320 320-320h1780zm-63-554l324-649c48-95 47-197-2-292-50-94-133-153-238-168l-1344-192c-249-35-484 71-620 274 650 267 1275 611 1880 1027zm-3 1742l327 655c48 95 47 197-2 292-50 94-133 153-238 168l-1344 192c-251 36-487-72-623-278 650-268 1275-614 1880-1029z"/><path fill="gray" d="M5120 6987v53c0 352-288 640-640 640H2560c-352 0-640-287-640-640v-292c-915-300-1600-879-1600-1948 0-1867 2089-2240 3840-2240 1882 0 3520 585 5011 1600H7680c-353 0-640 287-640 640s287 640 640 640h1480c-1229 835-2557 1382-4040 1547z"/></svg>