<svg xmlns="http://www.w3.org/2000/svg" width="1024" height="1024" shape-rendering="geometricPrecision" text-rendering="geometricPrecision" image-rendering="optimizeQuality" clip-rule="evenodd" viewBox="0 0 10240 10240"><title>alarm icon</title><desc>alarm icon from the IconExperience.com O-Collection. Copyright by INCORS GmbH (www.incors.com).</desc><path fill="gray" d="M6707 6799c198 109 333 320 333 561v1600c0 353-287 640-640 640H3200c-353 0-640-287-640-640V7360c0-241 135-452 333-561 549 355 1204 561 1907 561s1358-206 1907-561zM8320 960c353 0 640 287 640 640 0 117-32 228-87 322 389 783 504 1574 413 2346-120 1022-604 2003-1286 2880v1172c0 177-143 320-320 320s-320-143-320-320V6930l71-89c649-811 1110-1715 1220-2646 75-641-18-1300-335-1955-351-2-636-288-636-640 0-353 287-640 640-640z"/><path fill="#E68497" d="M4800 640c1767 0 3200 1433 3200 3200S6567 7040 4800 7040 1600 5607 1600 3840 3033 640 4800 640zm0 2560c-353 0-640 287-640 640s287 640 640 640 640-287 640-640-287-640-640-640zM2696 4541c152-50 243-202 214-360-20-111-30-225-30-341 0-1060 860-1920 1920-1920 116 0 230 10 341 30 158 29 310-62 360-214 62-186-54-381-247-416-147-26-299-40-454-40-1414 0-2560 1146-2560 2560 0 155 14 307 40 454 35 193 230 309 416 247z"/></svg>