<svg xmlns="http://www.w3.org/2000/svg" width="1024" height="1024" shape-rendering="geometricPrecision" text-rendering="geometricPrecision" image-rendering="optimizeQuality" clip-rule="evenodd" viewBox="0 0 10240 10240"><title>ambulance icon</title><desc>ambulance icon from the IconExperience.com O-Collection. Copyright by INCORS GmbH (www.incors.com).</desc><path fill="gray" d="M2880 7040c530 0 960 430 960 960s-430 960-960 960-960-430-960-960 430-960 960-960zm4480 640c177 0 320 143 320 320s-143 320-320 320-320-143-320-320 143-320 320-320zm-4480 0c-177 0-320 143-320 320s143 320 320 320 320-143 320-320-143-320-320-320zm4480-640c-530 0-960 430-960 960s430 960 960 960 960-430 960-960-430-960-960-960z"/><path fill="gray" d="M1280 3200h5929c497 0 923 263 1145 708l606 1212 265 265c249 249 375 553 375 905v110h-320c-176 0-320 144-320 320s144 320 320 320h320v320c0 352-288 640-640 640h-320c0-707-573-1280-1280-1280s-1280 573-1280 1280c0 110 14 218 40 320H4120c26-102 40-210 40-320 0-707-573-1280-1280-1280s-1280 573-1280 1280h-320c-352 0-640-288-640-640V3840c0-351 289-640 640-640zm1920 640v640h-640v640h640v640h640v-640h640v-640h-640v-640h-640zm2880 1280h1647c114 0 212-55 272-152s65-209 14-311l-232-463c-113-228-318-354-572-354H6080v1280z"/><path fill="#E68497" d="M7680 2880c-177 0-320-143-320-320s143-320 320-320h320c177 0 320 143 320 320s-143 320-320 320h-320zm-149-999c-125 125-327 125-452 0s-125-327 0-452l226-227c125-125 328-125 453 0s125 328 0 453l-227 226zm-2411 359c177 0 320 143 320 320s-143 320-320 320h-320c-177 0-320-143-320-320s143-320 320-320h320zm601-811c125 125 125 327 0 452s-327 125-452 0l-227-226c-125-125-125-328 0-453s328-125 453 0l226 227zm999-149c0 177-143 320-320 320s-320-143-320-320V960c0-177 143-320 320-320s320 143 320 320v320zM6080 1920h640c176 0 320 144 320 320v640H5760v-640c0-176 144-320 320-320z"/></svg>