<svg xmlns="http://www.w3.org/2000/svg" width="1024" height="1024" shape-rendering="geometricPrecision" text-rendering="geometricPrecision" image-rendering="optimizeQuality" clip-rule="evenodd" viewBox="0 0 10240 10240"><title>anchor icon</title><desc>anchor icon from the IconExperience.com O-Collection. Copyright by INCORS GmbH (www.incors.com).</desc><path fill="#4D82B8" d="M3520 2880h740c-265-235-433-578-433-960 0-707 573-1280 1280-1280s1280 573 1280 1280c0 382-168 725-434 960h767v640H5464l243 4614c5 109 46 204 129 265 83 62 181 73 274 32 791-350 1392-1106 1584-2031h-654c0-640 640-1600 1120-1920 480 320 1120 1280 1120 1920h-689c-279 1816-1727 3200-3471 3200S1928 8216 1649 6400H960c0-640 640-1600 1120-1920 480 320 1120 1280 1120 1920h-654c192 925 793 1681 1584 2030 93 42 191 31 274-31 83-61 124-156 129-265l243-4614H3520v-640zm1587-1594c-352 0-637 285-637 637s285 637 637 637 637-285 637-637-285-637-637-637z"/></svg>