<svg xmlns="http://www.w3.org/2000/svg" width="1024" height="1024" shape-rendering="geometricPrecision" text-rendering="geometricPrecision" image-rendering="optimizeQuality" clip-rule="evenodd" viewBox="0 0 10240 10240"><title>angel icon</title><desc>angel icon from the IconExperience.com O-Collection. Copyright by INCORS GmbH (www.incors.com).</desc><path fill="gray" d="M8320 8470c0 810-1920 1130-3200 1130s-3200-320-3200-1129c0-1264 557-2379 1405-3039 492 391 1116 625 1795 625s1303-234 1795-625c848 660 1405 1774 1405 3038zM3386 6243c-538 585-816 1389-826 2184 85 89 344 194 438 227 342 122 725 193 1084 239 343 44 693 67 1038 67s695-23 1038-67c359-46 743-117 1085-239 93-33 352-138 437-228-10-794-288-1598-826-2183-527 297-1122 454-1734 454s-1207-157-1734-454zM9280 5120c353 0 640 287 640 640s-287 640-640 640c-170 0-294-13-455 68-230 114-378 242-485 389-245-630-638-1200-1172-1633 330-333 578-746 714-1207v-1c260-812 593-1456 1154-1456h244c353 0 640 287 640 640s-287 640-640 640c353 0 640 287 640 640s-287 640-640 640zm-8320 0c-353 0-640 287-640 640s287 640 640 640c170 0 294-13 455 68 230 114 378 242 485 389 245-630 638-1200 1172-1633-330-333-578-746-714-1207v-1c-260-812-593-1456-1154-1456H960c-353 0-640 287-640 640s287 640 640 640c-353 0-640 287-640 640s287 640 640 640z"/><path fill="#EFC1B4" d="M5120 640c356 0 695 72 1002 203-39 11-74 20-97 25-290 68-607 92-905 92s-614-24-905-92c-23-5-58-14-97-25 307-131 646-203 1002-203zm2168 1193c248 393 392 858 392 1356 0 1408-1146 2550-2560 2550S2560 4597 2560 3189c0-498 144-963 392-1356 83 41 166 76 245 105 591 222 1295 302 1923 302s1332-80 1923-302c79-29 162-64 245-105z"/><path fill="#EDC87E" d="M5120 0c1414 0 2560 430 2560 960s-1146 960-2560 960-2560-430-2560-960S3706 0 5120 0zm0 320c-884 0-1600 215-1600 480s716 480 1600 480 1600-215 1600-480-716-480-1600-480z"/></svg>