<svg xmlns="http://www.w3.org/2000/svg" width="1024" height="1024" shape-rendering="geometricPrecision" text-rendering="geometricPrecision" image-rendering="optimizeQuality" clip-rule="evenodd" viewBox="0 0 10240 10240"><title>arrow_merge2 icon</title><desc>arrow_merge2 icon from the IconExperience.com O-Collection. Copyright by INCORS GmbH (www.incors.com).</desc><path fill="#4D82B8" d="M5120 8960V6526c-203 170-428 321-675 444l-1280 640-570-1140 1280-640c379-190 681-485 894-825 229-368 351-782 351-1165v-960l-687 687c-47 46-113 60-174 34-61-25-100-82-99-147l7-839c1-176 63-328 187-453L5541 976c124-124 328-124 452 0l1187 1186c124 125 188 277 187 453l-7 839c-1 66-38 122-99 147-61 26-127 12-174-34l-687-687v6080H5120z"/></svg>