<svg xmlns="http://www.w3.org/2000/svg" width="1024" height="1024" shape-rendering="geometricPrecision" text-rendering="geometricPrecision" image-rendering="optimizeQuality" clip-rule="evenodd" viewBox="0 0 10240 10240"><title>arrow_up icon</title><desc>arrow_up icon from the IconExperience.com O-Collection. Copyright by INCORS GmbH (www.incors.com).</desc><path fill="#4D82B8" d="M7727 5807L6080 4160v5120c0 176-144 320-320 320H4480c-176 0-320-144-320-320V4160L2513 5807c-47 47-113 60-174 35-61-26-99-82-99-148V3630c0-176 63-328 187-453L4894 711c124-124 328-124 452 0l2467 2466c124 125 187 277 187 453v2064c0 66-38 122-99 148-61 25-127 12-174-35z"/></svg>