<svg xmlns="http://www.w3.org/2000/svg" width="1024" height="1024" shape-rendering="geometricPrecision" text-rendering="geometricPrecision" image-rendering="optimizeQuality" clip-rule="evenodd" viewBox="0 0 10240 10240"><title>arrow_loop2 icon</title><desc>arrow_loop2 icon from the IconExperience.com O-Collection. Copyright by INCORS GmbH (www.incors.com).</desc><path fill="#4D82B8" d="M3200 6400h3838c347-4 661-128 907-375 232-231 375-551 375-905s-143-674-375-905c-231-232-551-375-905-375H5760l687 687c46 47 60 113 34 174-25 61-81 98-147 99l-839 7c-176 1-328-63-453-188L3856 3433c-124-124-124-328 0-452l1186-1187c125-124 277-186 453-187l839-7c65-1 122 38 147 99 26 61 12 127-34 174l-687 687h1278c672-9 1339 276 1812 750 463 463 750 1103 750 1810s-287 1347-750 1810-1103 750-1810 750H3200c-707 0-1347-287-1810-750S640 5827 640 5120s287-1347 750-1810 1103-750 1810-750h624l-194 194c-249 250-249 656 0 905l181 181h-611c-354 0-674 143-905 375-232 231-375 551-375 905s143 674 375 905c231 232 551 375 905 375z"/></svg>