<svg xmlns="http://www.w3.org/2000/svg" width="1024" height="1024" shape-rendering="geometricPrecision" text-rendering="geometricPrecision" image-rendering="optimizeQuality" clip-rule="evenodd" viewBox="0 0 10240 10240"><title>arrow_barrier icon</title><desc>arrow_barrier icon from the IconExperience.com O-Collection. Copyright by INCORS GmbH (www.incors.com).</desc><path fill="#4D82B8" d="M6539 4082L5353 2896c-124-124-328-124-452 0L3714 4082c-124 125-186 277-187 453l-7 839c-1 65 38 122 99 147 61 26 127 12 174-34l687-687v4160h1280V4800l687 687c47 46 113 60 174 34 61-25 98-81 99-147l7-839c1-176-63-328-188-453z"/><path fill="gray" d="M1920 1280h6400v1280H1920z"/></svg>