<svg xmlns="http://www.w3.org/2000/svg" width="1024" height="1024" shape-rendering="geometricPrecision" text-rendering="geometricPrecision" image-rendering="optimizeQuality" clip-rule="evenodd" viewBox="0 0 10240 10240"><title>arrow_loop icon</title><desc>arrow_loop icon from the IconExperience.com O-Collection. Copyright by INCORS GmbH (www.incors.com).</desc><path fill="#4D82B8" d="M640 5120h3200c530 0 960-430 960-960s-430-960-960-960-960 430-960 960c0 246 92 470 244 640H1693c-61-203-93-418-93-640 0-618 251-1179 656-1584s966-656 1584-656c1237 0 2240 1003 2240 2240S5077 6400 3840 6400H640V5120zm7758 2059l1186-1186c124-124 124-328 0-452L8398 4354c-125-124-277-186-453-187l-839-7c-65-1-122 38-147 99-26 61-12 127 34 174l687 687H6214c-220 543-622 996-1134 1280h2600l-687 687c-46 47-60 113-34 174 25 61 81 98 147 99l839 7c176 1 328-63 453-188z"/></svg>