<svg xmlns="http://www.w3.org/2000/svg" width="1024" height="1024" shape-rendering="geometricPrecision" text-rendering="geometricPrecision" image-rendering="optimizeQuality" clip-rule="evenodd" viewBox="0 0 10240 10240"><title>arrow_over icon</title><desc>arrow_over icon from the IconExperience.com O-Collection. Copyright by INCORS GmbH (www.incors.com).</desc><path fill="gray" d="M1280 5120h3200c354 0 640 286 640 640s-286 640-640 640H1280V5120zm5679 0h2001v1280H6959c53-206 81-420 81-640s-28-434-81-640z"/><path fill="#4D82B8" d="M5899 2162L4713 976c-124-124-328-124-452 0L3074 2162c-124 125-186 277-187 453l-7 839c-1 142 172 214 273 113l687-687v1280c0 353 287 640 640 640 530 0 960 430 960 960s-430 960-960 960c-353 0-640 287-640 640v2240h1280V7907c947-282 1600-1155 1600-2147s-653-1865-1600-2147v-733l687 687c101 101 272 30 273-113l7-839c1-176-63-328-188-453z"/></svg>