<svg xmlns="http://www.w3.org/2000/svg" width="1024" height="1024" shape-rendering="geometricPrecision" text-rendering="geometricPrecision" image-rendering="optimizeQuality" clip-rule="evenodd" viewBox="0 0 10240 10240"><title>arrow_merge icon</title><desc>arrow_merge icon from the IconExperience.com O-Collection. Copyright by INCORS GmbH (www.incors.com).</desc><path fill="#4D82B8" d="M7360 5760h-960c-695 0-1081 386-1468 773-573 573-1147 1147-2372 1147H1280V6400h1280c695 0 1081-386 1467-773 175-174 350-349 543-507-193-158-368-333-543-507-386-387-772-773-1467-773H1280V2560h1280c1225 0 1799 574 2372 1147 387 387 773 773 1468 773h960l-687-687c-46-47-60-113-34-174 25-61 82-100 147-99l839 7c176 1 328 63 453 187l1186 1187c124 124 124 328 0 452L8078 6539c-125 125-277 189-453 188l-839-7c-66-1-122-38-147-99-26-61-12-127 34-174l687-687z"/></svg>