<svg xmlns="http://www.w3.org/2000/svg" width="1024" height="1024" shape-rendering="geometricPrecision" text-rendering="geometricPrecision" image-rendering="optimizeQuality" clip-rule="evenodd" viewBox="0 0 10240 10240"><title>arrow_circle icon</title><desc>arrow_circle icon from the IconExperience.com O-Collection. Copyright by INCORS GmbH (www.incors.com).</desc><path fill="#4D82B8" d="M4308 3973L3122 2786c-124-124-124-328 0-452l1186-1187c125-124 277-186 453-187l839-7c65 0 122 38 147 99 26 61 12 128-34 174l-687 687 94 7c884 0 1684 358 2263 937s937 1379 937 2263-358 1684-937 2263-1379 937-2263 937-1684-358-2263-937-937-1379-937-2263c0-859 339-1639 890-2214 24 38 53 73 86 107l809 809c-313 342-505 797-505 1298 0 530 215 1010 562 1358 348 347 828 562 1358 562s1010-215 1358-562c347-348 562-828 562-1358s-215-1010-562-1358c-348-347-828-562-1358-562-29 0-57 1-85 2l678 678c46 47 60 113 34 174-25 61-81 99-147 99l-839 7c-176 1-328-63-453-187z"/></svg>