<svg xmlns="http://www.w3.org/2000/svg" width="1024" height="1024" shape-rendering="geometricPrecision" text-rendering="geometricPrecision" image-rendering="optimizeQuality" clip-rule="evenodd" viewBox="0 0 10240 10240"><title>arrow_down icon</title><desc>arrow_down icon from the IconExperience.com O-Collection. Copyright by INCORS GmbH (www.incors.com).</desc><path fill="#4D82B8" d="M2513 4411l1647 1647V938c0-176 144-320 320-320h1280c176 0 320 144 320 320v5120l1647-1647c47-47 113-60 174-35s99 82 99 148v2064c0 176-63 328-187 452L5346 9507c-124 124-328 124-452 0L2427 7040c-124-124-187-276-187-452V4524c0-66 38-123 99-148s127-12 174 35z"/></svg>