<svg xmlns="http://www.w3.org/2000/svg" width="1024" height="1024" shape-rendering="geometricPrecision" text-rendering="geometricPrecision" image-rendering="optimizeQuality" clip-rule="evenodd" viewBox="0 0 10240 10240"><title>arrow_up_right icon</title><desc>arrow_up_right icon from the IconExperience.com O-Collection. Copyright by INCORS GmbH (www.incors.com).</desc><path fill="#4D82B8" d="M6400 7527V5197L2780 8818c-125 124-328 124-453 0l-905-905c-124-125-124-328 0-453l3621-3620H2714c-67 0-123-38-148-99-26-61-12-128 34-174l1460-1460c124-124 276-187 452-187h3488c176 0 320 144 320 320v3488c0 176-63 328-187 452L6673 7640c-46 46-113 60-174 34-61-25-99-81-99-147z"/></svg>