<svg xmlns="http://www.w3.org/2000/svg" width="1024" height="1024" shape-rendering="geometricPrecision" text-rendering="geometricPrecision" image-rendering="optimizeQuality" clip-rule="evenodd" viewBox="0 0 10240 10240"><title>arrow_join2 icon</title><desc>arrow_join2 icon from the IconExperience.com O-Collection. Copyright by INCORS GmbH (www.incors.com).</desc><path fill="#4D82B8" d="M8188 9092L6935 7840l-5-5-226-226v971c0 66-38 123-99 148s-127 12-174-35l-598-588c-126-123-188-276-188-452V5975c0-176 145-320 320-320h1678c176 0 327 64 453 188l597 588c47 46 60 113 35 174s-82 99-148 99h-971l226 226 4 4 1254 1253-905 905zM1150 8187l1213-1206c12-18 26-35 42-51l226-226h-971c-66 0-123-38-148-99s-12-127 35-174l588-598c123-126 276-188 452-188h1678c176 0 320 145 320 320v1678c0 176-64 327-188 453l-588 597c-46 47-113 60-174 35s-99-82-99-148v-965L2050 9092l-900-905zM9090 2052L7877 3259c-12 18-26 35-42 51l-226 226h971c66 0 123 38 148 99s12 127-35 174l-588 598c-123 126-276 188-452 188H5975c-176 0-320-145-320-320V2597c0-176 64-327 188-453l588-597c46-47 113-60 174-35s99 82 99 148v965l1486-1478 900 905zM4595 2587v1678c0 176-145 320-320 320H2597c-176 0-327-64-453-188l-597-588c-47-46-60-113-35-174s82-99 148-99h965L1148 2050l905-900 1206 1213c18 12 35 26 51 42l226 226v-971c0-66 38-123 99-148s127-12 174 35l598 588c126 123 188 276 188 452z"/></svg>