<svg xmlns="http://www.w3.org/2000/svg" width="1024" height="1024" shape-rendering="geometricPrecision" text-rendering="geometricPrecision" image-rendering="optimizeQuality" clip-rule="evenodd" viewBox="0 0 10240 10240"><title>arrow_into icon</title><desc>arrow_into icon from the IconExperience.com O-Collection. Copyright by INCORS GmbH (www.incors.com).</desc><path fill="gray" d="M1280 7680h2934l454 453c249 249 655 249 905 0l453-453h2934v1280H1280V7680z"/><path fill="#4D82B8" d="M3707 6721l1187 1186c124 124 328 124 452 0l1187-1186c124-125 186-277 187-453l7-839c1-142-172-214-273-113l-692 692-2-1208c-1-538 426-960 963-960h2237V2560H6723c-1234 0-2246 1005-2243 2240l2 1208-682-692c-101-101-272-30-273 113l-7 839c-1 176 63 328 187 453z"/></svg>