<svg xmlns="http://www.w3.org/2000/svg" width="1024" height="1024" shape-rendering="geometricPrecision" text-rendering="geometricPrecision" image-rendering="optimizeQuality" clip-rule="evenodd" viewBox="0 0 10240 10240"><title>arrow_down_right icon</title><desc>arrow_down_right icon from the IconExperience.com O-Collection. Copyright by INCORS GmbH (www.incors.com).</desc><path fill="#4D82B8" d="M2713 6400h2330L1422 2780c-124-125-124-328 0-453l905-905c125-124 328-124 453 0l3620 3621V2714c0-67 38-123 99-148 61-26 128-12 174 34l1460 1460c124 124 187 276 187 452v3488c0 176-144 320-320 320H4512c-176 0-328-63-452-187L2600 6673c-46-46-60-113-34-174 25-61 81-99 147-99z"/></svg>