<svg xmlns="http://www.w3.org/2000/svg" width="1024" height="1024" shape-rendering="geometricPrecision" text-rendering="geometricPrecision" image-rendering="optimizeQuality" clip-rule="evenodd" viewBox="0 0 10240 10240"><title>arrow_around icon</title><desc>arrow_around icon from the IconExperience.com O-Collection. Copyright by INCORS GmbH (www.incors.com).</desc><path fill="#4D82B8" d="M5899 1842L4713 656c-124-124-328-124-452 0L3074 1842c-124 125-186 277-187 453l-7 839c-1 65 38 122 99 147 61 26 127 12 174-34l687-687v1280c0 343 305 640 640 640 707 0 1280 573 1280 1280s-573 1280-1280 1280c-353 0-640 287-640 640 0 19 1 38 2 56l1 1864h1275l-1-1360c1129-289 1923-1311 1923-2480s-794-2191-1923-2480c0-240 3-480 3-720l687 687c47 46 113 60 174 34 61-25 98-81 99-147l7-839c1-176-63-328-188-453z"/><path fill="gray" d="M4480 4800c530 0 960 430 960 960s-430 960-960 960-960-430-960-960 430-960 960-960z"/></svg>