<svg xmlns="http://www.w3.org/2000/svg" width="1024" height="1024" shape-rendering="geometricPrecision" text-rendering="geometricPrecision" image-rendering="optimizeQuality" clip-rule="evenodd" viewBox="0 0 10240 10240"><title>arrow_squiggly icon</title><desc>arrow_squiggly icon from the IconExperience.com O-Collection. Copyright by INCORS GmbH (www.incors.com).</desc><path fill="#4D82B8" d="M6539 1842L5353 656c-124-124-328-124-452 0L3714 1842c-124 125-186 277-187 453l-7 839c-1 65 38 122 99 147 61 26 127 12 174-34l687-687v320c0 163-191 307-383 450-448 337-897 673-897 1470 0 1299 883 1519 1765 1740 397 99 795 199 795 500 0 163-191 307-382 450-449 337-898 673-898 1470v640h1280v-640c0-163 191-307 383-450 448-337 897-673 897-1470 0-1299-883-1519-1765-1740-397-99-795-199-795-500 0-163 191-307 382-450 449-337 898-673 898-1470v-320l687 687c47 46 113 60 174 34 61-25 98-81 99-147l7-839c1-176-63-328-188-453z"/></svg>