<svg xmlns="http://www.w3.org/2000/svg" width="1024" height="1024" shape-rendering="geometricPrecision" text-rendering="geometricPrecision" image-rendering="optimizeQuality" clip-rule="evenodd" viewBox="0 0 10240 10240"><title>arrow_join icon</title><desc>arrow_join icon from the IconExperience.com O-Collection. Copyright by INCORS GmbH (www.incors.com).</desc><path fill="#4D82B8" d="M3701 7282l1186-1186c124-124 328-124 452 0l1187 1186c124 125 186 277 187 453l7 839c1 65-38 122-99 147-61 26-127 12-174-34l-687-687-9 1600H4476l4-1600-687 687c-47 46-113 60-174 34-61-25-98-81-99-147l-7-839c-1-176 63-328 188-453zM7282 6539L6096 5353c-124-124-124-328 0-452l1186-1187c125-124 277-186 453-187l839-7c65-1 122 38 147 99 26 61 12 128-34 174l-684 684 1597 3v1280H8000l687 687c46 47 60 113 34 174-25 61-81 98-147 99l-839 7c-176 1-328-63-453-188zM2958 3701l1186 1186c124 124 124 328 0 452L2958 6526c-125 124-277 186-453 187l-839 7c-65 1-122-38-147-99-26-61-12-127 34-174l684-684-1597-3V4482l1600-2-687-687c-46-47-60-113-34-174 25-61 81-98 147-99l839-7c176-1 328 63 453 188zM6539 2958L5353 4144c-124 124-328 124-452 0L3714 2958c-124-125-186-277-187-453l-7-839c-1-65 38-122 99-147 61-26 127-12 174 34l684 684 5-1597h1276l2 1600 687-687c47-46 113-60 174-34 61 25 98 81 99 147l7 839c1 176-63 328-188 453z"/></svg>