<svg xmlns="http://www.w3.org/2000/svg" width="1024" height="1024" shape-rendering="geometricPrecision" text-rendering="geometricPrecision" image-rendering="optimizeQuality" clip-rule="evenodd" viewBox="0 0 10240 10240"><title>ashtray_cigarette icon</title><desc>ashtray_cigarette icon from the IconExperience.com O-Collection. Copyright by INCORS GmbH (www.incors.com).</desc><path fill="gray" d="M2263 5760h440l286 495c-461 117-749 282-749 465 0 353 1075 640 2400 640s2400-287 2400-640c0-292-733-538-1734-615l597-345h1061c249 0 462 132 573 354l715 1431c47 93 68 182 68 286v1449c0 176-144 320-320 320H960c-176 0-320-144-320-320V7874c0-132 34-245 107-355l983-1474c122-184 312-285 533-285z"/><path fill="#ED9A56" d="M3098 5163l831-480 800 1385-831 480c-153 88-349 36-438-117l-480-831c-88-153-35-349 118-437z"/><path fill="gray" d="M4206 4523l4434-2560c153-88 349-36 437 117l480 831c88 153 36 349-117 437L5006 5908l-160-277 2494-1440-480-831-2494 1440-160-277zM4480 960c-820-390-1280 0-1280 320 0 640 960 802 960 1600 0 1258-1546 971-991 1872l-23 13c-1343-882 54-1251 54-1675 0-640-1280-680-1280-1640 0-986 1377-1678 2560-490z"/></svg>