<svg xmlns="http://www.w3.org/2000/svg" width="1024" height="1024" shape-rendering="geometricPrecision" text-rendering="geometricPrecision" image-rendering="optimizeQuality" clip-rule="evenodd" viewBox="0 0 10240 10240"><title>astronaut icon</title><desc>astronaut icon from the IconExperience.com O-Collection. Copyright by INCORS GmbH (www.incors.com).</desc><path fill="gray" d="M8960 8323c0 915-2304 1277-3840 1277s-3840-362-3840-1276c0-1745 538-2193 1547-2893 581 598 1394 969 2293 969s1712-371 2293-969c1010 700 1547 1146 1547 2892zM2784 6248c-175 134-343 280-470 440-348 440-393 1065-394 1606 88 117 445 259 562 299 435 151 926 237 1383 291 415 50 837 76 1255 76s840-26 1255-76c457-54 948-140 1383-291 117-41 474-183 562-299-2-540-45-1167-393-1606-127-160-296-306-471-440-666 511-1484 792-2336 792s-1669-280-2336-792z"/><path fill="gray" d="M8091 4390c332 232 549 616 549 1050v1191c-89-168-196-316-320-452v-739c0-305-143-577-366-753 51-96 96-195 137-297zM1600 6634V5440c0-434 218-818 549-1050 41 102 86 201 137 297-223 176-366 448-366 753v744c-124 136-231 282-320 450z"/><path fill="#4D82B8" d="M7037 8792c-104 21-209 39-315 55l-2-10v-197h-960v-320h960v-320H5120v-320H3520v1157l-3 10c-106-16-211-34-316-55l-1-10V7680c0-176 144-320 320-320h1600c176 0 320 144 320 320h320v-320h960v320c176 0 320 144 320 320v782l-3 10zm-2557-792c353 0 640 287 640 640 0 116-31 226-85 320-3 3-6 6-9 10-377-4-754-28-1128-72-3-4-6-7-9-11-31-76-49-159-49-247 0-353 287-640 640-640z"/><path fill="gray" d="M5120 320c1591 0 2880 1289 2880 2880S6711 6080 5120 6080 2240 4791 2240 3200 3529 320 5120 320zm0 640c-1237 0-2240 1003-2240 2240s1003 2240 2240 2240 2240-1003 2240-2240S6357 960 5120 960z"/><path fill="#4D82B8" d="M6734 2432c194 240 306 525 306 832 0 848-860 1536-1920 1536s-1920-688-1920-1536c0-307 112-592 306-832 474-122 1025-192 1614-192s1140 70 1614 192zm-2414 128c-265 0-480 215-480 480s215 480 480 480 480-215 480-480-215-480-480-480z"/></svg>