<svg xmlns="http://www.w3.org/2000/svg" width="1024" height="1024" shape-rendering="geometricPrecision" text-rendering="geometricPrecision" image-rendering="optimizeQuality" clip-rule="evenodd" viewBox="0 0 10240 10240"><title>auction_hammer icon</title><desc>auction_hammer icon from the IconExperience.com O-Collection. Copyright by INCORS GmbH (www.incors.com).</desc><path fill="#B89A7C" d="M6400 7680h2560c353 0 640 288 640 640v640H5760v-640c0-352 287-640 640-640zm0-320c0-176 144-320 320-320h1920c176 0 320 144 320 320H6400zM4640 4062l898 898-449 449c-449 0-886 436-1122 673-677 677-898 1346-1795 2244l-449 449c-247 247-650 247-898 0-247-248-247-651 0-898l449-449c898-897 1567-1118 2244-1795 237-236 673-673 673-1122l449-449zM5762 1145l60 61c82 82 112 193 82 306-28 106-1 223 82 307 83 83 201 110 307 82 113-30 224 0 306 82l1018 1018c83 82 112 193 82 306-28 106-1 224 82 307 84 83 201 110 307 82 113-30 224 0 307 82l60 60c247 247 247 650 0 898l-898 897c-247 247-650 247-898 0l-60-60c-82-82-112-194-82-306 29-106 1-224-82-307s-201-110-307-82c-112 30-224 0-306-82L4804 3778c-82-82-112-194-82-306 28-106 1-224-82-307s-201-111-307-82c-112 30-224 0-306-82l-60-61c-247-247-247-650 0-897l897-898c248-247 651-247 898 0z"/></svg>