<svg xmlns="http://www.w3.org/2000/svg" width="1024" height="1024" shape-rendering="geometricPrecision" text-rendering="geometricPrecision" image-rendering="optimizeQuality" clip-rule="evenodd" viewBox="0 0 10240 10240"><title>baby icon</title><desc>baby icon from the IconExperience.com O-Collection. Copyright by INCORS GmbH (www.incors.com).</desc><path fill="#4D82B8" d="M7360 8819c0 560-1344 781-2240 781s-2240-221-2240-780c0-716 262-1363 683-1824 139 69 282 129 429 178 216 301 640 506 1128 506s912-205 1128-506c147-49 290-109 429-178 421 461 683 1107 683 1823z"/><path fill="gray" d="M5952 6400c81 94 128 203 128 320 0 353-430 640-960 640s-960-287-960-640c0-117 47-226 128-320-81-94-128-203-128-320 0-353 430-640 960-640s960 287 960 640c0 117-47 226-128 320zm-833 0c-285 0-516 143-516 320s231 320 516 320 516-143 516-320-231-320-516-320z"/><path fill="#EFC1B4" d="M6627 2298c824 451 1373 1259 1373 2182 0 1006-653 1876-1602 2295 1-19 2-37 2-55 0-112-26-220-73-320 47-100 73-208 73-320 0-530-573-960-1280-960s-1280 430-1280 960c0 112 26 220 73 320-47 100-73 208-73 320 0 18 1 36 2 55-949-419-1602-1289-1602-2295 0-1039 697-1933 1697-2335 319-127 885-555 598-905-252-308-979-160-855 360-387-425 0-960 720-960 1472 0 1346 1176 2227 1658z"/></svg>