<svg xmlns="http://www.w3.org/2000/svg" width="1024" height="1024" shape-rendering="geometricPrecision" text-rendering="geometricPrecision" image-rendering="optimizeQuality" clip-rule="evenodd" viewBox="0 0 10240 10240"><title>backpack icon</title><desc>backpack icon from the IconExperience.com O-Collection. Copyright by INCORS GmbH (www.incors.com).</desc><path fill="gray" d="M5120 3520c1060 0 1920 860 1920 1920v3200c0 352-288 640-640 640H3840c-352 0-640-288-640-640V5440c0-1060 860-1920 1920-1920zm1280 1920c0-176-144-320-320-320H4160c-176 0-320 144-320 320s144 320 320 320h1920c176 0 320-144 320-320z"/><path fill="#76A797" d="M8320 4800v4160c0 352-288 640-640 640H6400c529 0 960-431 960-960V5440c0-1237-1003-2240-2240-2240S2880 4203 2880 5440v3200c0 529 431 960 960 960H2560c-352 0-640-287-640-640V4800c0-1767 1433-3200 3200-3200s3200 1433 3200 3200z"/><path fill="gray" d="M6720 640h640c176 0 320 144 320 320v1424c-354-375-791-673-1280-864V960c0-176 144-320 320-320zm-3840 0h640c176 0 320 144 320 320v560c-489 191-926 489-1280 864V960c0-176 144-320 320-320z"/></svg>