<svg xmlns="http://www.w3.org/2000/svg" width="1024" height="1024" shape-rendering="geometricPrecision" text-rendering="geometricPrecision" image-rendering="optimizeQuality" clip-rule="evenodd" viewBox="0 0 10240 10240"><title>badminton_racket icon</title><desc>badminton_racket icon from the IconExperience.com O-Collection. Copyright by INCORS GmbH (www.incors.com).</desc><path fill="#ED9A56" d="M3411 7157l-155 618c-13 52-36 93-74 131L1584 9504c-110 110-290 110-400 0l-448-448c-110-110-110-290 0-400l1598-1598c38-38 79-61 131-74l618-155 328 328z"/><path fill="gray" d="M8507 4653c-705 705-1846 1053-2761 551l-644 161-1516 1515-226-226 1515-1516 161-644c-502-915-154-2056 551-2761 830-830 2269-1145 3167-247s583 2337-247 3167zm-452-453c576-576 889-1619 247-2262-645-644-1689-326-2262 247-577 577-889 1620-247 2262 644 644 1689 326 2262-247z"/></svg>