<svg xmlns="http://www.w3.org/2000/svg" width="1024" height="1024" shape-rendering="geometricPrecision" text-rendering="geometricPrecision" image-rendering="optimizeQuality" clip-rule="evenodd" viewBox="0 0 10240 10240"><title>barcode icon</title><desc>barcode icon from the IconExperience.com O-Collection. Copyright by INCORS GmbH (www.incors.com).</desc><path fill="gray" d="M7040 2880h320v4480h-320V2880zm-5120 0h320v4480h-320V2880zm640 0h640v4480h-640V2880zm960 0h320v4480h-320V2880zm2240 0h-320v4480h320V2880zm-1280 0h640v4480h-640V2880zm3200 0h640v4462h-640V2880zm-1600 0h320v4480h-320V2880z"/><path fill="gray" d="M1280 1920h7680c353 0 640 288 640 640v5120c0 352-288 640-640 640H1280c-352 0-640-287-640-640V2560c0-353 287-640 640-640zm0 640v5120h7680V2560H1280z"/></svg>