<svg xmlns="http://www.w3.org/2000/svg" width="1024" height="1024" shape-rendering="geometricPrecision" text-rendering="geometricPrecision" image-rendering="optimizeQuality" clip-rule="evenodd" viewBox="0 0 10240 10240"><title>barcode_scanner icon</title><desc>barcode_scanner icon from the IconExperience.com O-Collection. Copyright by INCORS GmbH (www.incors.com).</desc><path fill="gray" d="M4231 5448c142 32 249 160 249 312v960c0 176-144 320-320 320h-405l476-1592z"/><path fill="#E68497" d="M6080 2880h2006c110-191 317-320 554-320 353 0 640 287 640 640s-287 640-640 640c-237 0-444-129-554-320H6080v-640z"/><path fill="gray" d="M1545 5302L915 7413c-152 506 138 1043 645 1194l359 108c507 151 1043-139 1195-645l868-2905c123-413 488-685 919-685h539c176 0 320-144 320-320V2240c0-176-144-320-320-320H1920c-705 0-1280 575-1280 1280 0 430 214 812 541 1044 342 243 484 657 364 1058zM7040 8320h2560v-640H7040v640zm0-6720h2560v-320H7040v320zm0 320h2560v640h-245c-175-196-431-320-715-320s-540 124-715 320h-885v-640zm2505 960h55v320c0 112-19 220-55 320h55v-320c0-112-19-220-55-320zm-2505 960h885c175 196 431 320 715 320s540-124 715-320h245v640H7040v-640zm0 960h2560v320H7040v-320zm0 640h2560v320H7040v-320zm0 640h2560v640H7040v-640zm0 960h2560v320H7040v-320z"/></svg>