<svg xmlns="http://www.w3.org/2000/svg" width="1024" height="1024" shape-rendering="geometricPrecision" text-rendering="geometricPrecision" image-rendering="optimizeQuality" clip-rule="evenodd" viewBox="0 0 10240 10240"><title>barrel icon</title><desc>barrel icon from the IconExperience.com O-Collection. Copyright by INCORS GmbH (www.incors.com).</desc><path fill="gray" d="M1920 1280h6400c177 0 320 143 320 320s-143 320-320 320v1920c177 0 320 143 320 320s-143 320-320 320v1920c177 0 320 143 320 320s-143 320-320 320v1920c177 0 320 143 320 320s-143 320-320 320H1920c-177 0-320-143-320-320s143-320 320-320h5333c59 0 107-72 107-160s-48-160-107-160h-853V7040H2560v1600h-640V7040c-177 0-320-143-320-320s143-320 320-320h5324c64 0 116-72 116-160s-52-160-116-160h-844V4480H2560v1600h-640V4480c-177 0-320-143-320-320s143-320 320-320h5338c56 0 102-72 102-160s-46-160-102-160h-858V1920H2560v1600h-640V1920c-177 0-320-143-320-320s143-320 320-320z"/></svg>