<svg xmlns="http://www.w3.org/2000/svg" width="1024" height="1024" shape-rendering="geometricPrecision" text-rendering="geometricPrecision" image-rendering="optimizeQuality" clip-rule="evenodd" viewBox="0 0 10240 10240"><title>battery_charge icon</title><desc>battery_charge icon from the IconExperience.com O-Collection. Copyright by INCORS GmbH (www.incors.com).</desc><path fill="#76A797" d="M6393 1290H3846l-7-10V960c0-177 143-320 320-320h1921c177 0 320 143 320 320v320l-7 10z"/><path fill="#76A797" d="M2880 1280h4480c177 0 320 143 320 320v7680c0 177-143 320-320 320H2880c-177 0-320-143-320-320V1600c0-177 143-320 320-320zm3014 1280H4531L3507 5354l1362 3-406 1109-601-220 541 2243 1863-1362-601-221 991-2704-1367 11 605-1653z"/></svg>