<svg xmlns="http://www.w3.org/2000/svg" width="1024" height="1024" shape-rendering="geometricPrecision" text-rendering="geometricPrecision" image-rendering="optimizeQuality" clip-rule="evenodd" viewBox="0 0 10240 10240"><title>battery_status5 icon</title><desc>battery_status5 icon from the IconExperience.com O-Collection. Copyright by INCORS GmbH (www.incors.com).</desc><path fill="#ED9A56" d="M3520 7680h3200v960H3520zM3520 6400h3200v960H3520zM3520 5120h3200v960H3520zM3520 3840h3200v960H3520zM3520 2560h3200v960H3520z"/><path fill="gray" d="M6400 1610H3839v-330c0-177 143-320 320-320h1921c177 0 320 143 320 320v330z"/><path fill="gray" d="M2880 1600h4480c177 0 320 143 320 320v7360c0 177-143 320-320 320H2880c-177 0-320-143-320-320V1920c0-177 143-320 320-320zm320 640v6720h3840V2240H3200z"/></svg>