<svg xmlns="http://www.w3.org/2000/svg" width="1024" height="1024" shape-rendering="geometricPrecision" text-rendering="geometricPrecision" image-rendering="optimizeQuality" clip-rule="evenodd" viewBox="0 0 10240 10240"><title>battery_plus_minus icon</title><desc>battery_plus_minus icon from the IconExperience.com O-Collection. Copyright by INCORS GmbH (www.incors.com).</desc><path fill="#76A797" d="M4160 7360h1920v640H4160v-640zM4160 2880h640v-640h640v640h640v640h-640v640h-640v-640h-640z"/><path fill="#76A797" d="M2880 1280h4480c177 0 320 143 320 320v7680c0 177-143 320-320 320H2880c-177 0-320-143-320-320V1600c0-177 143-320 320-320zm2240 5120c-707 0-1280 573-1280 1280s573 1280 1280 1280 1280-573 1280-1280-573-1280-1280-1280zm0-4480c-707 0-1280 573-1280 1280s573 1280 1280 1280 1280-573 1280-1280-573-1280-1280-1280z"/><path fill="gray" d="M6399 1290H3839V960c0-177 143-320 320-320h1921c177 0 320 143 320 320v320l-1 10z"/></svg>