<svg xmlns="http://www.w3.org/2000/svg" width="1024" height="1024" shape-rendering="geometricPrecision" text-rendering="geometricPrecision" image-rendering="optimizeQuality" clip-rule="evenodd" viewBox="0 0 10240 10240"><title>beaker icon</title><desc>beaker icon from the IconExperience.com O-Collection. Copyright by INCORS GmbH (www.incors.com).</desc><path fill="#76A797" d="M7144 5440c139 291 216 616 216 960 0 1237-1003 2240-2240 2240S2880 7637 2880 6400c0-344 77-669 216-960h4048zm-1224 320c-442 0-800 358-800 800s358 800 800 800 800-358 800-800-358-800-800-800zM4640 7360c-265 0-480 215-480 480s215 480 480 480 480-215 480-480-215-480-480-480z"/><path fill="gray" d="M6400 3467c1130 493 1920 1621 1920 2933 0 1767-1433 3200-3200 3200S1920 8167 1920 6400c0-1312 790-2440 1920-2933V1280h-320c-176 0-320-144-320-320s144-320 320-320h640c176 0 320 144 320 320v2925l-384 168c-932 407-1536 1327-1536 2347 0 1414 1146 2560 2560 2560s2560-1146 2560-2560c0-1020-604-1940-1536-2347l-384-168V960c0-176 144-320 320-320h640c176 0 320 144 320 320s-144 320-320 320h-320v2187z"/></svg>