<svg xmlns="http://www.w3.org/2000/svg" width="1024" height="1024" shape-rendering="geometricPrecision" text-rendering="geometricPrecision" image-rendering="optimizeQuality" clip-rule="evenodd" viewBox="0 0 10240 10240"><title>beer_mug icon</title><desc>beer_mug icon from the IconExperience.com O-Collection. Copyright by INCORS GmbH (www.incors.com).</desc><path fill="#EDC87E" d="M2880 4480h3840v4160H2880z"/><path fill="gray" d="M7680 2560v1451c188-109 407-171 640-171 707 0 1280 573 1280 1280v1920c0 707-573 1280-1280 1280h-640v640c0 352-288 640-640 640H2560c-352 0-640-288-640-640V2560c0-176 144-320 320-320h5120c176 0 320 144 320 320zm-5120 320v6080h4480V2880H2560zm5120 2240v2560h640c354 0 640-286 640-640V5120c0-354-286-640-640-640s-640 286-640 640zM2240 1920c0-705 575-1280 1280-1280h2560c705 0 1280 575 1280 1280h-640c0-353-287-640-640-640H3520c-353 0-640 287-640 640h-640z"/></svg>