<svg xmlns="http://www.w3.org/2000/svg" width="1024" height="1024" shape-rendering="geometricPrecision" text-rendering="geometricPrecision" image-rendering="optimizeQuality" clip-rule="evenodd" viewBox="0 0 10240 10240"><title>beer_bottle icon</title><desc>beer_bottle icon from the IconExperience.com O-Collection. Copyright by INCORS GmbH (www.incors.com).</desc><path fill="#76A797" d="M5873 1600l180 2022c58 654 667 1135 667 1800v3858c0 176-144 320-320 320H3840c-176 0-320-144-320-320V5422c0-680 612-1179 667-1800l180-2022h1506zM4160 5760v2560h1920V5760H4160z"/><path fill="gray" d="M4480 640h1280c176 0 320 144 320 320v320H4160V960c0-176 144-320 320-320z"/></svg>