<svg xmlns="http://www.w3.org/2000/svg" width="1024" height="1024" shape-rendering="geometricPrecision" text-rendering="geometricPrecision" image-rendering="optimizeQuality" clip-rule="evenodd" viewBox="0 0 10240 10240"><title>bicycle icon</title><desc>bicycle icon from the IconExperience.com O-Collection. Copyright by INCORS GmbH (www.incors.com).</desc><path fill="gray" d="M5122 7027c353 0 640 286 640 640 0 353-287 640-640 640-354 0-640-287-640-640 0-354 286-640 640-640zM8320 8960c-1060 0-1920-860-1920-1920 0-99 8-197 22-292l386-645c80 189 186 352 308 501-49 136-76 283-76 436 0 707 573 1280 1280 1280s1280-573 1280-1280-573-1280-1280-1280c-88 0-175 9-258 26-38-76-71-152-96-227l-125-379c153-39 313-60 479-60 1060 0 1920 860 1920 1920s-860 1920-1920 1920zM1920 5120c235 0 459 42 667 119l-410 547c-83-17-169-26-257-26-707 0-1280 573-1280 1280s573 1280 1280 1280c414 0 783-197 1017-503l660 158c-328 588-956 985-1677 985C860 8960 0 8100 0 7040s860-1920 1920-1920zm1521 749c212 274 351 608 389 971l-664-93c-28-119-72-232-131-335l406-543z"/><path fill="#4D82B8" d="M8002 7007c-426-366-782-660-944-1147l-171-513-1026 1716c-137-164-329-282-547-325l973-1618H4284l745 1605c-224 23-426 124-576 276l-865-1863-1347 1803 2045 286c-71 133-111 285-111 446 0 38 2 75 6 112l-2065-492c-54 42-122 67-196 67-177 0-320-143-320-320 0-161 119-294 274-317l1513-2017-114-246c223-30 424-95 618-186l96 206h2611l-180-540c-35-105-12-216 52-297l125-123h576l-164 163 656 1977c120 361 390 738 656 1060h1c177 0 320 143 320 320s-143 320-320 320-320-143-320-320c0-11 1-22 2-33z"/><path fill="gray" d="M4157 3200H2441c-105 0-239 122-191 240 110 272 458 726 764 720 474-9 832-186 1247-483 372-267 225-477-104-477zM6400 2560h960c177 0 320 143 320 320s-143 320-320 320h-960c-177 0-320-143-320-320s143-320 320-320z"/></svg>