<svg xmlns="http://www.w3.org/2000/svg" width="1024" height="1024" shape-rendering="geometricPrecision" text-rendering="geometricPrecision" image-rendering="optimizeQuality" clip-rule="evenodd" viewBox="0 0 10240 10240"><title>blender icon</title><desc>blender icon from the IconExperience.com O-Collection. Copyright by INCORS GmbH (www.incors.com).</desc><path fill="gray" d="M6369 7536c625 350 1089 955 1249 1674 45 201-106 390-312 390H2934c-206 0-357-189-312-390 160-719 624-1324 1249-1674-195-316-322-708-351-1136h3200c-29 428-156 820-351 1136zM7680 1920h1060c431 0 737 411 613 824l-713 2376c-128 513-431 960-960 960h-597c94-317 176-636 247-958h30c326 0 512-275 591-591l344-1144c77-254-112-507-377-507h-269c21-319 31-639 31-960z"/><path fill="#4D82B8" d="M1920 2240c0-176 144-320 320-320h5120c0 1446-213 2843-610 4160H3490c-259-859-439-1753-534-2671l-942-943c-63-62-94-138-94-226zm4407 2955c91-374 167-754 226-1137 61-389 105-775 132-1156 12-176-120-328-296-341-176-12-329 120-342 296-26 376-67 744-124 1103-56 363-128 725-216 1085-42 171 63 344 235 385 171 41 343-64 385-235z"/><path fill="gray" d="M6080 1073c447 106 876 285 1280 527H2880c404-242 833-421 1280-527V960c0-176 144-320 320-320h1280c176 0 320 144 320 320v113z"/></svg>