<svg xmlns="http://www.w3.org/2000/svg" width="1024" height="1024" shape-rendering="geometricPrecision" text-rendering="geometricPrecision" image-rendering="optimizeQuality" clip-rule="evenodd" viewBox="0 0 10240 10240"><title>body_scale icon</title><desc>body_scale icon from the IconExperience.com O-Collection. Copyright by INCORS GmbH (www.incors.com).</desc><path fill="#E68497" d="M4632 3276l488-1356 489 1356c-158-50-322-76-489-76s-331 26-488 76z"/><path fill="gray" d="M2560 1280h5120c705 0 1280 575 1280 1280v5120c0 705-575 1280-1280 1280H2560c-705 0-1280-575-1280-1280V2560c0-705 575-1280 1280-1280zm4462 1381c62-71 89-156 78-249-10-94-56-170-133-225-521-370-1159-587-1847-587s-1326 217-1847 587c-77 55-123 131-133 225-11 93 16 178 78 249l860 967c103 115 267 142 400 64 189-109 408-172 642-172s453 63 642 172c133 78 297 51 400-64l860-967zM2560 4160c-353 0-640 287-640 640v2880c0 353 288 640 640 640h5120c352 0 640-288 640-640V4800c0-352-287-640-640-640H2560z"/></svg>