<svg xmlns="http://www.w3.org/2000/svg" width="1024" height="1024" shape-rendering="geometricPrecision" text-rendering="geometricPrecision" image-rendering="optimizeQuality" clip-rule="evenodd" viewBox="0 0 10240 10240"><title>bomb2 icon</title><desc>bomb2 icon from the IconExperience.com O-Collection. Copyright by INCORS GmbH (www.incors.com).</desc><path fill="gray" d="M7680 2560h1920v5120H7680l-992-992c-768 585-1864 992-2848 992-1745 0-3200-960-3200-2560s1455-2560 3200-2560c984 0 2080 407 2848 992l992-992zm-3840 640c-1178 0-2560 557-2560 1920 0 95 7 186 20 273 13 93 60 167 138 219s165 67 256 45l1-1c161-40 264-195 238-359-8-57-13-115-13-177 0-969 1131-1280 1920-1280 21 0 41 0 62 1 151 4 282-95 318-243 25-97 5-191-55-271-61-80-146-123-247-126-26-1-52-1-78-1zm3200 2560v320l640 640v-960h-640zm0-1600v320h640v-960l-640 640z"/></svg>