<svg xmlns="http://www.w3.org/2000/svg" width="1024" height="1024" shape-rendering="geometricPrecision" text-rendering="geometricPrecision" image-rendering="optimizeQuality" clip-rule="evenodd" viewBox="0 0 10240 10240"><title>book2 icon</title><desc>book2 icon from the IconExperience.com O-Collection. Copyright by INCORS GmbH (www.incors.com).</desc><path fill="#4D82B8" d="M3200 9600h5440c177 0 320-143 320-320V3200c0-353-287-640-640-640l-4800 4v7036h-320zm320-8320h4480c177 0 320 143 320 320v640c246 0 470 92 640 245V1280c0-362-287-645-640-640H3520v640z"/><path fill="gray" d="M3200 640h-640c-707 0-1280 573-1280 1280v6400c0 707 573 1280 1280 1280h640V2560h-640c-353 0-640-287-640-640s287-640 640-640h640V640z"/></svg>