<svg xmlns="http://www.w3.org/2000/svg" width="1024" height="1024" shape-rendering="geometricPrecision" text-rendering="geometricPrecision" image-rendering="optimizeQuality" clip-rule="evenodd" viewBox="0 0 10240 10240"><title>book_telephone icon</title><desc>book_telephone icon from the IconExperience.com O-Collection. Copyright by INCORS GmbH (www.incors.com).</desc><path fill="#EDC87E" d="M5120 5760c353 0 640 287 640 640s-287 640-640 640-640-287-640-640 287-640 640-640z"/><path fill="#EDC87E" d="M8320 9600c353 0 640-287 640-640V3200c0-353-287-640-640-640-1921 2-3844 0-5760 0-353 0-640-287-640-640s287-640 640-640h5440c177 0 320 143 320 320v640c237 0 463 86 640 245V1280c0-362-287-645-640-640H2560c-707 0-1280 573-1280 1280v6400c0 707 573 1280 1280 1280h5760zM6344 4854c19-84-21-167-89-203-465-248-1830-247-2271 0-67 38-108 119-89 203l34 156c40 185-56 386-220 420l-724 149c-164 34-325-67-366-252l-36-168c-102-464 147-921 549-1050 1117-359 2859-359 3976 0 402 129 651 586 549 1050l-36 168c-41 185-202 286-366 252l-725-149c-165-34-260-235-220-420l34-156zm-2077 208v-184c410-126 1290-120 1706 4v180c0 103 19 194 51 277 23 65 55 126 95 180 244 357 708 553 708 939v873c0 192-154 349-342 349H3755c-188 0-342-157-342-349v-873c0-394 483-590 723-961 24-35 45-73 62-113 43-95 69-200 69-322z"/></svg>