<svg xmlns="http://www.w3.org/2000/svg" width="1024" height="1024" shape-rendering="geometricPrecision" text-rendering="geometricPrecision" image-rendering="optimizeQuality" clip-rule="evenodd" viewBox="0 0 10240 10240"><title>bookmark icon</title><desc>bookmark icon from the IconExperience.com O-Collection. Copyright by INCORS GmbH (www.incors.com).</desc><path fill="#76A797" d="M4480 1840h253c48 127 67 276 67 400v960c0 353 287 640 640 640s640-287 640-640v-960c0-132-11-267-32-400h352c353 0 640 287 640 640v6400c0 353-287 640-640 640H4480c-353 0-640-287-640-640V5560c325-949 320-2008 320-3000 0-147 4-432 47-659 83-39 175-61 273-61z"/><path fill="gray" d="M5760 3200c0 177-143 320-320 320s-320-143-320-320v-960c0-279-70-552-210-738-101-135-244-222-430-222h-19c-195 3-341 49-429 179-126 185-192 528-192 1101 0 1328 0 2657-694 3697-98 148-296 187-443 89-148-98-187-296-89-443 580-871 586-2086 586-3305l-6 23c-2 12-5 23-9 35-198 795-333 1318-1311 2948-91 151-287 200-438 110-151-91-200-287-110-438 935-1558 1056-2041 1244-2793v-1c178-710 455-1164 783-1445 341-292 724-393 1106-397h21c409 0 722 189 940 479 227 302 340 715 340 1121v960z"/></svg>