<svg xmlns="http://www.w3.org/2000/svg" width="1024" height="1024" shape-rendering="geometricPrecision" text-rendering="geometricPrecision" image-rendering="optimizeQuality" clip-rule="evenodd" viewBox="0 0 10240 10240"><title>book icon</title><desc>book icon from the IconExperience.com O-Collection. Copyright by INCORS GmbH (www.incors.com).</desc><path fill="#4D82B8" d="M8320 9600c353 0 640-287 640-640V3200c0-353-287-640-640-640-1921 2-3844 0-5760 0-353 0-640-287-640-640s287-640 640-640h5440c177 0 320 143 320 320v640c237 0 463 86 640 245V1280c0-362-287-645-640-640H2560c-707 0-1280 573-1280 1280v6400c0 707 573 1280 1280 1280h5760zM2880 3520c176 0 320 144 320 320v4800c0 176-144 320-320 320s-320-144-320-320V3840c0-176 144-320 320-320z"/></svg>