<svg xmlns="http://www.w3.org/2000/svg" width="1024" height="1024" shape-rendering="geometricPrecision" text-rendering="geometricPrecision" image-rendering="optimizeQuality" clip-rule="evenodd" viewBox="0 0 10240 10240"><title>boombox icon</title><desc>boombox icon from the IconExperience.com O-Collection. Copyright by INCORS GmbH (www.incors.com).</desc><path fill="gray" d="M8000 5760c530 0 960 430 960 960s-430 960-960 960-960-430-960-960 430-960 960-960zm-5760 0c530 0 960 430 960 960s-430 960-960 960-960-430-960-960 430-960 960-960zM4480 6080h1280v1280H4480z"/><path fill="gray" d="M640 3200h8960c176 0 320 144 320 320v5120c0 176-144 320-320 320H640c-176 0-320-144-320-320V3520c0-176 144-320 320-320zm7680 640v640h1280v-640H8320zm-7680 0v640h1280v-640H640zm2240 0v640h4480v-640H2880zm1280 1920v2560h1920V5760H4160zm-1920-640c-884 0-1600 716-1600 1600s716 1600 1600 1600 1600-716 1600-1600-716-1600-1600-1600zm5760 0c-884 0-1600 716-1600 1600s716 1600 1600 1600 1600-716 1600-1600-716-1600-1600-1600zM2560 1280h5120c353 0 640 287 640 640v960h-640v-640H2560v640h-640v-960c0-353 287-640 640-640z"/></svg>