<svg xmlns="http://www.w3.org/2000/svg" width="1024" height="1024" shape-rendering="geometricPrecision" text-rendering="geometricPrecision" image-rendering="optimizeQuality" clip-rule="evenodd" viewBox="0 0 10240 10240"><title>bottle_crate icon</title><desc>bottle_crate icon from the IconExperience.com O-Collection. Copyright by INCORS GmbH (www.incors.com).</desc><path fill="#76A797" d="M960 2240h8320c176 0 320 144 320 320v6080c0 176-144 320-320 320H960c-176 0-320-144-320-320V2560c0-176 144-320 320-320zm1600 640c-352 0-640 287-640 640v1920c0 352 288 640 640 640h5120c352 0 640-288 640-640V3520c0-352-287-640-640-640H2560z"/><path fill="gray" d="M5873 1600l29 320H4338l29-320h-207v-320c0-176 144-320 320-320h1280c176 0 320 144 320 320v320h-207zm527 3822c0-680 292-1179 347-1800l38-422h895c176 0 320 144 320 320v1920c0 176-144 320-320 320H2560c-176 0-320-144-320-320V3520c0-176 144-320 320-320h895l38 422c58 653 347 1135 347 1800 0-680 292-1179 347-1800l38-422h1790l38 422c58 653 347 1135 347 1800zm640-4462h1280c176 0 320 144 320 320v320h-207l29 320H6898l29-320h-207v-320c0-176 144-320 320-320zm-5120 0h1280c176 0 320 144 320 320v320h-207l29 320H1778l29-320h-207v-320c0-176 144-320 320-320z"/></svg>