<svg xmlns="http://www.w3.org/2000/svg" width="1024" height="1024" shape-rendering="geometricPrecision" text-rendering="geometricPrecision" image-rendering="optimizeQuality" clip-rule="evenodd" viewBox="0 0 10240 10240"><title>bottle icon</title><desc>bottle icon from the IconExperience.com O-Collection. Copyright by INCORS GmbH (www.incors.com).</desc><path fill="#76A797" d="M3200 3200h619c17 10 34 19 52 27 386 184 807 278 1234 278 428 0 849-94 1235-278 18-8 35-17 51-27h649c353 0 640 287 640 640v5120c0 353-287 640-640 640H3200c-353 0-640-287-640-640V3840c0-353 287-640 640-640zm0 1280v3840c0 177 143 320 320 320s320-143 320-320V4480c0-177-143-320-320-320s-320 143-320 320z"/><path fill="gray" d="M6217 2953c-332 159-704 247-1097 247s-765-88-1097-247c-115-54-183-162-183-289V960c0-176 144-320 320-320h1920c176 0 320 144 320 320v1704c0 127-68 235-183 289z"/></svg>