<svg xmlns="http://www.w3.org/2000/svg" width="1024" height="1024" shape-rendering="geometricPrecision" text-rendering="geometricPrecision" image-rendering="optimizeQuality" clip-rule="evenodd" viewBox="0 0 10240 10240"><title>bowling_pin icon</title><desc>bowling_pin icon from the IconExperience.com O-Collection. Copyright by INCORS GmbH (www.incors.com).</desc><path fill="gray" d="M5120 640c707 0 1280 573 1280 1280 0 465-199 845-291 1280H4131c-92-435-291-815-291-1280 0-707 573-1280 1280-1280zm1104 3840c292 900 816 1233 816 2560 0 1047-302 1976-768 2560H3968c-466-584-768-1513-768-2560 0-1327 524-1660 816-2560h2208z"/><path fill="#E68497" d="M6066 3520c-5 102-1 208 14 320 16 114 35 220 57 320H4103c22-100 41-206 57-320 15-112 19-218 14-320h1892z"/></svg>