<svg xmlns="http://www.w3.org/2000/svg" width="1024" height="1024" shape-rendering="geometricPrecision" text-rendering="geometricPrecision" image-rendering="optimizeQuality" clip-rule="evenodd" viewBox="0 0 10240 10240"><title>bowling_ball icon</title><desc>bowling_ball icon from the IconExperience.com O-Collection. Copyright by INCORS GmbH (www.incors.com).</desc><path fill="gray" d="M5418 650c2469 165 4337 2299 4172 4768S7291 9755 4822 9590 485 7291 650 4822 2949 485 5418 650zm-458 3510c-442 0-800 358-800 800s358 800 800 800 800-358 800-800-358-800-800-800zm-320-2240c-442 0-800 358-800 800s358 800 800 800 800-358 800-800-358-800-800-800zM2720 3520c-442 0-800 358-800 800s358 800 800 800 800-358 800-800-358-800-800-800z"/></svg>