<svg xmlns="http://www.w3.org/2000/svg" width="1024" height="1024" shape-rendering="geometricPrecision" text-rendering="geometricPrecision" image-rendering="optimizeQuality" clip-rule="evenodd" viewBox="0 0 10240 10240"><title>box_software icon</title><desc>box_software icon from the IconExperience.com O-Collection. Copyright by INCORS GmbH (www.incors.com).</desc><path fill="gray" d="M7354 4480c1417 0 2566 1149 2566 2566 0 1418-1149 2567-2566 2567-1418 0-2566-1149-2566-2567 0-1417 1148-2566 2566-2566zm0 332c-1234 0-2234 1001-2234 2234 0 1234 1000 2234 2234 2234 1233 0 2234-1000 2234-2234 0-1233-1001-2234-2234-2234z"/><path fill="gray" d="M7854 6234c-146-90-317-141-500-141-527 0-954 427-954 953 0 134 27 261 77 376l-141 60-750 322c-102-234-158-492-158-764 0-1060 859-1920 1920-1920 372 0 719 106 1013 289l-507 825zm1262 57c98 230 152 483 152 749 0 1060-860 1920-1920 1920-366 0-709-102-1000-280l506-821c145 89 316 141 500 141 526 0 953-427 953-954 0-133-27-260-76-376l885-379z"/><path fill="gray" d="M7354 6413c350 0 633 283 633 633s-283 634-633 634-634-284-634-634 284-633 634-633zm0 320c-174 0-314 140-314 313 0 174 140 314 314 314 173 0 313-140 313-314 0-173-140-313-313-313z"/><path fill="#4D82B8" d="M3840 3200l-640-1280h5120L7040 3200H3840zm-1280 640h3840v482c299-105 619-162 954-162 339 0 664 59 966 166V3172c34-15 65-37 94-66l913-913c101-101 29-273-113-273h-894l524-1048c26-52 23-108-7-156-30-49-79-76-136-76H4038c-124 0-231 66-286 177l-552 1103H2053c-89 0-164 31-227 94l-913 913c-101 101-29 273 113 273h894v6080c0 176 144 320 320 320h3768c-309-163-585-381-814-640H2560V3840z"/><path fill="gray" d="M3200 4480h2560v160c-516 342-916 847-1127 1440H3200V4480z"/></svg>