<svg xmlns="http://www.w3.org/2000/svg" width="1024" height="1024" shape-rendering="geometricPrecision" text-rendering="geometricPrecision" image-rendering="optimizeQuality" clip-rule="evenodd" viewBox="0 0 10240 10240"><title>breakpoints icon</title><desc>breakpoints icon from the IconExperience.com O-Collection. Copyright by INCORS GmbH (www.incors.com).</desc><path fill="gray" d="M3200 1280h5120c353 0 640 287 640 640v5120c0 353-287 640-640 640h-320V3200c0-529-431-960-960-960H2560v-320c0-353 287-640 640-640z"/><path fill="#E68497" d="M1920 2560h5120c353 0 640 287 640 640v5120c0 353-287 640-640 640H1920c-353 0-640-287-640-640V3200c0-353 287-640 640-640z"/></svg>