<svg xmlns="http://www.w3.org/2000/svg" width="1024" height="1024" shape-rendering="geometricPrecision" text-rendering="geometricPrecision" image-rendering="optimizeQuality" clip-rule="evenodd" viewBox="0 0 10240 10240"><title>bridge icon</title><desc>bridge icon from the IconExperience.com O-Collection. Copyright by INCORS GmbH (www.incors.com).</desc><path fill="#4D82B8" d="M1760 7680c218 394 639 660 1120 660s897-264 1117-654c218 394 640 654 1123 654s903-262 1120-659c219 393 638 659 1120 659s902-266 1120-660c218 394 638 660 1120 660v640c-410 0-799-130-1120-360-321 230-710 360-1120 360-408 0-797-129-1117-358-321 233-711 358-1123 358-411 0-805-124-1126-356-320 228-707 356-1114 356-410 0-799-130-1120-360-321 230-710 360-1120 360v-640c482 0 902-266 1120-660z"/><path fill="gray" d="M7360 1280h640v640c0 637 190 1209 497 1619 288 384 678 621 1103 621v640c-223 0-438-41-640-118v1718h640v640H8000v736c-173 155-400 244-640 244v-980H2880v980c-240 0-467-90-640-245v-735H640v-640h640V4682c-202 77-417 118-640 118v-640c425 0 815-237 1103-621 307-410 497-982 497-1619v-640h640v640c0 1179 1148 1920 2240 1920s2239-740 2240-1918v-642zM4800 4464v1936h640V4464c-212 21-428 21-640 0zm-320 1936V4416c-224-45-439-114-640-203v2187h640zm1280-1984v1984h640V4213c-201 89-416 158-640 203zM1600 6400h640V3938c-184 241-400 441-640 587v1875zm7040-1875c-240-146-456-346-640-587v2462h640V4525zm-1920-477v2352h640V3529c-186 204-403 378-640 519zM3520 6400V4048c-237-141-454-315-640-519v2871h640z"/></svg>