<svg xmlns="http://www.w3.org/2000/svg" width="1024" height="1024" shape-rendering="geometricPrecision" text-rendering="geometricPrecision" image-rendering="optimizeQuality" clip-rule="evenodd" viewBox="0 0 10240 10240"><title>briefcase2 icon</title><desc>briefcase2 icon from the IconExperience.com O-Collection. Copyright by INCORS GmbH (www.incors.com).</desc><path fill="gray" d="M9600 6155v2805c0 352-288 640-640 640H1280c-353 0-640-287-640-640V6155c170 152 394 245 640 245h2560c0 241 133 451 330 560-6 25-10 52-10 80v1280c0 176 144 320 320 320h1280c176 0 320-144 320-320V7040c0-28-4-55-10-80 197-109 330-319 330-560h2560c246 0 470-93 640-245zM9600 5440c0 352-288 640-640 640H6400V2560h2560c352 0 639 287 640 639v2241zm-8960 1V3200c0-353 287-640 640-640h2560v3520H1280c-352 0-639-287-640-639z"/><path fill="#EDC87E" d="M4480 7040h1280v1280H4480z"/><path fill="gray" d="M4160 2560h1920v3840c0 176-144 320-320 320H4480c-176 0-320-144-320-320V2560zM3840 1280h2560c353 0 640 288 640 640v320h-640v-320H3840v320h-640v-320c0-353 288-640 640-640z"/></svg>