<svg xmlns="http://www.w3.org/2000/svg" width="1024" height="1024" shape-rendering="geometricPrecision" text-rendering="geometricPrecision" image-rendering="optimizeQuality" clip-rule="evenodd" viewBox="0 0 10240 10240"><title>briefcase_document icon</title><desc>briefcase_document icon from the IconExperience.com O-Collection. Copyright by INCORS GmbH (www.incors.com).</desc><path fill="gray" d="M4480 3200h2670c352 0 656 126 905 375l1170 1170c249 249 375 553 375 905v3950H4480V3200zm3200 960v960h960l-960-960zm-2560-320v5120h3840V6080c0-176-144-320-320-320H7040V4160c0-176-144-320-320-320H5120zM4160 7680H1280c-352 0-640-287-640-640V4555c170 152 394 245 640 245h640v640c0 176 144 320 320 320h960c176 0 320-144 320-320v-640h640v2880z"/><path fill="gray" d="M1280 1920h6400c352 0 639 287 640 639v828l-39-38c-309-310-694-469-1131-469H4480c-176 0-320 144-320 320v1280h-640v-320c0-176-144-320-320-320h-960c-176 0-320 144-320 320v320h-640c-352 0-639-287-640-639V2560c0-353 287-640 640-640z"/><path fill="#EDC87E" d="M2240 4160h960v1280h-960z"/><path fill="gray" d="M3520 640h1920c353 0 640 288 640 640v320h-640v-320H3520v320h-640v-320c0-353 287-640 640-640z"/></svg>