<svg xmlns="http://www.w3.org/2000/svg" width="1024" height="1024" shape-rendering="geometricPrecision" text-rendering="geometricPrecision" image-rendering="optimizeQuality" clip-rule="evenodd" viewBox="0 0 10240 10240"><title>briefcase icon</title><desc>briefcase icon from the IconExperience.com O-Collection. Copyright by INCORS GmbH (www.incors.com).</desc><path fill="gray" d="M9600 6155v2805c0 352-288 640-640 640H1280c-353 0-640-287-640-640V6155c170 152 394 245 640 245h640v640c0 176 144 320 320 320h960c176 0 320-144 320-320v-640h3200v640c0 176 144 320 320 320h960c176 0 320-144 320-320v-640h640c246 0 470-93 640-245zM1280 2560h7680c352 0 639 287 640 639v2241c0 352-288 640-640 640h-640v-320c0-176-144-320-320-320h-960c-176 0-320 144-320 320v320H3520v-320c0-176-144-320-320-320h-960c-176 0-320 144-320 320v320h-640c-352 0-639-287-640-639V3200c0-353 287-640 640-640z"/><path fill="#EDC87E" d="M7040 5760h960v1280h-960zM2240 5760h960v1280h-960z"/><path fill="gray" d="M3840 1280h2560c353 0 640 288 640 640v320h-640v-320H3840v320h-640v-320c0-353 287-640 640-640z"/></svg>