<svg xmlns="http://www.w3.org/2000/svg" width="1024" height="1024" shape-rendering="geometricPrecision" text-rendering="geometricPrecision" image-rendering="optimizeQuality" clip-rule="evenodd" viewBox="0 0 10240 10240"><title>briefcase2_document icon</title><desc>briefcase2_document icon from the IconExperience.com O-Collection. Copyright by INCORS GmbH (www.incors.com).</desc><path fill="gray" d="M4480 3200h2670c352 0 656 126 905 375l1170 1170c249 249 375 553 375 905v3950H4480V3200zm640 640v5120h3840V6080c0-176-144-320-320-320H7040V4160c0-176-144-320-320-320H5120zm2560 320v960h960l-960-960z"/><path fill="#EDC87E" d="M3840 5760h320v960h-320z"/><path fill="#B89A7C" d="M1280 1920h1920v2880H1280c-352 0-639-287-640-639V2560c0-353 288-640 640-640zm4480 0h1920c352 0 640 287 640 639v828l-39-38c-309-310-694-469-1131-469H5760v-960zM4160 7680H1280c-352 0-640-287-640-640V4875c170 152 394 245 640 245h1920c0 241 133 450 330 560-6 25-10 52-10 80v960c0 176 144 320 320 320h320v640zm-640-5760h1920v960h-960c-176 0-320 144-320 320v2240h-320c-176 0-320-144-320-320V1920zM3200 640h2560c353 0 640 288 640 640v320h-640v-320H3200v320h-640v-320c0-353 288-640 640-640z"/></svg>