<svg xmlns="http://www.w3.org/2000/svg" width="1024" height="1024" shape-rendering="geometricPrecision" text-rendering="geometricPrecision" image-rendering="optimizeQuality" clip-rule="evenodd" viewBox="0 0 10240 10240"><title>brush icon</title><desc>brush icon from the IconExperience.com O-Collection. Copyright by INCORS GmbH (www.incors.com).</desc><path fill="#EDC87E" d="M3200 7065c784 865 1 1895-1045 1895H347c542-199 691-565 818-958 103-319 192-656 466-937 365-373 1081-539 1569 0z"/><path fill="gray" d="M8877 1423l-60-60c-98-98-251-111-363-29-1362 983-3061 2320-4579 3838-236 235-471 471-665 747 257 110 497 276 701 501 179 198 313 404 405 613 278-195 515-431 752-668 1518-1518 2855-3217 3838-4579 82-112 69-265-29-363zM3039 6195c-48 91-92 187-130 289 198 75 377 199 528 366 133 146 238 310 308 486 104-39 202-83 295-133-79-193-199-384-366-568-184-203-401-349-635-440z"/></svg>