<svg xmlns="http://www.w3.org/2000/svg" width="1024" height="1024" shape-rendering="geometricPrecision" text-rendering="geometricPrecision" image-rendering="optimizeQuality" clip-rule="evenodd" viewBox="0 0 10240 10240"><title>bug2 icon</title><desc>bug2 icon from the IconExperience.com O-Collection. Copyright by INCORS GmbH (www.incors.com).</desc><path fill="#ED9A56" d="M3875 2851l-1 1c-133 167-231 360-287 566l-1 2-415-244c-48-28-87-67-113-113l-1 1-725-1222-554-277c-158-79-222-270-143-428 79-157 270-221 428-142l619 310c62 26 116 71 153 132l731 1232 309 182zm3471 3738c3-63 4-126 4-189 0-176-9-353-25-528l-1-6 499 249c94 47 155 136 171 233l1-1 317 1900 311 933c55 167-36 347-203 403-167 55-347-36-402-203l-313-938c-9-22-16-45-20-70l-293-1760-46-23zm-4422-727h1l-1 6c-21 176-34 355-34 532 0 63 1 126 4 189l-46 23-293 1760c-4 25-11 48-20 70l-312 938c-56 167-236 258-403 203-167-56-258-236-203-403l311-933 317-1900 1 1c16-97 77-186 172-233l506-253zm4051-1382c-61-115-148-242-260-311-10-6-19-12-29-17l-2-1-3-6v-3c19-100 29-201 29-302h650c89 0 170 37 228 96l1245 1244 590 295c157 79 221 270 142 428-79 157-270 221-427 142l-614-307c-40-15-78-39-110-72L7228 4480h-253zm-3445-640c0 100 9 200 28 298l1 3-3 6-2 1c-10 7-19 13-28 20-97 73-176 204-230 312h-284L1826 5666c-32 33-70 57-110 72l-613 307c-158 79-349 15-428-142-79-158-15-349 143-428l589-295 1245-1244c58-59 139-96 228-96h650zm3124-420l-1-2c-56-206-154-399-287-566l-1-1 309-182 731-1232c37-61 91-106 153-132l620-310c157-79 348-15 427 142 79 158 15 349-142 428l-555 277-725 1222-1-1c-26 46-65 85-113 113l-415 244zM4554 1440l2 4-7 4c-123 78-229 183-298 312h-411c-41 0-82-16-113-47l-320-320c-63-62-63-164 0-226 62-63 164-63 226 0l273 273h648zm1132 0h648l273-273c62-63 164-63 226 0 63 62 63 164 0 226l-319 319c-29 30-69 48-114 48h-411c-71-133-178-236-305-316l2-4z"/><path fill="#ED9A56" d="M5949 2483c-250-153-536-233-829-233s-579 80-829 233c-83-118-131-256-131-403 0-442 430-800 960-800s960 358 960 800c0 147-48 285-131 403z"/><path fill="#ED9A56" d="M6691 4143c10 6 20 11 29 17 405 249 640 1342 640 2240 0 1767-1018 2560-2240 2560s-2240-793-2240-2560c0-815 287-1975 640-2240 9-7 19-14 28-20-18-97-28-197-28-300 0-884 716-1600 1600-1600s1600 716 1600 1600c0 104-10 205-29 303z"/></svg>