<svg xmlns="http://www.w3.org/2000/svg" width="1024" height="1024" shape-rendering="geometricPrecision" text-rendering="geometricPrecision" image-rendering="optimizeQuality" clip-rule="evenodd" viewBox="0 0 10240 10240"><title>building_block icon</title><desc>building_block icon from the IconExperience.com O-Collection. Copyright by INCORS GmbH (www.incors.com).</desc><path fill="#4D82B8" d="M1600 4480c0-268 790-320 960-320 530 0 960 143 960 320s-430 320-960 320c-170 0-960-52-960-320zm960-960c0-177 430-320 960-320s960 143 960 320-430 320-960 320c-170 0-960-52-960-320zm960-960c0-177 430-320 960-320s960 143 960 320-430 320-960 320-960-143-960-320zm960-960c0-177 430-320 960-320s960 143 960 320-430 320-960 320-960-143-960-320zm2240 0c0-177 430-320 960-320s960 143 960 320-430 320-960 320-960-143-960-320zm2494 640h66c176 0 320 144 320 320v2295c0 176-63 328-187 452L5947 8773c-124 124-276 187-452 187H960c-176 0-320-144-320-320V6345c0-176 63-328 187-452l86-86c-47 47-60 113-35 174 26 61 82 99 148 99h4469c176 0 328-63 452-187l3380-3380c110-110 43-273-113-273zM3840 4480c1-177 430-320 960-320s960 143 960 320-430 320-960 320-959-143-960-320zm1920-1280c530 0 960 143 960 320s-430 320-960 320-960-143-960-320 430-320 960-320zm960-960c530 0 960 143 960 320s-430 320-960 320-960-143-960-320 430-320 960-320zm1920-217v537c0 139-267 258-640 302v-302c0-118-64-229-176-324 324-18 611-97 816-213zm-960 960v537c0 139-267 258-640 302v-302c0-118-64-229-176-324 324-18 611-97 816-213zm-960 960v537c0 139-267 258-640 302v-302c0-118-64-229-176-324 324-18 611-97 816-213zm-960 960v537c0 177-430 320-960 320s-960-143-960-320v-537c235 133 578 217 960 217s725-84 960-217zm-2240 0v537c0 177-430 320-960 320s-960-143-960-320v-537c235 133 578 217 960 217s725-84 960-217z"/></svg>