<svg xmlns="http://www.w3.org/2000/svg" width="1024" height="1024" shape-rendering="geometricPrecision" text-rendering="geometricPrecision" image-rendering="optimizeQuality" clip-rule="evenodd" viewBox="0 0 10240 10240"><title>bulldozer icon</title><desc>bulldozer icon from the IconExperience.com O-Collection. Copyright by INCORS GmbH (www.incors.com).</desc><path fill="gray" d="M6400 7040c115 0 226 15 332 43l-597 597H1600c-354 0-640 286-640 640 0 348 279 644 632 640h4811c13 0 25 0 37-1h1069c-221 383-635 641-1109 641H1600c-707 9-1280-573-1280-1280s573-1280 1280-1280h4800z"/><path fill="gray" d="M8871 5120h138c158 0 290 112 316 267l595 3573 147 295c64 127-58 268-193 223l-594-198-960-641H3200c-176 0-319-143-319-319s143-319 319-319h3066l2120-2120 181-542c44-133 164-219 304-219zm-551 2881V6853L7171 8001h1149z"/><path fill="#EDC87E" d="M960 5120h1280c176 0 320 144 320 320v640c0 176 144 320 320 320h1600c176 0 320-144 320-320V4800c0-176 144-320 320-320h1280c705 0 1280 575 1280 1280v375l-695 695c-181-71-379-110-585-110H1600c-360 0-693 119-960 320V5440c0-176 144-320 320-320z"/><path fill="gray" d="M5120 2560v1600c-353 0-640 287-640 640v1280H2880v-640c0-353-287-640-640-640h-960V2560c-176 0-320-144-320-320s144-320 320-320h3840c176 0 320 144 320 320s-144 320-320 320zm-3200 0v1600h2560V2560H1920z"/></svg>