<svg xmlns="http://www.w3.org/2000/svg" width="1024" height="1024" shape-rendering="geometricPrecision" text-rendering="geometricPrecision" image-rendering="optimizeQuality" clip-rule="evenodd" viewBox="0 0 10240 10240"><title>businessperson2 icon</title><desc>businessperson2 icon from the IconExperience.com O-Collection. Copyright by INCORS GmbH (www.incors.com).</desc><path fill="#4D82B8" d="M4480 8960l394-2166-207-207c-124-124-187-276-187-452v-126c206 46 420 71 640 71s434-25 640-71v126c0 176-63 328-187 452l-207 207 394 2166-640 640-640-640z"/><path fill="gray" d="M8320 8470c0 716-1502 1049-2734 1117l400-401c74-74 106-170 91-273h-1v-6l-1-1v-3c28-3 55-7 83-10 359-46 743-117 1085-239 93-33 353-139 437-228-7-1226-285-1456-1075-2034-211 98-430 175-656 230 89-150 131-314 131-487v-126c0-31-4-61-12-89 209-73 406-168 589-284 1082 807 1663 1074 1663 2834zM4654 9587c-1232-68-2734-401-2734-1116 0-1760 582-2029 1663-2835 183 116 381 212 589 284-8 28-12 58-12 89v126c0 177 45 332 131 477v10c-225-55-445-132-656-230-789 578-1068 810-1075 2035 85 89 344 194 438 227 342 122 725 193 1084 239 28 3 56 7 83 10v4h-1v6h-1c-15 103 16 199 91 273l400 401z"/><path fill="#EFC1B4" d="M5120 661c1414 0 2560 1142 2560 2550S6534 5760 5120 5760 2560 4619 2560 3211 3706 661 5120 661z"/></svg>