<svg xmlns="http://www.w3.org/2000/svg" width="1024" height="1024" shape-rendering="geometricPrecision" text-rendering="geometricPrecision" image-rendering="optimizeQuality" clip-rule="evenodd" viewBox="0 0 10240 10240"><title>businesswoman icon</title><desc>businesswoman icon from the IconExperience.com O-Collection. Copyright by INCORS GmbH (www.incors.com).</desc><path fill="#4D82B8" d="M8320 8490c0 796-1920 1110-3200 1110s-3200-314-3200-1109c0-1531 1209-1711 1807-2154l-527 703h847c267 0 495 154 594 402l479 1198 479-1198c99-248 327-402 594-402h847l-527-703c598 443 1807 623 1807 2153z"/><path fill="#EFC1B4" d="M6194 6018c-228 615-624 1022-1074 1022-451 0-848-409-1076-1027 313 242 675 387 1076 387 394 0 765-143 1074-382z"/><path fill="#EFC1B4" d="M5120 6080c876 0 1615-880 1845-2083-392 17-814-80-1151-198-559-196-1114-618-1499-1111-200 248-454 463-729 581-120 52-250 95-382 121 65 1502 898 2690 1916 2690z"/><path fill="#B89A7C" d="M7350 3599c-320 130-841 105-1430-102-717-251-1334-875-1608-1398-160 336-481 717-852 876-214 92-412 130-572 120-5 70-8 143-8 219 0 662 169 1331 499 1893-692-497-1139-1283-1139-2167 0-907 320-1813 1280-2116 640-604 960-604 1600-604 1591 0 2880 1218 2880 2720 0 884-447 1670-1139 2167 283-481 447-1041 489-1608z"/></svg>