<svg xmlns="http://www.w3.org/2000/svg" width="1024" height="1024" shape-rendering="geometricPrecision" text-rendering="geometricPrecision" image-rendering="optimizeQuality" clip-rule="evenodd" viewBox="0 0 10240 10240"><title>cabinet2 icon</title><desc>cabinet2 icon from the IconExperience.com O-Collection. Copyright by INCORS GmbH (www.incors.com).</desc><path fill="#B89A7C" d="M6400 4480c353 0 640 287 640 640s-287 640-640 640-640-287-640-640 287-640 640-640zm-2560 0c353 0 640 287 640 640s-287 640-640 640-640-287-640-640 287-640 640-640zM4958 1573h320v6400h-320z"/><path fill="#B89A7C" d="M1600 640h7040c176 0 320 144 320 320v8640H7680c0-353-287-640-640-640H3200c-353 0-640 287-640 640H1280V960c0-176 144-320 320-320zm6720 7680V1280H1920v7040h6400z"/></svg>