<svg xmlns="http://www.w3.org/2000/svg" width="1024" height="1024" shape-rendering="geometricPrecision" text-rendering="geometricPrecision" image-rendering="optimizeQuality" clip-rule="evenodd" viewBox="0 0 10240 10240"><title>cabinet_warning icon</title><desc>cabinet_warning icon from the IconExperience.com O-Collection. Copyright by INCORS GmbH (www.incors.com).</desc><path fill="#EDC87E" d="M2880 1600h4480v6080H2880V1600zm2516 1114c-59-101-159-159-276-159s-217 58-276 159L3161 5599c-60 101-60 218-1 320 58 102 159 161 277 161h3366c118 0 219-59 277-161 59-102 59-219-1-320L5396 2714z"/><path fill="#EDC87E" d="M5120 5120c177 0 320 143 320 320s-143 320-320 320-320-143-320-320 143-320 320-320zm-160-1600h320c88 0 160 72 160 160v315c0 115-13 213-42 325l-135 514c-16 60-81 88-143 88s-127-28-143-88l-135-514c-29-112-42-210-42-325v-315c0-88 72-160 160-160z"/><path fill="gray" d="M8000 8640v960H2240v-960c-176 0-320-144-320-320V1280c0-353 287-640 640-640h5120c353 0 640 287 640 640v7040c0 176-144 320-320 320zM2880 1280c-176 0-320 144-320 320v6080c0 176 144 320 320 320h4480c176 0 320-144 320-320V1600c0-176-144-320-320-320H2880z"/></svg>