<svg xmlns="http://www.w3.org/2000/svg" width="1024" height="1024" shape-rendering="geometricPrecision" text-rendering="geometricPrecision" image-rendering="optimizeQuality" clip-rule="evenodd" viewBox="0 0 10240 10240"><title>cabinet_open icon</title><desc>cabinet_open icon from the IconExperience.com O-Collection. Copyright by INCORS GmbH (www.incors.com).</desc><path fill="gray" d="M8000 8640v960H2240v-960c-176 0-320-144-320-320V1280c0-353 287-640 640-640h5120c353 0 640 287 640 640v7040c0 176-144 320-320 320zM2880 1280c-176 0-320 144-320 320v2799l-420 210 420 839v3192c0 176 144 320 320 320h4480c176 0 320-144 320-320V5440h-830l-320-640h1150V1600c0-176-144-320-320-320H2880z"/><path fill="#4D82B8" d="M2880 1600h4480v2880h-990l-796-1590-2694 1349V1600zm960 320v320c0 176 144 320 320 320h1920c176 0 320-144 320-320v-320H3840zM2880 5760h4480v2880H2880V5760zm957 320v320c0 176 144 320 320 320h1920c176 0 320-144 320-320v-320H3837z"/></svg>