<svg xmlns="http://www.w3.org/2000/svg" width="1024" height="1024" shape-rendering="geometricPrecision" text-rendering="geometricPrecision" image-rendering="optimizeQuality" clip-rule="evenodd" viewBox="0 0 10240 10240"><title>cabinet_flash icon</title><desc>cabinet_flash icon from the IconExperience.com O-Collection. Copyright by INCORS GmbH (www.incors.com).</desc><path fill="#EDC87E" d="M2880 1600h4480v6080H2880V1600zm1739 960c-80 0-147 58-159 137l-274 1920c-7 48 6 92 38 128 31 36 72 55 120 55h776l-320 640h-402c-55 0-102 25-133 71-31 45-36 98-16 149l344 847c21 50 61 84 113 96 53 12 104-2 144-38l926-847c50-45 65-113 41-176s-82-102-149-102h-228l524-1048c26-52 23-108-7-156-30-49-79-76-136-76h-701l815-1358c30-50 31-109 2-161-30-51-80-81-140-81H4619z"/><path fill="gray" d="M8000 8640v960H2240v-960c-176 0-320-144-320-320V1280c0-353 287-640 640-640h5120c353 0 640 287 640 640v7040c0 176-144 320-320 320zM2880 1280c-176 0-320 144-320 320v6080c0 176 144 320 320 320h4480c176 0 320-144 320-320V1600c0-176-144-320-320-320H2880z"/></svg>