<svg xmlns="http://www.w3.org/2000/svg" width="1024" height="1024" shape-rendering="geometricPrecision" text-rendering="geometricPrecision" image-rendering="optimizeQuality" clip-rule="evenodd" viewBox="0 0 10240 10240"><title>calculator icon</title><desc>calculator icon from the IconExperience.com O-Collection. Copyright by INCORS GmbH (www.incors.com).</desc><path fill="#4D82B8" d="M2880 1600v1280h4480V1600H2880z"/><path fill="gray" d="M2560 640h5120c353 0 640 287 640 640v7680c0 353-287 640-640 640H2560c-353 0-640-287-640-640V1280c0-353 287-640 640-640zm320 640c-176 0-320 144-320 320v1280c0 176 144 320 320 320h4480c176 0 320-144 320-320V1600c0-176-144-320-320-320H2880zm640 2880c-353 0-640 287-640 640s287 640 640 640 640-287 640-640-287-640-640-640zm3200 3200c-353 0-640 287-640 640s287 640 640 640 640-287 640-640-287-640-640-640zm0-1600c-353 0-640 287-640 640s287 640 640 640 640-287 640-640-287-640-640-640zm0-1600c-353 0-640 287-640 640s287 640 640 640 640-287 640-640-287-640-640-640zM5120 7360c-353 0-640 287-640 640s287 640 640 640 640-287 640-640-287-640-640-640zm0-1600c-353 0-640 287-640 640s287 640 640 640 640-287 640-640-287-640-640-640zm0-1600c-353 0-640 287-640 640s287 640 640 640 640-287 640-640-287-640-640-640zM3520 7360c-353 0-640 287-640 640s287 640 640 640 640-287 640-640-287-640-640-640zm0-1600c-353 0-640 287-640 640s287 640 640 640 640-287 640-640-287-640-640-640z"/></svg>