<svg xmlns="http://www.w3.org/2000/svg" width="1024" height="1024" shape-rendering="geometricPrecision" text-rendering="geometricPrecision" image-rendering="optimizeQuality" clip-rule="evenodd" viewBox="0 0 10240 10240"><title>calendar_clock icon</title><desc>calendar_clock icon from the IconExperience.com O-Collection. Copyright by INCORS GmbH (www.incors.com).</desc><path fill="gray" d="M2080 5760h1120v2880h-640V6400h-640v-480c0-88 72-160 160-160zm3680 2240v640H3840v-960c0-352 287-640 640-640h480c88 0 160-72 160-160v-320c0-88-72-160-160-160h-320c-88 0-160 72-160 160h-640v-160c0-338 264-616 597-638 363 370 816 652 1323 811v467c0 353-287 640-640 640h-480c-88 0-160 72-160 160v160h1280z"/><path fill="gray" d="M7040 6704v2257c0 352-288 640-640 640l-5120-2c-352 0-640-287-640-640V5759h640v3201h5120V6704c105 11 212 16 320 16s215-5 320-16z"/><path fill="#4D82B8" d="M1280 3200v640c0 353 287 640 640 640h320c353 0 640-287 640-640 0 353 287 640 640 640h147c109 350 278 673 493 960H640V3840c0-353 287-640 640-640z"/><path fill="gray" d="M1920 2240h320c176 0 320 144 320 320v1280c0 176-144 320-320 320h-320c-176 0-320-144-320-320V2560c0-176 144-320 320-320zm1600 0h267c-172 392-267 825-267 1280 0 219 22 433 64 640h-64c-176 0-320-144-320-320V2560c0-176 144-320 320-320z"/><path fill="#4D82B8" d="M6049 1721l671 1159c116 0 226 31 320 85l877-507c141 160 252 348 321 554l-878 508c0 353-287 640-640 640s-640-287-640-640c0-116 31-226 85-320l-670-1159c164-136 351-245 554-320z"/><path fill="gray" d="M6720 640c1591 0 2880 1289 2880 2880S8311 6400 6720 6400 3840 5111 3840 3520 5129 640 6720 640zm0 640c-1237 0-2240 1003-2240 2240s1003 2240 2240 2240 2240-1003 2240-2240-1003-2240-2240-2240z"/></svg>