<svg xmlns="http://www.w3.org/2000/svg" width="1024" height="1024" shape-rendering="geometricPrecision" text-rendering="geometricPrecision" image-rendering="optimizeQuality" clip-rule="evenodd" viewBox="0 0 10240 10240"><title>caliper icon</title><desc>caliper icon from the IconExperience.com O-Collection. Copyright by INCORS GmbH (www.incors.com).</desc><path fill="gray" d="M8653 6604l-991 198c-93 19-179-1-255-58L5712 5472l-453 453c-226 226 0 453-226 679-125 124-328 124-453 0l-226-226 2036-2037 2263 2263zM3222 5246c-124-124-124-328 0-452l453-453-226-226 452-453 227 226 452-452 226 226-1584 1584z"/><path fill="gray" d="M5485 2983l-452 452 226 227-2037 2037-225-227L733 7735c-124 125-124 328 0 453l679 679c125 124 328 124 453 0l2263-2263-227-226 2489-2490 227 227 452-453 2263 2263 202-1010c16-81 3-157-39-227L8221 2565c-14-24-29-43-48-62L7069 1399c-124-124-328-124-452 0L5259 2757l226 226z"/></svg>