<svg xmlns="http://www.w3.org/2000/svg" width="1024" height="1024" shape-rendering="geometricPrecision" text-rendering="geometricPrecision" image-rendering="optimizeQuality" clip-rule="evenodd" viewBox="0 0 10240 10240"><title>can_open icon</title><desc>can_open icon from the IconExperience.com O-Collection. Copyright by INCORS GmbH (www.incors.com).</desc><path fill="gray" d="M7040 2021c612 281 1355 1128 1912 2256 782 1585 900 3125 263 3439s-1851-846-2569-2301-843-2619-515-3190c59-104 144-196 252-249l7-3 1-1v-2c5-17 9-32 9-50 0-353-1003-640-2240-640-109 0-215 2-320 7v1266c105 5 211 7 320 7 698 0 1322-91 1733-235-401 649-238 1999 466 3356 204 394 436 753 681 1066v933c0 530-1289 960-2880 960s-2880-430-2880-960V1920c0-530 1289-960 2880-960s2880 430 2880 960v101zM2240 3200c-176 0-320 144-320 320v3840c0 176 144 320 320 320s320-144 320-320V3520c0-176-144-320-320-320zm6138 1360c-469-950-1109-1593-1429-1436-319 158-198 1057 271 2008s1109 1594 1428 1436c320-158 199-1057-270-2008zm287-141c-626-1268-1521-2105-1999-1869s-358 1455 267 2723c626 1268 1520 2105 1999 1869 478-236 358-1455-267-2723zM7040 8000c0 530-1289 960-2880 960s-2880-430-2880-960v-9c-205 148-320 314-320 489 0 619 1433 1120 3200 1120s3200-501 3200-1120c0-175-115-341-320-489v9z"/></svg>