<svg xmlns="http://www.w3.org/2000/svg" width="1024" height="1024" shape-rendering="geometricPrecision" text-rendering="geometricPrecision" image-rendering="optimizeQuality" clip-rule="evenodd" viewBox="0 0 10240 10240"><title>candle_holder icon</title><desc>candle_holder icon from the IconExperience.com O-Collection. Copyright by INCORS GmbH (www.incors.com).</desc><path fill="gray" d="M7360 8000c0-530 430-960 960-960s960 430 960 960-430 960-960 960h-320c-237 0-444 129-555 320-117 204-319 320-554 320H1920c-352 0-640-287-640-640v-320h1600v-320c0-176 144-320 320-320h2560c176 0 320 144 320 320v320h640c353 0 640-287 640-640zm960-640c-353 0-640 287-640 640s287 640 640 640 640-287 640-640-287-640-640-640z"/><path fill="gray" d="M3520 3840h640v-320h640v320h640c176 0 320 144 320 320v3520H3200v-987c-50 17 0 27-160 27-250 0-480-165-480-480 0-430 640-550 640-1120v-960c0-177 143-320 320-320z"/><path fill="#ED9A56" d="M4160 320c860 420 1280 1140 1280 1920 0 526-423 953-947 960 259-7 467-219 467-480 0-375-595-570-340-1030-320 250-620 585-620 1030 0 261 208 473 467 480-524-7-947-434-947-960 0-960 1080-1080 640-1920z"/></svg>