<svg xmlns="http://www.w3.org/2000/svg" width="1024" height="1024" shape-rendering="geometricPrecision" text-rendering="geometricPrecision" image-rendering="optimizeQuality" clip-rule="evenodd" viewBox="0 0 10240 10240"><title>candle icon</title><desc>candle icon from the IconExperience.com O-Collection. Copyright by INCORS GmbH (www.incors.com).</desc><path fill="#E68497" d="M3520 5120h1280v-320h640v320h1280c176 0 320 144 320 320v3840c0 176-144 320-320 320H3520c-176 0-320-144-320-320V7973c-50 17 0 27-160 27-250 0-480-165-480-480 0-430 640-550 640-1120v-960c0-177 143-320 320-320z"/><path fill="#ED9A56" d="M4693 640c1147 560 1707 1520 1707 2560 0 701-564 1271-1263 1280 346-9 623-292 623-640 0-500-793-760-453-1373-427 333-827 780-827 1373 0 348 277 631 623 640-699-9-1263-579-1263-1280 0-1280 1440-1440 853-2560z"/></svg>