<svg xmlns="http://www.w3.org/2000/svg" width="1024" height="1024" shape-rendering="geometricPrecision" text-rendering="geometricPrecision" image-rendering="optimizeQuality" clip-rule="evenodd" viewBox="0 0 10240 10240"><title>car_compact icon</title><desc>car_compact icon from the IconExperience.com O-Collection. Copyright by INCORS GmbH (www.incors.com).</desc><path fill="gray" d="M7360 8947v333c0 176 144 320 320 320h640c176 0 320-144 320-320V8075c-113 158-252 310-414 471-274 274-541 371-866 401zM2880 8947v333c0 176-144 320-320 320h-640c-176 0-320-144-320-320V8075c113 158 252 310 414 471 274 274 541 371 866 401z"/><path fill="#4D82B8" d="M5120 2560c320 0 1600 0 2240 320 320 320 640 640 960 2240 320 960 320 1643 320 1920 0 640-320 960-640 1280s-640 320-960 320H3200c-320 0-640 0-960-320s-640-640-640-1280c0-280 0-960 320-1920 320-1600 640-1920 960-2240 640-320 1920-320 2240-320zM4000 7040c-88 0-160 74-160 165v310c0 91 72 165 160 165h2240c88 0 160-74 160-165v-310c0-91-72-165-160-165H4000zm3360-320c-353 0-640 287-640 640s287 320 640 320 640 33 640-320-287-640-640-640zm-4480-1c-353 0-640 287-640 640 0 354 287 320 640 320s640 34 640-320c0-353-287-640-640-640zm4292-3574c-523-236-1497-265-2052-265s-1529 29-2052 265c-162 165-272 299-382 518-172 346-290 775-380 1176-20 89-4 172 46 248 50 75 121 121 210 137 1025 181 4091 181 5116 0 89-16 160-62 210-137 50-76 66-159 46-248-90-401-208-830-380-1176-110-219-220-353-382-518z"/></svg>