<svg xmlns="http://www.w3.org/2000/svg" width="1024" height="1024" shape-rendering="geometricPrecision" text-rendering="geometricPrecision" image-rendering="optimizeQuality" clip-rule="evenodd" viewBox="0 0 10240 10240"><title>car_convertible2 icon</title><desc>car_convertible2 icon from the IconExperience.com O-Collection. Copyright by INCORS GmbH (www.incors.com).</desc><path fill="gray" d="M8000 6720c-530 0-960 430-960 960s430 960 960 960 960-430 960-960-430-960-960-960zm0 640c177 0 320 143 320 320s-143 320-320 320-320-143-320-320 143-320 320-320zm-5440 0c-177 0-320 143-320 320s143 320 320 320 320-143 320-320-143-320-320-320zm0-640c530 0 960 430 960 960s-430 960-960 960-960-430-960-960 430-960 960-960z"/><path fill="#4D82B8" d="M7360 5440c1280 0 2560 640 2560 1280v960c0 260-353 309-680 318 26-101 40-208 40-318 0-707-573-1280-1280-1280s-1280 573-1280 1280c0 110 14 218 40 320H3800c26-102 40-210 40-320 0-707-573-1280-1280-1280s-1280 573-1280 1280c0 66 5 131 15 194-510-122-975-362-975-834v-960c0-895 1596-960 2560-960 640 0 268 320 960 320h2074c335 0 481-160 392-343-148-308-164-548-481-608-38-7-65-40-65-78v-168c0-47 40-83 87-79 576 48 827 590 1513 1276z"/></svg>