<svg xmlns="http://www.w3.org/2000/svg" width="1024" height="1024" shape-rendering="geometricPrecision" text-rendering="geometricPrecision" image-rendering="optimizeQuality" clip-rule="evenodd" viewBox="0 0 10240 10240"><title>card_terminal2 icon</title><desc>card_terminal2 icon from the IconExperience.com O-Collection. Copyright by INCORS GmbH (www.incors.com).</desc><path fill="gray" d="M2560 7360h640v1600h640V7360h1280v1600h1920V7360h640v1600c0 352-288 640-640 640H3200c-352 0-640-287-640-640V7360zM2560 640h5120c353 0 640 288 640 640v5120c0 352-288 640-640 640H2560c-352 0-640-288-640-640V1280c0-353 288-640 640-640zm640 640c-176 0-320 144-320 320v640c0 176 144 320 320 320h640c176 0 320-144 320-320v-640c0-176-144-320-320-320h-640zm3200 3200c-176 0-320 144-320 320v640c0 176 144 320 320 320h640c176 0 320-144 320-320v-640c0-176-144-320-320-320h-640zm-1600 0c-176 0-320 144-320 320v640c0 176 144 320 320 320h640c176 0 320-144 320-320v-640c0-176-144-320-320-320h-640zm-1600 0c-176 0-320 144-320 320v640c0 176 144 320 320 320h640c176 0 320-144 320-320v-640c0-176-144-320-320-320h-640zm3200-1600c-176 0-320 144-320 320v640c0 176 144 320 320 320h640c176 0 320-144 320-320v-640c0-176-144-320-320-320h-640zm-1600 0c-176 0-320 144-320 320v640c0 176 144 320 320 320h640c176 0 320-144 320-320v-640c0-176-144-320-320-320h-640zm-1600 0c-176 0-320 144-320 320v640c0 176 144 320 320 320h640c176 0 320-144 320-320v-640c0-176-144-320-320-320h-640zm3200-1600c-176 0-320 144-320 320v640c0 176 144 320 320 320h640c176 0 320-144 320-320v-640c0-176-144-320-320-320h-640zm-1600 0c-176 0-320 144-320 320v640c0 176 144 320 320 320h640c176 0 320-144 320-320v-640c0-176-144-320-320-320h-640z"/></svg>