<svg xmlns="http://www.w3.org/2000/svg" width="1024" height="1024" shape-rendering="geometricPrecision" text-rendering="geometricPrecision" image-rendering="optimizeQuality" clip-rule="evenodd" viewBox="0 0 10240 10240"><title>cargo_container icon</title><desc>cargo_container icon from the IconExperience.com O-Collection. Copyright by INCORS GmbH (www.incors.com).</desc><path fill="#4D82B8" d="M827 4293l3786-3146c135-112 276-187 452-187h4215c176 0 320 144 320 320v3895c0 176-75 317-187 452L6267 9413c-112 135-276 187-452 187H960c-176 0-320-144-320-320V4745c0-176 52-340 187-452zm4933 827h-960v1600h320v320h-320v1920h960V5120zM4480 8960V7040h-320v-320h320V5120h-640v3840h640zm-1280 0V5120h-640v1600h320v320h-320v1920h640zm-960 0V7040h-320v-320h320V5120h-960v3840h960zm-581-4480h4101l2880-2880H5065L1659 4480z"/></svg>