<svg xmlns="http://www.w3.org/2000/svg" width="1024" height="1024" shape-rendering="geometricPrecision" text-rendering="geometricPrecision" image-rendering="optimizeQuality" clip-rule="evenodd" viewBox="0 0 10240 10240"><title>cd_case icon</title><desc>cd_case icon from the IconExperience.com O-Collection. Copyright by INCORS GmbH (www.incors.com).</desc><path fill="#4D82B8" d="M5760 3840c707 0 1280 573 1280 1280s-573 1280-1280 1280-1280-573-1280-1280 573-1280 1280-1280zm0 640c-353 0-640 287-640 640s287 640 640 640 640-287 640-640-287-640-640-640z"/><path fill="#4D82B8" d="M5760 1920c615 0 1190 174 1677 474l-838 1363c-244-150-531-237-839-237-884 0-1600 716-1600 1600 0 224 46 437 129 630l-1471 631c-166-387-258-813-258-1261 0-1767 1433-3200 3200-3200zm1471 2570l1471-631c166 387 258 813 258 1261 0 1767-1433 3200-3200 3200-615 0-1190-174-1677-474l838-1363c244 150 531 237 839 237 884 0 1600-716 1600-1600 0-224-46-437-129-630z"/><path fill="gray" d="M960 1280h960v7680H960c-176 0-320-144-320-320V1600c0-176 144-320 320-320zm1280 3840c0-1944 1576-3520 3520-3520s3520 1576 3520 3520-1576 3520-3520 3520-3520-1576-3520-3520zm0 3840h7040c176 0 320-144 320-320V1600c0-176-144-320-320-320H2240v7680z"/></svg>