<svg xmlns="http://www.w3.org/2000/svg" width="1024" height="1024" shape-rendering="geometricPrecision" text-rendering="geometricPrecision" image-rendering="optimizeQuality" clip-rule="evenodd" viewBox="0 0 10240 10240"><title>cd_drive icon</title><desc>cd_drive icon from the IconExperience.com O-Collection. Copyright by INCORS GmbH (www.incors.com).</desc><path fill="#4D82B8" d="M6720 6080c353 0 640 287 640 640s-287 640-640 640-640-287-640-640 287-640 640-640zm0 320c-177 0-320 143-320 320s143 320 320 320 320-143 320-320-143-320-320-320z"/><path fill="#4D82B8" d="M6714 3828c1594 0 2886 1292 2886 2886S8308 9600 6714 9600 3828 8308 3828 6714s1292-2886 2886-2886zm0 320c-1418 0-2566 1148-2566 2566 0 1417 1148 2566 2566 2566 1417 0 2566-1149 2566-2566 0-1418-1149-2566-2566-2566z"/><path fill="#4D82B8" d="M6714 4467c-1241 0-2247 1006-2247 2247 0 314 65 613 182 885l1188-509c-50-116-77-243-77-376 0-527 427-954 954-954 183 0 354 52 500 141l677-1100c-342-212-746-334-1177-334zm2065 1362l-1188 509c49 115 76 242 76 376 0 526-427 953-953 953-184 0-355-51-500-141l-678 1101c343 211 746 333 1178 333 1240 0 2246-1006 2246-2246 0-315-65-614-181-885z"/><path fill="gray" d="M1920 640h5760c353 0 640 288 640 640v2668c-471-272-1017-428-1600-428-1767 0-3200 1433-3200 3200 0 872 349 1663 915 2240H1920c-352 0-640-287-640-640V1280c0-352 288-640 640-640zm5440 640c-177 0-320 143-320 320s143 320 320 320 320-143 320-320-143-320-320-320zM2240 7680c-177 0-320 143-320 320s143 320 320 320 320-143 320-320-143-320-320-320zm0-6400c-177 0-320 143-320 320s143 320 320 320 320-143 320-320-143-320-320-320z"/></svg>