<svg xmlns="http://www.w3.org/2000/svg" width="1024" height="1024" shape-rendering="geometricPrecision" text-rendering="geometricPrecision" image-rendering="optimizeQuality" clip-rule="evenodd" viewBox="0 0 10240 10240"><title>cd_pirated icon</title><desc>cd_pirated icon from the IconExperience.com O-Collection. Copyright by INCORS GmbH (www.incors.com).</desc><path fill="#333" d="M5313 5518c112 255 335 299 194 582-36 72-164 233-217 192-126-96-243-89-370 0-54 38-153-120-189-192-119-239 92-372 194-582 57-116 336-119 388 0zM4402 4480c311 0 562 248 562 553 0 306-251 553-562 553-310 0-562-247-562-553 0-305 252-553 562-553zm1436 0c310 0 562 248 562 553 0 306-252 553-562 553-311 0-562-247-562-553 0-305 251-553 562-553z"/><path fill="gray" d="M5120 1600c677 0 1309 191 1845 522l-517 840c214 127 404 292 558 499 164 220 266 462 317 715l1033-443c183 426 284 895 284 1387 0 1944-1576 3520-3520 3520-677 0-1308-191-1845-522l548-891c-9-6-18-12-28-18-170-116-247-306-239-508l-1-191v-53c-230-93-406-251-515-446l-1156 496c-183-426-284-895-284-1387 0-1944 1576-3520 3520-3520zm-584 5542c22 48 57 89 109 118 79 44 156 38 242 38 82 0 157 5 233-34 76 39 151 34 233 34 86 0 163 6 242-38 51-28 85-68 107-114h40c65 0 116 4 177-27 57-30 91-75 111-128h24c76 0 143 4 210-42 99-68 102-167 101-273v-166c0-48-3-256 26-293 8-7 36-14 45-17 468-110 687-562 498-1005 7-43 34-114 44-155 121-484 75-980-229-1388-375-505-1020-711-1629-711s-1254 206-1629 711c-304 408-350 904-229 1388 10 41 37 112 44 155-194 455 14 891 498 1005 9 3 37 10 45 17 29 37 26 245 26 293l1 198c-5 92 20 182 100 237 67 46 134 43 210 43h24c20 52 54 98 111 127 61 31 112 27 177 27 13 0 26 1 38 0zm-134-2662c311 0 562 248 562 553 0 306-251 553-562 553-310 0-562-247-562-553 0-305 252-553 562-553zm1436 0c-311 0-562 248-562 553 0 306 251 553 562 553 310 0 562-247 562-553 0-305-252-553-562-553zm-525 1038c112 255 335 299 194 582-36 72-164 233-217 192-126-96-243-89-370 0-54 38-153-120-189-192-119-239 92-372 194-582 57-116 336-119 388 0z"/><path fill="gray" d="M5120 640c2474 0 4480 2006 4480 4480S7594 9600 5120 9600 640 7594 640 5120 2646 640 5120 640zm0 640c-2121 0-3840 1719-3840 3840s1719 3840 3840 3840 3840-1719 3840-3840-1719-3840-3840-3840z"/></svg>