<svg xmlns="http://www.w3.org/2000/svg" width="1024" height="1024" shape-rendering="geometricPrecision" text-rendering="geometricPrecision" image-rendering="optimizeQuality" clip-rule="evenodd" viewBox="0 0 10240 10240"><title>cd_window icon</title><desc>cd_window icon from the IconExperience.com O-Collection. Copyright by INCORS GmbH (www.incors.com).</desc><path fill="#4D82B8" d="M9600 9280c0 176-144 320-320 320H4160c-176 0-320-144-320-320V5760c0-353 288-640 640-640h4480c352 0 640 288 640 640v3520zM4480 6400v2560h4480V6400H4480z"/><path fill="gray" d="M5120 1600c677 0 1309 191 1845 522L5959 3757c-244-150-531-237-839-237-884 0-1600 716-1600 1600 0 124 14 246 41 362-27 88-41 181-41 278v46l-1636 701c-183-426-284-895-284-1387 0-1944 1576-3520 3520-3520zm1471 2890l1765-757c143 332 236 691 270 1067H6688c-22-108-55-212-97-310zM3520 8256c-84-43-165-89-245-138l245-398v536z"/><path fill="gray" d="M5120 3840c596 0 1098 408 1240 960h-686c-110-191-317-320-554-320s-444 129-554 320h-86c-244 0-468 92-638 243 40-671 597-1203 1278-1203z"/><path fill="gray" d="M5120 640c2449 0 4439 1965 4479 4404-170-151-394-244-639-244h-13c-163-1971-1814-3520-3827-3520-2121 0-3840 1719-3840 3840 0 1550 918 2885 2240 3492v668c0 9 0 17 1 26C1836 8662 640 7031 640 5120c0-2474 2006-4480 4480-4480z"/></svg>