<svg xmlns="http://www.w3.org/2000/svg" width="1024" height="1024" shape-rendering="geometricPrecision" text-rendering="geometricPrecision" image-rendering="optimizeQuality" clip-rule="evenodd" viewBox="0 0 10240 10240"><title>central_bank_pound icon</title><desc>central_bank_pound icon from the IconExperience.com O-Collection. Copyright by INCORS GmbH (www.incors.com).</desc><path fill="gray" d="M640 8960h8960v640H640zM8320 4480c353 0 640 288 640 640v3840H5760V7040H4480v1920H1280V5120c0-353 287-640 640-640h1280c0-300 209-553 488-622l44 88c79 157 271 222 428 144 193-95 412-194 492-184 63 8 165 54 225 78 234 96 447 176 706 176 342 0 630-137 901-315 313 42 556 311 556 635h1280zm-640 2560v1280h640V7040h-640zm0-1920v1280h640V5120h-640zm-1280 0v1280h640V5120h-640zm-1920 0v1280h1280V5120H4480zm-1280 0v1280h640V5120h-640zm-1280 0v1280h640V5120h-640zm0 1920v1280h640V7040h-640zm1280 0v1280h640V7040h-640zm3200 0v1280h640V7040h-640z"/><path fill="#EDC87E" d="M3760 2080h423c9-93 14-183 14-267 0-648 525-1173 1173-1173s1173 525 1173 1173h-640c0-294-238-533-533-533s-533 239-533 533c0 84-4 174-12 267h855l-240 480h-687c-29 131-64 262-106 385 40 1 80 3 122 9 167 20 318 82 469 144 124 51 249 102 345 102 180 0 421-181 662-362l383 510c-328 246-656 492-1045 492-214 0-399-76-585-152-108-44-215-88-307-99-219-28-499 134-696 227l-261-581c110-55 208-224 288-436 28-76 54-157 75-239h-577l240-480z"/></svg>