<svg xmlns="http://www.w3.org/2000/svg" width="1024" height="1024" shape-rendering="geometricPrecision" text-rendering="geometricPrecision" image-rendering="optimizeQuality" clip-rule="evenodd" viewBox="0 0 10240 10240"><title>central_bank_dollar icon</title><desc>central_bank_dollar icon from the IconExperience.com O-Collection. Copyright by INCORS GmbH (www.incors.com).</desc><path fill="gray" d="M640 8960h8960v640H640zM8320 4480c353 0 640 288 640 640v3840H5760V7040H4480v1920H1280V5120c0-353 287-640 640-640h1280c0-353 287-640 640-640h282c167 96 358 153 561 159 55 96 159 161 277 161h320c118 0 222-65 277-161 204-6 395-63 561-159h282c353 0 640 288 640 640h1280zm-2560 640H4480v1280h1280V5120zm-3840 0v1280h640V5120h-640zm0 1920v1280h640V7040h-640zm1280 0v1280h640V7040h-640zm4480-1920v1280h640V5120h-640zm0 1920v1280h640V7040h-640zm-1280 0v1280h640V7040h-640zm0-1920v1280h640V5120h-640zm-3200 0v1280h640V5120h-640z"/><path fill="#EDC87E" d="M5440 3680h-160v160h-320v-160h-240c-454 0-835-348-876-800h650c34 95 125 160 226 160h240v-480h-240c-485 0-880-395-880-880s395-880 880-880h240V640h320v160h240c454 0 835 348 876 800h-650c-34-95-124-160-226-160h-240v480h240c485 0 880 395 880 880s-395 880-880 880h-80zm-160-640h240c132 0 240-108 240-240s-108-240-240-240h-240v480zm-320-1600h-240c-132 0-240 108-240 240s108 240 240 240h240v-480z"/></svg>