<svg xmlns="http://www.w3.org/2000/svg" width="1024" height="1024" shape-rendering="geometricPrecision" text-rendering="geometricPrecision" image-rendering="optimizeQuality" clip-rule="evenodd" viewBox="0 0 10240 10240"><title>central_bank_euro icon</title><desc>central_bank_euro icon from the IconExperience.com O-Collection. Copyright by INCORS GmbH (www.incors.com).</desc><path fill="gray" d="M640 8960h8960v640H640zM8320 4480c353 0 640 288 640 640v3840H5760V7040H4480v1920H1280V5120c0-353 287-640 640-640h1280c0-353 287-640 640-640h503c291 202 641 320 1017 320 306 0 604-79 871-229l163-91h6c353 0 640 288 640 640h1280zm-2560 640H4480v1280h1280V5120zm-3840 0v1280h640V5120h-640zm0 1920v1280h640V7040h-640zm1280 0v1280h640V7040h-640zm4480-1920v1280h640V5120h-640zm0 1920v1280h640V7040h-640zm-1280 0v1280h640V7040h-640zm0-1920v1280h640V5120h-640zm-3200 0v1280h640V5120h-640z"/><path fill="#EDC87E" d="M3589 2400h259c-5-53-8-106-8-160h-217l68-320h179c141-730 755-1280 1490-1280 246 0 478 62 683 171l-143 671c-149-127-337-202-540-202-383 0-709 267-830 640h1276l-69 320H4480c0 55 4 108 12 160h1211l-69 320H4598c152 287 436 480 762 480 221 0 422-89 577-235l137 687c-213 120-456 188-714 188-681 0-1257-471-1450-1120h-390l69-320z"/></svg>