<svg xmlns="http://www.w3.org/2000/svg" width="1024" height="1024" shape-rendering="geometricPrecision" text-rendering="geometricPrecision" image-rendering="optimizeQuality" clip-rule="evenodd" viewBox="0 0 10240 10240"><title>central_bank_yuan icon</title><desc>central_bank_yuan icon from the IconExperience.com O-Collection. Copyright by INCORS GmbH (www.incors.com).</desc><path fill="gray" d="M640 8960h8960v640H640zM8320 4480c353 0 640 288 640 640v3840H5760V7040H4480v1920H1280V5120c0-353 287-640 640-640h1280c0-144 48-277 128-384 54 40 120 64 192 64 349 0 668-112 936-320h660c44 45 93 87 149 126 261 180 511 194 815 194 205 0 395-65 552-175 120 189 164 495 408 495h1280zm-2560 640H4480v1280h1280V5120zm-3840 0v1280h640V5120h-640zm0 1920v1280h640V7040h-640zm1280 0v1280h640V7040h-640zm4480-1920v1280h640V5120h-640zm0 1920v1280h640V7040h-640zm-1280 0v1280h640V7040h-640zm0-1920v1280h640V5120h-640zm-3200 0v1280h640V5120h-640z"/><path fill="#EDC87E" d="M3520 1600h3200v640h-960v640c0 196 19 277 49 297 33 23 146 23 271 23v-320h640v320c0 353-287 640-640 640-672 0-960-254-960-960v-640h-320v320c0 660-607 1280-1280 1280v-640c322 0 640-332 640-640v-320h-640v-640zm2560 1600zM3840 640h2560v640H3840V640z"/></svg>