<svg xmlns="http://www.w3.org/2000/svg" width="1024" height="1024" shape-rendering="geometricPrecision" text-rendering="geometricPrecision" image-rendering="optimizeQuality" clip-rule="evenodd" viewBox="0 0 10240 10240"><title>chainsaw icon</title><desc>chainsaw icon from the IconExperience.com O-Collection. Copyright by INCORS GmbH (www.incors.com).</desc><path fill="gray" d="M2560 4541v-61l408 204c51 26 108 23 156-7 49-30 76-79 76-136v-61l408 204c51 26 108 23 156-7 49-30 76-79 76-136v-61l408 204c51 26 108 23 156-7 49-30 76-79 76-136v-61l408 204c51 26 108 23 156-7 49-30 76-79 76-136v-61l320 160v2240l-88-44c-52-26-108-23-156 7-49 30-76 79-76 136v61l-408-204c-51-26-108-23-156 7-49 30-76 79-76 136v61l-408-204c-52-26-108-23-156 7-49 30-76 79-76 136v61l-408-204c-51-26-108-23-156 7-49 30-76 79-76 136v61l-408-204c-51-26-108-23-156 7-49 30-76 79-76 136v61l-408-204c-52-26-108-23-156 7-49 30-76 79-76 136v61l-505-253c-71-35-155-14-201 49l-107 148-261-502c-36-70-116-103-191-78l-173 56 84-559c11-78-34-152-109-176l-173-56 396-403c56-56 62-142 16-206l-107-147 557-93c78-13 134-79 134-158v-182l408 204c51 26 108 23 156-7 49-30 76-79 76-136v-61l408 204c51 26 108 23 156-7 49-30 76-79 76-136zm-960 899c-177 0-320 143-320 320s143 320 320 320 320-143 320-320-143-320-320-320z"/><path fill="#ED9A56" d="M7768 3840c156 0 290 49 410 148l1512 1260c151 126 230 295 230 492v980c0 352-288 640-640 640H6400c-353 0-640-287-640-640V4480c0-236 129-443 320-554v1834c0 353 287 640 640 640s640-287 640-640V3840h408z"/><path fill="gray" d="M7040 5760c0 177-143 320-320 320s-320-143-320-320V3840c0-353 144-673 375-905 232-231 552-375 905-375 140 0 274 21 404 65 129 43 249 107 363 192l768 576c123 92 219 206 284 337 67 133 101 278 101 430v597l-640-534v-63c0-56-10-104-31-145-21-42-53-80-96-112l-768-576c-60-44-119-77-181-97-60-20-127-30-204-30-176 0-336 72-452 188s-188 276-188 452v1920z"/></svg>