<svg xmlns="http://www.w3.org/2000/svg" width="1024" height="1024" shape-rendering="geometricPrecision" text-rendering="geometricPrecision" image-rendering="optimizeQuality" clip-rule="evenodd" viewBox="0 0 10240 10240"><title>champagne_bottle icon</title><desc>champagne_bottle icon from the IconExperience.com O-Collection. Copyright by INCORS GmbH (www.incors.com).</desc><path fill="#76A797" d="M6080 1920v187c0 294-320 232-320 773v640c0 1280 1600 1920 1600 3520v2240c0 176-144 320-320 320H3200c-176 0-320-144-320-320V7040c0-1600 1600-2240 1600-3520v-640c0-541-320-479-320-773v-187h1920zM3840 6720v1920h2560V6720H3840z"/><path fill="gray" d="M4800 640h640c353 0 640 287 640 640v320H4160v-320c0-353 287-640 640-640z"/></svg>