<svg xmlns="http://www.w3.org/2000/svg" width="1024" height="1024" shape-rendering="geometricPrecision" text-rendering="geometricPrecision" image-rendering="optimizeQuality" clip-rule="evenodd" viewBox="0 0 10240 10240"><title>chart_dot icon</title><desc>chart_dot icon from the IconExperience.com O-Collection. Copyright by INCORS GmbH (www.incors.com).</desc><path fill="#4D82B8" d="M4480 3200c353 0 640 287 640 640s-287 640-640 640-640-287-640-640 287-640 640-640zm3840 3840c353 0 640 287 640 640s-287 640-640 640-640-287-640-640 287-640 640-640zm-640-1920c353 0 640 287 640 640s-287 640-640 640-640-287-640-640 287-640 640-640zm-4480 640c353 0 640 287 640 640s-287 640-640 640-640-287-640-640 287-640 640-640z"/><path fill="#EDC87E" d="M5760 4480c353 0 640 287 640 640s-287 640-640 640-640-287-640-640 287-640 640-640zM2560 1920c353 0 640 287 640 640s-287 640-640 640-640-287-640-640 287-640 640-640zm5760 640c353 0 640 287 640 640s-287 640-640 640-640-287-640-640 287-640 640-640zM5120 7040c353 0 640 287 640 640s-287 640-640 640-640-287-640-640 287-640 640-640zm1280-5760c353 0 640 287 640 640s-287 640-640 640-640-287-640-640 287-640 640-640z"/><path fill="gray" d="M640 1280h640v7680h8320v640H640v-640z"/></svg>