<svg xmlns="http://www.w3.org/2000/svg" width="1024" height="1024" shape-rendering="geometricPrecision" text-rendering="geometricPrecision" image-rendering="optimizeQuality" clip-rule="evenodd" viewBox="0 0 10240 10240"><title>chart_step icon</title><desc>chart_step icon from the IconExperience.com O-Collection. Copyright by INCORS GmbH (www.incors.com).</desc><path fill="#4D82B8" d="M1600 7680h960V5760h1920v1280h640V5120h1920v1920h640v-640h1600v640h-960v640H6400V5760h-640v1920H3840V6400h-640v1920H1600z"/><path fill="#EDC87E" d="M1600 2560h1600v1280h640V1920h1280v-640h1920v1920h1280v1280h960v640H7680V3840H6400V1920h-640v640H4480v1920H2560V3200h-960z"/><path fill="gray" d="M640 1280h640v7680h8320v640H640v-640z"/></svg>