<svg xmlns="http://www.w3.org/2000/svg" width="1024" height="1024" shape-rendering="geometricPrecision" text-rendering="geometricPrecision" image-rendering="optimizeQuality" clip-rule="evenodd" viewBox="0 0 10240 10240"><title>chart_spline icon</title><desc>chart_spline icon from the IconExperience.com O-Collection. Copyright by INCORS GmbH (www.incors.com).</desc><path fill="#4D82B8" d="M1600 7061c241-184 512-341 960-341 452 0 659 207 866 414 113 113 227 226 414 226 124 0 239-231 355-462 204-409 409-818 925-818 453 0 659 207 866 414 113 113 227 226 414 226 124 0 239-231 355-463 204-408 409-817 925-817 487 0 928 475 1280 1009v1304c-300-600-853-1673-1280-1673-124 0-239 231-355 462-204 409-409 818-925 818-452 0-659-207-866-414-113-113-226-226-414-226-124 0-239 231-355 463-204 408-409 817-925 817-453 0-659-207-866-414-113-113-226-226-414-226-317 0-509 154-702 308-83 66-166 132-258 194v-801z"/><path fill="#EDC87E" d="M1600 4591c207-637 416-1071 960-1071 519 0 734 417 945 828 117 228 232 452 335 452s218-224 335-452c211-411 426-828 945-828 453 0 659 207 866 414 113 113 227 226 414 226 71 0 200-519 330-1038 190-761 381-1522 950-1522 511 0 938 665 1280 1373v1578c-68-143-141-314-222-505-313-739-767-1806-1058-1806-71 0-200 519-330 1037-190 762-381 1523-950 1523-452 0-659-207-866-414-113-113-226-226-414-226-130 0-255 242-377 480-207 403-411 800-903 800s-696-397-903-800c-122-238-247-480-377-480-160 0-282 394-450 938-127 409-273 884-510 1373V4591z"/><path fill="gray" d="M640 1280h640v7680h8320v640H640v-640z"/></svg>