<svg xmlns="http://www.w3.org/2000/svg" width="1024" height="1024" shape-rendering="geometricPrecision" text-rendering="geometricPrecision" image-rendering="optimizeQuality" clip-rule="evenodd" viewBox="0 0 10240 10240"><title>chart_line icon</title><desc>chart_line icon from the IconExperience.com O-Collection. Copyright by INCORS GmbH (www.incors.com).</desc><path fill="#4D82B8" d="M1600 7164l960-480 1216 608 1280-1280 1280 640 1280-1280 1344 672v712l-1216-608-1280 1280-1280-640-1280 1280-1344-672-960 480z"/><path fill="#EDC87E" d="M1600 5047l873-1746 1367 1366 1216-1215 1202 600 1279-2560 1423 712v712l-1137-569-1280 2561-1359-680-1344 1345-1193-1194-1047 2093z"/><path fill="gray" d="M1280 8960h8320v640H640V1280h640z"/></svg>