<svg xmlns="http://www.w3.org/2000/svg" width="1024" height="1024" shape-rendering="geometricPrecision" text-rendering="geometricPrecision" image-rendering="optimizeQuality" clip-rule="evenodd" viewBox="0 0 10240 10240"><title>chart_funnel icon</title><desc>chart_funnel icon from the IconExperience.com O-Collection. Copyright by INCORS GmbH (www.incors.com).</desc><path fill="#4D82B8" d="M6770 6940l-370 740v1281c0 176-572 319-1277 319-706 0-1277-143-1277-319l-6-1281-368-736c409 158 994 257 1644 257 655 0 1244-101 1654-261z"/><path fill="#EDC87E" d="M7703 5075l-722 1443c-212 208-969 363-1865 363s-1644-154-1856-361l-723-1445c583 258 1522 426 2583 426s2000-168 2583-426z"/><path fill="gray" d="M8830 2819l-830 1661h-1c0 1 0 2-1 3l-67 135c-286 322-1436 563-2811 563s-2525-241-2811-563l-67-135c-1-1-1-2-1-3h-1l-830-1661c687 416 2090 701 3710 701s3023-285 3710-701z"/><path fill="gray" d="M5120 1280c2121 0 3840 430 3840 960s-1719 960-3840 960-3840-430-3840-960 1719-960 3840-960z"/></svg>