<svg xmlns="http://www.w3.org/2000/svg" width="1024" height="1024" shape-rendering="geometricPrecision" text-rendering="geometricPrecision" image-rendering="optimizeQuality" clip-rule="evenodd" viewBox="0 0 10240 10240"><title>chart_gantt icon</title><desc>chart_gantt icon from the IconExperience.com O-Collection. Copyright by INCORS GmbH (www.incors.com).</desc><path fill="#4D82B8" d="M1920 1280h7040v1280l-640-320v-320H2560v320l-640 320V1280zm1280 3200h3840v1280l-640-320v-320H3840v320l-640 320V4480z"/><path fill="#EDC87E" d="M1920 2560h2560v640h4480v640H4480v-640H1920v-640zm5120 5440h1920v640H7040v-640zm0-960h1920v640H7040v-640H5120v-640H3200v-640h1920v640h1920v640z"/><path fill="gray" d="M640 1280h640v7680h8320v640H640v-640z"/></svg>