<svg xmlns="http://www.w3.org/2000/svg" width="1024" height="1024" shape-rendering="geometricPrecision" text-rendering="geometricPrecision" image-rendering="optimizeQuality" clip-rule="evenodd" viewBox="0 0 10240 10240"><title>chess_piece_bishop icon</title><desc>chess_piece_bishop icon from the IconExperience.com O-Collection. Copyright by INCORS GmbH (www.incors.com).</desc><path fill="gray" d="M2880 8320h4480c176 0 320 144 320 320v640c0 176-144 320-320 320H2880c-176 0-320-144-320-320v-640c0-176 144-320 320-320zM4160 5440h1920c0 1225 320 1516 881 2155 53 61 79 130 79 211v194H3200v-194c0-81 26-150 79-211 561-639 881-930 881-2155zM5760 1920v139c561 248 952 810 952 1463 0 360-119 693-320 960h320v640H3512v-640h320c-201-267-320-600-320-960 0-527 255-995 648-1286v966l320 320V1920c0-353 287-640 640-640s640 287 640 640z"/></svg>