<svg xmlns="http://www.w3.org/2000/svg" width="1024" height="1024" shape-rendering="geometricPrecision" text-rendering="geometricPrecision" image-rendering="optimizeQuality" clip-rule="evenodd" viewBox="0 0 10240 10240"><title>chest icon</title><desc>chest icon from the IconExperience.com O-Collection. Copyright by INCORS GmbH (www.incors.com).</desc><path fill="#B89A7C" d="M8960 4978v2626c0 249-132 462-354 573L5920 9520V6498l3040-1520zM5600 9520L1634 7537c-222-111-354-324-354-573V4338l1600 800v424c0 124 66 231 177 286l640 320c102 52 214 46 311-14s152-158 152-272v-104l1440 720v3022zM1280 3546c0-884 697-1977 1580-2404 456-220 873-235 1169-76l3961 1959c-199 24-413 85-634 186-908 418-1756 1528-1756 2549v382l-1440-720v-104c0-124-66-231-177-286l-640-320c-102-51-214-46-311 14-38 23-69 52-93 85l-1659-829v-436zm7680 614v462L5920 6142v-382c0-896 773-1893 1568-2259 333-152 788-255 1125-59 272 158 347 424 347 718z"/></svg>