<svg xmlns="http://www.w3.org/2000/svg" width="1024" height="1024" shape-rendering="geometricPrecision" text-rendering="geometricPrecision" image-rendering="optimizeQuality" clip-rule="evenodd" viewBox="0 0 10240 10240"><title>chess_piece_king icon</title><desc>chess_piece_king icon from the IconExperience.com O-Collection. Copyright by INCORS GmbH (www.incors.com).</desc><path fill="gray" d="M2880 8320h4480c176 0 320 144 320 320v640c0 176-144 320-320 320H2880c-176 0-320-144-320-320v-640c0-176 144-320 320-320zM4160 4160h1920c0 1225 320 2796 881 3435 53 61 79 130 79 211v194H3200v-194c0-81 26-150 79-211 561-639 881-2210 881-3435zM4480 640h320V320h640v320h320v640h-320v325c1020 6 1280 51 1280 635 0 288-137 652-316 960h316v640H3520v-640h312c-177-305-312-666-312-960 0-582 265-635 1280-637v-323h-320V640z"/></svg>