<svg xmlns="http://www.w3.org/2000/svg" width="1024" height="1024" shape-rendering="geometricPrecision" text-rendering="geometricPrecision" image-rendering="optimizeQuality" clip-rule="evenodd" viewBox="0 0 10240 10240"><title>chess_piece_knight icon</title><desc>chess_piece_knight icon from the IconExperience.com O-Collection. Copyright by INCORS GmbH (www.incors.com).</desc><path fill="gray" d="M2880 8320h4480c176 0 320 144 320 320v640c0 176-144 320-320 320H2880c-176 0-320-144-320-320v-640c0-176 144-320 320-320zM4480 4800l-803 1365c-83 140-265 181-410 109l-830-415c-121-61-189-184-175-318l280-2797c12-126-8-237-65-350l-237-474h1920c1920 0 2880 960 2880 2560 0 1225-640 1920-79 3115 34 73 79 130 79 211v194H3200v-194c0-81 11-168 79-211 881-555 1521-1835 1201-2795z"/></svg>