<svg xmlns="http://www.w3.org/2000/svg" width="1024" height="1024" shape-rendering="geometricPrecision" text-rendering="geometricPrecision" image-rendering="optimizeQuality" clip-rule="evenodd" viewBox="0 0 10240 10240"><title>chess_piece_queen icon</title><desc>chess_piece_queen icon from the IconExperience.com O-Collection. Copyright by INCORS GmbH (www.incors.com).</desc><path fill="gray" d="M2880 8320h4480c176 0 320 144 320 320v640c0 176-144 320-320 320H2880c-176 0-320-144-320-320v-640c0-176 144-320 320-320zM4160 4160h1920c0 1225 320 2796 881 3435 53 61 79 130 79 211v194H3200v-194c0-81 26-150 79-211 561-639 881-2210 881-3435zM5102 942c353 0 640 286 640 640 0 244-136 455-336 563 101 29 223 46 354 46 325 0 593-104 635-238 245 32 325 99 325 238 0 263-155 667-351 1009h351v640H3520v-640h404c-220-398-404-861-404-1009 0-138 81-206 325-240 39 135 308 240 635 240 121 0 234-14 331-39-207-106-349-322-349-570 0-354 286-640 640-640z"/></svg>