<svg xmlns="http://www.w3.org/2000/svg" width="1024" height="1024" shape-rendering="geometricPrecision" text-rendering="geometricPrecision" image-rendering="optimizeQuality" clip-rule="evenodd" viewBox="0 0 10240 10240"><title>church icon</title><desc>church icon from the IconExperience.com O-Collection. Copyright by INCORS GmbH (www.incors.com).</desc><path fill="gray" d="M2560 640l1920 3840h3840l1280 1280v3840H640V4480L2560 640zm-960 7360v1280h1920V8000c0-960-320-1280-960-1615-640 335-960 655-960 1615zm5760-960v1280h960V7040c0-488-240-731-480-975-240 244-480 487-480 975zm-1920 0v1280h960V7040c0-488-240-731-480-975-240 244-480 487-480 975zM1600 3840v640h640v1280h640V4480h640v-640h-640v-640h-640v640h-640z"/></svg>