<svg xmlns="http://www.w3.org/2000/svg" width="1024" height="1024" shape-rendering="geometricPrecision" text-rendering="geometricPrecision" image-rendering="optimizeQuality" clip-rule="evenodd" viewBox="0 0 10240 10240"><title>cigarette_packet icon</title><desc>cigarette_packet icon from the IconExperience.com O-Collection. Copyright by INCORS GmbH (www.incors.com).</desc><path fill="#EDC87E" d="M2560 2880h640v562c-184-134-404-216-640-237v-325zm1920 0h640v1600h-640V2880zm960 0h640v1600h-640V2880zm960 0h640v562c-162 118-296 276-387 470l-253 536V2880zm960 0h640v320h-198c-154 0-303 25-442 74v-394zM3520 1280h640v1920h-640V1280z"/><path fill="#4D82B8" d="M1920 3520h518c380 0 705 200 860 528l256 544c154 328 480 528 860 528h1412c380 0 706-200 860-528l256-544c155-328 480-528 860-528h518v5760c0 176-144 320-320 320H2240c-176 0-320-144-320-320V3520zm1280 2240v2560h3840V5760H3200z"/><path fill="#4D82B8" d="M2240 640h5760c176 0 320 144 320 320v1920c0-176-144-320-320-320h-320V1280H4480c0-176-144-320-320-320h-640c-176 0-320 144-320 320h-640v1280c-176 0-320 144-320 320v2560h-320V960c0-176 144-320 320-320z"/></svg>