<svg xmlns="http://www.w3.org/2000/svg" width="1024" height="1024" shape-rendering="geometricPrecision" text-rendering="geometricPrecision" image-rendering="optimizeQuality" clip-rule="evenodd" viewBox="0 0 10240 10240"><title>cigarette icon</title><desc>cigarette icon from the IconExperience.com O-Collection. Copyright by INCORS GmbH (www.incors.com).</desc><path fill="gray" d="M3200 6080h5760c353 0 640 501 640 1120s-287 1120-640 1120H3193c65-101 121-208 168-320h2847l7-12c17 8 36 12 54 12h1c177 0 320-358 320-800s-143-800-320-800h-1c-18 0-37 4-54 12l-7-12H3361c-47-112-103-219-168-320h7zM3200 1920c-820-390-1280 0-1280 320 0 640 960 802 960 1600 0 1280-1600 960-960 1920-1434-907 0-1280 0-1710 0-640-1280-680-1280-1640 0-986 1377-1678 2560-490z"/><path fill="#ED9A56" d="M640 7228v-28-28c9-583 292-1052 640-1052 353 0 640 484 640 1080s-287 1080-640 1080c-348 0-631-469-640-1052zm1243-1148h677c353 0 640 501 640 1120s-287 1120-640 1120h-677c218-264 357-668 357-1120s-139-856-357-1120z"/></svg>