<svg xmlns="http://www.w3.org/2000/svg" width="1024" height="1024" shape-rendering="geometricPrecision" text-rendering="geometricPrecision" image-rendering="optimizeQuality" clip-rule="evenodd" viewBox="0 0 10240 10240"><title>cigarette_packet_empty icon</title><desc>cigarette_packet_empty icon from the IconExperience.com O-Collection. Copyright by INCORS GmbH (www.incors.com).</desc><path fill="#4D82B8" d="M1920 3520h518c380 0 705 200 860 528l256 544c154 328 480 528 860 528h1412c380 0 706-200 860-528l256-544c155-328 480-528 860-528h518v5760c0 176-144 320-320 320H2240c-176 0-320-144-320-320V3520zm1280 2240v2560h3840V5760H3200z"/><path fill="gray" d="M6943 3520H3297c119 107 218 238 290 392l256 544c106 225 326 344 571 344h1412c245 0 465-119 571-344l256-544c72-154 171-285 290-392z"/><path fill="#4D82B8" d="M2240 640h5760c176 0 320 144 320 320v2240h-518c-41 0-82 2-122 5V1280H2560v1925c-40-3-81-5-122-5h-518V960c0-176 144-320 320-320z"/></svg>