<svg xmlns="http://www.w3.org/2000/svg" width="1024" height="1024" shape-rendering="geometricPrecision" text-rendering="geometricPrecision" image-rendering="optimizeQuality" clip-rule="evenodd" viewBox="0 0 10240 10240"><title>clapperboard icon</title><desc>clapperboard icon from the IconExperience.com O-Collection. Copyright by INCORS GmbH (www.incors.com).</desc><path fill="gray" d="M1280 5120h7680v3840c0 353-287 640-640 640H1920c-353 0-640-287-640-640V5120zm968-1272l-1 2h-569l-3-17 437-121 136 136zm-1288 2v-574l7-1 156 567-6 8H960zm960 2550v320h6400v-320H1920zm0 1600v320h6400v-320H1920z"/><path fill="gray" d="M960 3840h152l-214-779c-47-170 54-346 224-393L8527 631c170-47 346 54 393 223l255 926-309 85-174-634-365-214-1266 349 1155 678-1201 330-1156-678-1267 349 1156 678-1201 330-1156-678-1267 349 1156 678-1594 438h1480l-935 960h1315l934-960h1246l-935 960h1314l935-960h1246l-935 960h1314l295-303v-657h320v960c0 176-144 320-320 320H1280c-176 0-320-144-320-320v-960zm555-949c-170 47-270 223-224 394 47 170 223 270 394 224 170-47 270-223 224-394-47-170-223-270-394-224zm85 1269c-177 0-320 143-320 320s143 320 320 320 320-143 320-320-143-320-320-320z"/></svg>