<svg xmlns="http://www.w3.org/2000/svg" width="1024" height="1024" shape-rendering="geometricPrecision" text-rendering="geometricPrecision" image-rendering="optimizeQuality" clip-rule="evenodd" viewBox="0 0 10240 10240"><title>clapperboard_closed icon</title><desc>clapperboard_closed icon from the IconExperience.com O-Collection. Copyright by INCORS GmbH (www.incors.com).</desc><path fill="gray" d="M1280 5110h7680v3850c0 353-287 640-640 640H1920c-353 0-640-287-640-640V5110zm640 2890v320h6400v-320H1920zm0-1600v320h6400v-320H1920z"/><path fill="gray" d="M1280 2560h7680c176 0 320 144 320 320v1920c0 176-144 320-320 320H1280c-176 0-320-144-320-320V2880c0-176 144-320 320-320zm320 1600c-177 0-320 143-320 320s143 320 320 320 320-143 320-320-143-320-320-320zm0-1280c-177 0-320 143-320 320s143 320 320 320 320-143 320-320-143-320-320-320zm1946 0H2231l935 960-935 960h1315l934-960-934-960zm5414 302l-295-302H7351l935 960-935 960h1314l295-303V3182zm-1920 658l-935-960H4791l935 960-935 960h1314l935-960z"/></svg>