<svg xmlns="http://www.w3.org/2000/svg" width="1024" height="1024" shape-rendering="geometricPrecision" text-rendering="geometricPrecision" image-rendering="optimizeQuality" clip-rule="evenodd" viewBox="0 0 10240 10240"><title>clients icon</title><desc>clients icon from the IconExperience.com O-Collection. Copyright by INCORS GmbH (www.incors.com).</desc><path fill="#4D82B8" d="M3520 4800c176 0 320-144 320-320H2560c-352 0-640-287-640-640V1280c0-352 288-640 640-640h3840c353 0 640 288 640 640v1600h-640V1280H2560v2560h1600v960h-640z"/><path fill="#4D82B8" d="M6080 7360c176 0 320-144 320-320h-320v-640h2880V3840H5120v960h-640v-960c0-352 288-640 640-640h3840c353 0 640 288 640 640v2560c0 352-288 640-640 640H7680c0 176 144 320 320 320h160c88 0 160 72 160 160v160H6080v-320z"/><path fill="#4D82B8" d="M2080 9280h160c176 0 320-144 320-320H1280c-352 0-640-288-640-640V5760c0-353 288-640 640-640h3840c353 0 640 288 640 640v2560c0 352-288 640-640 640H3840c0 176 144 320 320 320h160c88 0 160 72 160 160v160H1920v-160c0-88 72-160 160-160zm-800-3520v2560h3840V5760H1280z"/></svg>