<svg xmlns="http://www.w3.org/2000/svg" width="1024" height="1024" shape-rendering="geometricPrecision" text-rendering="geometricPrecision" image-rendering="optimizeQuality" clip-rule="evenodd" viewBox="0 0 10240 10240"><title>clipboard icon</title><desc>clipboard icon from the IconExperience.com O-Collection. Copyright by INCORS GmbH (www.incors.com).</desc><path fill="#EDC87E" d="M2560 1920v6400h5120V1920c353 0 640 288 640 640v6400c0 352-288 640-640 640H2560c-352 0-640-287-640-640V2560c0-353 288-640 640-640zm3839 0v320l-2559-1v-319h2559z"/><path fill="gray" d="M3840 1600c-175 0-320 145-320 320v320c0 175 145 320 320 320h2560c175 0 320-145 320-320v-320c0-176-145-320-320-320H3840zm2560-640c529 0 960 431 960 960v320c0 529-431 640-960 640H3840c-529 0-960-111-960-640v-320c0-529 431-960 960-960 0-177 573-640 1280-640s1280 463 1280 640zM5120 640c-177 0-320 143-320 320s143 320 320 320 320-143 320-320-143-320-320-320z"/></svg>