<svg xmlns="http://www.w3.org/2000/svg" width="1024" height="1024" shape-rendering="geometricPrecision" text-rendering="geometricPrecision" image-rendering="optimizeQuality" clip-rule="evenodd" viewBox="0 0 10240 10240"><title>clipboard_check_edit icon</title><desc>clipboard_check_edit icon from the IconExperience.com O-Collection. Copyright by INCORS GmbH (www.incors.com).</desc><path fill="#4D82B8" d="M5964 7963l-756 252c-88 30-179 8-245-58s-88-157-58-245l252-756 807 807z"/><path fill="#4D82B8" d="M5447 6393l2233-2233 1280 1280-2233 2233c-37 37-76 61-126 78l-648 216-253-253 800-267-827-827-267 800-253-253 216-648c17-50 41-89 78-126zM7906 3934l461-461c124-124 328-124 452 0l828 828c124 124 124 328 0 452l-461 461-1280-1280zM3633 4687l414-414c62-62 164-62 226 0l527 527 1487-1487c62-62 164-62 226 0l414 414c62 62 62 164 0 226L4913 5967c-62 62-164 62-226 0L3633 4913c-62-62-62-164 0-226z"/><path fill="#EDC87E" d="M2560 1920v7040h5120V7173l640-640v2427c0 352-288 640-640 640H2560c-352 0-640-287-640-640V2560c0-353 288-640 640-640zm5120 1787V1920c353 0 640 288 640 640v561c-65 30-126 72-179 126l-461 460zM3840 1920h2560v320H3840v-320z"/><path fill="gray" d="M3840 1600c-175 0-320 145-320 320v320c0 175 145 320 320 320h2560c175 0 320-145 320-320v-320c0-176-145-320-320-320H3840zm2560-640c529 0 960 431 960 960v320c0 529-431 640-960 640H3840c-529 0-960-111-960-640v-320c0-529 431-960 960-960 0-177 573-640 1280-640s1280 463 1280 640zM5120 640c-177 0-320 143-320 320s143 320 320 320 320-143 320-320-143-320-320-320z"/></svg>