<svg xmlns="http://www.w3.org/2000/svg" width="1024" height="1024" shape-rendering="geometricPrecision" text-rendering="geometricPrecision" image-rendering="optimizeQuality" clip-rule="evenodd" viewBox="0 0 10240 10240"><title>clock icon</title><desc>clock icon from the IconExperience.com O-Collection. Copyright by INCORS GmbH (www.incors.com).</desc><path fill="#4D82B8" d="M3803 2203l1317 2277c116 0 226 31 320 85l1718-994c129 170 238 355 321 554l-1719 995c0 353-287 640-640 640s-640-287-640-640c0-116 31-226 85-320L3249 2524c172-125 358-233 554-321z"/><path fill="gray" d="M5120 640c2474 0 4480 2006 4480 4480S7594 9600 5120 9600 640 7594 640 5120 2646 640 5120 640zm0 960c-1944 0-3520 1576-3520 3520s1576 3520 3520 3520 3520-1576 3520-3520-1576-3520-3520-3520z"/></svg>