<svg xmlns="http://www.w3.org/2000/svg" width="1024" height="1024" shape-rendering="geometricPrecision" text-rendering="geometricPrecision" image-rendering="optimizeQuality" clip-rule="evenodd" viewBox="0 0 10240 10240"><title>cloud_rain icon</title><desc>cloud_rain icon from the IconExperience.com O-Collection. Copyright by INCORS GmbH (www.incors.com).</desc><path fill="#4D82B8" d="M3200 8640c0 530-430 960-960 960s-960-430-960-960c0-292 177-610 372-757l1548-1163v1920zm2240-1280c0 530-430 960-960 960s-960-430-960-960c0-292 177-610 372-757l1548-1163v1920zm1920 1280c0 530-430 960-960 960s-960-430-960-960c0-292 177-610 372-757l1548-1163v1920z"/><path fill="gray" d="M1920 3039c0-1325 1075-2399 2400-2399 777 0 1492 375 1937 982 100-15 201-22 303-22 1149 0 2080 931 2080 2080v160c572 292 960 760 960 1440 0 972-788 1760-1760 1760h-160v-320c0-124-66-231-177-286-38-19-78-31-118-34h455c619 0 1120-501 1120-1120 0-593-460-1078-1043-1117 54-151 83-314 83-483 0-795-645-1440-1440-1440-218 0-425 49-610 135-262-642-893-1095-1630-1095-972 0-1760 788-1760 1760 0 168 23 330 67 483-752 48-1347 673-1347 1437 0 795 645 1440 1440 1440h452c-58 5-114 27-164 64l-709 533C1352 6802 640 5964 640 4960c0-861 525-1606 1280-1921zm4482 4001h-642v-640h1572c-58 5-114 27-164 64l-766 576zm-2766-640h-411c40 3 80 15 118 34 61 30 109 77 139 133 47-62 99-118 154-167z"/></svg>