<svg xmlns="http://www.w3.org/2000/svg" width="1024" height="1024" shape-rendering="geometricPrecision" text-rendering="geometricPrecision" image-rendering="optimizeQuality" clip-rule="evenodd" viewBox="0 0 10240 10240"><title>cloud_updown icon</title><desc>cloud_updown icon from the IconExperience.com O-Collection. Copyright by INCORS GmbH (www.incors.com).</desc><path fill="#4D82B8" d="M9733 6907L7906 5081c-124-124-328-124-452 0L5627 6907c-124 125-187 277-187 453v1159c0 142 172 214 273 113l1327-1327v2135c0 88 72 160 160 160h960c88 0 160-72 160-160V7305l1327 1327c101 101 273 29 273-113V7360c0-176-63-328-187-453zM4613 7813L2786 9639c-124 124-328 124-452 0L507 7813c-124-125-187-277-187-453V6201c0-142 172-214 273-113l1327 1327V5280c0-88 72-160 160-160h960c88 0 160 72 160 160v2135l1327-1327c101-101 273-29 273 113v1159c0 176-63 328-187 453z"/><path fill="gray" d="M1920 3039c0-1325 1075-2399 2400-2399 777 0 1492 375 1937 982 100-15 201-22 303-22 1149 0 2080 931 2080 2080v32c572 292 960 888 960 1568 0 301-76 585-209 833l-486-486c36-109 55-226 55-347 0-593-460-1078-1043-1117 54-151 83-314 83-483 0-795-645-1440-1440-1440-218 0-425 49-610 135-262-642-893-1095-1630-1095-972 0-1760 788-1760 1760 0 168 23 330 67 483-752 48-1347 673-1347 1437 0 343 120 658 320 905v777l-729-728c-147-286-231-610-231-954 0-861 525-1606 1280-1921zm1600 3361h243l-243 242v-242zm1600 0h562l-281 281c-105 105-181 226-228 359h-53v-640z"/></svg>