<svg xmlns="http://www.w3.org/2000/svg" width="1024" height="1024" shape-rendering="geometricPrecision" text-rendering="geometricPrecision" image-rendering="optimizeQuality" clip-rule="evenodd" viewBox="0 0 10240 10240"><title>cloud_sun icon</title><desc>cloud_sun icon from the IconExperience.com O-Collection. Copyright by INCORS GmbH (www.incors.com).</desc><path fill="gray" d="M1554 5742c1-1277 1037-2313 2315-2313 749 0 1438 361 1867 947 97-15 194-22 293-22 1107 0 2005 898 2005 2006v31c552 282 926 856 926 1512 0 937-760 1697-1697 1697H2326c-1108 0-2006-898-2006-2006 0-829 506-1548 1234-1852zm5783 1083c52-145 80-302 80-465 0-767-622-1389-1388-1389-211 0-410 47-589 131-253-620-861-1056-1571-1056-938 0-1698 760-1698 1697 0 161 23 318 65 466-725 46-1299 648-1299 1385 0 767 622 1389 1389 1389h4937c596 0 1080-484 1080-1080 0-572-444-1039-1006-1078z"/><path fill="#EDC87E" d="M6720 2240c884 0 1600 716 1600 1600 0 429-169 819-445 1107-130-170-283-322-455-450 161-172 260-403 260-657 0-530-430-960-960-960s-960 430-960 960c0 24 1 48 3 72-177-183-377-337-595-461 173-696 802-1211 1552-1211zM9054 5557l-554-320c-153-88-206-284-117-437 88-153 284-205 437-117l554 320c153 88 206 284 117 437-88 153-284 205-437 117zM7040 960v640c0 177-143 320-320 320s-320-143-320-320V960c0-177 143-320 320-320s320 143 320 320zm-1483 226l320 554c88 153 36 349-117 437-153 89-349 36-437-117l-320-554c-89-153-36-349 117-437 153-89 349-36 437 117zm-1171 937l554 320c153 88 206 284 117 437-88 153-284 205-437 117l-554-320c-153-88-206-284-117-437 88-153 284-205 437-117zm4051-617l-320 554c-88 153-284 206-437 117-153-88-205-284-117-437l320-554c88-153 284-206 437-117 153 88 205 284 117 437zm937 1171l-554 320c-153 88-349 36-437-117-89-153-36-349 117-437l554-320c153-89 349-36 437 117 89 153 36 349-117 437zm226 1483h-640c-177 0-320-143-320-320s143-320 320-320h640c177 0 320 143 320 320s-143 320-320 320z"/></svg>