<svg xmlns="http://www.w3.org/2000/svg" width="1024" height="1024" shape-rendering="geometricPrecision" text-rendering="geometricPrecision" image-rendering="optimizeQuality" clip-rule="evenodd" viewBox="0 0 10240 10240"><title>clown icon</title><desc>clown icon from the IconExperience.com O-Collection. Copyright by INCORS GmbH (www.incors.com).</desc><path fill="#76A797" d="M8320 8470c0 810-1920 1130-3200 1130s-3200-320-3200-1129c0-1760 582-2029 1663-2835 445 281 972 444 1537 444s1092-163 1537-444c1082 807 1663 1074 1663 2834z"/><path fill="#EFC1B4" d="M5120 640c654 0 1251 246 1704 649-67 143-104 303-104 471 0 338 152 651 402 860-54 132-82 274-82 420 0 397 206 745 517 944-331 1030-1297 1776-2437 1776s-2106-746-2437-1776c311-199 517-547 517-944 0-146-28-288-82-420 250-209 402-522 402-860 0-168-37-328-104-471 453-403 1050-649 1704-649zm0 2240c-353 0-640 287-640 640s287 640 640 640 640-287 640-640-287-640-640-640zm-960-960v320h-320v320h320v320h320v-320h320v-320h-320v-320h-320zm1600 0v320h-320v320h320v320h320v-320h320v-320h-320v-320h-320z"/><path fill="#E68497" d="M2400 960c-387 0-710 275-784 640h-16c-353 0-640 287-640 640 0 250 144 467 353 572-21 72-33 149-33 228 0 442 358 800 800 800s800-358 800-800c0-203-76-389-201-530 304-113 521-406 521-750 0-442-358-800-800-800zm5440 0c387 0 710 275 784 640h16c353 0 640 287 640 640 0 250-144 467-353 572 21 72 33 149 33 228 0 442-358 800-800 800s-800-358-800-800c0-203 76-389 201-530-304-113-521-406-521-750 0-442 358-800 800-800z"/></svg>