<svg xmlns="http://www.w3.org/2000/svg" width="1024" height="1024" shape-rendering="geometricPrecision" text-rendering="geometricPrecision" image-rendering="optimizeQuality" clip-rule="evenodd" viewBox="0 0 10240 10240"><title>code_vbasic icon</title><desc>code_vbasic icon from the IconExperience.com O-Collection. Copyright by INCORS GmbH (www.incors.com).</desc><path fill="#4D82B8" d="M8640 6400c530 0 960 430 960 960 0 246-92 470-245 640 153 170 245 394 245 640 0 530-430 960-960 960H7200c-88 0-160-72-160-160V6560c0-88 72-160 160-160h1440zm-4160 0v978c0 156 30 290 100 430l540 1079 540-1079c70-140 100-274 100-430v-978h640v978c0 258-55 484-170 715l-651 1302c-47 120-163 205-299 205l-320-1c-117 0-229-65-285-177l-665-1329c-115-231-170-457-170-715v-978h640zm3200 1920v640h960c176 0 320-144 320-320s-144-320-320-320h-960zm0-1280v640h960c176 0 320-144 320-320s-144-320-320-320h-960z"/><path fill="gray" d="M2560 7680h983c30 192 90 375 181 556l42 84H2560v-640zm0-5760h1920v640H2560v-640zm1280 960h2560v640H3840v-640zm1280 960h2560v640H5120v-640zm0 960h1920v640H5120v-640zm-1280 960h1920v320c-176 0-320 144-320 320h-640c0-176-144-320-320-320h-640v-320zm960 960h640v640h-640v-640z"/><path fill="gray" d="M8960 640H1280v8960h3127c-6-11-12-23-18-34l-303-606H1920V1280h6400v4800h320c110 0 218 14 320 40V640zM5834 9600h913c-17-50-27-104-27-160v-480h-566l-284 567c-10 26-22 50-36 73z"/></svg>