<svg xmlns="http://www.w3.org/2000/svg" width="1024" height="1024" shape-rendering="geometricPrecision" text-rendering="geometricPrecision" image-rendering="optimizeQuality" clip-rule="evenodd" viewBox="0 0 10240 10240"><title>code_javascript icon</title><desc>code_javascript icon from the IconExperience.com O-Collection. Copyright by INCORS GmbH (www.incors.com).</desc><path fill="#4D82B8" d="M8917 7200c-57-98-163-160-277-160h-640c-176 0-320 144-320 320s144 320 320 320h640c529 0 960 431 960 960s-431 960-960 960h-640c-468 0-869-340-947-800h670c58 98 163 160 277 160h640c176 0 320-144 320-320s-144-320-320-320h-640c-529 0-960-431-960-960s431-960 960-960h640c468 0 869 340 947 800h-670zM5760 8320c0 353-287 640-640 640s-640-287-640-640h-640c0 707 573 1280 1280 1280s1280-573 1280-1280V6400h-640v1920z"/><path fill="gray" d="M2560 7680h1920v320h-640c-176 0-320 144-320 320h-960v-640zm0-5760h1920v640H2560v-640zm1280 960h2560v640H3840v-640zm1280 960h2560v640H5120v-640zm0 960h1920v640H5120v-640zm-1280 960h1920v320c-176 0-320 144-320 320H3840v-640zm0 960h1600v640H3840v-640zm2880 0h172c-112 193-172 413-172 640v-640z"/><path fill="gray" d="M8960 640H1280v8960h2880c-220-165-395-385-507-640H1920V1280h6400v4800h320c109 0 216 14 320 41V640zM6080 9600h1074c-20-18-40-36-59-55-162-162-277-364-334-585h-174c-112 255-287 475-507 640zm2240-2240h319-319z"/></svg>