<svg xmlns="http://www.w3.org/2000/svg" width="1024" height="1024" shape-rendering="geometricPrecision" text-rendering="geometricPrecision" image-rendering="optimizeQuality" clip-rule="evenodd" viewBox="0 0 10240 10240"><title>code_c icon</title><desc>code_c icon from the IconExperience.com O-Collection. Copyright by INCORS GmbH (www.incors.com).</desc><path fill="#4D82B8" d="M7680 6400h1280c353 0 640 287 640 640v160h-640c0-88-72-160-160-160h-960c-88 0-160 72-160 160v1600c0 88 72 160 160 160h960c88 0 160-72 160-160h640v160c0 352-287 640-640 640H7680c-352 0-640-288-640-640V7040c0-353 288-640 640-640z"/><path fill="gray" d="M2560 7680h1920v640H2560v-640zm0-5760h1920v640H2560v-640zm1280 960h2560v640H3840v-640zm1280 960h2560v640H5120v-640zm0 960h1920v640H5120v-640zm-1280 960h1920v640H3840v-640zm0 960h2560v640H3840v-640z"/><path fill="gray" d="M8960 640H1280v8960h5685c-152-170-245-394-245-640H1920V1280h6400v4800h640V640z"/></svg>