<svg xmlns="http://www.w3.org/2000/svg" width="1024" height="1024" shape-rendering="geometricPrecision" text-rendering="geometricPrecision" image-rendering="optimizeQuality" clip-rule="evenodd" viewBox="0 0 10240 10240"><title>code_beanshell icon</title><desc>code_beanshell icon from the IconExperience.com O-Collection. Copyright by INCORS GmbH (www.incors.com).</desc><path fill="#B89A7C" d="M6091 6091c759-758 1570-957 2272-664 56 23 92 72 98 132s-20 115-71 148c-169 113-324 240-466 382-335 335-590 749-764 1241-141 399-346 733-614 1001-195 195-425 357-690 484-69 34-151 14-198-48-581-782-476-1767 433-2676zm3140 29c591 784 488 1774-425 2686-761 762-1577 959-2281 661-56-24-91-73-97-133-5-61 22-115 73-148 181-118 347-252 498-403 335-335 590-749 764-1241 141-399 346-733 614-1001 187-186 405-342 655-467 70-35 152-16 199 46z"/><path fill="gray" d="M2560 7680h1920v640H2560v-640zm0-5760h1920v640H2560v-640zm1280 960h2560v640H3840v-640zm1280 960h2560v640H5120v-640zm0 960h1920v295c-234 81-458 199-669 345H5120v-640zm-1280 960h1920v214c-126 136-239 278-339 426H3840v-640zm0 960h1393c-104 207-180 422-221 640H3840v-640z"/><path fill="gray" d="M8960 640H1280v8960h4917c-49-68-80-150-87-238-14-155 46-302 160-402h-11c-85 52-173 100-263 144-207 100-455 39-593-144H1920V1280h6400v3790c55 18 111 38 167 61 164 69 275 219 292 397 17 173-58 337-198 437 98-65 201-124 308-178 23-11 47-21 71-28V640zm-659 8960h659v-497c-202 193-424 363-659 497z"/></svg>