<svg xmlns="http://www.w3.org/2000/svg" width="1024" height="1024" shape-rendering="geometricPrecision" text-rendering="geometricPrecision" image-rendering="optimizeQuality" clip-rule="evenodd" viewBox="0 0 10240 10240"><title>coffin icon</title><desc>coffin icon from the IconExperience.com O-Collection. Copyright by INCORS GmbH (www.incors.com).</desc><path fill="#B89A7C" d="M1987 3092L3426 790c60-96 158-150 271-150h2846c113 0 211 54 271 150l1439 2302c45 72 59 149 42 233L7091 9343c-30 151-159 257-313 257H3462c-154 0-283-106-313-257L1945 3325c-17-84-3-161 42-233zm1533 108v640h1280v3520h640V3840h1280v-640H5440V1920h-640v1280H3520z"/></svg>