<svg xmlns="http://www.w3.org/2000/svg" width="1024" height="1024" shape-rendering="geometricPrecision" text-rendering="geometricPrecision" image-rendering="optimizeQuality" clip-rule="evenodd" viewBox="0 0 10240 10240"><title>compasses icon</title><desc>compasses icon from the IconExperience.com O-Collection. Copyright by INCORS GmbH (www.incors.com).</desc><path fill="gray" d="M1920 6400h2880l17-640h606l17 640h2880v640H5440v640h-640v-640H1920z"/><path fill="gray" d="M2113 8927c-249-250-416-565-242-872l2108-3733c225 229 519 390 848 451L1920 9920l193-993zm6014 0c249-250 416-565 242-872L6261 4321c-225 230-519 391-848 452l2907 5147-193-993zM4800 640h640v1320c552 142 960 644 960 1240 0 707-573 1280-1280 1280s-1280-573-1280-1280c0-596 408-1098 960-1240V640zm320 1920c-353 0-640 287-640 640s287 640 640 640 640-287 640-640-287-640-640-640z"/></svg>