<svg xmlns="http://www.w3.org/2000/svg" width="1024" height="1024" shape-rendering="geometricPrecision" text-rendering="geometricPrecision" image-rendering="optimizeQuality" clip-rule="evenodd" viewBox="0 0 10240 10240"><title>compass icon</title><desc>compass icon from the IconExperience.com O-Collection. Copyright by INCORS GmbH (www.incors.com).</desc><path fill="gray" d="M5120 1600l-533 1465 316 147c71-8 144-12 217-12 217 0 425 36 619 102l-619-1702zM3072 4585l-1472 535 1702 619c-66-194-102-402-102-619 0-78 5-156 14-231l-142-304zm1429 2353l619 1702 533-1465-316-147c-71 8-144 12-217 12-217 0-425-36-619-102zm2667-1283l1472-535-1702-619c66 194 102 402 102 619 0 78-5 156-14 231l142 304z"/><path fill="#4D82B8" d="M4040 5897L2601 2826c-31-66-18-141 33-192 52-52 126-65 192-34l3046 1415c150 70 258 178 329 328l1438 3071c31 66 18 141-33 192-52 52-126 65-192 34L4368 6225c-150-70-258-178-328-328zm1080-1417c-353 0-640 287-640 640s287 640 640 640 640-287 640-640-287-640-640-640z"/><path fill="gray" d="M5120 640c2474 0 4480 2006 4480 4480S7594 9600 5120 9600 640 7594 640 5120 2646 640 5120 640zm0 640c-2121 0-3840 1719-3840 3840s1719 3840 3840 3840 3840-1719 3840-3840-1719-3840-3840-3840z"/></svg>