<svg xmlns="http://www.w3.org/2000/svg" width="1024" height="1024" shape-rendering="geometricPrecision" text-rendering="geometricPrecision" image-rendering="optimizeQuality" clip-rule="evenodd" viewBox="0 0 10240 10240"><title>construction_barrier icon</title><desc>construction_barrier icon from the IconExperience.com O-Collection. Copyright by INCORS GmbH (www.incors.com).</desc><path fill="gray" d="M2880 8960c176 0 320 144 320 320v320H1600v-320c0-176 144-320 320-320V6720h960v640h4480v-640h960v2240c176 0 320 144 320 320v320H7040v-320c0-176 144-320 320-320v-640H2880v640z"/><path fill="#EDC87E" d="M1600 4480h7040c176 0 320 144 320 320v1280c0 176-144 320-320 320H1600c-176 0-320-144-320-320V4800c0-176 144-320 320-320zm0-2240l640 1280h1280l-640-1280H1600zm0 2560l640 1280h1280l-640-1280H1600zm5120 0l640 1280h1280l-640-1280H6720zm-2560 0l640 1280h1280l-640-1280H4160zm2560-2560l640 1280h1280l-640-1280H6720zm-2560 0l640 1280h1280l-640-1280H4160zm-2560-320h7040c176 0 320 144 320 320v1280c0 176-144 320-320 320H1600c-176 0-320-144-320-320V2240c0-176 144-320 320-320z"/></svg>