<svg xmlns="http://www.w3.org/2000/svg" width="1024" height="1024" shape-rendering="geometricPrecision" text-rendering="geometricPrecision" image-rendering="optimizeQuality" clip-rule="evenodd" viewBox="0 0 10240 10240"><title>console_network icon</title><desc>console_network icon from the IconExperience.com O-Collection. Copyright by INCORS GmbH (www.incors.com).</desc><path fill="#4D82B8" d="M5440 8640c176 0 320 144 320 320h1280v640H5760c0 176-144 320-320 320h-640c-176 0-320-144-320-320H3200v-640h1280c0-176 144-320 320-320v-640h640v640zM9600 7360c0 176-144 320-320 320H960c-176 0-320-144-320-320V1280c0-353 288-640 640-640h7680c353 0 640 288 640 640v6080zM1280 2560v4480h7680V2560H1280z"/><path fill="gray" d="M4480 5120h1920v640H4480zM2560 2880h640v320h640v640H2720c-88 0-160 72-160 160s72 160 160 160h320c442 0 800 358 800 800 0 387-275 710-640 784v336h-640v-320h-640v-640h1120c88 0 160-72 160-160s-72-160-160-160h-320c-442 0-800-358-800-800 0-387 275-710 640-784v-336z"/></svg>