<svg xmlns="http://www.w3.org/2000/svg" width="1024" height="1024" shape-rendering="geometricPrecision" text-rendering="geometricPrecision" image-rendering="optimizeQuality" clip-rule="evenodd" viewBox="0 0 10240 10240"><title>control_panel icon</title><desc>control_panel icon from the IconExperience.com O-Collection. Copyright by INCORS GmbH (www.incors.com).</desc><path fill="#4D82B8" d="M7680 6400c353 0 640 287 640 640s-287 640-640 640-640-287-640-640 287-640 640-640zM5120 6400c353 0 640 287 640 640s-287 640-640 640-640-287-640-640 287-640 640-640zM2560 6400c-353 0-640 287-640 640s287 640 640 640 640-287 640-640-287-640-640-640zM8519 3103l-847 489c5 29 8 58 8 88 0 265-215 480-480 480s-480-215-480-480 215-480 480-480c119 0 228 43 312 115l847-489c32 42 61 87 88 134s51 95 72 143zM2463 2361l489 847c29-5 58-8 88-8 265 0 480 215 480 480s-215 480-480 480-480-215-480-480c0-119 43-228 115-312l-489-847c42-32 87-61 134-88s95-51 143-72z"/><path fill="gray" d="M960 1280h8320s320 149 320 320v7040c0 177-143 320-320 320H960c-177 0-320-143-320-320V1600c0-177 143-320 320-320zm6240 640c-972 0-1760 788-1760 1760s788 1760 1760 1760 1760-788 1760-1760-788-1760-1760-1760zm-4160 0c-972 0-1760 788-1760 1760s788 1760 1760 1760 1760-788 1760-1760-788-1760-1760-1760zm4640 4160c-530 0-960 430-960 960s430 960 960 960 960-430 960-960-430-960-960-960zm-2560 0c-530 0-960 430-960 960s430 960 960 960 960-430 960-960-430-960-960-960zm-2560 0c-530 0-960 430-960 960s430 960 960 960 960-430 960-960-430-960-960-960z"/></svg>