<svg xmlns="http://www.w3.org/2000/svg" width="1024" height="1024" shape-rendering="geometricPrecision" text-rendering="geometricPrecision" image-rendering="optimizeQuality" clip-rule="evenodd" viewBox="0 0 10240 10240"><title>control_tower icon</title><desc>control_tower icon from the IconExperience.com O-Collection. Copyright by INCORS GmbH (www.incors.com).</desc><path fill="gray" d="M6720 8960c0 353-716 640-1600 640s-1600-287-1600-640V6630c587 85 1184 90 1600 90 401 0 1003-9 1600-100v2340z"/><path fill="#4D82B8" d="M8320 5440c-173 477-822 760-1814 884l204-1291c610-67 1354-185 1918-441l-308 848zm-1558-735l206-1308c999-139 1828-388 2350-701l-531 1459c-426 315-1489 487-2025 550zm-584 1654c-324 27-677 41-1058 41-265 0-647-2-1057-34l-205-1302c833 70 1691 70 2524 0l-204 1295zM3806 4739l-205-1301c477 53 988 82 1519 82s1042-29 1519-82l-205 1301c-865 78-1763 78-2628 0zm-70 1595c-798-94-1610-326-1816-894l-308-848c564 256 1308 374 1918 441l206 1301zM1453 4155L922 2696c523 313 1351 562 2350 701l206 1308c-536-63-1599-235-2025-550z"/><path fill="gray" d="M5120 640c1237 0 2240 267 2240 596s-1003 596-2240 596-2240-267-2240-596 1003-596 2240-596zm2278 178c1318 223 2202 633 2202 1102 0 707-2006 1280-4480 1280S640 2627 640 1920c0-469 884-879 2202-1102-180 125-282 267-282 418 0 506 1146 916 2560 916s2560-410 2560-916c0-151-102-293-282-418z"/></svg>