<svg xmlns="http://www.w3.org/2000/svg" width="1024" height="1024" shape-rendering="geometricPrecision" text-rendering="geometricPrecision" image-rendering="optimizeQuality" clip-rule="evenodd" viewBox="0 0 10240 10240"><title>control_panel2 icon</title><desc>control_panel2 icon from the IconExperience.com O-Collection. Copyright by INCORS GmbH (www.incors.com).</desc><path fill="#4D82B8" d="M5120 5440c-340 0-656 106-915 288l904 860-441 463-905-860c-154 246-243 537-243 849 0 884 716 1600 1600 1600s1600-716 1600-1600-716-1600-1600-1600z"/><path fill="gray" d="M2240 640h5760s320 149 320 320v8320c0 177-143 320-320 320H2240c-177 0-320-143-320-320V960c0-177 143-320 320-320zm320 640v3200h5120V1280H2560zm2560 3840c-1060 0-1920 860-1920 1920s860 1920 1920 1920 1920-860 1920-1920-860-1920-1920-1920z"/></svg>