<svg xmlns="http://www.w3.org/2000/svg" width="1024" height="1024" shape-rendering="geometricPrecision" text-rendering="geometricPrecision" image-rendering="optimizeQuality" clip-rule="evenodd" viewBox="0 0 10240 10240"><title>cookies icon</title><desc>cookies icon from the IconExperience.com O-Collection. Copyright by INCORS GmbH (www.incors.com).</desc><path fill="#EDC87E" d="M3520 5120c229 0 452 18 666 52-51 350-21 715 65 1059 177 704 585 1353 1095 1864 89 88 182 174 278 256-525 375-1274 609-2104 609-1591 0-2880-860-2880-1920s1289-1920 2880-1920zM1760 6400c-265 0-480 143-480 320s215 320 480 320 480-143 480-320-215-320-480-320zm1600-960c-265 0-480 143-480 320s215 320 480 320 480-143 480-320-215-320-480-320zm-320 1920c-265 0-480 143-480 320s215 320 480 320 480-143 480-320-215-320-480-320zm960-640c-265 0-480 143-480 320s215 320 480 320 480-143 480-320-215-320-480-320z"/><path fill="#EDC87E" d="M8508 4932c1159 1159 1440 2755 629 3565-810 811-2406 530-3564-629-1159-1158-1440-2754-630-3565 811-810 2407-529 3565 629zm-1011 795c-195-204-463-265-599-135s-89 400 106 604c194 205 462 265 598 136 136-130 89-400-105-605zm1179 236c-194-204-462-264-598-135-136 130-89 400 105 605 195 204 463 265 599 135s89-400-106-605zm101 1364c-195-204-463-265-599-135s-89 400 106 604c194 205 462 265 598 136 136-130 89-400-105-605zm-1701-320c-194-204-462-265-598-135s-89 400 105 604c195 205 463 265 599 136 136-130 89-400-106-605zM5796 5727c-194-204-462-265-598-135s-89 400 105 604c195 205 463 265 599 136 136-130 89-400-106-605zm960-1280c-194-204-462-265-598-135s-89 400 105 604c195 205 463 265 599 136 136-130 89-400-106-605z"/></svg>