<svg xmlns="http://www.w3.org/2000/svg" width="1024" height="1024" shape-rendering="geometricPrecision" text-rendering="geometricPrecision" image-rendering="optimizeQuality" clip-rule="evenodd" viewBox="0 0 10240 10240"><title>correction_fluid icon</title><desc>correction_fluid icon from the IconExperience.com O-Collection. Copyright by INCORS GmbH (www.incors.com).</desc><path fill="gray" d="M3520 3200h1280c176 0 320 144 320 320v960h640c353 0 640 288 640 640v3840c0 352-288 640-640 640H2560c-352 0-640-287-640-640V5120c0-353 288-640 640-640h640v-960c0-176 144-320 320-320zm-640 2560v1600h2560V5760H2880zM7360 7040h640l243 1217c20 98-3 189-66 266s-148 117-247 117h-500c-99 0-184-40-247-117s-86-168-66-266l243-1217zM8960 1280v2560c0 176-144 320-320 320h-640v2560h-640V4160h-640c-176 0-320-144-320-320V1280c0-353 288-640 640-640h1280c353 0 640 287 640 640z"/></svg>