<svg xmlns="http://www.w3.org/2000/svg" width="1024" height="1024" shape-rendering="geometricPrecision" text-rendering="geometricPrecision" image-rendering="optimizeQuality" clip-rule="evenodd" viewBox="0 0 10240 10240"><title>courthouse icon</title><desc>courthouse icon from the IconExperience.com O-Collection. Copyright by INCORS GmbH (www.incors.com).</desc><path fill="gray" d="M640 8960h640v-640h7680v640h640v640H640z"/><path fill="#4D82B8" d="M4480 7200c0 88 72 160 160 160h960c88 0 160-72 160-160s-72-160-160-160h-800c-529 0-960-431-960-960 0-222 76-426 202-589-130-147-202-334-202-531 0-441 359-800 800-800h960c441 0 800 359 800 800h-640c0-88-72-160-160-160h-960c-88 0-160 72-160 160s72 160 160 160h800c529 0 960 431 960 960 0 222-76 426-202 589 130 147 202 334 202 531 0 441-359 800-800 800h-960c-441 0-800-359-800-800h640zm320-1440c-176 0-320 144-320 320s144 320 320 320h640c176 0 320-144 320-320s-144-320-320-320h-640z"/><path fill="gray" d="M3200 4320v160c0 177-143 320-320 320 320 960 320 2560 320 3200H1600c0-640 0-2240 320-3200-177 0-320-143-320-320v-160c0-88 72-160 160-160h1280c88 0 160 72 160 160zm5440 0v160c0 177-143 320-320 320 320 960 320 2560 320 3200H7040c0-640 0-2240 320-3200-177 0-320-143-320-320v-160c0-88 72-160 160-160h1280c88 0 160 72 160 160zM5120 640l4800 2240-320 640h-640v320H1280v-320H640l-320-640z"/></svg>