<svg xmlns="http://www.w3.org/2000/svg" width="1024" height="1024" shape-rendering="geometricPrecision" text-rendering="geometricPrecision" image-rendering="optimizeQuality" clip-rule="evenodd" viewBox="0 0 10240 10240"><title>cpu2 icon</title><desc>cpu2 icon from the IconExperience.com O-Collection. Copyright by INCORS GmbH (www.incors.com).</desc><path fill="gray" d="M3520 3200h3200c176 0 320 144 320 320v3200c0 176-144 320-320 320h-507c-89 0-164-31-227-94l-132-132c-63-63-138-94-227-94H4613c-89 0-164 31-227 94l-132 132c-63 63-138 94-227 94h-507c-176 0-320-144-320-320V3520c0-176 144-320 320-320zM960 6400h960v640H960c-176 0-320-144-320-320s144-320 320-320zm5440 2880v-960h640v960c0 176-144 320-320 320s-320-144-320-320zm-3201 0v-960h640v960c0 176-143 320-320 320-176 0-320-144-320-320zm1601 0v-960h640v960c0 176-144 320-320 320s-320-144-320-320zm3520-2880h960c176 0 320 144 320 320s-144 320-320 320h-960v-640zm0-3201h960c176 0 320 144 320 320 0 177-144 320-320 320h-960v-640zm0 1601h960c176 0 320 144 320 320s-144 320-320 320h-960v-640zM6401 1920V960c0-176 143-320 320-320 176 0 320 144 320 320v960h-640zm-3201 0V960c0-176 144-320 320-320s320 144 320 320v960h-640zm1601 0V960c0-176 143-320 320-320 176 0 320 144 320 320v960h-640zM960 3199h960v640H960c-176 0-320-143-320-320 0-176 144-320 320-320zm0 1601h960v640H960c-176 0-320-144-320-320s144-320 320-320z"/><path fill="#76A797" d="M1600 1280h1280v640c0 176 144 320 320 320h640c176 0 320-144 320-320v-640h321v640c0 176 143 320 320 320h640c176 0 320-144 320-320v-640h320v640c0 176 143 320 320 320h640c176 0 320-144 320-320v-640h1279c176 0 320 144 320 320v1279h-640c-176 0-320 144-320 320v640c0 177 144 320 320 320h640v321h-640c-176 0-320 144-320 320v640c0 176 144 320 320 320h640v320h-640c-176 0-320 144-320 320v640c0 176 144 320 320 320h640v1280c0 176-144 320-320 320H7360v-640c0-176-144-320-320-320h-640c-176 0-320 144-320 320v640h-320v-640c0-176-144-320-320-320h-640c-176 0-320 144-320 320v640h-321v-640c0-176-143-320-320-320h-640c-176 0-320 144-320 320v640H1600c-176 0-320-144-320-320V7360h640c176 0 320-144 320-320v-640c0-176-144-320-320-320h-640v-320h640c176 0 320-144 320-320v-640c0-176-144-320-320-320h-640v-321h640c176 0 320-143 320-320v-640c0-176-144-320-320-320h-640V1600c0-176 144-320 320-320zm1920 1600c-353 0-640 287-640 640v3200c0 353 287 640 640 640h3200c353 0 640-287 640-640V3520c0-353-287-640-640-640H3520z"/></svg>