<svg xmlns="http://www.w3.org/2000/svg" width="1024" height="1024" shape-rendering="geometricPrecision" text-rendering="geometricPrecision" image-rendering="optimizeQuality" clip-rule="evenodd" viewBox="0 0 10240 10240"><title>credit_card2 icon</title><desc>credit_card2 icon from the IconExperience.com O-Collection. Copyright by INCORS GmbH (www.incors.com).</desc><path fill="#EDC87E" d="M6080 6716h2560v640H6080z"/><path fill="#4D82B8" d="M6080 5436h2560v640H6080z"/><path fill="#4D82B8" d="M1280 1920h7680c353 0 640 288 640 640v5120c0 352-288 640-640 640H1280c-352 0-640-288-640-640V2560c0-353 288-640 640-640zm4800 3196c-176 0-320 144-320 320v1920c0 176 144 320 320 320h2560c176 0 320-144 320-320V5436c0-176-144-320-320-320H6080zm1284-2556c-177 0-320 144-320 320v1280c0 176 143 320 320 320h1280c176 0 320-144 320-320V2880c0-176-144-320-320-320H7364z"/></svg>