<svg xmlns="http://www.w3.org/2000/svg" width="1024" height="1024" shape-rendering="geometricPrecision" text-rendering="geometricPrecision" image-rendering="optimizeQuality" clip-rule="evenodd" viewBox="0 0 10240 10240"><title>credit_card icon</title><desc>credit_card icon from the IconExperience.com O-Collection. Copyright by INCORS GmbH (www.incors.com).</desc><path fill="#EDC87E" d="M6400 5440c127 0 249 25 360 70-223 230-360 544-360 890s137 660 360 890c-111 45-233 70-360 70-530 0-960-430-960-960s430-960 960-960z"/><path fill="#E68497" d="M7680 5440c-530 0-960 430-960 960s430 960 960 960 960-430 960-960-430-960-960-960z"/><path fill="#EDC87E" d="M1280 1920h7680c353 0 640 288 640 640v5120c0 352-288 640-640 640H1280c-352 0-640-288-640-640V2560c0-353 288-640 640-640zm6080 640c-176 0-320 144-320 320v1280c0 176 144 320 320 320h1280c176 0 320-144 320-320V2880c0-176-144-320-320-320H7360zM5760 5120c-353 0-640 287-640 640v1280c0 353 287 640 640 640h2560c353 0 640-287 640-640V5760c0-353-287-640-640-640H5760z"/></svg>