<svg xmlns="http://www.w3.org/2000/svg" width="1024" height="1024" shape-rendering="geometricPrecision" text-rendering="geometricPrecision" image-rendering="optimizeQuality" clip-rule="evenodd" viewBox="0 0 10240 10240"><title>crossbow icon</title><desc>crossbow icon from the IconExperience.com O-Collection. Copyright by INCORS GmbH (www.incors.com).</desc><path fill="#B89A7C" d="M1113 4121c-121 66-276 48-379-55-125-125-125-327 0-452 1016-1017 2378-1694 3746-1694h160v3610l-320-195V2564c-1063 47-2120 563-2959 1334l3660 2240c64 39 134 39 198 0l3660-2240c-802-737-1856-1285-2959-1334v2771l-320 195V1920h160c1409 0 2766 713 3746 1694 125 125 125 327 0 452-103 103-258 121-379 55L5385 6410c-167 102-363 102-530 0L1113 4121zm4812 2333l56 276c69 347 99 650 99 1004v1546c0 176-144 320-320 320H4480c-176 0-320-144-320-320V7734c0-354 30-657 99-1004l56-276 373 229c270 165 594 165 864 0l373-229z"/><path fill="#4D82B8" d="M5263 606l381 762c26 51 23 108-7 156-30 49-79 76-136 76h-221v4160c0 88-72 160-160 160s-160-72-160-160V1600h-221c-57 0-106-27-136-76-30-48-33-105-7-156l381-762c28-55 81-88 143-88s115 33 143 88z"/></svg>