<svg xmlns="http://www.w3.org/2000/svg" width="1024" height="1024" shape-rendering="geometricPrecision" text-rendering="geometricPrecision" image-rendering="optimizeQuality" clip-rule="evenodd" viewBox="0 0 10240 10240"><title>cubes icon</title><desc>cubes icon from the IconExperience.com O-Collection. Copyright by INCORS GmbH (www.incors.com).</desc><path fill="gray" d="M6863 4605l34-17c93-46 193-46 286 0l1600 800c111 56 177 162 177 286v1845c0 124-66 231-177 286l-1600 800c-93 47-193 47-286 0l-1600-800c-111-55-177-162-177-286-15 123-66 231-177 286l-1600 800c-93 47-193 47-286 0l-1600-800c-111-55-177-162-177-286V5674c0-124 66-230 177-286l1600-800c93-46 193-46 286 0l34 17c-106-66-177-162-177-286V2474c0-124 66-230 177-286l1600-800c93-46 193-46 286 0l1600 800c111 56 177 162 177 286v1845c0 124-73 219-177 286zM3520 2615v1704l1440 720V3335l-1440-720zm1600 444l1384-693-1384-692-1384 692 1384 693zM1600 5815v1704l1440 720V6535l-1440-720zm1600 444l1384-693-1384-692-1384 692 1384 693zm2240-444v1704l1440 720V6535l-1440-720zm1600 444l1384-693-1384-692-1384 692 1384 693z"/></svg>