<svg xmlns="http://www.w3.org/2000/svg" width="1024" height="1024" shape-rendering="geometricPrecision" text-rendering="geometricPrecision" image-rendering="optimizeQuality" clip-rule="evenodd" viewBox="0 0 10240 10240"><title>cube_molecule2 icon</title><desc>cube_molecule2 icon from the IconExperience.com O-Collection. Copyright by INCORS GmbH (www.incors.com).</desc><path fill="#4D82B8" d="M7297 2881l-2 3c-146 160-231 365-243 581l-1 4-1248-555-7 8-138-62c-165-73-241-268-168-433s268-241 433-167l153 67-1 11 1222 543zM4800 5695l3 1 5 2c5 1 10 3 14 4l5 2c6 2 12 4 19 6h1l4 1 1 1c5 1 9 2 14 4l5 1 5 1c4 1 9 3 13 4l10 2 11 3c5 1 9 2 14 3l9 2 13 2 11 2c5 1 10 2 14 2l8 2c5 0 11 1 16 2l7 1c6 1 13 1 19 2h4c7 1 14 2 21 2h2c7 1 15 1 23 2 8 0 16 0 24 1h50c8-1 16-1 24-1 8-1 16-1 23-2h2c7 0 14-1 20-2h6c6-1 12-2 18-2l7-1c5-1 11-2 16-2l8-2c4 0 9-1 14-2l12-2 10-2c5-1 9-2 14-3l9-2 15-3 2-1 5-1c6-2 12-3 18-5h3l18-6 4-1 39-12 5-2 3-1v2038l10 3v104c0 58-52 99-99 122-69 35-155 48-231 48s-162-13-231-48c-47-23-99-64-99-122v-101l10-3V5695zM1920 4415l3 1c102 36 209 54 317 54s215-18 317-54l3-1v2040l10 3v102c0 58-52 99-99 122-69 35-155 48-231 48s-162-13-231-48c-47-23-99-64-99-122v-102l10-3V4415zm5760 0l3 1c102 36 209 54 317 54s215-18 317-54l3-1v2037l10 4v104c0 58-52 99-99 122-69 35-155 48-231 48s-162-13-231-48c-47-23-99-64-99-122v-101l10-3V4415zM4431 7985l-2 3c-150 158-239 359-256 576v3l-1235-548-7 7-104-46c-165-73-240-268-167-433s268-241 433-167l105 46-1 11 1234 548zm2716-4445c165-74 360 2 433 167s-2 360-167 433l-104 46-7-7-1235 551c-16-225-110-428-256-582l1232-551-1-11 105-46zM6067 8567v-3c-17-216-107-418-256-576l-2-2 1234-549-1-11 105-46c165-74 360 2 433 167s-2 360-167 433l-104 46-7-7-1235 548zM3197 3597l1232 551c-146 154-240 357-256 582l-1235-551-7 7-104-46c-165-73-240-268-167-433s268-241 433-167l105 46-1 11zm1603-462l3 1c102 36 209 54 317 54s215-18 317-54l3-1v425c-102-26-209-40-320-40-110 0-218 14-320 40v-425zM3187 7287v-3c-17-216-107-418-256-576l-2-2 1234-549-1-11 105-46c70-31 144-36 213-18v642l-51 22-7-7-1235 548zm4124-581l-2 2c-149 158-239 360-256 576v3l-1235-548-7 7-51-22v-642c69-18 143-13 213 18l105 46-1 11 1234 549zM3187 3447v-3c-17-216-107-418-256-576l-2-2 1234-549-1-11 105-46c165-74 360 2 433 167s-2 360-167 433l-104 46-7-7-1235 548z"/><path fill="#4D82B8" d="M2560 6455c373 132 640 487 640 905 0 26-1 51-3 77l-108-48c-161-71-349 1-420 162s1 349 162 420l107 48c-175 185-423 301-698 301-530 0-960-430-960-960 0-418 267-774 640-905v105c0 88 143 160 320 160s320-72 320-160v-105zm3450-735c45 111 70 233 70 360 0 26-1 51-3 77l-108-48c-69-30-142-35-209-17v-183c91-53 175-117 250-189zm2310 732c381 131 640 493 640 908 0 530-430 960-960 960-275 0-523-116-698-301l107-48c161-71 233-259 162-420s-259-233-420-162l-108 48c-2-26-3-51-3-77 0-425 271-774 640-904v104c0 88 143 160 320 160s320-72 320-160v-108zM5440 7733c377 131 640 490 640 907 0 530-430 960-960 960s-960-430-960-960c0-425 271-774 640-904v104c0 88 143 160 320 160s320-72 320-160v-107zm-320-3893c530 0 960 430 960 960s-430 960-960 960-960-430-960-960 430-960 960-960zm2880-1280c530 0 960 430 960 960s-430 960-960 960c-275 0-523-116-698-301l107-48c161-71 233-259 162-420s-259-233-420-162l-108 48c-2-26-3-51-3-77 0-530 430-960 960-960zm-5760 0c530 0 960 430 960 960 0 26-1 51-3 77l-108-48c-161-71-349 1-420 162s1 349 162 420l107 48c-175 185-423 301-698 301-530 0-960-430-960-960s430-960 960-960zm2880-1280c530 0 960 430 960 960 0 33-2 66-5 98l-156-69c-161-71-349 1-420 162s2 349 163 420l141 63c-174 177-416 286-683 286-275 0-523-116-698-301l107-48c161-71 233-259 162-420s-259-233-420-162l-108 48c-2-26-3-51-3-77 0-530 430-960 960-960zm640 5433l58 26c-18 19-38 38-58 56v-82zm-1280 82c-20-18-40-37-58-56l58-26v82zm0-703c-67-18-140-13-209 17l-108 48c-2-26-3-51-3-77 0-127 25-249 70-360 75 72 159 136 250 189v183z"/></svg>