<svg xmlns="http://www.w3.org/2000/svg" width="1024" height="1024" shape-rendering="geometricPrecision" text-rendering="geometricPrecision" image-rendering="optimizeQuality" clip-rule="evenodd" viewBox="0 0 10240 10240"><title>currency_dollar icon</title><desc>currency_dollar icon from the IconExperience.com O-Collection. Copyright by INCORS GmbH (www.incors.com).</desc><path fill="#EDC87E" d="M5120 640c2474 0 4480 2006 4480 4480S7594 9600 5120 9600 640 7594 640 5120 2646 640 5120 640zm-320 1280v320h-480c-970 0-1760 790-1760 1760s790 1760 1760 1760h480v960h-480c-203 0-384-130-452-320H2567c82 903 845 1600 1753 1600h480v320h640v-320h480c970 0 1760-790 1760-1760s-790-1760-1760-1760h-480v-960h480c203 0 384 130 452 320h1301c-82-903-845-1600-1753-1600h-480v-320h-640zm640 3840v960h480c264 0 480-216 480-480s-216-480-480-480h-480zm-640-1280h-480c-264 0-480-216-480-480s216-480 480-480h480v960z"/></svg>