<svg xmlns="http://www.w3.org/2000/svg" width="1024" height="1024" shape-rendering="geometricPrecision" text-rendering="geometricPrecision" image-rendering="optimizeQuality" clip-rule="evenodd" viewBox="0 0 10240 10240"><title>currency_yuan icon</title><desc>currency_yuan icon from the IconExperience.com O-Collection. Copyright by INCORS GmbH (www.incors.com).</desc><path fill="#EDC87E" d="M5120 640c2474 0 4480 2006 4480 4480S7594 9600 5120 9600 640 7594 640 5120 2646 640 5120 640zM2240 3840v1280h960v1280c0 350-290 642-640 642l-320-2v1280l320-3c1060 0 1920-857 1920-1917V5120h640v1920c0 706 574 1280 1280 1280h640c706 0 1280-574 1280-1280v-640H7040v640h-640V5120h1600V3840H2240zm4160 3200zm0 0zm640 0zm0 0zM2880 1920v1280h4480V1920H2880z"/></svg>