<svg xmlns="http://www.w3.org/2000/svg" width="1024" height="1024" shape-rendering="geometricPrecision" text-rendering="geometricPrecision" image-rendering="optimizeQuality" clip-rule="evenodd" viewBox="0 0 10240 10240"><title>dagger icon</title><desc>dagger icon from the IconExperience.com O-Collection. Copyright by INCORS GmbH (www.incors.com).</desc><path fill="gray" d="M6174 5098L2909 8352c-914 911-1991 928-2257 928-1-264 13-1335 926-2246l3258-3247 555 544-3243 3233c-62 62-63 163-1 225 63 63 164 63 226 1l3246-3235 555 543z"/><path fill="#B89A7C" d="M9280 952c426 418 427 1095 2 1514-227 224-531 329-829 313L6819 4390l538 527c125 124 127 326 3 452-123 125-325 127-451 3L4542 3052c-126-124-127-326-4-451 124-126 326-128 451-4l545 534L7741 955c424-419 1113-420 1539-3z"/></svg>