<svg xmlns="http://www.w3.org/2000/svg" width="1024" height="1024" shape-rendering="geometricPrecision" text-rendering="geometricPrecision" image-rendering="optimizeQuality" clip-rule="evenodd" viewBox="0 0 10240 10240"><title>data_network icon</title><desc>data_network icon from the IconExperience.com O-Collection. Copyright by INCORS GmbH (www.incors.com).</desc><path fill="#4D82B8" d="M5440 8640c176 0 320 144 320 320h1280v640H5760c0 176-144 320-320 320h-640c-176 0-320-144-320-320H3200v-640h1280c0-176 144-320 320-320v-640h640v640z"/><path fill="#EDC87E" d="M3200 960h3840c353 0 640 288 640 640v960c0 352-288 640-640 640 353 0 640 288 640 640v960c0 352-288 640-640 640 353 0 640 288 640 640v960c0 352-288 640-640 640H3200c-352 0-640-287-640-640v-960c0-352 287-640 640-640-352 0-640-287-640-640v-960c0-352 287-640 640-640-352 0-640-287-640-640v-960c0-352 288-640 640-640zm128 5120c-71 0-128 72-128 160v640c0 88 58 160 128 160h1792v-960H3328zm0-4480c-71 0-128 72-128 160v640c0 88 58 160 128 160h1792v-960H3328zm0 2240c-71 0-128 72-128 160v640c0 88 58 160 128 160h1792v-960H3328z"/></svg>