<svg xmlns="http://www.w3.org/2000/svg" width="1024" height="1024" shape-rendering="geometricPrecision" text-rendering="geometricPrecision" image-rendering="optimizeQuality" clip-rule="evenodd" viewBox="0 0 10240 10240"><title>data_copy icon</title><desc>data_copy icon from the IconExperience.com O-Collection. Copyright by INCORS GmbH (www.incors.com).</desc><path fill="gray" d="M3840 1280h4480c353 0 640 288 640 640v960c0 352-288 640-640 640 353 0 640 288 640 640v960c0 352-288 640-640 640 353 0 640 288 640 640v960c0 352-288 640-640 640h-960c0-246-93-470-245-640 152-170 245-394 245-640v-960c0-246-93-470-245-640 152-170 245-394 245-640v-960c0-529-431-960-960-960h-320v-640H3968c-71 0-128 72-128 160v480h-640v-640c0-353 288-640 640-640z"/><path fill="#EDC87E" d="M1920 2880h4480c353 0 640 288 640 640v960c0 352-288 640-640 640 353 0 640 288 640 640v960c0 352-288 640-640 640 353 0 640 288 640 640v960c0 352-288 640-640 640H1920c-352 0-640-287-640-640v-960c0-352 287-640 640-640-352 0-640-287-640-640v-960c0-352 287-640 640-640-352 0-640-287-640-640v-960c0-352 288-640 640-640zm128 5120c-71 0-128 72-128 160v640c0 88 58 160 128 160h2112v-960H2048zm0-4480c-71 0-128 72-128 160v640c0 88 58 160 128 160h2112v-960H2048zm0 2240c-71 0-128 72-128 160v640c0 88 58 160 128 160h2112v-960H2048z"/></svg>