<svg xmlns="http://www.w3.org/2000/svg" width="1024" height="1024" shape-rendering="geometricPrecision" text-rendering="geometricPrecision" image-rendering="optimizeQuality" clip-rule="evenodd" viewBox="0 0 10240 10240"><title>data_shared icon</title><desc>data_shared icon from the IconExperience.com O-Collection. Copyright by INCORS GmbH (www.incors.com).</desc><path fill="#EDC87E" d="M2080 1280c-88 0-160 72-160 160v640c0 88 72 160 160 160h2080v-960H2080zm-160-640h4480c353 0 640 288 640 640v960c0 352-288 640-640 640 353 0 640 288 640 640v960c0 352-288 640-640 640 353 0 640 288 640 640v349c-488-236-984-349-1529-349H2080c-88 0-160 72-160 160v159c-219-20-438 10-640 85v-404c0-353 287-640 640-640-352 0-640-288-640-640v-960c0-353 287-640 640-640-352 0-640-288-640-640v-960c0-353 288-640 640-640zm160 2880c-88 0-160 72-160 160v640c0 88 72 160 160 160h2080v-960H2080z"/><path fill="gray" d="M8960 6080h640v3840h-640c-352 0-640-287-640-640V6720c0-353 288-640 640-640z"/><path fill="#EFC1B4" d="M3224 6971c105-509 556-891 1096-891h1191c514 0 972 108 1431 338l199 99c282 141 544 203 859 203v640c-416 0-773-84-1145-270l-199-100c-372-186-728-270-1145-270H4320c-265 0-480 215-480 480s215 480 480 480h1440c176 0 320 144 320 320s-144 320-320 320H4320c-422 0-790-234-981-580l-1340-657c-237-119-526-23-644 215-119 237-22 525 215 643l2067 1053c377 191 739 278 1161 278h1467c111 0 209 8 317-20l1418-365v393c0 86 11 169 32 248l-1290 344c-173 45-305 40-477 40H4798c-522 0-986-111-1451-348L1279 8512c-549-280-772-949-497-1501 276-551 946-774 1499-503l943 463z"/></svg>