<svg xmlns="http://www.w3.org/2000/svg" width="1024" height="1024" shape-rendering="geometricPrecision" text-rendering="geometricPrecision" image-rendering="optimizeQuality" clip-rule="evenodd" viewBox="0 0 10240 10240"><title>data icon</title><desc>data icon from the IconExperience.com O-Collection. Copyright by INCORS GmbH (www.incors.com).</desc><path fill="#EDC87E" d="M7680 7040c353 0 640 288 640 640v1280c0 352-288 640-640 640H2560c-352 0-640-287-640-640V7680c0-353 288-640 640-640v-320c-352 0-640-287-640-640V4800c0-353 288-640 640-640v-320c-352 0-640-288-640-640V1920c0-353 288-640 640-640h5120c353 0 640 288 640 640v1280c0 352-288 640-640 640v320c353 0 640 288 640 640v1280c0 352-288 640-640 640v320zm-4992 640c-70 0-128 72-128 160v960c0 88 58 160 128 160h2432V7680H2688zm0-5760c-70 0-128 72-128 160v960c0 88 58 160 128 160h2432V1920H2688zm0 2880c-70 0-128 72-128 160v960c0 88 58 160 128 160h2432V4800H2688z"/></svg>