<svg xmlns="http://www.w3.org/2000/svg" width="1024" height="1024" shape-rendering="geometricPrecision" text-rendering="geometricPrecision" image-rendering="optimizeQuality" clip-rule="evenodd" viewBox="0 0 10240 10240"><title>data_table icon</title><desc>data_table icon from the IconExperience.com O-Collection. Copyright by INCORS GmbH (www.incors.com).</desc><path fill="gray" d="M9600 7040H6080V5440h-55c36-100 55-208 55-320V3840h-245c-176-196-432-320-715-320h960V2240H4800v1280h-320V2240H3200v1280h-320V1280c0-353 287-640 640-640h5440c353 0 640 287 640 640v5760zM6400 2240v1280h1280V2240H6400zm1600 0v1280h1280V2240H8000zM6400 3840v1280h1280V3840H6400zm1600 0v1280h1280V3840H8000zM6400 5440v1280h1280V5440H6400zm1600 0v1280h1280V5440H8000z"/><path fill="#EDC87E" d="M1280 3840h3840c353 0 640 288 640 640v640c0 352-288 640-640 640 353 0 640 288 640 640v640c0 352-288 640-640 640 353 0 640 288 640 640v640c0 352-288 640-640 640H1280c-352 0-640-287-640-640v-640c0-353 287-640 640-640-352 0-640-287-640-640v-640c0-353 287-640 640-640-352 0-640-287-640-640v-640c0-353 288-640 640-640zm128 4480c-71 0-128 72-128 160v320c0 88 58 160 128 160h1792v-640H1408zm0-3840c-71 0-128 72-128 160v320c0 88 58 160 128 160h1792v-640H1408zm0 1920c-71 0-128 72-128 160v320c0 88 58 160 128 160h1792v-640H1408z"/></svg>