<svg xmlns="http://www.w3.org/2000/svg" width="1024" height="1024" shape-rendering="geometricPrecision" text-rendering="geometricPrecision" image-rendering="optimizeQuality" clip-rule="evenodd" viewBox="0 0 10240 10240"><title>deck_chair icon</title><desc>deck_chair icon from the IconExperience.com O-Collection. Copyright by INCORS GmbH (www.incors.com).</desc><path fill="#B89A7C" d="M5392 8586l1114 393c167 58 254 241 195 407-58 167-241 254-407 195l-1267-447 365-548zm-460-5167l-737 1105 173 482c-41 72-83 141-128 209-98 148-207 288-328 418l-159-446-744 1116c-289 143-616 252-984 322l3077-4614c-26 493-81 966-170 1408zm4082-1997c98-147 296-186 444-88 147 98 186 296 88 443L7715 4524l1534 4293 457 162c167 58 254 241 195 407-58 167-241 254-407 195L5325 8110l-899 1347c-98 148-296 187-443 89-148-98-187-296-89-443l95-143H1280c-14 0-27-1-40-3l-334 500c-98 148-296 187-444 89-147-98-186-296-88-443l735-1103h769l-213 320h2750l287-430-648-229c-167-58-254-241-195-407 58-167 241-254 407-195l802 283 3946-5920zM7273 5187L5690 7561l2781 982-1198-3356z"/><path fill="#ED9A56" d="M3607 7680H960c-176 0-320-144-320-320s144-320 320-320c1767 0 2884-558 3553-1498 684-962 927-2340 927-3942 0-177 143-320 320-320h2964L4939 6957l-566-200c-333-117-698 58-816 390-64 184-40 377 50 533zm5977-5382c-69 1431-364 2677-1031 3614l-2 2-480-1346 1513-2270zM7543 6895c-351 234-755 420-1217 552l-142-50 1002-1502 357 1000z"/></svg>