<svg xmlns="http://www.w3.org/2000/svg" width="1024" height="1024" shape-rendering="geometricPrecision" text-rendering="geometricPrecision" image-rendering="optimizeQuality" clip-rule="evenodd" viewBox="0 0 10240 10240"><title>desk icon</title><desc>desk icon from the IconExperience.com O-Collection. Copyright by INCORS GmbH (www.incors.com).</desc><path fill="gray" d="M7360 8960c177 0 320 143 320 320s-143 320-320 320-320-143-320-320 143-320 320-320zm-1280 0c177 0 320 143 320 320s-143 320-320 320-320-143-320-320 143-320 320-320zm-1280 0c177 0 320 143 320 320s-143 320-320 320-320-143-320-320 143-320 320-320zM4787 8640l973-640v-320h640v320l973 640h-13c-170 0-324 66-438 174l-522-174v86c-94-55-203-86-320-86s-226 31-320 86v-86l-522 174c-114-108-268-174-438-174h-13z"/><path fill="#4D82B8" d="M8000 4800c176 0 320 144 320 320v320h-640v-320c0-176 144-320 320-320zm148 1920c-222 382-636 640-1108 640H5120c-472 0-886-258-1108-640h4136zM3840 5440v-320c0-176 144-320 320-320s320 144 320 320v320h-640zM4480 4480c0-640 0-1920 1600-1920s1600 1280 1600 1920v86c-191 111-320 318-320 554v320H4800v-320c0-236-129-443-320-554v-86z"/><path fill="gray" d="M8320 9600V6400H3840v2240c0 177-143 320-320 320H1920v640h-640V6400H320v-640h9600v640h-960v3200h-640z"/></svg>