<svg xmlns="http://www.w3.org/2000/svg" width="1024" height="1024" shape-rendering="geometricPrecision" text-rendering="geometricPrecision" image-rendering="optimizeQuality" clip-rule="evenodd" viewBox="0 0 10240 10240"><title>desktop icon</title><desc>desktop icon from the IconExperience.com O-Collection. Copyright by INCORS GmbH (www.incors.com).</desc><path fill="gray" d="M8553 3739l508 508c128 128 128 338 0 466L6790 6984c-44 44-93 72-154 87l-935 234c-59 15-118-2-161-45s-60-102-45-161l234-935c15-61 43-110 87-154l2271-2271c128-128 338-128 466 0zM1280 1280h1280L640 3200V1920c0-353 287-640 640-640zm7680 0H7680l1920 1920V1920c0-353-287-640-640-640zm0 7680H7680l1920-1920v1280c0 353-287 640-640 640zm-7680 0h1280L640 7040v1280c0 353 287 640 640 640z"/><path fill="#4D82B8" d="M3013 1280h4214l2373 2373v2934L7227 8960H3013L640 6587V3653l2373-2373zm187 1280v5120h3840v-507l2240-2240c250-250 250-656 0-906l-507-507c-250-250-656-250-906 0l-827 827V2560H3200z"/></svg>