<svg xmlns="http://www.w3.org/2000/svg" width="1024" height="1024" shape-rendering="geometricPrecision" text-rendering="geometricPrecision" image-rendering="optimizeQuality" clip-rule="evenodd" viewBox="0 0 10240 10240"><title>diamond icon</title><desc>diamond icon from the IconExperience.com O-Collection. Copyright by INCORS GmbH (www.incors.com).</desc><path fill="gray" d="M787 3644l1677-2236c62-83 152-128 256-128h4800c104 0 194 45 256 128l1677 2236c88 118 87 273-3 389L5373 9275c-63 81-151 124-253 124s-190-43-253-124L790 4033c-90-116-91-271-3-389zm913 516l2650 3408-1065-3408H1700zm4190 3408l2650-3408H6955L5890 7568zm2670-4048L7360 1920H6244l686 1600h1630zM5550 1920h-860l-686 1600h2232l-686-1600zm-1554 0H2880L1680 3520h1630l686-1600zm2289 2240H3955l1165 3729 1165-3729z"/></svg>