<svg xmlns="http://www.w3.org/2000/svg" width="1024" height="1024" shape-rendering="geometricPrecision" text-rendering="geometricPrecision" image-rendering="optimizeQuality" clip-rule="evenodd" viewBox="0 0 10240 10240"><title>diamond_ring icon</title><desc>diamond_ring icon from the IconExperience.com O-Collection. Copyright by INCORS GmbH (www.incors.com).</desc><path fill="gray" d="M6491 2837c1263 534 2149 1785 2149 3243 0 1944-1576 3520-3520 3520S1600 8024 1600 6080c0-1458 886-2709 2149-3243l975 1033c-1226 191-2164 1251-2164 2530 0 1414 1146 2560 2560 2560s2560-1146 2560-2560c0-1279-938-2339-2164-2530l975-1033z"/><path fill="#E68497" d="M4103 320h2034c50 0 93 16 129 47l1039 913H2935l1039-913c36-31 79-47 129-47zm3114 1280L5266 3669c-38 40-87 64-146 64s-108-24-146-64L3023 1600h4194z"/></svg>