<svg xmlns="http://www.w3.org/2000/svg" width="1024" height="1024" shape-rendering="geometricPrecision" text-rendering="geometricPrecision" image-rendering="optimizeQuality" clip-rule="evenodd" viewBox="0 0 10240 10240"><title>dice icon</title><desc>dice icon from the IconExperience.com O-Collection. Copyright by INCORS GmbH (www.incors.com).</desc><path fill="gray" d="M7166 2586c91-342 442-544 784-453 341 92 544 443 452 784-91 341-442 544-783 453-342-92-544-443-453-784zm-2473-663c92-341 443-544 784-452 341 91 544 442 453 783-92 342-443 545-784 453-342-91-544-442-453-784zm2027 2803c154-124 362-175 567-120 342 91 544 442 453 784-92 341-443 544-784 452-89-23-169-65-236-119v-997z"/><path fill="gray" d="M3271 3520l743-2773c92-340 444-543 784-452l4328 1159c340 92 543 444 452 784L8419 6566c-92 340-444 543-784 452l-915-245v-663l1080 290 1160-4327L4633 913l-699 2607h-663z"/><path fill="#4D82B8" d="M4800 4800c354 0 640 287 640 640s-286 640-640 640c-353 0-640-287-640-640s287-640 640-640zM3520 6080c353 0 640 287 640 640s-287 640-640 640-640-287-640-640 287-640 640-640zM2240 7360c354 0 640 287 640 640s-286 640-640 640c-353 0-640-287-640-640s287-640 640-640z"/><path fill="#4D82B8" d="M1280 3840h4480c353 0 640 288 640 640v4480c0 352-288 640-640 640H1280c-352 0-640-287-640-640V4480c0-353 288-640 640-640zm0 640v4480h4480V4480H1280z"/></svg>