<svg xmlns="http://www.w3.org/2000/svg" width="1024" height="1024" shape-rendering="geometricPrecision" text-rendering="geometricPrecision" image-rendering="optimizeQuality" clip-rule="evenodd" viewBox="0 0 10240 10240"><title>dictionary icon</title><desc>dictionary icon from the IconExperience.com O-Collection. Copyright by INCORS GmbH (www.incors.com).</desc><path fill="#4D82B8" d="M8320 9600c353 0 640-287 640-640V3200c0-353-287-640-640-640H2560c-353 0-640-287-640-640s287-640 640-640h5440c177 0 320 143 320 320v640c237 0 463 86 640 245V1280c0-362-287-645-640-640H2560c-707 0-1280 573-1280 1280v6400c0 707 573 1280 1280 1280h5760zM3214 5760h1252c-40-444-164-874-347-1280h-558c-183 406-307 836-347 1280zm1266 640H3200v640h-640v-960c0-726 192-1416 515-2063 56-111 168-176 285-176h960c117 0 229 65 285 176 323 647 515 1337 515 2063v960h-640v-640zm1280 1280c0-82 31-164 94-226l1694-1694H5760v-640h2560v640c0 82-31 164-94 226L6533 7680h1787v640H5760v-640z"/></svg>