<svg xmlns="http://www.w3.org/2000/svg" width="1024" height="1024" shape-rendering="geometricPrecision" text-rendering="geometricPrecision" image-rendering="optimizeQuality" clip-rule="evenodd" viewBox="0 0 10240 10240"><title>die icon</title><desc>die icon from the IconExperience.com O-Collection. Copyright by INCORS GmbH (www.incors.com).</desc><path fill="gray" d="M4755 3197c202-100 528-100 730 0 201 101 201 264 0 364-202 101-528 101-730 0-201-100-201-263 0-364zm1209 4188c-217 109-393 406-393 663s176 377 393 269c217-109 392-405 392-663 0-257-175-377-392-269zm916-1545c-217 109-393 405-393 662s176 378 393 269c217-108 393-405 393-662s-176-378-393-269zm916-1546c-217 109-392 406-392 663s175 377 392 269c217-109 393-405 393-663 0-257-176-377-393-269zM4276 7385c217 109 393 406 393 663s-176 377-393 269c-217-109-392-405-392-663 0-257 175-377 392-269zm-1832-917c217 108 392 405 392 662s-175 378-392 269-393-405-393-662c0-258 176-378 393-269zm916-628c217 109 393 405 393 662s-176 378-393 269c-217-108-393-405-393-662s176-378 393-269zm916-628c217 109 393 405 393 663 0 257-176 377-393 269-217-109-392-406-392-663s175-377 392-269zm-1832-918c217 109 392 406 392 663s-175 377-392 269c-217-109-393-405-393-663 0-257 176-377 393-269z"/><path fill="gray" d="M1634 3023l3200-1600c186-93 386-93 572 0l3200 1600c222 111 354 324 354 573v3688c0 249-132 462-354 573L5406 9457c-186 93-386 93-572 0L1634 7857c-222-111-354-324-354-573V3596c0-249 132-462 354-573zm286 853v3408l2880 1440V5316L1920 3876zm3520 4848l2880-1440V3876L5440 5316v3408zm-320-3960l2768-1384-2768-1384-2768 1384 2768 1384z"/></svg>