<svg xmlns="http://www.w3.org/2000/svg" width="1024" height="1024" shape-rendering="geometricPrecision" text-rendering="geometricPrecision" image-rendering="optimizeQuality" clip-rule="evenodd" viewBox="0 0 10240 10240"><title>disinfection icon</title><desc>disinfection icon from the IconExperience.com O-Collection. Copyright by INCORS GmbH (www.incors.com).</desc><path fill="#EDC87E" d="M3520 5760h3840v2879H3520z"/><path fill="gray" d="M4425 3200h2935c529 0 960 431 960 960v4480c0 529-431 960-960 960H3520c-529 0-960-431-960-960V5065c0-258 99-496 281-679l905-905c183-182 421-281 679-281zm2935 640H4425c-94 0-159 27-226 94l-905 905c-67 67-94 131-94 226v3575c0 176 144 320 320 320h3840c176 0 320-144 320-320V4160c0-176-144-320-320-320zM5120 640h1280c176 0 320 144 320 320v960h320v960H4480v-960h320v-320H2560c-176 0-320 144-320 320v320h-640v-320c0-529 431-960 960-960h2240c0-176 144-320 320-320z"/></svg>