<svg xmlns="http://www.w3.org/2000/svg" width="1024" height="1024" shape-rendering="geometricPrecision" text-rendering="geometricPrecision" image-rendering="optimizeQuality" clip-rule="evenodd" viewBox="0 0 10240 10240"><title>diving_mask icon</title><desc>diving_mask icon from the IconExperience.com O-Collection. Copyright by INCORS GmbH (www.incors.com).</desc><path fill="#4D82B8" d="M3434 1920h4652c445 0 832 190 1121 526 291 339 422 759 387 1204l-99 1280c-62 798-688 1470-1509 1470h-993c-335 0-628-184-790-474l-210-375c-52-93-124-147-233-147s-181 54-233 147l-210 375c-162 290-455 474-790 474h-993c-821 0-1447-672-1509-1470l-99-1280c-35-445 96-865 387-1204 289-336 676-526 1121-526zm4652 640H3434c-262 0-466 103-636 301-185 216-257 459-235 742l100 1280c36 465 385 877 871 877h993c109 0 181-54 233-147l209-375c163-290 456-474 791-474s628 184 791 474l209 375c52 93 124 147 233 147h993c486 0 835-412 871-877l100-1280c22-282-50-527-235-742-170-198-374-301-636-301z"/><path fill="gray" d="M7040 6720c0 353-287 640-640 640h-197c-98 567-384 1074-794 1462-507 480-1204 778-1969 778s-1462-298-1969-778c-513-486-831-1157-831-1899V640h960v6283c0 468 203 895 531 1205 333 316 796 512 1309 512s976-196 1309-512c222-210 387-474 470-768h-99c-353 0-640-287-640-640h47c453 0 849-244 1070-638l163-292 163 292c221 394 617 638 1070 638h47z"/></svg>