<svg xmlns="http://www.w3.org/2000/svg" width="1024" height="1024" shape-rendering="geometricPrecision" text-rendering="geometricPrecision" image-rendering="optimizeQuality" clip-rule="evenodd" viewBox="0 0 10240 10240"><title>doctor icon</title><desc>doctor icon from the IconExperience.com O-Collection. Copyright by INCORS GmbH (www.incors.com).</desc><path fill="#E68497" d="M5760 6720h640v640h640v640h-640v640h-640v-640h-640v-640h640z"/><path fill="gray" d="M8320 8470c0 810-1920 1130-3200 1130s-3200-320-3200-1129c0-1760 582-2029 1663-2835 202 128 421 231 653 306l1 4-271 203c-1044 778-1399 895-1406 2278 85 89 344 194 438 227 342 122 725 193 1084 239 343 44 693 67 1038 67s695-23 1038-67c359-46 743-117 1085-239 93-33 353-139 437-228-8-1384-361-1498-1406-2277l-278-205c235-75 457-179 661-308 1082 807 1663 1074 1663 2834z"/><path fill="#EFC1B4" d="M6718 1198c586 467 962 1185 962 1991 0 1408-1146 2550-2560 2550S2560 4597 2560 3189c0-806 376-1524 962-1991-1 27-2 54-2 82 0 884 716 1600 1600 1600s1600-716 1600-1600c0-28-1-55-2-82z"/><path fill="gray" d="M5120 0c707 0 1280 573 1280 1280s-573 1280-1280 1280-1280-573-1280-1280S4413 0 5120 0zm0 960c-177 0-320 143-320 320s143 320 320 320 320-143 320-320-143-320-320-320z"/></svg>