<svg xmlns="http://www.w3.org/2000/svg" width="1024" height="1024" shape-rendering="geometricPrecision" text-rendering="geometricPrecision" image-rendering="optimizeQuality" clip-rule="evenodd" viewBox="0 0 10240 10240"><title>document_chart icon</title><desc>document_chart icon from the IconExperience.com O-Collection. Copyright by INCORS GmbH (www.incors.com).</desc><path fill="#4D82B8" d="M2560 3840h5032l-668 1671-298-297-226-227-226 227-478 478-433-217-286-143-142 285-497 996-355-178-207-103-162 162-640 640-414 413V3840zm5120 1499v2981H2693l733-734 478-478 434 217 285 143 142-285 498-996 355 178 206 103 162-162 414-413 414 413 342 343 180-450 344-860z"/><path fill="gray" d="M1280 640h5230c352 0 656 126 905 375l1170 1170c249 249 375 553 375 905v6510H1280V640zm5760 960v960h960l-960-960zm-5120-320v7680h6400V3520c0-176-144-320-320-320H6400V1600c0-176-144-320-320-320H1920z"/></svg>