<svg xmlns="http://www.w3.org/2000/svg" width="1024" height="1024" shape-rendering="geometricPrecision" text-rendering="geometricPrecision" image-rendering="optimizeQuality" clip-rule="evenodd" viewBox="0 0 10240 10240"><title>document_page_number icon</title><desc>document_page_number icon from the IconExperience.com O-Collection. Copyright by INCORS GmbH (www.incors.com).</desc><path fill="#4D82B8" d="M3706 6400l240-960h-426c-51 0-94-21-126-62-31-40-41-87-29-137l160-640c18-72 81-121 155-121h506l210-839c18-72 81-121 155-121h659c51 0 94 21 126 62 31 40 41 87 29 137l-190 761h611l210-839c18-72 81-121 155-121h659c51 0 94 21 126 62 31 40 41 87 29 137l-190 761h425c51 0 95 21 126 62 32 40 42 87 29 137l-160 640c-18 72-80 121-155 121h-505l-240 960h425c51 0 95 21 126 62 32 40 42 87 29 137l-160 640c-18 72-80 121-155 121h-505l-210 839c-18 72-81 121-155 121h-659c-51 0-95-21-126-62-31-40-42-87-29-137l190-761h-611l-210 839c-18 72-81 121-155 121h-659c-51 0-95-21-126-62-31-40-42-87-29-137l190-761h-426c-51 0-94-21-126-62-31-40-41-87-29-137l160-640c18-72 81-121 155-121h506zm1840-960h-611l-240 960h611l240-960z"/><path fill="gray" d="M1280 640h5230c352 0 656 126 905 375l1170 1170c249 249 375 553 375 905v6510H1280V640zm640 640v7680h6400V3520c0-176-144-320-320-320H6400V1600c0-176-144-320-320-320H1920zm5120 320v960h960l-960-960z"/></svg>