<svg xmlns="http://www.w3.org/2000/svg" width="1024" height="1024" shape-rendering="geometricPrecision" text-rendering="geometricPrecision" image-rendering="optimizeQuality" clip-rule="evenodd" viewBox="0 0 10240 10240"><title>document_cup icon</title><desc>document_cup icon from the IconExperience.com O-Collection. Copyright by INCORS GmbH (www.incors.com).</desc><path fill="gray" d="M1280 640h5230c352 0 656 126 905 375l1170 1170c249 249 375 553 375 905v6510H1280V640zm5760 960v960h960l-960-960zm-5120-320v7680h6400V3520c0-176-144-320-320-320H6400V1600c0-176-144-320-320-320H1920z"/><path fill="#EDC87E" d="M3040 7360h1760c-881 0-1600-719-1600-1600v-960c0-176 144-320 320-320h2880c176 0 320 144 320 320h480c441 0 800 359 800 800s-359 800-800 800h-243c-216 0-401 97-525 273-289 415-770 687-1312 687h2080c88 0 160 72 160 160v34c0 353-960 27-960 446H3840c0-419-960-93-960-446v-34c0-88 72-160 160-160zm4160-2080c-177 0-320 143-320 320s143 320 320 320 320-143 320-320-143-320-320-320z"/><path fill="gray" d="M5834 2809c-505-155-788 0-788 127 0 254 591 318 591 635 0 507-985 380-591 761-882-360 0-508 0-678 0-254-788-270-788-651 0-391 848-665 1576-194z"/></svg>