<svg xmlns="http://www.w3.org/2000/svg" width="1024" height="1024" shape-rendering="geometricPrecision" text-rendering="geometricPrecision" image-rendering="optimizeQuality" clip-rule="evenodd" viewBox="0 0 10240 10240"><title>document_zip icon</title><desc>document_zip icon from the IconExperience.com O-Collection. Copyright by INCORS GmbH (www.incors.com).</desc><path fill="gray" d="M7525 5319l642-161c107-26 201-38 311-38h482c353 0 640 287 640 640v640c0 352-287 640-640 640h-482c-110 0-204-12-311-38l-642-161c-228-57-399-226-460-441h-25v320c0 176-144 320-320 320s-320-144-320-320v-320h-640v320c0 176-144 320-320 320s-320-144-320-320v-320h-640v320c0 176-144 320-320 320s-320-144-320-320v-320h-640v320c0 176-144 320-320 320s-320-144-320-320v-320h-640v-960c0-176 144-320 320-320s320 144 320 320v320h640v-320c0-176 144-320 320-320s320 144 320 320v320h640v-320c0-176 144-320 320-320s320 144 320 320v320h640v-320c0-176 144-320 320-320s320 144 320 320v320h665c61-215 232-384 460-441zm596 1012l259 64c13 4 25 5 38 5h382c88 0 160-72 160-160v-320c0-88-72-160-160-160h-382c-13 0-25 1-38 5l-259 64c-72 18-121 81-121 156v190c0 75 49 138 121 156z"/><path fill="gray" d="M7040 1600v960h960l-960-960zM1280 640h5230c352 0 656 126 905 375l1170 1170c249 249 375 553 375 905v1710h-482c-54 0-106 2-158 8V3520c0-176-144-320-320-320H6400V1600c0-176-144-320-320-320H1920v7680h6400V7352c52 6 104 8 158 8h482v2240H1280V640z"/></svg>