<svg xmlns="http://www.w3.org/2000/svg" width="1024" height="1024" shape-rendering="geometricPrecision" text-rendering="geometricPrecision" image-rendering="optimizeQuality" clip-rule="evenodd" viewBox="0 0 10240 10240"><title>documents_empty icon</title><desc>documents_empty icon from the IconExperience.com O-Collection. Copyright by INCORS GmbH (www.incors.com).</desc><path fill="gray" d="M3200 640h3950c352 0 656 126 905 375l1170 1170c249 249 375 553 375 905v5230H7360v-640h1600V3520c0-176-144-320-320-320H7040V1600c0-176-144-320-320-320H3840v320h-640V640zm4487 953v960h960l-960-960z"/><path fill="gray" d="M640 1920h3950c352 0 656 126 905 375l1170 1170c249 249 375 553 375 905v5230H640V1920zm4480 960v960h960l-960-960zm-3840-320v6400h5120V4800c0-176-144-320-320-320H4480V2880c0-176-144-320-320-320H1280z"/></svg>