<svg xmlns="http://www.w3.org/2000/svg" width="1024" height="1024" shape-rendering="geometricPrecision" text-rendering="geometricPrecision" image-rendering="optimizeQuality" clip-rule="evenodd" viewBox="0 0 10240 10240"><title>document_attachment icon</title><desc>document_attachment icon from the IconExperience.com O-Collection. Copyright by INCORS GmbH (www.incors.com).</desc><path fill="gray" d="M1280 640h5230c352 0 656 126 905 375l1170 1170c249 249 375 553 375 905v6510H1280V5839l640 1278v1843h6400V3520c0-176-144-320-320-320H6400V1600c0-176-144-320-320-320H1920v1562l-640 321V640zm5760 960v960h960l-960-960z"/><path fill="#EDC87E" d="M1155 3583l3035-1520c158-79 350-14 429 143l1636 3266c79 158 15 350-143 429L2846 7537c-157 79-350 14-429-143l-670-1337c55 15 112 23 172 23h556l371 741 2693-1349-1349-2693-1480 741H1600c-154 0-304 22-445 63zm168 1626l-43-85v-4c0-163 157-320 320-320h234l2 5c-235 31-430 190-513 404z"/><path fill="gray" d="M1919 5760c-176 0-319-144-319-320 0-177 143-320 320-320h1280c176 0 320-144 320-320s-144-320-320-320H1600c-341 0-640 301-640 640v1108c-97-56-186-125-265-203-240-241-375-565-375-905 0-705 575-1280 1280-1280h1600c529 0 960 431 960 960 0 528-430 959-958 960H1919z"/></svg>