<svg xmlns="http://www.w3.org/2000/svg" width="1024" height="1024" shape-rendering="geometricPrecision" text-rendering="geometricPrecision" image-rendering="optimizeQuality" clip-rule="evenodd" viewBox="0 0 10240 10240"><title>document_height icon</title><desc>document_height icon from the IconExperience.com O-Collection. Copyright by INCORS GmbH (www.incors.com).</desc><path fill="#4D82B8" d="M5120 8960l960-1600H4160zM5120 1280l960 1600H4160z"/><path fill="gray" d="M1280 640h5230c352 0 656 126 905 375l1170 1170c249 249 375 553 375 905v6510H1280V640zm5760 960v960h960l-960-960zM4846 9125c59 99 158 155 274 155s215-56 274-155l99-165h2827V3520c0-176-144-320-320-320H6400V1600c0-176-144-320-320-320h-587l-99-165c-59-99-158-155-274-155s-215 56-274 155l-99 165H1920v7680h2827l99 165z"/></svg>