<svg xmlns="http://www.w3.org/2000/svg" width="1024" height="1024" shape-rendering="geometricPrecision" text-rendering="geometricPrecision" image-rendering="optimizeQuality" clip-rule="evenodd" viewBox="0 0 10240 10240"><title>document_music icon</title><desc>document_music icon from the IconExperience.com O-Collection. Copyright by INCORS GmbH (www.incors.com).</desc><path fill="gray" d="M1280 640h5230c352 0 656 126 905 375l1170 1170c249 249 375 553 375 905v6510H1280V640zm5760 960v960h960l-960-960zm-5120-320v7680h6400V3520c0-176-144-320-320-320H6400V1600c0-176-144-320-320-320H1920z"/><path fill="#4D82B8" d="M3360 6840c171-44 334-56 480-39V4559c0-153 103-281 252-313l2881-619c98-21 190 2 268 64 78 63 119 149 119 249v2916c0 485-501 1006-1120 1166-619 159-1120-104-1120-588s501-1006 1120-1165c172-45 335-56 480-40V4762l-2240 498v2168c0 484-502 1006-1120 1165-619 160-1120-103-1120-587s501-1006 1120-1166z"/></svg>