<svg xmlns="http://www.w3.org/2000/svg" width="1024" height="1024" shape-rendering="geometricPrecision" text-rendering="geometricPrecision" image-rendering="optimizeQuality" clip-rule="evenodd" viewBox="0 0 10240 10240"><title>dome_camera icon</title><desc>dome_camera icon from the IconExperience.com O-Collection. Copyright by INCORS GmbH (www.incors.com).</desc><path fill="#4D82B8" d="M5120 6080c530 0 960 430 960 960s-430 960-960 960-960-430-960-960 430-960 960-960zm0 320c-353 0-640 287-640 640 0 260 155 483 377 583-37-80-57-169-57-263 0-353 287-640 640-640 94 0 183 20 263 57-100-223-323-377-583-377z"/><path fill="gray" d="M8960 4160v960c0 2121-1719 3840-3840 3840S1280 7241 1280 5120v-960h655l-15 960c0 766 267 1471 714 2023 85 105 220 145 348 103 129-43 214-155 220-290v-7c4-82-19-153-71-217-357-440-571-1001-571-1612l30-960h6370zM5120 5760c-707 0-1280 573-1280 1280s573 1280 1280 1280 1280-573 1280-1280-573-1280-1280-1280zM960 1280h8320c176 0 320 144 320 320v1920c0 176-144 320-320 320H960c-176 0-320-144-320-320V1600c0-176 144-320 320-320z"/></svg>