<svg xmlns="http://www.w3.org/2000/svg" width="1024" height="1024" shape-rendering="geometricPrecision" text-rendering="geometricPrecision" image-rendering="optimizeQuality" clip-rule="evenodd" viewBox="0 0 10240 10240"><title>drink icon</title><desc>drink icon from the IconExperience.com O-Collection. Copyright by INCORS GmbH (www.incors.com).</desc><path fill="gray" d="M7645 4160l-535 4879c-35 323-310 561-635 561H3765c-325 0-600-238-635-561l-535-4879h5050zM2560 3200h5120c176 0 320 144 320 320v320H2240v-320c0-176 144-320 320-320z"/><path fill="#4D82B8" d="M4800 2880V1873c0-225 55-437 160-624 103-186 255-344 448-464 193-119 402-183 615-193 212-10 426 36 629 138l1811 905-285 570-1811-905c-103-52-211-75-317-70-104 4-209 37-307 98-99 61-175 140-226 231-50 91-77 197-77 314v1007h-640z"/></svg>