<svg xmlns="http://www.w3.org/2000/svg" width="1024" height="1024" shape-rendering="geometricPrecision" text-rendering="geometricPrecision" image-rendering="optimizeQuality" clip-rule="evenodd" viewBox="0 0 10240 10240"><title>dude5 icon</title><desc>dude5 icon from the IconExperience.com O-Collection. Copyright by INCORS GmbH (www.incors.com).</desc><path fill="#76A797" d="M8320 8470c0 810-1920 1130-3200 1130s-3200-320-3200-1129c0-1760 582-2029 1663-2835 445 281 972 444 1537 444s1092-163 1537-444c1082 807 1663 1074 1663 2834z"/><path fill="#EFC1B4" d="M7658 3520c-162 1252-1237 2219-2538 2219s-2376-967-2538-2219h5076z"/><path fill="gray" d="M5120 21c1188 0 2187 806 2476 1899h84c176 0 320 144 320 320v640c0 176-144 320-320 320H2560c-176 0-320-144-320-320v-640c0-176 144-320 320-320h84C2933 827 3932 21 5120 21z"/></svg>