<svg xmlns="http://www.w3.org/2000/svg" width="1024" height="1024" shape-rendering="geometricPrecision" text-rendering="geometricPrecision" image-rendering="optimizeQuality" clip-rule="evenodd" viewBox="0 0 10240 10240"><title>dude1 icon</title><desc>dude1 icon from the IconExperience.com O-Collection. Copyright by INCORS GmbH (www.incors.com).</desc><path fill="#EFC1B4" d="M5995 6371c-134 519-425 1084-875 1309-450-225-741-790-875-1309 75 19 154 29 235 29h1280c81 0 160-10 235-29z"/><path fill="#E68497" d="M8320 8470c0 622-1134 956-2240 1076 5-1668 254-2359 309-3381 169-147 286-352 321-584 70-47 139-97 205-149 848 660 1405 1774 1405 3038zM4160 9546c-1106-120-2240-453-2240-1075 0-1264 557-2379 1405-3039 66 52 135 102 205 149 35 232 152 437 321 584"/><path fill="#333" d="M4480 4800h1280v320H4480z"/><path fill="gray" d="M6400 5396v44c0 353-287 640-640 640H4480c-353 0-640-287-640-640v-44c-110-63-215-135-316-215l-197-156-199 154c-156 122-300 255-433 397-658-240-1021-605-775-1096 588-1176 320-2560 640-3200 484-967 1280-1600 2560-960 1280-640 2056-49 2560 960 320 640 74 2068 640 3200 246 491-117 856-775 1096-133-142-277-275-433-397l-199-154-197 156c-100 80-206 152-316 215zm-1920-916c-176 0-320 144-320 320v640c0 176 144 320 320 320h1280c176 0 320-144 320-320v-640c0-176-144-320-320-320H4480zm0 320h1280v320H4480v-320zm2560-1600v-640c0-176-144-320-320-320H3520c-176 0-320 144-320 320v640c0 176 144 320 320 320h960c176 0 320-144 320-320v-320c0-176 144-320 320-320s320 144 320 320v320c0 176 144 320 320 320h960c176 0 320-144 320-320z"/></svg>