<svg xmlns="http://www.w3.org/2000/svg" width="1024" height="1024" shape-rendering="geometricPrecision" text-rendering="geometricPrecision" image-rendering="optimizeQuality" clip-rule="evenodd" viewBox="0 0 10240 10240"><title>dumbbell icon</title><desc>dumbbell icon from the IconExperience.com O-Collection. Copyright by INCORS GmbH (www.incors.com).</desc><path fill="gray" d="M8960 3840h-320v-320c0-176-144-320-320-320h-320v-320c0-176-144-320-320-320h-640c-176 0-320 144-320 320v4480c0 176 144 320 320 320h640c176 0 320-144 320-320v-320h320c176 0 320-144 320-320v-320h320c176 0 320-144 320-320V4160c0-176-144-320-320-320zm-6880 0c-88 0-160 72-160 160v320c0 88 72 160 160 160s160-72 160-160v-320c0-88-72-160-160-160zm6720 640c88 0 160 72 160 160s-72 160-160 160-160-72-160-160 72-160 160-160zm-640-640c88 0 160 72 160 160v320c0 88-72 160-160 160s-160-72-160-160v-320c0-88 72-160 160-160zm-800-640c176 0 320 144 320 320v320c0 176-144 320-320 320s-320-144-320-320v-320c0-176 144-320 320-320zm-4480 0c-176 0-320 144-320 320v320c0 176 144 320 320 320s320-144 320-320v-320c0-176-144-320-320-320zM1440 4480c-88 0-160 72-160 160s72 160 160 160 160-72 160-160-72-160-160-160zm1120-1920h640c176 0 320 144 320 320v4480c0 176-144 320-320 320h-640c-176 0-320-144-320-320v-320h-320c-176 0-320-144-320-320v-320h-320c-176 0-320-144-320-320V4160c0-176 144-320 320-320h320v-320c0-176 144-320 320-320h320v-320c0-176 144-320 320-320zM640 4480v1280c-176 0-320-144-320-320v-640c0-176 144-320 320-320zm3200 0h2560v1280H3840V4480zm5760 0c176 0 320 144 320 320v640c0 176-144 320-320 320V4480z"/></svg>