<svg xmlns="http://www.w3.org/2000/svg" width="1024" height="1024" shape-rendering="geometricPrecision" text-rendering="geometricPrecision" image-rendering="optimizeQuality" clip-rule="evenodd" viewBox="0 0 10240 10240"><title>edit icon</title><desc>edit icon from the IconExperience.com O-Collection. Copyright by INCORS GmbH (www.incors.com).</desc><path fill="#4D82B8" d="M6190 2030L3397 4823l-842 2235c-47 123-23 254 70 347s224 116 347 70l2235-842 2793-2793-1810-1810zM4959 6385l-1315 495-494-494 495-1315 1314 1314zm1457-3224c125 125 125 328 0 453L4981 5049c-125 125-328 125-453 0-124-125-124-328 0-452l1436-1436c124-124 328-124 452 0zM9358 1577l-905-905c-250-249-656-249-906 0l-905 905 1811 1810 905-905c249-249 249-656 0-905zm-1132-226c125 125 125 328 0 453s-327 125-452 0-125-328 0-453 327-125 452 0z"/><path fill="gray" d="M8320 3707l-640-640 640 640zm0 266v4987c0 353-287 640-640 640H1280c-353 0-640-287-640-640V2240c0-353 287-640 640-640v7359c0 1 0 1 1 1h6398c1 0 1 0 1-1V4613l640-640z"/><path fill="gray" d="M6720 640h320c27 0 53 3 78 10l-718 717V960c0-176 144-320 320-320zm432 1900l-752-753 752 753zM1920 640h320c176 0 320 144 320 320v1280c0 176-144 320-320 320h-320c-176 0-320-144-320-320V960c0-176 144-320 320-320zm1600 0h320c176 0 320 144 320 320v1280c0 176-144 320-320 320h-320c-176 0-320-144-320-320V960c0-176 144-320 320-320zm1600 0h320c176 0 320 144 320 320v1047l-553 553h-87c-176 0-320-144-320-320V960c0-176 144-320 320-320z"/></svg>