<svg xmlns="http://www.w3.org/2000/svg" width="1024" height="1024" shape-rendering="geometricPrecision" text-rendering="geometricPrecision" image-rendering="optimizeQuality" clip-rule="evenodd" viewBox="0 0 10240 10240"><title>electric_iron icon</title><desc>electric_iron icon from the IconExperience.com O-Collection. Copyright by INCORS GmbH (www.incors.com).</desc><path fill="gray" d="M9600 8000c0 176-144 320-320 320H640c-176 0-320-144-320-320h9280zM6400 5120c1920 0 3200 1280 3200 2560H320v-18c0-208 42-386 135-572l825-1650c158-315 320-320 960-320h4160zM4800 4480h1280c176 0 320 144 320 320H4480c0-176 144-320 320-320zM7040 1920c353 0 640 288 640 640s-288 640-640 640H4480c-352 0-640 288-640 640v960H2240c-255 0-491-10-697 40l1106-2212c223-445 648-708 1145-708h3246z"/></svg>