<svg xmlns="http://www.w3.org/2000/svg" width="1024" height="1024" shape-rendering="geometricPrecision" text-rendering="geometricPrecision" image-rendering="optimizeQuality" clip-rule="evenodd" viewBox="0 0 10240 10240"><title>element_copy icon</title><desc>element_copy icon from the IconExperience.com O-Collection. Copyright by INCORS GmbH (www.incors.com).</desc><path fill="gray" d="M4480 1920h320v640h-320v320h-640v-320c0-353 287-640 640-640zm640 640v-640h1280v640H5120zm1600 0v-640h1280v640H6720zm1600-640c353 0 640 288 640 640v640h-640V1920zm0 1600h640v1280h-640V3520zm640 1600c0 352-288 640-640 640h-640v-640h1280zm-1600 0v640h-640v-640h640zm-3520-960v-960h640v960h-640zM1920 4480h3840c353 0 640 287 640 640v2560c0 352-288 640-640 640H1920c-352 0-640-287-640-640V5120c0-353 287-640 640-640zm0 640v2560h3840V5120H1920z"/></svg>