<svg xmlns="http://www.w3.org/2000/svg" width="1024" height="1024" shape-rendering="geometricPrecision" text-rendering="geometricPrecision" image-rendering="optimizeQuality" clip-rule="evenodd" viewBox="0 0 10240 10240"><title>elements4 icon</title><desc>elements4 icon from the IconExperience.com O-Collection. Copyright by INCORS GmbH (www.incors.com).</desc><path fill="gray" d="M6080 5760h2880c353 0 640 288 640 640v1920c0 352-288 640-640 640H6080c-352 0-640-287-640-640V6400c0-353 288-640 640-640zm0 640v1920h2880V6400H6080zM1280 5760h2880c352 0 640 288 640 640v1920c0 352-288 640-640 640H1280c-352 0-640-287-640-640V6400c0-353 287-640 640-640zm0 640v1920h2880V6400H1280zM6080 1920h2880c353 0 640 288 640 640v1920c0 352-288 640-640 640H6080c-352 0-640-287-640-640V2560c0-353 288-640 640-640zm0 640v1920h2880V2560H6080zM1280 1920h2880c352 0 640 288 640 640v1920c0 352-288 640-640 640H1280c-352 0-640-287-640-640V2560c0-353 287-640 640-640zm0 640v1920h2880V2560H1280z"/></svg>