<svg xmlns="http://www.w3.org/2000/svg" width="1024" height="1024" shape-rendering="geometricPrecision" text-rendering="geometricPrecision" image-rendering="optimizeQuality" clip-rule="evenodd" viewBox="0 0 10240 10240"><title>elements3 icon</title><desc>elements3 icon from the IconExperience.com O-Collection. Copyright by INCORS GmbH (www.incors.com).</desc><path fill="gray" d="M5120 1280h3840c353 0 640 288 640 640v2560c0 352-287 640-640 640h-960v-640h960V1920H5120v960h-640v-960c0-353 287-640 640-640z"/><path fill="gray" d="M3200 3200h3840c353 0 640 288 640 640v2560c0 352-288 640-640 640h-960v-640h960V3840H3200v960h-640v-960c0-353 287-640 640-640z"/><path fill="gray" d="M1280 5120h3840c353 0 640 288 640 640v2560c0 352-287 640-640 640H1280c-352 0-640-287-640-640V5760c0-353 287-640 640-640zm0 640v2560h3840V5760H1280z"/></svg>