<svg xmlns="http://www.w3.org/2000/svg" width="1024" height="1024" shape-rendering="geometricPrecision" text-rendering="geometricPrecision" image-rendering="optimizeQuality" clip-rule="evenodd" viewBox="0 0 10240 10240"><title>elements_hierarchy icon</title><desc>elements_hierarchy icon from the IconExperience.com O-Collection. Copyright by INCORS GmbH (www.incors.com).</desc><path fill="gray" d="M8960 5770h-640v-650H5440v650h-640v-650H1920v650h-640v-970c0-177 143-320 320-320h3200v-650h640v650h3200c177 0 320 143 320 320v970z"/><path fill="gray" d="M7680 6400h1920v1280H7680V6400zm0-640c-353 0-640 287-640 640v1280c0 353 288 640 640 640h1920c352 0 640-288 640-640V6400c0-352-287-640-640-640H7680zM4160 6400h1920v1280H4160V6400zm0-640c-353 0-640 287-640 640v1280c0 352 288 640 640 640h1920c352 0 640-288 640-640V6400c0-352-287-640-640-640H4160zM640 6400h1920v1280H640V6400zm0-640c-353 0-640 287-640 640v1280c0 352 288 640 640 640h1920c352 0 640-288 640-640V6400c0-352-288-640-640-640H640zM4160 1280h1920c353 0 640 288 640 640v1280c0 352-288 640-640 640H4160c-352 0-640-288-640-640V1920c0-353 287-640 640-640zm0 640v1280h1920V1920H4160z"/></svg>