<svg xmlns="http://www.w3.org/2000/svg" width="1024" height="1024" shape-rendering="geometricPrecision" text-rendering="geometricPrecision" image-rendering="optimizeQuality" clip-rule="evenodd" viewBox="0 0 10240 10240"><title>elements icon</title><desc>elements icon from the IconExperience.com O-Collection. Copyright by INCORS GmbH (www.incors.com).</desc><path fill="gray" d="M4480 1920h3840c353 0 640 287 640 640v2560c0 352-288 640-640 640H6720v-640h1600V2560H4480v1600h-640V2560c0-353 287-640 640-640z"/><path fill="gray" d="M1920 4480h3840c353 0 640 287 640 640v2560c0 352-288 640-640 640H1920c-352 0-640-287-640-640V5120c0-353 287-640 640-640zm0 640v2560h3840V5120H1920z"/></svg>