<svg xmlns="http://www.w3.org/2000/svg" width="1024" height="1024" shape-rendering="geometricPrecision" text-rendering="geometricPrecision" image-rendering="optimizeQuality" clip-rule="evenodd" viewBox="0 0 10240 10240"><title>emergency_stop_button icon</title><desc>emergency_stop_button icon from the IconExperience.com O-Collection. Copyright by INCORS GmbH (www.incors.com).</desc><path fill="#EDC87E" d="M1920 4480h6400c353 0 640 287 640 640v1280H1280v640h7680v1280c0 353-287 640-640 640H1920c-353 0-640-287-640-640V5120c0-353 287-640 640-640z"/><path fill="#E68497" d="M2701 2126c412-278 1292-526 2419-526s2007 248 2419 526c91 61 141 156 141 265v489c0 176-144 320-320 320h-960v960H3840v-960h-960c-176 0-320-144-320-320v-489c0-109 50-204 141-265z"/></svg>