<svg xmlns="http://www.w3.org/2000/svg" width="1024" height="1024" shape-rendering="geometricPrecision" text-rendering="geometricPrecision" image-rendering="optimizeQuality" clip-rule="evenodd" viewBox="0 0 10240 10240"><title>emoticon_smile icon</title><desc>emoticon_smile icon from the IconExperience.com O-Collection. Copyright by INCORS GmbH (www.incors.com).</desc><path fill="gray" d="M7515 6720c-517 772-1397 1280-2395 1280s-1878-508-2395-1280c-53-79-67-168-43-260s81-161 166-204l103-52c132-65 285-35 383 75 409 462 1057 761 1786 761s1377-299 1786-761c98-110 251-140 383-75l103 52c85 42 142 112 166 204s10 181-43 260zM6560 3200c442 0 800 358 800 800s-358 800-800 800-800-358-800-800 358-800 800-800zm-2880 0c442 0 800 358 800 800s-358 800-800 800-800-358-800-800 358-800 800-800z"/><path fill="#EDC87E" d="M5120 640c2474 0 4480 2006 4480 4480S7594 9600 5120 9600 640 7594 640 5120 2646 640 5120 640zm0 640c-2121 0-3840 1719-3840 3840s1719 3840 3840 3840 3840-1719 3840-3840-1719-3840-3840-3840z"/></svg>