<svg xmlns="http://www.w3.org/2000/svg" width="1024" height="1024" shape-rendering="geometricPrecision" text-rendering="geometricPrecision" image-rendering="optimizeQuality" clip-rule="evenodd" viewBox="0 0 10240 10240"><title>emoticon_angry icon</title><desc>emoticon_angry icon from the IconExperience.com O-Collection. Copyright by INCORS GmbH (www.incors.com).</desc><path fill="gray" d="M7515 7040c-517-772-1397-1280-2395-1280s-1878 508-2395 1280c-53 79-67 168-43 260s81 161 166 204l103 52c132 65 285 35 383-75 409-462 1057-761 1786-761s1377 299 1786 761c98 110 251 140 383 75l103-52c85-43 142-112 166-204s10-181-43-260zM7056 4274l-860-430 860-431c157-79 221-271 142-429l-143-286c-79-158-272-222-429-143l-1502 752-1502-752c-158-79-351-15-429 143l-144 286c-79 158-14 350 143 429l860 431-860 430c-157 79-222 272-143 430l144 286c78 158 271 222 429 143l1502-752 1502 752c157 79 350 15 429-143l143-286c79-158 15-351-142-430z"/><path fill="#EDC87E" d="M5120 640c2474 0 4480 2006 4480 4480S7594 9600 5120 9600 640 7594 640 5120 2646 640 5120 640zm0 640c-2121 0-3840 1719-3840 3840s1719 3840 3840 3840 3840-1719 3840-3840-1719-3840-3840-3840z"/></svg>