<svg xmlns="http://www.w3.org/2000/svg" width="1024" height="1024" shape-rendering="geometricPrecision" text-rendering="geometricPrecision" image-rendering="optimizeQuality" clip-rule="evenodd" viewBox="0 0 10240 10240"><title>emoticon_tongue icon</title><desc>emoticon_tongue icon from the IconExperience.com O-Collection. Copyright by INCORS GmbH (www.incors.com).</desc><path fill="#E68497" d="M7360 6080v1133c-7 613-506 1107-1120 1107s-1113-494-1120-1107v-493H3200c-176 0-320-144-320-320v-320c0-176 144-320 320-320h3840c176 0 320 144 320 320z"/><path fill="gray" d="M6560 3200c442 0 800 358 800 800s-358 800-800 800-800-358-800-800 358-800 800-800zm-2880 0c442 0 800 358 800 800s-358 800-800 800-800-358-800-800 358-800 800-800z"/><path fill="#EDC87E" d="M5120 640c2474 0 4480 2006 4480 4480S7594 9600 5120 9600 640 7594 640 5120 2646 640 5120 640zm0 640c-2121 0-3840 1719-3840 3840s1719 3840 3840 3840 3840-1719 3840-3840-1719-3840-3840-3840z"/></svg>