<svg xmlns="http://www.w3.org/2000/svg" width="1024" height="1024" shape-rendering="geometricPrecision" text-rendering="geometricPrecision" image-rendering="optimizeQuality" clip-rule="evenodd" viewBox="0 0 10240 10240"><title>emoticon_grin icon</title><desc>emoticon_grin icon from the IconExperience.com O-Collection. Copyright by INCORS GmbH (www.incors.com).</desc><path fill="#EDC87E" d="M5120 640c2474 0 4480 2006 4480 4480S7594 9600 5120 9600 640 7594 640 5120 2646 640 5120 640zm0 640c-2121 0-3840 1719-3840 3840s1719 3840 3840 3840 3840-1719 3840-3840-1719-3840-3840-3840z"/><path fill="gray" d="M2880 5120h4480c176 0 320 144 320 320v960c0 960-960 1920-2560 1920s-2560-960-2560-1920v-960c0-176 144-320 320-320zm320 640v640c0 329 198 623 445 825 407 332 960 455 1475 455s1068-123 1475-455c247-202 445-496 445-825v-640H3200zM6560 2880c442 0 800 358 800 800s-358 800-800 800-800-358-800-800 358-800 800-800zm-2880 0c442 0 800 358 800 800s-358 800-800 800-800-358-800-800 358-800 800-800z"/></svg>