<svg xmlns="http://www.w3.org/2000/svg" width="1024" height="1024" shape-rendering="geometricPrecision" text-rendering="geometricPrecision" image-rendering="optimizeQuality" clip-rule="evenodd" viewBox="0 0 10240 10240"><title>equalizer icon</title><desc>equalizer icon from the IconExperience.com O-Collection. Copyright by INCORS GmbH (www.incors.com).</desc><path fill="gray" d="M2240 1280c176 0 320 144 320 320v1600h-640V1600c0-176 144-320 320-320zm320 4160v3200c0 176-144 320-320 320s-320-144-320-320V5440h640zm5440-4160c176 0 320 144 320 320v640h-640v-640c0-176 144-320 320-320zm320 3200v4160c0 176-144 320-320 320s-320-144-320-320V4480h640zM5120 1280c176 0 320 144 320 320v4160h-640V1600c0-176 144-320 320-320zm320 6720v640c0 176-144 320-320 320s-320-144-320-320v-640h640z"/><path fill="#4D82B8" d="M1600 3520h1280c176 0 320 144 320 320v320H1280v-320c0-176 144-320 320-320zm1600 960v320c0 176-144 320-320 320H1600c-176 0-320-144-320-320v-320h1920zm4160-1920h1280c176 0 320 144 320 320v320H7040v-320c0-176 144-320 320-320zm1600 960v320c0 176-144 320-320 320H7360c-176 0-320-144-320-320v-320h1920zM4480 6080h1280c176 0 320 144 320 320v320H4160v-320c0-176 144-320 320-320zm1600 960v320c0 176-144 320-320 320H4480c-176 0-320-144-320-320v-320h1920z"/></svg>