<svg xmlns="http://www.w3.org/2000/svg" width="1024" height="1024" shape-rendering="geometricPrecision" text-rendering="geometricPrecision" image-rendering="optimizeQuality" clip-rule="evenodd" viewBox="0 0 10240 10240"><title>erase icon</title><desc>erase icon from the IconExperience.com O-Collection. Copyright by INCORS GmbH (www.incors.com).</desc><path fill="gray" d="M640 5760h5123c-728 751-1612 2152-2196 3602-31 78-45 159-45 238H640V5760zm8960 145v3695H7562c55-62 111-129 168-199 594-745 1358-2083 1870-3496zM5791 9600h-940c511-1196 1212-2305 1790-2912-70 183-178 420-291 668-331 727-693 1522-577 2161 5 29 11 56 18 83z"/><path fill="#E68497" d="M3653 1787L4667 773c250-250 656-250 906 0l1561 1561-1920 1920-1561-1561c-250-250-250-656 0-906zm3933 999l1561 1561c250 250 250 656 0 906L8133 6267c-250 250-656 250-906 0L5666 4706l1920-1920z"/></svg>