<svg xmlns="http://www.w3.org/2000/svg" width="1024" height="1024" shape-rendering="geometricPrecision" text-rendering="geometricPrecision" image-rendering="optimizeQuality" clip-rule="evenodd" viewBox="0 0 10240 10240"><title>escalator_up icon</title><desc>escalator_up icon from the IconExperience.com O-Collection. Copyright by INCORS GmbH (www.incors.com).</desc><path fill="gray" d="M8000 3200c884 0 1600 716 1600 1600s-716 1600-1600 1600h-675c-188 0-350 72-476 212L4541 9176c-251 280-575 424-951 424H2240c-884 0-1600-716-1600-1600s716-1600 1600-1600h695c176 0 328-63 452-187l2638-2638c249-249 553-375 905-375h1070zm0 640H6930c-182 0-323 58-452 187L3840 6665c-245 245-559 375-905 375h-695c-530 0-960 430-960 960s430 960 960 960h1350c194 0 346-67 476-212l2308-2564c247-275 582-424 951-424h675c530 0 960-430 960-960s-430-960-960-960z"/><path fill="#4D82B8" d="M5120 3090V960c0-176-144-320-320-320H2670c-176 0-328 63-453 187l-819 820c-47 46-60 113-35 174 26 61 82 99 148 99h1424L1425 3430c-62 62-62 164 0 226l679 679c62 62 164 62 226 0l1510-1510v1424c0 66 38 122 99 148 61 25 128 12 174-35l820-819c124-125 187-277 187-453z"/></svg>