<svg xmlns="http://www.w3.org/2000/svg" width="1024" height="1024" shape-rendering="geometricPrecision" text-rendering="geometricPrecision" image-rendering="optimizeQuality" clip-rule="evenodd" viewBox="0 0 10240 10240"><title>face_scan icon</title><desc>face_scan icon from the IconExperience.com O-Collection. Copyright by INCORS GmbH (www.incors.com).</desc><path fill="gray" d="M960 640h8320c176 0 320 144 320 320v8320c0 176-144 320-320 320H960c-176 0-320-144-320-320V960c0-176 144-320 320-320zm3840 7040h640v1280h3520V5120h-960v-640h960V1280H5440v640h-640v-640H1280v3200h960v640h-960v3840h3520V7680z"/><path fill="#4D82B8" d="M2148 8640c263-597 748-893 1433-1404 272 172 575 300 899 373v1031H2148zm3612-1032c322-73 624-201 896-372 687 512 1171 807 1434 1404H5760V7608zM5118 2240c1414 0 2560 1146 2560 2560S6532 7360 5118 7360c-1413 0-2560-1146-2560-2560s1147-2560 2560-2560z"/></svg>