<svg xmlns="http://www.w3.org/2000/svg" width="1024" height="1024" shape-rendering="geometricPrecision" text-rendering="geometricPrecision" image-rendering="optimizeQuality" clip-rule="evenodd" viewBox="0 0 10240 10240"><title>fancy_cake icon</title><desc>fancy_cake icon from the IconExperience.com O-Collection. Copyright by INCORS GmbH (www.incors.com).</desc><path fill="#E68497" d="M9280 6344c-177 0-320 143-320 320s143 320 320 320 320-143 320-320-143-320-320-320zm-8383-28c-177 0-320 143-320 320s143 320 320 320 320-143 320-320-143-320-320-320zm1956 824c-177 0-320 143-320 320s143 320 320 320 320-143 320-320-143-320-320-320zm2267 220c-177 0-320 143-320 320s143 320 320 320 320-143 320-320-143-320-320-320zm2240-216c-177 0-320 143-320 320s143 320 320 320 320-143 320-320-143-320-320-320z"/><path fill="#B89A7C" d="M9600 8000c0 884-2006 1600-4480 1600S640 8884 640 8000v-777c79 34 165 53 257 53 353 0 640-286 640-640 0-353-287-640-640-640-92 0-178 19-257 54V4890c254 267 616 462 923 593 1769 753 4691 760 6529 209 453-136 1117-390 1508-801v1219c-94-55-203-86-320-86-353 0-640 287-640 640 0 354 287 640 640 640 117 0 226-31 320-85v781zM4419 2579l66-3v596c0 339 338 508 635 508 281 0 640-170 641-493l1-610c263 13 522 35 775 65v2393c0 336 356 480 640 480s640-144 640-480v-711c60 12 121 18 179 18 284 0 640-145 640-480v-694c1497 677 1225 1660-636 2218-1896 568-4721 479-6312-198-1487-632-1367-1556 203-2137v948c0 335 356 480 640 480 254 0 565-116 629-379v1020c0 335 355 480 640 480 284 0 640-145 640-480V2720c0-49-8-96-21-141zM2853 6820c-353 0-640 287-640 640s287 640 640 640c354 0 640-287 640-640s-286-640-640-640zm2267 220c-353 0-640 287-640 640s287 640 640 640 640-287 640-640-287-640-640-640zm2240-216c-353 0-640 287-640 640 0 354 287 640 640 640s640-286 640-640c0-353-287-640-640-640z"/><path fill="#E68497" d="M7848 2292h320c88 0 160 72 160 160l-12 1410c0 89-143 160-320 160s-320-71-320-160l12-1410c0-88 72-160 160-160zm-5465 136h320c88 0 161 72 160 160l-12 1411c0 88-143 160-320 160-176 0-320-72-320-160l12-1411c1-88 72-160 160-160zm2593-777h320c89 0 161 72 160 160l-15 1376c-1 81-152 173-321 173-85 0-316-39-315-188l11-1361c1-88 72-160 160-160zm2521 3384c0 89-143 160-320 160s-320-71-320-160l12-1410c0-88 71-160 160-160h320c88 0 160 72 160 160l-12 1410zm-3377 85c0 88-144 160-320 160-177 0-320-72-320-160l11-1410c1-89 72-160 160-160h320c88 0 161 71 160 160l-11 1410z"/><path fill="#ED9A56" d="M8008 692c320 512 320 684 320 896s-144 384-320 384c-177 0-320-172-320-384s0-384 320-896zM2543 828c320 512 320 684 320 896s-143 384-320 384-320-172-320-384 0-384 320-896zm1268 1122c320 512 320 683 320 896 0 212-143 384-320 384s-320-172-320-384c0-213 0-384 320-896zM5136 51c320 512 320 684 320 896s-143 384-320 384c-176 0-320-172-320-384s0-384 320-896zm2053 1814c320 512 320 684 320 896s-144 384-320 384c-177 0-320-172-320-384s0-384 320-896z"/></svg>