<svg xmlns="http://www.w3.org/2000/svg" width="1024" height="1024" shape-rendering="geometricPrecision" text-rendering="geometricPrecision" image-rendering="optimizeQuality" clip-rule="evenodd" viewBox="0 0 10240 10240"><title>fax_machine icon</title><desc>fax_machine icon from the IconExperience.com O-Collection. Copyright by INCORS GmbH (www.incors.com).</desc><path fill="gray" d="M2594 3840h6046c529 0 960 431 960 960v3840c0 529-431 960-960 960H2594c181-187 286-445 286-719v-513c0-245-85-484-244-671-53-62-76-125-76-207V5950c0-82 23-145 76-207 159-187 244-426 244-671v-513c0-274-105-532-286-719zm4446 2240v640h640v-640h-640zm0 960v640h640v-640h-640zm0 960v640h640v-640h-640zm-3200-960v640h640v-640h-640zm1920-960v640h640v-640h-640zm-960 0v640h640v-640h-640zm-960 0v640h640v-640h-640zm1920 1920v640h640v-640h-640zm-960 0v640h640v-640h-640zm-960 0v640h640v-640h-640zm1920-960v640h640v-640h-640zm-960 0v640h640v-640h-640zm-960-2560c-176 0-320 144-320 320v320c0 176 144 320 320 320h3840c176 0 320-144 320-320v-320c0-176-144-320-320-320H3840zM2392 5535c104-122 168-284 168-463v-513c0-335-218-616-525-676-291-57-579-57-870 0-307 60-525 341-525 676v513c0 179 64 341 168 463 102 121 152 257 152 415v1540c0 158-50 294-152 415-104 122-168 284-168 463v513c0 335 218 616 525 676 291 57 579 57 870 0 307-60 525-341 525-676v-513c0-179-64-341-168-463-102-121-152-257-152-415V5950c0-158 50-294 152-415zM2560 640h3950c352 0 656 126 905 375l1170 1170c249 249 375 553 375 905v430h-640c176 0-144-320-320-320H6400V1600c0-176-144-320-320-320H3200v2240h-640V640zm4480 960v960h960l-960-960z"/></svg>