<svg xmlns="http://www.w3.org/2000/svg" width="1024" height="1024" shape-rendering="geometricPrecision" text-rendering="geometricPrecision" image-rendering="optimizeQuality" clip-rule="evenodd" viewBox="0 0 10240 10240"><title>fence icon</title><desc>fence icon from the IconExperience.com O-Collection. Copyright by INCORS GmbH (www.incors.com).</desc><path fill="#B89A7C" d="M2570 7020v640h-660v-640h660zm1260 0h660v640h-660v-640zm1920 0h652v640h-652v-640zm1912 0h668v640h-668v-640zM1910 3840h660v640h-660v-640zm1920 0h660v640h-660v-640zm1920 0h652v640h-652v-640zm1912 0h668v640h-668v-640z"/><path fill="#B89A7C" d="M8414 2466l433-433c62-62 164-62 226 0l433 433c63 63 94 138 94 227v6267H8320V2693c0-89 31-164 94-227zm-7680 0l433-433c62-62 164-62 226 0l433 433c63 63 94 138 94 227v6267H640V2693c0-89 31-164 94-227zm1920 0l433-433c62-62 164-62 226 0l433 433c63 63 94 138 94 227v6267H2560V2693c0-89 31-164 94-227zm1920 0l433-433c62-62 164-62 226 0l433 433c63 63 94 138 94 227v6267H4480V2693c0-89 31-164 94-227zm1912-8l433-433c62-62 164-62 226 0l433 433c63 63 94 138 94 226v6268H6392V2684c0-88 31-163 94-226z"/></svg>