<svg xmlns="http://www.w3.org/2000/svg" width="1024" height="1024" shape-rendering="geometricPrecision" text-rendering="geometricPrecision" image-rendering="optimizeQuality" clip-rule="evenodd" viewBox="0 0 10240 10240"><title>film icon</title><desc>film icon from the IconExperience.com O-Collection. Copyright by INCORS GmbH (www.incors.com).</desc><path fill="gray" d="M1280 1280h640v640h640v-640h640v1600c0 176 144 320 320 320h3200c176 0 320-144 320-320V1280h640v640h640v-640h640v7680H7040V7360c0-176-144-320-320-320H3520c-176 0-320 144-320 320v1600H1280V1280zm2240 2560c-176 0-320 144-320 320v1920c0 176 144 320 320 320h3200c176 0 320-144 320-320V4160c0-176-144-320-320-320H3520zm4160 3840v640h640v-640h-640zm0-1280v640h640v-640h-640zm0-1280v640h640v-640h-640zm0-1280v640h640v-640h-640zm0-1280v640h640v-640h-640zM1920 7680v640h640v-640h-640zm0-1280v640h640v-640h-640zm0-1280v640h640v-640h-640zm0-1280v640h640v-640h-640zm0-1280v640h640v-640h-640z"/></svg>