<svg xmlns="http://www.w3.org/2000/svg" width="1024" height="1024" shape-rendering="geometricPrecision" text-rendering="geometricPrecision" image-rendering="optimizeQuality" clip-rule="evenodd" viewBox="0 0 10240 10240"><title>filter_and_sort icon</title><desc>filter_and_sort icon from the IconExperience.com O-Collection. Copyright by INCORS GmbH (www.incors.com).</desc><path fill="#4D82B8" d="M9093 6399L7906 5213c-124-124-328-124-452 0L6267 6399c-124 125-187 277-187 453v839c0 66 38 122 99 148 61 25 127 12 174-35l687-687v2323c0 88 72 160 160 160h960c88 0 160-72 160-160V7117l687 687c47 46 113 60 174 35 61-26 99-82 99-148v-839c0-176-63-328-187-453zM3973 8321L2786 9507c-124 124-328 124-452 0L1147 8321c-124-125-187-277-187-453v-839c0-66 38-122 99-148 61-25 127-12 174 35l687 687V5280c0-88 72-160 160-160h960c88 0 160 72 160 160v2323l687-687c47-46 113-60 174-35 61 26 99 82 99 148v839c0 176-63 328-187 453z"/><path fill="gray" d="M2560 1280h1c25-355 1161-640 2559-640s2534 285 2559 640h1v562c0 265-94 492-281 679L6080 3840c-187 187-270 415-281 679l-39 921c0 640-1358 1280-1358 640l39-1561c7-264-94-492-281-679L2841 2521c-187-187-281-414-281-679v-562zm2560-320c-1060 0-1920 143-1920 320s860 320 1920 320 1920-143 1920-320-860-320-1920-320z"/></svg>