<svg xmlns="http://www.w3.org/2000/svg" width="1024" height="1024" shape-rendering="geometricPrecision" text-rendering="geometricPrecision" image-rendering="optimizeQuality" clip-rule="evenodd" viewBox="0 0 10240 10240"><title>find_replace icon</title><desc>find_replace icon from the IconExperience.com O-Collection. Copyright by INCORS GmbH (www.incors.com).</desc><path fill="#4D82B8" d="M6079 1148L4893 2334c-124 124-124 328 0 452l1186 1187c125 124 277 186 453 187l839 7c142 1 214-172 113-273l-686-694h562c538-2 960 426 960 963v957h1280v-957c0-1241-1002-2241-2243-2238h-558l685-685c101-101 30-272-113-273l-839-7c-176-1-328 63-453 188zM4161 9735l1186-1186c124-124 124-328 0-453L4161 6910c-125-124-277-186-453-187l-839-7c-142-1-214 172-113 273l686 694h-562c-538 1-960-427-960-963v-240c-489-191-926-489-1280-864v1104c0 1241 1002 2241 2243 2237l558 1-685 685c-101 100-30 272 113 273l839 7c176 1 328-63 453-188z"/><path fill="gray" d="M5666 6494l828-828c124-124 328-124 452 0l1374 1374 1054 1054c124 124 124 328 0 452l-828 828c-124 124-328 124-452 0L5666 6946c-124-124-124-328 0-452zM3200 320c775 0 1479 307 1997 805l-453 453c-401-383-945-618-1544-618-1237 0-2240 1003-2240 2240s1003 2240 2240 2240c930 0 1728-567 2067-1375l360 360c40 40 82 77 125 111-65 124-139 242-221 355l549 549-640 640-549-549c-475 345-1059 549-1691 549-1591 0-2880-1289-2880-2880S1609 320 3200 320z"/></svg>