<svg xmlns="http://www.w3.org/2000/svg" width="1024" height="1024" shape-rendering="geometricPrecision" text-rendering="geometricPrecision" image-rendering="optimizeQuality" clip-rule="evenodd" viewBox="0 0 10240 10240"><title>fingerprint_scan icon</title><desc>fingerprint_scan icon from the IconExperience.com O-Collection. Copyright by INCORS GmbH (www.incors.com).</desc><path fill="gray" d="M960 640h8320c176 0 320 144 320 320v8320c0 176-144 320-320 320H960c-176 0-320-144-320-320V960c0-176 144-320 320-320zm3840 1280v-640H1280v3520h640v640h-640v3520h3520v-640h640v640h3520V5440h-640v-640h640V1280H5440v640h-640z"/><path fill="#4D82B8" d="M6896 2669c251 241 469 532 643 860 36 69 19 151-42 200-61 48-145 47-204-4-841-726-1936-1165-3133-1165-67 0-133 1-200 4-74 3-139-43-160-115-21-71 9-145 73-183 195-114 402-203 618-262 37 136 162 236 309 236h640c94 0 178-41 237-105 407 118 794 282 1155 487 25 14 44 28 64 47zm1087 3149c-19 223-56 439-107 648-18 72-81 121-155 121-74 1-137-48-155-119-161-613-483-1161-918-1596-637-637-1517-1032-2488-1032-510 0-994 109-1432 304-60 27-127 16-175-30s-63-112-39-174c50-130 107-257 170-378 40-77 102-130 185-157 406-133 840-205 1291-205 1148 0 2188 466 2941 1219 355 356 647 775 856 1240 23 52 31 102 26 159zM6968 8080c-115 130-247 292-367 379-52 39-118 42-175 10-56-33-86-92-78-157 35-306 52-623 52-952 0-618-251-1178-657-1583-405-406-965-657-1583-657s-1178 251-1583 657c-17 17-34 34-51 52-44 47-109 63-170 41-62-22-102-75-106-140-7-95-10-192-10-290 0-28 0-57 1-85 2-98 43-181 120-243 493-395 1119-632 1799-632 794 0 1514 323 2036 844 521 522 844 1242 844 2036 0 206 13 344 7 520-3 77-29 142-79 200zm-1875-80c18-206 27-419 27-640 0-265-108-505-282-678-173-174-413-282-678-282s-505 108-678 282c-174 173-282 413-282 678 0 83-1 164-5 243-2 70-48 128-115 148-68 19-137-6-177-64-107-157-181-398-259-595-25-63-29-124-14-190 64-278 192-466 399-673 290-290 690-469 1131-469s841 179 1131 469 469 690 469 1131c0 219-8 432-25 640h-642zm-1174 640c-35-19-69-40-103-61-58-36-86-101-72-168 67-324 96-672 96-1051 0-177 143-320 320-320s320 143 320 320c0 416-33 876-133 1280h-428z"/></svg>