<svg xmlns="http://www.w3.org/2000/svg" width="1024" height="1024" shape-rendering="geometricPrecision" text-rendering="geometricPrecision" image-rendering="optimizeQuality" clip-rule="evenodd" viewBox="0 0 10240 10240"><title>fish_bowl icon</title><desc>fish_bowl icon from the IconExperience.com O-Collection. Copyright by INCORS GmbH (www.incors.com).</desc><path fill="#ED9A56" d="M6080 5440c253 0-16 629 320 640 510 17 0-320 640-320 1280 0 345 536 320 960-18 307 960 960 0 960s-640-640-960-640c-640 0-320 960-640 960h-640c-166 0-161-286-320-320-604-131-1280-540-1280-960 0-394 634-812 1280-960 126-29 520-329 640-320h640zm-1694 654c55 25 94 81 94 146 0 88-72 160-160 160-65 0-121-39-146-94-9 30-14 61-14 94 0 177 143 320 320 320s320-143 320-320-143-320-320-320c-33 0-64 5-94 14z"/><path fill="gray" d="M3360 6077c88 0 160 71 160 160 0 88-72 160-160 160s-160-72-160-160c0-89 72-160 160-160zm322-2234c264 0 478 214 478 478 0 265-214 479-478 479-265 0-479-214-479-479 0-264 214-478 479-478zm-482 1277c177 0 320 143 320 320s-143 320-320 320-320-143-320-320 143-320 320-320zM2216 3200h5808c68 103 131 210 188 320H2028c57-110 120-217 188-320z"/><path fill="gray" d="M7391 1280c1322 807 2209 2296 2209 4000 0 1964-1178 3643-2842 4320H3482C1818 8923 640 7244 640 5280c0-1704 887-3193 2209-4000h4542zm-187 640H3036c-1110 748-1756 2019-1756 3360 0 1571 891 3040 2332 3680h3016c1441-640 2332-2109 2332-3680 0-1341-646-2612-1756-3360z"/></svg>