<svg xmlns="http://www.w3.org/2000/svg" width="1024" height="1024" shape-rendering="geometricPrecision" text-rendering="geometricPrecision" image-rendering="optimizeQuality" clip-rule="evenodd" viewBox="0 0 10240 10240"><title>fit_to_size icon</title><desc>fit_to_size icon from the IconExperience.com O-Collection. Copyright by INCORS GmbH (www.incors.com).</desc><path fill="gray" d="M640 8320h640V1920H640v-640h640V640h640v640h6400V640h640v640h640v640h-640v6400h640v640h-640v640h-640v-640H1920v640h-640v-640H640v-640zm1280-6400v2827c-157 94-320 158-320 373s163 279 320 373v2827h2827c94 157 158 320 373 320s279-163 373-320h2827V5493c157-94 320-158 320-373s-163-279-320-373V1920H5493c-94-157-158-320-373-320s-279 163-373 320H1920z"/><path fill="#4D82B8" d="M8320 5120l-1600-960v1920zM5120 8320l960-1600H4160zM1920 5120l1600-960v1920zM5120 1920l960 1600H4160z"/></svg>