<svg xmlns="http://www.w3.org/2000/svg" width="1024" height="1024" shape-rendering="geometricPrecision" text-rendering="geometricPrecision" image-rendering="optimizeQuality" clip-rule="evenodd" viewBox="0 0 10240 10240"><title>flash icon</title><desc>flash icon from the IconExperience.com O-Collection. Copyright by INCORS GmbH (www.incors.com).</desc><path fill="#ED9A56" d="M6749 1125L5120 3840h1355c118 0 220 59 278 162 59 103 57 221-4 323L5120 7040h750c135 0 251 80 299 207 48 128 14 264-89 354L3879 9530c-83 73-187 97-293 69-107-29-185-102-221-206l-660-1929c-35-101-20-203 42-290s154-134 261-134h832l640-1920H2929c-96 0-179-38-242-110-63-73-88-160-75-255l549-3840c22-159 156-275 317-275h2997c118 0 220 59 278 162 59 103 57 221-4 323z"/></svg>