<svg xmlns="http://www.w3.org/2000/svg" width="1024" height="1024" shape-rendering="geometricPrecision" text-rendering="geometricPrecision" image-rendering="optimizeQuality" clip-rule="evenodd" viewBox="0 0 10240 10240"><title>floppy_disk icon</title><desc>floppy_disk icon from the IconExperience.com O-Collection. Copyright by INCORS GmbH (www.incors.com).</desc><path fill="#4D82B8" d="M1920 1280h640v3200c0 353 287 640 640 640h3840c353 0 640-287 640-640V1280h640c353 0 640 287 640 640v6400c0 353-287 640-640 640h-640V6720c0-176-144-320-320-320H4160c-176 0-320 144-320 320v2240H1920c-353 0-640-287-640-640V1920c0-353 287-640 640-640zm3840 5440h1280v1920H5760V6720z"/><path fill="gray" d="M2880 1280h4480v640H2880z"/></svg>