<svg xmlns="http://www.w3.org/2000/svg" width="1024" height="1024" shape-rendering="geometricPrecision" text-rendering="geometricPrecision" image-rendering="optimizeQuality" clip-rule="evenodd" viewBox="0 0 10240 10240"><title>floppy_disk_window icon</title><desc>floppy_disk_window icon from the IconExperience.com O-Collection. Copyright by INCORS GmbH (www.incors.com).</desc><path fill="gray" d="M9600 9280c0 176-144 320-320 320H4160c-176 0-320-144-320-320V5760c0-353 288-640 640-640h4480c352 0 640 288 640 640v3520zM4479 6400l1 2560h4480l-1-2560H4479zM2240 640h3840v640H2240z"/><path fill="#4D82B8" d="M1280 640h640v2560c0 352 288 640 640 640h3200c352 0 640-288 640-640V640h640c353 0 640 288 640 640v3520H4480c-284 0-539 124-715 320h-885c-176 0-320 144-320 320v2240H1280c-352 0-640-287-640-640V1280c0-353 287-640 640-640z"/></svg>