<svg xmlns="http://www.w3.org/2000/svg" width="1024" height="1024" shape-rendering="geometricPrecision" text-rendering="geometricPrecision" image-rendering="optimizeQuality" clip-rule="evenodd" viewBox="0 0 10240 10240"><title>folder3_mail icon</title><desc>folder3_mail icon from the IconExperience.com O-Collection. Copyright by INCORS GmbH (www.incors.com).</desc><path fill="#4D82B8" d="M5760 3840v640h2927L6080 6400l-320-236v853l99 87c104 98 267 99 373 0l2728-2325v3095L7357 6428l-169 158 1709 1734H5760v640h3200c352 0 640-288 640-640V4480c0-352-287-640-640-640H5760z"/><path fill="#EDC87E" d="M640 7350c0 401 231 743 603 891l3758 1503c102 41 208 30 298-32 91-61 141-155 141-265V3520c0-134-77-248-201-297L1042 1554c-246-98-402-336-402-594v6390zm664-6710h7336c176 0 320 144 320 320v1975c0 176-63 328-187 452l-133 133h-905c194-194 388-390 583-583l2-2V1280h-640v2240H5760c0-264-157-496-402-594L1186 1257c-144-57-225-205-195-358 29-151 158-259 313-259z"/></svg>