<svg xmlns="http://www.w3.org/2000/svg" width="1024" height="1024" shape-rendering="geometricPrecision" text-rendering="geometricPrecision" image-rendering="optimizeQuality" clip-rule="evenodd" viewBox="0 0 10240 10240"><title>folder_movie icon</title><desc>folder_movie icon from the IconExperience.com O-Collection. Copyright by INCORS GmbH (www.incors.com).</desc><path fill="#4D82B8" d="M6720 3520c1767 0 3200 1433 3200 3200S8487 9920 6720 9920 3520 8487 3520 6720s1433-3200 3200-3200zm0 2560c353 0 640 287 640 640s-287 640-640 640-640-287-640-640 287-640 640-640zm932 2355l-463-637c-59-82-156-119-254-97-141 31-289 31-430 0-98-22-195 15-254 97l-463 637c-47 64-60 139-37 216 22 76 73 133 148 162 525 206 1117 206 1642 0 75-29 126-86 148-162 23-77 10-152-37-216zM5861 7233c-73-125-118-263-132-407-9-101-74-182-171-213l-749-243c-75-25-151-14-216 31-66 44-104 111-109 190-34 566 147 1125 508 1563 51 61 120 93 200 90 79-2 147-38 194-102l462-637c60-82 65-185 13-272zm114-1165c96-107 214-194 347-252 93-40 149-127 149-228v-788c0-79-33-147-96-196s-138-64-215-45c-556 144-1029 495-1330 967-42 67-51 143-24 218s82 128 157 152l749 244c97 31 196 4 263-72zm1143-252c133 58 251 145 347 252 67 76 167 103 263 72l749-244c75-24 130-77 157-152s18-151-24-218c-301-472-774-823-1330-967-77-19-152-4-215 45s-96 117-96 196v788c0 101 56 188 149 228zm1330 2338c361-438 542-997 508-1563-5-79-43-146-109-190-65-45-141-56-217-31l-748 243c-97 31-162 112-171 213-14 144-59 282-132 407-52 87-47 190 13 272l462 637c47 64 115 100 194 102 80 3 149-29 200-90zM6720 3840c-1591 0-2880 1289-2880 2880s1289 2880 2880 2880 2880-1289 2880-2880-1289-2880-2880-2880z"/><path fill="#EDC87E" d="M3630 1280c352 0 656 126 905 375l530 530c249 249 553 375 905 375h1710c353 0 640 288 640 640v320h-132c-163-75-333-138-508-187v-133H5970c-522 0-988-193-1357-562l-531-531c-129-129-270-187-452-187H1280v6080c0 176 144 320 320 320s320-144 320-320V4480c0-353 287-640 640-640h2136c-905 637-1496 1689-1496 2880 0 851 302 1631 805 2240H1600c-529 0-960-431-960-960V1920c0-353 287-640 640-640h2350z"/></svg>