<svg xmlns="http://www.w3.org/2000/svg" width="1024" height="1024" shape-rendering="geometricPrecision" text-rendering="geometricPrecision" image-rendering="optimizeQuality" clip-rule="evenodd" viewBox="0 0 10240 10240"><title>folder_shared icon</title><desc>folder_shared icon from the IconExperience.com O-Collection. Copyright by INCORS GmbH (www.incors.com).</desc><path fill="gray" d="M8960 6080h640v3840h-640c-352 0-640-287-640-640V6720c0-353 288-640 640-640z"/><path fill="#EFC1B4" d="M3224 6971c105-509 556-891 1096-891h1191c514 0 972 108 1431 338l199 99c282 141 544 203 859 203v640c-416 0-773-84-1145-270l-199-100c-372-186-728-270-1145-270H4320c-265 0-480 215-480 480s215 480 480 480h1440c176 0 320 144 320 320s-144 320-320 320H4320c-422 0-790-234-981-580l-1340-657c-237-119-526-23-644 215-119 237-22 525 215 643l2067 1053c377 191 739 278 1161 278h1467c111 0 209 8 317-20l1418-365v393c0 86 11 169 32 248l-1290 344c-173 45-305 40-477 40H4798c-522 0-986-111-1451-348L1279 8512c-549-280-772-949-497-1501 276-551 946-774 1499-503l943 463z"/><path fill="#EDC87E" d="M2990 640c352 0 656 126 905 375l530 530c249 249 553 375 905 375h1710c353 0 640 288 640 640v320h-640v-320H5330c-522 0-988-193-1357-562l-531-531c-129-129-270-187-452-187H1281l-1 4884h1c-249 93-473 254-641 474V1280c0-353 287-640 640-640h1710zm4692 2560c352 1 638 288 638 640v2165c-119 107-211 242-265 395h-55c-264 0-480-51-716-169l-198-99c-503-252-1013-372-1575-372H4320c-544 0-1029 305-1274 767l-624-306c-162-80-332-126-502-142V3840c0-353 287-640 640-640h5122z"/></svg>