<svg xmlns="http://www.w3.org/2000/svg" width="1024" height="1024" shape-rendering="geometricPrecision" text-rendering="geometricPrecision" image-rendering="optimizeQuality" clip-rule="evenodd" viewBox="0 0 10240 10240"><title>folders2 icon</title><desc>folders2 icon from the IconExperience.com O-Collection. Copyright by INCORS GmbH (www.incors.com).</desc><path fill="#EDC87E" d="M6535 2660l1248-288 143 624-1247 287zM3840 2560h1280v640H3840zM1280 2560h1280v640H1280z"/><path fill="gray" d="M6008 1796l1871-431c172-40 344 68 384 240l1652 7172c39 172-69 344-240 384l-1871 431c-172 39-344-68-384-240L5768 2180c-39-172 68-345 240-384zm144 624l790 3430 1871-431-790-3430-1871 431zm2086 4775c-344 79-559 422-479 766 79 344 422 559 766 480 344-80 558-423 479-767-79-343-422-558-766-479z"/><path fill="gray" d="M3520 1600h1920c176 0 320 144 320 320v7360c0 176-144 320-320 320H3520c-176 0-320-144-320-320V1920c0-176 144-320 320-320zm0 640v3520h1920V2240H3520zm961 5122c-353 0-639 286-639 639s286 639 639 639 639-286 639-639-286-639-639-639zM960 1600h1920c176 0 320 144 320 320v7360c0 176-144 320-320 320H960c-176 0-320-144-320-320V1920c0-176 144-320 320-320zm0 640v3520h1920V2240H960zm961 5122c-353 0-639 286-639 639s286 639 639 639 639-286 639-639-286-639-639-639z"/></svg>