<svg xmlns="http://www.w3.org/2000/svg" width="1024" height="1024" shape-rendering="geometricPrecision" text-rendering="geometricPrecision" image-rendering="optimizeQuality" clip-rule="evenodd" viewBox="0 0 10240 10240"><title>folder3_music icon</title><desc>folder3_music icon from the IconExperience.com O-Collection. Copyright by INCORS GmbH (www.incors.com).</desc><path fill="#4D82B8" d="M8960 4418l-3200 702v3440c0 530-537 1113-1200 1301s-1200-89-1200-619 537-1113 1200-1301c202-57 393-72 560-48V4419c0-153 104-281 253-313l3840-823c200-43 387 108 387 313v4324c0 530-537 1113-1200 1301s-1200-89-1200-619 537-1113 1200-1301c202-57 393-72 560-48V4418z"/><path fill="#EDC87E" d="M1304 640h7336c176 0 320 144 320 320v1975c0 26-1 51-4 76l-906 194 270-270V1280h-640v2004l-1920 412v-176c0-264-157-496-402-594L1186 1257c-144-57-225-205-195-358 29-151 158-259 313-259zm6376 4386v2269c-159 109-306 239-429 385H6080V5377l1600-351zM640 4458v2892c0 401 231 743 603 891l1828 731c146-645 796-1167 1402-1339 106-30 216-52 327-63V4419c0-304 209-563 506-626l134-29v-244c0-134-77-248-201-297L1042 1554c-246-98-402-336-402-594v3498z"/></svg>