<svg xmlns="http://www.w3.org/2000/svg" width="1024" height="1024" shape-rendering="geometricPrecision" text-rendering="geometricPrecision" image-rendering="optimizeQuality" clip-rule="evenodd" viewBox="0 0 10240 10240"><title>folder_open icon</title><desc>folder_open icon from the IconExperience.com O-Collection. Copyright by INCORS GmbH (www.incors.com).</desc><path fill="#EDC87E" d="M3630 1280c352 0 656 126 905 375l530 530c249 249 553 375 905 375h1710c353 0 640 288 640 640v640h-640v-640H5970c-522 0-988-193-1357-562l-531-531c-129-129-270-187-452-187l-2350 1v6060c0 107 48 200 136 262 88 61 191 75 292 39 168-60 303-189 373-364l1342-3356c99-248 327-402 594-402h5278c219 0 407 100 530 281 122 181 145 393 64 597L8642 8155c-199 496-654 805-1189 805H1600c-529 0-960-431-960-960V1920c0-353 287-640 640-640h2350z"/></svg>