<svg xmlns="http://www.w3.org/2000/svg" width="1024" height="1024" shape-rendering="geometricPrecision" text-rendering="geometricPrecision" image-rendering="optimizeQuality" clip-rule="evenodd" viewBox="0 0 10240 10240"><title>folder2 icon</title><desc>folder2 icon from the IconExperience.com O-Collection. Copyright by INCORS GmbH (www.incors.com).</desc><path fill="#EDC87E" d="M4160 1600h1920v960H4160z"/><path fill="gray" d="M3520 640h3200c176 0 320 144 320 320v8320c0 176-144 320-320 320H3520c-176 0-320-144-320-320V960c0-176 144-320 320-320zm1600 6080c-530 0-960 430-960 960s430 960 960 960 960-430 960-960-430-960-960-960zM3840 1280v3840h2560V1280H3840z"/></svg>