<svg xmlns="http://www.w3.org/2000/svg" width="1024" height="1024" shape-rendering="geometricPrecision" text-rendering="geometricPrecision" image-rendering="optimizeQuality" clip-rule="evenodd" viewBox="0 0 10240 10240"><title>folder_cubes icon</title><desc>folder_cubes icon from the IconExperience.com O-Collection. Copyright by INCORS GmbH (www.incors.com).</desc><path fill="#4D82B8" d="M8081 6472c78-21 160-11 234 31l1120 622c105 58 165 161 165 280v1223c0 120-60 222-165 280l-1120 622c-99 56-211 56-310 0l-1120-622c-105-58-165-160-165-280 0 135-41 240-165 308l-1120 623c-99 55-211 55-310 0l-1120-623c-105-58-165-160-165-279V7433c0-119 60-222 165-280l1120-622c75-42 158-52 237-30-60-59-94-138-94-227V5050c0-119 60-222 165-279l1120-623c99-55 211-55 311 0l1120 623c104 57 164 160 164 279v1224c0 75-24 143-67 198zM5762 4954l946 526 947-526-947-526-946 526zm786 802l-960-534v1052l960 533V5756zM4334 7337l946 525 946-525-946-526c-1 0-864 480-946 526zm786 801l-960-533v1052l960 533V8138zm2094-830l946 526 946-526-946-525-946 525zm786 802l-960-533v1051l960 534V8110z"/><path fill="#EDC87E" d="M3630 1280c352 0 656 126 905 375l530 530c249 249 553 375 905 375h1710c353 0 640 288 640 640v320h-640v-320H5970c-522 0-988-193-1357-562l-531-531c-129-129-270-187-452-187H1281c-1 0-1 0-1 1v6079c0 176 144 320 320 320s320-144 320-320V4480c0-353 287-640 640-640h3895c-19 8-39 18-58 29l-1120 622c-206 114-329 324-329 559v1213l-1099 611c-206 114-329 324-329 559v1224c0 109 26 212 75 303H1600c-529 0-960-431-960-960V1920c0-353 287-640 640-640h2350zm3331 2560h1359c353 0 640 287 640 640v2015l-489-272c-1 0-2-1-3-1V5050c0-235-123-445-329-559l-1120-622c-19-11-38-20-58-29z"/></svg>