<svg xmlns="http://www.w3.org/2000/svg" width="1024" height="1024" shape-rendering="geometricPrecision" text-rendering="geometricPrecision" image-rendering="optimizeQuality" clip-rule="evenodd" viewBox="0 0 10240 10240"><title>folder_window icon</title><desc>folder_window icon from the IconExperience.com O-Collection. Copyright by INCORS GmbH (www.incors.com).</desc><path fill="#4D82B8" d="M9600 9280c0 176-144 320-320 320H4160c-176 0-320-144-320-320V5760c0-353 288-640 640-640h4480c352 0 640 288 640 640v3520zM4479 6400l1 2560h4481l-1-2560H4479z"/><path fill="#EDC87E" d="M3630 1280c352 0 656 126 905 375l530 530c249 249 553 375 905 375h1710c353 0 640 288 640 640v320h-640v-320H5970c-522 0-988-193-1357-562l-531-531c-129-129-270-187-452-187H1280v6080c0 176 144 320 320 320s320-144 320-320V4480c0-353 287-640 640-640h5760c353 0 640 287 640 640v320H4480c-529 0-960 431-960 960v3200H1600c-529 0-960-431-960-960V1920c0-353 287-640 640-640h2350z"/></svg>