<svg xmlns="http://www.w3.org/2000/svg" width="1024" height="1024" shape-rendering="geometricPrecision" text-rendering="geometricPrecision" image-rendering="optimizeQuality" clip-rule="evenodd" viewBox="0 0 10240 10240"><title>font_style_italics icon</title><desc>font_style_italics icon from the IconExperience.com O-Collection. Copyright by INCORS GmbH (www.incors.com).</desc><path fill="gray" d="M7389 2152l-436 871c-55 111-162 177-286 177h-968c-57 0-106-27-136-76-30-48-33-105-7-156l436-871c55-111 162-177 286-177h968c57 0 106 27 136 76 30 48 33 104 7 156zM6269 4392L4073 8783c-55 111-162 177-286 177h-968c-57 0-106-27-136-76-30-48-33-105-7-156l2196-4391c55-111 162-177 286-177h968c57 0 106 27 136 76 30 48 33 105 7 156z"/></svg>