<svg xmlns="http://www.w3.org/2000/svg" width="1024" height="1024" shape-rendering="geometricPrecision" text-rendering="geometricPrecision" image-rendering="optimizeQuality" clip-rule="evenodd" viewBox="0 0 10240 10240"><title>font_style_strikethrough icon</title><desc>font_style_strikethrough icon from the IconExperience.com O-Collection. Copyright by INCORS GmbH (www.incors.com).</desc><path fill="gray" d="M1280 5760h1473c-128-248-193-521-193-800 0-970 790-1760 1760-1760h1600c908 0 1671 697 1753 1600H6372c-68-190-249-320-452-320H4320c-264 0-480 216-480 480 0 132 54 252 141 339s207 141 339 141h1600c376 0 724 119 1011 320h2029v640H7487c128 248 193 521 193 800 0 970-790 1760-1760 1760H4320c-908 0-1671-697-1753-1600h1301c68 190 249 320 452 320h1600c264 0 480-216 480-480s-216-480-480-480H4320c-376 0-724-119-1011-320H1280v-640z"/></svg>