<svg xmlns="http://www.w3.org/2000/svg" width="1024" height="1024" shape-rendering="geometricPrecision" text-rendering="geometricPrecision" image-rendering="optimizeQuality" clip-rule="evenodd" viewBox="0 0 10240 10240"><title>forklift icon</title><desc>forklift icon from the IconExperience.com O-Collection. Copyright by INCORS GmbH (www.incors.com).</desc><path fill="gray" d="M7680 1280v7360h1920v320l-640 320H7360c-177 0-320-143-320-320V1280h640zM5440 9600c-707 0-1280-573-1280-1280s573-1280 1280-1280 1280 573 1280 1280-573 1280-1280 1280zm0-640c353 0 640-287 640-640s-287-640-640-640-640 287-640 640 287 640 640 640zm-3840-640c-177 0-320 143-320 320s143 320 320 320 320-143 320-320-143-320-320-320zm0-640c530 0 960 430 960 960s-430 960-960 960-960-430-960-960 430-960 960-960z"/><path fill="#4D82B8" d="M1920 5440h640V3200c0-353 287-640 640-640h1779c280 0 518 172 607 438l1068 3205c46 137 66 260 66 405v752c-292-389-757-640-1280-640-884 0-1600 716-1600 1600 0 228 48 444 133 640H2840c26-102 40-210 40-320 0-707-573-1280-1280-1280-382 0-725 168-960 433V6720c0-705 575-1280 1280-1280zm3814 63l-755-2303H3201l-1 2560c0 176 144 320 320 320h1928c173 0 325-139 320-312l-3-86c-2-64-12-118-31-179z"/></svg>