<svg xmlns="http://www.w3.org/2000/svg" width="1024" height="1024" shape-rendering="geometricPrecision" text-rendering="geometricPrecision" image-rendering="optimizeQuality" clip-rule="evenodd" viewBox="0 0 10240 10240"><title>garbage_can icon</title><desc>garbage_can icon from the IconExperience.com O-Collection. Copyright by INCORS GmbH (www.incors.com).</desc><path fill="#E68497" d="M2240 3520h5760v5504c0 317-288 576-640 576H2880c-352 0-640-259-640-576V3520zm5284 320c-86 0-156 287-156 640v3840c0 352 70 640 156 640s156-288 156-640V4480c0-352-70-640-156-640zm-2404 0c-353 0-640 287-640 640v3840c0 352 288 640 640 640s640-288 640-640V4480c0-352-287-640-640-640zm-1600 0c-176 0-320 287-320 640v3840c0 352 144 640 320 640s320-288 320-640V4480c0-352-144-640-320-640zm-804 0c-86 0-156 288-156 640v3840c0 352 70 640 156 640s156-288 156-640V4480c0-352-70-640-156-640zm4004 0c-176 0-320 287-320 640v3840c0 352 144 640 320 640s320-288 320-640V4480c0-352-144-640-320-640zM4480 1930h-640v-330c0-176 144-320 320-320h1920c176 0 320 144 320 320v330h-640v-330H4480v330z"/><path fill="#E68497" d="M2560 1920h5120c353 0 640 288 640 640v640H1920v-640c0-353 287-640 640-640z"/></svg>