<svg xmlns="http://www.w3.org/2000/svg" width="1024" height="1024" shape-rendering="geometricPrecision" text-rendering="geometricPrecision" image-rendering="optimizeQuality" clip-rule="evenodd" viewBox="0 0 10240 10240"><title>graduate icon</title><desc>graduate icon from the IconExperience.com O-Collection. Copyright by INCORS GmbH (www.incors.com).</desc><path fill="gray" d="M4480 8960l394-2166-207-207c-124-124-187-276-187-452v-126c206 46 420 71 640 71s434-25 640-71v126c0 176-63 328-187 452l-207 207 394 2166-640 640-640-640z"/><path fill="gray" d="M8320 8470c0 716-1502 1049-2734 1117l400-401c77-76 108-177 89-283l-364-2001 88-88c184-185 281-418 281-679v-52-74c0-31-4-61-12-89 209-73 406-168 589-284 1082 807 1663 1074 1663 2834zM4654 9587c-1232-68-2734-401-2734-1116 0-1760 582-2029 1663-2835 183 116 381 212 589 284-8 28-12 58-12 89v126c0 261 97 494 281 679l88 88-364 2001c-19 106 12 207 89 283l400 401"/><path fill="#EFC1B4" d="M7661 2880c13 101 19 205 19 309 0 1408-1146 2550-2560 2550S2560 4597 2560 3189c0-104 6-208 19-309h5082z"/><path fill="#ED9A56" d="M8320 1280h320v1627c186 66 320 244 320 453 0 183-103 343-254 424l204 817c13 50 3 97-29 137-31 41-75 62-126 62h-550c-51 0-95-21-126-62-32-40-42-87-29-137l204-817c-151-81-254-241-254-424 0-209 134-387 320-453V1280z"/><path fill="gray" d="M7040 960l561 1600H2639l561-1600H1600V320h7040v640z"/></svg>