<svg xmlns="http://www.w3.org/2000/svg" width="1024" height="1024" shape-rendering="geometricPrecision" text-rendering="geometricPrecision" image-rendering="optimizeQuality" clip-rule="evenodd" viewBox="0 0 10240 10240"><title>history icon</title><desc>history icon from the IconExperience.com O-Collection. Copyright by INCORS GmbH (www.incors.com).</desc><path fill="#EDC87E" d="M3840 7360h-640v-656c105 11 212 16 320 16s215-5 320-16v656zm2864-4160h1936c530 0 960 430 960 960s-430 960-960 960v-640c177 0 320-143 320-320s-143-320-320-320-320 143-320 320v4480c0 530-430 960-960 960H2880c-537 0-971-441-960-979 10-522 437-941 959-941h4161c176 0 320 144 320 320v86c0 117-58 218-160 277-96 55-160 159-160 277 0 177 143 320 320 320s320-143 320-320V4160c0-112 19-220 55-320H6704c11-105 16-212 16-320s-5-215-16-320zM3840 8960h2615c-36-100-55-208-55-320s19-220 55-320H2880c-176 0-320 144-320 320 0 177 143 320 320 320h960z"/><path fill="#4D82B8" d="M2849 1721l671 1159c116 0 226 31 320 85l877-507c141 160 252 348 321 554l-878 508c0 353-287 640-640 640s-640-287-640-640c0-116 31-226 85-320l-670-1159c164-136 351-245 554-320z"/><path fill="gray" d="M3520 640c1591 0 2880 1289 2880 2880S5111 6400 3520 6400 640 5111 640 3520 1929 640 3520 640zm0 640c-1237 0-2240 1003-2240 2240s1003 2240 2240 2240 2240-1003 2240-2240-1003-2240-2240-2240z"/></svg>