<?xml version="1.0" encoding="utf-8"?>
<!-- Generator: Adobe Illustrator 21.0.2, SVG Export Plug-In . SVG Version: 6.00 Build 0)  -->
<svg version="1.1"
	 id="Layer_1" image-rendering="optimizeQuality" shape-rendering="geometricPrecision" text-rendering="geometricPrecision"
	 xmlns="http://www.w3.org/2000/svg" xmlns:xlink="http://www.w3.org/1999/xlink" x="0px" y="0px" viewBox="0 0 1024 1024"
	 style="enable-background:new 0 0 1024 1024;" xml:space="preserve">
<style type="text/css">
	.st0{fill:#808080;}
</style>
<title>keyboard_key_plus icon</title>
<desc>keyboard_key_plus icon from the IconExperience.com O-Collection. Copyright by INCORS GmbH (www.incors.com).</desc>
<path id="curve0" class="st0" d="M256,128h512c70.5,0,128,57.5,128,128v512c0,70.5-57.5,128-128,128H256c-70.5,0-128-57.5-128-128
	V256C128,185.5,185.5,128,256,128z M334.9,483.9l67.9-67.9l-67.9-67.9l45.3-45.3l67.9,67.9l67.9-67.9l45.3,45.3L493.3,416l67.9,67.9
	l-45.3,45.3L448,461.3l-67.9,67.9L334.9,483.9z M320,192c-52.9,0-96,43.1-96,96v384c0,52.9,43.1,96,96,96h384c52.9,0,96-43.1,96-96
	V288c0-52.9-43.1-96-96-96H320z M320,224c-35.3,0-64,28.7-64,64v384c0,35.2,28.8,64,64,64h384c35.2,0,64-28.8,64-64V288
	c0-35.2-28.7-64-64-64H320z"/>
</svg>
