<svg id="Layer_1" image-rendering="optimizeQuality" shape-rendering="geometricPrecision" text-rendering="geometricPrecision" xmlns="http://www.w3.org/2000/svg" viewBox="0 0 1024 1024"><style>.st0{fill:gray}</style><title>keyboard_key_plus icon</title><desc>keyboard_key_plus icon from the IconExperience.com O-Collection. Copyright by INCORS GmbH (www.incors.com).</desc><path id="curve0" class="st0" d="M256 128h512c70.5 0 128 57.5 128 128v512c0 70.5-57.5 128-128 128H256c-70.5 0-128-57.5-128-128V256c0-70.5 57.5-128 128-128zm66 416l170-256h84L406 544h10-94zm-2-352c-52.9 0-96 43.1-96 96v384c0 52.9 43.1 96 96 96h384c52.9 0 96-43.1 96-96V288c0-52.9-43.1-96-96-96H320zm0 32c-35.3 0-64 28.7-64 64v384c0 35.2 28.8 64 64 64h384c35.2 0 64-28.8 64-64V288c0-35.2-28.7-64-64-64H320z"/></svg>