<svg xmlns="http://www.w3.org/2000/svg" width="1024" height="1024" shape-rendering="geometricPrecision" text-rendering="geometricPrecision" image-rendering="optimizeQuality" clip-rule="evenodd" viewBox="0 0 10240 10240"><title>keyboard_key_plus icon</title><desc>keyboard_key_plus icon from the IconExperience.com O-Collection. Copyright by INCORS GmbH (www.incors.com).</desc><path fill="gray" d="M2560 1280h5120c705 0 1280 575 1280 1280v5120c0 705-575 1280-1280 1280H2560c-705 0-1280-575-1280-1280V2560c0-705 575-1280 1280-1280zm640 2560h960v-960h640v960h960v640h-960v960h-640v-960h-960v-640zm0-1920c-529 0-960 431-960 960v3840c0 529 431 960 960 960h3840c529 0 960-431 960-960V2880c0-529-431-960-960-960H3200zm0 320c-353 0-640 287-640 640v3840c0 352 288 640 640 640h3840c352 0 640-288 640-640V2880c0-352-287-640-640-640H3200z"/></svg>