<svg xmlns="http://www.w3.org/2000/svg" width="1024" height="1024" shape-rendering="geometricPrecision" text-rendering="geometricPrecision" image-rendering="optimizeQuality" clip-rule="evenodd" viewBox="0 0 10240 10240"><title>loudspeaker4 icon</title><desc>loudspeaker4 icon from the IconExperience.com O-Collection. Copyright by INCORS GmbH (www.incors.com).</desc><path fill="gray" d="M6080 8947c1971-163 3520-1814 3520-3827S8051 1456 6080 1293v643c1617 160 2880 1525 2880 3184S7697 8144 6080 8304v643z"/><path fill="gray" d="M6080 7660c1263-157 2240-1235 2240-2540s-977-2383-2240-2540v647c908 152 1600 942 1600 1893s-692 1741-1600 1893v647z"/><path fill="gray" d="M6080 6360c552-142 960-644 960-1240s-408-1098-960-1240v686c191 110 320 317 320 554s-129 444-320 554v686zM960 3520h320v-320h1280v3840H1280v-320H960c-220 0-320-144-320-320V3840c0-176 100-320 320-320zM5440 640c176 0 320 144 320 320v8320c0 176-144 320-320 320s-320-144-320-320L2880 7040V3200L5120 960c0-176 144-320 320-320z"/></svg>