<svg xmlns="http://www.w3.org/2000/svg" width="1024" height="1024" shape-rendering="geometricPrecision" text-rendering="geometricPrecision" image-rendering="optimizeQuality" clip-rule="evenodd" viewBox="0 0 10240 10240"><title>medal2 icon</title><desc>medal2 icon from the IconExperience.com O-Collection. Copyright by INCORS GmbH (www.incors.com).</desc><path fill="#ED9A56" d="M1920 1600h1920v3535h87-395L2068 3378c-99-120-148-254-148-410V1600zm4480 0h1920v1368c0 156-49 290-148 410L6708 5135h-248l-60-167V1600zM1920 640h6400v640H1920V640z"/><path fill="#B89A7C" d="M5509 3422l725 2034 2262-4c151 0 278 95 322 239 43 144-12 293-138 376L6877 7247l711 1964c49 138 7 286-108 377s-269 98-392 17L5193 8354 3298 9605c-122 81-276 74-391-17s-158-239-108-377l710-1964-1802-1180c-126-83-181-232-138-376s171-239 322-239l2262 4 725-2034c49-135 171-222 315-222 145 0 267 87 316 222zm-316 1021l-590 1654-1687-3 1367 895-569 1575 1479-977 1480 977-569-1575 1367-895-1688 3-590-1654z"/></svg>