<svg xmlns="http://www.w3.org/2000/svg" width="1024" height="1024" shape-rendering="geometricPrecision" text-rendering="geometricPrecision" image-rendering="optimizeQuality" clip-rule="evenodd" viewBox="0 0 10240 10240"><title>microscope icon</title><desc>microscope icon from the IconExperience.com O-Collection. Copyright by INCORS GmbH (www.incors.com).</desc><path fill="gray" d="M2567 8307l2553 6v-953h640c176 0 320-144 320-320v-640c353 0 640-430 640-960 0-319-104-602-264-777 348-190 584-559 584-983 0-244-78-469-210-653 868 353 1490 1300 1490 2413 0 1018-520 1897-1273 2310v568l633 2c353 1 640 288 640 640v640l-6393-13v-640c0-353 287-641 640-640z"/><path fill="gray" d="M2560 6400h3200v640H2560zM3367 627h1600c88 0 160 72 160 160v320c0 88-72 160-160 160h-160v640l320 320v662c-202 203-327 482-327 791 0 226 67 436 182 612l-175 175v960l-320 320h-640l-320-320v-960l-320-320V2227l320-320v-640h-160c-88 0-160-72-160-160V787c0-88 72-160 160-160zM5920 2880c442 0 800 358 800 800s-358 800-800 800-800-358-800-800 358-800 800-800z"/></svg>