<svg xmlns="http://www.w3.org/2000/svg" width="1024" height="1024" shape-rendering="geometricPrecision" text-rendering="geometricPrecision" image-rendering="optimizeQuality" clip-rule="evenodd" viewBox="0 0 10240 10240"><title>odometer icon</title><desc>odometer icon from the IconExperience.com O-Collection. Copyright by INCORS GmbH (www.incors.com).</desc><path fill="gray" d="M7680 3840h640c353 0 640 287 640 640v1280c0 353-287 640-640 640h-640c-353 0-640-287-640-640V4480c0-353 287-640 640-640zm0 640v1280h640V4480h-640z"/><path fill="gray" d="M960 2560h8320c353 0 640 287 640 640v3840c0 353-287 640-640 640H960c-352 0-640-287-640-640V3200c0-353 288-640 640-640zm960 1280c-353 0-640 287-640 640v1280c0 353 287 640 640 640h640c353 0 640-287 640-640V4480c0-353-287-640-640-640h-640zm0 640v1280h640V4480h-640zm2880-640c-353 0-640 287-640 640v1280c0 353 287 640 640 640h640c353 0 640-287 640-640V4480c0-353-287-640-640-640h-640zm0 640v1280h640V4480h-640zm1920-1280v3840h2560V3200H6720z"/></svg>