<svg xmlns="http://www.w3.org/2000/svg" width="1024" height="1024" shape-rendering="geometricPrecision" text-rendering="geometricPrecision" image-rendering="optimizeQuality" clip-rule="evenodd" viewBox="0 0 10240 10240"><title>office_building2 icon</title><desc>office_building2 icon from the IconExperience.com O-Collection. Copyright by INCORS GmbH (www.incors.com).</desc><path fill="gray" d="M3520 7680h1280v1920H3520z"/><path fill="#4D82B8" d="M5760 7680h640v1280h-640V7680zM3200 1920h640v1280h-640V1920zm1280 0h640v1280h-640V1920zM3200 3840h640v1280h-640V3840zm1280 0h640v1280h-640V3840zM3200 5760h640v1280h-640V5760zm1280 0h640v1280h-640V5760zm1280 0h640v1280h-640V5760zm1280 0h640v1280h-640V5760zm0 1920h640v1280h-640V7680z"/><path fill="gray" d="M2240 640h3840c176 0 320 155 320 345v3495h2240c176 0 320 164 320 366v4754H5120v-320h3200V5120H5760V1280H2560v8000h640v320H1920V985c0-190 144-345 320-345z"/></svg>