<svg xmlns="http://www.w3.org/2000/svg" width="1024" height="1024" shape-rendering="geometricPrecision" text-rendering="geometricPrecision" image-rendering="optimizeQuality" clip-rule="evenodd" viewBox="0 0 10240 10240"><title>office_building icon</title><desc>office_building icon from the IconExperience.com O-Collection. Copyright by INCORS GmbH (www.incors.com).</desc><path fill="#4D82B8" d="M6080 8000h1280v1600H6080z"/><path fill="gray" d="M4160 5120h5120c176 0 320 144 320 320v4160H7680V7680H5760v1920H3840V5440c0-176 144-320 320-320zm320 2560v1280h640V7680h-640zm2-1928v1280h640V5752h-640zm1280 0v1280h640V5752h-640zm1280 0v1280h640V5752h-640zm1280 0v1280h640V5752h-640zm-2 1928v1280h640V7680h-640z"/><path fill="gray" d="M960 640h5120c176 0 320 144 320 320v3840H4160c-353 0-640 287-640 640v4160H640V960c0-176 144-320 320-320zm320 4480v1280h640V5120h-640zm3840-1920v1280h640V3200h-640zm-1280 0v1280h640V3200h-640zm-1280 0v1280h640V3200h-640zm-1280 0v1280h640V3200h-640zm3840-1920v1280h640V1280h-640zm-1280 0v1280h640V1280h-640zm-1280 0v1280h640V1280h-640zm-1280 0v1280h640V1280h-640zm1280 5760v1280h640V7040h-640zm-1280 0v1280h640V7040h-640zm1280-1920v1280h640V5120h-640z"/></svg>