<svg xmlns="http://www.w3.org/2000/svg" width="1024" height="1024" shape-rendering="geometricPrecision" text-rendering="geometricPrecision" image-rendering="optimizeQuality" clip-rule="evenodd" viewBox="0 0 10240 10240"><title>photographic_filters icon</title><desc>photographic_filters icon from the IconExperience.com O-Collection. Copyright by INCORS GmbH (www.incors.com).</desc><path fill="gray" d="M5920 640c2032 0 3680 1648 3680 3680 0 687-189 1330-517 1881 128-391 197-808 197-1241 0-2209-1791-4000-4000-4000-433 0-850 69-1241 197 551-328 1194-517 1881-517z"/><path fill="gray" d="M5280 1280c2032 0 3680 1648 3680 3680 0 687-189 1330-516 1881 127-391 196-808 196-1241 0-2209-1791-4000-4000-4000-433 0-850 69-1241 196 551-327 1194-516 1881-516z"/><path fill="#76A797" d="M4640 2880c1502 0 2720 1218 2720 2720S6142 8320 4640 8320 1920 7102 1920 5600s1218-2720 2720-2720zM3120 5600c0-420 170-800 445-1075s655-445 1075-445c177 0 320-143 320-320s-143-320-320-320c-596 0-1136 242-1527 633s-633 931-633 1527c0 177 143 320 320 320s320-143 320-320z"/><path fill="gray" d="M4640 1920c2032 0 3680 1648 3680 3680S6672 9280 4640 9280 960 7632 960 5600s1648-3680 3680-3680zm0 640c-1679 0-3040 1361-3040 3040s1361 3040 3040 3040 3040-1361 3040-3040-1361-3040-3040-3040z"/></svg>