<svg xmlns="http://www.w3.org/2000/svg" width="1024" height="1024" shape-rendering="geometricPrecision" text-rendering="geometricPrecision" image-rendering="optimizeQuality" clip-rule="evenodd" viewBox="0 0 10240 10240"><title>playing_cards icon</title><desc>playing_cards icon from the IconExperience.com O-Collection. Copyright by INCORS GmbH (www.incors.com).</desc><path fill="gray" d="M8000 1813l1567 785c315 158 443 543 285 858L8000 7156V5728l1281-2557-1281-642v-716zm-533 6406l-194 388c-157 315-543 443-858 286l-1144-573h1769c153 0 299-36 427-101zM5219 960h1821c353 0 640 288 640 640v4270l-639-1277V1601l-1499-1-290-579c-11-21-22-41-33-61zm2461 6289v111c0 352-288 640-640 640h-718l1080-541c108-54 201-125 278-210zM673 2598L4107 878c315-158 701-29 859 286l2579 5150c157 315 29 701-286 859L3825 8892c-315 158-701 30-858-285L388 3456c-158-315-30-701 285-858zm287 572l2579 5150 3434-1719-2579-5150L960 3170z"/><path fill="#E68497" d="M4457 6030c-599-300-1412-126-1786-873-159-318-33-680 293-844 327-163 580-78 772 112-28-272 46-521 373-685 327-163 691-47 851 271 374 747-252 1293-371 1953-5 29-22 52-49 66-27 13-56 13-83 0z"/></svg>