<svg xmlns="http://www.w3.org/2000/svg" width="1024" height="1024" shape-rendering="geometricPrecision" text-rendering="geometricPrecision" image-rendering="optimizeQuality" clip-rule="evenodd" viewBox="0 0 10240 10240"><title>precision_square icon</title><desc>precision_square icon from the IconExperience.com O-Collection. Copyright by INCORS GmbH (www.incors.com).</desc><path fill="gray" d="M1280 640h7680v2560H4480c0-353-287-640-640-640s-640 287-640 640 287 640 640 640v5760H1280V640zm7040 1920V1280H1920v7680h1280v-320h-320v-320h320v-320h-640v-320h640v-320h-320v-320h320v-320h-640v-320h640v-320h-320v-320h320v-320h-640v-320h640v-320h-320v-320h320v-171c-383-222-640-635-640-1109 0-707 573-1280 1280-1280 474 0 887 257 1109 640h171v-320h320v320h320v-640h320v640h320v-320h320v320h320v-640h320v640h320v-320h320v320h320z"/></svg>