<svg xmlns="http://www.w3.org/2000/svg" width="1024" height="1024" shape-rendering="geometricPrecision" text-rendering="geometricPrecision" image-rendering="optimizeQuality" clip-rule="evenodd" viewBox="0 0 10240 10240"><title>presentation_chart icon</title><desc>presentation_chart icon from the IconExperience.com O-Collection. Copyright by INCORS GmbH (www.incors.com).</desc><path fill="gray" d="M7040 8884l-1584-793v-731h-640v715l-1616 809c-79 40-133 102-161 186s-22 166 18 245c79 157 272 221 429 142l1634-818 1634 818c157 79 350 15 429-142 40-79 46-161 18-245s-82-146-161-186z"/><path fill="#EDC87E" d="M6782 2807c348 347 562 827 562 1357 0 531-214 1011-562 1358L5424 4164l1358-1357z"/><path fill="#4D82B8" d="M4800 2240c530 0 1010 215 1358 562L4800 4160l1358 1358c-348 347-828 562-1358 562-1060 0-1920-860-1920-1920s860-1920 1920-1920z"/><path fill="gray" d="M8320 1280c176 0 320 144 320 320s-144 320-320 320v4492c178 0 323 141 323 320 0 176-143 320-320 320H1923c-176 0-320-144-320-320 0-175 142-318 317-320V1920c-176 0-320-144-320-320s144-320 320-320h6400zm-320 640H2240v4480h5760V1920z"/></svg>