<svg xmlns="http://www.w3.org/2000/svg" width="1024" height="1024" shape-rendering="geometricPrecision" text-rendering="geometricPrecision" image-rendering="optimizeQuality" clip-rule="evenodd" viewBox="0 0 10240 10240"><title>selection_find icon</title><desc>selection_find icon from the IconExperience.com O-Collection. Copyright by INCORS GmbH (www.incors.com).</desc><path fill="#4D82B8" d="M5459 5983c106 600 630 1057 1261 1057 707 0 1280-573 1280-1280 0-181-38-353-105-509-15-34-31-67-49-99l-888-1826c-131-264-403-446-718-446-303 0-566 168-702 416-126-62-268-96-418-96s-292 34-418 96c-136-248-399-416-702-416-315 0-587 182-718 446l-888 1825c-101 187-154 397-154 609 0 707 573 1280 1280 1280 631 0 1155-457 1261-1057 98 61 214 97 339 97s241-36 339-97zm1261-1183c530 0 960 430 960 960s-430 960-960 960-960-430-960-960 430-960 960-960zm-3200 0c530 0 960 430 960 960s-430 960-960 960-960-430-960-960 430-960 960-960z"/><path fill="gray" d="M1280 1280h640v640h-640v-640zm7040 0h640v640h-640v-640zm0 7040h640v640h-640v-640zm-1920 640h1280v-640H6400v640zm-1920 0h1280v-640H4480v640zm-1920 0h1280v-640H2560v640zm-1280-640h640v640h-640v-640zm5120-6400h1280v-640H6400v640zm-1920 0h1280v-640H4480v640zm3840 2560h640v1280h-640V4480zm0-1920h640v1280h-640V2560zm0 3840h640v1280h-640V6400zM1280 4480h640v1280h-640V4480zm1280-2560h1280v-640H2560v640zm-1280 640h640v1280h-640V2560zm0 3840h640v1280h-640V6400z"/></svg>