<svg xmlns="http://www.w3.org/2000/svg" width="1024" height="1024" shape-rendering="geometricPrecision" text-rendering="geometricPrecision" image-rendering="optimizeQuality" clip-rule="evenodd" viewBox="0 0 10240 10240"><title>server icon</title><desc>server icon from the IconExperience.com O-Collection. Copyright by INCORS GmbH (www.incors.com).</desc><path fill="#76A797" d="M2890 7350h4480v1280H2890V7350zm3840 320c-177 0-320 143-320 320s143 320 320 320 320-143 320-320-143-320-320-320zM2880 5120h4480v1280H2880V5120zm3830 330c-177 0-320 143-320 320s143 320 320 320 320-143 320-320-143-320-320-320zM2880 2880h4480v1280H2880V2880zm3840 320c-177 0-320 143-320 320s143 320 320 320 320-143 320-320-143-320-320-320z"/><path fill="gray" d="M7040 1280c177 0 320 143 320 320s-143 320-320 320-320-143-320-320 143-320 320-320z"/><path fill="gray" d="M2240 640h5760c176 0 320 144 320 320v8640H1920V960c0-176 144-320 320-320zm320 6400v1920h5120V7040H2560zm0-2240v1920h5120V4800H2560zm0-2240v1920h5120V2560H2560zM7040 960c-353 0-640 287-640 640s287 640 640 640 640-287 640-640-287-640-640-640z"/></svg>