<svg xmlns="http://www.w3.org/2000/svg" width="1024" height="1024" shape-rendering="geometricPrecision" text-rendering="geometricPrecision" image-rendering="optimizeQuality" clip-rule="evenodd" viewBox="0 0 10240 10240"><title>server_document icon</title><desc>server_document icon from the IconExperience.com O-Collection. Copyright by INCORS GmbH (www.incors.com).</desc><path fill="gray" d="M4480 3200h2670c352 0 656 126 905 375l1170 1170c249 249 375 553 375 905v3950H4480V3200zm3200 960v960h960l-960-960zm-2560-320v5120h3840V6080c0-176-144-320-320-320H7040V4160c0-176-144-320-320-320H5120z"/><path fill="#76A797" d="M1600 5440h2560v640H1600zM1600 3840h2560v640H1600zM1600 2240h2560v640H1600z"/><path fill="gray" d="M960 640h3840c176 0 320 144 320 320v1920h-640v-960H1280v1280h2880v320H1280v1280h2880v320H1280v1280h2880v640H640V960c0-176 144-320 320-320zm3200 320c-177 0-320 143-320 320s143 320 320 320 320-143 320-320-143-320-320-320z"/></svg>