<svg xmlns="http://www.w3.org/2000/svg" width="1024" height="1024" shape-rendering="geometricPrecision" text-rendering="geometricPrecision" image-rendering="optimizeQuality" clip-rule="evenodd" viewBox="0 0 10240 10240"><title>server_id_card icon</title><desc>server_id_card icon from the IconExperience.com O-Collection. Copyright by INCORS GmbH (www.incors.com).</desc><path fill="gray" d="M6838 8960c36-405 215-497 517-723 140 89 307 140 485 140s345-51 485-140c303 226 481 318 517 723H6838zM7840 6753c395 0 716 321 716 716s-321 715-716 715-716-320-716-715 321-716 716-716z"/><path fill="#4D82B8" d="M3840 4480h5120c353 0 640 288 640 640v3840c0 352-288 640-640 640H3840c-352 0-640-288-640-640V5120c0-353 287-640 640-640zm0 2560v320h1280v-320H3840zm0-640v320h2240v-320H3840zm0-1280v640h5120v-640H3840zm2880 1280v2560h2240V6400H6720z"/><path fill="#76A797" d="M1600 5440h1280v640H1600zM1600 3840h2560v320h-320c-284 0-539 124-715 320H1600v-640zM1600 2240h2560v640H1600z"/><path fill="gray" d="M960 640h3840c176 0 320 144 320 320v3200h-640v-640H1280v1280h1655c-36 100-55 208-55 320H1280v1280h1600v640H640V960c0-176 144-320 320-320zm3200 320c-177 0-320 143-320 320s143 320 320 320 320-143 320-320-143-320-320-320zm-2880 960v1280h3200V1920H1280z"/></svg>