<svg xmlns="http://www.w3.org/2000/svg" width="1024" height="1024" shape-rendering="geometricPrecision" text-rendering="geometricPrecision" image-rendering="optimizeQuality" clip-rule="evenodd" viewBox="0 0 10240 10240"><title>server_cloud icon</title><desc>server_cloud icon from the IconExperience.com O-Collection. Copyright by INCORS GmbH (www.incors.com).</desc><path fill="#76A797" d="M1600 8000h2560v640H1600zM1600 6400h2560v640H1600zM1600 4800h2560v640H1600z"/><path fill="gray" d="M960 3200h3840c176 0 320 144 320 320v6080H640V3520c0-176 144-320 320-320zm3200 320c-177 0-320 143-320 320s143 320 320 320 320-143 320-320-143-320-320-320zm-2880 960v1280h3200V4480H1280zm0 3200v1280h3200V7680H1280zm0-1600v1280h3200V6080H1280z"/><path fill="gray" d="M9253 2852c408 293 667 771 667 1300 0 883-716 1598-1599 1600l-2881 5v-640l2880-5c530-1 960-430 960-960 0-467-333-856-775-942 73-148 113-314 113-490 0-619-501-1120-1120-1120-344 0-651 155-857 399-173-600-727-1039-1383-1039-795 0-1440 645-1440 1440 0 67 5 133 14 197-211 52-401 148-556 283h-814c169-300 419-547 729-717 118-1037 999-1843 2067-1843 636 0 1220 289 1606 758 200-77 414-118 634-118 972 0 1760 788 1760 1760 0 44-2 88-5 132z"/></svg>