<svg xmlns="http://www.w3.org/2000/svg" width="1024" height="1024" shape-rendering="geometricPrecision" text-rendering="geometricPrecision" image-rendering="optimizeQuality" clip-rule="evenodd" viewBox="0 0 10240 10240"><title>server_network icon</title><desc>server_network icon from the IconExperience.com O-Collection. Copyright by INCORS GmbH (www.incors.com).</desc><path fill="#4D82B8" d="M5440 8640c176 0 320 144 320 320h1280v640H5760c0 176-144 320-320 320h-640c-176 0-320-144-320-320H3200v-640h1280c0-176 144-320 320-320v-640h640v640z"/><path fill="#76A797" d="M3520 6090h3200v960H3520zM3520 4170h3200v960H3520zM3520 2240h3200v960H3520z"/><path fill="gray" d="M7680 960v6720H2560V960c0-176 144-320 320-320h4480c176 0 320 144 320 320zM3200 5760v1600h3840V5760H3200zm0-1920v1600h3840V3840H3200zm0-1920v1600h3840V1920H3200zm3520-960c-177 0-320 143-320 320s143 320 320 320 320-143 320-320-143-320-320-320z"/></svg>