<svg xmlns="http://www.w3.org/2000/svg" width="1024" height="1024" shape-rendering="geometricPrecision" text-rendering="geometricPrecision" image-rendering="optimizeQuality" clip-rule="evenodd" viewBox="0 0 10240 10240"><title>server_into icon</title><desc>server_into icon from the IconExperience.com O-Collection. Copyright by INCORS GmbH (www.incors.com).</desc><path fill="#76A797" d="M3979 7350h4031v1280H3530v-901l449-379zm3391 320c-177 0-320 143-320 320s143 320 320 320 320-143 320-320-143-320-320-320zM3520 5120h4480v1280H4530c-33-118-100-228-201-316l-809-699v-265zm3830 330c-177 0-320 143-320 320s143 320 320 320 320-143 320-320-143-320-320-320zM3520 2880h4480v1280H3520V2880zm3840 320c-177 0-320 143-320 320s143 320 320 320 320-143 320-320-143-320-320-320z"/><path fill="gray" d="M7680 1280c177 0 320 143 320 320s-143 320-320 320-320-143-320-320 143-320 320-320z"/><path fill="gray" d="M2880 640h5760c176 0 320 144 320 320v8640H2560V8000h416c79 0 154-14 224-40v1000h5120V7040H4345c98-90 161-202 190-320h3785V4800H3200v360c-70-26-145-40-224-40h-416V960c0-176 144-320 320-320zm320 1920v1920h5120V2560H3200zM7680 960c-353 0-640 287-640 640s287 640 640 640 640-287 640-640-287-640-640-640z"/><path fill="#4D82B8" d="M2976 5440h-736c-68 0-126 40-150 103-24 64-8 133 44 177l426 360h-640c-176 0-320-144-320-320V4480H640v1280c0 705 575 1280 1280 1280h640l-426 360c-52 44-68 113-44 177 24 63 82 103 150 103h736c81 0 150-28 212-80l930-787c154-129 153-355 1-487l-931-806c-62-53-131-80-212-80z"/></svg>