<svg xmlns="http://www.w3.org/2000/svg" width="1024" height="1024" shape-rendering="geometricPrecision" text-rendering="geometricPrecision" image-rendering="optimizeQuality" clip-rule="evenodd" viewBox="0 0 10240 10240"><title>set_square icon</title><desc>set_square icon from the IconExperience.com O-Collection. Copyright by INCORS GmbH (www.incors.com).</desc><path fill="gray" d="M5233 2673l4734 4734c47 47 60 113 35 174-26 61-82 99-148 99H386c-66 0-122-38-148-99-25-61-12-127 35-174l4734-4734c62-62 164-62 226 0zM3840 6720v320h911v-320h-911zm1649 0v320h911v-320h-911zm-1649-640v320h911v-320h-911zm1649 0v320h911v-320h-911zm-369-1280c-1482 0-2703 1120-2862 2560h322c157-1263 1235-2240 2540-2240s2383 977 2540 2240h322c-159-1440-1380-2560-2862-2560z"/></svg>