<svg xmlns="http://www.w3.org/2000/svg" width="1024" height="1024" shape-rendering="geometricPrecision" text-rendering="geometricPrecision" image-rendering="optimizeQuality" clip-rule="evenodd" viewBox="0 0 10240 10240"><title>sewing_machine icon</title><desc>sewing_machine icon from the IconExperience.com O-Collection. Copyright by INCORS GmbH (www.incors.com).</desc><path fill="gray" d="M640 8320h8960v1280H640zM1691 5760l229 1600 229-1600z"/><path fill="#4D82B8" d="M1600 1280h6080c1058 0 1920 863 1920 1920v4800H5760c320 0 640-640 640-1280V5120c0-705-575-1280-1280-1280H3200v320c0 352-288 1280-640 1280H1280c-352 0-640-927-640-1280V2240c0-529 431-960 960-960zm6080 960c-530 0-960 430-960 960s430 960 960 960 960-430 960-960-430-960-960-960z"/></svg>