<svg xmlns="http://www.w3.org/2000/svg" width="1024" height="1024" shape-rendering="geometricPrecision" text-rendering="geometricPrecision" image-rendering="optimizeQuality" clip-rule="evenodd" viewBox="0 0 10240 10240"><title>share icon</title><desc>share icon from the IconExperience.com O-Collection. Copyright by INCORS GmbH (www.incors.com).</desc><path fill="#4D82B8" d="M6118 7334L3224 6048c122-172 211-369 258-582l2894 1286c-122 172-211 369-258 582zM3224 4192l2894-1286c47 213 136 410 258 582L3482 4774c-47-213-136-410-258-582zM7680 6400c707 0 1280 573 1280 1280s-573 1280-1280 1280-1280-573-1280-1280 573-1280 1280-1280zM7680 1280c707 0 1280 573 1280 1280s-573 1280-1280 1280-1280-573-1280-1280 573-1280 1280-1280zM1920 3840c707 0 1280 573 1280 1280s-573 1280-1280 1280S640 5827 640 5120s573-1280 1280-1280z"/></svg>