<svg xmlns="http://www.w3.org/2000/svg" width="1024" height="1024" shape-rendering="geometricPrecision" text-rendering="geometricPrecision" image-rendering="optimizeQuality" clip-rule="evenodd" viewBox="0 0 10240 10240"><title>shopping_cart_full icon</title><desc>shopping_cart_full icon from the IconExperience.com O-Collection. Copyright by INCORS GmbH (www.incors.com).</desc><path fill="gray" d="M7360 7680c530 0 960 430 960 960s-430 960-960 960-960-430-960-960 430-960 960-960zm-5120 0c530 0 960 430 960 960s-430 960-960 960-960-430-960-960 430-960 960-960zM1920 7356c-264 0-478-214-478-478s214-478 478-478h5120l-448-1084c-45-102-52-211-27-311h-1l752-3008c37-149 140-264 270-322l1228-656c233-124 522-36 647 197 124 233 36 523-197 647l-1069 571-661 2644 682 1605c26 60 41 126 41 195 0 264-214 478-478 478H1920z"/><path fill="#4D82B8" d="M1407 1600h4813c204 0 379 88 505 252 125 165 166 361 116 563l-772 3168c-83 341-414 555-751 483l-3615-767c-261-55-453-256-500-525L777 2374c-35-199 13-384 138-538 126-155 295-236 492-236zm0 656l425 2401 3616 767 772-3168H1407z"/><path fill="#76A797" d="M3273 412l2495 574c142 32 240 155 248 294H2745l145-627c39-172 211-280 383-241zm2458 2164l-439 1912c-40 172-212 280-384 240l-2495-573c-172-40-280-212-240-384l275-1195h3283z"/></svg>