<svg xmlns="http://www.w3.org/2000/svg" width="1024" height="1024" shape-rendering="geometricPrecision" text-rendering="geometricPrecision" image-rendering="optimizeQuality" clip-rule="evenodd" viewBox="0 0 10240 10240"><title>shopping_basket_full icon</title><desc>shopping_basket_full icon from the IconExperience.com O-Collection. Copyright by INCORS GmbH (www.incors.com).</desc><path fill="#4D82B8" d="M960 3200h8320c176 0 320 144 320 320v640c0 176-144 320-320 320h-28l-424-911c-149-319-531-458-851-309l-290 135c-320 149-458 531-309 851l109 234H2753l109-234c149-320 11-702-309-851l-290-135c-320-149-702-10-851 309l-424 911h-28c-176 0-320-144-320-320v-640c0-176 144-320 320-320z"/><path fill="gray" d="M2604 4800h5032l299 640h-895v960h960v-820l630 1352-484 1590c-82 268-327 438-607 438H2701c-280 0-525-169-607-438l-484-1590 630-1352v820h960v-960h-895l299-640zm1236 2240v960h960v-960h-960zm-1528 0l292 960h596v-960h-888zm5324 960l292-960h-888v960h596zM3840 5440v960h960v-960h-960zm1600 0v960h960v-960h-960zm0 1600v960h960v-960h-960zM9445 7165l290-135c160-74 230-265 155-425L8538 3705c-75-160-266-230-426-155l-290 135c-159 75-229 266-154 425l1352 2901c75 159 266 229 425 154zm-8650 0l-290-135c-160-74-230-265-155-425l1352-2900c75-160 266-230 426-155l290 135c159 75 229 266 154 425L1220 7011c-75 159-266 229-425 154z"/><path fill="#ED9A56" d="M5440 640h2560c176 0 320 144 320 320v1920H6720v-320c0-353-287-640-640-640h-960V960c0-176 144-320 320-320z"/><path fill="#ED9A56" d="M3520 2240h2560c176 0 320 144 320 320v320H3200v-320c0-176 144-320 320-320z"/><path fill="#ED9A56" d="M1742 2880l1827-1827c124-124 328-124 452 0l867 867H3520c-353 0-640 287-640 640v320H1742z"/></svg>