<svg xmlns="http://www.w3.org/2000/svg" width="1024" height="1024" shape-rendering="geometricPrecision" text-rendering="geometricPrecision" image-rendering="optimizeQuality" clip-rule="evenodd" viewBox="0 0 10240 10240"><title>shopping_basket icon</title><desc>shopping_basket icon from the IconExperience.com O-Collection. Copyright by INCORS GmbH (www.incors.com).</desc><path fill="gray" d="M960 4800h8320L8146 8522c-82 268-327 438-607 438H2701c-280 0-525-169-607-438L960 4800zm2880 2240v960h960v-960h-960zm-1528 0l292 960h596v-960h-888zm5324 960l292-960h-888v960h596zM2240 5440v960h960v-960h-960zm1600 0v960h960v-960h-960zm1600 0v960h960v-960h-960zm1600 0v960h960v-960h-960zM5440 7040v960h960v-960h-960z"/><path fill="#4D82B8" d="M960 3200h327c-29 194 31 398 180 547l226 226c250 249 656 249 905 0l773-773h3498l773 773c249 249 655 249 905 0l226-226c149-149 209-353 180-547h327c176 0 320 144 320 320v640c0 176-144 320-320 320H960c-176 0-320-144-320-320v-640c0-176 144-320 320-320z"/><path fill="gray" d="M4409 805l226 226c125 125 125 328 0 453L2372 3747c-124 124-328 124-452 0l-227-227c-124-124-124-328 0-452L3956 805c125-125 328-125 453 0zm1422 0l-226 226c-125 125-125 328 0 453l2263 2263c124 124 328 124 452 0l227-227c124-124 124-328 0-452L6284 805c-125-125-328-125-453 0z"/></svg>