<svg xmlns="http://www.w3.org/2000/svg" width="1024" height="1024" shape-rendering="geometricPrecision" text-rendering="geometricPrecision" image-rendering="optimizeQuality" clip-rule="evenodd" viewBox="0 0 10240 10240"><title>shuttlecock icon</title><desc>shuttlecock icon from the IconExperience.com O-Collection. Copyright by INCORS GmbH (www.incors.com).</desc><path fill="gray" d="M4329 646c143-27 290 47 351 185l766 1729 1877 1c91-8 184 23 254 92 69 70 100 163 92 254v1875l1740 770c138 61 212 208 185 351 26 147-55 296-199 351L4470 8158l-94-95-399-398 2329-900-586-259-1758 1144-461-461 1805-1174v-638L3497 7185l-452-452 1807-1808h-639L3040 6728l-461-461 1144-1758-257-580-901 2324-399-399-94-94L3977 845c56-144 205-225 352-199zm4253 5239l-1135-503-1087 708 771 341c6 3 12 5 17 8l1434-554zm-1550-994V3651L5943 4739v861l1089-709zm-453-1693H5337l-708 1087h863l1087-1087zm-1733-415l-499-1126-555 1431c1 3 3 6 4 10l343 772 707-1087z"/><path fill="#E68497" d="M4149 8290l-532 532c-610 610-1600 611-2210 0-610-610-610-1599 0-2209l533-533c755 756 1454 1454 2209 2210z"/></svg>