<svg xmlns="http://www.w3.org/2000/svg" width="1024" height="1024" shape-rendering="geometricPrecision" text-rendering="geometricPrecision" image-rendering="optimizeQuality" clip-rule="evenodd" viewBox="0 0 10240 10240"><title>sign_warning_flammable icon</title><desc>sign_warning_flammable icon from the IconExperience.com O-Collection. Copyright by INCORS GmbH (www.incors.com).</desc><path fill="#EDC87E" d="M5680 1282l3846 6712c117 205 117 439 0 644s-319 322-554 322H1281c-234 0-436-117-553-322s-117-439 0-644l3846-6712c117-205 318-322 553-322s436 117 553 322zm-560 318L1280 8320h7680L5120 1600z"/><path fill="gray" d="M5106 3566c489 332 367 681 299 1046-177 945 1045 1194 896 0 326 331 597 1111 597 1609 0 825-597 1825-1792 1825-1194 0-1792-1000-1792-1825 0-498 163-830 489-1161-326 663 147 1178 489 829 325-332-327-664 163-1327 303-411 814-332 651-996zm-51 1272c-797 682 386 1307 0 1757-206 242-763 296-931-194-321 648 206 1279 982 1279s1141-474 1077-955c-63 537-1025 639-1297 373 651 255 1427-491 859-1063-342-345-815-624-690-1197z"/></svg>