<svg xmlns="http://www.w3.org/2000/svg" width="1024" height="1024" shape-rendering="geometricPrecision" text-rendering="geometricPrecision" image-rendering="optimizeQuality" clip-rule="evenodd" viewBox="0 0 10240 10240"><title>sign_warning_voltage icon</title><desc>sign_warning_voltage icon from the IconExperience.com O-Collection. Copyright by INCORS GmbH (www.incors.com).</desc><path fill="#EDC87E" d="M5680 1282l3846 6712c117 205 117 439 0 644s-319 322-554 322H1281c-234 0-436-117-553-322s-117-439 0-644l3846-6712c117-205 318-322 553-322s436 117 553 322zm-560 318L1280 8320h7680L5120 1600z"/><path fill="gray" d="M4619 3840h1178c60 0 110 30 140 81 29 52 28 111-2 161l-815 1358h701c57 0 106 27 136 76 30 48 33 104 7 156l-524 1048h228c67 0 125 39 149 102s9 131-41 176l-926 847c-40 36-91 50-144 38-52-12-92-46-113-96l-344-847c-20-51-15-104 16-149 31-46 78-71 133-71h402l320-640h-776c-48 0-89-19-120-55-32-36-45-80-38-128l274-1920c12-79 79-137 159-137z"/></svg>