<svg xmlns="http://www.w3.org/2000/svg" width="1024" height="1024" shape-rendering="geometricPrecision" text-rendering="geometricPrecision" image-rendering="optimizeQuality" clip-rule="evenodd" viewBox="0 0 10240 10240"><title>sign_warning_radiation icon</title><desc>sign_warning_radiation icon from the IconExperience.com O-Collection. Copyright by INCORS GmbH (www.incors.com).</desc><path fill="#EDC87E" d="M5680 1282l3846 6712c117 205 117 439 0 644s-319 322-554 322H1281c-234 0-436-117-553-322s-117-439 0-644l3846-6712c117-205 318-322 553-322s436 117 553 322zm-554 308h-12L1268 8320l6 10h7692l6-10-3846-6730z"/><path fill="gray" d="M5533 6087c0-222-185-403-413-403s-413 181-413 403c0 223 185 403 413 403s413-180 413-403zm478-1508l-547 927c205 116 344 333 344 581h1094c81 0 144-66 138-145-45-552-337-1076-832-1406-67-45-157-25-197 43zM4776 6669l-547 926c-41 68-13 154 60 188 511 239 1122 254 1663 0 72-34 99-120 59-188l-547-926c-211 119-477 119-688 0zm0-1163l-547-927c-41-68-131-88-197-43-467 313-786 823-832 1407-6 78 57 144 138 144h1094c0-248 139-465 344-581z"/></svg>