<svg xmlns="http://www.w3.org/2000/svg" width="1024" height="1024" shape-rendering="geometricPrecision" text-rendering="geometricPrecision" image-rendering="optimizeQuality" clip-rule="evenodd" viewBox="0 0 10240 10240"><title>signal_strength_1 icon</title><desc>signal_strength_1 icon from the IconExperience.com O-Collection. Copyright by INCORS GmbH (www.incors.com).</desc><path fill="gray" d="M1280 6400h1280v-960c0-176 144-320 320-320h1280v-960c0-176 144-320 320-320h1280v-960c0-176 144-320 320-320h1280v-960c0-176 144-320 320-320h1600c176 0 320 144 320 320v7680c0 176-144 320-320 320H1280c-176 0-320-144-320-320V6720c0-176 144-320 320-320zm1280 640h-960v1920h960V7040z"/></svg>