<svg xmlns="http://www.w3.org/2000/svg" width="1024" height="1024" shape-rendering="geometricPrecision" text-rendering="geometricPrecision" image-rendering="optimizeQuality" clip-rule="evenodd" viewBox="0 0 10240 10240"><title>signboard_for_rent icon</title><desc>signboard_for_rent icon from the IconExperience.com O-Collection. Copyright by INCORS GmbH (www.incors.com).</desc><path fill="gray" d="M4480 7360h1280v2560H4480z"/><path fill="#4D82B8" d="M2240 4160h800c265 0 480 274 480 480s-66 278-170 366c105 115 170 267 170 434v320h-320v-320c0-176-144-320-320-320h-320v640h-320V4160zm800 640c88 0 160-72 160-160s-72-160-160-160h-480v320h480zm3360-640h320v1600h-276c-28 0-52-14-68-37l-616-969v1006h-320V4160h276c28 0 52 13 68 37l616 969V4160zm960 1600V4480h-320v-320h960v320h-320v1280h-320zM5120 4160v320h-960v320h640v320h-640v320h960v320H3920c-44 0-80-36-80-80V4240c0-44 36-80 80-80h1200zm960-2240h800c265 0 480 274 480 480s-66 278-170 366c105 115 170 267 170 434v320h-320v-320c0-176-144-320-320-320h-320v640h-320V1920zm800 640c88 0 160-72 160-160s-72-160-160-160h-480v320h480zm-1760 960c353 0 640-287 640-640v-320c0-353-287-640-640-640s-640 287-640 640v320c0 353 287 640 640 640zm320-640c0 177-143 320-320 320s-320-143-320-320v-320c0-177 143-320 320-320s320 143 320 320v320zm-1280-960v320h-960v320h640v320h-640v640h-320V2000c0-44 36-80 80-80h1200z"/><path fill="gray" d="M960 640h8320c176 0 320 144 320 320v5760c0 176-144 320-320 320H960c-176 0-320-144-320-320V960c0-176 144-320 320-320zm320 640v5120h7680V1280H1280z"/></svg>