<svg xmlns="http://www.w3.org/2000/svg" width="1024" height="1024" shape-rendering="geometricPrecision" text-rendering="geometricPrecision" image-rendering="optimizeQuality" clip-rule="evenodd" viewBox="0 0 10240 10240"><title>signal_flag_checkered icon</title><desc>signal_flag_checkered icon from the IconExperience.com O-Collection. Copyright by INCORS GmbH (www.incors.com).</desc><path fill="gray" d="M3520 2092c103 17 210 31 320 42v1280c418 40 873 34 1280-18V2116c305-40 583-105 800-196 138-58 301-106 480-143v1280c-179 37-342 85-480 143-217 91-495 156-800 196v1280c305-40 583-105 800-196 138-58 301-106 480-143v1280c-179 37-342 85-480 143-217 91-495 156-800 196V4676c-407 52-862 58-1280 18v1280c-110-11-217-25-320-42V4652c103 17 210 31 320 42V3414c-110-11-217-25-320-42V2092zm4160-407c487 19 953 97 1280 235v1280c-327-138-793-216-1280-235v1280c409 17 900 75 1280 235v1280c-327-137-793-216-1280-235V4245c-440-18-897 13-1280 92V3057c383-79 840-110 1280-92V1685zM2720 640c442 0 800 448 800 800s-126 494-320 640v7520h-960V2080c-194-146-320-288-320-640s358-800 800-800z"/></svg>