<svg xmlns="http://www.w3.org/2000/svg" width="1024" height="1024" shape-rendering="geometricPrecision" text-rendering="geometricPrecision" image-rendering="optimizeQuality" clip-rule="evenodd" viewBox="0 0 10240 10240"><title>signboard_for_sale icon</title><desc>signboard_for_sale icon from the IconExperience.com O-Collection. Copyright by INCORS GmbH (www.incors.com).</desc><path fill="gray" d="M4480 7360h1280v2560H4480z"/><path fill="#4D82B8" d="M4160 1920v320h-960v320h640v320h-640v640h-320V2000c0-44 36-80 80-80h1200zm960 1600c353 0 640-287 640-640v-320c0-353-287-640-640-640s-640 287-640 640v320c0 353 287 640 640 640zm320-640c0 177-143 320-320 320s-320-143-320-320v-320c0-177 143-320 320-320s320 143 320 320v320zm640-960h800c265 0 480 274 480 480s-66 278-170 366c105 115 170 267 170 434v320h-320v-320c0-176-144-320-320-320h-320v640h-320V1920zm800 640c88 0 160-72 160-160s-72-160-160-160h-480v320h480zm1120 1600v320h-960v320h640v320h-640v320h960v320H6800c-44 0-80-36-80-80V4240c0-44 36-80 80-80h1200zm-3833 960h626c-20-222-82-437-173-640h-280c-91 203-153 418-173 640zm633 320h-640v320h-320v-480c0-363 96-708 257-1031 28-56 85-88 143-88h480c58 0 115 32 142 88 162 323 258 668 258 1031v480h-320v-320zm-1622-880c-28-49-81-80-138-80h-320c-88 0-160 72-160 160s72 160 160 160h320c265 0 480 215 480 480s-215 480-480 480h-320c-234 0-435-170-473-400h335c28 49 81 80 138 80h320c88 0 160-72 160-160s-72-160-160-160h-320c-265 0-480-215-480-480s215-480 480-480h320c234 0 435 170 473 400h-335zm2262-400h320v1280h640v320h-960V4160z"/><path fill="gray" d="M960 640h8320c176 0 320 144 320 320v5760c0 176-144 320-320 320H960c-176 0-320-144-320-320V960c0-176 144-320 320-320zm320 640v5120h7680V1280H1280z"/></svg>