<svg xmlns="http://www.w3.org/2000/svg" width="1024" height="1024" shape-rendering="geometricPrecision" text-rendering="geometricPrecision" image-rendering="optimizeQuality" clip-rule="evenodd" viewBox="0 0 10240 10240"><title>signboard_closed icon</title><desc>signboard_closed icon from the IconExperience.com O-Collection. Copyright by INCORS GmbH (www.incors.com).</desc><path fill="#4D82B8" d="M1920 5440h320c176 0 320 144 320 320v80h-320c0-44-36-80-80-80h-160c-44 0-80 36-80 80v800c0 44 36 80 80 80h160c44 0 80-36 80-80h320v80c0 176-144 320-320 320h-320c-176 0-320-144-320-320v-960c0-176 144-320 320-320zm5840 0h240c353 0 640 288 640 640v320c0 352-288 640-640 640h-240c-44 0-80-36-80-80V5520c0-44 36-80 80-80zm240 320v960c176 0 320-144 320-320v-320c0-176-144-320-320-320zm-640-320v320h-640v320h320v320h-320v320h640v320h-880c-44 0-80-36-80-80V5520c0-44 36-80 80-80h880zm-1280 320v80h-320c0-44-36-80-80-80h-160c-44 0-80 36-80 80v160c0 44 36 80 80 80h240c176 0 320 144 320 320v320c0 176-144 320-320 320h-320c-176 0-320-144-320-320v-80h320c0 44 36 80 80 80h160c44 0 80-36 80-80v-160c0-44-36-80-80-80h-240c-176 0-320-144-320-320v-320c0-176 144-320 320-320h320c176 0 320 144 320 320zm-1920-320h320c176 0 320 144 320 320v960c0 176-144 320-320 320h-320c-176 0-320-144-320-320v-960c0-176 144-320 320-320zm320 400c0-44-36-80-80-80h-160c-44 0-80 36-80 80v800c0 44 36 80 80 80h160c44 0 80-36 80-80v-800zm-1600-400h320v1280h420v320h-740V5440z"/><path fill="gray" d="M960 3200h8320c176 0 320 144 320 320v5760c0 176-144 320-320 320H960c-176 0-320-144-320-320V3520c0-176 144-320 320-320zm320 640v5120h7680V3840H1280zM5120 320c194 0 366 98 512 219l2809 2341h-498L5753 1055c-46 308-312 545-633 545s-587-237-633-545L2297 2880h-498L4608 539c146-121 318-219 512-219z"/></svg>