<svg xmlns="http://www.w3.org/2000/svg" width="1024" height="1024" shape-rendering="geometricPrecision" text-rendering="geometricPrecision" image-rendering="optimizeQuality" clip-rule="evenodd" viewBox="0 0 10240 10240"><title>sign_forbidden icon</title><desc>sign_forbidden icon from the IconExperience.com O-Collection. Copyright by INCORS GmbH (www.incors.com).</desc><path fill="#E68497" d="M640 5120c0-2474 2006-4480 4480-4480s4480 2006 4480 4480-2006 4480-4480 4480S640 7594 640 5120zm1789 1731l4422-4422c-499-322-1093-509-1731-509-1767 0-3200 1433-3200 3200 0 638 187 1232 509 1731zm5382-3462L3389 7811c499 322 1093 509 1731 509 1767 0 3200-1433 3200-3200 0-638-187-1232-509-1731z"/></svg>