<svg xmlns="http://www.w3.org/2000/svg" width="1024" height="1024" shape-rendering="geometricPrecision" text-rendering="geometricPrecision" image-rendering="optimizeQuality" clip-rule="evenodd" viewBox="0 0 10240 10240"><title>sim_card icon</title><desc>sim_card icon from the IconExperience.com O-Collection. Copyright by INCORS GmbH (www.incors.com).</desc><path fill="#EDC87E" d="M3200 4480h3520c176 0 320 144 320 320v3520c0 176-144 320-320 320H3200c-176 0-320-144-320-320V4800c0-176 144-320 320-320zm0 2880v960h960v-960h-960zm0-2560v2240h3520v-960H4160V4800h-960zm2560 0v960h960v-960h-960zm-1280 0v960h960v-960h-960zm1280 2560v960h960v-960h-960zm-1280 0v960h960v-960h-960z"/><path fill="gray" d="M7813 1733l-906-906c-124-124-276-187-452-187H2560c-352 0-640 288-640 640v7680c0 352 288 640 640 640h4800c352 0 640-287 640-640V2185c0-176-63-328-187-452zM3200 4160h3520c353 0 640 288 640 640v3520c0 352-288 640-640 640H3200c-352 0-640-288-640-640V4800c0-353 287-640 640-640z"/></svg>