<svg xmlns="http://www.w3.org/2000/svg" width="1024" height="1024" shape-rendering="geometricPrecision" text-rendering="geometricPrecision" image-rendering="optimizeQuality" clip-rule="evenodd" viewBox="0 0 10240 10240"><title>sizes icon</title><desc>sizes icon from the IconExperience.com O-Collection. Copyright by INCORS GmbH (www.incors.com).</desc><path fill="#EDC87E" d="M960 640h3200c176 0 320 144 320 320v640H2240c-353 0-640 287-640 640v2240H960c-176 0-320-144-320-320V960c0-176 144-320 320-320z"/><path fill="#EDC87E" d="M2240 1920h4480c176 0 320 144 320 320v640H3520c-353 0-640 287-640 640v3520h-640c-176 0-320-144-320-320V2240c0-176 144-320 320-320z"/><path fill="#EDC87E" d="M3520 3200h5760c176 0 320 144 320 320v5760c0 176-144 320-320 320H3520c-176 0-320-144-320-320V3520c0-176 144-320 320-320z"/></svg>