<svg xmlns="http://www.w3.org/2000/svg" width="1024" height="1024" shape-rendering="geometricPrecision" text-rendering="geometricPrecision" image-rendering="optimizeQuality" clip-rule="evenodd" viewBox="0 0 10240 10240"><title>skull icon</title><desc>skull icon from the IconExperience.com O-Collection. Copyright by INCORS GmbH (www.incors.com).</desc><path fill="gray" d="M1389 5275c-14-88-69-235-90-319-249-994-154-2015 470-2854C2542 1063 3868 639 5120 639s2578 424 3351 1463c624 839 719 1860 470 2854-21 84-76 231-90 319 4 11 10 22 15 31 445 837-166 1831-1039 2036-20 5-77 20-93 35-59 76-54 504-54 601v458c0 175-55 342-207 445-139 95-275 88-433 88h-49c-41 108-112 202-229 261-124 64-230 57-362 57-29 0-56 1-83 1-46 94-116 175-219 233-163 91-321 78-498 78-170 0-323 12-480-69-157 81-310 69-480 69-177 0-335 13-498-78-106-60-177-144-223-241h-79c-132 0-238 6-362-57-117-60-188-153-229-262h-49c-158 0-294 7-433-88-152-103-207-269-207-445v-450c0-97 5-525-54-601-16-14-73-30-93-35-900-212-1498-1172-1039-2036 5-9 11-20 15-31zm1656 3045c103 18 436 4 538 4 38 102 76 215 118 314l521 1 131 273c6 14 11 22 24 29 47 26 474 26 523 1l220-112 220 112c49 25 476 25 523-1 12-7 17-14 23-27l133-268 520-1c42-99 80-211 118-313 102 0 435 14 538-4 4-16 5-40 5-52 0-86-50-269-160-269-21 0-37 5-54 17l-290 205-282-134c-19-15-28-3-44 13l-319 245-363-190c-79-70-166-56-237 19l-331 264-371-264c-71-74-156-89-236-21l-325 189-303-255c-16-17-25-30-45-15l-296 141-290-205c-17-12-33-17-54-17-110 0-160 183-160 269 0 12 1 36 5 52zm3998-633c15-458 105-842 637-968 524-123 843-696 621-1113-173-324-65-469 19-806 557-2221-1100-3521-3200-3521S1363 2579 1920 4800c84 337 192 482 19 806-230 434 46 978 621 1113 529 125 621 505 637 961l3-1c87 0 168 26 239 76l136 97 109-52c140-83 299-53 416 58l122 102 110-64c196-148 446-125 623 40l154 110 128-102c177-172 429-197 627-51l155 82 144-111c117-104 271-130 407-50l95 45 136-96c71-51 152-76 239-76h3z"/><path fill="gray" d="M5440 6079c185 421 553 494 320 960-60 121-270 385-358 318-208-159-401-148-611 0-88 63-251-197-311-318-196-393 151-613 320-960 93-191 554-195 640 0zM6560 3839c619 0 1120 502 1120 1120 0 619-501 1120-1120 1120s-1120-501-1120-1120c0-618 501-1120 1120-1120zM3680 3839c619 0 1120 502 1120 1120 0 619-501 1120-1120 1120s-1120-501-1120-1120c0-618 501-1120 1120-1120z"/></svg>