<svg xmlns="http://www.w3.org/2000/svg" width="1024" height="1024" shape-rendering="geometricPrecision" text-rendering="geometricPrecision" image-rendering="optimizeQuality" clip-rule="evenodd" viewBox="0 0 10240 10240"><title>small_truck icon</title><desc>small_truck icon from the IconExperience.com O-Collection. Copyright by INCORS GmbH (www.incors.com).</desc><path fill="gray" d="M8000 7040c-530 0-960 430-960 960s430 960 960 960 960-430 960-960-430-960-960-960zm-4480 0c530 0 960 430 960 960s-430 960-960 960-960-430-960-960 430-960 960-960zm0 640c-177 0-320 143-320 320s143 320 320 320 320-143 320-320-143-320-320-320zm4480 0c177 0 320 143 320 320s-143 320-320 320-320-143-320-320 143-320 320-320z"/><path fill="gray" d="M6400 7040V4480c0-176 144-320 320-320h1844c249 0 452 137 573 354l715 1280c51 90 68 182 68 286v1600c0 176-144 320-320 320h-320c0-707-573-1280-1280-1280s-1280 573-1280 1280H4800c0-382-168-725-434-960h2034zm2566-1518l-314-559c-58-103-160-163-279-163H7200c-88 0-160 72-160 160v640c0 88 72 160 160 160h1627c58 0 108-29 138-79 29-51 30-109 1-159zM2240 8000h-960v-960h1394c-266 235-434 578-434 960z"/><path fill="gray" d="M960 2560h5120c176 0 320 144 320 320v3840H960c-176 0-320-144-320-320V2880c0-176 144-320 320-320z"/></svg>