<svg xmlns="http://www.w3.org/2000/svg" width="1024" height="1024" shape-rendering="geometricPrecision" text-rendering="geometricPrecision" image-rendering="optimizeQuality" clip-rule="evenodd" viewBox="0 0 10240 10240"><title>snowman icon</title><desc>snowman icon from the IconExperience.com O-Collection. Copyright by INCORS GmbH (www.incors.com).</desc><path fill="gray" d="M5120 7680c177 0 320 143 320 320s-143 320-320 320-320-143-320-320 143-320 320-320zm0-1920c177 0 320 143 320 320s-143 320-320 320-320-143-320-320 143-320 320-320zm0 960c177 0 320 143 320 320s-143 320-320 320-320-143-320-320 143-320 320-320z"/><path fill="#ED9A56" d="M5120 3210c265 0 480 215 480 480s-240 790-480 790-480-525-480-790 215-480 480-480z"/><path fill="gray" d="M4320 2240c265 0 480 215 480 480s-215 480-480 480-480-215-480-480 215-480 480-480zm1600 0c265 0 480 215 480 480s-215 480-480 480-480-215-480-480 215-480 480-480z"/><path fill="gray" d="M9600 5440h-863l-640 426c144 365 223 760 223 1174 0 967-437 1881-1189 2489l-88 71H3197l-88-71c-752-608-1189-1522-1189-2489 0-414 79-810 223-1174l-689-459-914-304 200-606 409 137-179-716 620-156 145 579 239-358 532 354-462 694 395 263c158-243 349-463 566-654-291-425-445-925-445-1440 0-1414 1146-2560 2560-2560s2560 1146 2560 2560c0 515-154 1015-445 1440 217 191 408 412 566 654l395-263-462-694 532-354 278 417 114-340 605 200-180 540h517v640zM3427 8960h3386c550-485 867-1183 867-1920s-316-1433-868-1920l-424-374 319-467c218-319 333-693 333-1079 0-1061-859-1920-1920-1920s-1920 859-1920 1920c0 386 115 760 333 1079l319 467-424 374c-552 487-868 1183-868 1920s317 1435 867 1920z"/></svg>