<svg xmlns="http://www.w3.org/2000/svg" width="1024" height="1024" shape-rendering="geometricPrecision" text-rendering="geometricPrecision" image-rendering="optimizeQuality" clip-rule="evenodd" viewBox="0 0 10240 10240"><title>snowflake icon</title><desc>snowflake icon from the IconExperience.com O-Collection. Copyright by INCORS GmbH (www.incors.com).</desc><path fill="#4D82B8" d="M4960 640h320c88 0 160 72 160 160v615l650-375c76-44 174-18 219 59l160 277c44 76 17 174-59 218l-970 560v861l863-498c102-59 218-59 320 0s160 160 160 277v997l745-431V2240c0-88 72-160 160-160h320c89 0 160 72 160 160v750l533-307c77-44 175-18 219 58l160 278c44 76 18 174-59 218l-533 308 650 375c77 44 103 142 59 219l-160 277c-44 76-142 102-219 58l-970-560-745 431 863 498c101 59 160 160 160 277s-59 218-160 277l-863 498 745 431 970-560c77-44 175-18 219 58l160 277c44 77 18 175-59 219l-650 375 533 308c77 44 103 142 59 218l-160 278c-44 76-142 102-219 58l-533-307v750c0 88-71 160-160 160h-320c-88 0-160-72-160-160V6880l-745-430v996c0 117-58 218-160 277s-218 59-320 0l-863-498v861l970 560c76 44 103 142 59 218l-160 277c-45 77-143 103-219 59l-650-375v615c0 88-72 160-160 160h-320c-88 0-160-72-160-160v-615l-650 375c-76 44-174 18-219-59l-160-277c-44-76-17-174 59-218l970-560v-861l-863 498c-102 59-218 59-320 0s-160-160-160-277v-997l-745 431v1120c0 88-72 160-160 160h-320c-89 0-160-72-160-160v-750l-533 307c-77 44-175 18-219-58l-160-278c-44-76-18-174 59-218l533-308-650-375c-77-44-103-142-59-219l160-277c44-76 142-102 219-58l970 560 745-431-863-498c-101-59-160-160-160-277 0-118 59-218 160-277l863-498-745-431-970 560c-77 44-175 18-219-58l-160-277c-44-77-18-175 59-219l650-375-533-308c-77-44-103-142-59-218l160-278c44-76 142-102 219-58l533 307v-750c0-88 71-160 160-160h320c88 0 160 72 160 160v1120l745 430v-996c0-117 58-218 160-277s218-59 320 0l863 498v-861l-970-560c-76-44-103-142-59-218l160-277c45-77 143-103 219-59l650 375V800c0-88 72-160 160-160zm-800 4295l-383-221-703 406 703 406 383-221v-370zm308 931l-371 214v811l703-405v-428l-332-192zm972 188v432l703 405v-811l-374-216-329 190zm632-754l391 226 703-406-703-406-391 226v360zm-332-908l403-232v-811l-703 405v465l300 173zm-940-177v-461l-703-405v811l399 230 304-175z"/></svg>