<svg xmlns="http://www.w3.org/2000/svg" width="1024" height="1024" shape-rendering="geometricPrecision" text-rendering="geometricPrecision" image-rendering="optimizeQuality" clip-rule="evenodd" viewBox="0 0 10240 10240"><title>soccer_ball icon</title><desc>soccer_ball icon from the IconExperience.com O-Collection. Copyright by INCORS GmbH (www.incors.com).</desc><path fill="gray" d="M5120 640c2474 0 4480 2006 4480 4480S7594 9600 5120 9600 640 7594 640 5120 2646 640 5120 640zm1219 2768l873 1512 816-14 446-1017-611-1058-1104-123-420 700zm2569 1082l-359 819-82 1374 128 74c234-497 365-1052 365-1637 0-215-18-425-52-630zm-634 2821l-127-74-1148 758-531 722c736-276 1364-772 1806-1406zM5731 8640l658-894-396-715H4247l-396 715 658 894h1222zm166-2306l663-1148-777-1346H4457l-777 1346 663 1148h1554zM2377 2831l-611 1058 446 1017 816 14 873-1512-420-700-1104 123zm1395 5886l-531-722-1148-758-127 74c442 634 1070 1130 1806 1406zM1645 6757l128-74-82-1374-359-819c-34 205-52 415-52 630 0 585 131 1140 365 1637zm1036-4603l888-99 1231-615v-147c-801 66-1533 378-2119 861zm2759-861v147l1231 615 888 99c-586-482-1318-795-2119-861z"/></svg>