<svg xmlns="http://www.w3.org/2000/svg" width="1024" height="1024" shape-rendering="geometricPrecision" text-rendering="geometricPrecision" image-rendering="optimizeQuality" clip-rule="evenodd" viewBox="0 0 10240 10240"><title>solar_panel icon</title><desc>solar_panel icon from the IconExperience.com O-Collection. Copyright by INCORS GmbH (www.incors.com).</desc><path fill="#4D82B8" d="M6400 6720l320-320h1280l320 320v1280l-320 320H6720l-320-320V6720zM1920 2240l320-320h1280l320 320v1280l-320 320H2240l-320-320V2240zm2240 0l320-320h1280l320 320v1280l-320 320H4480l-320-320V2240zm2240 0l320-320h1280l320 320v1280l-320 320H6720l-320-320V2240zM1920 4480l320-320h1280l320 320v1280l-320 320H2240l-320-320V4480zm2240 0l320-320h1280l320 320v1280l-320 320H4480l-320-320V4480zm2240 0l320-320h1280l320 320v1280l-320 320H6720l-320-320V4480zM1920 6720l320-320h1280l320 320v1280l-320 320H2240l-320-320V6720zm2240 0l320-320h1280l320 320v1280l-320 320H4480l-320-320V6720z"/><path fill="gray" d="M1600 960h7040c353 0 640 287 640 640v7040c0 352-287 640-640 640H1600c-352 0-640-288-640-640V1600c0-353 288-640 640-640zm0 640v7040h7040V1600H1600z"/></svg>