<svg xmlns="http://www.w3.org/2000/svg" width="1024" height="1024" shape-rendering="geometricPrecision" text-rendering="geometricPrecision" image-rendering="optimizeQuality" clip-rule="evenodd" viewBox="0 0 10240 10240"><title>sort_up_down2 icon</title><desc>sort_up_down2 icon from the IconExperience.com O-Collection. Copyright by INCORS GmbH (www.incors.com).</desc><path fill="gray" d="M9413 7173L7586 8999c-124 124-328 124-452 0L5307 7173c-124-125-187-277-187-453V5561c0-142 172-214 273-113l1327 1327V1280c0-176 144-320 320-320h640c176 0 320 144 320 320v5495l1327-1327c101-101 273-29 273 113v1159c0 176-63 328-187 453zM5253 2747L3426 921c-124-124-328-124-452 0L1147 2747c-124 125-187 277-187 453v1159c0 142 172 214 273 113l1327-1327v5495c0 176 144 320 320 320h640c176 0 320-144 320-320V3145l1327 1327c101 101 273 29 273-113V3200c0-176-63-328-187-453z"/></svg>