<svg xmlns="http://www.w3.org/2000/svg" width="1024" height="1024" shape-rendering="geometricPrecision" text-rendering="geometricPrecision" image-rendering="optimizeQuality" clip-rule="evenodd" viewBox="0 0 10240 10240"><title>sort_up_down icon</title><desc>sort_up_down icon from the IconExperience.com O-Collection. Copyright by INCORS GmbH (www.incors.com).</desc><path fill="gray" d="M7173 2747L5346 921c-124-124-328-124-452 0L3067 2747c-124 125-187 277-187 453v1159c0 66 38 122 99 147 61 26 127 13 174-34l1327-1327v3950L3153 5768c-47-46-113-60-174-34-61 25-99 81-99 147v1159c0 176 63 328 187 453l1827 1826c124 124 328 124 452 0l1827-1826c124-125 187-277 187-453V5881c0-66-38-122-99-147-61-26-127-12-174 34L5760 7095V3145l1327 1327c47 46 113 60 174 34 61-25 99-81 99-147V3200c0-176-63-328-187-453z"/></svg>