<svg xmlns="http://www.w3.org/2000/svg" width="1024" height="1024" shape-rendering="geometricPrecision" text-rendering="geometricPrecision" image-rendering="optimizeQuality" clip-rule="evenodd" viewBox="0 0 10240 10240"><title>sort_up_down_question icon</title><desc>sort_up_down_question icon from the IconExperience.com O-Collection. Copyright by INCORS GmbH (www.incors.com).</desc><path fill="#4D82B8" d="M7360 6720h960v960h-960v-960zM6080 4960v-320c0-794 646-1440 1440-1440h640c794 0 1440 646 1440 1440 0 298-94 585-266 828-171 242-414 429-695 529-200 71-319 242-319 453h-960c0-308 94-594 261-831 168-238 408-422 699-526 195-69 320-246 320-453 0-264-216-480-480-480h-640c-264 0-480 216-480 480v320h-960z"/><path fill="gray" d="M5254 2747L3428 921c-124-124-328-124-452 0L1149 2747c-124 125-187 277-187 453v1159c0 66 38 122 99 147 61 26 127 13 174-34l1327-1327v3950L1235 5768c-47-46-113-60-174-34-61 25-99 81-99 147v1159c0 176 63 328 187 453l1827 1826c124 124 328 124 452 0l1826-1826c125-125 188-277 188-453V5881c0-66-38-122-99-147-61-26-128-12-174 34L3842 7095V3145l1327 1327c46 46 113 60 174 34 61-25 99-81 99-147V3200c0-176-63-328-188-453z"/></svg>