<svg xmlns="http://www.w3.org/2000/svg" width="1024" height="1024" shape-rendering="geometricPrecision" text-rendering="geometricPrecision" image-rendering="optimizeQuality" clip-rule="evenodd" viewBox="0 0 10240 10240"><title>sort_19_descending icon</title><desc>sort_19_descending icon from the IconExperience.com O-Collection. Copyright by INCORS GmbH (www.incors.com).</desc><path fill="#4D82B8" d="M7200 5760h1120v2560h640v640H7040v-640h640V6400h-640v-480c0-88 72-160 160-160zM8960 2560v1920c0 352-288 640-640 640H7040c-352 0-640-288-640-640v-160h640c0 88 72 160 160 160h960c88 0 160-72 160-160v-480H7040c-352 0-640-288-640-640v-640c0-353 288-640 640-640h1280c353 0 640 287 640 640zm-640 160c0-88-72-160-160-160h-960c-88 0-160 72-160 160v320c0 88 72 160 160 160h960c88 0 160-72 160-160v-320z"/><path fill="gray" d="M5253 7493L3426 9319c-124 124-328 124-452 0L1147 7493c-124-125-187-277-187-453V5881c0-142 172-214 273-113l1327 1327V1600c0-176 144-320 320-320h640c176 0 320 144 320 320v5495l1327-1327c101-101 273-29 273 113v1159c0 176-63 328-187 453z"/></svg>