<svg xmlns="http://www.w3.org/2000/svg" width="1024" height="1024" shape-rendering="geometricPrecision" text-rendering="geometricPrecision" image-rendering="optimizeQuality" clip-rule="evenodd" viewBox="0 0 10240 10240"><title>sort_az_descending2 icon</title><desc>sort_az_descending2 icon from the IconExperience.com O-Collection. Copyright by INCORS GmbH (www.incors.com).</desc><path fill="#4D82B8" d="M7054 7679h1252c-40-444-164-874-347-1280h-558c-183 406-307 836-347 1280zm1266 640H7040v640h-640v-960c0-727 192-1416 515-2063 56-111 168-176 285-176h960c117 0 229 65 285 176 323 647 515 1336 515 2063v960h-640v-640zM6400 4480s79-211 94-226l1694-1694H6400v-640h2560v640c0 82-31 164-94 226L7173 4480h1787v640H6400v-640z"/><path fill="gray" d="M5253 7493L3426 9319c-124 124-328 124-452 0L1147 7493c-124-125-187-277-187-453V5881c0-142 172-214 273-113l1327 1327V1600c0-176 144-320 320-320h640c176 0 320 144 320 320v5495l1327-1327c101-101 273-29 273 113v1159c0 176-63 328-187 453z"/></svg>