<svg xmlns="http://www.w3.org/2000/svg" width="1024" height="1024" shape-rendering="geometricPrecision" text-rendering="geometricPrecision" image-rendering="optimizeQuality" clip-rule="evenodd" viewBox="0 0 10240 10240"><title>sort_descending icon</title><desc>sort_descending icon from the IconExperience.com O-Collection. Copyright by INCORS GmbH (www.incors.com).</desc><path fill="#4D82B8" d="M5760 2560h3200V1280H5760v1280zm1920 5760h1280V7040H7680v1280zm-640-1920h1920V5120H7040v1280zm-640-1920h2560V3200H6400v1280z"/><path fill="gray" d="M5253 7493L3426 9319c-124 124-328 124-452 0L1147 7493c-124-125-187-277-187-453V5881c0-142 172-214 273-113l1327 1327V1600c0-176 144-320 320-320h640c176 0 320 144 320 320v5495l1327-1327c101-101 273-29 273 113v1159c0 176-63 328-187 453z"/></svg>