<svg xmlns="http://www.w3.org/2000/svg" width="1024" height="1024" shape-rendering="geometricPrecision" text-rendering="geometricPrecision" image-rendering="optimizeQuality" clip-rule="evenodd" viewBox="0 0 10240 10240"><title>speech_balloon icon</title><desc>speech_balloon icon from the IconExperience.com O-Collection. Copyright by INCORS GmbH (www.incors.com).</desc><path fill="gray" d="M5120 640c2474 0 4480 1576 4480 3520 0 911-440 1740-1162 2365-108 93-174 203-206 341-318 1393-1486 2414-3112 2414 213-213 354-475 449-761 66-198 37-398-84-569-120-172-298-267-507-272-2409-59-4338-1611-4338-3518 0-1944 2006-3520 4480-3520zm1119 7774c681-300 1186-886 1370-1690 62-271 200-501 410-683 739-639 1138-1561 845-2519-465-1520-2280-2242-3744-2242s-3279 722-3744 2242c-127 416-127 860 0 1276 452 1477 2191 2205 3617 2240 412 11 779 206 1016 544 175 248 253 539 230 832z"/></svg>