<svg xmlns="http://www.w3.org/2000/svg" width="1024" height="1024" shape-rendering="geometricPrecision" text-rendering="geometricPrecision" image-rendering="optimizeQuality" clip-rule="evenodd" viewBox="0 0 10240 10240"><title>spellcheck icon</title><desc>spellcheck icon from the IconExperience.com O-Collection. Copyright by INCORS GmbH (www.incors.com).</desc><path fill="#76A797" d="M2146 6814l508-508c124-124 328-124 452 0l1054 1054 2974-2974c124-124 328-124 452 0l508 508c124 124 124 328 0 452L4386 9054c-124 124-328 124-452 0L2146 7266c-124-124-124-328 0-452z"/><path fill="gray" d="M7680 2560h1280c353 0 640 287 640 640v160h-640c0-88-72-160-160-160h-960c-88 0-160 72-160 160v698c-197-114-443-114-640 0v-858c0-353 288-640 640-640zm827 2560h293c88 0 160-72 160-160h640v160c0 353-287 640-640 640h-827l187-187c125-125 187-289 187-453zM5440 2560c530 0 960 430 960 960 0 246-92 470-245 640 126 141 212 319 237 515L5307 5760H4000c-88 0-160-72-160-160V2720c0-88 72-160 160-160h1440zm-960 1920v640h960c176 0 320-144 320-320s-144-320-320-320h-960zm0-1280v640h960c176 0 320-144 320-320s-144-320-320-320h-960zM1294 4481h1252c-40-444-164-874-347-1280h-558c-183 406-307 836-347 1280zm1266 640H1280v640H640v-960c0-726 192-1415 515-2062 56-112 168-176 285-176h960c117 0 229 64 285 176 323 647 515 1336 515 2062v960h-640v-640z"/></svg>