<svg xmlns="http://www.w3.org/2000/svg" width="1024" height="1024" shape-rendering="geometricPrecision" text-rendering="geometricPrecision" image-rendering="optimizeQuality" clip-rule="evenodd" viewBox="0 0 10240 10240"><title>spellcheck2 icon</title><desc>spellcheck2 icon from the IconExperience.com O-Collection. Copyright by INCORS GmbH (www.incors.com).</desc><path fill="#E68497" d="M640 6401c354 0 683 166 895 447 91 121 232 190 385 190 320 0 387-247 607-413 199-149 437-224 673-224 238 0 483 81 674 225 124 94 332 412 606 412 320 0 387-247 607-413 199-149 437-224 673-224s474 75 673 224c220 166 287 413 607 413s387-247 607-413c199-149 437-224 673-224 354 0 683 166 895 447 91 121 232 190 385 190v640c-228 0-453-76-652-210-232-156-284-427-628-427-320 0-387 247-607 412-199 150-437 225-673 225s-474-75-673-225c-220-165-287-412-607-412s-387 247-607 412c-199 150-437 225-673 225s-474-75-673-225c-223-168-288-412-607-412-320 0-387 247-607 412-199 150-437 225-673 225-228 0-453-76-652-210-244-164-277-427-628-427v-640z"/><path fill="gray" d="M7680 2560h1280c353 0 640 287 640 640v160h-640c0-88-72-160-160-160h-960c-88 0-160 72-160 160v1600c0 88 72 160 160 160h960c88 0 160-72 160-160h640v160c0 353-287 640-640 640H7680c-352 0-640-287-640-640V3200c0-353 288-640 640-640zM5440 2560c530 0 960 430 960 960 0 246-92 470-245 640 153 170 245 394 245 640 0 530-430 960-960 960H4000c-88 0-160-72-160-160V2720c0-88 72-160 160-160h1440zm-960 1920v640h960c176 0 320-144 320-320s-144-320-320-320h-960zm0-1280v640h960c176 0 320-144 320-320s-144-320-320-320h-960zM1294 4481h1252c-40-444-164-874-347-1280h-558c-183 406-307 836-347 1280zm1266 640H1280v640H640v-960c0-726 192-1415 515-2062 56-112 168-176 285-176h960c117 0 229 64 285 176 323 647 515 1336 515 2062v960h-640v-640z"/></svg>