<svg xmlns="http://www.w3.org/2000/svg" width="1024" height="1024" shape-rendering="geometricPrecision" text-rendering="geometricPrecision" image-rendering="optimizeQuality" clip-rule="evenodd" viewBox="0 0 10240 10240"><title>sponge icon</title><desc>sponge icon from the IconExperience.com O-Collection. Copyright by INCORS GmbH (www.incors.com).</desc><path fill="#EDC87E" d="M4480 8320c-177 0-320 143-320 320s143 320 320 320 320-143 320-320-143-320-320-320zm0-7680h1920c1410 0 2560 1150 2560 2560v3200c0 520-157 1004-425 1409 68-245 105-503 105-769V3840c0-1587-1293-2880-2880-2880H3840c-266 0-524 37-769 105 405-268 889-425 1409-425zm-640 640c0 177 143 320 320 320s320-143 320-320h1280c1410 0 2560 1150 2560 2560v1920c-177 0-320 143-320 320s143 320 320 320v640c0 1410-1150 2560-2560 2560H3840c-1410 0-2560-1150-2560-2560V3840c0-1410 1150-2560 2560-2560zm512 3584c-247 0-448 201-448 448 0 47 7 91 20 134-27-4-55-6-84-6-353 0-640 287-640 640s287 640 640 640 640-287 640-640c0-117-32-227-87-322 228-21 407-212 407-446 0-247-201-448-448-448zm2202 1152c-297 0-538 241-538 538 0 296 241 537 538 537s537-241 537-537c0-297-240-538-537-538zm-634 2304c-265 0-480 215-480 480s215 480 480 480 480-215 480-480-215-480-480-480zm160-3520c-177 0-320 143-320 320s143 320 320 320 320-143 320-320-143-320-320-320zM2240 6080c-353 0-640 287-640 640s287 640 640 640 640-287 640-640-287-640-640-640zm800 1600c-265 0-480 215-480 480s215 480 480 480 480-215 480-480-215-480-480-480zm1760-960c-353 0-640 287-640 640s287 640 640 640 640-287 640-640-287-640-640-640zm2400-2880c-265 0-480 215-480 480s215 480 480 480 480-215 480-480-215-480-480-480zm-1600-320c-265 0-480 215-480 480s215 480 480 480 480-215 480-480-215-480-480-480zm1280-1600c-265 0-480 215-480 480s215 480 480 480 480-215 480-480-215-480-480-480zm-2560 640c-265 0-480 215-480 480s215 480 480 480c241 0 440-177 475-409 95 57 206 89 325 89 353 0 640-287 640-640s-287-640-640-640-640 287-640 640c0 9 0 18 1 28-51-18-105-28-161-28zm-1600-320c-265 0-480 215-480 480s215 480 480 480 480-215 480-480-215-480-480-480zm-640 1600c-265 0-480 215-480 480 0 209 134 387 321 453-1 9-1 18-1 27 0 177 143 320 320 320s320-143 320-320c0-82-31-156-81-213 51-76 81-168 81-267 0-265-215-480-480-480zm1440 320c-177 0-320 143-320 320s143 320 320 320 320-143 320-320-143-320-320-320zm3840 3520c-177 0-320 143-320 320s143 320 320 320 320-143 320-320-143-320-320-320z"/></svg>