<svg xmlns="http://www.w3.org/2000/svg" width="1024" height="1024" shape-rendering="geometricPrecision" text-rendering="geometricPrecision" image-rendering="optimizeQuality" clip-rule="evenodd" viewBox="0 0 10240 10240"><title>spreadsheed_chart icon</title><desc>spreadsheed_chart icon from the IconExperience.com O-Collection. Copyright by INCORS GmbH (www.incors.com).</desc><path fill="#4D82B8" d="M4160 3840h5120c176 0 320 144 320 320v5120c0 176-144 320-320 320H4160c-176 0-320-144-320-320V4160c0-176 144-320 320-320zm320 640v3127l355-710c79-157 270-221 428-142 31 16 59 36 82 60l968 966 442-883c79-158 270-222 428-143 31 16 59 36 82 60l328 326 1047-2094v1425l-662 1324c-15 40-39 78-72 110-125 125-327 125-452 0l-327-327-429 857c-15 40-39 78-72 110-125 125-327 125-452 0l-967-967-691 1381h4444V4480H4480z"/><path fill="gray" d="M8960 2560v960h-640v-320H7040v320h-640v-320H5120v320h-640v-320H3200v1280h320v640h-320v1280h320v640h-320v1280h320v640h-960V2560zM2240 2560v640h-960v1280h960v640h-960v1280h960v640h-960v1280h960v640h-960c-352 0-640-287-640-640V2560h1600zM8320 640c353 0 640 287 640 640v960h-640v-960H7040v960h-640v-960H5120v960h-640v-960H3200v960h-640V640h5760zM1280 640h960v1600H640v-960c0-353 287-640 640-640z"/></svg>