<svg xmlns="http://www.w3.org/2000/svg" width="1024" height="1024" shape-rendering="geometricPrecision" text-rendering="geometricPrecision" image-rendering="optimizeQuality" clip-rule="evenodd" viewBox="0 0 10240 10240"><title>spreadsheed_sum icon</title><desc>spreadsheed_sum icon from the IconExperience.com O-Collection. Copyright by INCORS GmbH (www.incors.com).</desc><path fill="#4D82B8" d="M4160 3840h5120c176 0 320 144 320 320v5120c0 176-144 320-320 320H4160c-176 0-320-144-320-320V4160c0-176 144-320 320-320zm320 640v4480h4480V4480H4480z"/><path fill="#4D82B8" d="M7680 5760v-320H6104l865 1081c96 120 91 289-4 403l-861 1076h1576v-320h640v640c0 177-143 320-320 320l-2560-2c-70 0-140-22-199-69-137-110-160-310-50-448l1121-1401-1101-1376c-56-58-91-137-91-224 0-177 143-320 320-320h2560c177 0 320 143 320 320v640h-640z"/><path fill="gray" d="M8960 2560v960h-640v-320H7040v320h-640v-320H5120v320h-640v-320H3200v1280h320v640h-320v1280h320v640h-320v1280h320v640h-960V2560zM2240 2560v640h-960v1280h960v640h-960v1280h960v640h-960v1280h960v640h-960c-352 0-640-287-640-640V2560h1600zM8320 640c353 0 640 287 640 640v960h-640v-960H7040v960h-640v-960H5120v960h-640v-960H3200v960h-640V640h5760zM1280 640h960v1600H640v-960c0-353 287-640 640-640z"/></svg>