<svg xmlns="http://www.w3.org/2000/svg" width="1024" height="1024" shape-rendering="geometricPrecision" text-rendering="geometricPrecision" image-rendering="optimizeQuality" clip-rule="evenodd" viewBox="0 0 10240 10240"><title>spreadsheed_row icon</title><desc>spreadsheed_row icon from the IconExperience.com O-Collection. Copyright by INCORS GmbH (www.incors.com).</desc><path fill="gray" d="M9280 2560v6400H2880V2560h6400zM3200 4800v1920h5760V4800H3200zm2240-1600v1280h1280V3200H5440zM3520 7040v1280h1280V7040H3520zm3840 0v1280h1280V7040H7360zm-1920 0v1280h1280V7040H5440zM3520 3200v1280h1280V3200H3520zm3840 0v1280h1280V3200H7360zM2560 2560v640h-960v1280h960v640h-960v1280h960v640h-960v1280h960v640h-960c-352 0-640-287-640-640V2560h1600zM8640 640c353 0 640 287 640 640v960h-640v-960H7360v960h-640v-960H5440v960h-640v-960H3520v960h-640V640h5760zM1600 640h960v1600H960v-960c0-353 287-640 640-640z"/><path fill="#ED9A56" d="M7360 5120h1280v1280H7360V5120zm-3840 0h1280v1280H3520V5120zm1920 0h1280v1280H5440V5120z"/></svg>