<svg xmlns="http://www.w3.org/2000/svg" width="1024" height="1024" shape-rendering="geometricPrecision" text-rendering="geometricPrecision" image-rendering="optimizeQuality" clip-rule="evenodd" viewBox="0 0 10240 10240"><title>stairs_down icon</title><desc>stairs_down icon from the IconExperience.com O-Collection. Copyright by INCORS GmbH (www.incors.com).</desc><path fill="gray" d="M7360 3200h2240v1280H8320v1920H6400v1920H4480v1280H3200V7360c0-176 144-320 320-320h1600V5440c0-176 144-320 320-320h1600V3520c0-176 144-320 320-320z"/><path fill="#4D82B8" d="M640 6080V3817c0-88 31-164 94-226l776-777c70-70 170-90 262-52 91 38 148 123 148 222v1231l1435-1435c125-125 328-125 453 0l452 452c125 125 125 328 0 453L2825 5120h1231c99 0 184 57 222 148 38 92 18 192-52 262l-777 776c-62 63-138 94-226 94H960c-176 0-320-144-320-320z"/></svg>