<svg xmlns="http://www.w3.org/2000/svg" width="1024" height="1024" shape-rendering="geometricPrecision" text-rendering="geometricPrecision" image-rendering="optimizeQuality" clip-rule="evenodd" viewBox="0 0 10240 10240"><title>standby icon</title><desc>standby icon from the IconExperience.com O-Collection. Copyright by INCORS GmbH (www.incors.com).</desc><path fill="#4D82B8" d="M6866 1699c1243 636 2094 1929 2094 3421 0 2121-1719 3840-3840 3840S1280 7241 1280 5120c0-1492 851-2785 2094-3421 102-52 215-48 313 12s153 158 153 273v774c0 110-51 205-142 266-686 459-1138 1241-1138 2129 0 1414 1146 2560 2560 2560s2560-1146 2560-2560c0-888-452-1670-1138-2129-91-61-142-156-142-266v-774c0-115 55-213 153-273s211-64 313-12z"/><path fill="#4D82B8" d="M4800 673h640c176 0 320 144 320 320v3167c0 176-144 320-320 320h-640c-176 0-320-144-320-320V993c0-176 144-320 320-320z"/></svg>