<svg xmlns="http://www.w3.org/2000/svg" width="1024" height="1024" shape-rendering="geometricPrecision" text-rendering="geometricPrecision" image-rendering="optimizeQuality" clip-rule="evenodd" viewBox="0 0 10240 10240"><title>stapler icon</title><desc>stapler icon from the IconExperience.com O-Collection. Copyright by INCORS GmbH (www.incors.com).</desc><path fill="gray" d="M8762 7680H4876c-249 0-462-132-573-354l-463-926h-352c-148 730-794 1280-1568 1280-523 0-988-251-1280-640v1600c0 176 144 320 320 320h8122c114 0 212-55 272-152s65-209 14-311l-320-640c-55-111-162-177-286-177z"/><path fill="gray" d="M8320 6400H4198l320 640h3482c176 0 320-144 320-320v-320z"/><path fill="#4D82B8" d="M8320 3840h-640c-2965 7-7040 125-7040 2240 0 707 573 1280 1280 1280 619 0 1136-440 1254-1024 31-150 160-256 314-256h5152c176 0 320-144 320-320V4480c0-353-287-640-640-640zM1920 5760c177 0 320 143 320 320s-143 320-320 320-320-143-320-320 143-320 320-320z"/></svg>