<svg xmlns="http://www.w3.org/2000/svg" width="1024" height="1024" shape-rendering="geometricPrecision" text-rendering="geometricPrecision" image-rendering="optimizeQuality" clip-rule="evenodd" viewBox="0 0 10240 10240"><title>star icon</title><desc>star icon from the IconExperience.com O-Collection. Copyright by INCORS GmbH (www.incors.com).</desc><path fill="#EDC87E" d="M5725 1082l687 2148c43 135 163 223 305 222l2246-4c279-1 518 172 604 439 87 267-3 548-229 713L7513 5932c-114 83-159 223-116 357l698 2155c87 268-4 548-231 713-228 165-522 164-748-2L5310 7825c-115-84-265-84-380 0L3124 9155c-226 166-520 167-748 2-227-165-318-445-231-713l698-2155c43-134-2-274-116-357L903 4600c-227-165-317-446-230-713 86-267 325-440 604-439l2246 4c142 1 262-87 305-222l687-2148c86-268 324-442 605-442s519 174 605 442z"/></svg>