<svg xmlns="http://www.w3.org/2000/svg" width="1024" height="1024" shape-rendering="geometricPrecision" text-rendering="geometricPrecision" image-rendering="optimizeQuality" clip-rule="evenodd" viewBox="0 0 10240 10240"><title>step icon</title><desc>step icon from the IconExperience.com O-Collection. Copyright by INCORS GmbH (www.incors.com).</desc><path fill="gray" d="M8952 2880c72-1065-365-1797-1317-2180-589-237-1424 249-1746 1352-266 915 54 1562-49 2455-35 310 151 594 449 685l1253 383c319 98 658-64 781-374 336-840 556-1227 629-2321zM5507 5845c-196 795 28 1544 792 1778 769 235 1347-278 1589-1067 52-169-44-349-212-400l-1764-540c-88-27-172-17-252 28-79 45-131 113-153 201zM1288 4799c-72-1065 365-1798 1317-2180 589-237 1424 249 1746 1352 266 915-54 1561 49 2455 35 309-151 594-449 685l-1253 383c-319 98-658-64-781-374-336-840-556-1228-629-2321zm3445 2965c196 795-28 1544-792 1777-769 235-1347-277-1589-1067-52-168 44-348 212-400l1764-539c88-27 172-18 252 27 79 45 131 113 153 202z"/></svg>