<svg xmlns="http://www.w3.org/2000/svg" width="1024" height="1024" shape-rendering="geometricPrecision" text-rendering="geometricPrecision" image-rendering="optimizeQuality" clip-rule="evenodd" viewBox="0 0 10240 10240"><title>stock_ticker icon</title><desc>stock_ticker icon from the IconExperience.com O-Collection. Copyright by INCORS GmbH (www.incors.com).</desc><path fill="gray" d="M1280 7040h6400v960c353 0 640 288 640 640v960H640v-960c0-353 287-640 640-640v-960z"/><path fill="#EDC87E" d="M4480 1920c1060 0 1920 860 1920 1920 0 502-193 959-508 1301-189-131-403-229-633-286 305-234 501-601 501-1015 0-707-573-1280-1280-1280s-1280 573-1280 1280c0 46 3 92 7 137-190 168-364 355-518 556-83-215-129-449-129-693 0-1060 860-1920 1920-1920zm3840 5760c707 0 1280-573 1280-1280h-640c0 353-287 640-640 640h-320v640h320zm-1920-960h-640c0-530-430-960-960-960h-320c-276 0-538-58-775-163 76-205 178-397 312-563 144 55 300 86 463 86h320c884 0 1600 716 1600 1600z"/><path fill="gray" d="M4480 3200c353 0 640 287 640 640s-287 640-640 640c-90 0-176-19-253-52-523 329-1027 1031-1027 2292h-960c0-1291 792-2290 1602-2826-1-18-2-36-2-54 0-353 287-640 640-640z"/><path fill="gray" d="M4480 640c1767 0 3200 1433 3200 3200v2880h-640V3840c0-1414-1146-2560-2560-2560S1920 2426 1920 3840v2880h-640V3840c0-1767 1433-3200 3200-3200z"/></svg>