<svg xmlns="http://www.w3.org/2000/svg" width="1024" height="1024" shape-rendering="geometricPrecision" text-rendering="geometricPrecision" image-rendering="optimizeQuality" clip-rule="evenodd" viewBox="0 0 10240 10240"><title>stockbroker icon</title><desc>stockbroker icon from the IconExperience.com O-Collection. Copyright by INCORS GmbH (www.incors.com).</desc><path fill="gray" d="M8320 8470c0 716-1502 1049-2734 1117l400-401c77-76 108-177 89-283 28-3 55-7 83-10 80-10 161-22 242-35V6242c-31-23-63-47-95-71-76-44-151-88-225-133v-29c0-31-4-61-12-89 209-73 406-168 589-284 1082 807 1663 1074 1663 2834zM4654 9587c-1232-68-2734-401-2734-1116 0-1760 582-2029 1663-2835 183 116 381 212 589 284-8 28-12 58-12 89v29c-74 45-149 89-225 133-32 24-64 48-95 71v2616c81 13 163 25 242 35 28 3 56 7 83 10-19 106 12 207 89 283l400 401zm-1454-868V6726c-460 387-635 735-640 1701 85 89 344 194 438 227 66 24 133 45 202 65zm3840-1994v1994c69-20 136-41 203-65 93-33 353-139 437-228-5-967-180-1314-640-1701z"/><path fill="#E68497" d="M4480 8960l394-2166-207-207c-124-124-187-276-187-452v-126c206 46 420 71 640 71s434-25 640-71v126c0 176-63 328-187 452l-207 207 394 2166-640 640-640-640z"/><path fill="#EFC1B4" d="M5120 661c1414 0 2560 1142 2560 2550S6534 5760 5120 5760 2560 4619 2560 3211 3706 661 5120 661zm1920 2539v-640c0-176-144-320-320-320H3520c-176 0-320 144-320 320v640c0 176 144 320 320 320h960c176 0 320-144 320-320v-320c0-176 144-320 320-320s320 144 320 320v320c0 176 144 320 320 320h960c176 0 320-144 320-320z"/></svg>