<svg xmlns="http://www.w3.org/2000/svg" width="1024" height="1024" shape-rendering="geometricPrecision" text-rendering="geometricPrecision" image-rendering="optimizeQuality" clip-rule="evenodd" viewBox="0 0 10240 10240"><title>stopwatch icon</title><desc>stopwatch icon from the IconExperience.com O-Collection. Copyright by INCORS GmbH (www.incors.com).</desc><path fill="gray" d="M8129 3391v-1c-187-237-402-452-639-639h-1l511-511 640 640-511 511zM5760 1984l-2-1c-211-35-424-53-638-53s-427 18-638 53l-2 1v-384h-320c-176 0-320-144-320-320V640c0-176 144-320 320-320h1920c176 0 320 144 320 320v640c0 176-144 320-320 320h-320v384z"/><path fill="gray" d="M5120 1920c2121 0 3840 1719 3840 3840S7241 9600 5120 9600 1280 7881 1280 5760s1719-3840 3840-3840zm0 960c-1591 0-2880 1289-2880 2880s1289 2880 2880 2880 2880-1289 2880-2880-1289-2880-2880-2880z"/><path fill="#4D82B8" d="M5440 5206c191 110 320 317 320 554 0 353-287 640-640 640s-640-287-640-640c0-237 129-444 320-554V3220c105-13 212-20 320-20s215 7 320 20v1986z"/></svg>