<svg xmlns="http://www.w3.org/2000/svg" width="1024" height="1024" shape-rendering="geometricPrecision" text-rendering="geometricPrecision" image-rendering="optimizeQuality" clip-rule="evenodd" viewBox="0 0 10240 10240"><title>store icon</title><desc>store icon from the IconExperience.com O-Collection. Copyright by INCORS GmbH (www.incors.com).</desc><path fill="gray" d="M6080 7360c0 177 143 320 320 320s320-143 320-320-143-320-320-320-320 143-320 320zm0-1280h1280v2880H6080V6080z"/><path fill="#E68497" d="M8909 2560l942 1193c47 59 69 123 69 198v209c0 530-430 960-960 960s-960-430-960-960v-248c0-50-10-92-31-137l-575-1215h1515zm-6063 0l-575 1215c-21 45-31 87-31 137v248c0 530-430 960-960 960s-960-430-960-960v-209c0-75 22-139 69-198l942-1193h1515zm3032 0l198 1255c3 18 4 33 4 50v295c0 530-430 960-960 960s-960-430-960-960v-295c0-17 1-32 4-50l198-1255h1516z"/><path fill="gray" d="M1600 1280h7040c176 0 320 150 320 334v626l-7680 4v-630c0-184 144-334 320-334zm7360 4160c-382 0-725-168-960-433-235 265-578 433-960 433s-725-168-960-433c-235 265-578 433-960 433s-725-168-960-433c-235 265-578 433-960 433s-725-168-960-433c-235 265-578 433-960 433v3520h4480V5760h1920v3200h1280V5440zm-6720 640h2560v1600H2240V6080z"/></svg>