<svg xmlns="http://www.w3.org/2000/svg" width="1024" height="1024" shape-rendering="geometricPrecision" text-rendering="geometricPrecision" image-rendering="optimizeQuality" clip-rule="evenodd" viewBox="0 0 10240 10240"><title>stroller icon</title><desc>stroller icon from the IconExperience.com O-Collection. Copyright by INCORS GmbH (www.incors.com).</desc><path fill="gray" d="M6720 6400c884 0 1600 716 1600 1600s-716 1600-1600 1600-1600-716-1600-1600 716-1600 1600-1600zm0 640c-530 0-960 430-960 960s430 960 960 960 960-430 960-960-430-960-960-960zm-3840 0c-530 0-960 430-960 960s430 960 960 960 960-430 960-960-430-960-960-960zm0-640c884 0 1600 716 1600 1600s-716 1600-1600 1600-1600-716-1600-1600 716-1600 1600-1600zM4223 6628l2102-1527c371-266 715-513 715-941 0-406 113-819 340-1121 218-290 531-479 940-479h960c177 0 320 143 320 320s-143 320-320 320h-960c-186 0-329 88-430 222-140 186-210 459-210 738 0 753-473 1093-982 1459L4599 7145c-96-193-223-368-376-517z"/><path fill="#EDC87E" d="M3520 1280h640c176 0 320 144 320 320v2240h2261c-14 106-21 213-21 320 0 265-280 466-581 682L3968 6418c-309-213-618-338-1088-338s-1020 219-1368 573c-506-171-872-651-872-1213V4160c0-1586 1294-2880 2880-2880zm4520 2560h600c176 0 320 144 320 320v1280c0 562-366 1042-872 1213-348-354-832-573-1368-573-40 0-79 1-118 4l282-207c579-415 1116-801 1116-1717 0-113 13-223 40-320z"/></svg>