<svg xmlns="http://www.w3.org/2000/svg" width="1024" height="1024" shape-rendering="geometricPrecision" text-rendering="geometricPrecision" image-rendering="optimizeQuality" clip-rule="evenodd" viewBox="0 0 10240 10240"><title>submarine icon</title><desc>submarine icon from the IconExperience.com O-Collection. Copyright by INCORS GmbH (www.incors.com).</desc><path fill="gray" d="M3200 5120l320-1280h640V1600c0-88-36-168-94-226s-138-94-226-94h-640V640h640c265 0 505 108 678 282 174 173 282 413 282 678v2240h640l320 1280h960c774 0 1420 550 1568 1280h75c-27-94-43-203-43-320 0-353 143-640 320-640s320 287 320 640c0 117-16 226-43 320h43c176 0 320 144 320 320s-144 320-320 320h-43c27 94 43 203 43 320 0 353-143 640-320 640s-320-287-320-640c0-117 16-226 43-320h-75c-148 730-794 1280-1568 1280H2880c-884 0-1600-716-1600-1600s716-1600 1600-1600h320zm2560 640c-353 0-640 287-640 640s287 640 640 640 640-287 640-640-287-640-640-640zm-1920 0c-353 0-640 287-640 640s287 640 640 640 640-287 640-640-287-640-640-640z"/><path fill="#4D82B8" d="M1760 1893c218 394 638 660 1120 660 382 0 725-168 960-433v816c-287 165-616 257-960 257-410 0-799-130-1120-360-321 230-710 360-1120 360v-640c482 0 902-266 1120-660zm3360 667c483-1 904-270 1120-666 219 393 638 659 1120 659s902-266 1120-660c218 394 638 660 1120 660v640c-410 0-799-130-1120-360-321 230-710 360-1120 360-408 0-797-129-1117-358-321 233-712 364-1123 365v-640z"/></svg>