<svg xmlns="http://www.w3.org/2000/svg" width="1024" height="1024" shape-rendering="geometricPrecision" text-rendering="geometricPrecision" image-rendering="optimizeQuality" clip-rule="evenodd" viewBox="0 0 10240 10240"><title>sum icon</title><desc>sum icon from the IconExperience.com O-Collection. Copyright by INCORS GmbH (www.incors.com).</desc><path fill="gray" d="M3728 8000h3632v-960h1280v1920c0 353-287 640-640 640l-5760-1c-130 0-262-39-375-121-286-208-350-607-143-893l2288-3145-2286-3146c-76-105-122-234-122-374 0-352 286-637 638-637l5120-3c353 0 640 287 640 640v1280H6720v-643l-3226 1 1823 2507c170 234 158 543-8 761L3728 8000z"/></svg>