<svg xmlns="http://www.w3.org/2000/svg" width="1024" height="1024" shape-rendering="geometricPrecision" text-rendering="geometricPrecision" image-rendering="optimizeQuality" clip-rule="evenodd" viewBox="0 0 10240 10240"><title>sun_half icon</title><desc>sun_half icon from the IconExperience.com O-Collection. Copyright by INCORS GmbH (www.incors.com).</desc><path fill="#EDC87E" d="M5120 2560h10v635l-10 5c-1060 0-1920 860-1920 1920s860 1920 1920 1920l10 6v634h-10c-1414 0-2560-1146-2560-2560s1146-2560 2560-2560z"/><path fill="gray" d="M5120 2560c1414 0 2560 1146 2560 2560S6534 7680 5120 7680V2560z"/><path fill="#EDC87E" d="M5120 9600c-176 0-320-144-320-320v-640c0-176 144-320 320-320s320 144 320 320v640c0 176-144 320-320 320zm0-8960c176 0 320 144 320 320v640c0 176-144 320-320 320s-320-144-320-320V960c0-176 144-320 320-320zm-2240 600c153-88 349-35 437 117l320 555c88 152 36 349-117 437s-349 35-437-117l-320-555c-88-152-36-349 117-437zM1240 2880c88-153 285-205 437-117l555 320c152 88 205 284 117 437s-285 205-437 117l-555-320c-152-88-205-284-117-437zM640 5120c0-176 144-320 320-320h640c176 0 320 144 320 320s-144 320-320 320H960c-176 0-320-144-320-320zm600 2240c-88-153-35-349 117-437l555-320c152-88 349-36 437 117s35 349-117 437l-555 320c-152 88-349 36-437-117zm1640 1640c-153-88-205-285-117-437l320-555c88-152 284-205 437-117s205 285 117 437l-320 555c-88 152-284 205-437 117z"/></svg>