<svg xmlns="http://www.w3.org/2000/svg" width="1024" height="1024" shape-rendering="geometricPrecision" text-rendering="geometricPrecision" image-rendering="optimizeQuality" clip-rule="evenodd" viewBox="0 0 10240 10240"><title>surveillance_camera2 icon</title><desc>surveillance_camera2 icon from the IconExperience.com O-Collection. Copyright by INCORS GmbH (www.incors.com).</desc><path fill="gray" d="M9280 5440h320v3200h-320c-176 0-320-144-320-320v-642H6456c-18 1-37 2-56 2-353 0-640-287-640-640v-176c360 207 813 235 1212 36 231-115 412-290 533-497h1455v-643c0-176 144-320 320-320zM3965 6733l-1254 627-572-1145 681-341z"/><path fill="gray" d="M7299 5424c170 454-26 973-470 1194-443 222-976 68-1237-340l-667 333c-222 111-471 88-670-61l-1243-932c-99-74-224-85-335-30l-681 341c-112 55-236 44-335-30l-573-430c-91-68-137-171-127-285 11-113 74-206 176-257l6011-3005c630-315 1402-58 1717 573l572 1145c158 315 29 701-286 858l-1852 926zm-899 16c-177 0-320 143-320 320s143 320 320 320 320-143 320-320-143-320-320-320z"/></svg>