<svg xmlns="http://www.w3.org/2000/svg" width="1024" height="1024" shape-rendering="geometricPrecision" text-rendering="geometricPrecision" image-rendering="optimizeQuality" clip-rule="evenodd" viewBox="0 0 10240 10240"><title>surveillance_camera icon</title><desc>surveillance_camera icon from the IconExperience.com O-Collection. Copyright by INCORS GmbH (www.incors.com).</desc><path fill="gray" d="M3965 7693l-1254 627-572-1145c227-114 454-227 681-341l1145 859z"/><path fill="gray" d="M4689 3032c476-238 1055-45 1293 431l1166-581c630-315 1402-58 1717 573l572 1145c158 315 29 701-286 858L4925 7571c-222 111-471 88-670-61l-1243-932c-99-74-224-85-335-30l-681 341c-112 55-236 44-335-30l-573-430c-91-68-137-171-127-285 11-113 74-206 176-257l3122-1561c-243-471-41-1058 430-1294zm431 488c-177 0-320 143-320 320s143 320 320 320 320-143 320-320-143-320-320-320zM5760 1280v1511c-396-229-884-229-1280 0V1280h-640c-176 0-320-144-320-320V640h3200v320c0 176-144 320-320 320h-640z"/></svg>