<svg xmlns="http://www.w3.org/2000/svg" width="1024" height="1024" shape-rendering="geometricPrecision" text-rendering="geometricPrecision" image-rendering="optimizeQuality" clip-rule="evenodd" viewBox="0 0 10240 10240"><title>switch_off icon</title><desc>switch_off icon from the IconExperience.com O-Collection. Copyright by INCORS GmbH (www.incors.com).</desc><path fill="gray" d="M2560 8320V1920c0-705 575-1280 1280-1280h2560c705 0 1280 575 1280 1280v6400c0 705-575 1280-1280 1280H3840c-705 0-1280-575-1280-1280zm640 0c0 353 287 640 640 640h2560c353 0 640-287 640-640V1920c0-353-287-640-640-640H3840c-353 0-640 287-640 640v6400z"/><path fill="#E68497" d="M6720 8320V5120H3520v3200c0 176 144 320 320 320h2560c176 0 320-144 320-320zM4800 5760h640c353 0 640 287 640 640v960c0 353-287 640-640 640h-640c-353 0-640-287-640-640v-960c0-353 287-640 640-640zm0 640h640v960h-640v-960z"/><path fill="gray" d="M4960 2240h320c88 0 160 72 160 160v1920c0 88-72 160-160 160h-320c-88 0-160-72-160-160V2400c0-88 72-160 160-160z"/></svg>