<svg xmlns="http://www.w3.org/2000/svg" width="1024" height="1024" shape-rendering="geometricPrecision" text-rendering="geometricPrecision" image-rendering="optimizeQuality" clip-rule="evenodd" viewBox="0 0 10240 10240"><title>switch3_on icon</title><desc>switch3_on icon from the IconExperience.com O-Collection. Copyright by INCORS GmbH (www.incors.com).</desc><path fill="gray" d="M3200 2560c-1414 0-2560 1146-2560 2560s1146 2560 2560 2560h2520c-314-162-593-380-826-640H3200c-1061 0-1920-859-1920-1920s859-1920 1920-1920h1694c233-260 512-478 826-640H3200z"/><path fill="#76A797" d="M3200 3520h1445c-306 458-485 1008-485 1600s179 1142 485 1600H3200c-884 0-1600-716-1600-1600s716-1600 1600-1600z"/><path fill="gray" d="M7040 2560c-1414 0-2560 1146-2560 2560s1146 2560 2560 2560 2560-1146 2560-2560-1146-2560-2560-2560zm0 1280c707 0 1280 573 1280 1280s-573 1280-1280 1280-1280-573-1280-1280 573-1280 1280-1280z"/></svg>