<svg xmlns="http://www.w3.org/2000/svg" width="1024" height="1024" shape-rendering="geometricPrecision" text-rendering="geometricPrecision" image-rendering="optimizeQuality" clip-rule="evenodd" viewBox="0 0 10240 10240"><title>switch3_off icon</title><desc>switch3_off icon from the IconExperience.com O-Collection. Copyright by INCORS GmbH (www.incors.com).</desc><path fill="gray" d="M7040 2560c1414 0 2560 1146 2560 2560S8454 7680 7040 7680H4520c314-162 593-380 826-640h1694c1061 0 1920-859 1920-1920s-859-1920-1920-1920H5346c-233-260-512-478-826-640h2520z"/><path fill="#E68497" d="M5595 6720h1445c884 0 1600-716 1600-1600s-716-1600-1600-1600H5595c306 458 485 1008 485 1600s-179 1142-485 1600z"/><path fill="gray" d="M3200 2560c1414 0 2560 1146 2560 2560S4614 7680 3200 7680 640 6534 640 5120s1146-2560 2560-2560zm0 1280c-707 0-1280 573-1280 1280s573 1280 1280 1280 1280-573 1280-1280-573-1280-1280-1280z"/></svg>