<svg xmlns="http://www.w3.org/2000/svg" width="1024" height="1024" shape-rendering="geometricPrecision" text-rendering="geometricPrecision" image-rendering="optimizeQuality" clip-rule="evenodd" viewBox="0 0 10240 10240"><title>sword icon</title><desc>sword icon from the IconExperience.com O-Collection. Copyright by INCORS GmbH (www.incors.com).</desc><path fill="gray" d="M6336 4869L3047 8436c-306 332-643 549-1071 692l-689 229c-117 40-239 11-327-77s-117-210-77-327l229-688c143-429 360-766 692-1072l3567-3289 965 965z"/><path fill="#B89A7C" d="M7831 4498c280 68 489 320 489 622 0 353-287 640-640 640-302 0-554-209-622-489-29-120-83-216-170-303L5272 3352c-87-87-183-141-303-170-280-68-489-320-489-622 0-353 287-640 640-640 302 0 554 209 622 489 29 120 83 216 170 303l343 343 1195-997c148-123 226-286 230-478 11-521 437-940 960-940 530 0 960 430 960 960 0 523-419 949-940 960-192 4-355 82-478 230l-997 1195 343 343c87 87 183 141 303 170zm809-3218c-177 0-320 143-320 320s143 320 320 320 320-143 320-320-143-320-320-320z"/></svg>