<svg xmlns="http://www.w3.org/2000/svg" width="1024" height="1024" shape-rendering="geometricPrecision" text-rendering="geometricPrecision" image-rendering="optimizeQuality" clip-rule="evenodd" viewBox="0 0 10240 10240"><title>symbol_yuan icon</title><desc>symbol_yuan icon from the IconExperience.com O-Collection. Copyright by INCORS GmbH (www.incors.com).</desc><path fill="gray" d="M2560 1280h5120v1280H2560V1280zm4160 3520v2880h960v-640h1280v640c0 353-144 673-375 905-232 231-552 375-905 375h-960c-353 0-673-144-905-375-231-232-375-552-375-905V4800h-640v640c0 786-232 1477-695 2073-440 565-1085 1030-1935 1395l-500-1176c643-275 1118-610 1425-1005 283-364 425-793 425-1287v-640H1920V3520h6400v1280H6720zm0 2880zm0 0zm960 0zm0 0z"/></svg>