<svg xmlns="http://www.w3.org/2000/svg" width="1024" height="1024" shape-rendering="geometricPrecision" text-rendering="geometricPrecision" image-rendering="optimizeQuality" clip-rule="evenodd" viewBox="0 0 10240 10240"><title>symbol_dollar_euro icon</title><desc>symbol_dollar_euro icon from the IconExperience.com O-Collection. Copyright by INCORS GmbH (www.incors.com).</desc><path fill="#4D82B8" d="M4519 6710h518c-10-106-15-212-15-320h-435l138-640h358c281-1461 1508-2560 2979-2560 491 0 956 123 1367 341l-288 1342c-298-253-673-403-1079-403-767 0-1418 534-1660 1280h2551l-137 640H6302c0 109 8 216 24 320h2421l-137 640H6537c304 573 873 960 1525 960 441 0 845-178 1154-471l275 1376c-426 239-913 375-1429 375-1361 0-2514-942-2901-2240h-779l137-640z"/><path fill="gray" d="M4480 3200v-160c0-264-216-480-480-480h-480v960h480c576 0 1089 279 1410 708-263 354-463 762-582 1202h-103c-153 0-281 103-313 253l-137 640c-13 59-10 116 8 169-37 41-65 92-77 151l-84 393c-41 3-81 4-122 4h-480v640h-640v-640h-480c-970 0-1760-790-1760-1760v-160h1280v160c0 264 216 480 480 480h480v-960h-480c-970 0-1760-790-1760-1760s790-1760 1760-1760h480V640h640v640h480c970 0 1760 790 1760 1760v160H4480zm-1600-640h-480c-264 0-480 216-480 480s216 480 480 480h480v-960zm640 3200h480c264 0 480-216 480-480s-216-480-480-480h-480v960z"/></svg>