<svg xmlns="http://www.w3.org/2000/svg" width="1024" height="1024" shape-rendering="geometricPrecision" text-rendering="geometricPrecision" image-rendering="optimizeQuality" clip-rule="evenodd" viewBox="0 0 10240 10240"><title>symbol_paragraph icon</title><desc>symbol_paragraph icon from the IconExperience.com O-Collection. Copyright by INCORS GmbH (www.incors.com).</desc><path fill="gray" d="M6400 2880c0-175-145-320-320-320H4160c-175 0-320 145-320 320s145 320 320 320h1600c1058 0 1920 862 1920 1920 0 443-151 852-405 1178 261 293 405 669 405 1062 0 882-718 1600-1600 1600H4160c-882 0-1600-718-1600-1600h1280c0 175 145 320 320 320h1920c175 0 320-145 320-320s-145-320-320-320H4480c-1058 0-1920-862-1920-1920 0-443 151-852 405-1178-261-293-405-669-405-1062 0-882 718-1600 1600-1600h1920c882 0 1600 718 1600 1600H6400zm-640 2880c352 0 640-288 640-640s-288-640-640-640H4480c-352 0-640 288-640 640s288 640 640 640h1280z"/></svg>