<svg xmlns="http://www.w3.org/2000/svg" width="1024" height="1024" shape-rendering="geometricPrecision" text-rendering="geometricPrecision" image-rendering="optimizeQuality" clip-rule="evenodd" viewBox="0 0 10240 10240"><title>symbol_percent icon</title><desc>symbol_percent icon from the IconExperience.com O-Collection. Copyright by INCORS GmbH (www.incors.com).</desc><path fill="gray" d="M2880 1280h320c705 0 1280 575 1280 1280v960c0 705-575 1280-1280 1280h-320c-705 0-1280-575-1280-1280v-960c0-705 575-1280 1280-1280zm4160 4160h320c705 0 1280 575 1280 1280v960c0 705-575 1280-1280 1280h-320c-705 0-1280-575-1280-1280v-960c0-705 575-1280 1280-1280zm0 960c-175 0-320 145-320 320v960c0 175 145 320 320 320h320c175 0 320-145 320-320v-960c0-175-145-320-320-320h-320zm1011-5120L3662 8960H2189l4389-7680h1473zm-5171 960c-175 0-320 145-320 320v960c0 175 145 320 320 320h320c175 0 320-145 320-320v-960c0-175-145-320-320-320h-320z"/></svg>