<svg xmlns="http://www.w3.org/2000/svg" width="1024" height="1024" shape-rendering="geometricPrecision" text-rendering="geometricPrecision" image-rendering="optimizeQuality" clip-rule="evenodd" viewBox="0 0 10240 10240"><title>symbol_male icon</title><desc>symbol_male icon from the IconExperience.com O-Collection. Copyright by INCORS GmbH (www.incors.com).</desc><path fill="gray" d="M4160 3200c564 0 1089 162 1533 442l1082-1082H5506c-66 0-122-38-148-99-25-61-12-127 35-174l913-913c63-63 138-94 227-94h2107c176 0 320 144 320 320v2107c0 89-31 164-94 227l-913 913c-47 47-113 60-174 35-61-26-99-82-99-148V3465L6598 4547c280 444 442 969 442 1533 0 1591-1289 2880-2880 2880S1280 7671 1280 6080s1289-2880 2880-2880zm0 1280c-884 0-1600 716-1600 1600s716 1600 1600 1600 1600-716 1600-1600-716-1600-1600-1600z"/></svg>