<svg xmlns="http://www.w3.org/2000/svg" width="1024" height="1024" shape-rendering="geometricPrecision" text-rendering="geometricPrecision" image-rendering="optimizeQuality" clip-rule="evenodd" viewBox="0 0 10240 10240"><title>symbol_yen icon</title><desc>symbol_yen icon from the IconExperience.com O-Collection. Copyright by INCORS GmbH (www.incors.com).</desc><path fill="gray" d="M2560 6720h1920v-640H2560v-960h1890c-4-13-9-26-14-39-28-68-76-136-143-203L2802 3387c-182-182-321-390-418-623-96-232-144-477-144-734v-750h1280v750c0 95 15 178 44 249 28 68 76 136 143 203l1413 1413 1413-1413c67-67 115-135 143-203 29-71 44-154 44-249v-750h1280v750c0 257-48 502-144 734-97 233-236 441-418 623L5947 4878c-67 67-115 135-143 203-5 13-10 26-14 39h1890v960H5760v640h1920v960H5760v1280H4480V7680H2560v-960z"/></svg>