<svg xmlns="http://www.w3.org/2000/svg" width="1024" height="1024" shape-rendering="geometricPrecision" text-rendering="geometricPrecision" image-rendering="optimizeQuality" clip-rule="evenodd" viewBox="0 0 10240 10240"><title>synagogue icon</title><desc>synagogue icon from the IconExperience.com O-Collection. Copyright by INCORS GmbH (www.incors.com).</desc><path fill="gray" d="M640 4480l1054-1054c124-124 328-124 452 0l1054 1054v4480H640V4480zm7680 1280c-352 0-640 287-640 640v1280h1280V6400c0-353-287-640-640-640zm-6400 0c-352 0-640 287-640 640v1280h1280V6400c0-353-287-640-640-640zm5120-1280l1054-1054c124-124 328-124 452 0l1054 1054v4480H7040V4480z"/><path fill="gray" d="M2466 3294L4894 866c124-124 328-124 452 0l2428 2428-960 960c-63 62-94 138-94 226v4480h-640V7040c0-529-431-960-960-960s-960 431-960 960v1920h-640V4480c0-88-31-164-94-226l-960-960zm2176-734h-618c-27 0-54 7-80 21-76 44-103 142-59 218l320 560-316 554c-16 25-25 54-25 86 0 88 71 160 160 160h632l321 650c15 30 40 56 72 73 79 39 175 6 214-73l321-650h632s74-18 80-21c76-44 103-142 59-218l-320-561 316-553c16-25 25-54 25-86 0-88-71-160-160-160h-624l-335-561s-49-51-54-55c-76-45-174-21-219 54l-342 562zm751 1279l275-482-260-477h-582l-254 476 275 483h546zm458-157l-90 157h180l-90-157zm-623 477h-216l108 219 108-219zm-749-320l-90-157-90 157h180zm-94-809l80-150h-166l86 150zm630-470h206l-102-171-104 171zm756 320l83 152 87-152h-170z"/></svg>