<svg xmlns="http://www.w3.org/2000/svg" width="1024" height="1024" shape-rendering="geometricPrecision" text-rendering="geometricPrecision" image-rendering="optimizeQuality" clip-rule="evenodd" viewBox="0 0 10240 10240"><title>table_selection_range icon</title><desc>table_selection_range icon from the IconExperience.com O-Collection. Copyright by INCORS GmbH (www.incors.com).</desc><path fill="gray" d="M9280 9280H960V1920c0-353 287-640 640-640h7040c353 0 640 287 640 640v7360zM1280 2880v6080h4480V7680h320v1280h1280V7680h320v1280h1280V2880H2880v1280h-320V2880H1280z"/><path fill="#ED9A56" d="M4480 2880h1280v1280H4480V2880zm1600 0h1280v1280H6080V2880zm1600 0h1280v1280H7680V2880zM1280 7680h1280v1280H1280V7680zm1600 0h1280v1280H2880V7680zM1280 6080h1280v1280H1280V6080zm1600 0h1280v1280H2880V6080zm1600 0h1280v1280H4480V6080zm1600 0h1280v1280H6080V6080zm1600 0h1280v1280H7680V6080zM1280 4480h1280v1280H1280V4480zm1600 0h1280v1280H2880V4480zm1600 0h1280v1280H4480V4480zm1600 0h1280v1280H6080V4480zm1600 0h1280v1280H7680V4480z"/></svg>