<svg xmlns="http://www.w3.org/2000/svg" width="1024" height="1024" shape-rendering="geometricPrecision" text-rendering="geometricPrecision" image-rendering="optimizeQuality" clip-rule="evenodd" viewBox="0 0 10240 10240"><title>table_selection_all icon</title><desc>table_selection_all icon from the IconExperience.com O-Collection. Copyright by INCORS GmbH (www.incors.com).</desc><path fill="gray" d="M9280 9280H960V1920c0-353 287-640 640-640h7040c353 0 640 287 640 640v7360zM1280 2880v6080h7680V2880H1280z"/><path fill="#ED9A56" d="M1280 2880h1280v1280H1280V2880zm1600 0h1280v1280H2880V2880zm1600 0h1280v1280H4480V2880zm1600 0h1280v1280H6080V2880zm1600 0h1280v1280H7680V2880zm1280 1600v1280H7680V4480h1280zm0 1600v1280H7680V6080h1280zm0 1600v1280H7680V7680h1280zM7360 8960H6080V7680h1280v1280zm-1600 0H4480V7680h1280v1280zm-1600 0H2880V7680h1280v1280zm-1600 0H1280V7680h1280v1280zM1280 7360V6080h1280v1280H1280zm0-1600V4480h1280v1280H1280zm6080-1280H6080v1280h1280V4480zm0 1600H6080v1280h1280V6080zM5760 4480H4480v1280h1280V4480zm0 1600H4480v1280h1280V6080zM4160 4480H2880v1280h1280V4480zm0 1600H2880v1280h1280V6080z"/></svg>