<svg xmlns="http://www.w3.org/2000/svg" width="1024" height="1024" shape-rendering="geometricPrecision" text-rendering="geometricPrecision" image-rendering="optimizeQuality" clip-rule="evenodd" viewBox="0 0 10240 10240"><title>tablet_computer_touch icon</title><desc>tablet_computer_touch icon from the IconExperience.com O-Collection. Copyright by INCORS GmbH (www.incors.com).</desc><path fill="#4D82B8" d="M5120 2560c1237 0 2240 1003 2240 2240S6357 7040 5120 7040 2880 6037 2880 4800s1003-2240 2240-2240zm0 1280c530 0 960 430 960 960s-430 960-960 960-960-430-960-960 430-960 960-960zm0-640c-884 0-1600 716-1600 1600s716 1600 1600 1600 1600-716 1600-1600-716-1600-1600-1600z"/><path fill="gray" d="M1920 640h6400c353 0 640 288 640 640v7680c0 352-288 640-640 640H1920c-352 0-640-287-640-640V1280c0-353 288-640 640-640zm2880 8000c-176 0-320 144-320 320s144 320 320 320h640c176 0 320-144 320-320s-144-320-320-320h-640zM1920 1280v7040h6400V1280H1920z"/></svg>