<svg xmlns="http://www.w3.org/2000/svg" width="1024" height="1024" shape-rendering="geometricPrecision" text-rendering="geometricPrecision" image-rendering="optimizeQuality" clip-rule="evenodd" viewBox="0 0 10240 10240"><title>table_selection_row icon</title><desc>table_selection_row icon from the IconExperience.com O-Collection. Copyright by INCORS GmbH (www.incors.com).</desc><path fill="#ED9A56" d="M1280 4480h1280v1280H1280V4480zm1600 0h1280v1280H2880V4480zm1600 0h1280v1280H4480V4480zm1600 0h1280v1280H6080V4480zm1600 0h1280v1280H7680V4480z"/><path fill="gray" d="M9280 9280H960V1920c0-353 287-640 640-640h7040c353 0 640 288 640 640v7360zM1280 2880v4480h1280V6080h320v1280h1280V6080h320v1280h1280V6080h320v1280h1280V6080h320v1280h1280V2880H7680v1280h-320V2880H6080v1280h-320V2880H4480v1280h-320V2880H2880v1280h-320V2880H1280zm0 4800v1280h1280V7680H1280zm1600 0v1280h1280V7680H2880zm1600 0v1280h1280V7680H4480zm1600 0v1280h1280V7680H6080zm1600 0v1280h1280V7680H7680z"/></svg>