<svg xmlns="http://www.w3.org/2000/svg" width="1024" height="1024" shape-rendering="geometricPrecision" text-rendering="geometricPrecision" image-rendering="optimizeQuality" clip-rule="evenodd" viewBox="0 0 10240 10240"><title>tag icon</title><desc>tag icon from the IconExperience.com O-Collection. Copyright by INCORS GmbH (www.incors.com).</desc><path fill="#4D82B8" d="M1280 4635V1920c0-352 288-640 640-640h2715c177 0 328 63 453 187l3885 3886c250 249 250 656 0 905L6258 8973c-249 250-656 250-905 0L1467 5088c-124-125-187-276-187-453zm905 265l3620 3621 2716-2716-3621-3620-2715 2715zm375-2980c-353 0-640 287-640 640s287 640 640 640 640-287 640-640-287-640-640-640z"/></svg>