<svg xmlns="http://www.w3.org/2000/svg" width="1024" height="1024" shape-rendering="geometricPrecision" text-rendering="geometricPrecision" image-rendering="optimizeQuality" clip-rule="evenodd" viewBox="0 0 10240 10240"><title>tank icon</title><desc>tank icon from the IconExperience.com O-Collection. Copyright by INCORS GmbH (www.incors.com).</desc><path fill="gray" d="M1015 6080h7943c246 0 457 129 569 347 113 219 95 465-48 665l-494 692c-248 347-615 536-1042 536H2240c-352 0-656-126-905-375l-773-772c-187-187-240-454-138-698 101-244 327-395 591-395z"/><path fill="#76A797" d="M1280 4160h4254c117 0 218 18 328 58l3070 1116c190 69 325 208 389 399l37 112c-122-55-258-85-400-85H1015c-364 0-684 195-849 512l96-845c25-211 89-387 207-564l278-418c123-184 312-285 533-285zM9824 3190l-873 117c-44 5-84-5-119-32s-55-62-61-105l-3155 420-302-603 3374-450c-11-87 51-167 138-179l873-116c44-6 84 4 119 31s55 63 61 106l82 632c12 87-50 168-137 179zM1920 2560h2428c248 0 461 132 572 354l463 926H1280v-640c0-353 288-640 640-640z"/></svg>