<svg xmlns="http://www.w3.org/2000/svg" width="1024" height="1024" shape-rendering="geometricPrecision" text-rendering="geometricPrecision" image-rendering="optimizeQuality" clip-rule="evenodd" viewBox="0 0 10240 10240"><title>tank_truck icon</title><desc>tank_truck icon from the IconExperience.com O-Collection. Copyright by INCORS GmbH (www.incors.com).</desc><path fill="gray" d="M8320 7040c-530 0-960 430-960 960s430 960 960 960 960-430 960-960-430-960-960-960zm-4480 0c530 0 960 430 960 960s-430 960-960 960-960-430-960-960c0 530-430 960-960 960s-960-430-960-960 430-960 960-960 960 430 960 960c0-530 430-960 960-960zm0 640c-177 0-320 143-320 320s143 320 320 320 320-143 320-320-143-320-320-320zm-1920 0c-177 0-320 143-320 320s143 320 320 320 320-143 320-320-143-320-320-320zm6400 0c177 0 320 143 320 320s-143 320-320 320-320-143-320-320 143-320 320-320z"/><path fill="gray" d="M6720 7040V4480c0-176 144-320 320-320h1524c249 0 452 137 573 354l715 1280c51 90 68 182 68 286v1920h-320c0-707-573-1280-1280-1280s-1280 573-1280 1280c0 110 14 218 40 320H5080c26-102 40-210 40-320 0-382-168-725-434-960h2034zm640-2240v1280h1920l-716-1280H7360z"/><path fill="#EDC87E" d="M5760 3520c353 0 640 716 640 1600s-287 1600-640 1600H960c-353 0-640-716-640-1600s287-1600 640-1600h960v-160c0-88 72-160 160-160h960c88 0 160 72 160 160v160h640v-160c0-88 72-160 160-160h960c88 0 160 72 160 160v160h640zm-4480 640c-176 0-320 144-320 320 0 248 232 320 320 320h3520c88 0 320-72 320-320 0-176-144-320-320-320H1280z"/></svg>