<svg xmlns="http://www.w3.org/2000/svg" width="1024" height="1024" shape-rendering="geometricPrecision" text-rendering="geometricPrecision" image-rendering="optimizeQuality" clip-rule="evenodd" viewBox="0 0 10240 10240"><title>tape_measure icon</title><desc>tape_measure icon from the IconExperience.com O-Collection. Copyright by INCORS GmbH (www.incors.com).</desc><path fill="#EDC87E" d="M320 5760h2560v320H960v1913h320v-633h320v633h320v-633h320v633h320v-633h320v633h316c92 123 201 233 324 326l-3200 1V5760z"/><path fill="gray" d="M4480 1920h3840c705 0 1280 575 1280 1280v3840c0 705-575 1280-1280 1280H4480c-705 0-1280-575-1280-1280V3200c0-705 575-1280 1280-1280zm1920 1280c-1060 0-1920 860-1920 1920s860 1920 1920 1920 1920-860 1920-1920-860-1920-1920-1920z"/></svg>