<svg xmlns="http://www.w3.org/2000/svg" width="1024" height="1024" shape-rendering="geometricPrecision" text-rendering="geometricPrecision" image-rendering="optimizeQuality" clip-rule="evenodd" viewBox="0 0 10240 10240"><title>taxi icon</title><desc>taxi icon from the IconExperience.com O-Collection. Copyright by INCORS GmbH (www.incors.com).</desc><path fill="gray" d="M7360 8657v623c0 176 144 320 320 320h1280c176 0 320-144 320-320v-640H7412l-52 17zm-4480 0v623c0 176-144 320-320 320H1280c-176 0-320-144-320-320v-640h1868l52 17z"/><path fill="#EDC87E" d="M4090 1920h2060c149 0 275 98 311 242l117 471c516 49 983 128 1102 247 320 320 640 640 960 1600 640 320 960 1280 960 1920 0 674 0 1920-320 1920H7360l-960 320H3840l-960-320H960c-320 0-320-1246-320-1920 0-640 320-1600 960-1920 320-960 640-1280 960-1600 139-139 544-224 1108-271l111-447c36-144 162-242 311-242zm-446 4160c-106 0-198 47-260 133s-94 195-44 288l516 960c67 124 164 219 304 219h1920c140 0 237-95 304-219l516-960c50-93 18-202-44-288s-154-133-260-133H3644zm-2516 0c-83 0-151 62-159 145-6 61-9 120-9 175 0 161 0 322 3 483 2 87 73 157 160 157h1778c61 0 113-31 141-84 29-54 26-114-8-165l-379-568c-61-92-156-143-266-143H1128zm7984 0H7851c-110 0-205 51-266 142l-379 569c-34 51-37 111-8 165 28 53 80 84 141 84h1778c87 0 159-70 160-157 3-161 3-322 3-483 0-55-3-114-9-175-8-83-76-145-159-145zm-828-1649c-102-284-220-558-390-814-127-190-270-340-430-501-496-286-4292-329-4678-10-164 165-310 317-440 511-170 256-324 579-426 863-19 54-10 110 26 154 36 45 88 65 145 59 2069-213 3989-213 6022-49 57 4 109-14 145-59 36-44 45-100 26-154z"/></svg>