<svg xmlns="http://www.w3.org/2000/svg" width="1024" height="1024" shape-rendering="geometricPrecision" text-rendering="geometricPrecision" image-rendering="optimizeQuality" clip-rule="evenodd" viewBox="0 0 10240 10240"><title>tea_bag icon</title><desc>tea_bag icon from the IconExperience.com O-Collection. Copyright by INCORS GmbH (www.incors.com).</desc><path fill="gray" d="M6494 7586l960-960c124-124 328-124 452 0l960 960c63 63 94 138 94 227v1467c0 176-144 320-320 320H6720c-176 0-320-144-320-320V7813c0-89 31-164 94-227zM4800 3200c0 177-143 320-320 320s-320-143-320-320h-320c-177 0-320-143-320-320s143-320 320-320h320c0-688 245-1220 620-1595 430-430 1027-645 1620-645 594 0 1191 215 1620 644 376 375 620 908 620 1596s-169 1194-337 1700c-152 454-303 908-303 1500v538c-197-114-443-114-640 0v-538c0-687 169-1194 337-1700 152-454 303-907 303-1500 0-502-170-882-432-1144-304-304-735-456-1168-456-432 0-863 152-1168 457-261 262-432 642-432 1143h320c177 0 320 143 320 320s-143 320-320 320h-320z"/><path fill="#EDC87E" d="M3021 1920h888c-24 106-41 212-52 320h-17c-353 0-640 287-640 640s287 640 640 640h86c110 191 317 320 554 320s444-129 554-320h86c353 0 640-287 640-640 0-343-271-624-610-639 14-71 34-140 59-208 14-37 22-75 22-113h708c280 0 518 172 607 438l695 2086c-122 425-201 832-201 1316v827l-773 773c-122 122-187 280-187 453v1467c0 116 31 226 86 320H1920c-352 0-640-287-640-640V5864c0-72 10-134 33-203l1101-3303c89-266 327-438 607-438z"/></svg>