<svg xmlns="http://www.w3.org/2000/svg" width="1024" height="1024" shape-rendering="geometricPrecision" text-rendering="geometricPrecision" image-rendering="optimizeQuality" clip-rule="evenodd" viewBox="0 0 10240 10240"><title>telephone2 icon</title><desc>telephone2 icon from the IconExperience.com O-Collection. Copyright by INCORS GmbH (www.incors.com).</desc><path fill="gray" d="M3520 4160v-612c192-51 420-89 668-116 104 418 482 728 932 728 448 0 824-307 930-722 248 28 477 67 670 117v605c0 1280 1600 1600 1600 2560v1600c0 352-288 640-640 640H2560c-352 0-640-287-640-640V6720c0-960 1600-1280 1600-2560zm1600 960c-707 0-1280 573-1280 1280s573 1280 1280 1280 1280-573 1280-1280-573-1280-1280-1280z"/><path fill="gray" d="M7416 3780l-64 285c-76 339 103 707 412 769l1359 274c308 62 610-123 686-462l69-308c189-850-277-1687-1030-1924-2095-659-5361-659-7456 0C639 2651 173 3488 362 4338l69 308c76 339 378 524 686 462l1357-274c309-62 488-430 412-769l-64-285c-34-155 42-304 169-374 825-452 3385-454 4256 0 129 67 203 219 169 374z"/></svg>