<svg xmlns="http://www.w3.org/2000/svg" width="1024" height="1024" shape-rendering="geometricPrecision" text-rendering="geometricPrecision" image-rendering="optimizeQuality" clip-rule="evenodd" viewBox="0 0 10240 10240"><title>telescope icon</title><desc>telescope icon from the IconExperience.com O-Collection. Copyright by INCORS GmbH (www.incors.com).</desc><path fill="#4D82B8" d="M3544 8929c-111 20-226 31-344 31-1060 0-1920-860-1920-1920 0-118 11-233 31-344l2233 2233z"/><path fill="gray" d="M2146 5534l94 93 1694-1693c125-125 327-125 452 0l1920 1920c125 125 125 327 0 452L4613 8000l93 94c125 125 125 327 0 452l-320 320c-125 125-327 125-452 0L1374 6306c-125-125-125-327 0-452l320-320c125-125 327-125 452 0zM6626 2334l1280 1280c125 125 125 327 0 452L6439 5534 4706 3801l1468-1467c125-125 327-125 452 0zM9130 2203L8039 3294 6946 2201l1091-1091c-64-121-45-274 57-376 125-125 327-125 452 0l960 960c125 125 125 327 0 452-102 102-255 121-376 57z"/></svg>