<svg xmlns="http://www.w3.org/2000/svg" width="1024" height="1024" shape-rendering="geometricPrecision" text-rendering="geometricPrecision" image-rendering="optimizeQuality" clip-rule="evenodd" viewBox="0 0 10240 10240"><title>telephone icon</title><desc>telephone icon from the IconExperience.com O-Collection. Copyright by INCORS GmbH (www.incors.com).</desc><path fill="gray" d="M3731 1280h4909c529 0 960 431 960 960v5760c0 529-431 960-960 960H3731c269-232 429-584 429-959v-813c0-302-104-595-300-825-87-103-127-211-127-345V4222c0-134 40-242 127-345 196-230 300-523 300-825v-813c0-375-160-727-429-959zm1389 1280c-176 0-320 144-320 320v640c0 176 144 320 320 320h3520c176 0 320-144 320-320v-640c0-176-144-320-320-320H5120zm320 1920c-176 0-320 144-320 320v320c0 176 144 320 320 320h320c176 0 320-144 320-320v-320c0-176-144-320-320-320h-320zm2560 2560c-176 0-320 144-320 320v320c0 176 144 320 320 320h320c176 0 320-144 320-320v-320c0-176-144-320-320-320h-320zm-1280 0c-176 0-320 144-320 320v320c0 176 144 320 320 320h320c176 0 320-144 320-320v-320c0-176-144-320-320-320h-320zm-1280 0c-176 0-320 144-320 320v320c0 176 144 320 320 320h320c176 0 320-144 320-320v-320c0-176-144-320-320-320h-320zm2560-1280c-176 0-320 144-320 320v320c0 176 144 320 320 320h320c176 0 320-144 320-320v-320c0-176-144-320-320-320h-320zm-1280 0c-176 0-320 144-320 320v320c0 176 144 320 320 320h320c176 0 320-144 320-320v-320c0-176-144-320-320-320h-320zm-1280 0c-176 0-320 144-320 320v320c0 176 144 320 320 320h320c176 0 320-144 320-320v-320c0-176-144-320-320-320h-320zm2560-1280c-176 0-320 144-320 320v320c0 176 144 320 320 320h320c176 0 320-144 320-320v-320c0-176-144-320-320-320h-320zm-1280 0c-176 0-320 144-320 320v320c0 176 144 320 320 320h320c176 0 320-144 320-320v-320c0-176-144-320-320-320h-320z"/><path fill="gray" d="M3617 3670c138-163 223-380 223-618v-813c0-447-291-821-700-902-195-38-388-57-582-57-192 0-385 19-578 57-409 81-700 455-700 902v813c0 238 85 455 223 618 137 160 204 342 204 552v1796c0 210-67 392-204 552-138 163-223 380-223 618v813c0 447 291 821 700 902 388 76 772 76 1160 0 409-81 700-455 700-902v-813c0-238-85-455-223-618-137-160-204-342-204-552V4222c0-210 67-392 204-552z"/></svg>