<svg xmlns="http://www.w3.org/2000/svg" width="1024" height="1024" shape-rendering="geometricPrecision" text-rendering="geometricPrecision" image-rendering="optimizeQuality" clip-rule="evenodd" viewBox="0 0 10240 10240"><title>text_align_center icon</title><desc>text_align_center icon from the IconExperience.com O-Collection. Copyright by INCORS GmbH (www.incors.com).</desc><path fill="gray" d="M7680 8320H5760v640h1920v-640zm-3200 0H2560v640h1920v-640zm4480-6400H5760v640h3200v-640zm-4480 0H1280v640h3200v-640zm3840 1280H5760v640h2560v-640zm-3840 0H1920v640h2560v-640zm2560 1280H5760v640h1280v-640zm-2560 0H3200v640h1280v-640zm3200 1280H5760v640h1920v-640zm-3200 0H2560v640h1920v-640zm3840 1280H5760v640h2560v-640zm-3840 0H1920v640h2560v-640z"/><path fill="#4D82B8" d="M5440 1280h-640v8320h640z"/></svg>