<svg xmlns="http://www.w3.org/2000/svg" width="1024" height="1024" shape-rendering="geometricPrecision" text-rendering="geometricPrecision" image-rendering="optimizeQuality" clip-rule="evenodd" viewBox="0 0 10240 10240"><title>thermometer2 icon</title><desc>thermometer2 icon from the IconExperience.com O-Collection. Copyright by INCORS GmbH (www.incors.com).</desc><path fill="gray" d="M4816 7717c-470 470-1157 591-1739 363l-11 11c0-13-1-26-2-39 20-16 40-33 59-52l460-460c277 24 563-70 775-282l170-170-247-247 459-458 247 246 501-501-247-247 459-458 247 246 501-501-247-247 459-458 247 246 1119-1120c381-380 381-995 0-1375-379-380-993-381-1373-3L5531 3333l246 247-458 459-247-247-501 501 246 247-458 459-247-247-501 501 246 247-458 459-247-247-170 170c-212 212-306 498-282 775l-460 460c-19 19-36 39-52 59-13-1-26-2-39-2l11-11c-228-582-107-1269 363-1739l3669-3669c633-633 1660-633 2293 0s633 1660 0 2293L4816 7717z"/><path fill="#E68497" d="M2074 9083c-259 259-674 263-927 10s-249-668 10-927l476-476c174-174 417-233 635-177l4223-4222 458 458-4222 4223c56 218-3 461-177 635l-476 476z"/></svg>