<svg xmlns="http://www.w3.org/2000/svg" width="1024" height="1024" shape-rendering="geometricPrecision" text-rendering="geometricPrecision" image-rendering="optimizeQuality" clip-rule="evenodd" viewBox="0 0 10240 10240"><title>thermometer icon</title><desc>thermometer icon from the IconExperience.com O-Collection. Copyright by INCORS GmbH (www.incors.com).</desc><path fill="gray" d="M6400 6249c393 352 640 862 640 1431 0 1060-860 1920-1920 1920s-1920-860-1920-1920c0-569 247-1079 640-1431V1920c0-707 573-1280 1280-1280s1280 573 1280 1280v4329zm-640 286V1920c0-354-286-640-640-640s-640 286-640 640v4615l-213 191c-273 244-427 588-427 954 0 707 573 1280 1280 1280s1280-573 1280-1280c0-366-154-710-427-954l-213-191z"/><path fill="#E68497" d="M4800 3200h640v3575c373 132 640 487 640 905 0 530-430 960-960 960s-960-430-960-960c0-418 267-773 640-905V3200z"/><path fill="gray" d="M6720 5440h1600v640H6720v-640zm0-3840h1600v640H6720v-640zm0 1280h1600v640H6720v-640zm0 1280h1600v640H6720v-640z"/></svg>