<svg xmlns="http://www.w3.org/2000/svg" width="1024" height="1024" shape-rendering="geometricPrecision" text-rendering="geometricPrecision" image-rendering="optimizeQuality" clip-rule="evenodd" viewBox="0 0 10240 10240"><title>toaster icon</title><desc>toaster icon from the IconExperience.com O-Collection. Copyright by INCORS GmbH (www.incors.com).</desc><path fill="gray" d="M8960 3840h320c176 0 320 144 320 320v640c0 176-144 320-320 320h-320V3840zM8960 5440v3200c0 176-144 320-320 320H7360c-176 0-320-144-320-320s-144-320-320-320H2880c-176 0-320 144-320 320s-144 320-320 320H960c-176 0-320-144-320-320V3840c0-705 575-1280 1280-1280 0 176 144 320 320 320h5120c176 0 320-144 320-320 595 0 1098 410 1240 962-157 20-280 155-280 318v1280c0 176 144 320 320 320z"/><path fill="#B89A7C" d="M7040 640c353 0 640 345 640 640s-129 444-320 554v726H2240v-726c-191-110-320-259-320-554s287-640 640-640h4480z"/></svg>