<svg xmlns="http://www.w3.org/2000/svg" width="1024" height="1024" shape-rendering="geometricPrecision" text-rendering="geometricPrecision" image-rendering="optimizeQuality" clip-rule="evenodd" viewBox="0 0 10240 10240"><title>tobacco_pipe icon</title><desc>tobacco_pipe icon from the IconExperience.com O-Collection. Copyright by INCORS GmbH (www.incors.com).</desc><path fill="#B89A7C" d="M960 3840h3520c176 0 320 144 320 320v960c320 0 640-320 640-960 0-1600 1280-2560 2880-2560h640c0-176 144-320 320-320s320 144 320 320v960c0 176-144 320-320 320s-320-144-320-320c-1600 0-1600 1573-1600 2880 0 1920-1600 3520-3520 3520S640 7680 640 6080V4160c0-176 144-320 320-320zm320 960v1280c0 279 50 563 154 822 66 164 252 243 415 177 164-65 243-251 178-415-76-189-107-381-107-584V4800c0-177-143-320-320-320s-320 143-320 320z"/></svg>