<svg xmlns="http://www.w3.org/2000/svg" width="1024" height="1024" shape-rendering="geometricPrecision" text-rendering="geometricPrecision" image-rendering="optimizeQuality" clip-rule="evenodd" viewBox="0 0 10240 10240"><title>toilet_paper icon</title><desc>toilet_paper icon from the IconExperience.com O-Collection. Copyright by INCORS GmbH (www.incors.com).</desc><path fill="gray" d="M5448 5448c437-437 1147-437 1584 0s437 1147 0 1584-1147 437-1584 0-437-1147 0-1584z"/><path fill="gray" d="M4317 4317c1062-1063 2784-1063 3846 0 1063 1062 1063 2784 0 3846-1062 1063-2784 1063-3846 0-1063-1062-1063-2784 0-3846zM706 7680c-142 0-214 172-113 273l1553 1553c63 63 138 94 227 94h4027l-5-4c807-37 1604-363 2221-980 1312-1312 1312-3440 0-4752L6696 1944c-1312-1312-3440-1312-4752 0s-1312 3440 0 4752l984 984 936 936c127 127 262 242 403 344H2505l-640-640h1260l-645-640H706zm6063-4758c-1027-163-2114 151-2905 942s-1105 1878-942 2905l-525-526c-1063-1062-1063-2784 0-3846 1062-1063 2784-1063 3846 0l526 525z"/></svg>