<svg xmlns="http://www.w3.org/2000/svg" width="1024" height="1024" shape-rendering="geometricPrecision" text-rendering="geometricPrecision" image-rendering="optimizeQuality" clip-rule="evenodd" viewBox="0 0 10240 10240"><title>tool_tip icon</title><desc>tool_tip icon from the IconExperience.com O-Collection. Copyright by INCORS GmbH (www.incors.com).</desc><path fill="#4D82B8" d="M4766 5120h4834v3200H1920V6389l264-264 374 901 2 4v650h6400V5760H3907l-132-319h523c204 0 385-121 463-310 2-4 3-7 5-11z"/><path fill="gray" d="M1591 1975l2835 2835c53 54 68 129 40 199-29 69-93 112-168 112H3295l567 1364c39 92-6 199-98 238l-673 278c-92 39-199-6-237-98l-558-1342-705 705c-54 53-129 68-199 39-69-28-112-93-112-168V2103c0-75 43-139 112-168 70-28 145-13 199 40z"/></svg>