<svg xmlns="http://www.w3.org/2000/svg" width="1024" height="1024" shape-rendering="geometricPrecision" text-rendering="geometricPrecision" image-rendering="optimizeQuality" clip-rule="evenodd" viewBox="0 0 10240 10240"><title>truck_trailer icon</title><desc>truck_trailer icon from the IconExperience.com O-Collection. Copyright by INCORS GmbH (www.incors.com).</desc><path fill="gray" d="M4480 7040c530 0 960 430 960 960s-430 960-960 960-960-430-960-960 430-960 960-960zm-2240 640c-177 0-320 143-320 320s143 320 320 320 320-143 320-320-143-320-320-320zm2240 0c-177 0-320 143-320 320s143 320 320 320 320-143 320-320-143-320-320-320zm-2240-640c530 0 960 430 960 960s-430 960-960 960-960-430-960-960 430-960 960-960z"/><path fill="gray" d="M7040 6080v960h1920c0-177 143-320 320-320s320 143 320 320v640H8320v960c0 176-144 320-320 320s-320-144-320-320v-960H5720c-142-552-644-960-1240-960-482 0-902 266-1120 660-218-394-638-660-1120-660-596 0-1098 408-1240 960h-40c-176 0-320-144-320-320V6080h6400z"/><path fill="#4D82B8" d="M960 2560h5760c176 0 320 144 320 320v2880H640V2880c0-176 144-320 320-320z"/></svg>