<svg xmlns="http://www.w3.org/2000/svg" width="1024" height="1024" shape-rendering="geometricPrecision" text-rendering="geometricPrecision" image-rendering="optimizeQuality" clip-rule="evenodd" viewBox="0 0 10240 10240"><title>truck icon</title><desc>truck icon from the IconExperience.com O-Collection. Copyright by INCORS GmbH (www.incors.com).</desc><path fill="gray" d="M6400 8875v405c0 176 144 320 320 320h960c176 0 320-144 320-320v-726c-94 55-204 86-320 86H6665l-132 133c-41 40-85 74-133 102zm-2560 0v405c0 176-144 320-320 320h-960c-176 0-320-144-320-320v-726c94 55 204 86 320 86h1015l132 133c41 40 85 74 133 102zM8000 7040v960c0 176-144 320-320 320H6665c-88 0-164 31-226 94l-133 132c-62 63-138 94-226 94H4160c-88 0-164-31-226-94l-133-132c-62-63-138-94-226-94H2560c-176 0-320-144-320-320v-960h5760zm-1214 320c-88 0-164 31-226 94l-273 273c-47 47-60 113-35 174s82 99 148 99h960c176 0 320-144 320-320s-144-320-320-320h-574zm-3906 0c-176 0-320 144-320 320s144 320 320 320h960c66 0 123-38 148-99s12-127-35-174l-273-273c-62-63-138-94-226-94h-574zM2880 2560h4480c353 0 640 288 640 640v3520H2240V3200c0-353 288-640 640-640zm320 640c-353 0-640 287-640 640v960c0 176 144 320 320 320h4480c176 0 320-144 320-320v-960c0-352-287-640-640-640H3200z"/><path fill="#4D82B8" d="M1600 640h7040c176 0 320 144 320 320v5760c0 176-144 320-320 320h-320V3200c0-529-431-960-960-960H2880c-529 0-960 431-960 960v3840h-320c-176 0-320-144-320-320V960c0-176 144-320 320-320z"/></svg>