<svg xmlns="http://www.w3.org/2000/svg" width="1024" height="1024" shape-rendering="geometricPrecision" text-rendering="geometricPrecision" image-rendering="optimizeQuality" clip-rule="evenodd" viewBox="0 0 10240 10240"><title>ufo icon</title><desc>ufo icon from the IconExperience.com O-Collection. Copyright by INCORS GmbH (www.incors.com).</desc><path fill="gray" d="M7872 4362c1238 203 2048 538 2048 918 0 619-2149 1120-4800 1120S320 5899 320 5280c0-380 810-715 2048-918 364-1044 1458-1802 2752-1802s2388 758 2752 1802zm-1152-522c-353 0-640 287-640 640s287 640 640 640 640-287 640-640-287-640-640-640zm-3200 0c-353 0-640 287-640 640s287 640 640 640 640-287 640-640-287-640-640-640zm1600 0c-353 0-640 287-640 640s287 640 640 640 640-287 640-640-287-640-640-640zm2286 2729c-422 469-1287 791-2286 791s-1864-322-2286-791c688 96 1464 151 2286 151s1598-55 2286-151z"/></svg>