<svg xmlns="http://www.w3.org/2000/svg" width="1024" height="1024" shape-rendering="geometricPrecision" text-rendering="geometricPrecision" image-rendering="optimizeQuality" clip-rule="evenodd" viewBox="0 0 10240 10240"><title>umbrella_open icon</title><desc>umbrella_open icon from the IconExperience.com O-Collection. Copyright by INCORS GmbH (www.incors.com).</desc><path fill="gray" d="M6080 8640c0-177 143-320 320-320s320 143 320 320c0 530-430 960-960 960s-960-430-960-960v-640h640v640c0 177 143 320 320 320s320-143 320-320zM4800 7680V4809c122-12 233-17 320-17s198 5 320 17v2871h-640z"/><path fill="#4D82B8" d="M5120 1582c107 0 214 3 320 9v10c2096 113 3256 1341 3480 2928 19 135-129 231-245 157-205-131-503-214-835-214-450 0-839 152-1017 371-58 73-164 80-233 17-245-228-811-388-1470-388s-1225 160-1470 388c-69 63-175 56-233-17-178-219-567-371-1017-371-332 0-630 83-835 214-116 74-264-22-245-157 224-1587 1384-2815 3480-2928v-10c106-6 213-9 320-9z"/><path fill="gray" d="M4800 1601v-321c0-177 143-320 320-320s320 143 320 320v321c-104-6-211-9-320-9s-216 3-320 9z"/></svg>