<svg xmlns="http://www.w3.org/2000/svg" width="1024" height="1024" shape-rendering="geometricPrecision" text-rendering="geometricPrecision" image-rendering="optimizeQuality" clip-rule="evenodd" viewBox="0 0 10240 10240"><title>undo icon</title><desc>undo icon from the IconExperience.com O-Collection. Copyright by INCORS GmbH (www.incors.com).</desc><path fill="#4D82B8" d="M3707 1465L1561 3612c-125 124-125 327 0 452l2146 2146c125 125 277 188 453 188h1159c142 0 214-172 113-273L3785 4478h3255c351 0 640 288 640 640v1282c0 352-288 640-640 640l-960 2c-176 1-320 144-320 320v636c0 176 144 319 320 320l960 2c1058 0 1920-862 1920-1920V5118c0-1059-862-1920-1920-1920H3785l1647-1647c101-101 29-273-114-273H4160c-176 0-328 63-453 187z"/></svg>