<svg xmlns="http://www.w3.org/2000/svg" width="1024" height="1024" shape-rendering="geometricPrecision" text-rendering="geometricPrecision" image-rendering="optimizeQuality" clip-rule="evenodd" viewBox="0 0 10240 10240"><title>university icon</title><desc>university icon from the IconExperience.com O-Collection. Copyright by INCORS GmbH (www.incors.com).</desc><path fill="#76A797" d="M640 8320h8960c176 0 320 144 320 320v320H320v-320c0-176 144-320 320-320z"/><path fill="gray" d="M1280 3840h1280v4160h-640V5120h-640v2880H640V4480c0-353 287-640 640-640zm2880-1920h1920c176 0 320 144 320 320v320h640c176 0 320 144 320 320v5120h-640V3840h-640v4160h-640V3840h-640v4160h-640V3840h-640v4160h-640V2880c0-176 144-320 320-320h640v-320c0-176 144-320 320-320zm3520 1920h1280c353 0 640 288 640 640v3520h-640V5120h-640v2880h-640V3840z"/></svg>