<svg xmlns="http://www.w3.org/2000/svg" width="1024" height="1024" shape-rendering="geometricPrecision" text-rendering="geometricPrecision" image-rendering="optimizeQuality" clip-rule="evenodd" viewBox="0 0 10240 10240"><title>user_headphones icon</title><desc>user_headphones icon from the IconExperience.com O-Collection. Copyright by INCORS GmbH (www.incors.com).</desc><path fill="gray" d="M8320 8470c0 810-1920 1130-3200 1130s-3200-320-3200-1129c0-1760 582-2029 1663-2835 445 281 972 444 1537 444s1092-163 1537-444c1082 807 1663 1074 1663 2834z"/><path fill="gray" d="M7238 4638c-461 677-1238 1122-2118 1122s-1657-445-2118-1122c122-117 198-281 198-464V2246c0-55-7-109-20-161 398-693 1135-1125 1940-1125s1542 432 1940 1125c-13 52-20 106-20 161v1928c0 183 76 347 198 464z"/><path fill="#4D82B8" d="M5120 320c1131 0 2109 652 2580 1600h300c353 0 640 287 640 640v1280c0 352-288 640-640 640h-320c-176 0-320-144-320-320V2240c0-66 20-127 54-177-419-843-1289-1423-2294-1423s-1875 580-2294 1423c34 50 54 111 54 177v1920c0 176-144 320-320 320h-320c-352 0-640-287-640-640V2560c0-353 287-640 640-640h300C3011 972 3989 320 5120 320z"/></svg>