<svg xmlns="http://www.w3.org/2000/svg" width="1024" height="1024" shape-rendering="geometricPrecision" text-rendering="geometricPrecision" image-rendering="optimizeQuality" clip-rule="evenodd" viewBox="0 0 10240 10240"><title>users2 icon</title><desc>users2 icon from the IconExperience.com O-Collection. Copyright by INCORS GmbH (www.incors.com).</desc><path fill="#4D82B8" d="M9600 6922c0 544-1152 758-1920 758s-1920-214-1920-757c0-1099 304-1331 871-1795 301 196 662 311 1049 311s748-115 1049-311c568 465 871 694 871 1794zM7680 1933c884 0 1600 714 1600 1594s-716 1593-1600 1593-1600-713-1600-1593 716-1594 1600-1594zM4480 6922c0 544-1152 758-1920 758S640 7466 640 6923c0-1099 304-1331 871-1795 301 196 662 311 1049 311s748-115 1049-311c568 465 871 694 871 1794zM2560 1933c884 0 1600 714 1600 1594s-716 1593-1600 1593S960 4407 960 3527s716-1594 1600-1594z"/></svg>