<svg xmlns="http://www.w3.org/2000/svg" width="1024" height="1024" shape-rendering="geometricPrecision" text-rendering="geometricPrecision" image-rendering="optimizeQuality" clip-rule="evenodd" viewBox="0 0 10240 10240"><title>users_meeting icon</title><desc>users_meeting icon from the IconExperience.com O-Collection. Copyright by INCORS GmbH (www.incors.com).</desc><path fill="gray" d="M4160 2560h1920c176 0 320 144 320 320v2560c-292-389-757-640-1280-640s-988 251-1280 640V2880c0-176 144-320 320-320z"/><path fill="#4D82B8" d="M8000 1280c707 0 1280 573 1280 1280 0 468-251 876-625 1100-200-90-422-140-655-140s-455 50-655 140c-374-224-625-632-625-1100 0-707 573-1280 1280-1280zM9600 7755c0 405-960 565-1600 565-345 0-782-46-1113-153-39-85-89-168-151-247-96-122-211-224-333-318 5-108 15-204 31-289 108-154 189-329 237-517 109-126 251-231 423-357 258 177 570 281 906 281s648-104 906-281c452 332 694 513 694 1316zM8000 3840c707 0 1280 573 1280 1280s-573 1280-1280 1280-1280-573-1280-1280 573-1280 1280-1280zM2237 1287c707 0 1280 573 1280 1280 0 464-247 871-617 1095-201-91-425-142-660-142-237 0-461 51-663 144-372-224-620-632-620-1097 0-707 573-1280 1280-1280zM3353 8167c-330 107-768 153-1113 153-640 0-1600-160-1600-565 0-802 242-984 694-1316 258 177 570 281 906 281s648-104 906-281c172 126 314 231 423 356 48 188 129 364 237 518 16 86 26 181 31 289-122 94-237 196-333 318-61 79-111 161-151 247zM2240 3840c707 0 1280 573 1280 1280s-573 1280-1280 1280S960 5827 960 5120s573-1280 1280-1280zM6720 9035c0 405-960 565-1600 565s-1600-160-1600-565c0-802 242-984 694-1316 258 177 570 281 906 281s648-104 906-281c452 332 694 513 694 1316zM5120 5120c707 0 1280 573 1280 1280s-573 1280-1280 1280-1280-573-1280-1280 573-1280 1280-1280z"/></svg>