<svg xmlns="http://www.w3.org/2000/svg" width="1024" height="1024" shape-rendering="geometricPrecision" text-rendering="geometricPrecision" image-rendering="optimizeQuality" clip-rule="evenodd" viewBox="0 0 10240 10240"><title>users5 icon</title><desc>users5 icon from the IconExperience.com O-Collection. Copyright by INCORS GmbH (www.incors.com).</desc><path fill="#4D82B8" d="M9600 7115c0 405-960 565-1600 565-546 0-1325-117-1542-402 166-252 262-554 262-878 0-93-8-184-23-273 105-113 238-211 397-328 258 177 570 281 906 281s648-104 906-281c452 332 694 513 694 1316zM8000 3200c707 0 1280 573 1280 1280s-573 1280-1280 1280-1280-573-1280-1280 573-1280 1280-1280zM6520 5089c-540-64-1080-230-1080-534 0-802 242-984 694-1316 180 123 385 211 607 253-213 272-341 615-341 988 0 215 43 421 120 609zM7040 640c707 0 1280 573 1280 1280 0 385-170 730-438 964-315 23-604 137-842 316-707 0-1280-573-1280-1280S6333 640 7040 640zM4800 4555c0 304-540 470-1080 534 77-188 120-394 120-609 0-373-128-716-341-988 222-42 427-130 607-253 452 332 694 513 694 1316zM3200 640c707 0 1280 573 1280 1280s-573 1280-1280 1280c-238-179-527-293-842-316-268-234-438-579-438-964 0-707 573-1280 1280-1280zM3782 7277c-217 286-996 403-1542 403-640 0-1600-160-1600-565 0-802 242-984 694-1316 258 177 570 281 906 281s648-104 906-281c159 117 292 215 397 328-15 88-23 180-23 273 0 324 96 626 262 877zM2240 3200c707 0 1280 573 1280 1280s-573 1280-1280 1280S960 5187 960 4480s573-1280 1280-1280zM6720 9035c0 405-960 565-1600 565s-1600-160-1600-565c0-802 242-984 694-1316 258 177 570 281 906 281s648-104 906-281c452 332 694 513 694 1316zM5120 5120c707 0 1280 573 1280 1280s-573 1280-1280 1280-1280-573-1280-1280 573-1280 1280-1280z"/></svg>