<svg xmlns="http://www.w3.org/2000/svg" width="1024" height="1024" shape-rendering="geometricPrecision" text-rendering="geometricPrecision" image-rendering="optimizeQuality" clip-rule="evenodd" viewBox="0 0 10240 10240"><title>users_family icon</title><desc>users_family icon from the IconExperience.com O-Collection. Copyright by INCORS GmbH (www.incors.com).</desc><path fill="#E68497" d="M5120 8993c0 435-960 607-1600 607s-1600-172-1600-607c0-564 192-1072 499-1432 287 272 675 439 1101 439s814-167 1101-439c307 360 499 868 499 1432zM3520 5120c707 0 1280 573 1280 1280s-573 1280-1280 1280-1280-573-1280-1280 573-1280 1280-1280z"/><path fill="#4D82B8" d="M7040 1920c1060 0 1920 856 1920 1912s-860 1912-1920 1912-1920-856-1920-1912 860-1912 1920-1912zm2560 5872c0 608-1536 848-2560 848-509 0-1144-59-1655-194-82-400-255-781-521-1093l-32-37c181-259 288-575 288-916 0-128-15-253-44-373 148-190 319-358 508-499 392 334 900 536 1456 536s1064-202 1456-536c667 497 1104 1326 1104 2264z"/><path fill="gray" d="M2880 640c1060 0 1920 856 1920 1912s-860 1912-1920 1912S960 3608 960 2552 1820 640 2880 640zm2069 5039c-264-521-805-879-1429-879-884 0-1600 716-1600 1600 0 341 107 657 288 916l-10 12c-911-83-1878-333-1878-815 0-939 437-1768 1104-2265 392 334 900 536 1456 536s1064-202 1456-536c387 289 697 690 889 1159-99 85-191 176-276 272z"/></svg>