<svg xmlns="http://www.w3.org/2000/svg" width="1024" height="1024" shape-rendering="geometricPrecision" text-rendering="geometricPrecision" image-rendering="optimizeQuality" clip-rule="evenodd" viewBox="0 0 10240 10240"><title>user_monitor icon</title><desc>user_monitor icon from the IconExperience.com O-Collection. Copyright by INCORS GmbH (www.incors.com).</desc><path fill="#4D82B8" d="M9600 7956c0 720-1728 1004-2880 1004-262 0-553-15-847-46 130-163 207-370 207-594V5760c0-28-1-55-4-82 206 54 422 82 644 82 519 0 1001-154 1404-419 961 706 1476 1064 1476 2615zM6720 960c1237 0 2240 1003 2240 2240S7957 5440 6720 5440c-264 0-517-46-752-130-157-294-462-497-815-509-415-407-673-974-673-1601 0-1237 1003-2240 2240-2240z"/><path fill="gray" d="M2080 9280h160c176 0 320-144 320-320H1280c-352 0-640-288-640-640V5760c0-353 288-640 640-640h3840c353 0 640 288 640 640v2560c0 352-288 640-640 640H3840c0 176 144 320 320 320h160c88 0 160 72 160 160v160H1920v-160c0-88 72-160 160-160zm-800-3520v2560h3840V5760H1280z"/></svg>