<svg xmlns="http://www.w3.org/2000/svg" width="1024" height="1024" shape-rendering="geometricPrecision" text-rendering="geometricPrecision" image-rendering="optimizeQuality" clip-rule="evenodd" viewBox="0 0 10240 10240"><title>users_relation icon</title><desc>users_relation icon from the IconExperience.com O-Collection. Copyright by INCORS GmbH (www.incors.com).</desc><path fill="gray" d="M6446 1539c-56 227-61 466-15 696-814-417-1808-417-2622 0 46-230 41-469-15-696 843-343 1809-343 2652 0zM7929 5439c219 4 442-9 659-36-190 1100-890 2025-1848 2522-127-165-296-296-464-419 35-36 68-74 99-113 776-376 1358-1092 1554-1954zM3865 7393c31 39 64 77 99 113-168 124-336 254-464 420-958-498-1658-1423-1848-2523 217 27 440 40 659 36 196 862 778 1578 1554 1954z"/><path fill="#4D82B8" d="M9600 4555c0 405-960 565-1600 565s-1600-160-1600-565c0-802 242-984 694-1316 258 177 570 281 906 281s648-104 906-281c452 332 694 513 694 1316zM8000 640c707 0 1280 573 1280 1280s-573 1280-1280 1280-1280-573-1280-1280S7293 640 8000 640zM6720 9035c0 405-960 565-1600 565s-1600-160-1600-565c0-802 242-984 694-1316 258 177 570 281 906 281s648-104 906-281c452 332 694 513 694 1316zM5120 5120c707 0 1280 573 1280 1280s-573 1280-1280 1280-1280-573-1280-1280 573-1280 1280-1280zM3840 4555c0 405-960 565-1600 565S640 4960 640 4555c0-802 242-984 694-1316 258 177 570 281 906 281s648-104 906-281c452 332 694 513 694 1316zM2240 640c707 0 1280 573 1280 1280s-573 1280-1280 1280S960 2627 960 1920 1533 640 2240 640z"/></svg>