<svg xmlns="http://www.w3.org/2000/svg" width="1024" height="1024" shape-rendering="geometricPrecision" text-rendering="geometricPrecision" image-rendering="optimizeQuality" clip-rule="evenodd" viewBox="0 0 10240 10240"><title>users4 icon</title><desc>users4 icon from the IconExperience.com O-Collection. Copyright by INCORS GmbH (www.incors.com).</desc><path fill="#4D82B8" d="M9600 7115c0 405-960 565-1600 565-546 0-1325-117-1542-402 166-252 262-554 262-878 0-93-8-184-23-273 105-113 238-211 397-328 258 177 570 281 906 281s648-104 906-281c452 332 694 513 694 1316zM8000 3200c707 0 1280 573 1280 1280s-573 1280-1280 1280-1280-573-1280-1280 573-1280 1280-1280zM6450 4880c-133 68-305 120-491 158-244-151-531-238-839-238s-595 87-839 238c-186-38-358-90-491-158 32-128 50-262 50-400 0-257-61-500-168-715 116-212 299-347 542-526 258 177 570 281 906 281s648-104 906-281c244 179 426 314 543 526-108 215-169 458-169 715 0 138 18 272 50 400zM5120 640c707 0 1280 573 1280 1280s-573 1280-1280 1280-1280-573-1280-1280S4413 640 5120 640zM3782 7277c-217 286-996 403-1542 403-640 0-1600-160-1600-565 0-802 242-984 694-1316 258 177 570 281 906 281s648-104 906-281c159 117 292 215 397 328-15 88-23 180-23 273 0 324 96 626 262 877zM2240 3200c707 0 1280 573 1280 1280s-573 1280-1280 1280S960 5187 960 4480s573-1280 1280-1280zM6720 9035c0 405-960 565-1600 565s-1600-160-1600-565c0-802 242-984 694-1316 258 177 570 281 906 281s648-104 906-281c452 332 694 513 694 1316zM5120 5120c707 0 1280 573 1280 1280s-573 1280-1280 1280-1280-573-1280-1280 573-1280 1280-1280z"/></svg>