<svg xmlns="http://www.w3.org/2000/svg" width="1024" height="1024" shape-rendering="geometricPrecision" text-rendering="geometricPrecision" image-rendering="optimizeQuality" clip-rule="evenodd" viewBox="0 0 10240 10240"><title>vector_circle icon</title><desc>vector_circle icon from the IconExperience.com O-Collection. Copyright by INCORS GmbH (www.incors.com).</desc><path fill="gray" d="M6080 1071c1527 361 2728 1562 3089 3089h-662c-331-1172-1255-2096-2427-2427v-662zM9169 6080c-361 1527-1562 2728-3089 3089v-662c1172-331 2096-1255 2427-2427h662zM4160 9169c-1527-361-2728-1562-3089-3089h662c331 1172 1255 2096 2427 2427v662zM4160 1733c-1172 331-2096 1255-2427 2427h-662c361-1527 1562-2728 3089-3089v662z"/><path fill="#4D82B8" d="M8320 4480h1280v1280H8320V4480zm320 320v640h640v-640h-640zM4480 8320h1280v1280H4480V8320zm320 320v640h640v-640h-640zM642 4472h1280v1280H642V4472zm320 320v640h640v-640H962zM4480 640h1280v1280H4480V640zm320 320v640h640V960h-640z"/></svg>