<svg xmlns="http://www.w3.org/2000/svg" width="1024" height="1024" shape-rendering="geometricPrecision" text-rendering="geometricPrecision" image-rendering="optimizeQuality" clip-rule="evenodd" viewBox="0 0 10240 10240"><title>vector_square icon</title><desc>vector_square icon from the IconExperience.com O-Collection. Copyright by INCORS GmbH (www.incors.com).</desc><path fill="gray" d="M7360 2240H2880v-640h4480zM8000 7360V2880h640v4480zM7360 8640H2880v-640h4480zM1600 7360V2880h640v4480z"/><path fill="#4D82B8" d="M7680 1280h1280v1280H7680V1280zm320 320v640h640v-640h-640zM7680 7680h1280v1280H7680V7680zm320 320v640h640v-640h-640zM1280 7680h1280v1280H1280V7680zm320 320v640h640v-640h-640zM1280 1280h1280v1280H1280V1280zm320 320v640h640v-640h-640z"/></svg>