<svg xmlns="http://www.w3.org/2000/svg" width="1024" height="1024" shape-rendering="geometricPrecision" text-rendering="geometricPrecision" image-rendering="optimizeQuality" clip-rule="evenodd" viewBox="0 0 10240 10240"><title>video_chat2 icon</title><desc>video_chat2 icon from the IconExperience.com O-Collection. Copyright by INCORS GmbH (www.incors.com).</desc><path fill="gray" d="M3200 8960h640c176 0 320-144 320-320v-640h1920v640c0 176 144 320 320 320h640c176 0 320 144 320 320v320H2880v-320c0-176 144-320 320-320z"/><path fill="#4D82B8" d="M5130 1600c1060 0 1920 860 1920 1920s-860 1920-1920 1920-1920-860-1920-1920 860-1920 1920-1920z"/><path fill="#4D82B8" d="M2698 6720c204-600 643-859 1252-1296 198 123 417 216 649 273 166 53 341 87 531 92 190-5 365-39 531-92 232-57 451-150 649-273 609 437 1048 696 1252 1296H2698z"/><path fill="gray" d="M1280 640h7680c353 0 640 287 640 640v5760c0 352-288 640-640 640H1280c-353 0-640-287-640-640V1280c0-353 287-640 640-640zm0 640v5760h7680V1280H1280z"/></svg>