<svg xmlns="http://www.w3.org/2000/svg" width="1024" height="1024" shape-rendering="geometricPrecision" text-rendering="geometricPrecision" image-rendering="optimizeQuality" clip-rule="evenodd" viewBox="0 0 10240 10240"><title>video_camera icon</title><desc>video_camera icon from the IconExperience.com O-Collection. Copyright by INCORS GmbH (www.incors.com).</desc><path fill="#4D82B8" d="M2554 1926c707 0 1280 573 1280 1280s-573 1280-1280 1280-1280-573-1280-1280 573-1280 1280-1280zm140 736c29-114-3-226-87-308-85-81-198-110-311-77-318 90-569 341-659 659-33 113-4 226 77 311 82 84 194 116 308 87 114-28 198-109 230-222 31-106 114-189 220-220 115-33 192-115 222-230z"/><path fill="gray" d="M8960 3840c353 0 640 288 640 640v2560c0 352-288 640-640 640H5440c-278 0-516-179-604-428 171-116 284-311 284-532V4800c0-221-113-417-284-532 88-249 326-428 604-428h3520zM4480 4338v142c176 0 320 144 320 320v1920c0 176-144 320-320 320v640c0 352-288 640-640 640 0 352-288 640-640 640H1920c-352 0-640-287-640-640-352 0-640-287-640-640V4359c-203-337-320-731-320-1153 0-1233 1000-2234 2234-2234 1233 0 2234 1001 2234 2234 0 413-113 800-308 1132zM2554 1606c-884 0-1600 717-1600 1600 0 884 716 1600 1600 1600 883 0 1600-716 1600-1600 0-883-717-1600-1600-1600z"/></svg>