<svg xmlns="http://www.w3.org/2000/svg" width="1024" height="1024" shape-rendering="geometricPrecision" text-rendering="geometricPrecision" image-rendering="optimizeQuality" clip-rule="evenodd" viewBox="0 0 10240 10240"><title>videotape icon</title><desc>videotape icon from the IconExperience.com O-Collection. Copyright by INCORS GmbH (www.incors.com).</desc><path fill="gray" d="M7040 5440c177 0 320 143 320 320s-143 320-320 320v-640zm-3840 640c-177 0-320-143-320-320s143-320 320-320v640z"/><path fill="gray" d="M1920 6720c-201-267-320-600-320-960s119-693 320-960h1280v320c-353 0-640 287-640 640s287 640 640 640v320H1920zm6400-1920c201 267 320 600 320 960s-119 693-320 960H7040v-320c353 0 640-287 640-640s-287-640-640-640v-320h1280z"/><path fill="gray" d="M9600 3520v4160c0 352-288 640-640 640H1280c-352 0-640-287-640-640V3520h8960zM4160 4800c-176 0-320 144-320 320v1280c0 176 144 320 320 320h1920c176 0 320-144 320-320V5120c0-176-144-320-320-320H4160zm4961-94c-42-137-163-226-306-226H7040c-176 0-320 144-320 320v1920c0 176 144 320 320 320h1775c143 0 264-89 306-226 103-335 159-688 159-1054s-56-719-159-1054zM3200 7040c176 0 320-144 320-320V4800c0-176-144-320-320-320H1425c-143 0-264 89-306 226-103 335-159 688-159 1054s56 719 159 1054c42 137 163 226 306 226h1775zM960 2560h8320c176 0 320 144 320 320v320H640v-320c0-176 144-320 320-320z"/></svg>