<svg xmlns="http://www.w3.org/2000/svg" width="1024" height="1024" shape-rendering="geometricPrecision" text-rendering="geometricPrecision" image-rendering="optimizeQuality" clip-rule="evenodd" viewBox="0 0 10240 10240"><title>view_1_1 icon</title><desc>view_1_1 icon from the IconExperience.com O-Collection. Copyright by INCORS GmbH (www.incors.com).</desc><path fill="gray" d="M3526 332c1764 0 3194 1430 3194 3194 0 719-237 1382-638 1916l412 412-640 640-412-412c-534 401-1197 638-1916 638-1764 0-3194-1430-3194-3194S1762 332 3526 332zm-6 628C2106 960 960 2106 960 3520s1146 2560 2560 2560 2560-1146 2560-2560S4934 960 3520 960zM5986 6814l828-828c124-124 328-124 452 0l2428 2428c124 124 124 328 0 452l-828 828c-124 124-328 124-452 0L5986 7266c-124-124-124-328 0-452z"/><path fill="#4D82B8" d="M5120 2240v2560h-640V3200h-320v-480l640-480h320zm-2560 0v2560h-640V3200h-320v-480l640-480h320zm960 640c177 0 320 143 320 320s-143 320-320 320-320-143-320-320 143-320 320-320zm0 1280c177 0 320 143 320 320s-143 320-320 320-320-143-320-320 143-320 320-320z"/></svg>