<svg xmlns="http://www.w3.org/2000/svg" width="1024" height="1024" shape-rendering="geometricPrecision" text-rendering="geometricPrecision" image-rendering="optimizeQuality" clip-rule="evenodd" viewBox="0 0 10240 10240"><title>voice_recorder icon</title><desc>voice_recorder icon from the IconExperience.com O-Collection. Copyright by INCORS GmbH (www.incors.com).</desc><path fill="gray" d="M3200 640h2560v640h960V640h320c353 0 640 288 640 640v7680c0 352-288 640-640 640H3200c-352 0-640-287-640-640V1280c0-353 287-640 640-640zm0 1280v1600h3840V1920H3200zm0 2240v640h960v-640h-960zm2880 0v640h960v-640h-960zm-1600 0v640h1280v-640H4480zm160 1280c-177 0-320 143-320 320s143 320 320 320 320-143 320-320-143-320-320-320zm960 0c-177 0-320 143-320 320s143 320 320 320 320-143 320-320-143-320-320-320zm-1920 960c-177 0-320 143-320 320s143 320 320 320 320-143 320-320-143-320-320-320zm960 0c-177 0-320 143-320 320s143 320 320 320 320-143 320-320-143-320-320-320zm960 0c-177 0-320 143-320 320s143 320 320 320 320-143 320-320-143-320-320-320zm960 0c-177 0-320 143-320 320s143 320 320 320 320-143 320-320-143-320-320-320zm-2880 960c-177 0-320 143-320 320s143 320 320 320 320-143 320-320-143-320-320-320zm960 0c-177 0-320 143-320 320s143 320 320 320 320-143 320-320-143-320-320-320zm960 0c-177 0-320 143-320 320s143 320 320 320 320-143 320-320-143-320-320-320zm960 0c-177 0-320 143-320 320s143 320 320 320 320-143 320-320-143-320-320-320zm-1920 960c-177 0-320 143-320 320s143 320 320 320 320-143 320-320-143-320-320-320zm960 0c-177 0-320 143-320 320s143 320 320 320 320-143 320-320-143-320-320-320z"/></svg>