<svg xmlns="http://www.w3.org/2000/svg" width="1024" height="1024" shape-rendering="geometricPrecision" text-rendering="geometricPrecision" image-rendering="optimizeQuality" clip-rule="evenodd" viewBox="0 0 10240 10240"><title>wallet_empty icon</title><desc>wallet_empty icon from the IconExperience.com O-Collection. Copyright by INCORS GmbH (www.incors.com).</desc><path fill="#B89A7C" d="M1920 2560h245c-152 170-245 394-245 640v960h-640v-960c0-353 288-640 640-640zm959 0h6081c353 0 640 287 640 640v5120c0 352-287 640-640 640H2880c-352 0-640-288-640-640v-960h1600c529 0 960-431 960-960V5120c0-529-431-960-960-960H2240v-960c0-352 287-640 639-640zm-714 6400h-245c-352 0-640-287-640-640v-960h640v960c0 246 93 470 245 640z"/><path fill="#B89A7C" d="M1280 4480h2240c353 0 640 287 640 640v1280c0 352-287 640-640 640H1280c-176 0-320-144-320-320V4800c0-176 144-320 320-320zm1600 640c-353 0-640 287-640 640s287 640 640 640 640-287 640-640-287-640-640-640z"/></svg>