<svg xmlns="http://www.w3.org/2000/svg" width="1024" height="1024" shape-rendering="geometricPrecision" text-rendering="geometricPrecision" image-rendering="optimizeQuality" clip-rule="evenodd" viewBox="0 0 10240 10240"><title>washing_powder icon</title><desc>washing_powder icon from the IconExperience.com O-Collection. Copyright by INCORS GmbH (www.incors.com).</desc><path fill="#4D82B8" d="M3994 4480c261 0 473 212 473 474 0 261-212 473-473 473-262 0-474-212-474-473 0-262 212-474 474-474zm-154 2240c530 0 960 430 960 960s-430 960-960 960-960-430-960-960 430-960 960-960zm1280-1280c353 0 640 287 640 640s-287 640-640 640-640-287-640-640 287-640 640-640z"/><path fill="gray" d="M2240 2547V960c0-176 144-320 320-320h4800c176 0 320 144 320 320v1416l6-22c39 904 715 1722 776 3143 37 857 124 2857-184 3143l-729 762c-125 131-281 198-462 198H1920c-320-320-320-2560-320-3520 0-1592 640-2521 640-3533zm124 6413h4154c-51-372-80-837-96-1301-22-627-22-1203-22-1579 0-928 205-1629 388-2251 133-454 252-862 252-1269V1280H2880v1267c0 74-3 148-8 221-38 551-215 1072-364 1600-162 575-268 1111-268 1712 0 515 2 1030 20 1545 9 247 34 924 104 1335zm1476-7360h2240c176 0 320 144 320 320v320c0 176-144 320-320 320H3840c-176 0-320-144-320-320v-320c0-176 144-320 320-320z"/></svg>