<svg xmlns="http://www.w3.org/2000/svg" width="1024" height="1024" shape-rendering="geometricPrecision" text-rendering="geometricPrecision" image-rendering="optimizeQuality" clip-rule="evenodd" viewBox="0 0 10240 10240"><title>water_tap icon</title><desc>water_tap icon from the IconExperience.com O-Collection. Copyright by INCORS GmbH (www.incors.com).</desc><path fill="#4D82B8" d="M7360 6720c320 640 960 1280 960 1920 0 530-430 960-960 960s-960-430-960-960c0-640 640-1280 960-1920z"/><path fill="gray" d="M640 1920h320c353 0 640 288 640 640v1920c0 352-288 640-640 640H640V1920zm5760 3840h1920c176 0 320 144 320 320s-144 320-320 320H6400c-176 0-320-144-320-320s144-320 320-320zM4800 1952c390 79 729 301 960 608h1280c705 0 1280 575 1280 1280v1600H6400v-960h-640c-292 389-757 640-1280 640-524 0-988-251-1280-640H1920V2560h1280c231-307 570-529 960-608v-438c-97-56-178-137-234-234h-726c-176 0-320-144-320-320s144-320 320-320h726c110-191 317-320 554-320s444 129 554 320h726c176 0 320 144 320 320s-144 320-320 320h-726c-56 97-137 178-234 234v438z"/></svg>