<svg xmlns="http://www.w3.org/2000/svg" width="1024" height="1024" shape-rendering="geometricPrecision" text-rendering="geometricPrecision" image-rendering="optimizeQuality" clip-rule="evenodd" viewBox="0 0 10240 10240"><title>water_fish icon</title><desc>water_fish icon from the IconExperience.com O-Collection. Copyright by INCORS GmbH (www.incors.com).</desc><path fill="#4D82B8" d="M640 5120h3v-7c482 0 902-266 1120-660 218 394 639 660 1120 660s897-264 1117-654c218 394 637 661 1120 661s906-269 1124-666c218 393 637 659 1119 659s902-266 1120-660c218 394 638 660 1120 660v640h-3v3847H640V5120zm4320 1280c-795 0-1440 430-1440 960s645 960 1440 960c438 0 830-130 1094-336 123-96 292-90 409 12 84 74 168 145 252 202 115 78 261 74 372-11 111-84 154-223 110-356l-157-471 157-471c44-133 1-272-110-356-111-85-257-89-372-11-84 57-168 128-252 202-117 102-286 108-409 12-264-206-656-336-1094-336z"/><path fill="gray" d="M4454 6694c50 0 98 12 141 33-67 19-115 80-115 153 0 88 72 160 160 160 54 0 102-27 131-68 2 14 3 28 3 42 0 177-143 320-320 320s-320-143-320-320 143-320 320-320z"/></svg>