<svg xmlns="http://www.w3.org/2000/svg" width="1024" height="1024" shape-rendering="geometricPrecision" text-rendering="geometricPrecision" image-rendering="optimizeQuality" clip-rule="evenodd" viewBox="0 0 10240 10240"><title>webcam icon</title><desc>webcam icon from the IconExperience.com O-Collection. Copyright by INCORS GmbH (www.incors.com).</desc><path fill="gray" d="M7132 7421c700 282 1267 692 1668 1135 154 170 202 450 121 696s-268 382-464 340c-917-195-2128-383-3337-358-1210-25-2420 163-3337 358-196 42-383-94-464-340s-33-525 121-696c398-440 961-848 1655-1129 585 362 1275 572 2014 572 743 0 1436-212 2023-578z"/><path fill="gray" d="M5109 660c1939 0 3510 1571 3510 3509 0 1939-1571 3510-3510 3510-1938 0-3509-1571-3509-3510 0-1938 1571-3509 3509-3509zm11 940c-1414 0-2560 1146-2560 2560s1146 2560 2560 2560 2560-1146 2560-2560-1146-2560-2560-2560z"/><path fill="gray" d="M5120 1920c1237 0 2240 1003 2240 2240S6357 6400 5120 6400 2880 5397 2880 4160s1003-2240 2240-2240zm0 640c-884 0-1600 716-1600 1600s716 1600 1600 1600 1600-716 1600-1600-716-1600-1600-1600z"/><path fill="#4D82B8" d="M5120 2880c707 0 1280 573 1280 1280s-573 1280-1280 1280-1280-573-1280-1280 573-1280 1280-1280zm-480 320c-265 0-480 215-480 480s215 480 480 480 480-215 480-480-215-480-480-480z"/></svg>