<svg xmlns="http://www.w3.org/2000/svg" width="1024" height="1024" shape-rendering="geometricPrecision" text-rendering="geometricPrecision" image-rendering="optimizeQuality" clip-rule="evenodd" viewBox="0 0 10240 10240"><title>weight2 icon</title><desc>weight2 icon from the IconExperience.com O-Collection. Copyright by INCORS GmbH (www.incors.com).</desc><path fill="gray" d="M7680 4331v4309c0 176-144 320-320 320H2880c-176 0-320-144-320-320V4331c0-314 222-577 531-631 287-49 580-81 823-177 248-99 403-327 403-595 0-267-154-495-402-594l-235-94c-245-98-480-216-480-480v-160c0-530 860-960 1920-960s1920 430 1920 960v160c0 264-235 382-480 480l-235 94c-248 99-402 327-402 594 0 268 155 496 403 595 243 96 536 128 823 177 309 54 531 317 531 631z"/></svg>