<svg xmlns="http://www.w3.org/2000/svg" width="1024" height="1024" shape-rendering="geometricPrecision" text-rendering="geometricPrecision" image-rendering="optimizeQuality" clip-rule="evenodd" viewBox="0 0 10240 10240"><title>weight icon</title><desc>weight icon from the IconExperience.com O-Collection. Copyright by INCORS GmbH (www.incors.com).</desc><path fill="gray" d="M5120 1280c707 0 1280 573 1280 1280 0 233-62 452-171 640h990c280 0 518 172 607 438l1493 4480c139 416-168 842-607 842H1528c-439 0-746-426-607-842l1493-4480c89-266 327-438 607-438h990c-109-188-171-407-171-640 0-707 573-1280 1280-1280zm0 640c-353 0-640 287-640 640s287 640 640 640 640-287 640-640-287-640-640-640z"/></svg>