<svg xmlns="http://www.w3.org/2000/svg" width="1024" height="1024" shape-rendering="geometricPrecision" text-rendering="geometricPrecision" image-rendering="optimizeQuality" clip-rule="evenodd" viewBox="0 0 10240 10240"><title>wheelbarrow_full icon</title><desc>wheelbarrow_full icon from the IconExperience.com O-Collection. Copyright by INCORS GmbH (www.incors.com).</desc><path fill="gray" d="M1920 6400c316 0 605 115 828 304l-1043 376c-331 119-504 484-385 815s484 504 815 385l1045-376c-105 600-629 1056-1260 1056-707 0-1280-573-1280-1280s573-1280 1280-1280z"/><path fill="gray" d="M2028 7980c-166 59-349-27-408-193-59-165 27-348 192-407l7362-2650c166-60 349 27 408 192 59 166-27 348-193 408l-1747 629-499 2249c-99 442-483 752-936 752h-371c-369 0-693-202-858-531l-640-1281-2310 832zm4911-1768l-1997 719 606 1213c58 115 159 176 288 176h371c153 0 280-100 313-250l419-1858z"/><path fill="#76A797" d="M7596 3588l-172 794c-96 444-390 779-817 933l-2245 808c-498 180-1026 48-1382-344L1125 3735c-87-96-108-226-55-345 52-118 163-190 292-190h5921c100 0 187 41 249 119 63 78 85 171 64 269z"/><path fill="#B89A7C" d="M1920 2880l1739-1304c485-364 1140-343 1601 52l1460 1252H1920z"/></svg>