<svg xmlns="http://www.w3.org/2000/svg" width="1024" height="1024" shape-rendering="geometricPrecision" text-rendering="geometricPrecision" image-rendering="optimizeQuality" clip-rule="evenodd" viewBox="0 0 10240 10240"><title>wheel_loader icon</title><desc>wheel_loader icon from the IconExperience.com O-Collection. Copyright by INCORS GmbH (www.incors.com).</desc><path fill="gray" d="M7040 5760c884 0 1600 716 1600 1600s-716 1600-1600 1600-1600-716-1600-1600 716-1600 1600-1600zm-4480 0c884 0 1600 716 1600 1600s-716 1600-1600 1600S960 8244 960 7360s716-1600 1600-1600zm0 960c-353 0-640 287-640 640s287 640 640 640 640-287 640-640-287-640-640-640zm4479 0c-353 0-639 286-639 639 0 354 286 640 639 640 354 0 640-286 640-640 0-353-286-639-640-639zM5932 5610c-188 186-492 185-678-3-187-189-186-492 3-679l964-956c72-72 161-115 255-132l567-111c30-364 265-731 811-1004l268-134c146-73 324-13 397 132l790 1580c57 115 164 177 291 177 176 0 320 144 320 320s-144 320-320 320H8386c-370 0-741-194-999-480l-594 116-861 854z"/><path fill="#EDC87E" d="M320 5120c0-611 649-963 1369-1138 46 99 110 190 192 272l585 585c185 184 418 281 679 281h1390c98 0 193-14 282-41-63 261 6 548 209 753 163 164 379 243 594 236-311 341-500 795-500 1292 0 109 9 216 27 320h-694c18-104 27-211 27-320 0-1060-860-1920-1920-1920-959 0-1754 704-1897 1623l-156-156c-124-124-187-331-187-507V5120z"/><path fill="gray" d="M4535 4800c176 0 328-63 452-187l447-447c198-198 245-488 120-739l-897-1793c-111-222-324-354-573-354H2560c-353 0-640 287-640 640v1655c0 176 63 328 187 452l586 586c124 124 276 187 452 187h1390zm349-1280H2560l1-1600h1523l800 1600z"/></svg>