<svg xmlns="http://www.w3.org/2000/svg" width="1024" height="1024" shape-rendering="geometricPrecision" text-rendering="geometricPrecision" image-rendering="optimizeQuality" clip-rule="evenodd" viewBox="0 0 10240 10240"><title>whistle icon</title><desc>whistle icon from the IconExperience.com O-Collection. Copyright by INCORS GmbH (www.incors.com).</desc><path fill="gray" d="M6080 3200H960c-176 0-320 144-320 320v1280c0 176 144 320 320 320h187c89 0 164-31 227-94l132-132c63-63 138-94 227-94h187c1000 0 1465 1090 1771 1882 370 958 1300 1638 2389 1638 1050 0 1953-632 2347-1537 101-230 310-373 560-384 341-14 613-295 613-639s-272-625-613-639c-250-11-459-154-560-384-394-905-1297-1537-2347-1537zm0 640c1060 0 1920 860 1920 1920s-860 1920-1920 1920-1920-860-1920-1920 860-1920 1920-1920zm0 640c-707 0-1280 573-1280 1280s573 1280 1280 1280 1280-573 1280-1280-573-1280-1280-1280zm2880 960c177 0 320 143 320 320s-143 320-320 320-320-143-320-320 143-320 320-320z"/></svg>