<svg xmlns="http://www.w3.org/2000/svg" width="1024" height="1024" shape-rendering="geometricPrecision" text-rendering="geometricPrecision" image-rendering="optimizeQuality" clip-rule="evenodd" viewBox="0 0 10240 10240"><title>window_equalizer icon</title><desc>window_equalizer icon from the IconExperience.com O-Collection. Copyright by INCORS GmbH (www.incors.com).</desc><path fill="#ED9A56" d="M7680 7360h1280v640H7680v-640zm-6400 0h1280v640H1280v-640zm1600 0h1280v640H2880v-640zm1600 0h1280v640H4480v-640zm1600 0h1280v640H6080v-640zM7680 6400h1280v640H7680v-640zm-6400 0h1280v640H1280v-640zm1600 0h1280v640H2880v-640zm1600 0h1280v640H4480v-640zm1600 0h1280v640H6080v-640zM7680 5440h1280v640H7680v-640zm-4800 0h1280v640H2880v-640zm1600 0h1280v640H4480v-640zm1600 0h1280v640H6080v-640zM6080 4480h1280v640H6080v-640zm-3200 0h1280v640H2880v-640zM6080 3520h1280v640H6080z"/><path fill="gray" d="M1280 1280h7680c353 0 640 288 640 640v6720c0 176-144 320-320 320H960c-176 0-320-144-320-320V1920c0-353 288-640 640-640zM960 3200v5120h8320V3200H960z"/></svg>