<svg xmlns="http://www.w3.org/2000/svg" width="1024" height="1024" shape-rendering="geometricPrecision" text-rendering="geometricPrecision" image-rendering="optimizeQuality" clip-rule="evenodd" viewBox="0 0 10240 10240"><title>window_height icon</title><desc>window_height icon from the IconExperience.com O-Collection. Copyright by INCORS GmbH (www.incors.com).</desc><path fill="gray" d="M9600 8640c0 176-144 320-320 320H960c-176 0-320-144-320-320V1920c0-353 288-640 640-640h7680c353 0 640 288 640 640v6720zM1280 3200v5120h3467c94 157 158 320 373 320s279-163 373-320h3467V3200H5493c-94-157-158-320-373-320s-279 163-373 320H1280z"/><path fill="#4D82B8" d="M5120 8320l960-1600H4160zM5120 3200l960 1600H4160z"/></svg>