<svg xmlns="http://www.w3.org/2000/svg" width="1024" height="1024" shape-rendering="geometricPrecision" text-rendering="geometricPrecision" image-rendering="optimizeQuality" clip-rule="evenodd" viewBox="0 0 10240 10240"><title>window_close icon</title><desc>window_close icon from the IconExperience.com O-Collection. Copyright by INCORS GmbH (www.incors.com).</desc><path fill="gray" d="M1280 1280h3125c-152 170-245 394-245 640v1280H1280v5120h7680V6720c246 0 470-93 640-245v2165c0 176-144 320-320 320H960c-176 0-320-144-320-320V1920c0-353 288-640 640-640z"/><path fill="#E68497" d="M5120 1280h3840c353 0 640 287 640 640v3840c0 353-287 640-640 640H5120c-353 0-640-287-640-640V1920c0-353 287-640 640-640zm110 3691l679 679 1131-1131 1131 1131 679-679-1131-1131 1131-1131-679-679-1131 1131-1131-1131-679 679 1131 1131-1131 1131z"/></svg>