<svg xmlns="http://www.w3.org/2000/svg" width="1024" height="1024" shape-rendering="geometricPrecision" text-rendering="geometricPrecision" image-rendering="optimizeQuality" clip-rule="evenodd" viewBox="0 0 10240 10240"><title>windsock icon</title><desc>windsock icon from the IconExperience.com O-Collection. Copyright by INCORS GmbH (www.incors.com).</desc><path fill="gray" d="M1280 4714v4246H640V4714c-191-110-320-317-320-554 0-353 287-640 640-640 143 0 275 47 381 126l899-899v905l-507 508 507 507v906l-899-899c-19 15-40 28-61 40z"/><path fill="#E68497" d="M3314 2057l5760 1047c308 56 526 318 526 630v852c0 312-218 574-526 630L3314 6263c-193 35-373-13-524-138-151-126-230-295-230-492V2687c0-197 79-366 230-492 151-125 331-173 524-138zm-114 630v2946l960-174V2861l-960-174zm2240 2539l960-175V3269l-960-175v2132zm2240-407l960-175v-968l-960-175v1318z"/></svg>