<svg xmlns="http://www.w3.org/2000/svg" width="1024" height="1024" shape-rendering="geometricPrecision" text-rendering="geometricPrecision" image-rendering="optimizeQuality" clip-rule="evenodd" viewBox="0 0 10240 10240"><title>window_font icon</title><desc>window_font icon from the IconExperience.com O-Collection. Copyright by INCORS GmbH (www.incors.com).</desc><path fill="gray" d="M1280 1280h7680c353 0 640 288 640 640v6720c0 176-144 320-320 320H960c-176 0-320-144-320-320V1920c0-353 288-640 640-640zm0 1920v5120h7680V3200H1280z"/><path fill="gray" d="M2880 6720l1129-3200h682l849 2138-451 591-67-169H3783l-226 640h-677zm1888-1280l-402-1011-357 1011h759z"/><path fill="#4D82B8" d="M5534 6720h866V5583l-866 1137zm706 960c88 0 160-72 160-160v-480H5290l-317 416c-30 39-39 85-28 133 11 49 41 85 85 107 53 26 90 81 90 144v160H4000v-160c0-88 72-160 160-160h162c52 0 96-22 127-63l2098-2754c32-41 76-63 128-63h205c88 0 160 72 160 160v2560c0 88 72 160 160 160s160 72 160 160v160H6080v-160c0-88 72-160 160-160z"/></svg>