<svg xmlns="http://www.w3.org/2000/svg" width="1024" height="1024" shape-rendering="geometricPrecision" text-rendering="geometricPrecision" image-rendering="optimizeQuality" clip-rule="evenodd" viewBox="0 0 10240 10240"><title>windmill icon</title><desc>windmill icon from the IconExperience.com O-Collection. Copyright by INCORS GmbH (www.incors.com).</desc><path fill="gray" d="M1280 8320c0-237 32-486 83-744l877 877 2560-2560 2880 2880 1197-1197c51 258 83 507 83 744v1280H1280V8320zm499-2232c234-750 461-1521 461-2248 0-342 76-656 209-939l1258 1259-1928 1928zm2138-4543c395-173 814-265 1203-265 539 0 1135 156 1645 463L5440 3067 3917 1545zm4040 1831c28 147 43 302 43 464 0 1028 455 2144 738 3166L6533 4800l1424-1424zM5120 4160c177 0 320 143 320 320s-143 320-320 320-320-143-320-320 143-320 320-320z"/><path fill="#B89A7C" d="M3840 4480l527 527 202-202c111 189 316 315 551 315L2240 8000l-960-960 2560-2560zM1600 1600l960-960 2560 2560-527 527 202 201c-188 112-315 317-315 552L1600 1600zm6400-640l960 960-2560 2560-527-527-202 202c-111-188-316-315-551-315L8000 960zm640 6400l-960 960-2560-2560 527-527-202-202c188-111 315-316 315-551l2880 2880z"/></svg>