<svg xmlns="http://www.w3.org/2000/svg" width="1024" height="1024" shape-rendering="geometricPrecision" text-rendering="geometricPrecision" image-rendering="optimizeQuality" clip-rule="evenodd" viewBox="0 0 10240 10240"><title>window_environment icon</title><desc>window_environment icon from the IconExperience.com O-Collection. Copyright by INCORS GmbH (www.incors.com).</desc><path fill="#4D82B8" d="M5120 3520c1237 0 2240 1003 2240 2240S6357 8000 5120 8000 2880 6997 2880 5760s1003-2240 2240-2240zm527 729c36 75 66 152 92 231h341c-130-98-276-177-433-231zm178 551c51 238 84 510 93 800h794c-30-298-141-573-312-800h-575zm93 1120c-9 290-42 562-93 800h575c171-227 282-502 312-800h-794zm-179 1120c-26 79-56 156-92 231 157-54 303-133 433-231h-341zm-1146 231c-36-75-66-152-92-231h-341c130 98 276 177 433 231zm-178-551c-51-238-84-510-93-800h-794c30 298 141 573 312 800h575zm-93-1120c9-290 42-562 93-800h-575c-171 227-282 502-312 800h794zm179-1120c26-79 56-156 92-231-157 54-303 133-433 231h341zm899 0c-59-150-122-261-186-317-31-2-62-3-94-3s-63 1-94 3c-64 56-127 167-186 317h560zm-658 320c-54 232-90 505-99 800h954c-9-295-45-568-99-800h-756zm-99 1120c9 295 45 568 99 800h756c54-232 90-505 99-800h-954zm197 1120c59 150 122 261 186 317 31 2 62 3 94 3s63-1 94-3c64-56 127-167 186-317h-560z"/><path fill="gray" d="M1280 1280h7680c353 0 640 288 640 640v6720c0 176-144 320-320 320H960c-176 0-320-144-320-320V1920c0-353 288-640 640-640zm0 1920v5120h7680V3200H1280z"/></svg>