<svg xmlns="http://www.w3.org/2000/svg" width="1024" height="1024" shape-rendering="geometricPrecision" text-rendering="geometricPrecision" image-rendering="optimizeQuality" clip-rule="evenodd" viewBox="0 0 10240 10240"><title>window_size icon</title><desc>window_size icon from the IconExperience.com O-Collection. Copyright by INCORS GmbH (www.incors.com).</desc><path fill="gray" d="M1280 1280h7680c353 0 640 288 640 640v6720c0 176-144 320-320 320H960c-176 0-320-144-320-320V1920c0-353 288-640 640-640zm0 4107c-157 94-320 158-320 373s163 279 320 373v2187h3467c94 157 158 320 373 320s279-163 373-320h3467V6133c157-94 320-158 320-373s-163-279-320-373V3200H5493c-94-157-158-320-373-320s-279 163-373 320H1280v2187z"/><path fill="#4D82B8" d="M5120 8320l960-1600H4160zM8960 5760l-1600-960v1920zM1280 5760l1600-960v1920zM5120 3200l960 1600H4160z"/></svg>