<svg xmlns="http://www.w3.org/2000/svg" width="1024" height="1024" shape-rendering="geometricPrecision" text-rendering="geometricPrecision" image-rendering="optimizeQuality" clip-rule="evenodd" viewBox="0 0 10240 10240"><title>windows icon</title><desc>windows icon from the IconExperience.com O-Collection. Copyright by INCORS GmbH (www.incors.com).</desc><path fill="gray" d="M2560 640h6400c353 0 640 288 640 640v5440c0 176-144 320-320 320h-640v-640h320V2560H2560v320h-640V1280c0-353 288-640 640-640z"/><path fill="gray" d="M8320 9280c0 176-144 320-320 320H960c-176 0-320-144-320-320V3840c0-352 288-640 640-640h6400c353 0 640 288 640 640v5440zM1280 5120v3840h6400V5120H1280z"/></svg>