<svg xmlns="http://www.w3.org/2000/svg" width="1024" height="1024" shape-rendering="geometricPrecision" text-rendering="geometricPrecision" image-rendering="optimizeQuality" clip-rule="evenodd" viewBox="0 0 10240 10240"><title>windup_key icon</title><desc>windup_key icon from the IconExperience.com O-Collection. Copyright by INCORS GmbH (www.incors.com).</desc><path fill="gray" d="M6304 904c308-179 674-264 1056-264 1237 0 2240 1003 2240 2240S8597 5120 7360 5120h-960v960h-320v3520H4160V6080h-320v-960h-960c-1237 0-2240-1003-2240-2240S1643 640 2880 640c359 0 710 63 999 235 307 181 750 331 1235 331s890-128 1190-302zm1056 1016c-530 0-960 430-960 960s430 960 960 960 960-430 960-960-430-960-960-960zm-4480 0c-530 0-960 430-960 960s430 960 960 960 960-430 960-960-430-960-960-960z"/></svg>