<svg xmlns="http://www.w3.org/2000/svg" width="1024" height="1024" shape-rendering="geometricPrecision" text-rendering="geometricPrecision" image-rendering="optimizeQuality" clip-rule="evenodd" viewBox="0 0 10240 10240"><title>wine_glass icon</title><desc>wine_glass icon from the IconExperience.com O-Collection. Copyright by INCORS GmbH (www.incors.com).</desc><path fill="gray" d="M5120 6400c-250 0-498-39-736-115-655-210-1186-682-1548-1258-402-638-596-1396-596-2147V1600c0-176 144-320 320-320h5120c176 0 320 144 320 320v1280c0 751-194 1509-596 2147-362 576-893 1047-1548 1258-238 76-486 115-736 115zm2240-4480H2880v960c0 630 160 1270 497 1806 282 448 693 826 1203 989 175 56 356 85 540 85s365-29 540-85c510-163 921-542 1203-989 337-536 497-1176 497-1806v-960z"/><path fill="#E68497" d="M3200 2880c0 570 143 1151 448 1636 241 382 593 714 1029 854 144 46 293 70 443 70s299-24 443-70c437-140 788-472 1029-854 305-485 448-1066 448-1636H3200z"/><path fill="gray" d="M3840 8960h320c353 0 640-287 640-640V6701c106 13 213 19 320 19s214-6 320-19v1619c0 353 287 640 640 640h320c176 0 320 144 320 320v320H3520v-320c0-176 144-320 320-320z"/></svg>