<svg xmlns="http://www.w3.org/2000/svg" width="1024" height="1024" shape-rendering="geometricPrecision" text-rendering="geometricPrecision" image-rendering="optimizeQuality" clip-rule="evenodd" viewBox="0 0 10240 10240"><title>wine icon</title><desc>wine icon from the IconExperience.com O-Collection. Copyright by INCORS GmbH (www.incors.com).</desc><path fill="gray" d="M4800 2560v361c0 147 97 272 240 309 413 107 720 484 720 930h-320c-353 0-640 287-640 640v320H3200v1920h1920v-244c158 307 373 575 640 780v1731c-186 66-320 244-320 453v160H2880c-176 0-320-144-320-320V4160c0-446 307-823 720-930 143-37 240-162 240-309v-361h1280zM3200 7680v640h1920v-640H3200z"/><path fill="#E68497" d="M4960 480v320c0 88-72 160-160 160v1280H3520V960c-88 0-160-72-160-160V480c0-88 72-160 160-160h1280c88 0 160 72 160 160z"/><path fill="#EDC87E" d="M5920 9600h320c264 0 480-216 480-480V7978c103 14 210 22 320 22s217-8 320-22v1142c0 264 216 480 480 480h320c88 0 160 72 160 160v160H5760v-160c0-88 72-160 160-160zM8640 4480H5440c-176 0-320 144-320 320v640c0 1092 655 2240 1920 2240s1920-1148 1920-2240v-640c0-176-144-320-320-320zm-2880 320c176 0 320 144 320 320v320c0 386 123 819 401 1070 97 87 130 216 89 339v1c-35 105-115 180-223 208s-214 2-296-73c-404-370-611-961-611-1545v-320c0-176 144-320 320-320z"/></svg>