<svg xmlns="http://www.w3.org/2000/svg" width="1024" height="1024" shape-rendering="geometricPrecision" text-rendering="geometricPrecision" image-rendering="optimizeQuality" clip-rule="evenodd" viewBox="0 0 10240 10240"><title>wlan_router icon</title><desc>wlan_router icon from the IconExperience.com O-Collection. Copyright by INCORS GmbH (www.incors.com).</desc><path fill="#ED9A56" d="M7680 6400h1280v640H7680z"/><path fill="gray" d="M3200 5120h640v1280h320V5120h320v1280h320V5120h320v1280h320V5120h3520c353 0 640 288 640 640v2560c0 353-287 640-640 640H3200c-353 0-640-287-640-640V5760c0-353 287-640 640-640zm4480 960c-176 0-320 144-320 320v640c0 176 144 320 320 320h1280c176 0 320-144 320-320v-640c0-176-144-320-320-320H7680zM1600 1600v3520l320 1280v1280h320v640H960c-176 0-320-144-320-320V6400l320-1280V1600c0-177 143-320 320-320s320 143 320 320z"/></svg>