<svg xmlns="http://www.w3.org/2000/svg" width="1024" height="1024" shape-rendering="geometricPrecision" text-rendering="geometricPrecision" image-rendering="optimizeQuality" clip-rule="evenodd" viewBox="0 0 10240 10240"><title>worker2 icon</title><desc>worker2 icon from the IconExperience.com O-Collection. Copyright by INCORS GmbH (www.incors.com).</desc><path fill="#4D82B8" d="M8320 8790c0 745-1623 1075-2880 1124V8320c0-899 1123-1237 1265-2328 1051 779 1615 1064 1615 2798zM4800 9914c-1256-49-2880-379-2880-1123 0-1733 565-2020 1615-2799 142 1091 1265 1429 1265 2328v1594zm-911-3790c10 5 20 9 30 14l33 15c10 5 21 9 32 14 9 4 19 8 29 12 12 6 25 11 38 16 9 3 18 7 27 11 13 5 25 9 38 14 8 3 17 6 25 9 14 5 29 10 43 15 8 3 16 6 24 8 15 5 30 10 46 15l19 6c17 5 33 10 50 15l17 5c18 5 35 10 53 14l14 4c19 5 37 9 56 14l13 3c19 4 38 8 58 12l11 3c20 4 40 7 60 11l9 2c21 3 43 7 64 10l7 1c22 4 44 7 65 9l6 1c22 3 44 5 66 8h7c22 3 45 5 67 6l5 1c23 1 46 3 68 4h4c24 1 47 2 71 3h4c23 1 47 1 71 1h2c24 0 48 0 71-1h4c24-1 47-1 70-3h5c23-1 45-3 68-4l5-1c22-1 45-3 67-6h7c22-2 43-5 65-8l8-1c21-2 42-5 64-9l7-1c21-3 42-6 63-10l11-2c20-4 39-7 58-11l12-3c19-4 39-8 58-12l13-3c18-5 37-9 55-14l16-4c17-4 34-9 51-14l19-5c16-5 32-9 48-14 7-2 14-5 20-7 16-5 31-9 46-15 8-2 16-5 24-8 14-4 28-9 42-14 9-4 17-7 26-10 13-5 25-9 38-14 9-4 19-8 28-11l36-15c10-4 21-9 31-13 10-5 20-9 31-14s22-10 34-15c10-5 19-9 29-14-90 327-294 581-510 826-189 215-435 326-721 326-285 0-531-112-720-326-217-246-421-500-511-826z"/><path fill="#EFC1B4" d="M3889 6124c90 326 294 580 511 826 189 214 435 326 720 326 286 0 532-111 721-326 216-245 420-499 510-826-373 177-790 276-1231 276s-858-99-1231-276zM5120 6080c1376 0 2498-1085 2557-2446l-966 457c-158 75-285 69-452 69H3981c-167 0-294 6-452-69l-966-457c59 1361 1181 2446 2557 2446z"/><path fill="#EDC87E" d="M6169 548c39 59 52 131 31 201l-374 1283c-36 124-161 208-310 208h-780c-149 0-275-84-311-208L4051 749c-20-69-7-150 36-208 41-58 108-104 190-123 271-64 556-98 849-98s577 34 849 98c79 18 149 62 194 130zm1486 1979l314 344c52 57 35 147-21 202l-103 102c-87 85-191 115-302 168l-969 459c-101 47-203 38-315 38H3981c-112 0-214 9-315-38l-969-459c-111-53-215-83-302-168l-103-102c-56-55-73-145-21-202l314-344c105-752 536-1399 1147-1794-1 55 5 110 19 165l374 1497c71 287 325 485 621 485h780c295 0 549-198 621-485l374-1497c12-48 18-96 19-144 593 396 1012 1034 1115 1773z"/></svg>