<svg xmlns="http://www.w3.org/2000/svg" width="1024" height="1024" shape-rendering="geometricPrecision" text-rendering="geometricPrecision" image-rendering="optimizeQuality" clip-rule="evenodd" viewBox="0 0 10240 10240"><title>workstation icon</title><desc>workstation icon from the IconExperience.com O-Collection. Copyright by INCORS GmbH (www.incors.com).</desc><path fill="gray" d="M7680 3200h1600c176 0 353 116 352 292l-32 5468c176 0 320 144 320 320v320H7040v-320c0-176 144-320 320-320V3520c0-176 144-320 320-320zm800 640c-265 0-480 215-480 480s215 480 480 480 480-215 480-480-215-480-480-480zM2240 8960h640c176 0 320-144 320-320v-640h1280v640c0 176 144 320 320 320h640c176 0 320 144 320 320v320H1920v-320c0-176 144-320 320-320zM1280 2560h5120c353 0 640 288 640 640v3840c0 352-288 640-640 640H1280c-352 0-640-287-640-640V3200c0-353 287-640 640-640zm0 640v3840h5120V3200H1280z"/><path fill="#4D82B8" d="M1600 3520h4480v3200H1600z"/></svg>