<svg xmlns="http://www.w3.org/2000/svg" width="1024" height="1024" shape-rendering="geometricPrecision" text-rendering="geometricPrecision" image-rendering="optimizeQuality" clip-rule="evenodd" viewBox="0 0 10240 10240"><title>wristwatch icon</title><desc>wristwatch icon from the IconExperience.com O-Collection. Copyright by INCORS GmbH (www.incors.com).</desc><path fill="gray" d="M6045 4863l-445 257c0 265-215 480-480 480s-480-215-480-480c0-87 23-169 64-240l-420-729c120-104 261-186 415-240l421 729c87 0 169 23 240 64l445-257c112 115 196 257 240 416z"/><path fill="gray" d="M5120 2880c1128 0 2062 834 2217 1920h343v640h-343c-155 1086-1089 1920-2217 1920-1237 0-2240-1003-2240-2240s1003-2240 2240-2240zm0 640c-884 0-1600 716-1600 1600s716 1600 1600 1600 1600-716 1600-1600-716-1600-1600-1600z"/><path fill="#B89A7C" d="M4160 640h1920c176 0 320 144 320 320v1943c-377-218-814-343-1280-343s-903 125-1280 343V960c0-176 144-320 320-320zm2240 6697v1943c0 176-144 320-320 320H4160c-176 0-320-144-320-320V7337c377 218 814 343 1280 343s903-125 1280-343z"/></svg>