<svg xmlns="http://www.w3.org/2000/svg" width="1024" height="1024" shape-rendering="geometricPrecision" text-rendering="geometricPrecision" image-rendering="optimizeQuality" clip-rule="evenodd" viewBox="0 0 10240 10240"><title>x-ray icon</title><desc>x-ray icon from the IconExperience.com O-Collection. Copyright by INCORS GmbH (www.incors.com).</desc><path fill="gray" d="M2240 1600h5760v7040H2240V1600zm1190 4724c21 364 28 730 28 1094 0 317 287 524 549 636 339 145 747 195 1113 195s775-50 1113-195c262-112 549-319 549-636 0-364 7-730 28-1094 59-150 241-254 373-320 216-108 386-320 471-543 118-312 78-643-70-938-17-35-37-79-36-119 3-66 41-177 57-244 79-317 67-640-49-946-167-439-520-769-929-986-458-243-991-351-1507-351s-1049 108-1507 351c-408 217-761 547-929 986-116 306-128 629-49 946 16 65 56 180 59 243 3 37-23 89-38 120-148 295-188 626-70 938 85 223 255 435 471 543 132 66 314 170 373 320zm2821-2484c436 0 789 353 789 789 0 435-353 789-789 789-435 0-788-354-788-789 0-436 353-789 788-789zm-2263 23c436 0 789 353 789 788 0 436-353 789-789 789-435 0-788-353-788-789 0-435 353-788 788-788zm1387 1387c147 375 439 440 254 857-48 107-215 343-284 283-165-142-319-132-485 0-71 56-200-176-248-283-155-351 120-548 254-857 75-172 440-175 509 0zM4160 6474c101 51 210 88 320 116v328c145 31 306 52 481 60v-321c106 6 213 5 320 0v320c174-7 334-28 479-59v-328c117-29 213-62 320-116v350c111-43 226-100 320-174v378c-102 55-210 99-320 134v335c-105 30-212 53-320 72v-326c-148 29-309 47-479 55v320c-107 4-214 4-320 0v-320c-172-7-333-26-481-55v326c-108-19-215-42-320-72v-335c-110-35-218-79-320-134v-378c94 74 209 131 320 174v-350z"/><path fill="gray" d="M1920 640h6400c353 0 640 287 640 640v7680c0 352-287 640-640 640H1920c-353 0-640-288-640-640V1280c0-353 287-640 640-640zm0 640v7680h6400V1280H1920z"/></svg>