<svg xmlns="http://www.w3.org/2000/svg" width="1024" height="1024" shape-rendering="geometricPrecision" text-rendering="geometricPrecision" image-rendering="optimizeQuality" clip-rule="evenodd" viewBox="0 0 10240 10240"><title>adhesive_tape icon</title><desc>adhesive_tape icon from the IconExperience.com O-Collection. Copyright by INCORS GmbH (www.incors.com).</desc><path fill="gray" d="M640 6080l1038 259c144 36 242 162 242 311v390c0 352 287 640 640 640h1280c705 0 1280-575 1280-1280v-640c0-884 716-1600 1600-1600s1600 716 1600 1600v3200c0 352-288 640-640 640H1280c-352 0-640-287-640-640V6080zm6080-960c-353 0-640 287-640 640s287 640 640 640 640-287 640-640-287-640-640-640z"/><path fill="#4D82B8" d="M6720 2880c1591 0 2880 1289 2880 2880 0 853-371 1619-960 2146V5760c0-1060-860-1920-1920-1920s-1920 860-1920 1920v640c0 377-220 705-538 862-268-438-422-952-422-1502 0-374 71-732 201-1060L2152 5771c-297 168-619 211-949 126l-563-145v-658l721 185c169 44 323 23 476-63l3608-2039c384-190 817-297 1275-297z"/></svg>