<svg xmlns="http://www.w3.org/2000/svg" width="1024" height="1024" shape-rendering="geometricPrecision" text-rendering="geometricPrecision" image-rendering="optimizeQuality" clip-rule="evenodd" viewBox="0 0 10240 10240"><title>air_tube_carrier icon</title><desc>air_tube_carrier icon from the IconExperience.com O-Collection. Copyright by INCORS GmbH (www.incors.com).</desc><path fill="#EDC87E" d="M960 3200v3840c-352 0-640-288-640-640V3840c0-353 287-640 640-640zm2560 640c-176 0-320 144-320 320s144 320 320 320h3200c176 0 320-144 320-320s-144-320-320-320H3520zm-640-640h4480v3840H2880V3200zm6400 0c353 0 640 288 640 640v2560c0 352-288 640-640 640V3200z"/><path fill="gray" d="M8000 2880h640c176 0 320 144 320 320v3840c0 176-144 320-320 320h-640c-176 0-320-144-320-320V3200c0-176 144-320 320-320zm-6400 0h640c176 0 320 144 320 320v3840c0 176-144 320-320 320h-640c-176 0-320-144-320-320V3200c0-176 144-320 320-320z"/></svg>