<svg xmlns="http://www.w3.org/2000/svg" width="1024" height="1024" shape-rendering="geometricPrecision" text-rendering="geometricPrecision" image-rendering="optimizeQuality" clip-rule="evenodd" viewBox="0 0 10240 10240"><title>alarmclock icon</title><desc>alarmclock icon from the IconExperience.com O-Collection. Copyright by INCORS GmbH (www.incors.com).</desc><path fill="gray" d="M5120 1920c2121 0 3840 1719 3840 3840 0 883-298 1696-799 2345l354 481c210 283 149 685-135 895-283 209-696 133-906-151l-259-351c-603 392-1322 621-2095 621s-1492-229-2095-621l-259 351c-210 284-623 360-906 151-284-210-345-612-135-895l354-481c-501-649-799-1462-799-2345 0-2121 1719-3840 3840-3840zm0 630c-1773 0-3210 1437-3210 3210s1437 3210 3210 3210 3210-1437 3210-3210-1437-3210-3210-3210z"/><path fill="#4D82B8" d="M6260 4215c173 128 323 284 445 461l-964 929c12 50 19 102 19 155 0 353-287 640-640 640s-640-287-640-640c0-61 9-121 25-177L3126 4154c66-82 139-161 217-236 78-76 159-145 244-208l1378 1429c50-12 102-19 155-19 61 0 121 9 177 25l963-930z"/><path fill="gray" d="M7847 1280c-514 0-976 221-1297 573 1147 419 2058 1330 2478 2477 351-321 572-783 572-1297 0-968-785-1753-1753-1753zm-5454 20c507 0 963 215 1283 558-1145 424-2053 1337-2469 2487-348-321-567-781-567-1292 0-968 785-1753 1753-1753zM4480 640h1280v640h-320v332c-106-8-212-12-320-12s-214 4-320 12v-332h-320V640z"/></svg>