<svg xmlns="http://www.w3.org/2000/svg" width="1024" height="1024" shape-rendering="geometricPrecision" text-rendering="geometricPrecision" image-rendering="optimizeQuality" clip-rule="evenodd" viewBox="0 0 10240 10240"><title>ammunition_box_open icon</title><desc>ammunition_box_open icon from the IconExperience.com O-Collection. Copyright by INCORS GmbH (www.incors.com).</desc><path fill="#B89A7C" d="M966 1540c28-148 158-260 314-260l3520 1c51 0 102 12 150 38l4774 2546c153 64 230 234 181 391l-306 1224 1 1804c0 249-132 462-354 573L6046 9457c-186 93-389 98-572 0L994 7057c-219-117-354-324-354-573V4716c0-249 132-462 354-573l855-428-1019-543c-139-62-218-217-180-370l316-1262zm983 1506l161-642-619-330-161 642 619 330zm702-1076l131 70h2166l-225-120H2557c30 16 65 32 94 50zm40 744l-161 642 1819 970 161-642-1819-970zm3007-274H3532c550 293 1100 587 1650 880h2166l-1650-880zm234 1280l225 120h2166l-225-120H5932zm3259 760H6329l-160 640h2862l160-640zm-4100-486l-161 642 619 330 161-642-619-330zm-291 2893v1483l640 343V7230l-640-343zm-640 1140V6544l-1600-857v1483l1600 857zM1920 6827V5344l-640-342v1482l640 343zm7040-1031L6080 7236v1488l2880-1440V5796z"/></svg>