<svg xmlns="http://www.w3.org/2000/svg" width="1024" height="1024" shape-rendering="geometricPrecision" text-rendering="geometricPrecision" image-rendering="optimizeQuality" clip-rule="evenodd" viewBox="0 0 10240 10240"><title>ammunition_box_closed icon</title><desc>ammunition_box_closed icon from the IconExperience.com O-Collection. Copyright by INCORS GmbH (www.incors.com).</desc><path fill="#B89A7C" d="M994 3183l3200-1600c186-93 389-98 572 0l4480 2400c222 111 354 324 354 573v2728c0 249-132 462-354 573L6046 9457c-186 93-389 98-572 0L994 7057c-219-117-354-324-354-573V3756c0-249 132-462 354-573zm286 1276l635 340v-417l-635-340v417zm422-915l510 274 2778-1389-510-273-2778 1388zm3960-755L2900 4186l1629 873 2778-1389-1645-881zm2333 1250L5217 5428l548 293 2778-1389-548-293zm965 797L6080 6276v426l2883-1440-3-426zm0 782L6080 7058v1666l2880-1440V5618zM5440 8713V7049l-640-342v1663l640 343zm-1280-686V6364l-1595-855v1664l1595 854zM1915 6825V5161l-635-340v1663l635 341zm650-2095v418l1595 854v-418l-1595-854zm2235 1197v418l640 343v-418l-640-343z"/></svg>