<svg xmlns="http://www.w3.org/2000/svg" width="1024" height="1024" shape-rendering="geometricPrecision" text-rendering="geometricPrecision" image-rendering="optimizeQuality" clip-rule="evenodd" viewBox="0 0 10240 10240"><title>arrow_mix icon</title><desc>arrow_mix icon from the IconExperience.com O-Collection. Copyright by INCORS GmbH (www.incors.com).</desc><path fill="#4D82B8" d="M7551 7680c-936 0-1634-558-2264-1274 170-198 329-395 479-582 30-38 60-75 89-112 32-39 65-80 98-122 49-60 100-124 153-190 472 560 950 1000 1445 1000 34 7 312 0 372 0l-687-687c-47-47-60-113-35-174 26-61 82-100 148-99l839 7c176 1 328 63 452 187l1187 1187c124 124 124 328 0 452L8641 8459c-125 125-277 189-453 188l-839-7c-66-1-122-38-148-99-25-61-11-127 35-174l687-687c-58 0-340-7-372 0zM1599 4619L413 3433c-124-124-124-328 0-452l1186-1187c125-124 277-186 453-187l839-7c66-1 122 38 148 99 25 61 12 127-35 174l-687 687h320c926 0 1673 657 2245 1314-152 179-295 356-430 525-30 38-60 75-90 112-31 39-64 80-98 122-63 79-130 163-201 249-484-580-973-1042-1481-1042h-265l687 687c46 47 60 113 35 174-26 61-82 98-148 99l-839 7c-176 1-328-63-453-188z"/><path fill="#4D82B8" d="M1599 8459L413 7273c-124-124-124-328 0-452l1186-1187c125-124 277-186 453-187l839-7c66-1 122 38 148 99 25 61 12 127-35 174l-687 687h244c689-1 1370-845 2050-1688 875-1085 1749-2169 3047-2169h248l-670-670c-47-47-60-113-35-174 26-61 82-100 148-99l839 7c176 1 328 63 452 187l1187 1187c124 124 124 328 0 452L8641 4619c-125 125-277 189-453 188l-839-7c-66-1-122-38-148-99-25-61-11-127 35-174l687-687h-320c-745 0-1572 1145-1997 1672-768 952-1696 2168-3045 2168h-244l687 687c46 47 60 113 35 174-26 61-82 98-148 99l-839 7c-176 1-328-63-453-188z"/></svg>