<svg xmlns="http://www.w3.org/2000/svg" width="1024" height="1024" shape-rendering="geometricPrecision" text-rendering="geometricPrecision" image-rendering="optimizeQuality" clip-rule="evenodd" viewBox="0 0 10240 10240"><title>arrow_up_left icon</title><desc>arrow_up_left icon from the IconExperience.com O-Collection. Copyright by INCORS GmbH (www.incors.com).</desc><path fill="#4D82B8" d="M7527 3840H5197l3621 3620c124 125 124 328 0 453l-905 905c-125 124-328 124-453 0L3840 5197v2329c0 67-38 123-99 148-61 26-128 12-174-34L2107 6180c-124-124-187-276-187-452V2240c0-176 144-320 320-320h3488c176 0 328 63 452 187l1460 1460c46 46 60 113 34 174-25 61-81 99-147 99z"/></svg>