<svg xmlns="http://www.w3.org/2000/svg" width="1024" height="1024" shape-rendering="geometricPrecision" text-rendering="geometricPrecision" image-rendering="optimizeQuality" clip-rule="evenodd" viewBox="0 0 10240 10240"><title>arrow_spread2 icon</title><desc>arrow_spread2 icon from the IconExperience.com O-Collection. Copyright by INCORS GmbH (www.incors.com).</desc><path fill="#4D82B8" d="M6530 5627c460 457 923 911 1381 1369v-971c0-66 38-123 99-148s128-12 174 35l589 598c123 125 187 276 187 452v1678c0 176-144 320-320 320H6962c-176 0-329-62-452-187l-588-598c-47-47-60-114-35-175s82-98 148-99h971c-457-457-917-913-1376-1368l900-906zM4613 6530c-457 460-911 923-1369 1381h971c66 0 123 38 148 99s12 128-35 174l-598 589c-125 123-276 187-452 187H1600c-176 0-320-144-320-320V6962c0-176 62-329 187-452l598-588c47-47 114-60 175-35s98 82 99 148v971c457-457 913-917 1368-1376l906 900zM5627 3710c457-460 911-923 1369-1381h-971c-66 0-123-38-148-99s-12-128 35-174l598-589c125-123 276-187 452-187h1678c176 0 320 144 320 320v1678c0 176-62 329-187 452l-598 588c-47 47-114 60-175 35s-98-82-99-148v-971c-457 457-913 917-1368 1376l-906-900zM3710 4613c-460-457-923-911-1381-1369v971c0 66-38 123-99 148s-128 12-174-35l-589-598c-123-125-187-276-187-452V1600c0-176 144-320 320-320h1678c176 0 329 62 452 187l588 598c47 47 60 114 35 175s-82 98-148 99h-971c457 457 917 913 1376 1368l-900 906z"/></svg>