<svg xmlns="http://www.w3.org/2000/svg" width="1024" height="1024" shape-rendering="geometricPrecision" text-rendering="geometricPrecision" image-rendering="optimizeQuality" clip-rule="evenodd" viewBox="0 0 10240 10240"><title>arrow_right icon</title><desc>arrow_right icon from the IconExperience.com O-Collection. Copyright by INCORS GmbH (www.incors.com).</desc><path fill="#4D82B8" d="M4422 7716l1647-1647H949c-176 0-320-144-320-320V4469c0-176 144-320 320-320h5120L4422 2502c-47-47-60-113-35-174 26-61 82-99 148-99h2064c176 0 328 63 452 187l2467 2467c124 124 124 328 0 452L7051 7801c-124 125-276 188-452 188H4535c-66 0-122-38-148-99-25-61-12-128 35-174z"/></svg>