<svg xmlns="http://www.w3.org/2000/svg" width="1024" height="1024" shape-rendering="geometricPrecision" text-rendering="geometricPrecision" image-rendering="optimizeQuality" clip-rule="evenodd" viewBox="0 0 10240 10240"><title>arrow_fork2 icon</title><desc>arrow_fork2 icon from the IconExperience.com O-Collection. Copyright by INCORS GmbH (www.incors.com).</desc><path fill="#4D82B8" d="M2880 5760v320c0 387 529 623 1058 858 183 81 366 162 542 251V2560l-687 687c-47 46-113 60-174 34-61-25-100-82-99-147l7-839c1-176 63-328 187-453L4901 656c124-124 328-124 452 0l1186 1186c125 125 189 277 188 453l-7 839c-1 66-38 122-99 147-61 26-127 12-174-34l-687-687v3349c176-89 359-170 542-251 529-235 1058-470 1058-858v-320l-687 687c-47 46-113 60-174 34-61-25-100-82-99-147l7-839c1-176 63-328 187-453l1187-1186c124-124 328-124 452 0l1186 1186c125 125 189 277 188 453l-7 839c-1 66-38 122-99 147-61 26-127 12-174-34l-687-687v328c-4 1206-913 1610-1822 2015-529 235-1058 469-1058 857v1920H4480v-640c0-388-529-622-1058-857-909-405-1817-809-1822-2014v-329l-687 687c-47 46-113 60-174 34-61-25-100-82-99-147l7-839c1-176 63-328 187-453l1187-1186c124-124 328-124 452 0l1186 1186c125 125 189 277 188 453l-7 839c-1 66-38 122-99 147-61 26-127 12-174-34l-687-687z"/></svg>