<svg xmlns="http://www.w3.org/2000/svg" width="1024" height="1024" shape-rendering="geometricPrecision" text-rendering="geometricPrecision" image-rendering="optimizeQuality" clip-rule="evenodd" viewBox="0 0 10240 10240"><title>arrow_shuffle icon</title><desc>arrow_shuffle icon from the IconExperience.com O-Collection. Copyright by INCORS GmbH (www.incors.com).</desc><path fill="#4D82B8" d="M6720 7680c-804 0-1426-432-1980-1024 247-336 469-703 687-1062l31-51c416 490 835 857 1262 857h640l-687-687c-46-47-60-113-34-174 25-61 82-100 147-99l839 7c176 1 328 63 453 187l1186 1187c124 124 124 328 0 452L8078 8459c-125 125-277 189-453 188l-839-7c-66-1-122-38-147-99-26-61-12-127 34-174l687-687h-640zM3492 5082c-518-669-1038-1242-1572-1242h-640V2560h640c955 0 1653 610 2286 1373-158 239-308 486-456 730-87 143-173 284-258 419z"/><path fill="#4D82B8" d="M8078 4619l1186-1186c124-124 124-328 0-452L8078 1794c-125-124-277-186-453-187l-839-7c-65-1-122 38-147 99-26 61-12 127 34 174l687 687h-640c-1317 0-1997 1119-2677 2238-491 810-983 1619-1586 1619H1177v1280h1280c1317 0 1997-1119 2676-2239 492-809 984-1618 1587-1618h640l-687 687c-46 47-60 113-34 174 25 61 81 98 147 99l839 7c176 1 328-63 453-188z"/></svg>