<svg xmlns="http://www.w3.org/2000/svg" width="1024" height="1024" shape-rendering="geometricPrecision" text-rendering="geometricPrecision" image-rendering="optimizeQuality" clip-rule="evenodd" viewBox="0 0 10240 10240"><title>arrow_through icon</title><desc>arrow_through icon from the IconExperience.com O-Collection. Copyright by INCORS GmbH (www.incors.com).</desc><path fill="#4D82B8" d="M4480 9600V2880l-687 687c-47 46-113 60-174 34-61-25-100-82-99-147l7-839c1-176 63-328 187-453L4901 976c124-124 328-124 452 0l1186 1186c125 125 189 277 188 453l-7 839c-1 66-38 122-99 147-61 26-127 12-174-34l-687-687v6720H4480z"/><path fill="gray" d="M1280 5120h2880v1280H1280V5120zm4800 0h2880v1280H6080V5120z"/></svg>