<svg xmlns="http://www.w3.org/2000/svg" width="1024" height="1024" shape-rendering="geometricPrecision" text-rendering="geometricPrecision" image-rendering="optimizeQuality" clip-rule="evenodd" viewBox="0 0 10240 10240"><title>arrow_loop3 icon</title><desc>arrow_loop3 icon from the IconExperience.com O-Collection. Copyright by INCORS GmbH (www.incors.com).</desc><path fill="#4D82B8" d="M5790 6400h1250c354 0 674-143 905-375 232-231 375-551 375-905s-143-674-375-905c-231-232-551-375-905-375h-640l687 687c46 47 60 113 34 174-25 61-81 98-147 99l-839 7c-176 1-328-63-453-188L4496 3433c-124-124-124-328 0-452l1186-1187c125-124 277-186 453-187l839-7c65-1 122 38 147 99 26 61 12 127-34 174l-687 687h640c707 0 1347 287 1810 750s750 1103 750 1810-287 1347-750 1810-1103 750-1810 750H5776l194-194c249-250 249-656 0-905l-180-181z"/><path fill="#4D82B8" d="M4558 5621l1186 1186c124 124 124 328 0 452L4558 8446c-125 124-277 186-453 187l-839 7c-65 1-122-38-147-99-26-61-12-127 34-174l687-687h-640c-707 0-1347-287-1810-750S640 5827 640 5120s287-1347 750-1810 1103-750 1810-750h1264l-194 194c-249 250-249 656 0 905l181 181H3200c-354 0-674 143-905 375-232 231-375 551-375 905s143 674 375 905c231 232 551 375 905 375h640l-687-687c-46-47-60-113-34-174 25-61 81-98 147-99l839-7c176-1 328 63 453 188z"/></svg>