<svg xmlns="http://www.w3.org/2000/svg" width="1024" height="1024" shape-rendering="geometricPrecision" text-rendering="geometricPrecision" image-rendering="optimizeQuality" clip-rule="evenodd" viewBox="0 0 10240 10240"><title>arrow_junction icon</title><desc>arrow_junction icon from the IconExperience.com O-Collection. Copyright by INCORS GmbH (www.incors.com).</desc><path fill="#4D82B8" d="M5760 8320v-320c0-442-179-842-469-1131-289-290-689-469-1131-469h-960l687 687c46 47 60 113 34 174-25 61-82 100-147 99l-839-7c-176-1-328-63-453-187L1296 5979c-124-124-124-328 0-452l1186-1186c125-125 277-189 453-188l839 7c66 1 122 38 147 99 26 61 12 127-34 174l-687 687h960c592 0 1142 179 1600 485V2880l-687 687c-47 46-113 60-174 34-61-25-100-82-99-147l7-839c1-176 63-328 187-453L6181 976c124-124 328-124 452 0l1187 1186c124 125 188 277 187 453l-7 839c-1 66-38 122-99 147-61 26-127 12-174-34l-687-687v6720H5760V8320z"/></svg>