<svg xmlns="http://www.w3.org/2000/svg" width="1024" height="1024" shape-rendering="geometricPrecision" text-rendering="geometricPrecision" image-rendering="optimizeQuality" clip-rule="evenodd" viewBox="0 0 10240 10240"><title>arrow_fork icon</title><desc>arrow_fork icon from the IconExperience.com O-Collection. Copyright by INCORS GmbH (www.incors.com).</desc><path fill="#4D82B8" d="M7360 7680h-640c-1009 0-1736-545-2463-1090-553-415-1106-830-1697-830H1280V4480h1280c591 0 1144-415 1697-830 727-545 1454-1090 2463-1090h640l-687-687c-46-47-60-113-34-174 25-61 82-100 147-99l839 7c176 1 328 63 453 187l1186 1187c124 124 124 328 0 452L8078 4619c-125 125-277 189-453 188l-839-7c-66-1-122-38-147-99-26-61-12-127 34-174l687-687h-640c-591 0-1144 415-1698 830-205 154-410 308-622 450 212 142 417 296 622 450 554 415 1107 830 1698 830h640l-687-687c-46-47-60-113-34-174 25-61 82-100 147-99l839 7c176 1 328 63 453 187l1186 1187c124 124 124 328 0 452L8078 8459c-125 125-277 189-453 188l-839-7c-66-1-122-38-147-99-26-61-12-127 34-174l687-687z"/></svg>