<svg xmlns="http://www.w3.org/2000/svg" width="1024" height="1024" shape-rendering="geometricPrecision" text-rendering="geometricPrecision" image-rendering="optimizeQuality" clip-rule="evenodd" viewBox="0 0 10240 10240"><title>arrow_out icon</title><desc>arrow_out icon from the IconExperience.com O-Collection. Copyright by INCORS GmbH (www.incors.com).</desc><path fill="gray" d="M1280 7680h4160v320c0 176 144 320 320 320h1280c176 0 320-144 320-320v-320h1600v1280H1280V7680z"/><path fill="#4D82B8" d="M3604 3200h1196c1235-3 2240 1006 2240 2240v2560H5760V5440c0-536-422-962-960-960l-1203 7 687 687c46 47 60 113 35 174-26 61-83 99-148 99l-839-7c-176-1-328-63-453-187L1693 4066c-124-124-124-328 0-452l1186-1187c125-124 277-188 453-187l839 7c66 0 122 38 147 99 26 61 12 127-34 174l-680 680z"/></svg>