<svg xmlns="http://www.w3.org/2000/svg" width="1024" height="1024" shape-rendering="geometricPrecision" text-rendering="geometricPrecision" image-rendering="optimizeQuality" clip-rule="evenodd" viewBox="0 0 10240 10240"><title>arrow_down_left icon</title><desc>arrow_down_left icon from the IconExperience.com O-Collection. Copyright by INCORS GmbH (www.incors.com).</desc><path fill="#4D82B8" d="M3840 2713v2330l3620-3621c125-124 328-124 453 0l905 905c124 125 124 328 0 453L5197 6400h2329c67 0 123 38 148 99 26 61 12 128-34 174L6180 8133c-124 124-276 187-452 187H2240c-176 0-320-144-320-320V4512c0-176 63-328 187-452l1460-1460c46-46 113-60 174-34 61 25 99 81 99 147z"/></svg>