<svg xmlns="http://www.w3.org/2000/svg" width="1024" height="1024" shape-rendering="geometricPrecision" text-rendering="geometricPrecision" image-rendering="optimizeQuality" clip-rule="evenodd" viewBox="0 0 10240 10240"><title>arrow_left icon</title><desc>arrow_left icon from the IconExperience.com O-Collection. Copyright by INCORS GmbH (www.incors.com).</desc><path fill="#4D82B8" d="M5818 2502L4171 4149h5120c176 0 320 144 320 320v1280c0 176-144 320-320 320H4171l1647 1647c47 46 60 113 35 174-26 61-82 99-148 99H3641c-176 0-328-63-452-188L722 5335c-124-124-124-328 0-452l2467-2467c124-124 276-187 452-187h2064c66 0 122 38 148 99 25 61 12 127-35 174z"/></svg>