<svg xmlns="http://www.w3.org/2000/svg" width="1024" height="1024" shape-rendering="geometricPrecision" text-rendering="geometricPrecision" image-rendering="optimizeQuality" clip-rule="evenodd" viewBox="0 0 10240 10240"><title>arrow_curve_left icon</title><desc>arrow_curve_left icon from the IconExperience.com O-Collection. Copyright by INCORS GmbH (www.incors.com).</desc><path fill="#4D82B8" d="M2482 2101L1296 3287c-124 124-124 328 0 452l1186 1187c125 124 277 186 453 187l839 7c65 1 122-38 147-99 26-61 12-127-34-174l-687-687h640c705 0 1345 288 1808 752 464 463 752 1103 752 1808v2240h1280V6720c0-1058-431-2018-1127-2713-695-696-1655-1127-2713-1127h-640l687-687c46-47 60-113 34-174-25-61-81-98-147-99l-839-7c-176-1-328 63-453 188z"/></svg>