<svg xmlns="http://www.w3.org/2000/svg" width="1024" height="1024" shape-rendering="geometricPrecision" text-rendering="geometricPrecision" image-rendering="optimizeQuality" clip-rule="evenodd" viewBox="0 0 10240 10240"><title>arrow_turn_left icon</title><desc>arrow_turn_left icon from the IconExperience.com O-Collection. Copyright by INCORS GmbH (www.incors.com).</desc><path fill="#4D82B8" d="M3200 2880h2560c529 0 1009 216 1357 563 347 348 563 828 563 1357v4160H6400V4800c0-176-72-336-188-452s-276-188-452-188H3200l687 687c46 47 60 113 34 174-25 61-82 100-147 99l-839-7c-176-1-328-63-453-187L1296 3739c-124-124-124-328 0-452l1186-1186c125-125 277-189 453-188l839 7c66 1 122 38 147 99 26 61 12 127-34 174l-687 687z"/></svg>