<svg xmlns="http://www.w3.org/2000/svg" width="1024" height="1024" shape-rendering="geometricPrecision" text-rendering="geometricPrecision" image-rendering="optimizeQuality" clip-rule="evenodd" viewBox="0 0 10240 10240"><title>athlete icon</title><desc>athlete icon from the IconExperience.com O-Collection. Copyright by INCORS GmbH (www.incors.com).</desc><path fill="#EFC1B4" d="M4480 640c1414 0 2560 1141 2560 2549S5894 5739 4480 5739 1920 4597 1920 3189 3066 640 4480 640z"/><path fill="gray" d="M7680 5120h1280c353 0 640 288 640 640v1129c393 352 640 862 640 1431 0 1060-860 1920-1920 1920s-1920-860-1920-1920c0-569 247-1079 640-1431V5760c0-353 288-640 640-640zm0 1389c200-70 416-109 640-109s440 39 640 109v-749H7680v749z"/><path fill="#EFC1B4" d="M6720 6528c-132-373-307-726-525-1035 27-20 54-40 80-61 159 124 308 264 445 417v679zM1958 9185c-407-175-678-410-678-714 0-1264 557-2379 1405-3039 25 20 52 40 78 60-585 834-843 1990-843 2997 0 233 13 465 38 696zm1711-3243c257 75 530 115 811 115s552-40 809-115l11 24c110 246 194 507 260 768 71 283-48 564-301 710-236 136-504 236-779 236-276 0-544-100-780-237-253-146-371-425-301-708 65-262 149-523 259-769l11-24z"/><path fill="#E68497" d="M6353 9393c-70 16-141 32-213 46l-3 1-28 6h-2l-29 6h-2l-20 4-9 1-2 1-21 4c-516 95-1073 138-1544 138-469 0-1024-43-1539-137-226-42-445-93-645-155-37-263-56-537-56-819 0-1046 286-2107 790-2821 108 62 220 118 337 167-109 242-203 519-278 823-105 421 75 845 451 1062 263 153 588 280 940 280 350 0 675-126 938-278 378-218 558-644 452-1067-75-297-169-575-278-819 116-49 228-104 335-167 259 363 463 816 599 1309-288 384-446 853-446 1342 0 389 99 754 273 1073z"/></svg>