<svg xmlns="http://www.w3.org/2000/svg" width="1024" height="1024" shape-rendering="geometricPrecision" text-rendering="geometricPrecision" image-rendering="optimizeQuality" clip-rule="evenodd" viewBox="0 0 10240 10240"><title>atm icon</title><desc>atm icon from the IconExperience.com O-Collection. Copyright by INCORS GmbH (www.incors.com).</desc><path fill="#4D82B8" d="M2560 1600c-176 0-320 144-320 320v1920c0 176 144 320 320 320h2560c176 0 320-144 320-320V1920c0-176-144-320-320-320H2560z"/><path fill="gray" d="M1920 640h6400c353 0 640 288 640 640v7680c0 352-288 640-640 640H1920c-352 0-640-287-640-640V1280c0-353 288-640 640-640zm320 7680c-176 0-320 144-320 320s144 320 320 320h5760c176 0 320-144 320-320s-144-320-320-320H2240zm320-7040c-352 0-640 287-640 640v1920c0 353 288 640 640 640h2560c352 0 640-288 640-640V1920c0-352-287-640-640-640H2560zm3840 320v640h960v-640h-960zm0 960v640h960v-640h-960zm0 960v640h960v-640h-960zm0 1600c-176 0-320 144-320 320v320h2240v-320c0-176-144-320-320-320H6400zm1920 960H6080v320c0 176 144 320 320 320h1600c176 0 320-144 320-320v-320zm-5760-960v640h640v-640h-640zm0 960v640h640v-640h-640zm0 960v640h640v-640h-640zm960-1920v640h640v-640h-640zm0 960v640h640v-640h-640zm0 960v640h640v-640h-640zm960-1920v640h640v-640h-640zm0 960v640h640v-640h-640zm0 960v640h640v-640h-640z"/></svg>