<svg xmlns="http://www.w3.org/2000/svg" width="1024" height="1024" shape-rendering="geometricPrecision" text-rendering="geometricPrecision" image-rendering="optimizeQuality" clip-rule="evenodd" viewBox="0 0 10240 10240"><title>audio_cassette icon</title><desc>audio_cassette icon from the IconExperience.com O-Collection. Copyright by INCORS GmbH (www.incors.com).</desc><path fill="gray" d="M3200 3840c-1060 0-1920 860-1920 1920 0 350 94 678 257 960h3326c163-282 257-610 257-960 0-1060-860-1920-1920-1920zm3840 1280c353 0 640 287 640 640s-287 640-640 640-640-287-640-640 287-640 640-640zm-3840 0c353 0 640 287 640 640s-287 640-640 640-640-287-640-640 287-640 640-640zm5001 100c-204-437-647-740-1161-740-707 0-1280 573-1280 1280 0 382 168 725 433 960h1694c203-180 349-423 406-699l404 699h263v-185l-759-1315z"/><path fill="#4D82B8" d="M1280 2880h7680v640H1280z"/><path fill="gray" d="M960 1920h8320c353 0 640 288 640 640v5760c0 352-288 640-640 640h-960l-560-1399c-49-124-163-201-297-201H2777c-134 0-248 77-297 201l-560 1399H960c-352 0-640-288-640-640V2560c0-353 288-640 640-640zm6925 7040H2355l389-1079c44-124 147-201 267-201h4218c120 0 223 77 267 201l389 1079zM960 2560v4480h8320V2560H960z"/></svg>