<svg xmlns="http://www.w3.org/2000/svg" width="1024" height="1024" shape-rendering="geometricPrecision" text-rendering="geometricPrecision" image-rendering="optimizeQuality" clip-rule="evenodd" viewBox="0 0 10240 10240"><title>band_aid icon</title><desc>band_aid icon from the IconExperience.com O-Collection. Copyright by INCORS GmbH (www.incors.com).</desc><path fill="#EFC1B4" d="M7835 1500l905 905c250 249 250 656 0 905L7156 4894 5346 3084l1584-1584c249-250 656-250 905 0zM4894 7156L3310 8740c-249 250-656 250-905 0l-905-905c-250-249-250-656 0-905l1584-1584 1810 1810zM3310 1500l5430 5430c250 249 250 656 0 905l-905 905c-249 250-656 250-905 0L1500 3310c-250-249-250-656 0-905l905-905c249-250 656-250 905 0zm2484 3860c-122-123-321-123-443 0-123 122-123 321 0 443 122 123 321 123 443 0 123-122 123-321 0-443zm897-9c-123-123-322-123-444 0-123 122-123 321 0 443 122 123 321 123 444 0 122-122 122-321 0-443zM4898 3540c-122-122-321-122-444 0-122 123-122 322 0 444 123 123 322 123 444 0 123-122 123-321 0-444zm-3 1808c-124-124-325-124-449 0s-124 325 0 449 325 124 449 0 124-325 0-449zm-906-907c-125-125-328-125-453 0s-125 328 0 453 328 125 453 0 125-328 0-453zm905 0c-125-125-328-125-453 0s-125 328 0 453 328 125 453 0 125-328 0-453zm892 1815c-123-123-322-123-444 0-123 122-123 321 0 443 122 123 321 123 444 0 122-122 122-321 0-443zm13-1815c-125-125-328-125-453 0s-125 328 0 453 328 125 453 0 125-328 0-453z"/></svg>