<svg xmlns="http://www.w3.org/2000/svg" width="1024" height="1024" shape-rendering="geometricPrecision" text-rendering="geometricPrecision" image-rendering="optimizeQuality" clip-rule="evenodd" viewBox="0 0 10240 10240"><title>bank_building icon</title><desc>bank_building icon from the IconExperience.com O-Collection. Copyright by INCORS GmbH (www.incors.com).</desc><path fill="#EDC87E" d="M640 8960h320v-640h8320v640h320v640H640z"/><path fill="gray" d="M3200 4160h3840v3840H3200V4160zm2240 3360h80c485 0 880-395 880-880s-395-880-880-880h-240v-480h240c102 0 192 65 226 160h650c-41-452-422-800-876-800h-240v-160h-320v160h-240c-485 0-880 395-880 880s395 880 880 880h240v480h-240c-101 0-192-65-226-160h-650c41 452 422 800 876 800h240v160h320v-160h160zm-160-640h240c132 0 240-108 240-240s-108-240-240-240h-240v480zm-320-1600h-240c-132 0-240 108-240 240s108 240 240 240h240v-480z"/><path fill="#EDC87E" d="M8960 4160v320c0 177-143 320-320 320 320 1600 320 2560 320 3200H7360c0-640 0-1600 320-3200-177 0-320-143-320-320v-320h1600zM2880 4160v320c0 177-143 320-320 320 320 1600 320 2560 320 3200H1280c0-640 0-1600 320-3200-177 0-320-143-320-320v-320h1600zM5120 320l4800 2560-320 320H640l-320-320L5120 320zm4160 3200v320H960v-320h8320z"/></svg>