<svg xmlns="http://www.w3.org/2000/svg" width="1024" height="1024" shape-rendering="geometricPrecision" text-rendering="geometricPrecision" image-rendering="optimizeQuality" clip-rule="evenodd" viewBox="0 0 10240 10240"><title>barrier_closed icon</title><desc>barrier_closed icon from the IconExperience.com O-Collection. Copyright by INCORS GmbH (www.incors.com).</desc><path fill="#E68497" d="M1600 4480h8000c176 0 320 144 320 320v640c0 176-144 320-320 320H1600c-176 0-320-144-320-320v-640c0-176 144-320 320-320zm320 320c-177 0-320 143-320 320s143 320 320 320 320-143 320-320-143-320-320-320zm6080 0l-640 640h1280l640-640H8000zm-2240 0l-640 640h1280l640-640H5760zm-2240 0l-640 640h1280l640-640H3520z"/><path fill="gray" d="M1280 3200h1280c353 0 640 288 640 640v320H1600c-353 0-640 287-640 640v640c0 353 287 640 640 640h1600v2560c176 0 320 144 320 320v640H320v-640c0-176 144-320 320-320V3840c0-353 287-640 640-640z"/></svg>