<svg xmlns="http://www.w3.org/2000/svg" width="1024" height="1024" shape-rendering="geometricPrecision" text-rendering="geometricPrecision" image-rendering="optimizeQuality" clip-rule="evenodd" viewBox="0 0 10240 10240"><title>barrels icon</title><desc>barrels icon from the IconExperience.com O-Collection. Copyright by INCORS GmbH (www.incors.com).</desc><path fill="gray" d="M6400 6720h-640v-960c-177 0-320-143-320-320s143-320 320-320h3200c177 0 320 143 320 320s-143 320-320 320v1280c177 0 320 143 320 320s-143 320-320 320v1280c177 0 320 143 320 320s-143 320-320 320H5760c-177 0-320-143-320-320 0-176 143-319 319-320h2401c88 0 160-72 160-160s-72-160-160-160h-160v-960H6400v960h-640v-960c-177 0-320-143-320-320s143-320 320-320h2400c88 0 160-72 160-160s-72-160-160-160h-160v-960H6400v960zM1920 6720h-640v-960c-177 0-320-143-320-320s143-320 320-320h3200c177 0 320 143 320 320s-143 320-320 320v1280c177 0 320 143 320 320s-143 320-320 320v1280c177 0 320 143 320 320s-143 320-320 320H1280c-177 0-320-143-320-320 0-176 143-319 319-320h2401c88 0 160-72 160-160s-72-160-160-160h-160v-960H1920v960h-640v-960c-177 0-320-143-320-320s143-320 320-320h2400c88 0 160-72 160-160s-72-160-160-160h-160v-960H1920v960zM4160 4160h-640v-960c-177 0-320-143-320-320s143-320 320-320h2400c88 0 160-72 160-160s-72-160-160-160h-160v-960H4160v960h-640v-960c-177 0-320-143-320-320s143-320 320-320h3200c177 0 320 143 320 320s-143 320-320 320v1280c177 0 320 143 320 320s-143 320-320 320v1280c177 0 320 143 320 320s-143 320-320 320H3520c-177 0-320-143-320-320 0-176 143-319 319-320h2401c88 0 160-72 160-160s-72-160-160-160h-160v-960H4160v960z"/></svg>