<svg xmlns="http://www.w3.org/2000/svg" width="1024" height="1024" shape-rendering="geometricPrecision" text-rendering="geometricPrecision" image-rendering="optimizeQuality" clip-rule="evenodd" viewBox="0 0 10240 10240"><title>baseball icon</title><desc>baseball icon from the IconExperience.com O-Collection. Copyright by INCORS GmbH (www.incors.com).</desc><path fill="gray" d="M9105 3072c316 613 495 1310 495 2048s-179 1435-495 2048c-49 95-133 155-239 171-105 15-203-19-277-96-54-56-109-111-165-165 340-573 536-1243 536-1958s-196-1384-536-1958c56-54 111-109 165-165 74-77 172-111 277-96 106 16 190 76 239 171zM7594 8056c73 73 143 148 210 226 59 71 84 154 73 246-11 91-55 166-129 221-739 535-1646 851-2628 851s-1889-316-2628-851c-74-55-118-130-129-221-11-92 14-175 73-246 67-78 137-153 210-226 668 564 1531 904 2474 904s1806-340 2474-904zm-5778-978c-56 54-111 109-165 165-74 77-172 111-277 96-106-16-190-76-239-171-316-613-495-1310-495-2048s179-1435 495-2048c49-95 133-155 239-171 105-15 203 19 277 96 54 56 109 111 165 165-340 574-536 1243-536 1958s196 1385 536 1958zm830-4895v1c-73-73-143-148-210-226-59-71-84-154-73-246 11-91 55-166 129-221 739-535 1646-851 2628-851s1889 316 2628 851c74 55 118 130 129 221 11 92-14 175-73 246-67 78-137 153-210 226v-1c-668-563-1531-903-2474-903s-1806 340-2474 903z"/><path fill="#E68497" d="M5440 4160c0 177-143 320-320 320s-320-143-320-320v-11c-179-13-355-36-528-69l-3 10c-45 170-220 272-391 226-171-45-272-221-226-391l2-10c-169-59-333-127-492-205l-6 10c-88 152-283 204-436 116s-205-284-116-436l5-9c-236-160-456-342-657-543-30-31-61-62-90-93-55-59-59-147-10-209 69-88 142-173 218-255 31-34 71-51 117-51s86 17 118 51c32 36 66 70 100 104 161 162 337 309 525 440 91-144 281-192 430-106s202 274 122 425c111 52 223 99 339 141 50-164 221-259 388-215 166 45 267 213 229 380 119 21 240 37 362 47 7-171 148-307 320-307s313 136 320 307c122-10 243-26 362-47-38-167 63-335 229-380 167-44 338 51 388 215 116-42 229-89 339-141-80-151-27-339 122-425s339-38 430 106c188-131 364-278 525-440 34-34 68-68 100-104 32-34 72-51 118-51s86 17 117 51c76 82 149 167 218 255 49 62 45 150-10 209-29 31-60 62-90 93-201 201-421 383-657 543l5 9c89 152 37 348-116 436s-348 36-436-116l-6-10c-159 78-323 146-492 205l2 10c46 170-55 346-226 391-171 46-346-56-391-226l-3-10c-173 33-349 56-528 69v11zm2730 3789c76-82 148-167 218-255 49-62 45-150-10-209-29-31-60-62-90-93-201-201-421-383-657-543l5-9c88-152 36-348-116-436-153-88-348-36-436 116l-6 10c-159-78-324-146-493-205l3-10c46-170-56-346-226-391-171-46-346 56-391 226l-3 10c-173-33-349-56-528-69v-11c0-177-143-320-320-320s-320 143-320 320v11c-179 13-356 36-528 69l-3-10c-45-170-221-272-391-226-171 45-272 221-226 391l2 10c-169 59-333 127-492 205l-6-10c-88-152-284-204-436-116-153 88-205 284-116 436l5 9c-236 160-456 342-657 543-31 31-61 62-91 93-54 59-58 147-9 209 69 88 142 173 218 255 31 34 71 51 117 51s86-17 117-51c33-36 67-70 101-104 161-162 337-309 525-440 91 144 281 192 430 106s202-274 122-425c110-52 223-99 339-141 50 164 221 259 387 215 167-45 267-213 230-380 119-21 240-37 362-47 7 171 148 307 320 307s313-136 320-307c122 10 243 26 362 47-38 167 63 335 229 380 167 44 338-51 388-215 115 42 228 89 338 141-79 151-26 339 123 425s338 38 430-106c188 131 364 278 525 440 34 34 68 68 100 104 32 34 71 51 118 51 46 0 86-17 117-51z"/></svg>