<svg xmlns="http://www.w3.org/2000/svg" width="1024" height="1024" shape-rendering="geometricPrecision" text-rendering="geometricPrecision" image-rendering="optimizeQuality" clip-rule="evenodd" viewBox="0 0 10240 10240"><title>beaker2 icon</title><desc>beaker2 icon from the IconExperience.com O-Collection. Copyright by INCORS GmbH (www.incors.com).</desc><path fill="#76A797" d="M4113 5440L2745 8177c-55 110-51 207 14 311 65 105 148 152 272 152h4178c124 0 207-47 272-152 65-104 69-201 14-311L6127 5440H4113zm1300 320c442 0 800 358 800 800s-358 800-800 800-800-358-800-800 358-800 800-800zM4320 7457c265 0 480 215 480 480s-215 480-480 480-480-215-480-480 215-480 480-480z"/><path fill="gray" d="M3520 640h640c176 0 320 144 320 320v2729c0 208-42 386-135 572L2459 8034c-105 209-95 424 28 622 123 200 309 304 544 304h4178c235 0 421-104 544-304 123-198 133-413 28-622L5895 4261c-93-186-135-364-135-572V960c0-176 144-320 320-320h640c176 0 320 144 320 320s-144 320-320 320h-320v2409c0 104 21 193 68 286l1886 3773c204 408 184 857-56 1245s-633 607-1089 607H3031c-456 0-849-219-1089-607s-260-837-56-1245l1886-3773c47-93 68-182 68-286V1280h-320c-176 0-320-144-320-320s144-320 320-320z"/></svg>