<svg xmlns="http://www.w3.org/2000/svg" width="1024" height="1024" shape-rendering="geometricPrecision" text-rendering="geometricPrecision" image-rendering="optimizeQuality" clip-rule="evenodd" viewBox="0 0 10240 10240"><title>bed icon</title><desc>bed icon from the IconExperience.com O-Collection. Copyright by INCORS GmbH (www.incors.com).</desc><path fill="#4D82B8" d="M8373 5582c374 331 405 1125-53 1138h-960c-210 0-640 0-640-320 0-175 24-324 78-450 170 83 360 130 562 130 412 0 779-195 1013-498zM4480 4160c542 0 1213 227 1601 680 9 308 128 589 318 805 1 17 1 34 1 51 0 512-320 1024-640 1024H2240c-320 0-640-512-640-1024 0-805 960-1536 2880-1536z"/><path fill="#EFC1B4" d="M7360 5760c-530 0-960-430-960-960s430-960 960-960 960 430 960 960-430 960-960 960z"/><path fill="gray" d="M9600 4160v4800h-640v-320c0-176-144-320-320-320H1600c-176 0-320 144-320 320v320H640V5440c0-177 143-320 320-320s320 143 320 320v1600h7680V4160c0-177 143-320 320-320s320 143 320 320z"/></svg>