<svg xmlns="http://www.w3.org/2000/svg" width="1024" height="1024" shape-rendering="geometricPrecision" text-rendering="geometricPrecision" image-rendering="optimizeQuality" clip-rule="evenodd" viewBox="0 0 10240 10240"><title>bed_empty icon</title><desc>bed_empty icon from the IconExperience.com O-Collection. Copyright by INCORS GmbH (www.incors.com).</desc><path fill="#4D82B8" d="M7942 5440c916 0 840 1260 291 1280h-908c-198 0-605 0-605-400 0-560 617-880 1222-880zM4480 4800c815 0 1920 384 1920 1152 0 384-320 768-640 768H2240c-320 0-640-384-640-768 0-603 960-1152 2880-1152z"/><path fill="gray" d="M9600 4160v4800h-640v-320c0-176-144-320-320-320H1600c-176 0-320 144-320 320v320H640V5440c0-177 143-320 320-320s320 143 320 320v1600h7680V4160c0-177 143-320 320-320s320 143 320 320z"/></svg>