<svg xmlns="http://www.w3.org/2000/svg" width="1024" height="1024" shape-rendering="geometricPrecision" text-rendering="geometricPrecision" image-rendering="optimizeQuality" clip-rule="evenodd" viewBox="0 0 10240 10240"><title>beer_glass icon</title><desc>beer_glass icon from the IconExperience.com O-Collection. Copyright by INCORS GmbH (www.incors.com).</desc><path fill="#EDC87E" d="M3689 3520l-218 1763c-57 470 84 886 399 1237 347 388 735 532 1250 532s903-144 1250-532c315-351 456-767 399-1237l-218-1763H3689z"/><path fill="gray" d="M3520 8959h1280v-962c-649-62-1209-355-1644-842-500-560-729-1248-637-1996l297-2669c37-326 309-570 637-570h3335c327 0 599 244 636 570l297 2669c92 748-137 1436-637 1996-435 487-995 780-1644 842v962h1280c176 0 320 144 320 320v321H3200v-321c0-176 144-320 320-320zm3237-6398H3483l-329 2676c-70 566 98 1068 477 1492 409 458 883 640 1489 640s1080-182 1489-640c379-424 547-926 477-1492l-329-2676zM4160 640h1920c529 0 960 431 960 960v33c-81-21-165-33-252-33h-68c0-353-287-640-640-640H4160c-353 0-640 287-640 640h-67c-88 0-172 12-253 33v-33c0-529 431-960 960-960z"/></svg>