<svg xmlns="http://www.w3.org/2000/svg" width="1024" height="1024" shape-rendering="geometricPrecision" text-rendering="geometricPrecision" image-rendering="optimizeQuality" clip-rule="evenodd" viewBox="0 0 10240 10240"><title>bell2 icon</title><desc>bell2 icon from the IconExperience.com O-Collection. Copyright by INCORS GmbH (www.incors.com).</desc><path fill="#EDC87E" d="M5120 640c530 0 960 430 960 960 0 150-34 292-95 418 1476 340 2627 1530 2909 3028 15 83 57 148 124 198 165 121 262 312 262 516 0 211-103 399-262 516-67 50-109 116-124 198-293 1554-1520 2777-3076 3063-97 17-187-6-263-69-75-63-115-148-115-246V8171c0-124 65-230 176-286 278-140 464-394 464-685 0-442-430-800-960-800s-960 358-960 800c0 291 186 545 464 685 111 56 176 162 176 286v1051c0 98-40 183-115 246-76 63-166 86-263 69-1556-286-2783-1509-3076-3063-15-82-57-148-124-198-165-121-262-312-262-516 0-211 103-399 262-516 67-50 109-115 124-198 282-1498 1433-2688 2909-3028-61-126-95-268-95-418 0-530 430-960 960-960zM2705 4906c178-504 510-935 938-1238 417-295 927-468 1477-468 141 0 283 11 422 34 174 28 338-90 367-264 28-174-90-338-264-366-174-29-349-44-525-44-686 0-1323 217-1844 585-536 379-950 919-1173 1549-59 166 28 349 195 407 166 59 349-28 407-195zm2415-3626c-177 0-320 143-320 320s143 320 320 320 320-143 320-320-143-320-320-320z"/></svg>