<svg xmlns="http://www.w3.org/2000/svg" width="1024" height="1024" shape-rendering="geometricPrecision" text-rendering="geometricPrecision" image-rendering="optimizeQuality" clip-rule="evenodd" viewBox="0 0 10240 10240"><title>beverage_can icon</title><desc>beverage_can icon from the IconExperience.com O-Collection. Copyright by INCORS GmbH (www.incors.com).</desc><path fill="#333" d="M5212 1619l1095-157c47-7 81-44 84-90 4-47-25-89-70-102-241-70-548-121-892-145-35-3-65 11-86 39l-224 298c-24 33-26 74-6 109 21 35 59 53 99 48z"/><path fill="gray" d="M7670 9016c-112 327-1211 584-2550 584s-2438-257-2550-584c-17-49-41-87-77-123l-66-66c-124-124-187-276-187-452V2505c0-176 63-328 187-452l39-39c63-63 94-138 94-227v-187c0-530 1146-960 2560-960s2560 430 2560 960v187c0 89 31 164 94 227l39 39c124 124 187 276 187 452v5870c0 176-63 328-187 452l-66 66c-36 36-60 74-77 123zM2880 2957v5047c1 175 144 318 320 318s320-144 320-320V2957c0-124-66-231-178-286-214-107-462 50-462 286zM5120 960c-1060 0-1920 287-1920 640s860 640 1920 640 1920-287 1920-640-860-640-1920-640z"/></svg>