<svg xmlns="http://www.w3.org/2000/svg" width="1024" height="1024" shape-rendering="geometricPrecision" text-rendering="geometricPrecision" image-rendering="optimizeQuality" clip-rule="evenodd" viewBox="0 0 10240 10240"><title>bible icon</title><desc>bible icon from the IconExperience.com O-Collection. Copyright by INCORS GmbH (www.incors.com).</desc><path fill="#EDC87E" d="M4800 3520v1280H3520v640h1280v3200h640V5440h1280v-640H5440V3520z"/><path fill="gray" d="M3200 9600h5440c177 0 320-143 320-320V3200c0-353-287-640-640-640-1921 2-3844 0-5760 0-353 0-640-287-640-640s287-640 640-640h5440c177 0 320 143 320 320v640c246 0 470 92 640 245V1280c0-362-287-645-640-640H2560c-707 0-1280 573-1280 1280v6400c0 707 573 1280 1280 1280h640zm1280-6400h1280v1280h1280v1280H5760v3200H4480V5760H3200V4480h1280V3200z"/></svg>