<svg xmlns="http://www.w3.org/2000/svg" width="1024" height="1024" shape-rendering="geometricPrecision" text-rendering="geometricPrecision" image-rendering="optimizeQuality" clip-rule="evenodd" viewBox="0 0 10240 10240"><title>billboard_empty icon</title><desc>billboard_empty icon from the IconExperience.com O-Collection. Copyright by INCORS GmbH (www.incors.com).</desc><path fill="gray" d="M3840 6720h2560v320c0 176-144 320-320 320h-640v2240h-640V7360h-640c-176 0-320-144-320-320v-320z"/><path fill="#4D82B8" d="M960 640h8320c176 0 320 144 320 320v5120c0 176-144 320-320 320H960c-176 0-320-144-320-320V960c0-176 144-320 320-320zm320 640v4480h7680V1280H1280z"/></svg>