<svg xmlns="http://www.w3.org/2000/svg" width="1024" height="1024" shape-rendering="geometricPrecision" text-rendering="geometricPrecision" image-rendering="optimizeQuality" clip-rule="evenodd" viewBox="0 0 10240 10240"><title>blood_bag icon</title><desc>blood_bag icon from the IconExperience.com O-Collection. Copyright by INCORS GmbH (www.incors.com).</desc><path fill="#E68497" d="M7040 3145v375h320c176 0 320 144 320 320v3520c0 529-431 960-960 960H3520c-529 0-960-431-960-960V3840c0-176 144-320 320-320h320v-375c100 36 208 55 320 55s220-19 320-55v375h960V640h640v2880h960v-375c100 36 208 55 320 55s220-19 320-55z"/><path fill="gray" d="M2880 1280h1280v960c0 352-288 640-640 640s-640-288-640-640v-960zm3200 0h1280v960c0 352-288 640-640 640s-640-288-640-640v-960z"/><path fill="gray" d="M7680 1952c729 149 1280 796 1280 1568v3840c0 1234-1006 2240-2240 2240H3520c-1234 0-2240-1006-2240-2240V3520c0-772 551-1419 1280-1568v288c0 125 24 244 68 354-407 111-708 485-708 926v3840c0 880 720 1600 1600 1600h3200c880 0 1600-720 1600-1600V3520c0-441-301-815-708-926 44-110 68-229 68-354v-288z"/></svg>