<svg xmlns="http://www.w3.org/2000/svg" width="1024" height="1024" shape-rendering="geometricPrecision" text-rendering="geometricPrecision" image-rendering="optimizeQuality" clip-rule="evenodd" viewBox="0 0 10240 10240"><title>books icon</title><desc>books icon from the IconExperience.com O-Collection. Copyright by INCORS GmbH (www.incors.com).</desc><path fill="gray" d="M7680 7680c353 0 640-287 640-640V3200c0-353-287-640-640-640h-561c150 169 241 393 241 640v4480h320zM3926 2240c-55-94-86-203-86-320 0-353 287-640 640-640h2880c177 0 320 143 320 320v640c237 0 463 87 640 245V1280c0-362-287-645-640-640H4480c-707 0-1280 573-1280 1280v320h726z"/><path fill="#4D82B8" d="M6400 9600c353 0 640-287 640-640V5120c0-353-287-640-640-640H3200c-354 0-640-287-640-640s286-640 640-640h2880c177 0 320 143 320 320v640c237 0 463 86 640 245V3200c0-362-287-645-640-640H3200c-707 0-1280 573-1280 1280v4480c0 707 573 1280 1280 1280h3200z"/></svg>