<svg xmlns="http://www.w3.org/2000/svg" width="1024" height="1024" shape-rendering="geometricPrecision" text-rendering="geometricPrecision" image-rendering="optimizeQuality" clip-rule="evenodd" viewBox="0 0 10240 10240"><title>book_headphones icon</title><desc>book_headphones icon from the IconExperience.com O-Collection. Copyright by INCORS GmbH (www.incors.com).</desc><path fill="#76A797" d="M8960 7360h-320c-9 0-18 0-27 1-151-908-941-1601-1893-1601s-1742 693-1893 1601c-9-1-18-1-27-1h-320c-353 0-640 287-640 640v960c0 353 288 640 640 640h320c176 0 320-144 320-320V7680c0-884 716-1600 1600-1600s1600 716 1600 1600v1600c0 176 144 320 320 320h320c353 0 640-287 640-640v-960c0-353-287-640-640-640z"/><path fill="gray" d="M7680 8960c116 0 226-31 320-86V7680c0-707-573-1280-1280-1280s-1280 573-1280 1280v1280h2240zm640-2848V3200c0-353-287-640-640-640-1921 2-3204 0-5120 0-353 0-640-287-640-640s287-640 640-640h4800c177 0 320 143 320 320v640c237 0 463 86 640 245V1280c0-362-287-645-640-640H2560c-707 0-1280 573-1280 1280v5760c0 707 573 1280 1280 1280h960v-960c0-529 431-960 960-960h93c278-938 1147-1600 2147-1600 621 0 1190 255 1600 672z"/></svg>