<svg xmlns="http://www.w3.org/2000/svg" width="1024" height="1024" shape-rendering="geometricPrecision" text-rendering="geometricPrecision" image-rendering="optimizeQuality" clip-rule="evenodd" viewBox="0 0 10240 10240"><title>book_open icon</title><desc>book_open icon from the IconExperience.com O-Collection. Copyright by INCORS GmbH (www.incors.com).</desc><path fill="#76A797" d="M4160 8000c-640-320-2880 320-3520 320-183 0-334-137-334-320V2176l320-320h324c522-1 1302-112 1793-275 398-133 814-301 1239-301 446 0 814 185 1138 455 324-270 692-455 1138-455 425 0 841 168 1239 301 491 163 1264 271 1786 271h324l320 320v5828c0 180-147 324-327 320-640 0-2880-640-3520-320 0 176-144 320-320 320H4480c-176 0-320-144-320-320zm5120-640l7-5173h-4c-607 0-1414-113-1989-305-309-103-709-268-1036-268-284 0-516 130-728 307l-90 75v5168l83-69c213-178 444-307 728-307 327 0 727 165 1037 268 574 191 1381 304 1988 304h4zM4800 1996l-90-75c-212-177-444-307-728-307-327 0-727 165-1036 268-575 192-1389 308-1996 308h-4l-6 5174h4c607 0 1420-116 1995-308 309-103 709-268 1037-268 283 0 515 129 728 307l96 80V1996z"/></svg>