<svg xmlns="http://www.w3.org/2000/svg" width="1024" height="1024" shape-rendering="geometricPrecision" text-rendering="geometricPrecision" image-rendering="optimizeQuality" clip-rule="evenodd" viewBox="0 0 10240 10240"><title>bottle_bubbles icon</title><desc>bottle_bubbles icon from the IconExperience.com O-Collection. Copyright by INCORS GmbH (www.incors.com).</desc><path fill="#4D82B8" d="M6080 2880c0 640 960 960 960 2240v4480c0 176-144 320-320 320H3520c-176 0-320-144-320-320V5120c0-1280 960-1600 960-2240V960c0-88-160-72-160-160V480c0-88 72-160 160-160h1920c88 0 160 72 160 160v320c0 88-160 72-160 160v1920zM4800 5760c-353 0-640 287-640 640s287 640 640 640 640-287 640-640-287-640-640-640zm320 2880c-177 0-320 143-320 320s143 320 320 320 320-143 320-320-143-320-320-320zm480-1280c-265 0-480 215-480 480s215 480 480 480 480-215 480-480-215-480-480-480zm-320-3840c-442 0-800 358-800 800s358 800 800 800 800-358 800-800-358-800-800-800z"/></svg>