<svg xmlns="http://www.w3.org/2000/svg" width="1024" height="1024" shape-rendering="geometricPrecision" text-rendering="geometricPrecision" image-rendering="optimizeQuality" clip-rule="evenodd" viewBox="0 0 10240 10240"><title>bottle_of_pills icon</title><desc>bottle_of_pills icon from the IconExperience.com O-Collection. Copyright by INCORS GmbH (www.incors.com).</desc><path fill="#4D82B8" d="M423 8751c-237-474-48-1049 425-1288l1717-863c463-232 1028-55 1274 402 59 94 99 249 111 358h-430c-353 0-673 144-905 375-306 307-435 743-349 1163l-555 279c-473 238-1050 48-1288-426z"/><path fill="#E68497" d="M3520 7680h1920c529 0 960 431 960 960s-431 960-960 960H3520c-529 0-960-431-960-960s431-960 960-960z"/><path fill="gray" d="M4480 4480h3840v2560H4480z"/><path fill="gray" d="M4480 2272v-32h640c0 458-320 881-768 973-296 60-512 324-512 627v2657c-182-160-405-264-640-302V3840c0-617 441-1135 1024-1254 151-31 256-160 256-314zm2200 6688l1640-1c358 0 640-292 640-640V3839c-1-302-217-566-512-626-475-97-768-497-768-973h640v32c0 154 105 283 256 314 583 119 1024 637 1024 1254v4480c0 412-196 780-500 1014h-1c-216 167-486 266-779 266H6286c189-167 329-389 394-640zM3840 6497V5333v1164zM4160 640h4480c176 0 320 144 320 320v640c0 176-144 320-320 320H4160c-176 0-320-144-320-320V960c0-176 144-320 320-320z"/></svg>