<svg xmlns="http://www.w3.org/2000/svg" width="1024" height="1024" shape-rendering="geometricPrecision" text-rendering="geometricPrecision" image-rendering="optimizeQuality" clip-rule="evenodd" viewBox="0 0 10240 10240"><title>box_tall icon</title><desc>box_tall icon from the IconExperience.com O-Collection. Copyright by INCORS GmbH (www.incors.com).</desc><path fill="#4D82B8" d="M3840 3200h3200l1280-1280H3200l640 1280zm-1280 640v5120h3840V3840H2560zm5760-1920h894c142 0 214 172 113 273l-913 913c-29 29-60 51-94 66v4883c0 176-63 328-187 452l-906 906c-124 124-276 187-452 187H2240c-176 0-320-144-320-320V3200h-894c-142 0-214-172-113-273l913-913c63-63 138-94 227-94h1147l552-1103c55-111 162-177 286-177h4663c57 0 106 27 136 76 30 48 33 104 7 156l-524 1048z"/></svg>