<svg xmlns="http://www.w3.org/2000/svg" width="1024" height="1024" shape-rendering="geometricPrecision" text-rendering="geometricPrecision" image-rendering="optimizeQuality" clip-rule="evenodd" viewBox="0 0 10240 10240"><title>box_into icon</title><desc>box_into icon from the IconExperience.com O-Collection. Copyright by INCORS GmbH (www.incors.com).</desc><path fill="gray" d="M8881 3663l855 1710c78 158 15 349-143 428l-633 311v1568c0 248-132 461-354 572L5406 9852c-186 93-386 93-572 0L1634 8252c-222-111-354-324-354-572V5196l-571 285c-96 48-208 28-282-50s-87-190-34-284l695-1215c131-229 303-392 539-510l1385-693c41 68 91 131 149 190l1506 1506c125 125 289 187 453 187v547l2792-1372-1134-567 301-301c58-59 108-122 149-190l1378 690c91 45 228 151 275 244zm-429 569L5548 5660l570 1140 2904-1428-570-1140zm-6532 40v3408l2880 1440V5712L1920 4272zm3520 4848l2880-1440V6427L6115 7512c-157 77-347 12-425-144l-250-500v2252z"/><path fill="#4D82B8" d="M6853 2693L5346 4199c-124 124-328 124-452 0L3387 2693c-124-125-187-277-187-453V1081c0-66 38-122 99-147 61-26 127-13 174 34l1007 1007V480c0-88 72-160 160-160h960c88 0 160 72 160 160v1495L6767 968c47-47 113-60 174-34 61 25 99 81 99 147v1159c0 176-63 328-187 453z"/></svg>