<svg xmlns="http://www.w3.org/2000/svg" width="1024" height="1024" shape-rendering="geometricPrecision" text-rendering="geometricPrecision" image-rendering="optimizeQuality" clip-rule="evenodd" viewBox="0 0 10240 10240"><title>box_closed icon</title><desc>box_closed icon from the IconExperience.com O-Collection. Copyright by INCORS GmbH (www.incors.com).</desc><path fill="#EDC87E" d="M1634 3023l3200-1600c186-93 386-93 572 0l671 335-715 358-242-120-2768 1384 244 122-2 1c-208 104-340 304-353 534l-321-161v3408l2880 1440V5316l-640-320v-280l431-217 529 265 2768-1384-531-266 715-358 534 267c222 111 354 324 354 573v3688c0 249-132 462-354 573L5406 9457c-186 93-386 93-572 0L1634 7857c-222-111-354-324-354-573V3596c0-249 132-462 354-573zm3806 5701l2880-1440V3876L5440 5316v3408z"/><path fill="gray" d="M2737 3789l3663-1831 1280 640-3663 1831c-111 56-177 162-177 287v1082l-1280-640V4076c0-125 66-231 177-287z"/></svg>