<svg xmlns="http://www.w3.org/2000/svg" width="1024" height="1024" shape-rendering="geometricPrecision" text-rendering="geometricPrecision" image-rendering="optimizeQuality" clip-rule="evenodd" viewBox="0 0 10240 10240"><title>box_surprise icon</title><desc>box_surprise icon from the IconExperience.com O-Collection. Copyright by INCORS GmbH (www.incors.com).</desc><path fill="#4D82B8" d="M3200 6652l640 304v640l-640-304v-640zm-960-1895v-160c0-529 431-756 960-505l640 304c529 250 960 886 960 1415 0 475-354 714-824 559-81-27-136 12-136 94v332l-640-304v-331c0-399 292-596 686-466 158 52 274-29 274-188 0-176-144-388-320-471l-640-304c-176-83-320-7-320 168v160l-640-303z"/><path fill="gray" d="M1634 1979L3874 859c186-93 386-93 572 0l3520 1760c222 111 354 324 354 572v4649c0 248-132 461-354 572L5726 9532c-186 93-386 93-572 0L1634 7772c-222-111-354-324-354-572V2551c0-248 132-461 354-572zm1285 72l-567 284 3088 1544 567-283-3088-1545zm713-356l3088 1544 528-264c-1029-515-2059-1029-3088-1544l-528 264zm3408 2097v604l-640 320v-604l-640 320v4368c161-80 1920-960 1920-960V3472l-640 320zM5120 8800V4432L1920 2832v4368l3200 1600z"/></svg>