<svg xmlns="http://www.w3.org/2000/svg" width="1024" height="1024" shape-rendering="geometricPrecision" text-rendering="geometricPrecision" image-rendering="optimizeQuality" clip-rule="evenodd" viewBox="0 0 10240 10240"><title>breakfast_egg icon</title><desc>breakfast_egg icon from the IconExperience.com O-Collection. Copyright by INCORS GmbH (www.incors.com).</desc><path fill="gray" d="M7680 640c707 0 1280 860 1280 1920 0 751-287 1400-705 1716-166 125-255 304-255 511v822c0 104 21 193 68 286l184 370c47 93 68 182 68 286v2729c0 176-144 320-320 320h-640c-176 0-320-144-320-320V6551c0-104 21-193 68-286l184-370c47-93 68-182 68-286v-822c0-207-89-386-254-511-419-316-706-965-706-1716 0-1060 573-1920 1280-1920zM1920 9600c-177 0-320-143-320-320s143-320 320-320h1280V7334c-991-159-1775-1046-1917-2169-22-175 90-365 280-365h3914c190 0 302 190 280 365-142 1123-926 2010-1917 2169v1626h1280c177 0 320 143 320 320s-143 320-320 320H1920z"/><path fill="#EDC87E" d="M3520 640c1237 0 2240 1433 2240 3200 0 219-15 433-45 640h-645c33-205 50-419 50-640 0-1414-716-2560-1600-2560S1920 2426 1920 3840c0 221 18 435 50 640h-645c-30-207-45-421-45-640 0-1767 1003-3200 2240-3200z"/></svg>