<svg xmlns="http://www.w3.org/2000/svg" width="1024" height="1024" shape-rendering="geometricPrecision" text-rendering="geometricPrecision" image-rendering="optimizeQuality" clip-rule="evenodd" viewBox="0 0 10240 10240"><title>brick_trowel icon</title><desc>brick_trowel icon from the IconExperience.com O-Collection. Copyright by INCORS GmbH (www.incors.com).</desc><path fill="#4D82B8" d="M9088 7387c161 71 235 259 165 420-44 100-132 166-231 186L1023 9594c-174 34-342-78-377-251-20-103 11-204 75-276l2864-3818c90-121 250-159 382-101l1275 557-603 433-696-305-2226 2969 6185-1237-1900-831 511-366c31-22 60-45 88-68l2487 1087z"/><path fill="gray" d="M4421 7455c-144 101-342 67-444-76-101-144-67-343 77-444l1900-1347c234-168 286-489 119-723-170-236-494-284-729-116-509 363-1276 261-1627-274-317-453-268-1070 114-1467l-121-168c-102-144-69-344 74-447L6008 798c184-132 404-177 612-142 208 34 403 147 535 331s177 404 143 612-148 403-332 536L4742 3730c-143 103-343 70-446-74l-77-108c-104 175-95 400 25 565 170 237 494 284 730 116 521-371 1245-257 1619 264 372 518 252 1243-266 1615L4421 7455z"/></svg>