<svg xmlns="http://www.w3.org/2000/svg" width="1024" height="1024" shape-rendering="geometricPrecision" text-rendering="geometricPrecision" image-rendering="optimizeQuality" clip-rule="evenodd" viewBox="0 0 10240 10240"><title>brickwall icon</title><desc>brickwall icon from the IconExperience.com O-Collection. Copyright by INCORS GmbH (www.incors.com).</desc><path fill="#E68497" d="M960 1920h3840c176 0 320 144 320 320v1280c0 176-144 320-320 320H960c-176 0-320-144-320-320V2240c0-176 144-320 320-320zM640 4480h1600c176 0 320 144 320 320v1280c0 176-144 320-320 320H640V4480zm2880 0h3840c176 0 320 144 320 320v1280c0 176-144 320-320 320H3520c-176 0-320-144-320-320V4800c0-176 144-320 320-320zm1920 2560h3840c176 0 320 144 320 320v1280c0 176-144 320-320 320H5440c-176 0-320-144-320-320V7360c0-176 144-320 320-320zm-4800 0h3520c176 0 320 144 320 320v1280c0 176-144 320-320 320H640V7040zm8000-2560h960v1920h-960c-176 0-320-144-320-320V4800c0-176 144-320 320-320zM6080 1920h3520v1920H6080c-176 0-320-144-320-320V2240c0-176 144-320 320-320z"/></svg>