<svg xmlns="http://www.w3.org/2000/svg" width="1024" height="1024" shape-rendering="geometricPrecision" text-rendering="geometricPrecision" image-rendering="optimizeQuality" clip-rule="evenodd" viewBox="0 0 10240 10240"><title>bucket icon</title><desc>bucket icon from the IconExperience.com O-Collection. Copyright by INCORS GmbH (www.incors.com).</desc><path fill="#333" d="M7680 8960v320c0 176-144 320-320 320H2880c-176 0-320-144-320-320v-320h5120z"/><path fill="gray" d="M5120 2560c353 0 640 287 640 640 0 57-8 113-22 166l3128 3128c125 125 125 327 0 452s-327 125-452 0L5286 3818c-53 14-109 22-166 22-353 0-640-287-640-640s287-640 640-640z"/><path fill="gray" d="M7680 8960v320c0 176-144 320-320 320H2880c-176 0-320-144-320-320v-320h5120zm-5120-320L1286 2280c-19-92 6-178 70-250s150-110 250-110h7028c100 0 186 38 250 110s89 158 70 250l-642 3207-2234-2234c31-550-406-1013-958-1013-530 0-960 430-960 960 0 552 463 989 1013 958l2837 2837-330 1645H2560z"/></svg>