<svg xmlns="http://www.w3.org/2000/svg" width="1024" height="1024" shape-rendering="geometricPrecision" text-rendering="geometricPrecision" image-rendering="optimizeQuality" clip-rule="evenodd" viewBox="0 0 10240 10240"><title>bullets icon</title><desc>bullets icon from the IconExperience.com O-Collection. Copyright by INCORS GmbH (www.incors.com).</desc><path fill="#EDC87E" d="M6388 3520h1612v482c0 110 12 204 38 311l206 821c53 214 76 401 76 621v2885c0 176-144 320-320 320H6720V6395c0-241-28-465-86-698l-205-822c-20-79-29-151-29-233v-482c0-214 4-426-12-640z"/><path fill="gray" d="M7164 700c337 424 836 1333 836 2500H6352c-40-270-105-541-193-803 155-778 502-1376 757-1697 32-39 74-60 124-60s92 21 124 60z"/><path fill="#EDC87E" d="M4160 4642v-482h1920v482c0 110 12 204 38 311l206 821c53 214 76 401 76 621v2885c0 176-144 320-320 320H4160c-176 0-320-144-320-320V6395c0-220 23-407 76-621l206-821c26-107 38-201 38-311zm320 0c0 134-15 259-48 388l-205 822c-46 183-67 354-67 543v2725c0 88 72 160 160 160s160-72 160-160V6395c0-160 19-310 57-466l206-821c38-154 57-307 57-466 0-89-70-162-160-162s-160 73-160 162z"/><path fill="gray" d="M5244 1340c337 424 836 1333 836 2500H4160c0-1167 499-2076 836-2500 32-39 74-60 124-60s92 21 124 60z"/><path fill="#EDC87E" d="M2240 4002v-482h1612c-16 214-12 426-12 640v482c0 82-9 154-29 233l-205 822c-58 233-86 457-86 698v2565H2240c-176 0-320-144-320-320V5755c0-220 23-407 76-621l206-821c26-107 38-201 38-311zm320 0c0 134-15 259-48 388l-205 822c-46 183-67 354-67 543v2725c0 88 72 160 160 160s160-72 160-160V5755c0-160 19-310 57-466l206-821c38-154 57-307 57-466 0-89-70-162-160-162s-160 73-160 162z"/><path fill="gray" d="M3324 700c255 321 602 919 757 1697-88 262-153 533-193 803H2240c0-1167 499-2076 836-2500 32-39 74-60 124-60s92 21 124 60z"/></svg>