<svg xmlns="http://www.w3.org/2000/svg" width="1024" height="1024" shape-rendering="geometricPrecision" text-rendering="geometricPrecision" image-rendering="optimizeQuality" clip-rule="evenodd" viewBox="0 0 10240 10240"><title>buoy icon</title><desc>buoy icon from the IconExperience.com O-Collection. Copyright by INCORS GmbH (www.incors.com).</desc><path fill="#4D82B8" d="M1760 7333c218 394 638 660 1120 660 479 0 897-264 1117-654 218 394 638 661 1120 661 484 0 906-269 1123-666 219 393 638 659 1120 659s902-266 1120-660c218 394 638 660 1120 660v640c-410 0-799-130-1120-360-321 230-710 360-1120 360-408 0-797-129-1117-358-321 233-714 365-1126 365-411 0-802-131-1123-363-320 228-707 356-1114 356-410 0-799-130-1120-360-321 230-710 360-1120 360v-640c482 0 902-266 1120-660z"/><path fill="#E68497" d="M2880 5760h315l645-2560V1478c0-124 66-231 177-286l960-480c93-47 193-47 286 0l960 480c111 55 177 162 177 286v1722l645 2560h315c176 0 320 144 320 320v695c0 176-63 328-187 452l-406 406c-238-70-443-232-567-455-58-104-161-165-281-164-119 0-222 61-279 166-169 308-491 500-843 500-351 0-671-190-841-496-57-104-159-164-278-165-120 0-222 60-280 163-125 222-328 381-565 451l-406-406c-124-124-187-276-187-452v-695c0-176 144-320 320-320zm3520 0v-20l-640-2540H4480l-640 2540v20h2560z"/></svg>