<svg xmlns="http://www.w3.org/2000/svg" width="1024" height="1024" shape-rendering="geometricPrecision" text-rendering="geometricPrecision" image-rendering="optimizeQuality" clip-rule="evenodd" viewBox="0 0 10240 10240"><title>bus icon</title><desc>bus icon from the IconExperience.com O-Collection. Copyright by INCORS GmbH (www.incors.com).</desc><path fill="gray" d="M7360 8640v640c0 176 144 320 320 320h960c176 0 320-144 320-320v-726c-94 55-203 86-320 86H7360zm-4480 0v640c0 176-144 320-320 320h-960c-176 0-320-144-320-320v-726c94 55 204 86 320 86h1280zM2880 1280h4480v640H2880z"/><path fill="#4D82B8" d="M1920 640h6400c353 0 640 287 640 640v6720c0 176-144 320-320 320H7305c-88 0-164 31-226 94l-133 132c-62 63-138 94-226 94H3520c-88 0-164-31-226-94l-133-132c-62-63-138-94-226-94H1600c-176 0-320-144-320-320V1280c0-353 287-640 640-640zm-320 2560v1280c0 705 575 1280 1280 1280h4480c705 0 1280-575 1280-1280V3200c0-353-287-640-640-640H2240c-353 0-640 287-640 640zm2301 3840c-66 0-123 38-148 99s-12 127 35 174l273 273c62 63 138 94 226 94h1655c88 0 164-31 226-94l273-273c47-47 60-113 35-174s-82-99-148-99H3901zm-1981 2c-176 0-320 144-320 320s144 320 320 320h1214c66 0 122-38 148-99 25-61 12-127-35-174l-273-273c-63-63-138-94-227-94h-827zm5573 0c-89 0-164 31-227 94l-273 273c-47 47-60 113-35 174 26 61 82 99 148 99h1214c176 0 320-144 320-320s-144-320-320-320h-827zM2880 960c-176 0-320 144-320 320v640c0 176 144 320 320 320h4480c176 0 320-144 320-320v-640c0-176-144-320-320-320H2880z"/></svg>