<svg xmlns="http://www.w3.org/2000/svg" width="1024" height="1024" shape-rendering="geometricPrecision" text-rendering="geometricPrecision" image-rendering="optimizeQuality" clip-rule="evenodd" viewBox="0 0 10240 10240"><title>c_clamp icon</title><desc>c_clamp icon from the IconExperience.com O-Collection. Copyright by INCORS GmbH (www.incors.com).</desc><path fill="gray" d="M7040 5120v320H5760v-320h-320v-320h1920v320h-320zm0 2240v1280h726c110-191 317-320 554-320 353 0 640 287 640 640s-287 640-640 640c-237 0-444-129-554-320h-726c0 176-144 320-320 320h-640c-176 0-320-144-320-320h-726c-110 191-317 320-554 320-353 0-640-287-640-640s287-640 640-640c237 0 444 129 554 320h726V7360h1280z"/><path fill="#4D82B8" d="M2560 640h4480c555 0 1030 357 1206 853 36 101 22 204-40 291-61 88-154 136-261 136H3840c-352 0-640 288-640 640v2560c0 352 288 640 640 640h4105c107 0 200 48 261 136 62 87 76 190 40 291-176 496-651 853-1206 853H2560c-705 0-1280-575-1280-1280V1920c0-705 575-1280 1280-1280z"/></svg>