<svg xmlns="http://www.w3.org/2000/svg" width="1024" height="1024" shape-rendering="geometricPrecision" text-rendering="geometricPrecision" image-rendering="optimizeQuality" clip-rule="evenodd" viewBox="0 0 10240 10240"><title>cactus icon</title><desc>cactus icon from the IconExperience.com O-Collection. Copyright by INCORS GmbH (www.incors.com).</desc><path fill="gray" d="M2560 8960h5120v640H2560z"/><path fill="#76A797" d="M3200 6400c-707 0-1280-573-1280-1280V3200c0-353 287-640 640-640s640 287 640 640v1600c0 176 144 320 320 320h320V1920c0-707 573-1280 1280-1280s1280 573 1280 1280v3840h320c176 0 320-144 320-320V3840c0-353 287-640 640-640s640 287 640 640v1920c0 707-573 1280-1280 1280h-320c-176 0-320 144-320 320v1280H3840V6720c0-176-144-320-320-320h-320z"/></svg>