<svg xmlns="http://www.w3.org/2000/svg" width="1024" height="1024" shape-rendering="geometricPrecision" text-rendering="geometricPrecision" image-rendering="optimizeQuality" clip-rule="evenodd" viewBox="0 0 10240 10240"><title>cake_slice icon</title><desc>cake_slice icon from the IconExperience.com O-Collection. Copyright by INCORS GmbH (www.incors.com).</desc><path fill="#EDC87E" d="M8960 4429c0-525-474-1013-1287-1419-65 646-610 1150-1273 1150-582 0-1073-388-1228-919L1726 4338c-270 86-446 327-446 610v3372c0 353 287 640 640 640h6400c353 0 640-287 640-640V4429zm-640 691v640H1920v-640h6400zM1920 7680h6400v640H1920v-640z"/><path fill="#E68497" d="M6400 1920c530 0 960 430 960 960s-430 960-960 960-960-430-960-960 430-960 960-960zm-332 337c-172 0-311 139-311 311 0 173 139 312 311 312 173 0 312-139 312-312 0-172-139-311-312-311z"/></svg>