<svg xmlns="http://www.w3.org/2000/svg" width="1024" height="1024" shape-rendering="geometricPrecision" text-rendering="geometricPrecision" image-rendering="optimizeQuality" clip-rule="evenodd" viewBox="0 0 10240 10240"><title>calendar_1 icon</title><desc>calendar_1 icon from the IconExperience.com O-Collection. Copyright by INCORS GmbH (www.incors.com).</desc><path fill="gray" d="M4320 5120h1120v2560h640v640H4160v-640h640V5760h-640v-480c0-88 72-160 160-160z"/><path fill="gray" d="M8960 4800v4160c0 352-287 640-640 640H1920c-352 0-640-287-640-640V4800h640v4160h6400V4800h640z"/><path fill="#4D82B8" d="M8960 2240v2240H1280V2240c0-353 287-640 640-640v640c0 353 287 640 640 640h320c353 0 640-287 640-640 0 353 287 640 640 640h320c353 0 640-287 640-640 0 353 287 640 640 640h320c353 0 640-287 640-640 0 353 287 640 640 640h320c353 0 640-287 640-640v-640c353 0 640 287 640 640z"/><path fill="gray" d="M7360 640h320c176 0 320 144 320 320v1280c0 176-144 320-320 320h-320c-176 0-320-144-320-320V960c0-176 144-320 320-320zm-4800 0h320c176 0 320 144 320 320v1280c0 176-144 320-320 320h-320c-176 0-320-144-320-320V960c0-176 144-320 320-320zm1600 0h320c176 0 320 144 320 320v1280c0 176-144 320-320 320h-320c-176 0-320-144-320-320V960c0-176 144-320 320-320zm1600 0h320c176 0 320 144 320 320v1280c0 176-144 320-320 320h-320c-176 0-320-144-320-320V960c0-176 144-320 320-320z"/></svg>