<svg xmlns="http://www.w3.org/2000/svg" width="1024" height="1024" shape-rendering="geometricPrecision" text-rendering="geometricPrecision" image-rendering="optimizeQuality" clip-rule="evenodd" viewBox="0 0 10240 10240"><title>calibration_mark icon</title><desc>calibration_mark icon from the IconExperience.com O-Collection. Copyright by INCORS GmbH (www.incors.com).</desc><path fill="gray" d="M5440 1293c1865 154 3353 1642 3507 3507h653v640h-653c-154 1865-1642 3353-3507 3507v653h-640v-653c-1865-154-3353-1642-3507-3507H640v-640h653c154-1865 1642-3353 3507-3507V640h640v653zm2220 3507h644c-150-1512-1352-2714-2864-2864v644c1158 144 2076 1062 2220 2220zM5440 7660V5440h2220c13-105 20-212 20-320s-7-215-20-320H5440V2580c-105-13-212-20-320-20s-215 7-320 20v2220H2580c-13 105-20 212-20 320s7 215 20 320h2220v2220c105 13 212 20 320 20s215-7 320-20zm-640 0c-1158-144-2076-1062-2220-2220h-644c150 1512 1352 2714 2864 2864v-644zm640 0v644c1512-150 2714-1352 2864-2864h-644c-144 1158-1062 2076-2220 2220zM2580 4800c144-1158 1062-2076 2220-2220v-644c-1512 150-2714 1352-2864 2864h644z"/></svg>