<svg xmlns="http://www.w3.org/2000/svg" width="1024" height="1024" shape-rendering="geometricPrecision" text-rendering="geometricPrecision" image-rendering="optimizeQuality" clip-rule="evenodd" viewBox="0 0 10240 10240"><title>camera icon</title><desc>camera icon from the IconExperience.com O-Collection. Copyright by INCORS GmbH (www.incors.com).</desc><path fill="#4D82B8" d="M5120 3840c1060 0 1920 860 1920 1920s-860 1920-1920 1920-1920-860-1920-1920 860-1920 1920-1920zm0 320c-884 0-1600 716-1600 1600 0 37 1 74 4 110 7 102 56 187 141 244s182 70 279 38c140-47 228-178 218-326-1-21-2-44-2-66 0-530 430-960 960-960 22 0 45 1 66 2 148 10 279-78 326-218 32-97 19-194-38-279s-142-134-244-141c-36-3-73-4-110-4z"/><path fill="#333" d="M8957 2570H7683v-10c2-176 144-320 320-320h634c176 0 318 144 320 320v10z"/><path fill="gray" d="M9600 3200v5184c0 317-288 576-640 576H1280c-352 0-640-259-640-576V3200c0-353 287-640 640-640h1280c353 0 640-287 640-640v-8c0-353 287-640 640-640h2560c353 0 640 287 640 640v8c0 353 287 640 640 640h1280c353 0 640 287 640 640zM3840 1912v640h2560v-640H3840zm4480 1288c-353 0-640 287-640 640s287 640 640 640 640-287 640-640-287-640-640-640zm-3200 0c-1414 0-2560 1146-2560 2560s1146 2560 2560 2560 2560-1146 2560-2560-1146-2560-2560-2560z"/></svg>