<svg xmlns="http://www.w3.org/2000/svg" width="1024" height="1024" shape-rendering="geometricPrecision" text-rendering="geometricPrecision" image-rendering="optimizeQuality" clip-rule="evenodd" viewBox="0 0 10240 10240"><title>can_closed icon</title><desc>can_closed icon from the IconExperience.com O-Collection. Copyright by INCORS GmbH (www.incors.com).</desc><path fill="gray" d="M8000 7991c205 148 320 314 320 489 0 619-1433 1120-3200 1120s-3200-501-3200-1120c0-175 115-341 320-489v9c0 530 1289 960 2880 960s2880-430 2880-960v-9zM3200 3520c-176 0-320 144-320 320v3520c0 176 144 320 320 320s320-144 320-320V3840c0-176-144-320-320-320zm4800 4160c0 530-1289 960-2880 960s-2880-430-2880-960V2666c637 330 1690 545 2882 545 1189 0 2241-215 2878-543v5012z"/><path fill="gray" d="M5122 651c1767 0 3200 501 3200 1120S6889 2891 5122 2891c-1768 0-3200-501-3200-1120S3354 651 5122 651zm0 640c1060 0 1920 215 1920 480s-860 480-1920 480c-1061 0-1920-215-1920-480s859-480 1920-480zm0-320c-1414 0-2560 358-2560 800s1146 800 2560 800 2560-358 2560-800-1146-800-2560-800z"/></svg>