<svg xmlns="http://www.w3.org/2000/svg" width="1024" height="1024" shape-rendering="geometricPrecision" text-rendering="geometricPrecision" image-rendering="optimizeQuality" clip-rule="evenodd" viewBox="0 0 10240 10240"><title>car_compact2 icon</title><desc>car_compact2 icon from the IconExperience.com O-Collection. Copyright by INCORS GmbH (www.incors.com).</desc><path fill="gray" d="M7360 6720c-530 0-960 430-960 960s430 960 960 960 960-430 960-960-430-960-960-960zm-4800 0c530 0 960 430 960 960s-430 960-960 960-960-430-960-960 430-960 960-960zm0 640c-177 0-320 143-320 320s143 320 320 320 320-143 320-320-143-320-320-320zm4800 0c177 0 320 143 320 320s-143 320-320 320-320-143-320-320 143-320 320-320z"/><path fill="#4D82B8" d="M5995 4440c456 327 725 680 1045 1000 910 80 1892 420 2070 740 205 369 124 1283 50 1500l-550 276c20-89 30-181 30-276 0-707-573-1280-1280-1280s-1280 573-1280 1280c0 100 11 196 33 289H3807c22-93 33-189 33-289 0-707-573-1280-1280-1280s-1280 573-1280 1280c0 114 15 224 43 329-14-2-28-5-43-9l-490-350c-281-260-124-2021-14-2206 120-203 435-615 705-863 39-36 56-86 51-135-9-87 54-166 141-176 446-51 1308-99 2167-110 901-12 1826 44 2155 280zM2560 5760h1120c122 0 165-97 158-206-22-316-102-681-231-971-27-60-85-96-151-94-262 7-575 17-838 31-285 10-1018 1240-58 1240zm2079 0h1441c282 0 426-338 231-542-179-185-289-365-503-518-208-149-849-200-1365-215-115-3-187 107-154 217 83 281 164 599 190 901 7 87 73 157 160 157z"/></svg>