<svg xmlns="http://www.w3.org/2000/svg" width="1024" height="1024" shape-rendering="geometricPrecision" text-rendering="geometricPrecision" image-rendering="optimizeQuality" clip-rule="evenodd" viewBox="0 0 10240 10240"><title>car_sports icon</title><desc>car_sports icon from the IconExperience.com O-Collection. Copyright by INCORS GmbH (www.incors.com).</desc><path fill="gray" d="M2560 9021v259c0 176-144 320-320 320H960c-176 0-320-144-320-320V8054c183 341 550 906 960 906h914c16 18 33 43 46 61zm5120 0v259c0 176 144 320 320 320h1280c176 0 320-144 320-320V8054c-183 341-550 906-960 906h-914c-16 18-33 43-46 61z"/><path fill="#4D82B8" d="M1600 5760c320-640 640-1280 1280-1600 960-320 1920-320 2240-320s1280 0 2240 320c640 320 960 960 1280 1600 704 268 960 377 960 1280 0 534-640 1600-960 1600h-960c-298 0-320 640-960 640H3520c-640 0-662-640-960-640h-960c-320 0-960-1066-960-1600 0-902 257-1012 960-1280zm2198 1920c-121 0-225 62-282 169s-52 228 16 328l213 321c61 91 156 142 266 142h2218c110 0 205-51 266-143l213-320c68-100 73-221 16-328s-161-169-282-169H3798zm-1238-368c-312-311-1600-960-1600-320 0 177 86 435 205 566 258 284 2035 394 1395-246zm5120 0c-640 640 1137 530 1395 246 119-131 205-389 205-566 0-640-1288 9-1600 320zm320-1872c-212-377-422-721-813-919-667-212-1368-280-2067-280s-1400 68-2067 280c-391 198-601 542-813 919-29 52-26 112 10 161 36 48 93 71 154 61 1205-204 4227-204 5432 0 61 10 118-13 154-61 36-49 39-109 10-161z"/></svg>