<svg xmlns="http://www.w3.org/2000/svg" width="1024" height="1024" shape-rendering="geometricPrecision" text-rendering="geometricPrecision" image-rendering="optimizeQuality" clip-rule="evenodd" viewBox="0 0 10240 10240"><title>cash_flow icon</title><desc>cash_flow icon from the IconExperience.com O-Collection. Copyright by INCORS GmbH (www.incors.com).</desc><path fill="#4D82B8" d="M5760 1600h3520c176 0 320 144 320 320v1920c0 176-144 320-320 320V2880c0-349-293-633-640-640-49-96-64-205-64-320H6464c0 115-28 224-77 320h-947v-320c0-176 144-320 320-320z"/><path fill="#4D82B8" d="M4160 2560h4480c176 0 320 144 320 320v2560c0 176-144 320-320 320l-3-1984c-1-324-306-576-637-576h-197c-38-99-59-207-59-320H5056c0 113-21 221-59 320H3840v-320c0-176 144-320 320-320z"/><path fill="#4D82B8" d="M2560 3520h5440c176 0 320 144 320 320v3200c0 176-144 320-320 320V4800c0-353-287-640-640-640h-400c-31-101-48-209-48-320H3648c0 111-17 219-48 320H2240v-320c0-176 144-320 320-320z"/><path fill="#4D82B8" d="M960 4480h6400c176 0 320 144 320 320v3840c0 176-144 320-320 320H960c-176 0-320-144-320-320V4800c0-176 144-320 320-320zm3200 960c381 0 690 300 690 669s-309 669-690 669-690-300-690-669 309-669 690-669zm-955 1708c94-105 204-194 328-264 172 134 390 214 627 214s455-80 627-214c124 70 234 159 328 264-139 496-514 852-955 852s-816-355-955-852zm2875-2348H2240c0 707-573 1280-1280 1280v1280c707 0 1280 573 1280 1280h3840c0-707 573-1280 1280-1280V6080c-707 0-1280-573-1280-1280zm-1920 320c-736 0-1333 716-1333 1600s597 1600 1333 1600 1333-716 1333-1600-597-1600-1333-1600z"/></svg>