<svg xmlns="http://www.w3.org/2000/svg" width="1024" height="1024" shape-rendering="geometricPrecision" text-rendering="geometricPrecision" image-rendering="optimizeQuality" clip-rule="evenodd" viewBox="0 0 10240 10240"><title>cashier icon</title><desc>cashier icon from the IconExperience.com O-Collection. Copyright by INCORS GmbH (www.incors.com).</desc><path fill="gray" d="M9280 7680c176 0 320 144 320 320v1280c0 176-144 320-320 320H1600c-176 0-320-144-320-320V8000c0-176 144-320 320-320h7680zM8670 4649l390 877c36 81 0 176-81 211l-292 131c-81 35-176-1-211-82l-391-877c-36-80 1-175 81-211l293-130c80-36 175 1 211 81zM7335 3152l714 642c65 59 70 161 11 226l-214 238c-59 65-160 71-226 12l-713-643c-66-59-71-160-12-226l214-237c59-66 161-71 226-12zM5507 2327l913 296c84 27 130 118 103 202l-99 304c-28 84-118 130-202 103l-913-297c-84-27-130-118-103-201l99-305c27-84 118-130 202-102z"/><path fill="gray" d="M1600 1280h2880v640h-640v1280h640c2121 0 3840 1719 3840 3840v320H1600c-176 0-320-144-320-320V1600c0-176 144-320 320-320z"/></svg>