<svg xmlns="http://www.w3.org/2000/svg" width="1024" height="1024" shape-rendering="geometricPrecision" text-rendering="geometricPrecision" image-rendering="optimizeQuality" clip-rule="evenodd" viewBox="0 0 10240 10240"><title>cash_register icon</title><desc>cash_register icon from the IconExperience.com O-Collection. Copyright by INCORS GmbH (www.incors.com).</desc><path fill="gray" d="M960 8000h8320c176 0 320 144 320 320v960c0 176-144 320-320 320H960c-176 0-320-144-320-320v-960c0-176 144-320 320-320zm4167 368c-242 0-439 197-439 439s197 439 439 439 439-197 439-439-197-439-439-439zM2240 2880h2240v3200H2240V2880zm320 320v2560h1600V3200H2560z"/><path fill="#76A797" d="M5760 1920h2560v640H5760z"/><path fill="gray" d="M5760 1280h2560c353 0 640 287 640 640v640c0 353-287 640-640 640h-640v640h960c353 0 640 288 640 640v3200H960V4480c0-353 287-640 640-640h640v1600c-176 0-320 144-320 320v320c0 176 144 320 320 320h2240c176 0 320-144 320-320v-320c0-176-144-320-320-320V3840h1920v-640h-640c-353 0-640-287-640-640v-640c0-353 287-640 640-640zm320 4480c-177 0-320 143-320 320s143 320 320 320 320-143 320-320-143-320-320-320zm1907 937c-177 0-320 143-320 320s143 320 320 320 320-143 320-320-143-320-320-320zm-960 10c-177 0-320 143-320 320s143 320 320 320 320-143 320-320-143-320-320-320zm-940 10c-177 0-320 143-320 320s143 320 320 320 320-143 320-320-143-320-320-320zm1920-950c-177 0-320 143-320 320s143 320 320 320 320-143 320-320-143-320-320-320zm-967-7c-177 0-320 143-320 320s143 320 320 320 320-143 320-320-143-320-320-320zm-960-960c-176 0-320 144-320 320s144 320 320 320h1920c176 0 320-144 320-320s-144-320-320-320H6080zm-320-3200c-176 0-320 144-320 320v640c0 176 144 320 320 320h2560c176 0 320-144 320-320v-640c0-176-144-320-320-320H5760z"/></svg>