<svg xmlns="http://www.w3.org/2000/svg" width="1024" height="1024" shape-rendering="geometricPrecision" text-rendering="geometricPrecision" image-rendering="optimizeQuality" clip-rule="evenodd" viewBox="0 0 10240 10240"><title>castle icon</title><desc>castle icon from the IconExperience.com O-Collection. Copyright by INCORS GmbH (www.incors.com).</desc><path fill="#EDC87E" d="M4160 8960h1920V7680c0-530-430-960-960-960s-960 430-960 960v1280z"/><path fill="gray" d="M3520 4480h320v-640h640v640h320v-640h640v640h320v-640h640v640h320v640c0 707 573 1280 1280 1280 110 0 218-14 320-40v2600H1920V6360c102 26 210 40 320 40 707 0 1280-573 1280-1280v-640zm2880 3200c0-707-573-1280-1280-1280s-1280 573-1280 1280v1280h2560V7680z"/><path fill="gray" d="M8960 5120c0 530-430 960-960 960s-960-430-960-960V3520h1920v1600z"/><path fill="#E68497" d="M8294 1006l666 1554c177 0 320 143 320 320s-143 320-320 320H7040c-177 0-320-143-320-320s143-320 320-320l666-1554c51-120 163-194 294-194s243 74 294 194z"/><path fill="gray" d="M3200 5120c0 530-430 960-960 960s-960-430-960-960V3520h1920v1600z"/><path fill="#E68497" d="M2534 1006l666 1554c177 0 320 143 320 320s-143 320-320 320H1280c-177 0-320-143-320-320s143-320 320-320l666-1554c51-120 163-194 294-194s243 74 294 194z"/></svg>