<svg xmlns="http://www.w3.org/2000/svg" width="1024" height="1024" shape-rendering="geometricPrecision" text-rendering="geometricPrecision" image-rendering="optimizeQuality" clip-rule="evenodd" viewBox="0 0 10240 10240"><title>cd icon</title><desc>cd icon from the IconExperience.com O-Collection. Copyright by INCORS GmbH (www.incors.com).</desc><path fill="#4D82B8" d="M5120 3840c707 0 1280 573 1280 1280s-573 1280-1280 1280-1280-573-1280-1280 573-1280 1280-1280zm0 640c-353 0-640 287-640 640s287 640 640 640 640-287 640-640-287-640-640-640z"/><path fill="#4D82B8" d="M5120 1600c677 0 1309 191 1845 522L5959 3757c-244-150-531-237-839-237-884 0-1600 716-1600 1600 0 224 46 437 129 630l-1765 757c-183-426-284-895-284-1387 0-1944 1576-3520 3520-3520zm1471 2890l1765-757c183 426 284 895 284 1387 0 1944-1576 3520-3520 3520-677 0-1308-191-1845-522l1006-1635c244 150 531 237 839 237 884 0 1600-716 1600-1600 0-224-46-437-129-630z"/><path fill="#4D82B8" d="M5120 640c2474 0 4480 2006 4480 4480S7594 9600 5120 9600 640 7594 640 5120 2646 640 5120 640zm0 640c-2121 0-3840 1719-3840 3840s1719 3840 3840 3840 3840-1719 3840-3840-1719-3840-3840-3840z"/></svg>