<svg xmlns="http://www.w3.org/2000/svg" width="1024" height="1024" shape-rendering="geometricPrecision" text-rendering="geometricPrecision" image-rendering="optimizeQuality" clip-rule="evenodd" viewBox="0 0 10240 10240"><title>cd_music icon</title><desc>cd_music icon from the IconExperience.com O-Collection. Copyright by INCORS GmbH (www.incors.com).</desc><path fill="#4D82B8" d="M8960 4418l-3200 702v3440c0 530-537 1113-1200 1301s-1200-89-1200-619 537-1113 1200-1301c202-57 393-72 560-48V4419c0-153 104-281 253-313l3840-823c200-43 387 108 387 313v4324c0 530-537 1113-1200 1301s-1200-89-1200-619 537-1113 1200-1301c202-57 393-72 560-48V4418z"/><path fill="gray" d="M4480 3413c328 0 622 149 818 382-188 43-340 164-425 325-324-354-926-130-926 360 0 295 238 533 533 533 120 0 231-39 320-106v591c-101 32-209 49-320 49-589 0-1067-478-1067-1067s478-1067 1067-1067z"/><path fill="gray" d="M4480 1600c554 0 1071 156 1510 427l-791 1285c-209-129-455-203-719-203-757 0-1371 614-1371 1371 0 192 39 375 110 540l-1387 595c-149-349-232-732-232-1135 0-1591 1289-2880 2880-2880zm2648 1745c7 18 14 35 22 53l-289 62 267-115zm162 1767c-164 732-606 1359-1210 1763V5377l1210-265zM4800 7342c-105 12-212 18-320 18-554 0-1071-156-1510-427l791-1285c209 129 455 203 719 203 110 0 217-13 320-37v1528z"/><path fill="gray" d="M4480 640c1670 0 3090 1066 3619 2554l-632 136c-462-1199-1625-2050-2987-2050-1767 0-3200 1433-3200 3200 0 1720 1357 3123 3059 3197-292 106-584 288-817 522C1865 7774 640 6270 640 4480c0-2121 1719-3840 3840-3840zm3818 4251c-146 1372-1014 2528-2218 3081v-720c803-465 1385-1268 1552-2215l666-146z"/></svg>