<svg xmlns="http://www.w3.org/2000/svg" width="1024" height="1024" shape-rendering="geometricPrecision" text-rendering="geometricPrecision" image-rendering="optimizeQuality" clip-rule="evenodd" viewBox="0 0 10240 10240"><title>central_bank icon</title><desc>central_bank icon from the IconExperience.com O-Collection. Copyright by INCORS GmbH (www.incors.com).</desc><path fill="gray" d="M640 8960h8960v640H640zM8320 3840c353 0 640 288 640 640v4480H5760V6400H4480v2560H1280V4480c0-353 287-640 640-640h1280c0-353 287-640 640-640 0-353 287-640 640-640h1280c353 0 640 288 640 640 353 0 640 288 640 640h1280zm-2560 640H4480v1280h1280V4480zm-3840 0v1280h640V4480h-640zm0 1920v1920h640V6400h-640zm1280 0v1920h640V6400h-640zm4480-1920v1280h640V4480h-640zm0 1920v1920h640V6400h-640zm-1280 0v1920h640V6400h-640zm0-1920v1280h640V4480h-640zm-3200 0v1280h640V4480h-640z"/></svg>