<svg xmlns="http://www.w3.org/2000/svg" width="1024" height="1024" shape-rendering="geometricPrecision" text-rendering="geometricPrecision" image-rendering="optimizeQuality" clip-rule="evenodd" viewBox="0 0 10240 10240"><title>central_bank_yen icon</title><desc>central_bank_yen icon from the IconExperience.com O-Collection. Copyright by INCORS GmbH (www.incors.com).</desc><path fill="gray" d="M640 8960h8960v640H640zM8320 4480c353 0 640 288 640 640v3840H5760V7040H4480v1920H1280V5120c0-353 287-640 640-640h1280c0-353 287-640 640-640h640c0 176 144 320 320 320h640c176 0 320-144 320-320h640c353 0 640 288 640 640h1280zm-2560 640H4480v1280h1280V5120zm-3840 0v1280h640V5120h-640zm0 1920v1280h640V7040h-640zm1280 0v1280h640V7040h-640zm4480-1920v1280h640V5120h-640zm0 1920v1280h640V7040h-640zm-1280 0v1280h640V7040h-640zm0-1920v1280h640V5120h-640zm-3200 0v1280h640V5120h-640z"/><path fill="#EDC87E" d="M4160 3200h640v-320h-640v-320h640v-188L3614 1186l452-452 1054 1053L6174 734l452 452-1186 1186v188h640v320h-640v320h640v320h-640v320h-640v-320h-640z"/></svg>