<svg xmlns="http://www.w3.org/2000/svg" width="1024" height="1024" shape-rendering="geometricPrecision" text-rendering="geometricPrecision" image-rendering="optimizeQuality" clip-rule="evenodd" viewBox="0 0 10240 10240"><title>champagne_glass icon</title><desc>champagne_glass icon from the IconExperience.com O-Collection. Copyright by INCORS GmbH (www.incors.com).</desc><path fill="gray" d="M4160 8960c353 0 640-287 640-640V6678c105 27 211 42 320 42s215-15 320-42v1642c0 353 287 640 640 640h320c177 0 320 143 320 320v320H3520v-320c0-177 143-320 320-320h320z"/><path fill="#EDC87E" d="M6080 2560c0 1591-430 2880-960 2880s-960-1289-960-2880h1920z"/><path fill="gray" d="M7040 2560c0 2121-860 3840-1920 3840S3200 4681 3200 2560V960c0-176 143-320 319-320h3198c179 0 323 141 323 320v1600zm-658 533c19-181 28-360 28-533l-6-1290H3836l-6 1290c-1 184 9 375 30 566 107 1497 630 2634 1260 2634 634 0 1161-1154 1262-2667z"/></svg>