<svg xmlns="http://www.w3.org/2000/svg" width="1024" height="1024" shape-rendering="geometricPrecision" text-rendering="geometricPrecision" image-rendering="optimizeQuality" clip-rule="evenodd" viewBox="0 0 10240 10240"><title>chart_hi_lo icon</title><desc>chart_hi_lo icon from the IconExperience.com O-Collection. Copyright by INCORS GmbH (www.incors.com).</desc><path fill="#EDC87E" d="M1600 3520h960v1600h-960V3520zm6400-2240h960v2560h-960V1280zM6720 2560h960v1280h-960V2560zm-1280 640h960v1920h-960V3200zM4160 1920h960v3200h-960V1920zm-1280 640h960v1920h-960V2560z"/><path fill="#4D82B8" d="M1600 6400h960v1920h-960V6400zm6400 0h960v640h-960v-640zm-1280-640h960v1920h-960V5760zm-1280 640h960v1920h-960V6400zm-1280 640h960v1280h-960V7040zM2880 5760h960v1920h-960V5760z"/><path fill="gray" d="M640 1280h640v7680h8320v640H640v-640z"/></svg>