<svg xmlns="http://www.w3.org/2000/svg" width="1024" height="1024" shape-rendering="geometricPrecision" text-rendering="geometricPrecision" image-rendering="optimizeQuality" clip-rule="evenodd" viewBox="0 0 10240 10240"><title>chart_column_stacked icon</title><desc>chart_column_stacked icon from the IconExperience.com O-Collection. Copyright by INCORS GmbH (www.incors.com).</desc><path fill="#EDC87E" d="M8000 1280h1280v3200H8000V1280zm-6400 0h1280v1920H1600V1280zm1600 0h1280v4160H3200V1280zm1600 0h1280v5440H4800V1280zm1600 0h1280v2240H6400V1280z"/><path fill="#4D82B8" d="M8000 4800h1280v3840H8000V4800zm-1600-960h1280v4800H6400V3840zM3200 5760h1280v2880H3200V5760zm1600 1280h1280v1600H4800V7040zM1600 3520h1280v5120H1600V3520z"/><path fill="gray" d="M640 1280h640v7680h8320v640H640z"/></svg>