<svg xmlns="http://www.w3.org/2000/svg" width="1024" height="1024" shape-rendering="geometricPrecision" text-rendering="geometricPrecision" image-rendering="optimizeQuality" clip-rule="evenodd" viewBox="0 0 10240 10240"><title>chart_radar icon</title><desc>chart_radar icon from the IconExperience.com O-Collection. Copyright by INCORS GmbH (www.incors.com).</desc><path fill="#4D82B8" d="M4073 4227l-241 961-278 1673 1566 783 1600-800V5217l-491-737H5083l-41-10-969-243zm-863 815l320-1280 78-310 310 78 1239 310h1414l95 143 640 960 54 80v2213l-177 89-1920 960-143 71-143-71-1920-960-211-106 39-231 320-1921 5-25z"/><path fill="#EDC87E" d="M6819 3446l-1729-865-1951 558-534 1866 252 201-119 720-697-557-166-134 57-202 641-2241 48-171 172-49 2240-640 117-33 113 56 1920 960 78 39 45 69 1280 1920 119 177-119 177-906 1360V5503l255-383-1116-1674zM4017 6026l1025-256 114-28 107 53 1137 569v282l-430 215-886-443-1133 284-43-22 109-654z"/><path fill="gray" d="M5120 640l3168 1312 1312 3168-1312 3168-3168 1312-3168-1312L640 5120l1312-3168L5120 640zm0 693L2442 2442 1333 5120l1109 2678 2678 1109 2678-1109 1109-2678-1109-2678-2678-1109z"/></svg>