<svg xmlns="http://www.w3.org/2000/svg" width="1024" height="1024" shape-rendering="geometricPrecision" text-rendering="geometricPrecision" image-rendering="optimizeQuality" clip-rule="evenodd" viewBox="0 0 10240 10240"><title>checkbox_selected icon</title><desc>checkbox_selected icon from the IconExperience.com O-Collection. Copyright by INCORS GmbH (www.incors.com).</desc><path fill="#4D82B8" d="M4480 3840h5120v1920H4480z"/><path fill="gray" d="M1280 3200h1335l-560 640h-322l-279-278c-173-173-421-226-640-159 116-125 282-203 466-203zm2560 1025v1535c0 353-287 640-640 640H1280c-353 0-640-287-640-640v-750l640 640v110h110c309 295 796 295 1104 0h706v-804l640-731z"/><path fill="#4D82B8" d="M1228 3788l692 692 1692-1933c116-133 318-146 451-30l238 208c133 116 147 319 31 452L2328 5466c-14 19-29 37-46 54-188 188-492 188-679 0L549 4467c-124-125-124-328 0-453l226-226c125-125 328-125 453 0z"/></svg>