<svg xmlns="http://www.w3.org/2000/svg" width="1024" height="1024" shape-rendering="geometricPrecision" text-rendering="geometricPrecision" image-rendering="optimizeQuality" clip-rule="evenodd" viewBox="0 0 10240 10240"><title>checks icon</title><desc>checks icon from the IconExperience.com O-Collection. Copyright by INCORS GmbH (www.incors.com).</desc><path fill="gray" d="M4160 7360l3294-3294c124-124 328-124 452 0l828 828c124 124 124 328 0 452L4386 9694c-124 124-328 124-452 0L1506 7266c-124-124-124-328 0-452l828-828c124-124 328-124 452 0l1374 1374z"/><path fill="#76A797" d="M4160 3840L7454 546c124-124 328-124 452 0l828 828c124 124 124 328 0 452L4386 6174c-124 124-328 124-452 0L1506 3746c-124-124-124-328 0-452l828-828c124-124 328-124 452 0l1374 1374z"/></svg>