<svg xmlns="http://www.w3.org/2000/svg" width="1024" height="1024" shape-rendering="geometricPrecision" text-rendering="geometricPrecision" image-rendering="optimizeQuality" clip-rule="evenodd" viewBox="0 0 10240 10240"><title>checkbox icon</title><desc>checkbox icon from the IconExperience.com O-Collection. Copyright by INCORS GmbH (www.incors.com).</desc><path fill="gray" d="M2369 3840h2938l-640 640H3013l-602-601c-13-14-28-27-42-39zm4671 1888v3232c0 353-287 640-640 640H1920c-353 0-640-287-640-640V6368l640 640v1952h4480V6368l640-640z"/><path fill="#76A797" d="M2185 4105l1655 1655 4215-4215c125-125 328-125 453 0l904 905c125 125 125 328 0 453L4293 8022c-250 250-656 250-906 0L828 5463c-125-125-125-328 0-453l904-905c125-125 328-125 453 0z"/></svg>