<svg xmlns="http://www.w3.org/2000/svg" width="1024" height="1024" shape-rendering="geometricPrecision" text-rendering="geometricPrecision" image-rendering="optimizeQuality" clip-rule="evenodd" viewBox="0 0 10240 10240"><title>chest_into icon</title><desc>chest_into icon from the IconExperience.com O-Collection. Copyright by INCORS GmbH (www.incors.com).</desc><path fill="#B89A7C" d="M8960 4978v2626c0 249-132 462-354 573L5919 9520l10-3015 3031-1527zM5601 9520L1634 7537c-222-111-354-324-354-573V5088c62 12 124 21 188 27-38 105-39 224 3 335 71 188 248 310 449 310h736c91 0 177-19 257-54 30 60 79 110 144 142l640 320c213 107 463-47 463-286v-104l1441 720v3022z"/><path fill="gray" d="M3533 3433l2588 1297c15 9 43 14 56 15l2206 165-2623 1312-1600-800v-104c0-124-66-231-177-286l-145-73 167-142c304-256 303-713 4-973l-476-411z"/><path fill="#B89A7C" d="M1774 2200l95-212c442-987 1420-1739 2185-1681 127 10 240 42 338 91l3996 1998c-921 115-1792 956-2175 1764l-99 210-4340-2170zm7486 888c138 345 93 830-140 1351l-92 206-2595-202 69-147c350-739 1273-1653 2154-1590 266 20 485 139 604 382z"/><path fill="#4D82B8" d="M2656 3200h-736c-148 0-217 186-106 280l426 360h-640c-176 0-320-144-320-320V2240H320v1280c0 705 575 1280 1280 1280h640l-426 360c-111 94-42 280 106 280h736c81 0 150-28 212-80l930-787c154-129 153-355 1-487l-931-806c-62-53-131-80-212-80z"/></svg>