<svg xmlns="http://www.w3.org/2000/svg" width="1024" height="1024" shape-rendering="geometricPrecision" text-rendering="geometricPrecision" image-rendering="optimizeQuality" clip-rule="evenodd" viewBox="0 0 10240 10240"><title>chess_piece_rook icon</title><desc>chess_piece_rook icon from the IconExperience.com O-Collection. Copyright by INCORS GmbH (www.incors.com).</desc><path fill="gray" d="M3520 2240h320v640h640v-640h1280v640h640v-640h320c176 0 320 144 320 320v1280c0 352-287 640-640 640H3840c-353 0-640-287-640-640V2560c0-176 144-320 320-320zM2880 8320h4480c176 0 320 144 320 320v640c0 176-144 320-320 320H2880c-176 0-320-144-320-320v-640c0-176 144-320 320-320zM3840 4800h2560c0 1225 0 2156 561 2795 53 61 79 130 79 211v194H3200v-194c0-81 26-150 80-211 560-639 560-1570 560-2795z"/></svg>