<svg xmlns="http://www.w3.org/2000/svg" width="1024" height="1024" shape-rendering="geometricPrecision" text-rendering="geometricPrecision" image-rendering="optimizeQuality" clip-rule="evenodd" viewBox="0 0 10240 10240"><title>chest_out icon</title><desc>chest_out icon from the IconExperience.com O-Collection. Copyright by INCORS GmbH (www.incors.com).</desc><path fill="#B89A7C" d="M8960 4978v2626c0 249-132 462-354 573L5919 9520l10-3015 3031-1527zM5601 9520L1634 7537c-222-111-354-324-354-573V4478c292 390 758 642 1280 642h284l36 18v424c0 124 66 231 177 286l640 320c213 107 463-47 463-286v-104l1441 720v3022z"/><path fill="gray" d="M3196 3264l511 256h-629c64-71 105-159 118-256zm948 475l1977 991c15 9 43 14 56 15l2206 165-2623 1312-1600-800v-104c0-107-48-200-132-259 80-59 132-153 132-259v-960c0-35-6-69-16-101z"/><path fill="#B89A7C" d="M2343 1235c493-588 1158-970 1711-928 127 10 240 42 338 91l3996 1998c-921 115-1792 956-2175 1764l-99 210-2914-1457v-449c0-158-55-302-158-421l-699-808zm6917 1853c138 345 93 830-140 1351l-92 206-2595-202 69-147c350-739 1273-1653 2154-1590 266 20 485 139 604 382z"/><path fill="#4D82B8" d="M2880 2464v736c0 68-40 126-103 150-64 24-133 8-177-44l-360-426v640c0 176 144 320 320 320h1280v960H2560c-705 0-1280-575-1280-1280v-640l-360 426c-44 51-113 68-177 44-63-24-103-82-103-150v-736c0-81 28-150 80-212l787-930c129-154 355-153 487-1l806 931c53 62 80 131 80 212z"/></svg>