<svg xmlns="http://www.w3.org/2000/svg" width="1024" height="1024" shape-rendering="geometricPrecision" text-rendering="geometricPrecision" image-rendering="optimizeQuality" clip-rule="evenodd" viewBox="0 0 10240 10240"><title>chess_piece_pawn icon</title><desc>chess_piece_pawn icon from the IconExperience.com O-Collection. Copyright by INCORS GmbH (www.incors.com).</desc><path fill="gray" d="M2880 8320h4480c176 0 320 144 320 320v640c0 176-144 320-320 320H2880c-176 0-320-144-320-320v-640c0-176 144-320 320-320zM4160 5440h1920c0 112 4 218 13 320H4147c9-102 13-208 13-320zm1977 640c114 598 400 1033 824 1515 53 61 79 130 79 211v194H3200v-194c0-81 26-150 79-211 424-482 710-917 824-1515h2034z"/><path fill="gray" d="M5120 2560c884 0 1600 716 1600 1600 0 360-119 693-320 960h320v640H3520v-640h320c-201-267-320-600-320-960 0-884 716-1600 1600-1600z"/></svg>