<svg xmlns="http://www.w3.org/2000/svg" width="1024" height="1024" shape-rendering="geometricPrecision" text-rendering="geometricPrecision" image-rendering="optimizeQuality" clip-rule="evenodd" viewBox="0 0 10240 10240"><title>chocolate icon</title><desc>chocolate icon from the IconExperience.com O-Collection. Copyright by INCORS GmbH (www.incors.com).</desc><path fill="#76A797" d="M5760 1920h3520c176 0 320 144 320 320v5120c0 176-144 320-320 320H3840v-640h5120V2560H5760v-640zM3840 6400c0-1600 1920-960 1920-2560v-640h2560v3200H3840z"/><path fill="#B89A7C" d="M960 1920h1280v1600H640V2240c0-176 144-320 320-320zm1600 0h1600v1600H2560V1920zm1920 0h960v1600h-960V1920zm0 3004V3840h960c0 595-308 756-783 994-59 29-119 59-177 90zm-960 2756h-960V6080h985c-17 103-25 209-25 320v1280zm-960-1920V3840h1600v1275c-237 166-419 373-528 645H2560zm-320 1920H960c-176 0-320-144-320-320V6080h1600v1600zM640 5760V3840h1600v1920H640z"/></svg>