<svg xmlns="http://www.w3.org/2000/svg" width="1024" height="1024" shape-rendering="geometricPrecision" text-rendering="geometricPrecision" image-rendering="optimizeQuality" clip-rule="evenodd" viewBox="0 0 10240 10240"><title>circus icon</title><desc>circus icon from the IconExperience.com O-Collection. Copyright by INCORS GmbH (www.incors.com).</desc><path fill="gray" d="M8983 6503c64 1072 269 2176 617 3097H7040c-320-1-640-1600-640-1920-640 320-1920 320-2560 0 0 320-320 1919-640 1920H640c348-921 553-2025 617-3097 186 136 415 217 663 217 313 0 597-129 800-336 203 207 487 336 800 336s597-129 800-336c203 207 487 336 800 336s597-129 800-336c203 207 487 336 800 336s597-129 800-336c203 207 487 336 800 336 248 0 477-81 663-217z"/><path fill="#E68497" d="M7520 5600c0 442-358 800-800 800s-800-358-800-800c0 442-358 800-800 800s-800-358-800-800c0 442-358 800-800 800s-800-358-800-800c0 442-358 800-800 800s-800-358-800-800c1120-480 3040-1440 4000-3360 960 1920 2880 2880 4000 3360 0 442-358 800-800 800s-800-358-800-800z"/><path fill="gray" d="M5120 1127v793c361 70 539-317 808-317 270 0 293 178 473 178s457-243 617-337c270-158 559-26 662 0-53-84-269-317-674-317-269 0-337 161-606 161s-371-319-640-319c-306 0-371 158-640 158z"/></svg>