<svg xmlns="http://www.w3.org/2000/svg" width="1024" height="1024" shape-rendering="geometricPrecision" text-rendering="geometricPrecision" image-rendering="optimizeQuality" clip-rule="evenodd" viewBox="0 0 10240 10240"><title>client_network icon</title><desc>client_network icon from the IconExperience.com O-Collection. Copyright by INCORS GmbH (www.incors.com).</desc><path fill="#4D82B8" d="M5920 9280h160c176 0 320-144 320-320H5120c-352 0-640-287-640-640V5760c0-352 288-640 640-640h3840c353 0 640 288 640 640v2560c0 352-288 640-640 640H7680c0 176 144 320 320 320h160c88 0 160 72 160 160v160H5760v-160c0-88 72-160 160-160zm-800-3520v2560h3840V5760H5120zM2080 4800h160c176 0 320-144 320-320H1280c-352 0-640-287-640-640V1280c0-352 288-640 640-640h3840c353 0 640 288 640 640v2560c0 352-288 640-640 640H3840c0 176 144 320 320 320h160c88 0 160 72 160 160v160H1920v-160c0-88 72-160 160-160zm-800-3520v2560h3840V1280H1280z"/><path fill="gray" d="M2559 5440l1 2560c0 176 144 320 320 320h1280c0 246 93 470 245 640H2880c-529 0-960-431-960-960l1-2560h638z"/></svg>