<svg xmlns="http://www.w3.org/2000/svg" width="1024" height="1024" shape-rendering="geometricPrecision" text-rendering="geometricPrecision" image-rendering="optimizeQuality" clip-rule="evenodd" viewBox="0 0 10240 10240"><title>clipboard_paste_no_format icon</title><desc>clipboard_paste_no_format icon from the IconExperience.com O-Collection. Copyright by INCORS GmbH (www.incors.com).</desc><path fill="#EDC87E" d="M2560 1920v320c0 242 69 471 243 646 265 269 678 314 1037 314h2560c359 0 772-45 1037-314 174-175 243-404 243-646v-320c353 0 640 288 640 640v1600H4960c-264 0-480 216-480 480v4320H2560c-352 0-640-288-640-640V2560c0-353 288-640 640-640zm3840 1l-1 319-2559-1v-319l2560 1z"/><path fill="gray" d="M3840 1600c-175 0-320 145-320 320v320c0 175 145 320 320 320h2560c175 0 320-145 320-320v-320c0-176-145-320-320-320H3840zm2560-640c529 0 960 431 960 960v320c0 529-431 640-960 640H3840c-529 0-960-111-960-640v-320c0-529 431-960 960-960 0-177 573-640 1280-640s1280 463 1280 640zM5120 640c-177 0-320 143-320 320s143 320 320 320 320-143 320-320-143-320-320-320zM4960 4480h4160c88 0 160 72 160 160v5120c0 88-72 160-160 160H4960c-88 0-160-72-160-160V4640c0-88 72-160 160-160zm160 320v4800h3840V4800H5120z"/><path fill="gray" d="M6414 7679h1252c-40-444-164-874-347-1280h-558c-183 406-307 836-347 1280zm1266 640H6400v640h-640v-960c0-727 192-1416 515-2063 56-111 168-176 285-176h960c117 0 229 65 285 176 323 647 515 1336 515 2063v960h-640v-640z"/></svg>