<svg xmlns="http://www.w3.org/2000/svg" width="1024" height="1024" shape-rendering="geometricPrecision" text-rendering="geometricPrecision" image-rendering="optimizeQuality" clip-rule="evenodd" viewBox="0 0 10240 10240"><title>clock_forward icon</title><desc>clock_forward icon from the IconExperience.com O-Collection. Copyright by INCORS GmbH (www.incors.com).</desc><path fill="gray" d="M4800 4480c116 0 226 31 320 85l1159-670c136 164 245 351 320 554l-1159 671c0 353-287 640-640 640s-640-287-640-640c0-116 31-226 85-320l-994-1718c170-129 355-238 554-321l995 1719z"/><path fill="#4D82B8" d="M4800 2240c-795 0-1515 322-2037 843-521 522-843 1242-843 2037s322 1515 843 2037c522 521 1242 843 2037 843s1515-322 2037-843c27-28 54-56 80-85l724 724c63 63 132 115 206 157-35 37-70 73-105 109-753 752-1793 1218-2942 1218s-2189-466-2942-1218C1106 7309 640 6269 640 5120s466-2189 1218-2942c753-752 1793-1218 2942-1218s2189 466 2942 1218c752 753 1218 1793 1218 2942l687-687c47-47 113-60 174-35 61 26 99 82 99 148v1159c0 176-63 328-187 453L8546 7344c-124 124-328 124-452 0L6907 6158c-124-125-187-277-187-453V4546c0-66 38-122 99-147 61-26 127-13 174 34l687 687c0-795-322-1515-843-2037-522-521-1242-843-2037-843z"/></svg>