<svg xmlns="http://www.w3.org/2000/svg" width="1024" height="1024" shape-rendering="geometricPrecision" text-rendering="geometricPrecision" image-rendering="optimizeQuality" clip-rule="evenodd" viewBox="0 0 10240 10240"><title>close icon</title><desc>close icon from the IconExperience.com O-Collection. Copyright by INCORS GmbH (www.incors.com).</desc><path fill="#E68497" d="M1920 1280h6400c353 0 640 287 640 640v6400c0 353-287 640-640 640H1920c-353 0-640-287-640-640V1920c0-353 287-640 640-640zm485 5198c-125 124-125 328 0 452l905 905c124 125 328 125 452 0l1358-1357 1358 1357c124 125 328 125 452 0l905-905c125-124 125-328 0-452L6478 5120l1357-1358c125-124 125-328 0-452l-905-905c-124-125-328-125-452 0L5120 3762 3762 2405c-124-125-328-125-452 0l-905 905c-125 124-125 328 0 452l1357 1358-1357 1358z"/></svg>