<svg xmlns="http://www.w3.org/2000/svg" width="1024" height="1024" shape-rendering="geometricPrecision" text-rendering="geometricPrecision" image-rendering="optimizeQuality" clip-rule="evenodd" viewBox="0 0 10240 10240"><title>cloud icon</title><desc>cloud icon from the IconExperience.com O-Collection. Copyright by INCORS GmbH (www.incors.com).</desc><path fill="gray" d="M1920 4319c0-1325 1075-2399 2400-2399 777 0 1492 375 1937 982 100-15 201-22 303-22 1149 0 2080 931 2080 2080v32c572 292 960 888 960 1568 0 972-788 1760-1760 1760H2720c-1149 0-2080-931-2080-2080 0-861 525-1606 1280-1921zm5997 1124c54-151 83-314 83-483 0-795-645-1440-1440-1440-218 0-425 49-610 135-262-642-893-1095-1630-1095-972 0-1760 788-1760 1760 0 168 23 330 67 483-752 48-1347 673-1347 1437 0 795 645 1440 1440 1440h5120c619 0 1120-501 1120-1120 0-593-460-1078-1043-1117z"/></svg>