<svg xmlns="http://www.w3.org/2000/svg" width="1024" height="1024" shape-rendering="geometricPrecision" text-rendering="geometricPrecision" image-rendering="optimizeQuality" clip-rule="evenodd" viewBox="0 0 10240 10240"><title>cloud_hail icon</title><desc>cloud_hail icon from the IconExperience.com O-Collection. Copyright by INCORS GmbH (www.incors.com).</desc><path fill="#4D82B8" d="M7040 9600l1009-733-385-1187H6416l-385 1187 1009 733zm-3840 0l1009-733-385-1187H2576l-385 1187 1009 733zm1920-1920l1009-733-385-1187H4496l-385 1187 1009 733z"/><path fill="gray" d="M1920 3039c0-1325 1075-2399 2400-2399 777 0 1492 375 1937 982 100-15 201-22 303-22 1149 0 2080 931 2080 2080v160c572 292 960 760 960 1440 0 972-788 1760-1760 1760H6437c18-61 18-127-3-192l-146-448h1552c619 0 1120-501 1120-1120 0-593-460-1078-1043-1117 54-151 83-314 83-483 0-795-645-1440-1440-1440-218 0-425 49-610 135-262-642-893-1095-1630-1095-972 0-1760 788-1760 1760 0 168 23 330 67 483-752 48-1347 673-1347 1437 0 795 645 1440 1440 1440h1232l-146 448c-21 65-21 131-3 192H2720c-1149 0-2080-931-2080-2080 0-861 525-1606 1280-1921z"/></svg>