<svg xmlns="http://www.w3.org/2000/svg" width="1024" height="1024" shape-rendering="geometricPrecision" text-rendering="geometricPrecision" image-rendering="optimizeQuality" clip-rule="evenodd" viewBox="0 0 10240 10240"><title>coathanger icon</title><desc>coathanger icon from the IconExperience.com O-Collection. Copyright by INCORS GmbH (www.incors.com).</desc><path fill="gray" d="M5626 4393l3240 1489c434 205 734 646 734 1158 0 707-573 1280-1280 1280H1920c-707 0-1280-573-1280-1280 0-512 300-953 734-1158l3240-1489c116-54 186-163 186-291v-75c0-130-73-241-192-293-452-198-768-649-768-1174 0-707 573-1280 1280-1280 557 0 1031 356 1207 853 74 210-80 427-302 427-138 0-255-83-301-213-88-249-325-427-604-427-353 0-640 287-640 640s287 640 640 640c176 0 320 144 320 320v582c0 128 70 237 186 291zm-1039 720L1645 6462c-223 106-365 330-365 578 0 354 286 640 640 640h6400c354 0 640-286 640-640 0-248-142-472-365-578L5654 5113c-351-161-717-161-1067 0z"/></svg>