<svg xmlns="http://www.w3.org/2000/svg" width="1024" height="1024" shape-rendering="geometricPrecision" text-rendering="geometricPrecision" image-rendering="optimizeQuality" clip-rule="evenodd" viewBox="0 0 10240 10240"><title>cocktail icon</title><desc>cocktail icon from the IconExperience.com O-Collection. Copyright by INCORS GmbH (www.incors.com).</desc><path fill="#4D82B8" d="M2560 3520l1787 1842c249 249 657 249 906 0l1787-1842H2560z"/><path fill="#EDC87E" d="M7680 1280c1060 0 1920 860 1920 1920s-860 1920-1920 1920c-246 0-481-46-697-131l522-521c57 8 115 12 175 12 707 0 1280-573 1280-1280s-573-1280-1280-1280c-325 0-621 121-847 320h-816c332-574 952-960 1663-960z"/><path fill="gray" d="M1413 2560h6774c133 0 246 75 296 198 51 122 24 255-69 348L5307 6213c-109 138-187 276-187 452v1753c0 315 224 579 535 631l1385 231v320H2560v-320l1385-231c311-52 535-316 535-631V6665c0-176-63-328-187-452L1186 3106c-93-93-120-226-69-348 50-123 163-198 296-198zm0 320l2708 2709c374 373 984 373 1358 0l2708-2709H1413z"/></svg>