<svg xmlns="http://www.w3.org/2000/svg" width="1024" height="1024" shape-rendering="geometricPrecision" text-rendering="geometricPrecision" image-rendering="optimizeQuality" clip-rule="evenodd" viewBox="0 0 10240 10240"><title>code_csharp icon</title><desc>code_csharp icon from the IconExperience.com O-Collection. Copyright by INCORS GmbH (www.incors.com).</desc><path fill="#4D82B8" d="M6997 8320h327l72-320h-328l142-640h328l142-640h653l-142 640h449l142-640h653l-142 640h328l-142 640h-328l-71 320h328l-143 640h-327l-143 640h-653l142-640h-449l-142 640h-653l142-640h-328l143-640zM4480 6400h1280c353 0 640 288 640 640v160h-640c0-88-72-160-160-160h-960c-88 0-160 72-160 160v1600c0 88 72 160 160 160h960c88 0 160-72 160-160h640v160c0 352-288 640-640 640H4480c-352 0-640-287-640-640V7040c0-352 287-640 640-640zm3498 1920h449l71-320h-449l-71 320z"/><path fill="gray" d="M2560 7680h960v640h-960v-640zm0-5760h1920v640H2560v-640zm1280 960h2560v640H3840v-640zm1280 960h2560v640H5120v-640zm0 960h1920v640H5120v-640zm-1280 960h1920v320H4480c-246 0-470 93-640 245v-565zm2880 960h632l-71 320h-71c-152 0-279 102-312 251l-16 69h-162v-640z"/><path fill="gray" d="M8960 640H1280v8960h2485c-152-170-245-394-245-640H1920V1280h6400v5120h13c88 0 164 31 224 91 58-57 138-91 225-91h178V640z"/></svg>