<svg xmlns="http://www.w3.org/2000/svg" width="1024" height="1024" shape-rendering="geometricPrecision" text-rendering="geometricPrecision" image-rendering="optimizeQuality" clip-rule="evenodd" viewBox="0 0 10240 10240"><title>code_cplusplus icon</title><desc>code_cplusplus icon from the IconExperience.com O-Collection. Copyright by INCORS GmbH (www.incors.com).</desc><path fill="#4D82B8" d="M8000 7680h640v-640h640v640h640v640h-640v640h-640v-640h-640v-640zM3840 6400h1280c353 0 640 287 640 640v160h-640c0-88-72-160-160-160h-960c-88 0-160 72-160 160v1600c0 88 72 160 160 160h960c88 0 160-72 160-160h640v160c0 352-287 640-640 640H3840c-352 0-640-288-640-640V7040c0-353 288-640 640-640zm1920 1280h640v-640h640v640h640v640h-640v640h-640v-640h-640v-640z"/><path fill="gray" d="M2560 7680h320v640h-320v-640zm0-5760h1920v640H2560v-640zm1280 960h2560v640H3840v-640zm1280 960h2560v640H5120v-640zm0 960h1920v640H5120v-640zm-1280 960h1920v565c-170-152-394-245-640-245H3840v-320zm2185 960h375c-176 0-320 144-320 320 0-112-19-220-55-320zm695 0h960v640h-320v-320c0-176-144-320-320-320h-320z"/><path fill="gray" d="M8960 640H1280v8960h1845c-152-170-245-394-245-640h-960V1280h6400v5760c0-176 144-320 320-320h320V640zM5835 9600h3125v-320h-320c-176 0-320-144-320-320 0-404 0-404 0 0h-960c0 176-144 320-320 320h-640c-176 0-320-144-320-320 0 246-93 470-245 640z"/></svg>