<svg xmlns="http://www.w3.org/2000/svg" width="1024" height="1024" shape-rendering="geometricPrecision" text-rendering="geometricPrecision" image-rendering="optimizeQuality" clip-rule="evenodd" viewBox="0 0 10240 10240"><title>code_java icon</title><desc>code_java icon from the IconExperience.com O-Collection. Copyright by INCORS GmbH (www.incors.com).</desc><path fill="#4D82B8" d="M8640 8320c0 353-287 640-640 640s-640-287-640-640h-640c0 707 573 1280 1280 1280s1280-573 1280-1280V6400h-640v1920z"/><path fill="gray" d="M2560 7680h1920v640H2560v-640zm0-5760h1920v640H2560v-640zm1280 960h2560v640H3840v-640zm1280 960h2560v640H5120v-640zm0 960h1920v640H5120v-640zm-1280 960h1920v640H3840v-640zm0 960h2560v640H3840v-640zm2880 0h960v640h-960v-640z"/><path fill="gray" d="M8960 640H1280v8960h5760c-220-165-395-385-507-640H1920V1280h6400v5120c0-176 144-320 320-320h320V640z"/></svg>