<svg xmlns="http://www.w3.org/2000/svg" width="1024" height="1024" shape-rendering="geometricPrecision" text-rendering="geometricPrecision" image-rendering="optimizeQuality" clip-rule="evenodd" viewBox="0 0 10240 10240"><title>codes_of_law icon</title><desc>codes_of_law icon from the IconExperience.com O-Collection. Copyright by INCORS GmbH (www.incors.com).</desc><path fill="#4D82B8" d="M2560 640c-707 0-1280 573-1280 1280v6400c0 707 573 1280 1280 1280h6080c177 0 320-143 320-320V2560c0-353-287-640-640-640H2560c-176 0-320-144-320-320s144-320 320-320h5440c176 0 320 144 320 320 246 0 470 92 640 245v-565c0-362-287-645-640-640-1921-1-3844 0-5760 0zm1920 2240h1280c705 0 1280 575 1280 1280h-960c0-176-144-320-320-320H4480c-176 0-320 144-320 320s144 320 320 320h1280c705 0 1280 575 1280 1280 0 302-106 581-282 800 176 219 282 498 282 800 0 705-575 1280-1280 1280H4480c-705 0-1280-575-1280-1280h960c0 176 144 320 320 320h1280c176 0 320-144 320-320s-144-320-320-320H4480c-705 0-1280-575-1280-1280 0-302 106-581 282-800-176-219-282-498-282-800 0-705 575-1280 1280-1280zm0 2560h1280c176 0 320 144 320 320s-144 320-320 320H4480c-176 0-320-144-320-320s144-320 320-320z"/></svg>