<svg xmlns="http://www.w3.org/2000/svg" width="1024" height="1024" shape-rendering="geometricPrecision" text-rendering="geometricPrecision" image-rendering="optimizeQuality" clip-rule="evenodd" viewBox="0 0 10240 10240"><title>code_php icon</title><desc>code_php icon from the IconExperience.com O-Collection. Copyright by INCORS GmbH (www.incors.com).</desc><path fill="#4D82B8" d="M2240 6400h1280c530 0 960 430 960 960s-430 960-960 960h-640v1280h-640V6400zm4160 0h640v3200h-640V8320h-960v1280h-640V6400h640v1280h960V6400zM3520 7680c177 0 320-143 320-320s-143-320-320-320h-640v640h640zm4160-1280h1280c530 0 960 430 960 960s-430 960-960 960h-640v1280h-640V6400zm1280 1280c177 0 320-143 320-320s-143-320-320-320h-640v640h640z"/><path fill="gray" d="M2560 1920h1920v640H2560v-640zm1280 960h2560v640H3840v-640zm1280 960h2560v640H5120v-640zm0 960h1920v640H5120v-640zm-1280 960h1920v640c0-176-144-320-320-320h-640c-176 0-320 144-320 320h-113c-149-131-329-229-527-280v-360zm1920 960h320v640h-320v-640z"/><path fill="gray" d="M8960 640H1280v8960h640V1280h6400v4800h640V640zM3200 9600h1280v-640H3200v640zm2560 0h320v-640h-320v640zm2880 0h320v-960h-320v960z"/></svg>