<svg xmlns="http://www.w3.org/2000/svg" width="1024" height="1024" shape-rendering="geometricPrecision" text-rendering="geometricPrecision" image-rendering="optimizeQuality" clip-rule="evenodd" viewBox="0 0 10240 10240"><title>coffee_machine icon</title><desc>coffee_machine icon from the IconExperience.com O-Collection. Copyright by INCORS GmbH (www.incors.com).</desc><path fill="#EDC87E" d="M1760 5120c172 0 335 39 480 108v-108c0-176 144-320 320-320h3840c176 0 320 144 320 320v1088c0 678-339 1282-866 1668-115 84-237 124-379 124H3485c-142 0-264-40-379-124-141-103-269-222-380-354-165-197-415-273-662-204-97 27-199 42-304 42-619 0-1120-501-1120-1120s501-1120 1120-1120zm1431 1959c64 81 154 122 257 120s190-48 251-131c86-118 83-274-9-389-106-132-170-294-170-471v-448c0-176-144-320-320-320s-320 144-320 320v448c0 325 115 626 311 871zM1760 5760c-265 0-480 215-480 480s215 480 480 480 480-215 480-480-215-480-480-480z"/><path fill="gray" d="M3200 3520h2560c0 353-287 640-640 640-176 0-320 144-320 320h-640c0-176-144-320-320-320-353 0-640-287-640-640z"/><path fill="gray" d="M2560 8320h3840c353 0 640-287 640-640V3840c0-353-288-640-640-640H2560c-352 0-640-287-640-640V1280c0-353 287-640 640-640h5120c705 0 1280 575 1280 1280v7680H1920v-640c0-353 287-640 640-640z"/></svg>