<svg xmlns="http://www.w3.org/2000/svg" width="1024" height="1024" shape-rendering="geometricPrecision" text-rendering="geometricPrecision" image-rendering="optimizeQuality" clip-rule="evenodd" viewBox="0 0 10240 10240"><title>comb icon</title><desc>comb icon from the IconExperience.com O-Collection. Copyright by INCORS GmbH (www.incors.com).</desc><path fill="gray" d="M3941 9371c-250 250-1162-256-2037-1131-874-875-1584-1584-678-2489l4525-4525c905-906 1614-196 2489 678 875 875 1381 1787 1131 2037-124 124-328 124-452 0L7561 2583c-124-124-328-124-452 0-125 125-125 328 0 453l1357 1357c125 125 125 328 0 453-124 125-328 125-452 0L6656 3488c-125-124-328-124-452 0-125 125-125 328 0 453l1357 1357c125 125 125 328 0 453-124 125-328 125-452 0L5751 4393c-125-124-328-124-453 0-124 125-124 328 0 453l1358 1358c125 124 125 327 0 452s-328 125-452 0L4846 5298c-125-124-328-124-453 0-124 125-124 328 0 453l1358 1358c125 124 125 328 0 452-125 125-328 125-453 0L3941 6204c-125-125-328-125-453 0-124 124-124 327 0 452l1358 1358c125 124 125 328 0 452-302 302 302-301 0 0-125 125-328 125-453 0L3036 7109c-125-125-328-125-453 0-124 124-124 328 0 452l1358 1358c124 125 124 328 0 452z"/></svg>