<svg xmlns="http://www.w3.org/2000/svg" width="1024" height="1024" shape-rendering="geometricPrecision" text-rendering="geometricPrecision" image-rendering="optimizeQuality" clip-rule="evenodd" viewBox="0 0 10240 10240"><title>compact_camera icon</title><desc>compact_camera icon from the IconExperience.com O-Collection. Copyright by INCORS GmbH (www.incors.com).</desc><path fill="#4D82B8" d="M7020 3809c704 0 1274 570 1274 1273 0 704-570 1274-1274 1274-703 0-1274-570-1274-1274 0-703 571-1273 1274-1273zm141 727c29-113-3-224-86-306s-195-111-308-80c-325 88-583 341-676 665-32 113-4 226 78 310 83 87 192 116 308 89 113-29 197-109 230-222 31-109 118-195 227-224 116-32 198-116 227-232z"/><path fill="gray" d="M1280 1920h7680c353 0 640 287 640 640v5120c0 353-287 640-640 640H1280c-353 0-640-287-640-640V2560c0-353 287-640 640-640zm320 640c-176 0-320 144-320 320v640c0 176 144 320 320 320h1920c176 0 320-144 320-320v-640c0-176-144-320-320-320H1600zm7040 0c-177 0-320 143-320 320s143 320 320 320 320-143 320-320-143-320-320-320zm-1620 596c-1064 0-1926 863-1926 1926 0 1064 862 1927 1926 1927s1926-863 1926-1927c0-1063-862-1926-1926-1926z"/></svg>