<svg xmlns="http://www.w3.org/2000/svg" width="1024" height="1024" shape-rendering="geometricPrecision" text-rendering="geometricPrecision" image-rendering="optimizeQuality" clip-rule="evenodd" viewBox="0 0 10240 10240"><title>console icon</title><desc>console icon from the IconExperience.com O-Collection. Copyright by INCORS GmbH (www.incors.com).</desc><path fill="#4D82B8" d="M1280 1280h7680c353 0 640 288 640 640v6720c0 176-144 320-320 320H960c-176 0-320-144-320-320V1920c0-353 288-640 640-640zm0 1920v5120h7680V3200H1280z"/><path fill="gray" d="M4480 5760h1920v640H4480zM2560 3520h640v320h640v640H2720c-88 0-160 72-160 160s72 160 160 160h320c442 0 800 358 800 800 0 387-275 710-640 784v336h-640v-320h-640v-640h1120c88 0 160-72 160-160s-72-160-160-160h-320c-442 0-800-358-800-800 0-387 275-710 640-784v-336z"/></svg>