<svg xmlns="http://www.w3.org/2000/svg" width="1024" height="1024" shape-rendering="geometricPrecision" text-rendering="geometricPrecision" image-rendering="optimizeQuality" clip-rule="evenodd" viewBox="0 0 10240 10240"><title>contract icon</title><desc>contract icon from the IconExperience.com O-Collection. Copyright by INCORS GmbH (www.incors.com).</desc><path fill="#4D82B8" d="M1986 8314c-30 52-88 84-152 79-88-8-153-85-146-173l105-1199c8-88 85-153 173-146 77 7 137 67 145 141l73 477 30-148c18-86 102-142 188-124 68 14 116 68 126 133l1-1 62 408c45-33 103-38 153-18l58-479c11-88 91-150 178-140 76 9 133 70 140 143l66 542c9 1 17 3 25 5l318 85c-19 106-7 216 35 317-27 8-56 8-85 1l-235-64-37 61c-24 45-68 77-122 84-47 6-91-9-124-38-4 4-9 7-13 11-73 50-173 32-223-40l-74-107-73 60c-22 19-49 32-79 36-49 8-95-8-130-38l-49 243c-9 69-62 127-135 138-87 13-169-47-182-135l-17-114zM8612 4807l-307 307-950-949 325-325h-451l2-6-984 987c63 133 40 296-70 406-139 139-365 139-504 0-139-140-138-365 0-504l1644-1650c92-93 205-139 336-139h178c337-292 761-613 1130-748 178-65 366-24 500 110l319 319c134 134 175 322 109 500-243 658-1075 1490-1277 1692zM4246 8166c-93 93-243 93-336 0s-93-243 0-336l190-190 335 336-189 190zm3833-2826l-978 978c-861 862-1518 1307-2094 1517-119 44-246 15-336-75l-337-338c-91-91-118-219-72-340 183-479 524-1049 1117-1709 20 28 43 55 68 80 264 264 692 264 956 0 144-143 212-339 196-532l530-530 950 949z"/><path fill="gray" d="M640 640h5230c352 0 656 126 905 375l1170 1170c46 46 89 95 126 145-125 92-246 189-358 284h-60c-216 0-411 80-563 233l-351 353h-979V1600c0-176-144-320-320-320H1280v7680h6400V6192l640-640v4048H640V640zm5760 960v960h960l-960-960z"/></svg>