<svg xmlns="http://www.w3.org/2000/svg" width="1024" height="1024" shape-rendering="geometricPrecision" text-rendering="geometricPrecision" image-rendering="optimizeQuality" clip-rule="evenodd" viewBox="0 0 10240 10240"><title>cooling_tower icon</title><desc>cooling_tower icon from the IconExperience.com O-Collection. Copyright by INCORS GmbH (www.incors.com).</desc><path fill="gray" d="M2880 1280h4480c176 0 320 144 320 320v1600c0 1920 640 5120 1280 6400H1280c640-1280 1280-4480 1280-6400V1600c0-176 144-320 320-320zm320 960v960c0 977-133 2010-301 2972-122 697-273 1396-461 2079-27 98-55 198-85 299-29 100-12 198 51 282 62 83 152 128 256 128 144 0 266-91 307-230 30-102 59-205 88-309 194-704 348-1420 474-2139 177-1011 311-2054 311-3082v-960c0-176-144-320-320-320s-320 144-320 320z"/></svg>