<svg xmlns="http://www.w3.org/2000/svg" width="1024" height="1024" shape-rendering="geometricPrecision" text-rendering="geometricPrecision" image-rendering="optimizeQuality" clip-rule="evenodd" viewBox="0 0 10240 10240"><title>copy icon</title><desc>copy icon from the IconExperience.com O-Collection. Copyright by INCORS GmbH (www.incors.com).</desc><path fill="gray" d="M4480 3840h1920v640H4480v-640zm0 3840h3840v640H4480v-640zm0-1280h3840v640H4480v-640zm0-1280h3840v640H4480v-640z"/><path fill="#4D82B8" d="M3200 1920h3950c352 0 656 126 905 375l1170 1170c249 249 375 553 375 905v5230H3200V1920zm4480 960v960h960l-960-960zm-3840-320v6400h5120V4800c0-176-144-320-320-320H7040V2880c0-176-144-320-320-320H3840z"/><path fill="gray" d="M1920 2560h960v640h-960v-640zm0 3840h960v640h-960v-640zm0-1280h960v640h-960v-640zm0-1280h960v640h-960v-640z"/><path fill="gray" d="M640 640h3950c352 0 656 126 905 375l585 585H4480c0-176-144-320-320-320H1280v6400h1600v640H640V640z"/></svg>