<svg xmlns="http://www.w3.org/2000/svg" width="1024" height="1024" shape-rendering="geometricPrecision" text-rendering="geometricPrecision" image-rendering="optimizeQuality" clip-rule="evenodd" viewBox="0 0 10240 10240"><title>cpu icon</title><desc>cpu icon from the IconExperience.com O-Collection. Copyright by INCORS GmbH (www.incors.com).</desc><path fill="gray" d="M5120 7680c530 0 960 430 960 960v640H4160v-640c0-530 430-960 960-960z"/><path fill="gray" d="M3200 640h3840c176 0 320 144 320 320v8000c0 176-144 320-320 320h-640v-640c0-707-573-1280-1280-1280s-1280 573-1280 1280v640h-640c-176 0-320-144-320-320V960c0-176 144-320 320-320zM7680 2240h640c176 0 320 144 320 320h640v-320c0-265-108-505-282-678-173-174-413-282-678-282h-640v960zm-5120 0h-640c-176 0-320 144-320 320H960v-320c0-265 108-505 282-678 173-174 413-282 678-282h640v960zm0 1600h-640c-176 0-320 144-320 320H960v-320c0-265 108-505 282-678 173-174 413-282 678-282h640v960zm0 1600h-640c-176 0-320 144-320 320H960v-320c0-265 108-505 282-678 173-174 413-282 678-282h640v960zm0 1600h-640c-176 0-320 144-320 320H960v-320c0-265 108-505 282-678 173-174 413-282 678-282h640v960zm0 1600h-640c-176 0-320 144-320 320H960v-320c0-265 108-505 282-678 173-174 413-282 678-282h640v960zm5120 0h640c176 0 320 144 320 320h640v-320c0-265-108-505-282-678-173-174-413-282-678-282h-640v960zm0-1600h640c176 0 320 144 320 320h640v-320c0-265-108-505-282-678-173-174-413-282-678-282h-640v960zm0-1600h640c176 0 320 144 320 320h640v-320c0-265-108-505-282-678-173-174-413-282-678-282h-640v960zm0-1600h640c176 0 320 144 320 320h640v-320c0-265-108-505-282-678-173-174-413-282-678-282h-640v960z"/></svg>