<svg xmlns="http://www.w3.org/2000/svg" width="1024" height="1024" shape-rendering="geometricPrecision" text-rendering="geometricPrecision" image-rendering="optimizeQuality" clip-rule="evenodd" viewBox="0 0 10240 10240"><title>cpu_flash icon</title><desc>cpu_flash icon from the IconExperience.com O-Collection. Copyright by INCORS GmbH (www.incors.com).</desc><path fill="gray" d="M5120 7680c530 0 960 430 960 960v640H4160v-640c0-530 430-960 960-960z"/><path fill="#EDC87E" d="M4619 2560h1178c60 0 110 30 140 81 29 52 28 111-2 161l-815 1358h701c57 0 106 27 136 76 30 48 33 104 7 156l-524 1048h228c67 0 125 39 149 102s9 131-41 176l-926 847c-40 36-91 50-144 38-52-12-92-46-113-96l-344-847c-20-51-15-104 16-149 31-46 78-71 133-71h402l320-640h-776c-48 0-89-19-120-55-32-36-45-80-38-128l274-1920c12-79 79-137 159-137z"/><path fill="gray" d="M3200 640h3840c176 0 320 144 320 320v8000c0 176-144 320-320 320h-640v-640c0-707-573-1280-1280-1280s-1280 573-1280 1280v640h-640c-176 0-320-144-320-320V960c0-176 144-320 320-320zm2485 3200l524-873c192-320-39-727-412-727H4619c-240 0-442 175-475 412l-275 1920c-41 290 183 548 475 548h54c-341 0-573 345-445 661l344 846c126 310 522 400 769 174l926-847c236-215 198-595-70-762l328-657c160-319-73-695-429-695h-136zM2560 8640h-320c-88 0-168 36-226 94s-94 138-94 226v1-1h-640v-320c0-265 108-505 282-678 173-174 413-282 678-282h320v960zm-958 640h-4 4zm958-2240h-320c-88 0-168 36-226 94s-94 138-94 226v1-1h-640v-320c0-265 108-505 282-678 173-174 413-282 678-282h320v960zm-958 640h-4 4zm958-2240h-320c-88 0-168 36-226 94s-94 138-94 226v1-1h-640v-320c0-265 108-505 282-678 173-174 413-282 678-282h320v960zm-958 640h-4 4zm958-2240h-320c-88 0-168 36-226 94s-94 138-94 226v1-1h-640v-320c0-265 108-505 282-678 173-174 413-282 678-282h320v960zm-958 640h-4 4zm958-2240h-320c-88 0-168 36-226 94s-94 138-94 226v1-1h-640v-320c0-265 108-505 282-678 173-174 413-282 678-282h320v960zm-958 640h-4 4zm6078-640h320c88 0 168 36 226 94s94 138 94 226v1-1h640v-320c0-265-108-505-282-678-173-174-413-282-678-282h-320v960zm958 640h4-4zm-958 960h320c88 0 168 36 226 94s94 138 94 226v1-1h640v-320c0-265-108-505-282-678-173-174-413-282-678-282h-320v960zm958 640h4-4zm-958 960h320c88 0 168 36 226 94s94 138 94 226v1-1h640v-320c0-265-108-505-282-678-173-174-413-282-678-282h-320v960zm958 640h4-4zm-958 960h320c88 0 168 36 226 94s94 138 94 226v1-1h640v-320c0-265-108-505-282-678-173-174-413-282-678-282h-320v960zm958 640h4-4zm-958 960h320c88 0 168 36 226 94s94 138 94 226v1-1h640v-320c0-265-108-505-282-678-173-174-413-282-678-282h-320v960zm958 640h4-4z"/></svg>