<svg xmlns="http://www.w3.org/2000/svg" width="1024" height="1024" shape-rendering="geometricPrecision" text-rendering="geometricPrecision" image-rendering="optimizeQuality" clip-rule="evenodd" viewBox="0 0 10240 10240"><title>credit_cards icon</title><desc>credit_cards icon from the IconExperience.com O-Collection. Copyright by INCORS GmbH (www.incors.com).</desc><path fill="#EDC87E" d="M6400 8000h2560v640H6400z"/><path fill="#4D82B8" d="M6400 6720h2560v640H6400z"/><path fill="#4D82B8" d="M9280 4800H8000v320c0 353-287 640-640 640H2560v3200c0 177 143 320 320 320h6400c177 0 320-143 320-320V5120c0-177-143-320-320-320zM6400 6400h2560c176 0 320 144 320 320v1920c0 176-144 320-320 320H6400c-176 0-320-144-320-320V6720c0-176 144-320 320-320z"/><path fill="#E68497" d="M6080 2880c-530 0-960 430-960 960s430 960 960 960 960-430 960-960-430-960-960-960z"/><path fill="#EDC87E" d="M4800 2880c127 0 249 25 360 70-223 230-360 544-360 890s137 660 360 890c-111 45-233 70-360 70-530 0-960-430-960-960s430-960 960-960z"/><path fill="#EDC87E" d="M960 960h6400c176 0 320 144 320 320v3840c0 177-143 320-320 320H960c-177 0-320-143-320-320V1280c0-177 143-320 320-320zm3200 1600c-353 0-640 287-640 640v1280c0 353 287 640 640 640h2560c353 0 640-287 640-640V3200c0-353-287-640-640-640H4160z"/></svg>