<svg xmlns="http://www.w3.org/2000/svg" width="1024" height="1024" shape-rendering="geometricPrecision" text-rendering="geometricPrecision" image-rendering="optimizeQuality" clip-rule="evenodd" viewBox="0 0 10240 10240"><title>criminal icon</title><desc>criminal icon from the IconExperience.com O-Collection. Copyright by INCORS GmbH (www.incors.com).</desc><path fill="gray" d="M2751 6268c232-199 510-392 832-632 445 281 972 444 1537 444s1092-163 1537-444c327 243 607 438 840 639-671 465-1487 738-2368 738-884 0-1704-276-2378-745zm5455 1108c76 289 114 642 114 1094 0 810-1920 1130-3200 1130s-3200-320-3200-1129c0-458 39-814 117-1106 883 583 1947 923 3093 923 1138 0 2197-336 3076-912z"/><path fill="#EFC1B4" d="M5120 640c947 0 1775 515 2217 1280H2903c442-765 1269-1280 2217-1280zm2559 2640c-43 1377-1172 2480-2559 2480S2604 4657 2561 3280c217 79 398 211 549 401 231 289 615 479 1050 479 180 0 352-33 507-91 304-115 602-115 906 0 155 58 327 91 507 91 435 0 819-190 1050-479 151-190 332-322 549-401z"/><path fill="gray" d="M2785 3026c226 103 417 257 575 455 191 239 499 359 800 359 134 0 268-23 394-71 376-142 756-142 1132 0 126 48 260 71 394 71 301 0 609-120 800-359 179-225 401-392 669-494 39-18 79-27 119-28l1-1c-24-250-83-489-173-713l-8-5H2752c-2 1-4 2-7 2-91 226-150 467-174 718l1 1c79 2 156 17 213 65zm1375-466c353 0 640 215 640 480s-287 480-640 480-640-215-640-480 287-480 640-480zm1920 0c353 0 640 215 640 480s-287 480-640 480-640-215-640-480 287-480 640-480z"/></svg>