<svg xmlns="http://www.w3.org/2000/svg" width="1024" height="1024" shape-rendering="geometricPrecision" text-rendering="geometricPrecision" image-rendering="optimizeQuality" clip-rule="evenodd" viewBox="0 0 10240 10240"><title>crown icon</title><desc>crown icon from the IconExperience.com O-Collection. Copyright by INCORS GmbH (www.incors.com).</desc><path fill="#EDC87E" d="M8123 7845c156 280 156 670 0 950-58 105-160 165-280 165H2397c-120 0-222-60-280-165-156-280-156-670 0-950 58-105 160-165 280-165h5446c120 0 222 60 280 165zM2176 4288c448 518 896 832 1344 832 679 0 1038-480 1303-1327-385-125-663-487-663-913 0-530 430-960 960-960s960 430 960 960c0 426-278 788-663 913 265 847 624 1327 1303 1327 448 0 896-314 1344-832-233-175-384-454-384-768 0-530 430-960 960-960s960 430 960 960-430 960-960 960h-17c-41 1033-155 1753-342 2627-31 149-160 253-313 253H2290c-153 0-282-105-313-255-196-937-315-1617-358-2625h-19c-530 0-960-430-960-960s430-960 960-960 960 430 960 960c0 314-151 593-384 768z"/></svg>