<svg xmlns="http://www.w3.org/2000/svg" width="1024" height="1024" shape-rendering="geometricPrecision" text-rendering="geometricPrecision" image-rendering="optimizeQuality" clip-rule="evenodd" viewBox="0 0 10240 10240"><title>cube_molecule icon</title><desc>cube_molecule icon from the IconExperience.com O-Collection. Copyright by INCORS GmbH (www.incors.com).</desc><path fill="#4D82B8" d="M1600 4735l3 1c102 36 209 54 317 54s215-18 317-54l3-1v2680l10 3v262c0 58-52 99-99 122-69 35-155 48-231 48s-162-13-231-48c-47-23-99-64-99-122v-262l10-3V4735zm5450-1998l404-403-5-10 318-317c129-129 337-129 466 0s129 337 0 466l-317 318-10-5-403 404c-110-187-266-343-453-453zm-4480 0l404-403-5-10 318-317c129-129 337-129 466 0s129 337 0 466l-317 318-10-5-403 404c-110-187-266-343-453-453zm4855-1137l-1 3c-36 102-54 209-54 317s18 215 54 317l1 3H4745l-3 10h-262c-58 0-99-52-122-99-35-69-48-155-48-231s13-162 48-231c23-47 64-99 122-99h262l3 10h2680zm575 1215l3 1c102 36 209 54 317 54s215-18 317-54l3-1v2680l10 3v262c0 58-52 99-99 122-69 35-155 48-231 48s-162-13-231-48c-47-23-99-64-99-122v-262l10-3V2815zm-950 4402l404-403-5-10 318-317c129-129 337-129 466 0s129 337 0 466l-317 318-10-5-403 404c-110-187-266-343-453-453zM3520 2815l3 1c102 36 209 54 317 54s215-18 317-54l3-1v385h-640v-385zm640 2680l10 3v262c0 58-52 99-99 122-69 35-155 48-231 48s-162-13-231-48c-47-23-99-64-99-122v-262l10-3V4480h640v1015zM2570 7217l404-403-5-10 318-317c129-129 337-129 466 0s129 337 0 466l-317 318-10-5-403 404c-110-187-266-343-453-453zm2168-1158h1022v640H4752l-3 10h-271c-58 0-99-52-122-99-35-69-48-154-48-231 0-76 13-161 48-230 23-47 64-100 122-100h256l4 10zm2302 0h393l-1 4c-41 108-62 222-62 337 0 101 16 201 47 296l1 3h-378v-640zM5505 3520l-1 3c-36 102-54 209-54 317s18 215 54 317l1 3H2825l-3 10h-262c-58 0-99-52-122-99-35-69-48-155-48-231s13-162 48-231c23-47 64-99 122-99h262l3 10h2680zm573 1214l3 1c103 37 210 55 319 55 107 0 213-18 315-53l3-2v2679l10 3v263c0 58-53 99-99 122-69 35-155 48-231 48-77 0-162-13-231-48-47-23-99-64-99-122v-261l10-4V4734zm-573 3266l-1 3c-36 102-54 209-54 317s18 215 54 317l1 3H2825l-3 10h-262c-58 0-99-52-122-99-35-69-48-155-48-231s13-162 48-231c23-47 64-99 122-99h262l3 10h2680z"/><path fill="#4D82B8" d="M8320 960c530 0 960 430 960 960s-430 960-960 960c-148 0-289-34-414-94l320-320c125-125 125-327 0-452s-327-125-452 0l-320 320c-60-125-94-266-94-414 0-530 430-960 960-960zM2240 7415c273 96 489 312 585 585h-265c-88 0-160 143-160 320s72 320 160 320h265c-131 373-487 640-905 640-530 0-960-430-960-960 0-418 267-773 640-905v265c0 88 143 160 320 160s320-72 320-160v-265zm4478-1c374 131 642 487 642 906 0 530-430 960-960 960s-960-430-960-960c0-417 266-772 638-905v265c0 88 143 160 320 160s320-72 320-160v-266zM1920 2880c418 0 774 267 905 640h-265c-88 0-160 143-160 320s72 320 160 320h265c-131 373-487 640-905 640-530 0-960-430-960-960s430-960 960-960zm4480 0c530 0 960 430 960 960s-430 960-960 960-960-430-960-960 430-960 960-960zM4160 5495c266 94 478 301 578 564h-260c-89 0-160 144-160 320 0 177 71 320 160 320h274c-125 384-486 661-912 661-148 0-289-34-414-94l320-320c125-125 125-327 0-452s-327-125-452 0l-320 320c-60-125-94-266-94-414 0-418 267-773 640-905v265c0 88 143 160 320 160s320-72 320-160v-265zm4480 0c373 132 640 487 640 905 0 530-430 960-960 960-148 0-289-34-414-94l320-320c125-125 125-327 0-452s-327-125-452 0l-320 320c-60-125-94-266-94-414 0-418 267-773 640-905v265c0 88 143 160 320 160s320-72 320-160v-265zM3840 960c418 0 774 267 905 640h-265c-88 0-160 143-160 320s72 320 160 320h265c-132 373-487 640-905 640-148 0-289-34-414-94l320-320c125-125 125-327 0-452s-327-125-452 0l-320 320c-60-125-94-266-94-414 0-530 430-960 960-960z"/></svg>