<svg xmlns="http://www.w3.org/2000/svg" width="1024" height="1024" shape-rendering="geometricPrecision" text-rendering="geometricPrecision" image-rendering="optimizeQuality" clip-rule="evenodd" viewBox="0 0 10240 10240"><title>cup icon</title><desc>cup icon from the IconExperience.com O-Collection. Copyright by INCORS GmbH (www.incors.com).</desc><path fill="#EDC87E" d="M1600 8320h6400c176 0 320 144 320 320 0 284-604 527-1022 609-152 30-258 160-258 314v37H2560v-37c0-154-106-284-258-314-418-82-1022-325-1022-609 0-176 144-320 320-320zM8320 4480c707 0 1280 573 1280 1280s-640 1280-1280 1280c-602 0-909-4-1625 569-177 154-370 285-575 391H3480c-927-479-1560-1445-1560-2560v-960c0-353 287-640 640-640h4480c353 0 640 288 640 640h640zm-5440 0c-176 0-320 144-320 320v640c0 761 375 1432 954 1837 86 61 188 75 288 40 101-35 171-109 202-210l2-7c39-133-11-270-124-349-413-290-682-769-682-1311v-640c0-176-144-320-320-320zm5434 640c-350 0-634 284-634 634 0 351 284 635 634 635 351 0 635-284 635-635 0-350-284-634-635-634z"/><path fill="gray" d="M6080 1044c-820-251-1280 0-1280 206 0 413 960 517 960 1032 0 825-1600 619-960 1238-1434-585 0-825 0-1103 0-412-1280-438-1280-1057 0-636 1377-1081 2560-316z"/></svg>