<svg xmlns="http://www.w3.org/2000/svg" width="1024" height="1024" shape-rendering="geometricPrecision" text-rendering="geometricPrecision" image-rendering="optimizeQuality" clip-rule="evenodd" viewBox="0 0 10240 10240"><title>currency_won icon</title><desc>currency_won icon from the IconExperience.com O-Collection. Copyright by INCORS GmbH (www.incors.com).</desc><path fill="#EDC87E" d="M5120 640c2474 0 4480 2006 4480 4480S7594 9600 5120 9600 640 7594 640 5120 2646 640 5120 640zM1920 5760v640h911l316 1419c66 296 321 501 624 501h226c248 0 461-132 572-354l551-1101 551 1101c111 222 324 354 572 354h226c303 0 559-205 624-501l316-1419h911v-640h-769c43-202 75-390 95-576 2-21 5-43 7-64h667v-640h-640V2240H6400v2240H3840V2240H2560v2240h-640v640h667c2 21 5 43 7 64 20 186 52 374 95 576h-769zm2075 0l-51-229c-30-139-54-274-72-411h893c-124 0-230 66-286 177l-231 463h-253zm1998 0l-232-463c-56-111-162-177-286-177h893c-18 137-41 272-72 411l-51 229h-252z"/></svg>