<svg xmlns="http://www.w3.org/2000/svg" width="1024" height="1024" shape-rendering="geometricPrecision" text-rendering="geometricPrecision" image-rendering="optimizeQuality" clip-rule="evenodd" viewBox="0 0 10240 10240"><title>currency_euro icon</title><desc>currency_euro icon from the IconExperience.com O-Collection. Copyright by INCORS GmbH (www.incors.com).</desc><path fill="#EDC87E" d="M5120 640c2474 0 4480 2006 4480 4480S7594 9600 5120 9600 640 7594 640 5120 2646 640 5120 640zM1577 5440l-137 640h779c388 1298 1540 2240 2901 2240 517 0 1003-136 1429-375l-275-1375c-309 293-713 470-1154 470-651 0-1220-386-1524-960h2073l137-640H3384c-16-104-24-211-24-320h2514l137-640H3460c242-746 894-1280 1660-1280 407 0 781 151 1079 403l288-1342c-411-218-875-341-1367-341-1471 0-2697 1099-2979 2560h-358l-137 640h434c0 108 5 215 15 320h-518z"/></svg>