<svg xmlns="http://www.w3.org/2000/svg" width="1024" height="1024" shape-rendering="geometricPrecision" text-rendering="geometricPrecision" image-rendering="optimizeQuality" clip-rule="evenodd" viewBox="0 0 10240 10240"><title>data_scroll icon</title><desc>data_scroll icon from the IconExperience.com O-Collection. Copyright by INCORS GmbH (www.incors.com).</desc><path fill="#EDC87E" d="M1280 640h4480c353 0 640 288 640 640v960c0 352-288 640-640 640 353 0 640 288 640 640H4801c-707 0-1280 573-1280 1280v2560H1280c-352 0-640-288-640-640v-960c0-353 287-640 640-640-352 0-640-288-640-640v-960c0-353 287-640 640-640-352 0-640-288-640-640v-960c0-353 288-640 640-640zm128 5120c-71 0-128 72-128 160v640c0 88 58 160 128 160h2112v-960H1408zm0-4480c-71 0-128 72-128 160v640c0 88 58 160 128 160h2112v-960H1408zm0 2240c-71 0-128 72-128 160v640c0 88 58 160 128 160h2112v-960H1408z"/><path fill="gray" d="M4480 7360h-639V4800c0-530 429-960 960-960h3840c530 0 960 430 960 960s-430 960-960 960v-640c176 0 320-143 320-320 20 0-35-320-320-320-177 0-320 143-320 320v3840c0 530-430 960-960 960H3521c-13 0-26 0-38-1-522-20-933-455-923-978 10-522 438-941 960-941h3521c176 0 320 144 320 320v86c0 117-59 218-160 277-96 55-160 159-160 277 0 177 143 320 320 320 176 0 320-143 320-320V4800c0-112 19-220 54-320H4801c-177 0-320 143-320 320l-1 2560zm1975 1600c-72-206-72-434 0-640H3521c-177 0-320 144-320 320 0 177 143 320 320 320h2934z"/></svg>