<svg xmlns="http://www.w3.org/2000/svg" width="1024" height="1024" shape-rendering="geometricPrecision" text-rendering="geometricPrecision" image-rendering="optimizeQuality" clip-rule="evenodd" viewBox="0 0 10240 10240"><title>data_cloud icon</title><desc>data_cloud icon from the IconExperience.com O-Collection. Copyright by INCORS GmbH (www.incors.com).</desc><path fill="gray" d="M8933 3172c408 293 667 771 667 1300 0 883-716 1598-1599 1600l-1977 4c-43-118-107-225-189-316 84-93 149-203 192-324l1973-4c530-1 960-430 960-960 0-467-333-856-775-942 73-148 113-314 113-490 0-619-501-1120-1120-1120-344 0-651 155-857 399-173-600-727-1039-1383-1039-795 0-1440 645-1440 1440 0 67 5 133 14 197-351 86-646 297-816 603h-695c149-445 455-810 870-1037 118-1037 999-1843 2067-1843 636 0 1220 289 1606 758 200-77 414-118 634-118 972 0 1760 788 1760 1760 0 44-2 88-5 132z"/><path fill="#EDC87E" d="M1280 3840h3840c353 0 640 288 640 640v640c0 352-288 640-640 640 353 0 640 288 640 640v640c0 352-288 640-640 640 353 0 640 288 640 640v640c0 352-288 640-640 640H1280c-352 0-640-287-640-640v-640c0-353 287-640 640-640-352 0-640-287-640-640v-640c0-353 287-640 640-640-352 0-640-287-640-640v-640c0-353 288-640 640-640zm128 4480c-71 0-128 72-128 160v320c0 88 58 160 128 160h1792v-640H1408zm0-3840c-71 0-128 72-128 160v320c0 88 58 160 128 160h1792v-640H1408zm0 1920c-71 0-128 72-128 160v320c0 88 58 160 128 160h1792v-640H1408z"/></svg>