<svg xmlns="http://www.w3.org/2000/svg" width="1024" height="1024" shape-rendering="geometricPrecision" text-rendering="geometricPrecision" image-rendering="optimizeQuality" clip-rule="evenodd" viewBox="0 0 10240 10240"><title>data_floppy_disk icon</title><desc>data_floppy_disk icon from the IconExperience.com O-Collection. Copyright by INCORS GmbH (www.incors.com).</desc><path fill="#EDC87E" d="M1280 640c-352 0-640 287-640 640v960c0 352 288 640 640 640-353 0-640 287-640 640v960c0 352 288 640 640 640-353 0-640 287-640 640v960c0 352 288 640 640 640h2880V5120c0-529 431-960 960-960h1280v-640c0-352-287-640-640-640 352 0 640-288 640-640v-960c0-352-287-640-640-640H1280zm128 5120h2112v960H1408c-70 0-128-72-128-160v-640c0-88 57-160 128-160zm0-4480h2112v960H1408c-70 0-128-72-128-160v-640c0-88 57-160 128-160zm0 2240h2112v960H1408c-70 0-128-72-128-160v-640c0-88 57-160 128-160z"/><path fill="#4D82B8" d="M5120 4480h320v1920c0 176 144 320 320 320h2560c176 0 320-144 320-320V4480h320c353 0 640 287 640 640v3840c0 353-287 640-640 640h-320V8000c0-176-144-320-320-320H6400c-176 0-320 144-320 320v1600h-960c-353 0-640-287-640-640V5120c0-353 287-640 640-640zm2240 3520h960v1280h-960V8000z"/><path fill="gray" d="M5760 4480h2560v640H5760z"/></svg>