<svg xmlns="http://www.w3.org/2000/svg" width="1024" height="1024" shape-rendering="geometricPrecision" text-rendering="geometricPrecision" image-rendering="optimizeQuality" clip-rule="evenodd" viewBox="0 0 10240 10240"><title>debug icon</title><desc>debug icon from the IconExperience.com O-Collection. Copyright by INCORS GmbH (www.incors.com).</desc><path fill="#4D82B8" d="M3520 9580v340h-640v-340C1722 9436 804 8518 660 7360H320v-640h340c144-1158 1062-2076 2220-2220v-340h640v340c1158 144 2076 1062 2220 2220h340v640h-340c-144 1158-1062 2076-2220 2220zm-180-1963l180 328c273-96 489-312 585-585l-328-180c-53-28-83-80-83-140s30-112 83-140l328-180c-96-273-312-489-585-585l-180 328c-28 53-80 83-140 83s-112-30-140-83l-180-328c-273 96-489 312-585 585l328 180c53 28 83 80 83 140s-30 112-83 140l-328 180c96 273 312 489 585 585l180-328c28-53 80-83 140-83s112 30 140 83zm180 663v653c804-135 1438-769 1573-1573h-653c-116 450-470 804-920 920zm920-1560h653c-135-804-769-1438-1573-1573v653c450 116 804 470 920 920zm-1560-920v-653c-804 135-1438 769-1573 1573h653c116-450 470-804 920-920zm-920 1560h-653c135 804 769 1438 1573 1573v-653c-450-116-804-470-920-920z"/><path fill="gray" d="M7770 2337l272-272 295-885c56-167 236-258 403-203 167 56 258 236 202 403l-310 933c-13 56-42 109-86 153l-432 432c-99-204-214-397-344-561zm-5004 561l-432-432c-44-44-73-97-86-153l-311-933c-55-167 36-347 203-403 167-55 347 36 403 203l295 885 272 272c-130 164-245 357-344 561zm5744 3239l356 357c44 44 73 97 86 153l311 933c55 167-36 347-203 403-167 55-347-36-402-203l-296-885-105-105c107-208 191-426 253-653zm-11-2147l561 187c49 17 91 44 125 78l1-1 640 640c125 125 125 327 0 452s-327 125-452 0l-589-589-166-55c-15-158-39-316-68-472-14-74-32-155-52-240zM7517 2536c439 553 803 1644 803 2592 0 2029-1466 2705-2477 3057 70-161 126-330 166-505h71c176 0 320-144 320-320v-640c0-176-144-320-320-320h-71c-245-1077-1092-1924-2169-2169v-71c0-176-144-320-320-320h-640c-50 0-97 11-139 32 148-536 373-1023 622-1336 179 180 369 369 582 504 175 111 362 183 559 244 290 90 591 162 886 236l80 21 80-21c279-74 564-145 839-234 189-61 369-132 538-238 216-137 408-329 590-512z"/><path fill="gray" d="M5440 640c220 0 420 19 602 55-67 34-123 84-160 150-133 229 8 559 314 735 306 177 662 134 794-95 42-74 57-157 47-243 215 264 323 604 323 998-640 640-640 640-1892 970-1308-330-1308-330-1948-970 0-394 108-734 323-998-10 86 5 169 47 243 132 229 488 272 794 95 306-176 447-506 314-735-37-66-93-116-160-150 182-36 382-55 602-55z"/></svg>