<svg xmlns="http://www.w3.org/2000/svg" width="1024" height="1024" shape-rendering="geometricPrecision" text-rendering="geometricPrecision" image-rendering="optimizeQuality" clip-rule="evenodd" viewBox="0 0 10240 10240"><title>delete icon</title><desc>delete icon from the IconExperience.com O-Collection. Copyright by INCORS GmbH (www.incors.com).</desc><path fill="#E68497" d="M1273 7156l2037-2036-2037-2036c-124-125-124-328 0-453l1358-1358c125-124 328-124 453 0l2036 2037 2036-2037c125-124 328-124 453 0l1358 1358c124 125 124 328 0 453L6930 5120l2037 2036c124 125 124 328 0 453L7609 8967c-125 124-328 124-453 0L5120 6930 3084 8967c-125 124-328 124-453 0L1273 7609c-124-125-124-328 0-453z"/></svg>