<svg xmlns="http://www.w3.org/2000/svg" width="1024" height="1024" shape-rendering="geometricPrecision" text-rendering="geometricPrecision" image-rendering="optimizeQuality" clip-rule="evenodd" viewBox="0 0 10240 10240"><title>delivery_truck icon</title><desc>delivery_truck icon from the IconExperience.com O-Collection. Copyright by INCORS GmbH (www.incors.com).</desc><path fill="gray" d="M2880 7040c530 0 960 430 960 960s-430 960-960 960-960-430-960-960 430-960 960-960zm4480 640c177 0 320 143 320 320s-143 320-320 320-320-143-320-320 143-320 320-320zm-4480 0c-177 0-320 143-320 320s143 320 320 320 320-143 320-320-143-320-320-320zm4480-640c-530 0-960 430-960 960s430 960 960 960 960-430 960-960-430-960-960-960z"/><path fill="gray" d="M6400 4160c0-176 144-320 320-320h1524c249 0 452 137 573 354l715 1280c51 90 68 182 68 286v1920c0 176-144 320-320 320h-640c0-707-573-1280-1280-1280s-1280 573-1280 1280H4160c0-707-573-1280-1280-1280-596 0-1098 408-1240 960H640V2880c0-176 144-320 320-320h5120c176 0 320 144 320 320v1280zm2246 1042l-314-559c-58-103-160-163-279-163h-853c-88 0-160 72-160 160v640c0 88 72 160 160 160h1307c58 0 108-29 138-79 29-51 30-109 1-159z"/></svg>