<svg xmlns="http://www.w3.org/2000/svg" width="1024" height="1024" shape-rendering="geometricPrecision" text-rendering="geometricPrecision" image-rendering="optimizeQuality" clip-rule="evenodd" viewBox="0 0 10240 10240"><title>delivery_note icon</title><desc>delivery_note icon from the IconExperience.com O-Collection. Copyright by INCORS GmbH (www.incors.com).</desc><path fill="gray" d="M1920 640h5230c352 0 656 126 905 375l1170 1170c249 249 375 553 375 905v6510H5027l1280-640h2653V3520c0-176-144-320-320-320H7040V1600c0-176-144-320-320-320H2560v2240l-640 320V640zm5760 960v960h960l-960-960z"/><path fill="#EDC87E" d="M1893 5379l2957-1476 960 480-2957 1476c-84 41-133 121-133 214v812l-960-480v-812c0-93 49-173 133-214z"/><path fill="gray" d="M994 4661l2400-1200c186-93 386-93 572 0l523 261-715 358-94-47-1987 994 94 47-37 18c-192 96-310 287-310 501v20l-160-80v2467l2080 1040V6573l-320-160v-290l422-211 218 108 1987-993-218-109 716-358 201 101c222 111 354 324 354 572v2767c0 248-132 461-354 572L3966 9772c-186 93-386 93-572 0L994 8572c-222-111-354-324-354-572V5233c0-248 132-461 354-572zm5086 872L4000 6573v2467l2080-1040V5533z"/></svg>