<svg xmlns="http://www.w3.org/2000/svg" width="1024" height="1024" shape-rendering="geometricPrecision" text-rendering="geometricPrecision" image-rendering="optimizeQuality" clip-rule="evenodd" viewBox="0 0 10240 10240"><title>detergent icon</title><desc>detergent icon from the IconExperience.com O-Collection. Copyright by INCORS GmbH (www.incors.com).</desc><path fill="#4D82B8" d="M3200 7040c0-2240 2240-1600 2240-3520v-640h1920v960c0 960 640 960 640 1920v2880c0 529-431 960-960 960H4160c-529 0-960-431-960-960V7040z"/><path fill="gray" d="M5120 2880c0 388-102 777-305 1116-190 316-467 586-832 769-158 79-349 15-428-143-79-157-15-348 143-427 250-125 440-310 570-527 141-236 212-511 212-788h640zM2880 640h320v960h-320c-176 0-320-144-320-320V960c0-176 144-320 320-320zM3520 640h2720c793 0 1440 647 1440 1440v480H4480c-176 0-320-144-320-320 0-353-288-640-640-640V640z"/></svg>