<svg xmlns="http://www.w3.org/2000/svg" width="1024" height="1024" shape-rendering="geometricPrecision" text-rendering="geometricPrecision" image-rendering="optimizeQuality" clip-rule="evenodd" viewBox="0 0 10240 10240"><title>dictation_microphone icon</title><desc>dictation_microphone icon from the IconExperience.com O-Collection. Copyright by INCORS GmbH (www.incors.com).</desc><path fill="gray" d="M3840 640h2560c353 0 640 287 640 640v6720c0 1057-863 1920-1920 1920s-1920-863-1920-1920V1280c0-353 287-640 640-640zm1280 1280c-177 0-320 143-320 320s143 320 320 320 320-143 320-320-143-320-320-320zm-203-671c-88-153-284-206-437-117-153 88-205 284-117 437s284 205 437 117c153-89 205-284 117-437zm960 320c88-153 36-349-117-438-153-88-349-35-437 118s-36 348 117 437c153 88 349 36 437-117zm203 991c177 0 320-143 320-320s-143-320-320-320-320 143-320 320 143 320 320 320zm-757 671c88 153 284 206 437 118 153-89 206-285 117-438-88-153-284-205-437-117-153 89-205 284-117 437zm-960-320c-88 153-36 349 117 438 153 88 349 35 437-118 89-153 36-348-117-437-153-88-349-36-437 117zm-203-991c-177 0-320 143-320 320s143 320 320 320 320-143 320-320-143-320-320-320zm960 5120c-530 0-960 430-960 960s430 960 960 960 960-430 960-960c0-207-66-399-177-556l-491 491c-63 62-164 62-227 0-62-63-62-164 0-227l491-491c-157-111-349-177-556-177zm-320-2880c-176 0-320 144-320 320v320h1280v-320c0-176-144-320-320-320h-640zm960 960H4480v320c0 176 144 320 320 320h640c176 0 320-144 320-320v-320z"/></svg>