<svg xmlns="http://www.w3.org/2000/svg" width="1024" height="1024" shape-rendering="geometricPrecision" text-rendering="geometricPrecision" image-rendering="optimizeQuality" clip-rule="evenodd" viewBox="0 0 10240 10240"><title>disability icon</title><desc>disability icon from the IconExperience.com O-Collection. Copyright by INCORS GmbH (www.incors.com).</desc><path fill="gray" d="M3520 5120c1237 0 2240 1003 2240 2240S4757 9600 3520 9600 1280 8597 1280 7360c0-310 63-606 177-875 88 242 281 417 510 490-31 123-47 252-47 385 0 884 716 1600 1600 1600s1600-716 1600-1600-716-1600-1600-1600c-204 0-399 38-578 108l-156-625c230-80 477-123 734-123z"/><path fill="#4D82B8" d="M3934 2969l392 1961c-253-84-524-130-806-130-176 0-348 18-514 52l-88-439-586 335 329 1316c83 250-53 521-303 604-251 82-521-54-604-304l-457-1699c-80-224 18-478 236-587l1186-659-68-343c-432-205-731-646-731-1156 0-707 573-1280 1280-1280s1280 573 1280 1280c0 434-216 817-546 1049zm826 2151h1117c291 0 536 194 614 460l807 2089 148-48c251-80 521 58 602 310 81 251-58 521-310 602l-702 221c-328 127-698-29-825-357l-189-491c38-176 58-359 58-546 0-964-533-1803-1320-2240z"/></svg>