<svg xmlns="http://www.w3.org/2000/svg" width="1024" height="1024" shape-rendering="geometricPrecision" text-rendering="geometricPrecision" image-rendering="optimizeQuality" clip-rule="evenodd" viewBox="0 0 10240 10240"><title>document_zoom_in icon</title><desc>document_zoom_in icon from the IconExperience.com O-Collection. Copyright by INCORS GmbH (www.incors.com).</desc><path fill="#4D82B8" d="M4160 4160h640v640h640v640h-640v640h-640v-640h-640v-640h640z"/><path fill="gray" d="M4480 3200c1060 0 1920 860 1920 1920 0 415-131 799-355 1112l261 262c125-125 328-125 453 0l1147 1147c125 125 125 328 0 453l-452 452c-125 125-328 125-453 0L5854 7399c-125-125-125-328 0-453l-262-261c-313 224-697 355-1112 355-1060 0-1920-860-1920-1920s860-1920 1920-1920zm0 640c-707 0-1280 573-1280 1280s573 1280 1280 1280 1280-573 1280-1280-573-1280-1280-1280z"/><path fill="gray" d="M1280 640h5230c352 0 656 126 905 375l1170 1170c249 249 375 553 375 905v6510H1280V640zm5760 960v960h960l-960-960zm-5120-320v7680h6400V3520c0-176-144-320-320-320H6400V1600c0-176-144-320-320-320H1920z"/></svg>