<svg xmlns="http://www.w3.org/2000/svg" width="1024" height="1024" shape-rendering="geometricPrecision" text-rendering="geometricPrecision" image-rendering="optimizeQuality" clip-rule="evenodd" viewBox="0 0 10240 10240"><title>document_heart icon</title><desc>document_heart icon from the IconExperience.com O-Collection. Copyright by INCORS GmbH (www.incors.com).</desc><path fill="gray" d="M1280 640h5230c352 0 656 126 905 375l1170 1170c249 249 375 553 375 905v6510H1280V640zm5760 960v960h960l-960-960zm-5120-320v7680h6400V3520c0-176-144-320-320-320H6400V1600c0-176-144-320-320-320H1920z"/><path fill="#E68497" d="M6217 3840c808 0 1463 642 1463 1434 0 1328-1097 1971-2560 3046-1463-1075-2560-1718-2560-3046 0-792 655-1434 1463-1434 437 0 829 188 1097 485 268-297 660-485 1097-485zm-1998 725c26-106 1-209-72-291-73-81-173-118-282-103-548 74-985 530-985 1103 0 251 46 489 150 719 24 52 50 103 79 153 45 78 112 129 200 151 91 23 172 7 252-42 75-47 123-115 142-202 20-86 5-168-43-243-21-32-38-61-47-82-67-146-93-295-93-454 0-249 197-437 432-469 132-18 234-110 267-240z"/></svg>