<svg xmlns="http://www.w3.org/2000/svg" width="1024" height="1024" shape-rendering="geometricPrecision" text-rendering="geometricPrecision" image-rendering="optimizeQuality" clip-rule="evenodd" viewBox="0 0 10240 10240"><title>document_center_vertical icon</title><desc>document_center_vertical icon from the IconExperience.com O-Collection. Copyright by INCORS GmbH (www.incors.com).</desc><path fill="gray" d="M1280 640h5230c352 0 656 126 905 375l1170 1170c249 249 375 553 375 905v1390h-640v-960c0-176-144-320-320-320H6400V1600c0-176-144-320-320-320H1920v3200h-640V640zm5760 960v960h960l-960-960zm1280 4160h640v3840H1280V5760h640v3200h6400V5760z"/><path fill="gray" d="M3200 3840v2560h3784V3840H3200zm640 1920V4480h2504v1280H3840z"/><path fill="#4D82B8" d="M640 4800v640h2240v-640H640zm6720 0v640h2240v-640H7360z"/></svg>