<svg xmlns="http://www.w3.org/2000/svg" width="1024" height="1024" shape-rendering="geometricPrecision" text-rendering="geometricPrecision" image-rendering="optimizeQuality" clip-rule="evenodd" viewBox="0 0 10240 10240"><title>document_tag icon</title><desc>document_tag icon from the IconExperience.com O-Collection. Copyright by INCORS GmbH (www.incors.com).</desc><path fill="gray" d="M6119 4894l1393 1393c62 62 62 164 0 226L6119 7906l-453-452 1054-1054-1054-1054 453-452zm-1545 452L3520 6400l1054 1054-453 452-1393-1393c-62-62-62-164 0-226l1393-1393 453 452z"/><path fill="gray" d="M1280 640h5230c352 0 656 126 905 375l1170 1170c249 249 375 553 375 905v6510H1280V640zm5760 960v960h960l-960-960zm-5120-320v7680h6400V3520c0-176-144-320-320-320H6400V1600c0-176-144-320-320-320H1920z"/></svg>