<svg xmlns="http://www.w3.org/2000/svg" width="1024" height="1024" shape-rendering="geometricPrecision" text-rendering="geometricPrecision" image-rendering="optimizeQuality" clip-rule="evenodd" viewBox="0 0 10240 10240"><title>documents_exchange icon</title><desc>documents_exchange icon from the IconExperience.com O-Collection. Copyright by INCORS GmbH (www.incors.com).</desc><path fill="gray" d="M4480 640h2670c352 0 656 126 905 375l1170 1170c249 249 375 553 375 905v3950h-38c-26-70-65-135-116-194l-486-576V3520c0-176-144-320-320-320H7040V1600c0-176-144-320-320-320H5120v2747l-640-640V640zm1600 5760h1184l-384 443c-52 60-91 126-118 197h-682v-640zm1600-4800v960h960l-960-960zM640 3200h40c27 70 65 135 116 194l484 573v4993h3840V6080c0-176-144-320-320-320H3200V4160c0-146-98-269-232-308l394-455c49-57 88-120 114-187 283 34 530 156 739 365l1170 1170c249 249 375 553 375 905v3950H640V3200zm3200 960v960h960l-960-960z"/><path fill="#4D82B8" d="M7042 7264v736c0 68 40 126 103 150 64 24 133 8 177-44l360-426v640c0 176-144 320-320 320H6080v960h1282c705 0 1280-575 1280-1280v-640l360 426c44 52 113 68 177 44 63-24 103-82 103-150v-736c0-81-28-150-80-212l-787-930c-129-154-355-153-487-1l-806 931c-53 62-80 131-80 212zM3200 2976v-736c0-68-40-126-103-150-64-24-133-8-177 44l-360 426v-640c0-176 144-320 320-320h1280V640H2880c-705 0-1280 575-1280 1280v640l-360-426c-44-52-113-68-177-44-63 24-103 82-103 150v736c0 81 28 150 80 212l787 930c129 154 355 153 487 1l806-931c53-62 80-131 80-212z"/></svg>