<svg xmlns="http://www.w3.org/2000/svg" width="1024" height="1024" shape-rendering="geometricPrecision" text-rendering="geometricPrecision" image-rendering="optimizeQuality" clip-rule="evenodd" viewBox="0 0 10240 10240"><title>document_orientation_portrait icon</title><desc>document_orientation_portrait icon from the IconExperience.com O-Collection. Copyright by INCORS GmbH (www.incors.com).</desc><path fill="gray" d="M2560 7680h3840v640H2560v-640zm5120-3840H6400v640h1280v-640zM2560 5120h5120v640H2560v-640zm0 1280h5120v640H2560v-640z"/><path fill="#4D82B8" d="M4480 1920h-640L2560 4480h640l228-464h1441l251 464h640L4480 1920zm-320 640l466 960h-955l489-960z"/><path fill="gray" d="M1280 640h5230c352 0 656 126 905 375l1170 1170c249 249 375 553 375 905v6510H1280V640zm640 640v7680h6400V3520c0-176-144-320-320-320H6400V1600c0-176-144-320-320-320H1920zm5120 320v960h960l-960-960z"/></svg>