<svg xmlns="http://www.w3.org/2000/svg" width="1024" height="1024" shape-rendering="geometricPrecision" text-rendering="geometricPrecision" image-rendering="optimizeQuality" clip-rule="evenodd" viewBox="0 0 10240 10240"><title>document_selection icon</title><desc>document_selection icon from the IconExperience.com O-Collection. Copyright by INCORS GmbH (www.incors.com).</desc><path fill="gray" d="M1280 640h5230c352 0 656 126 905 375l1170 1170c249 249 375 553 375 905v6510H1280V640zm5760 960v960h960l-960-960zm-5120-320v7680h6400V3520c0-176-144-320-320-320H6400V1600c0-176-144-320-320-320H1920z"/><path fill="#4D82B8" d="M2560 8320V7040h640v640h640v640H2560zm0-3840h1280v-640H2560v640zm3840 3840h1280v-640H6400v640zm-1920 0h1280v-640H4480v640zm0-3840h1280v-640H4480v640zm2560 1280h640v1280h-640V5760zm-4480-640h640v1280h-640V5120zm5120-1280v1280h-640v-640h-640v-640h1280z"/></svg>