<svg xmlns="http://www.w3.org/2000/svg" width="1024" height="1024" shape-rendering="geometricPrecision" text-rendering="geometricPrecision" image-rendering="optimizeQuality" clip-rule="evenodd" viewBox="0 0 10240 10240"><title>document_pinned icon</title><desc>document_pinned icon from the IconExperience.com O-Collection. Copyright by INCORS GmbH (www.incors.com).</desc><path fill="gray" d="M3200 640h3310c352 0 656 126 905 375l1170 1170c249 249 375 553 375 905v6510H1280V3067c196 85 412 133 640 133v5760h6400V3520c0-176-144-320-320-320H6400V1600c0-176-144-320-320-320H3488c-48-236-148-454-288-640zm3840 960v960h960l-960-960z"/><path fill="gray" d="M2734 2978l573 465c79 64 170 83 268 66 115-21 203-94 244-204 41-109 22-223-52-313l-469-578c-138 232-332 426-564 564z"/><path fill="#4D82B8" d="M1920 320c707 0 1280 573 1280 1280s-573 1280-1280 1280S640 2307 640 1600 1213 320 1920 320zm134 742c29-114-3-226-87-308-85-81-198-110-311-77-318 90-569 341-659 659-33 113-4 226 77 311 82 84 194 116 308 87 114-28 198-109 230-222 31-106 114-189 220-220 113-32 194-116 222-230z"/></svg>