<svg xmlns="http://www.w3.org/2000/svg" width="1024" height="1024" shape-rendering="geometricPrecision" text-rendering="geometricPrecision" image-rendering="optimizeQuality" clip-rule="evenodd" viewBox="0 0 10240 10240"><title>door_exit icon</title><desc>door_exit icon from the IconExperience.com O-Collection. Copyright by INCORS GmbH (www.incors.com).</desc><path fill="gray" d="M1920 640h3520v640H2560v1924c-168 23-311 133-377 292-75 180-34 386 104 523l141 141h-508V640zm3520 8000v320H2880v-320h2560zm-2880 0v320h-640V6080h508l-141 141c-138 137-179 343-104 523 66 160 209 268 377 291v1605zM7171 640h1149v8320h-320V1446l-829-806z"/><path fill="#76A797" d="M6400 320l1280 1280v7360l-1280 640h-640V320h640zm640 5120h320v-320h-800c-88 0-160 143-160 320s72 320 160 320h320c88 0 160-143 160-320z"/><path fill="#4D82B8" d="M3918 6539l1186-1186c124-124 124-328 0-452L3918 3714c-125-124-277-186-453-187l-839-7c-65-1-122 38-147 99-26 61-12 127 34 174l687 687H800c-88 0-160 72-160 160v960c0 88 72 160 160 160h2400l-687 687c-46 47-60 113-34 174 25 61 81 98 147 99l839 7c176 1 328-63 453-188z"/></svg>