<svg xmlns="http://www.w3.org/2000/svg" width="1024" height="1024" shape-rendering="geometricPrecision" text-rendering="geometricPrecision" image-rendering="optimizeQuality" clip-rule="evenodd" viewBox="0 0 10240 10240"><title>dram icon</title><desc>dram icon from the IconExperience.com O-Collection. Copyright by INCORS GmbH (www.incors.com).</desc><path fill="gray" d="M7680 3520v-320h960v320h320v320h-320v320h320v320h-320v320h320v320h-320v320h-960v-320h-320v-320h320v-320h-320v-320h320v-320h-320v-320h320zm-6080 0v-320h960v320h320v320h-320v320h320v320h-320v320h320v320h-320v320h-960v-320h-320v-320h320v-320h-320v-320h320v-320h-320v-320h320zm1920 0v-320h960v320h320v320h-320v320h320v320h-320v320h320v320h-320v320h-960v-320h-320v-320h320v-320h-320v-320h320v-320h-320v-320h320zm2240 0v-320h960v320h320v320h-320v320h320v320h-320v320h320v320h-320v320h-960v-320h-320v-320h320v-320h-320v-320h320v-320h-320v-320h320z"/><path fill="#76A797" d="M640 2560h8960c176 0 320 144 320 320v960c-177 0-320 143-320 320s143 320 320 320v2880c0 176-144 320-320 320h-320v-960h-640v960h-320v-960h-640v960h-320v-960h-640v960h-320v-960h-640v960h-320v-960h-640v960h-320v-960h-640v960h-320v-960h-640v960h-320v-960h-640v960h-320v-960H960v960H640c-176 0-320-144-320-320V4480c177 0 320-143 320-320s-143-320-320-320v-960c0-176 144-320 320-320zm4480 960c0-176-144-320-320-320 0-176-144-320-320-320h-960c-176 0-320 144-320 320-58 0-113 16-160 43-47-27-102-43-160-43 0-176-144-320-320-320h-960c-176 0-320 144-320 320-176 0-320 144-320 320v320c0 58 16 113 43 160-27 47-43 102-43 160v320c0 58 16 113 43 160-27 47-43 102-43 160v320c0 176 144 320 320 320 0 176 144 320 320 320h960c176 0 320-144 320-320 58 0 113-16 160-43 47 27 102 43 160 43 0 176 144 320 320 320h960c176 0 320-144 320-320 176 0 320-144 320-320 0 176 144 320 320 320 0 176 144 320 320 320h960c176 0 320-144 320-320 58 0 113-16 160-43 47 27 102 43 160 43 0 176 144 320 320 320h960c176 0 320-144 320-320 176 0 320-144 320-320v-320c0-58-16-113-43-160 27-47 43-102 43-160v-320c0-58-16-113-43-160 27-47 43-102 43-160v-320c0-176-144-320-320-320 0-176-144-320-320-320h-960c-176 0-320 144-320 320-58 0-113 16-160 43-47-27-102-43-160-43 0-176-144-320-320-320h-960c-176 0-320 144-320 320-176 0-320 144-320 320z"/></svg>