<svg xmlns="http://www.w3.org/2000/svg" width="1024" height="1024" shape-rendering="geometricPrecision" text-rendering="geometricPrecision" image-rendering="optimizeQuality" clip-rule="evenodd" viewBox="0 0 10240 10240"><title>drop_down_list icon</title><desc>drop_down_list icon from the IconExperience.com O-Collection. Copyright by INCORS GmbH (www.incors.com).</desc><path fill="gray" d="M1920 5760v640h3840v-640H1920zm0 1280v640h3840v-640H1920z"/><path fill="#4D82B8" d="M640 5110h6400v3850H640V5110zm640 10v3200h5120V5120H1280z"/><path fill="#4D82B8" d="M640 1920h8640c176 0 320 144 320 320v2560c0 176-144 320-320 320H640V1920zm640 640v1920h5120V2560H1280zm5773 320c-63 0-117 34-144 91-28 56-20 120 19 169l947 1184c31 39 75 60 125 60s94-21 125-60l947-1184c39-49 47-113 19-169-27-57-81-91-144-91H7053z"/></svg>