<svg xmlns="http://www.w3.org/2000/svg" width="1024" height="1024" shape-rendering="geometricPrecision" text-rendering="geometricPrecision" image-rendering="optimizeQuality" clip-rule="evenodd" viewBox="0 0 10240 10240"><title>drum icon</title><desc>drum icon from the IconExperience.com O-Collection. Copyright by INCORS GmbH (www.incors.com).</desc><path fill="#4D82B8" d="M1280 3840h7680c176 0 320 144 320 320v640c0 176-144 320-320 320v3200c176 0 320 144 320 320v640c0 176-144 320-320 320H1280c-176 0-320-144-320-320v-640c0-176 144-320 320-320V5120c-176 0-320-144-320-320v-640c0-176 144-320 320-320zm640 2434l317-1154h-317v1154zm6400-1154h-317l317 1154V5120zm-1155 0H5578l907 2474 680-2474zm-2503 0H3075l680 2474 907-2474zm3559 3200l-637-2318-637 2318h1274zm-2151 0l-950-2592-950 2592h1900zm-2777 0l-637-2318-637 2318h1274z"/><path fill="#B89A7C" d="M3200 2240c156 0 299 55 410 148l123-45 924 340-826 305c-51 302-314 532-631 532-353 0-640-287-640-640 0-354 287-640 640-640zm2383-579L9170 340c166-61 350 24 410 190 61 165-24 349-190 410L6507 2002l-924-341zM7040 2240c-156 0-299 55-410 148L1070 340c-166-61-350 24-410 190-61 165 24 349 190 410l5559 2048c51 302 314 532 631 532 353 0 640-287 640-640 0-354-287-640-640-640z"/></svg>