<svg xmlns="http://www.w3.org/2000/svg" width="1024" height="1024" shape-rendering="geometricPrecision" text-rendering="geometricPrecision" image-rendering="optimizeQuality" clip-rule="evenodd" viewBox="0 0 10240 10240"><title>dude3 icon</title><desc>dude3 icon from the IconExperience.com O-Collection. Copyright by INCORS GmbH (www.incors.com).</desc><path fill="#76A797" d="M5950 7371l-510 2549h-640l-510-2551c60 20 123 31 189 33 226 5 435-101 554-295l90-146 90 146c119 194 328 300 554 295 63-2 125-12 183-31zM3649 5975c427 253 925 400 1457 402l-346 562c-59 96-160 145-273 143-113-3-209-59-267-156l-571-951zm2947 0c-426 253-925 400-1457 402l346 562c59 96 161 145 274 143 113-3 209-59 267-156l570-951z"/><path fill="gray" d="M8320 8790c0 681-1356 1015-2549 1105l577-2884 693-1156c777 670 1279 1735 1279 2935zM4469 9895c-1193-90-2549-424-2549-1104 0-1202 504-2269 1282-2939l687 1145 580 2898z"/><path fill="#EFC1B4" d="M4480 5120h1280v320H4480z"/><path fill="#EFC1B4" d="M7498 2564c117 292 182 611 182 945 0 1080-674 2002-1625 2374 16-38 25-79 25-123v-640c0-176-144-320-320-320H4480c-176 0-320 144-320 320v640c0 44 9 85 25 123-951-372-1625-1294-1625-2374 0-334 65-653 182-945h4756zm-446 1276v-640c0-176-144-320-320-320H3532c-176 0-320 144-320 320v640c0 176 144 320 320 320h960c176 0 320-144 320-320v-320c0-176 144-320 320-320s320 144 320 320v320c0 176 144 320 320 320h960c176 0 320-144 320-320z"/><path fill="gray" d="M1920 1924h960l231-1385c52-311 316-535 631-535h2756c315 0 579 224 631 535l231 1385h960v320H1920v-320z"/></svg>