<svg xmlns="http://www.w3.org/2000/svg" width="1024" height="1024" shape-rendering="geometricPrecision" text-rendering="geometricPrecision" image-rendering="optimizeQuality" clip-rule="evenodd" viewBox="0 0 10240 10240"><title>dude6 icon</title><desc>dude6 icon from the IconExperience.com O-Collection. Copyright by INCORS GmbH (www.incors.com).</desc><path fill="gray" d="M8320 8470c0 683-1365 1017-2560 1106V7360c0-814 1382-1398 1996-971 356 592 564 1308 564 2081zM4480 9576c-1195-89-2560-423-2560-1105 0-773 208-1490 564-2082 614-427 1996 157 1996 971v2216z"/><path fill="gray" d="M8008 6180c96-192 115-404-8-625-115-207-392-435-640-435h-109c-543 594-1312 939-2131 939s-1588-345-2131-939h-109c-248 0-525 228-640 435-123 221-104 433-8 625 8-7 16-14 25-21 430-337 1071-266 1543-62 508 221 1000 670 1000 1263v2234c110 4 217 6 320 6s210-2 320-6V7360c0-79 9-158 27-235 111-483 537-839 973-1028 472-204 1113-275 1543 62 9 7 17 14 25 21z"/><path fill="#EFC1B4" d="M7238 4622c-461 674-1238 1117-2118 1117s-1657-443-2118-1117c122-117 198-281 198-462V2240c0-54-7-108-20-160 398-690 1135-1120 1940-1120s1542 430 1940 1120c-13 52-20 106-20 160v1920c0 181 76 345 198 462zm-518-1422v-640c0-176-144-320-320-320H3840c-176 0-320 144-320 320v640c0 176 144 320 320 320h640c176 0 320-144 320-320v-320c0-176 144-320 320-320s320 144 320 320v320c0 176 144 320 320 320h640c176 0 320-144 320-320z"/><path fill="#4D82B8" d="M5120 320c1131 0 2109 652 2580 1600h300c353 0 640 287 640 640v1280c0 352-288 640-640 640h-320c-176 0-320-144-320-320V2240c0-66 20-127 54-177-419-843-1289-1423-2294-1423s-1875 580-2294 1423c34 50 54 111 54 177v1920c0 176-144 320-320 320h-320c-352 0-640-287-640-640V2560c0-353 287-640 640-640h300C3011 972 3989 320 5120 320z"/></svg>