<svg xmlns="http://www.w3.org/2000/svg" width="1024" height="1024" shape-rendering="geometricPrecision" text-rendering="geometricPrecision" image-rendering="optimizeQuality" clip-rule="evenodd" viewBox="0 0 10240 10240"><title>dude2 icon</title><desc>dude2 icon from the IconExperience.com O-Collection. Copyright by INCORS GmbH (www.incors.com).</desc><path fill="gray" d="M8320 8470c0 810-1920 1130-3200 1130s-3200-320-3200-1129c0-1760 582-2029 1663-2835 445 281 972 444 1537 444s1092-163 1537-444c1082 807 1663 1074 1663 2834z"/><path fill="#EFC1B4" d="M4480 4800h1280v320H4480z"/><path fill="#EFC1B4" d="M7680 3200c-5 1075-677 1992-1625 2363 16-38 25-79 25-123v-640c0-176-144-320-320-320H4480c-176 0-320 144-320 320v640c0 44 9 85 25 123-948-370-1620-1288-1625-2363h5120z"/><path fill="#E68497" d="M576 4487c414-614 1015-949 1683-966 50 426 194 828 414 1182-542 400-1226 502-1933 267-99-33-169-103-202-201-34-98-20-196 38-282zM5120 320c1414 0 2560 1141 2560 2549v11H2560v-11c0-1408 1146-2549 2560-2549zM680 2372c567-182 1117-148 1590 81-20 136-30 275-30 417v331c-388 12-756 116-1087 308-245-162-463-382-643-656-57-86-69-185-35-283 35-97 106-166 205-198z"/></svg>