<svg xmlns="http://www.w3.org/2000/svg" width="1024" height="1024" shape-rendering="geometricPrecision" text-rendering="geometricPrecision" image-rendering="optimizeQuality" clip-rule="evenodd" viewBox="0 0 10240 10240"><title>dug_well icon</title><desc>dug_well icon from the IconExperience.com O-Collection. Copyright by INCORS GmbH (www.incors.com).</desc><path fill="gray" d="M960 5120h960v1280H640v-960c0-176 144-320 320-320zm1280 0h2240v1280H2240V5120zm2560 0h2240v1280H4800V5120zm2560 0h1920c176 0 320 144 320 320v960H7360V5120zm2240 1600v1280h-960V6720h960zm0 1600v960c0 176-144 320-320 320H7360V8320h2240zM7040 9600H4800V8320h2240v1280zm-2560 0H2240V8320h2240v1280zm-2560 0H960c-176 0-320-144-320-320v-960h1280v1280zM640 8000V6720h2560v1280H640zm7680-1280H6080v1280h2240V6720zm-2560 0H3520v1280h2240V6720zM5920 2880c-88 0-160-72-160-160v-960c0-88 72-160 160-160s160 72 160 160v960c0 88-72 160-160 160zM4320 1760c0-88 72-160 160-160s160 72 160 160v3040h-320V1760zm640 1120c-88 0-160-72-160-160v-960c0-88 72-160 160-160s160 72 160 160v960c0 88-72 160-160 160zm480 0c-88 0-160-72-160-160v-960c0-88 72-160 160-160s160 72 160 160v960c0 88-72 160-160 160z"/><path fill="#B89A7C" d="M2880 1920h1280v640H2880v-640zm3360 0h1120v640H6240v-640zM8320 1280c353 0 640 288 640 640v2880H7680V1920c0-352 288-640 640-640zm-6400 0c353 0 640 288 640 640v2880H1280V1920c0-352 288-640 640-640z"/></svg>