<svg xmlns="http://www.w3.org/2000/svg" width="1024" height="1024" shape-rendering="geometricPrecision" text-rendering="geometricPrecision" image-rendering="optimizeQuality" clip-rule="evenodd" viewBox="0 0 10240 10240"><title>dump_truck icon</title><desc>dump_truck icon from the IconExperience.com O-Collection. Copyright by INCORS GmbH (www.incors.com).</desc><path fill="gray" d="M8320 7040c-530 0-960 430-960 960s430 960 960 960 960-430 960-960-430-960-960-960zm-6400 640c-177 0-320 143-320 320s143 320 320 320 320-143 320-320-143-320-320-320zm6400 0c177 0 320 143 320 320s-143 320-320 320-320-143-320-320 143-320 320-320zm-4480 0c-177 0-320 143-320 320s143 320 320 320 320-143 320-320-143-320-320-320zm-1920-640c530 0 960 430 960 960 0-530 430-960 960-960s960 430 960 960-430 960-960 960-960-430-960-960c0 530-430 960-960 960s-960-430-960-960 430-960 960-960z"/><path fill="#4D82B8" d="M2117 3840h2852c104 0 193-21 286-68l370-184c93-47 182-68 286-68h1129c88 0 160 72 160 160s-72 160-160 160c-352 0-640 288-640 640l1 1921c0 176-144 319-320 319H1600c-190 0-353 73-479 215-59 67-143 105-237 105H639c-114 0-212-55-272-152s-65-209-14-311l1192-2383c111-222 323-354 572-354zm1723 2240h678l800-1600h-678l-800 1600zm1920-1280l-640 1280h640V4800zM2560 6080h687l800-1600h-687l-800 1600zm-1318 0h678l800-1600h-678l-800 1600z"/><path fill="gray" d="M6720 7040V4480c0-176 144-320 320-320h1524c249 0 452 137 573 354l715 1280c51 90 68 182 68 286v1920h-320c0-707-573-1280-1280-1280s-1280 573-1280 1280c0 110 14 218 40 320H5080c26-102 40-210 40-320 0-382-168-725-434-960h2034zm640-2240v1280h1920l-716-1280H7360z"/></svg>