<svg xmlns="http://www.w3.org/2000/svg" width="1024" height="1024" shape-rendering="geometricPrecision" text-rendering="geometricPrecision" image-rendering="optimizeQuality" clip-rule="evenodd" viewBox="0 0 10240 10240"><title>dynamite icon</title><desc>dynamite icon from the IconExperience.com O-Collection. Copyright by INCORS GmbH (www.incors.com).</desc><path fill="#E68497" d="M8641 3831c707 0 1280 860 1280 1920 0 1061-573 1920-1280 1920H3521c-575 0-1062-569-1223-1353 245 53 498 72 749 78 117 194 286 315 474 315 354 0 640-430 640-960s-286-960-640-960c-190 0-360 124-478 322-249-15-507-56-645-171-10-8-20-18-29-27 207-642 645-1084 1152-1084h5120z"/><path fill="gray" d="M3840 5755v5c0 6 0 12-1 19-9 252-148 452-319 452-92 0-175-58-233-152-965-6-1872-97-1993-1308 99 19 201 29 306 29 119 0 236-11 348-35 132 598 705 666 1329 674 59-103 146-168 243-168 177 0 320 215 320 480v4z"/><path fill="#ED9A56" d="M1173 640c1147 560 1707 1520 1707 2560 0 701-564 1271-1263 1280 345-9 623-292 623-640 0-500-793-760-453-1373-427 333-827 780-827 1373 0 348 278 631 623 640-699-9-1263-579-1263-1280 0-1280 1440-1440 853-2560z"/></svg>