<svg xmlns="http://www.w3.org/2000/svg" width="1024" height="1024" shape-rendering="geometricPrecision" text-rendering="geometricPrecision" image-rendering="optimizeQuality" clip-rule="evenodd" viewBox="0 0 10240 10240"><title>easel icon</title><desc>easel icon from the IconExperience.com O-Collection. Copyright by INCORS GmbH (www.incors.com).</desc><path fill="#EDC87E" d="M1920 1920h1920v320c0 116 31 226 86 320H2560v3840h5120V2560H6314c55-94 86-204 86-320v-320h1920v5120H1920V1920z"/><path fill="#B89A7C" d="M7983 9500c55 167-36 347-203 402-167 56-347-35-402-202l-247-740H3128l-267 747c-59 167-242 254-408 194-167-59-254-242-194-409l761-2132h680l-343 960h1443v-960h640v960h1477l-319-960h671l714 2140zM4800 640h640v960h640v640c0 176-144 320-320 320H4480c-176 0-320-144-320-320v-640h640V640z"/></svg>