<svg xmlns="http://www.w3.org/2000/svg" width="1024" height="1024" shape-rendering="geometricPrecision" text-rendering="geometricPrecision" image-rendering="optimizeQuality" clip-rule="evenodd" viewBox="0 0 10240 10240"><title>easel_empty icon</title><desc>easel_empty icon from the IconExperience.com O-Collection. Copyright by INCORS GmbH (www.incors.com).</desc><path fill="#B89A7C" d="M5440 4374v2346h-640V4374l-853 2346h-679l1396-3840h912l1396 3840h-679l-853-2346zm-660-1814h-300c-176 0-320-144-320-320v-640h640V640h640v960h640v640c0 176-144 320-320 320h-980zm2900 4480v640h-359l659 1811c60 166-26 349-191 409-166 60-349-26-409-191l-272-749H3132l-272 749c-60 165-243 251-409 191-165-60-251-243-191-409l659-1811h-359v-640h5120zm-2240 640v640h1435l-233-640H5440zm-2075 640h1435v-640H3598l-233 640z"/></svg>