<svg xmlns="http://www.w3.org/2000/svg" width="1024" height="1024" shape-rendering="geometricPrecision" text-rendering="geometricPrecision" image-rendering="optimizeQuality" clip-rule="evenodd" viewBox="0 0 10240 10240"><title>eightball icon</title><desc>eightball icon from the IconExperience.com O-Collection. Copyright by INCORS GmbH (www.incors.com).</desc><path fill="gray" d="M5120 3520c530 0 960 430 960 960 0 247-93 472-246 642 160 171 257 401 257 654 0 530-429 960-960 960-530 0-960-430-960-960 0-247 94-472 247-642-160-171-258-401-258-654 0-530 430-960 960-960zm0 1920c-177 0-320 143-320 320s143 320 320 320 320-143 320-320-143-320-320-320zm0-1280c-177 0-320 143-320 320s143 320 320 320 320-143 320-320-143-320-320-320z"/><path fill="gray" d="M5120 640c2474 0 4480 2006 4480 4480S7594 9600 5120 9600 640 7594 640 5120 2646 640 5120 640zm0 640c-2121 0-3840 1719-3840 3840 0 200 15 397 45 589 30 195 205 299 394 261 161-40 264-195 239-359-25-160-38-324-38-491 0-1767 1433-3200 3200-3200 167 0 331 13 491 38 164 25 319-78 359-239 32-192-60-363-261-394-192-30-389-45-589-45zm0 1920c-1060 0-1920 860-1920 1920s860 1920 1920 1920 1920-860 1920-1920-860-1920-1920-1920z"/></svg>