<svg xmlns="http://www.w3.org/2000/svg" width="1024" height="1024" shape-rendering="geometricPrecision" text-rendering="geometricPrecision" image-rendering="optimizeQuality" clip-rule="evenodd" viewBox="0 0 10240 10240"><title>element_branch2 icon</title><desc>element_branch2 icon from the IconExperience.com O-Collection. Copyright by INCORS GmbH (www.incors.com).</desc><path fill="gray" d="M5770 6415v1057l-4 1-1296-1728V4688l4-1z"/><path fill="gray" d="M5503 3541L4474 4913l-4-1V3855l970-1293v638c0 120 22 235 63 341zM6400 5760h2880c352 0 640 288 640 640v1920c0 352-288 640-640 640H6400c-352 0-640-287-640-640V6400c0-353 287-640 640-640zm0 640v1920h2880V6400H6400z"/><path fill="#4D82B8" d="M6400 640h2880c352 0 640 288 640 640v1920c0 352-288 640-640 640H6400c-352 0-640-288-640-640V1280c0-353 287-640 640-640z"/><path fill="gray" d="M960 3200h2880c353 0 640 288 640 640v1920c0 352-288 640-640 640H960c-352 0-640-287-640-640V3840c0-353 288-640 640-640zm0 640v1920h2880V3840H960z"/></svg>