<svg xmlns="http://www.w3.org/2000/svg" width="1024" height="1024" shape-rendering="geometricPrecision" text-rendering="geometricPrecision" image-rendering="optimizeQuality" clip-rule="evenodd" viewBox="0 0 10240 10240"><title>elements2 icon</title><desc>elements2 icon from the IconExperience.com O-Collection. Copyright by INCORS GmbH (www.incors.com).</desc><path fill="gray" d="M3200 5760h3840c353 0 640 287 640 640v2560c0 352-287 640-640 640H3200c-352 0-640-287-640-640V6400c0-353 287-640 640-640zm0 640v2560h3840V6400H3200zM3200 1280h3840c353 0 640 288 640 640v2560c0 352-287 640-640 640H3200c-352 0-640-287-640-640V1920c0-353 287-640 640-640zm0 640v2560h3840V1920H3200z"/></svg>