<svg xmlns="http://www.w3.org/2000/svg" width="1024" height="1024" shape-rendering="geometricPrecision" text-rendering="geometricPrecision" image-rendering="optimizeQuality" clip-rule="evenodd" viewBox="0 0 10240 10240"><title>elements_tree icon</title><desc>elements_tree icon from the IconExperience.com O-Collection. Copyright by INCORS GmbH (www.incors.com).</desc><path fill="gray" d="M4490 4800v640H3200v2560h1290v640H2880c-177 0-320-143-320-320V3190h640v1610h1290z"/><path fill="gray" d="M5120 7040h1920c353 0 640 288 640 640v1280c0 352-288 640-640 640H5120c-352 0-640-287-640-640V7680c0-353 287-640 640-640zm0 640v1280h1920V7680H5120zM5120 3840h1920c353 0 640 288 640 640v1280c0 352-288 640-640 640H5120c-352 0-640-288-640-640V4480c0-353 287-640 640-640zm0 640v1280h1920V4480H5120zM1920 640h1920c353 0 640 288 640 640v1280c0 352-288 640-640 640H1920c-352 0-640-288-640-640V1280c0-353 287-640 640-640zm0 640v1280h1920V1280H1920z"/></svg>