<svg xmlns="http://www.w3.org/2000/svg" width="1024" height="1024" shape-rendering="geometricPrecision" text-rendering="geometricPrecision" image-rendering="optimizeQuality" clip-rule="evenodd" viewBox="0 0 10240 10240"><title>elements_cascade icon</title><desc>elements_cascade icon from the IconExperience.com O-Collection. Copyright by INCORS GmbH (www.incors.com).</desc><path fill="gray" d="M6410 8000v640h-970c-177 0-320-143-320-320V6390h640v1610h650zM3850 4800v640h-970c-177 0-320-143-320-320V3190h640v1610h650z"/><path fill="gray" d="M7040 7680h1920v1280H7040V7680zm0-640c-353 0-640 287-640 640v1280c0 353 288 640 640 640h1920c352 0 640-288 640-640V7680c0-352-287-640-640-640H7040zM4480 3840h1920c353 0 640 288 640 640v1280c0 352-288 640-640 640H4480c-352 0-640-288-640-640V4480c0-353 287-640 640-640zm0 640v1280h1920V4480H4480zM1920 640h1920c353 0 640 288 640 640v1280c0 352-288 640-640 640H1920c-352 0-640-288-640-640V1280c0-353 287-640 640-640zm0 640v1280h1920V1280H1920z"/></svg>