<svg xmlns="http://www.w3.org/2000/svg" width="1024" height="1024" shape-rendering="geometricPrecision" text-rendering="geometricPrecision" image-rendering="optimizeQuality" clip-rule="evenodd" viewBox="0 0 10240 10240"><title>emoticon_surprised icon</title><desc>emoticon_surprised icon from the IconExperience.com O-Collection. Copyright by INCORS GmbH (www.incors.com).</desc><path fill="gray" d="M5120 5760c1237 0 2240 645 2240 1440S6357 8640 5120 8640s-2240-645-2240-1440 1003-1440 2240-1440zm0 640c-884 0-1600 358-1600 800s716 800 1600 800 1600-358 1600-800-716-800-1600-800zM6560 3200c442 0 800 358 800 800s-358 800-800 800-800-358-800-800 358-800 800-800zm-2880 0c442 0 800 358 800 800s-358 800-800 800-800-358-800-800 358-800 800-800z"/><path fill="#EDC87E" d="M5120 640c2474 0 4480 2006 4480 4480S7594 9600 5120 9600 640 7594 640 5120 2646 640 5120 640zm0 640c-2121 0-3840 1719-3840 3840s1719 3840 3840 3840 3840-1719 3840-3840-1719-3840-3840-3840z"/></svg>