<svg xmlns="http://www.w3.org/2000/svg" width="1024" height="1024" shape-rendering="geometricPrecision" text-rendering="geometricPrecision" image-rendering="optimizeQuality" clip-rule="evenodd" viewBox="0 0 10240 10240"><title>emoticon_kiss icon</title><desc>emoticon_kiss icon from the IconExperience.com O-Collection. Copyright by INCORS GmbH (www.incors.com).</desc><path fill="#E68497" d="M5120 5760c320 0 640-320 960 0s320 640 640 640c-640 320-320 1600-1600 1600s-960-1280-1600-1600c320 0 320-320 640-640s640 0 960 0zm320 640h-640c0 492 143 640 320 640s320-148 320-640z"/><path fill="gray" d="M6560 3200c442 0 800 358 800 800s-358 800-800 800-800-358-800-800 358-800 800-800zm-2880 0c442 0 800 358 800 800s-358 800-800 800-800-358-800-800 358-800 800-800z"/><path fill="#EDC87E" d="M5120 640c2474 0 4480 2006 4480 4480S7594 9600 5120 9600 640 7594 640 5120 2646 640 5120 640zm0 640c-2121 0-3840 1719-3840 3840s1719 3840 3840 3840 3840-1719 3840-3840-1719-3840-3840-3840z"/></svg>