<svg xmlns="http://www.w3.org/2000/svg" width="1024" height="1024" shape-rendering="geometricPrecision" text-rendering="geometricPrecision" image-rendering="optimizeQuality" clip-rule="evenodd" viewBox="0 0 10240 10240"><title>engineer icon</title><desc>engineer icon from the IconExperience.com O-Collection. Copyright by INCORS GmbH (www.incors.com).</desc><path fill="gray" d="M4480 9280l394-2166-207-207c-124-124-187-276-187-452v-126c206 46 420 71 640 71s434-25 640-71v126c0 176-63 328-187 452l-207 207 394 2166-640 640-640-640z"/><path fill="#4D82B8" d="M8320 8790c0 717-1502 1050-2734 1117l400-400c77-77 108-177 89-284l-364-2001 88-88c184-185 281-418 281-679v-52-74c0-31-4-61-12-89 209-72 406-168 589-284 1082 807 1663 1074 1663 2834zM4654 9907c-1232-67-2734-400-2734-1116 0-1759 582-2029 1663-2835 183 116 381 212 589 284-8 28-12 58-12 89v126c0 261 97 494 281 679l88 88-364 2001c-19 107 12 207 89 284l400 400z"/><path fill="#EFC1B4" d="M7677 3634c-66 1350-1185 2425-2557 2425S2629 4984 2563 3634l966 457c158 75 285 69 452 69h2278c167 0 294 6 452-69l966-457z"/><path fill="gray" d="M7655 2527l314 344c52 57 35 147-21 202l-103 102c-87 85-191 115-302 168l-969 459c-101 47-203 38-315 38H3981c-112 0-214 9-315-38l-969-459c-111-53-215-83-302-168l-103-102c-56-55-73-145-21-202l314-344c105-752 536-1399 1147-1794-1 55 5 110 19 165l374 1497c71 287 325 485 621 485h780c295 0 549-198 621-485l374-1497c12-48 18-96 19-144 593 396 1012 1034 1115 1773zM4088 541l3-5 1-1 3-4 1-1 3-5h1l2-3 2-2 2-3 2-2 3-3 1-1 3-3 2-3h1l2-3 2-2h1l2-2 2-2 1-1 2-2 2-2h1l3-3 2-2 3-2 1-1 2-1 2-3 3-1v-1l3-2 3-2 3-2 2-2h1l3-2 1-1 1-1 4-2 1-1 2-1 3-2 3-2 5-3 6-3 2-1 5-3 7-3 6-3v-1h1l5-2 1-1h1l6-3 7-2h1v-1c5-1 9-3 14-4v-1h1c4-1 9-3 13-4h2l1-1 6-1 8-2c271-64 556-98 849-98s577 34 849 98l7 2h1l6 1 1 1h1c4 1 9 3 13 4l2 1 6 2h1l7 2v1l7 2 6 3h1l1 1 6 2v1l6 2 2 1 5 3h1l6 3 1 1 5 3h1v1l5 2 1 1h1l4 3 1 1h1l5 3v1h1l5 4 3 2 3 2 1 1 5 3 1 1 5 4 4 4h1v1h1l4 4h1l5 5 5 5 3 3v1l3 2 3 3 1 1v1l2 2 2 2 1 1 2 2 1 1 1 2 3 3 2 2v1l2 2v1l2 2 2 3 2 3 2 3 2 2v1l2 3c39 58 52 130 31 200l-374 1283c-36 124-161 208-310 208h-780c-149 0-275-84-311-208L4051 749c-21-74-6-148 37-208z"/></svg>