<svg xmlns="http://www.w3.org/2000/svg" width="1024" height="1024" shape-rendering="geometricPrecision" text-rendering="geometricPrecision" image-rendering="optimizeQuality" clip-rule="evenodd" viewBox="0 0 10240 10240"><title>envelope2 icon</title><desc>envelope2 icon from the IconExperience.com O-Collection. Copyright by INCORS GmbH (www.incors.com).</desc><path fill="#EDC87E" d="M1920 640h6400c353 0 640 287 640 640v7680c0 353-287 640-640 640H1920c-353 0-640-287-640-640V1280c0-353 287-640 640-640zm231 640l1049 1280h3840l1049-1280H2151zm6169 240l-776 1358c-117 204-319 322-555 322H3251c-236 0-438-118-555-322l-776-1358v7134l768-734c145-139 299-240 500-240h3864c201 0 355 101 500 240l768 734V1520zm-281 7440l-737-840c-65-81-146-120-250-120H3188c-104 0-185 39-250 120l-737 840h5838z"/></svg>