<svg xmlns="http://www.w3.org/2000/svg" width="1024" height="1024" shape-rendering="geometricPrecision" text-rendering="geometricPrecision" image-rendering="optimizeQuality" clip-rule="evenodd" viewBox="0 0 10240 10240"><title>environment icon</title><desc>environment icon from the IconExperience.com O-Collection. Copyright by INCORS GmbH (www.incors.com).</desc><path fill="gray" d="M5120 640c2474 0 4480 2006 4480 4480S7594 9600 5120 9600 640 7594 640 5120 2646 640 5120 640zm1606 991c189 267 356 580 495 929h761c-349-389-776-707-1256-929zm-175 929c-284-635-672-1079-1111-1227v1227h1111zm1895 640H7433c134 491 217 1031 240 1600h1274c-48-579-225-1122-501-1600zM7033 4800c-24-579-112-1122-250-1600H5440v1600h1593zm1914 640H7673c-23 569-106 1109-240 1600h1013c276-478 453-1021 501-1600zM6783 7040c138-478 226-1021 250-1600H5440v1600h1343zm1199 640h-761c-139 349-306 662-495 929 480-222 907-540 1256-929zM5440 8907c439-148 827-592 1111-1227H5440v1227zm-1926-298c-189-267-356-580-495-929h-761c349 389 776 707 1256 929zm175-929c284 635 672 1079 1111 1227V7680H3689zm-1895-640h1013c-134-491-217-1031-240-1600H1293c48 579 225 1122 501 1600zm1413-1600c24 579 112 1122 250 1600h1343V5440H3207zm-1914-640h1274c23-569 106-1109 240-1600H1794c-276 478-453 1021-501 1600zm2164-1600c-138 478-226 1021-250 1600h1593V3200H3457zm-1199-640h761c139-349 306-662 495-929-480 222-907 540-1256 929zm2542-1227c-439 148-827 592-1111 1227h1111V1333z"/></svg>