<svg xmlns="http://www.w3.org/2000/svg" width="1024" height="1024" shape-rendering="geometricPrecision" text-rendering="geometricPrecision" image-rendering="optimizeQuality" clip-rule="evenodd" viewBox="0 0 10240 10240"><title>environment_network icon</title><desc>environment_network icon from the IconExperience.com O-Collection. Copyright by INCORS GmbH (www.incors.com).</desc><path fill="#4D82B8" d="M5440 8640c176 0 320 144 320 320h1280v640H5760c0 176-144 320-320 320h-640c-176 0-320-144-320-320H3200v-640h1280c0-176 144-320 320-320v-332c106 8 212 12 320 12s214-4 320-12v332z"/><path fill="gray" d="M8960 4160c0 2121-1719 3840-3840 3840S1280 6281 1280 4160 2999 320 5120 320s3840 1719 3840 3840zM6664 1356c110 180 204 369 284 564h457c-218-223-468-413-741-564zm1228 1204h-731c104 395 170 826 191 1280h952c-46-463-190-897-412-1280zm412 1920h-952c-21 454-87 885-191 1280h731c222-383 366-817 412-1280zm-899 1920h-457c-80 195-174 384-284 564 273-151 523-341 741-564zm-3829 564c-110-180-204-369-284-564h-457c218 223 468 413 741 564zM2348 5760h731c-104-395-170-826-191-1280h-952c46 463 190 897 412 1280zm-412-1920h952c21-454 87-885 191-1280h-731c-222 383-366 817-412 1280zm899-1920h457c58-142 122-276 190-402 31-55 62-109 94-162-273 151-523 341-741 564zm693 1920h1272V2560H3741c-115 384-189 817-213 1280zm1912 0h1272c-24-463-98-896-213-1280H5440v1280zm1272 640H5440v1280h1059c115-384 189-817 213-1280zm-1912 0H3528c24 463 98 896 213 1280h1059V4480zm-808-2560h808v-891c-363 158-635 547-808 891zm1448 0h808c-16-33-33-65-50-97-213-390-475-671-758-794v891zm808 4480h-808v891c363-158 635-547 808-891zm-1448 0h-808c173 344 445 733 808 891v-891z"/></svg>