<svg xmlns="http://www.w3.org/2000/svg" width="1024" height="1024" shape-rendering="geometricPrecision" text-rendering="geometricPrecision" image-rendering="optimizeQuality" clip-rule="evenodd" viewBox="0 0 10240 10240"><title>excavator icon</title><desc>excavator icon from the IconExperience.com O-Collection. Copyright by INCORS GmbH (www.incors.com).</desc><path fill="gray" d="M5120 8000c177 0 320 143 320 320s-143 320-320 320-320-143-320-320 143-320 320-320zm-3533-3c177 0 320 143 320 320s-143 320-320 320-320-143-320-320 143-320 320-320z"/><path fill="gray" d="M5120 7040c707 0 1280 573 1280 1280s-573 1280-1280 1280H1600c-707 9-1280-573-1280-1280s573-1280 1280-1280h3520zm3 1920c352-2 637-287 637-640 0-354-286-640-640-640H1600c-354 0-640 286-640 640 0 348 279 644 632 640h3531z"/><path fill="#EDC87E" d="M320 5120c0-320 320-640 960-640h676c43 155 126 294 245 414l905 905c185 184 418 281 679 281h802c213 0 405-64 576-192l170-128h427c176 0 320 144 320 320v320c0 176-144 320-320 320H640c-176 0-320-144-320-320V5120z"/><path fill="gray" d="M7046 6960h-6c-198 0-360 162-360 360s162 360 360 360h1365c1171 0 2341-1716 715-2632V3520h-1c0-230-166-433-400-473l-1920-320v2c-130-22-267 10-377 98l-641 513 384 864c6 13 11 26 16 38l669-535 1310 219v1251l-792 1584c-63 125-182 199-322 199zM2880 1920h1504c259 0 480 144 585 380l904 2034c123 276 41 591-201 772l-701 526c-116 87-240 128-384 128h-802c-176 0-328-63-452-187l-906-906c-124-124-187-276-187-452V2560c0-353 287-640 640-640zm0 640v1600l320 320h2037l-853-1920H2880z"/></svg>