<svg xmlns="http://www.w3.org/2000/svg" width="1024" height="1024" shape-rendering="geometricPrecision" text-rendering="geometricPrecision" image-rendering="optimizeQuality" clip-rule="evenodd" viewBox="0 0 10240 10240"><title>eye icon</title><desc>eye icon from the IconExperience.com O-Collection. Copyright by INCORS GmbH (www.incors.com).</desc><path fill="gray" d="M5120 4160c530 0 960 430 960 960s-430 960-960 960-960-430-960-960c0-68 7-135 21-199 65 27 136 42 211 42 304 0 551-247 551-552 0-80-17-156-48-224 72-18 148-27 225-27z"/><path fill="#4D82B8" d="M5120 2560c1414 0 2560 1146 2560 2560S6534 7680 5120 7680 2560 6534 2560 5120s1146-2560 2560-2560zm0 1280c-164 0-321 31-465 87-78-43-168-67-263-67-305 0-552 247-552 551 0 101 27 196 75 278-49 134-75 280-75 431 0 707 573 1280 1280 1280s1280-573 1280-1280-573-1280-1280-1280z"/><path fill="gray" d="M9854 5425c-842 1901-2645 3215-4734 3215S1228 7326 386 5425c-88-199-88-411 0-610 842-1901 2645-3215 4734-3215s3892 1314 4734 3215c88 199 88 411 0 610zM5120 8000c1578 0 2964-894 3791-2192 274-430 274-946 0-1376-827-1298-2213-2192-3791-2192s-2964 894-3791 2192c-274 429-274 947 0 1376 825 1295 2209 2192 3791 2192z"/></svg>