<svg xmlns="http://www.w3.org/2000/svg" width="1024" height="1024" shape-rendering="geometricPrecision" text-rendering="geometricPrecision" image-rendering="optimizeQuality" clip-rule="evenodd" viewBox="0 0 10240 10240"><title>eye_scan icon</title><desc>eye_scan icon from the IconExperience.com O-Collection. Copyright by INCORS GmbH (www.incors.com).</desc><path fill="gray" d="M5120 4160c530 0 960 430 960 960s-430 960-960 960-960-430-960-960c0-116 21-228 59-331 32 7 66 11 101 11 265 0 480-215 480-480 0-35-4-69-11-101 103-38 215-59 331-59z"/><path fill="#4D82B8" d="M5120 2560c1414 0 2560 1146 2560 2560S6534 7680 5120 7680 2560 6534 2560 5120s1146-2560 2560-2560zm0 1280c-179 0-349 37-503 103-82-65-185-103-297-103-265 0-480 215-480 480 0 112 38 215 103 297-66 154-103 324-103 503 0 707 573 1280 1280 1280s1280-573 1280-1280-573-1280-1280-1280z"/><path fill="gray" d="M8640 7179c-781 763-1778 1275-2880 1419v-648c1154-180 2167-837 2880-1757v986zM4480 8598c-1102-144-2099-656-2880-1419v-986c711 918 1724 1577 2880 1757v648zm4160-4551c-713-920-1726-1577-2880-1757v-648c1102 144 2099 656 2880 1419v986zM4480 2290c-1154 180-2167 837-2880 1757v-986c781-763 1778-1275 2880-1419v648z"/><path fill="gray" d="M960 640h8320c176 0 320 144 320 320v8320c0 176-144 320-320 320H960c-176 0-320-144-320-320V960c0-176 144-320 320-320zm3840 7360h640v960h3520V1280H5440v960h-640v-960H1280v3520h960v640h-960v3520h3520v-960zm3200-2560v-640h960v640h-960z"/></svg>