<svg xmlns="http://www.w3.org/2000/svg" width="1024" height="1024" shape-rendering="geometricPrecision" text-rendering="geometricPrecision" image-rendering="optimizeQuality" clip-rule="evenodd" viewBox="0 0 10240 10240"><title>feeding_bottle icon</title><desc>feeding_bottle icon from the IconExperience.com O-Collection. Copyright by INCORS GmbH (www.incors.com).</desc><path fill="gray" d="M7360 4800v3840c0 529-431 960-960 960H3840c-529 0-960-431-960-960V4800c0-529 431-960 960-960h2560c529 0 960 431 960 960zm-3840 0v320h800c88 0 160 72 160 160v320c0 88-72 160-160 160h-800v640h800c88 0 160 72 160 160v320c0 88-72 160-160 160h-800v640h800c88 0 160 72 160 160v320c0 88-72 160-160 160h-800v320c0 175 145 320 320 320h2560c176 0 320-145 320-320V4800c0-176-144-320-320-320H3840c-176 0-320 144-320 320z"/><path fill="#EDC87E" d="M4693 1920c0-96-27-179-85-256-80-107-128-240-128-384 0-353 287-640 640-640s640 287 640 640c0 144-48 277-128 384-58 77-85 160-85 256 0 18 0 34 2 50 384 102 531 346 531 590 353 0 640 288 640 640 0 176-144 320-320 320H3840c-176 0-320-144-320-320 0-353 287-640 640-640 0-244 147-488 531-590 2-16 2-32 2-50z"/></svg>