<svg xmlns="http://www.w3.org/2000/svg" width="1024" height="1024" shape-rendering="geometricPrecision" text-rendering="geometricPrecision" image-rendering="optimizeQuality" clip-rule="evenodd" viewBox="0 0 10240 10240"><title>film_cartridge icon</title><desc>film_cartridge icon from the IconExperience.com O-Collection. Copyright by INCORS GmbH (www.incors.com).</desc><path fill="#EDC87E" d="M640 2880h4480v5120H640V2880zm960 640c-177 0-320 143-320 320v3200c0 177 143 320 320 320s320-143 320-320V3840c0-177-143-320-320-320z"/><path fill="gray" d="M480 8320h4800c88 0 160 72 160 160v320c0 88-72 160-160 160H480c-88 0-160-72-160-160v-320c0-88 72-160 160-160zm1440-6400v-320c0-176 144-320 320-320h1280c176 0 320 144 320 320v320h1440c88 0 160 72 160 160v320c0 88-72 160-160 160H480c-88 0-160-72-160-160v-320c0-88 72-160 160-160h1440zM5440 2880h3840c353 0 640 288 640 640v1920c0 352-288 640-640 640h-320c-352 0-640 288-640 640v640c0 352-288 640-640 640H5440V2880zm1600 4160v640h640v-640h-640zM5760 3200v640h640v-640h-640zm1280 0v640h640v-640h-640zm1280 0v640h640v-640h-640zM5760 7040v640h640v-640h-640z"/></svg>