<svg xmlns="http://www.w3.org/2000/svg" width="1024" height="1024" shape-rendering="geometricPrecision" text-rendering="geometricPrecision" image-rendering="optimizeQuality" clip-rule="evenodd" viewBox="0 0 10240 10240"><title>find_again icon</title><desc>find_again icon from the IconExperience.com O-Collection. Copyright by INCORS GmbH (www.incors.com).</desc><path fill="gray" d="M2560 6720c530 0 960 430 960 960s-430 960-960 960-960-430-960-960c0-98 15-193 42-283 76 167 243 283 438 283 265 0 480-215 480-480 0-195-116-362-283-438 90-27 185-42 283-42zm4480 0c530 0 960 430 960 960s-430 960-960 960-960-430-960-960c0-98 15-193 42-283 76 167 243 283 438 283 265 0 480-215 480-480 0-195-116-362-283-438 90-27 185-42 283-42z"/><path fill="gray" d="M3361 3840c315 0 659 185 882 468 175-90 373-141 584-141 92 0 182 10 268 28-26 100-21 208 21 309 75 180 248 296 443 296h1159c229 0 436-74 608-217l1353 2125c231 364 281 712 281 972 0 1060-860 1920-1920 1920-973 0-1776-723-1903-1661-105 39-218 61-337 61s-232-22-337-61c-127 938-930 1661-1903 1661-1060 0-1920-860-1920-1920 0-260 50-608 267-950l1475-2316c211-331 458-574 977-574h2zm3679 2560c-707 0-1280 573-1280 1280s573 1280 1280 1280 1280-573 1280-1280-573-1280-1280-1280zm-4480 0c-707 0-1280 573-1280 1280s573 1280 1280 1280 1280-573 1280-1280-573-1280-1280-1280z"/><path fill="#4D82B8" d="M7175 827l1504 1505c125 124 125 328 0 452L7171 4293c-125 124-277 187-453 187H5559c-66 0-122-38-148-99-25-61-12-127 35-174l1009-1009-695 2H4028c-176 0-336 72-452 188-41 41-76 87-105 137-37-3-74-5-111-5-584 0-946 247-1248 722l-4 7v-409c0-529 215-1009 563-1357 347-348 827-563 1357-563 1085 0 1342-2 2427-2L5451 913c-47-47-60-113-35-174s82-99 148-99h1158c177 0 328 63 453 187z"/></svg>