<svg xmlns="http://www.w3.org/2000/svg" width="1024" height="1024" shape-rendering="geometricPrecision" text-rendering="geometricPrecision" image-rendering="optimizeQuality" clip-rule="evenodd" viewBox="0 0 10240 10240"><title>find_text icon</title><desc>find_text icon from the IconExperience.com O-Collection. Copyright by INCORS GmbH (www.incors.com).</desc><path fill="#4D82B8" d="M7680 6399h1280c353 0 640 287 640 640v160h-640c0-88-72-160-160-160h-960c-88 0-160 72-160 160v1600c0 88 72 160 160 160h960c88 0 160-72 160-160h640v160c0 352-287 640-640 640H7680c-352 0-640-288-640-640V7039c0-353 288-640 640-640zM5440 6399c530 0 960 429 960 960 0 246-92 470-245 640 153 170 245 394 245 640 0 530-430 960-960 960H4000c-88 0-160-72-160-160V6559c0-88 72-160 160-160h1440zm-960 1920v640h960c176 0 320-144 320-320 0-177-144-320-320-320h-960zm0-1280v640h960c176 0 320-144 320-320 0-177-144-320-320-320h-960zM1294 8320h1252c-40-444-164-874-347-1280h-558c-183 406-307 836-347 1280zm1266 640H1280v640H640v-960c0-726 192-1416 515-2063 56-111 168-176 285-176h960c117 0 229 65 285 176 323 647 515 1337 515 2063v960h-640v-640z"/><path fill="gray" d="M7360 3200c530 0 960 430 960 960s-430 960-960 960-960-430-960-960c0-98 15-193 42-283 76 167 243 283 438 283 265 0 480-215 480-480 0-195-116-362-283-438 90-27 185-42 283-42zm-4480 0c530 0 960 430 960 960s-430 960-960 960-960-430-960-960c0-98 15-193 42-283 76 167 243 283 438 283 265 0 480-215 480-480 0-195-116-362-283-438 90-27 185-42 283-42z"/><path fill="gray" d="M3681 320c315 0 659 185 882 468 167-86 356-137 557-141 201 4 390 55 557 141 223-283 567-468 882-468h2c519 0 766 243 977 574l1475 2316c217 342 267 690 267 950 0 1060-904 1920-1920 1920s-1776-723-1903-1661c-105 39-218 61-337 61s-232-22-337-61c-127 938-930 1661-1903 1661-1060 0-1920-860-1920-1920 0-260 50-608 267-950L2702 894c211-331 458-574 977-574h2zm3679 2560c-707 0-1280 573-1280 1280s573 1280 1280 1280 1280-573 1280-1280-573-1280-1280-1280zm-4480 0c-707 0-1280 573-1280 1280s573 1280 1280 1280 1280-573 1280-1280-573-1280-1280-1280z"/></svg>