<svg xmlns="http://www.w3.org/2000/svg" width="1024" height="1024" shape-rendering="geometricPrecision" text-rendering="geometricPrecision" image-rendering="optimizeQuality" clip-rule="evenodd" viewBox="0 0 10240 10240"><title>fire_truck icon</title><desc>fire_truck icon from the IconExperience.com O-Collection. Copyright by INCORS GmbH (www.incors.com).</desc><path fill="gray" d="M8000 7040c-530 0-960 430-960 960s430 960 960 960 960-430 960-960-430-960-960-960zm-6400 640c-177 0-320 143-320 320s143 320 320 320 320-143 320-320-143-320-320-320zm6400 0c177 0 320 143 320 320s-143 320-320 320-320-143-320-320 143-320 320-320zm-4480 0c-177 0-320 143-320 320s143 320 320 320 320-143 320-320-143-320-320-320zm0-640c530 0 960 430 960 960s-430 960-960 960-960-430-960-960c0 530-430 960-960 960s-960-430-960-960 430-960 960-960 960 430 960 960c0-530 430-960 960-960z"/><path fill="#E68497" d="M3520 6400V4800c0-353-288-640-640-640H1600c-352 0-640 288-640 640v1600H640c-176 0-320 144-320 320v1280c0-707 573-1280 1280-1280 382 0 725 168 960 434 235-266 578-434 960-434 707 0 1280 573 1280 1280 0 110-14 218-40 320h2000c-26-102-40-210-40-320 0-707 573-1280 1280-1280s1280 573 1280 1280h320V6400c0-104-17-196-68-286l-715-1280c-121-217-324-354-573-354H6080c-176 0-320 144-320 320v1600H3520zm3520-1280h1204l716 1280H7040V5120z"/><path fill="gray" d="M320 3531l9204-1189 164 1269-5945 768c-157-319-485-539-863-539h-35l-252-194-149 194h-403l179-232-1179 152 196 151c-106 44-203 106-286 183l-262-202 60 464c-67 127-106 271-109 424l-156 20-164-1269zm7986-623l-479 621 1100-142-621-479zm-887 628l514-666-1180 152 666 514zm-1017-382l-479 621 1100-142-621-479zm-887 628l513-666-1179 152 666 514zm-1017-382l-479 621 1100-142-621-479zm-887 628l513-666-1179 152 666 514zm5047-1252l665 514-76-590-589 76z"/></svg>