<svg xmlns="http://www.w3.org/2000/svg" width="1024" height="1024" shape-rendering="geometricPrecision" text-rendering="geometricPrecision" image-rendering="optimizeQuality" clip-rule="evenodd" viewBox="0 0 10240 10240"><title>fire_extinguisher icon</title><desc>fire_extinguisher icon from the IconExperience.com O-Collection. Copyright by INCORS GmbH (www.incors.com).</desc><path fill="#E68497" d="M5440 3200h640c881 0 1600 640 1600 1280v4480c0 352-288 640-640 640H4480c-261 0-487-158-586-383 46-26 88-61 124-102 92-107 133-244 113-383l-291-2035V4480c0-640 719-1280 1600-1280zm-640 1920c-176 0-320 144-320 320v1280c0 176 144 320 320 320h1920c176 0 320-144 320-320V5440c0-176-144-320-320-320H4800z"/><path fill="gray" d="M6720 2442v496c-219-42-440-58-640-58h-640c-200 0-421 16-640 58v-378h-320c-634 0-1371 0-1617 740-131 392 37 759 226 1174 205 448 431 941 431 1606v320h-640v-320c0-532-194-956-371-1341-245-535-461-1009-251-1639 393-1180 1376-1180 2222-1180h245c175 196 431 320 715 320 157 0 310-38 447-110l833 312zM2880 6720h640l294 2057c7 48-6 92-38 128-31 36-72 55-120 55h-911c-49 0-90-19-121-55-32-36-45-80-38-128l294-2057zM6348 1280l1763 661c165 62 249 245 188 410-62 165-245 249-410 188l-2041-766c-111 92-253 147-408 147-353 0-640-287-640-640s287-640 640-640h2240c353 0 640 287 640 640 0 176-144 320-320 320h-86c-117 0-218-58-277-160-55-95-159-160-277-160H6348zm-908-320c-177 0-320 143-320 320s143 320 320 320 320-143 320-320-143-320-320-320z"/></svg>