<svg xmlns="http://www.w3.org/2000/svg" width="1024" height="1024" shape-rendering="geometricPrecision" text-rendering="geometricPrecision" image-rendering="optimizeQuality" clip-rule="evenodd" viewBox="0 0 10240 10240"><title>fire icon</title><desc>fire icon from the IconExperience.com O-Collection. Copyright by INCORS GmbH (www.incors.com).</desc><path fill="#ED9A56" d="M5120 320c1047 711 786 1459 640 2240-378 2027 2240 2560 1920 0 698 711 1280 2382 1280 3449 0 1767-1280 3911-3840 3911S1280 7776 1280 6009c0-1067 349-1778 1047-2489-698 1422 315 2524 1048 1778 698-711-701-1423 349-2845 650-880 1745-711 1396-2133zm-109 2726c-1709 1484 825 2844 0 3826-442 524-1636 642-1996-423-688 1409 442 2784 2105 2784s2444-1032 2307-2080c-134 1169-2195 1392-2779 813 1395 554 3058-1069 1842-2315-734-751-1747-1358-1479-2605z"/></svg>