<svg xmlns="http://www.w3.org/2000/svg" width="1024" height="1024" shape-rendering="geometricPrecision" text-rendering="geometricPrecision" image-rendering="optimizeQuality" clip-rule="evenodd" viewBox="0 0 10240 10240"><title>fire_hydrant icon</title><desc>fire_hydrant icon from the IconExperience.com O-Collection. Copyright by INCORS GmbH (www.incors.com).</desc><path fill="#E68497" d="M7680 8960v640H2560v-640c0-353 287-640 640-640h320V6400h-640c-176 0-320-144-320-320v-320h-320v-640h320v-320c0-176 144-320 320-320h640v-640h3200v640h640c176 0 320 144 320 320v320h320v640h-320v320c0 176-144 320-320 320h-640v1920h320c353 0 640 287 640 640zM2880 2880h27c159 0 292-114 316-271 109-705 601-1283 1257-1515V960c0-176 144-320 320-320h640c176 0 320 144 320 320v134c656 232 1148 810 1257 1515 25 157 157 271 316 271h27c176 0 320 144 320 320s-144 320-320 320H2880c-176 0-320-144-320-320s144-320 320-320z"/></svg>