<svg xmlns="http://www.w3.org/2000/svg" width="1024" height="1024" shape-rendering="geometricPrecision" text-rendering="geometricPrecision" image-rendering="optimizeQuality" clip-rule="evenodd" viewBox="0 0 10240 10240"><title>firewall2 icon</title><desc>firewall2 icon from the IconExperience.com O-Collection. Copyright by INCORS GmbH (www.incors.com).</desc><path fill="gray" d="M4160 5120h2560c176 0 320 144 320 320v640c0 176-144 320-320 320H4160c-176 0-320-144-320-320v-640c0-176 144-320 320-320zm-320 1600h640c176 0 320 144 320 320v640c0 176-144 320-320 320h-640V6720zm1600 0h2560c176 0 320 144 320 320v640c0 176-144 320-320 320H5440c-176 0-320-144-320-320v-640c0-176 144-320 320-320zm1280 1600h2560c176 0 320 144 320 320v640c0 176-144 320-320 320H6720c-176 0-320-144-320-320v-640c0-176 144-320 320-320zm-2880 0h1920c176 0 320 144 320 320v640c0 176-144 320-320 320H3840V8320zm5120-1600h640v1280h-640c-176 0-320-144-320-320v-640c0-176 144-320 320-320zM7680 5120h1920v1280H7680c-176 0-320-144-320-320v-640c0-176 144-320 320-320z"/><path fill="#ED9A56" d="M3520 320c785 545 589 1119 480 1717-284 1554 1680 1963 1440 0 524 546 960 1827 960 2644 0 40-1 79-2 119H4802c-50-133-133-266-255-393-550-576-1310-1041-1109-1997-1281 1138 619 2181 0 2933-331 402-1227 492-1497-324-516 1080 332 2134 1579 2134v527c-1920 0-2880-1644-2880-2999 0-817 262-1362 785-1908-523 1091 236 1936 786 1363 524-545-525-1090 262-2180 487-676 1309-546 1047-1636zm28 5946c-128-6-256-33-382-84 98 99 252 168 432 204-21-38-38-78-50-120z"/></svg>