<svg xmlns="http://www.w3.org/2000/svg" width="1024" height="1024" shape-rendering="geometricPrecision" text-rendering="geometricPrecision" image-rendering="optimizeQuality" clip-rule="evenodd" viewBox="0 0 10240 10240"><title>firefighter icon</title><desc>firefighter icon from the IconExperience.com O-Collection. Copyright by INCORS GmbH (www.incors.com).</desc><path fill="#ED9A56" d="M8320 8470c0 683-1365 1017-2560 1106V7680c0-55 6-110 19-164 87-377 449-658 788-805 363-157 907-242 1236 34l247 208c178 355 270 818 270 1517zM4480 9576c-1195-89-2560-423-2560-1105 0-700 92-1164 271-1520l246-206c329-276 873-191 1236-34 384 167 807 513 807 969v1896z"/><path fill="gray" d="M8008 6500c96-192 115-405-8-625-115-207-392-435-640-435h-242c-469 585-1190 960-1998 960s-1529-375-1998-960h-242c-248 0-525 228-640 435-123 221-104 433-8 625 429-361 1086-291 1568-83 508 221 1000 670 1000 1263v1914c110 4 217 6 320 6s210-2 320-6V7680c0-79 9-158 27-235 111-483 537-839 973-1028 481-208 1139-278 1568 83z"/><path fill="#EFC1B4" d="M7346 4094c-127 1118-1075 1986-2226 1986s-2099-868-2226-1986l668 316c158 75 285 69 452 69h2212c167 0 294 6 452-69l668-316z"/><path fill="#ED9A56" d="M2562 3937c16 430 138 833 341 1183h-23c-301 0-611 194-808 436-81-133-112-278-64-468l317-1268c74 47 149 77 237 117zm5116 0c-16 430-138 833-341 1183h23c301 0 612 195 809 438 83-133 113-279 66-470l-318-1270c-74 48-150 78-239 119zM7360 2559l576 631c52 58 35 148-21 202l-103 102c-87 86-191 116-302 168l-969 459c-101 48-203 38-315 38H4014c-112 0-214 10-315-38l-969-459c-111-52-215-82-302-168l-103-102c-56-54-73-144-21-202l576-631c0-713 334-1349 854-1759 3 32 8 65 17 98l374 1497c71 287 325 485 621 485h780c295 0 549-198 621-485l374-1497c6-25 11-50 14-75 503 411 825 1036 825 1736zM6200 749l-374 1283c-36 124-161 208-310 208h-780c-149 0-275-84-311-208L4051 749c-42-145 58-292 226-331 271-64 556-98 849-98s577 34 849 98c167 39 267 186 225 331z"/></svg>