<svg xmlns="http://www.w3.org/2000/svg" width="1024" height="1024" shape-rendering="geometricPrecision" text-rendering="geometricPrecision" image-rendering="optimizeQuality" clip-rule="evenodd" viewBox="0 0 10240 10240"><title>first_aid icon</title><desc>first_aid icon from the IconExperience.com O-Collection. Copyright by INCORS GmbH (www.incors.com).</desc><path fill="gray" d="M5120 640c2474 0 4480 2006 4480 4480S7594 9600 5120 9600 640 7594 640 5120 2646 640 5120 640zm0 640c-2121 0-3840 1719-3840 3840s1719 3840 3840 3840 3840-1719 3840-3840-1719-3840-3840-3840z"/><path fill="#E68497" d="M2880 4160h1280V2880c0-176 144-320 320-320h1280c176 0 320 144 320 320v1280h1280c176 0 320 144 320 320v1280c0 176-144 320-320 320H6080v1280c0 176-144 320-320 320H4480c-176 0-320-144-320-320V6080H2880c-176 0-320-144-320-320V4480c0-176 144-320 320-320z"/></svg>