<svg xmlns="http://www.w3.org/2000/svg" width="1024" height="1024" shape-rendering="geometricPrecision" text-rendering="geometricPrecision" image-rendering="optimizeQuality" clip-rule="evenodd" viewBox="0 0 10240 10240"><title>first_aid_box icon</title><desc>first_aid_box icon from the IconExperience.com O-Collection. Copyright by INCORS GmbH (www.incors.com).</desc><path fill="#E68497" d="M4800 6774l-640-320v746l-960-480v-746l-640-320V4586l640 320v-746l960 480v746l640 320z"/><path fill="gray" d="M1634 1903L4194 623c186-93 389-99 572 0l3840 2080c222 111 354 324 354 573v4328c0 249-132 462-354 573L6046 9457c-186 93-389 99-572 0L1634 7377c-219-118-354-324-354-573V2476c0-249 132-462 354-573zm286 860v4041l3520 1907V4670L1920 2763zm4160 5961l2240-1120V3556L6080 4676v4048zm-313-4604l2139-1069-3426-1855-2139 1069 3426 1855z"/></svg>