<svg xmlns="http://www.w3.org/2000/svg" width="1024" height="1024" shape-rendering="geometricPrecision" text-rendering="geometricPrecision" image-rendering="optimizeQuality" clip-rule="evenodd" viewBox="0 0 10240 10240"><title>flatscreen_tv icon</title><desc>flatscreen_tv icon from the IconExperience.com O-Collection. Copyright by INCORS GmbH (www.incors.com).</desc><path fill="gray" d="M2880 8960h1600v-320h1280v320h1600c176 0 320 144 320 320v320H2560v-320c0-176 144-320 320-320z"/><path fill="#4D82B8" d="M1600 2880h7040v4480H1600z"/><path fill="gray" d="M1280 1920h7680c353 0 640 288 640 640v5120c0 352-288 640-640 640H1280c-352 0-640-287-640-640V2560c0-353 287-640 640-640zm0 640v5120h7680V2560H1280z"/></svg>