<svg xmlns="http://www.w3.org/2000/svg" width="1024" height="1024" shape-rendering="geometricPrecision" text-rendering="geometricPrecision" image-rendering="optimizeQuality" clip-rule="evenodd" viewBox="0 0 10240 10240"><title>floppy_drive icon</title><desc>floppy_drive icon from the IconExperience.com O-Collection. Copyright by INCORS GmbH (www.incors.com).</desc><path fill="#4D82B8" d="M5120 4480h2560v640H5120z"/><path fill="gray" d="M4480 4480h320v1920c0 176 144 320 320 320h2560c176 0 320-144 320-320V4480h320c353 0 640 287 640 640v3840c0 353-287 640-640 640h-320V8000c0-176-144-320-320-320H5760c-176 0-320 144-320 320v1600h-960c-353 0-640-287-640-640V5120c0-353 287-640 640-640zm2240 3520h960v1280h-960V8000z"/><path fill="gray" d="M1920 640h5760c353 0 640 288 640 640v2880H4480c-529 0-960 431-960 960v3840H1920c-352 0-640-287-640-640V1280c0-353 288-640 640-640zm320 7040c-177 0-320 143-320 320s143 320 320 320 320-143 320-320-143-320-320-320zm0-6400c-177 0-320 143-320 320s143 320 320 320 320-143 320-320-143-320-320-320zm5120 0c-177 0-320 143-320 320s143 320 320 320 320-143 320-320-143-320-320-320z"/></svg>