<svg xmlns="http://www.w3.org/2000/svg" width="1024" height="1024" shape-rendering="geometricPrecision" text-rendering="geometricPrecision" image-rendering="optimizeQuality" clip-rule="evenodd" viewBox="0 0 10240 10240"><title>floppy_disks icon</title><desc>floppy_disks icon from the IconExperience.com O-Collection. Copyright by INCORS GmbH (www.incors.com).</desc><path fill="gray" d="M4160 640h3840v640H4160z"/><path fill="#4D82B8" d="M3200 640h640v1600H2560v-960c0-353 288-640 640-640zm5120 0h640c353 0 640 288 640 640v5760c0 352-288 640-640 640h-960V3754c191-111 320-318 320-554V640z"/><path fill="gray" d="M2240 2560h3840v640H2240z"/><path fill="#4D82B8" d="M1280 2560h640v2560c0 353 288 640 640 640h3200c352 0 640-288 640-640V2560h640c353 0 640 288 640 640v5760c0 352-288 640-640 640h-640V7360c0-176-144-320-320-320H2880c-176 0-320 144-320 320v2240H1280c-352 0-640-287-640-640V3200c0-353 287-640 640-640zm3200 4800h1280v1920H4480V7360z"/></svg>