<svg xmlns="http://www.w3.org/2000/svg" width="1024" height="1024" shape-rendering="geometricPrecision" text-rendering="geometricPrecision" image-rendering="optimizeQuality" clip-rule="evenodd" viewBox="0 0 10240 10240"><title>flower icon</title><desc>flower icon from the IconExperience.com O-Collection. Copyright by INCORS GmbH (www.incors.com).</desc><path fill="#E68497" d="M5120 669c807 0 1461-302 1461 1047 0 844-256 1588-645 2027-239-141-518-223-816-223s-577 82-816 223c-389-439-645-1183-645-2027 0-1349 654-1047 1461-1047zm4233 3076c249 767 739 1295-544 1712-803 261-1590 248-2128 14 26-113 39-231 39-351 0-479-210-908-543-1201 297-506 926-979 1729-1240 1283-417 1198 298 1447 1066zM7736 8721c-652 474-1004 1103-1797 11-496-683-727-1435-670-2019 594-55 1094-434 1320-959 573 127 1217 578 1713 1261 794 1092 87 1232-566 1706zm-5232 0c-653-474-1360-614-566-1706 496-683 1140-1134 1713-1261 226 525 726 904 1320 959 57 584-174 1336-670 2019-793 1092-1145 463-1797-11zM887 3745c249-768 164-1483 1447-1066 803 261 1432 734 1729 1240-333 293-543 722-543 1201 0 120 13 238 39 351-538 234-1325 247-2128-14-1283-417-793-945-544-1712z"/><path fill="gray" d="M5120 3840c707 0 1280 573 1280 1280s-573 1280-1280 1280-1280-573-1280-1280 573-1280 1280-1280z"/></svg>