<svg xmlns="http://www.w3.org/2000/svg" width="1024" height="1024" shape-rendering="geometricPrecision" text-rendering="geometricPrecision" image-rendering="optimizeQuality" clip-rule="evenodd" viewBox="0 0 10240 10240"><title>folding_rule icon</title><desc>folding_rule icon from the IconExperience.com O-Collection. Copyright by INCORS GmbH (www.incors.com).</desc><path fill="#EDC87E" d="M8794 1318l969 243c43 11 76 35 99 73 23 39 28 79 17 122L8367 7553l-682-2614 915-3506c22-84 109-136 194-115zm-6400 0l969 243c43 11 76 35 99 73 23 39 28 79 17 122L1640 8807c-22 84-109 136-194 115l-969-243c-43-11-76-35-99-73-23-39-28-79-17-122l1839-7051c22-84 109-136 194-115zm326 442c-177 0-320 143-320 320s143 320 320 320 320-143 320-320-143-320-320-320zm2874-442l969 243c43 11 76 35 99 73 23 39 28 79 17 122L5167 7553l-682-2614 915-3506c22-84 109-136 194-115zm326 442c-177 0-320 143-320 320s143 320 320 320 320-143 320-320-143-320-320-320zM2885 5301l915 3506c22 84 109 136 194 115l969-243c43-11 76-35 99-73 23-39 28-79 17-122L3567 2687l-682 2614zm1435 2539c177 0 320 143 320 320s-143 320-320 320-320-143-320-320 143-320 320-320zm1765-2539l915 3506c22 84 109 136 194 115l969-243c43-11 76-35 99-73 23-39 28-79 17-122L6767 2687l-682 2614zm1435 2539c177 0 320 143 320 320s-143 320-320 320-320-143-320-320 143-320 320-320z"/></svg>