<svg xmlns="http://www.w3.org/2000/svg" width="1024" height="1024" shape-rendering="geometricPrecision" text-rendering="geometricPrecision" image-rendering="optimizeQuality" clip-rule="evenodd" viewBox="0 0 10240 10240"><title>folder_network icon</title><desc>folder_network icon from the IconExperience.com O-Collection. Copyright by INCORS GmbH (www.incors.com).</desc><path fill="#4D82B8" d="M5440 8640c176 0 320 144 320 320h1280v640H5760c0 176-144 320-320 320h-640c-176 0-320-144-320-320H3200v-640h1280c0-176 144-320 320-320v-640h640v640z"/><path fill="#EDC87E" d="M3630 640c352 0 656 126 905 375l530 530c249 249 553 375 905 375h1710c353 0 640 288 640 640v320h-640v-320H5970c-522 0-988-193-1357-562l-531-531c-129-129-270-187-452-187H1920v5440c0 176 144 320 320 320s320-144 320-320V3840c0-353 287-640 640-640h5121c352 0 639 288 639 640v2560c0 705-575 1280-1280 1280H2240c-529 0-960-431-960-960V1280c0-353 287-640 640-640h1710z"/></svg>