<svg xmlns="http://www.w3.org/2000/svg" width="1024" height="1024" shape-rendering="geometricPrecision" text-rendering="geometricPrecision" image-rendering="optimizeQuality" clip-rule="evenodd" viewBox="0 0 10240 10240"><title>folder3 icon</title><desc>folder3 icon from the IconExperience.com O-Collection. Copyright by INCORS GmbH (www.incors.com).</desc><path fill="#EDC87E" d="M1944 640h7336c176 0 320 144 320 320v1975c0 176-63 328-187 452l-906 906c-124 124-187 276-187 452v2615c0 176-144 320-320 320H6400V3520c0-264-157-496-402-594L1826 1257c-144-57-225-205-195-358 29-151 158-259 313-259zm6376 2935l640-640V1280h-640v2295zm-7040 883v2892c0 401 231 743 603 891l3758 1503c102 41 208 30 298-32 91-61 141-155 141-265V3520c0-134-77-248-201-297L1682 1554c-246-98-402-336-402-594v3498z"/></svg>