<svg xmlns="http://www.w3.org/2000/svg" width="1024" height="1024" shape-rendering="geometricPrecision" text-rendering="geometricPrecision" image-rendering="optimizeQuality" clip-rule="evenodd" viewBox="0 0 10240 10240"><title>folder_out icon</title><desc>folder_out icon from the IconExperience.com O-Collection. Copyright by INCORS GmbH (www.incors.com).</desc><path fill="#4D82B8" d="M6581 5838l1186 1186c124 124 328 124 452 0l1187-1186c124-125 186-277 187-453l7-839c1-65-38-122-99-147-61-26-127-12-174 34l-687 687v-640c0-707-287-1347-750-1810s-1103-750-1810-750-1347 287-1810 750c-343 343-589 783-694 1275 133-68 283-105 441-105h954c56-97 125-186 204-265 231-232 551-375 905-375s674 143 905 375c232 231 375 551 375 905v640l-687-687c-47-46-113-60-174-34-61 25-98 81-99 147l-7 839c-1 176 63 328 188 453z"/><path fill="gray" d="M3630 1280c352 0 656 126 905 375l251 251c-194 98-377 218-546 359l-158-158c-129-129-270-187-452-187l-2350 1v6060c0 107 48 200 136 262 88 61 191 75 292 39 168-60 303-189 373-364l1119-2798 223-558c99-248 327-402 594-402h2258c-121 88-194 229-195 384l-7 838c-2 262 96 497 281 682l1187 1186c249 249 655 249 905 0l930-931-734 1836c-199 496-654 805-1189 805H1600c-529 0-960-431-960-960V1920c0-353 287-640 640-640h2350z"/></svg>