<svg xmlns="http://www.w3.org/2000/svg" width="1024" height="1024" shape-rendering="geometricPrecision" text-rendering="geometricPrecision" image-rendering="optimizeQuality" clip-rule="evenodd" viewBox="0 0 10240 10240"><title>folders icon</title><desc>folders icon from the IconExperience.com O-Collection. Copyright by INCORS GmbH (www.incors.com).</desc><path fill="#EDC87E" d="M4590 640c352 0 656 126 905 375l530 530c249 249 553 375 905 375h1710c353 0 640 288 640 640v320h-640v-320H6930c-522 0-988-193-1357-562l-531-531c-129-129-270-187-452-187H2241c-1 0-1 0-1 1v319h-640v-320c0-353 287-640 640-640h2350zm3485 2560h1206c352 0 639 288 639 640v3200c0 595-409 1097-960 1239V5120c0-417-268-773-640-905v-375c0-246-93-470-245-640z"/><path fill="#EDC87E" d="M3310 1920c352 0 656 126 905 375l530 530c249 249 553 375 905 375h1710c352 0 640 288 640 640v320h-640v-320H5650c-522 0-988-193-1357-562l-531-531c-129-129-270-187-452-187H961c-1 0-1 0-1 1v6079c0 176 144 320 320 320s320-144 320-320V5120c0-353 287-640 640-640h5761c352 0 639 288 639 640v3200c0 705-575 1280-1280 1280H1280c-529 0-960-431-960-960V2560c0-353 287-640 640-640h2350z"/></svg>