<svg xmlns="http://www.w3.org/2000/svg" width="1024" height="1024" shape-rendering="geometricPrecision" text-rendering="geometricPrecision" image-rendering="optimizeQuality" clip-rule="evenodd" viewBox="0 0 10240 10240"><title>folder3_movie icon</title><desc>folder3_movie icon from the IconExperience.com O-Collection. Copyright by INCORS GmbH (www.incors.com).</desc><path fill="#4D82B8" d="M6400 3200c-232 0-461 25-688 74 48 118 48 196 48 317 206-46 420-71 640-71 1591 0 2880 1289 2880 2880S7991 9280 6400 9280c-220 0-434-25-640-71 0 0-2 299-6 326 209 43 425 65 646 65 1767 0 3200-1433 3200-3200 0-1812-1475-3200-3200-3200zm932 4915l-463-637c-59-82-156-119-254-97-141 31-289 31-430 0-98-22-195 15-254 97l-171 235v842c478 141 995 120 1461-62 153-60 207-246 111-378zM5760 5646c73-61 154-111 242-150 93-40 149-127 149-228v-788c0-163-152-281-311-241-27 7-53 15-80 23v1384zm1038-150c133 58 251 145 347 252 67 76 167 103 263 72l749-244c155-50 221-232 133-370-301-472-774-823-1330-967-159-40-311 78-311 241v788c0 101 56 188 149 228zm1330 2338c361-438 542-997 508-1563-10-163-170-272-326-221l-748 243c-97 31-162 112-171 213-14 144-59 282-132 407-52 87-47 190 13 272l462 637c96 131 290 138 394 12zM6400 5760c353 0 640 287 640 640s-287 640-640 640c-355 0-640-287-640-641 1-353 287-639 640-639z"/><path fill="#EDC87E" d="M1304 640h7336c176 0 320 144 320 320v1975c0 176-63 328-187 452l-225 225c-173-134-358-251-554-351l326-326V1280h-640v1840c-397-155-828-240-1280-240-254 0-508 27-756 82-48 10-90 29-126 56-47-37-101-69-160-92L1186 1257c-144-57-225-205-195-358 29-151 158-259 313-259zM640 4458v2892c0 401 231 743 603 891l3758 1503c102 41 208 30 298-32 78-52 126-129 138-219v-1l1-4v-5l1-4v-12l1-4V3520v-12c-1-11-1-21-3-31v-1c0-3-1-7-1-11h-1c-18-110-90-200-196-242L1042 1554c-246-98-402-336-402-594v3498z"/></svg>