<svg xmlns="http://www.w3.org/2000/svg" width="1024" height="1024" shape-rendering="geometricPrecision" text-rendering="geometricPrecision" image-rendering="optimizeQuality" clip-rule="evenodd" viewBox="0 0 10240 10240"><title>folder3_document icon</title><desc>folder3_document icon from the IconExperience.com O-Collection. Copyright by INCORS GmbH (www.incors.com).</desc><path fill="#4D82B8" d="M5676 3200h1474c352 0 656 126 905 375l1170 1170c249 249 375 553 375 905v3950H5742c12-49 18-100 18-153v-487h3200V6080c0-176-144-320-320-320H7040V4160c0-176-144-320-320-320h-960v-320c0-116-30-225-84-320zm2004 960v960h960l-960-960z"/><path fill="gray" d="M1304 640h7336c176 0 320 144 320 320v1975c0 176-63 328-187 452l-227 227-265-265c-64-64-131-122-202-173l241-241V1280h-640v1687c-166-58-343-87-530-87H5243L1186 1257c-144-57-225-205-195-358 29-151 158-259 313-259zM640 7350c0 401 231 743 603 891l3758 1503c102 41 208 30 298-32 91-61 141-155 141-265V3520c0-134-77-248-201-297L1042 1554c-246-98-402-336-402-594v6390z"/></svg>