<svg xmlns="http://www.w3.org/2000/svg" width="1024" height="1024" shape-rendering="geometricPrecision" text-rendering="geometricPrecision" image-rendering="optimizeQuality" clip-rule="evenodd" viewBox="0 0 10240 10240"><title>folder_document2 icon</title><desc>folder_document2 icon from the IconExperience.com O-Collection. Copyright by INCORS GmbH (www.incors.com).</desc><path fill="gray" d="M4480 3200h2670c352 0 656 126 905 375l1170 1170c249 249 375 553 375 905v3950H4480V3200zm640 640v5120h3840V6080c0-176-144-320-320-320H7040V4160c0-176-144-320-320-320H5120zm2560 320v960h960l-960-960z"/><path fill="#EDC87E" d="M3630 1280c352 0 656 126 905 375l530 530c249 249 553 375 905 375h1710c353 0 640 288 640 640v187l-39-38c-309-310-694-469-1131-469H4905c-103-70-201-151-292-242l-531-531c-129-129-270-187-452-187H1280v6080c0 176 144 320 320 320s320-144 320-320V4480c0-353 287-640 640-640h1600v5120H1600c-529 0-960-431-960-960V1920c0-353 287-640 640-640h2350z"/></svg>