<svg xmlns="http://www.w3.org/2000/svg" width="1024" height="1024" shape-rendering="geometricPrecision" text-rendering="geometricPrecision" image-rendering="optimizeQuality" clip-rule="evenodd" viewBox="0 0 10240 10240"><title>folder_music icon</title><desc>folder_music icon from the IconExperience.com O-Collection. Copyright by INCORS GmbH (www.incors.com).</desc><path fill="#EDC87E" d="M3630 640c352 0 656 126 905 375l530 530c249 249 553 375 905 375h1710c353 0 640 288 640 640v320h-640v-320H5970c-522 0-988-193-1357-562l-531-531c-129-129-270-187-452-187H1280v6080c0 176 144 320 320 320s320-144 320-320V3840c0-353 287-640 640-640h5513l-2767 593c-297 63-506 322-506 626v3151c-111 11-221 33-327 63-383 109-783 357-1062 687H1600c-529 0-960-431-960-960V1280c0-353 287-640 640-640h2350zm3283 7680h-833V5377l2560-561v2114c-111 11-221 33-327 63-603 171-1247 687-1400 1327z"/><path fill="#4D82B8" d="M8960 4418l-3200 702v3440c0 530-537 1113-1200 1301s-1200-89-1200-619 537-1113 1200-1301c202-57 393-72 560-48V4419c0-153 104-281 253-313l3840-823c200-43 387 108 387 313v4324c0 530-537 1113-1200 1301s-1200-89-1200-619 537-1113 1200-1301c202-57 393-72 560-48V4418z"/></svg>