<svg xmlns="http://www.w3.org/2000/svg" width="1024" height="1024" shape-rendering="geometricPrecision" text-rendering="geometricPrecision" image-rendering="optimizeQuality" clip-rule="evenodd" viewBox="0 0 10240 10240"><title>folder_zip icon</title><desc>folder_zip icon from the IconExperience.com O-Collection. Copyright by INCORS GmbH (www.incors.com).</desc><path fill="#EDC87E" d="M3630 1280c352 0 656 126 905 375l530 530c249 249 553 375 905 375h1710c353 0 640 288 640 640v320h-640v-320H5970c-522 0-988-193-1357-562l-531-531c-129-129-270-187-452-187H1281c-1 0-1 0-1 1v6079c0 176 144 320 320 320s320-144 320-320V6080h640v320c0 176 144 320 320 320s320-144 320-320v-320h640v320c0 176 144 320 320 320s320-144 320-320v-320h640v320c0 176 144 320 320 320s320-144 320-320v-320h640v320c0 176 144 320 320 320s320-144 320-320v-320h25c61 215 232 384 460 441l642 161c107 26 201 38 311 38h482c353 0 640-287 640-640v-640c0-352-287-640-640-640h-482c-110 0-204 12-311 38l-642 161c-228 57-399 226-460 441h-665v-320c0-176-144-320-320-320s-320 144-320 320v320h-640v-320c0-176-144-320-320-320s-320 144-320 320v320h-640v-320c0-176-144-320-320-320s-320 144-320 320v320h-640v-320c0-176-144-320-320-320s-320 144-320 320v-640c0-353 287-640 640-640h5760c353 0 640 287 640 640 529 0 960 431 960 960v640c0 529-431 960-960 960v640c0 705-575 1280-1280 1280H1600c-529 0-960-431-960-960V1920c0-353 287-640 640-640h2350zm4491 4731l259 64c13 4 25 5 38 5h382c88 0 160-72 160-160v-320c0-88-72-160-160-160h-382c-13 0-25 1-38 5l-259 64c-72 18-121 81-121 156v190c0 75 49 138 121 156z"/></svg>