<svg xmlns="http://www.w3.org/2000/svg" width="1024" height="1024" shape-rendering="geometricPrecision" text-rendering="geometricPrecision" image-rendering="optimizeQuality" clip-rule="evenodd" viewBox="0 0 10240 10240"><title>font_style_underline icon</title><desc>font_style_underline icon from the IconExperience.com O-Collection. Copyright by INCORS GmbH (www.incors.com).</desc><path fill="gray" d="M1280 8320h2147c-532-469-867-1155-867-1920V3360c0-88 72-160 160-160h960c88 0 160 72 160 160v3040c0 707 573 1280 1280 1280s1280-573 1280-1280V3360c0-88 72-160 160-160h960c88 0 160 72 160 160v3040c0 765-335 1451-867 1920h2147v640H1280v-640z"/></svg>