<svg xmlns="http://www.w3.org/2000/svg" width="1024" height="1024" shape-rendering="geometricPrecision" text-rendering="geometricPrecision" image-rendering="optimizeQuality" clip-rule="evenodd" viewBox="0 0 10240 10240"><title>font_style_subscript icon</title><desc>font_style_subscript icon from the IconExperience.com O-Collection. Copyright by INCORS GmbH (www.incors.com).</desc><path fill="#4D82B8" d="M6722 9119c1-140 61-279 179-374l748-598c315-252 977-679 978-1085 0-230-303-344-499-346-314-2-448 203-448 509h-960c0-861 561-1472 1416-1465 734 6 1449 512 1447 1302-1 732-540 1218-1002 1577h1019v960H6720l2-480z"/><path fill="gray" d="M6442 3458L4730 5665l1859 2397c39 49 45 112 17 168-27 57-81 90-143 90H4592l-960-1238-961 1238H801c-63 0-117-33-144-90-28-56-21-119 17-168l1859-2397L821 3458c-38-49-45-112-17-168 27-57 81-90 144-90h1871l813 1048 813-1048h1871c62 0 116 33 143 90 28 56 21 119-17 168z"/></svg>