<svg xmlns="http://www.w3.org/2000/svg" width="1024" height="1024" shape-rendering="geometricPrecision" text-rendering="geometricPrecision" image-rendering="optimizeQuality" clip-rule="evenodd" viewBox="0 0 10240 10240"><title>medal icon</title><desc>medal icon from the IconExperience.com O-Collection. Copyright by INCORS GmbH (www.incors.com).</desc><path fill="gray" d="M5120 4480c1414 0 2560 1146 2560 2560S6534 9600 5120 9600 2560 8454 2560 7040s1146-2560 2560-2560zm0 640c-1060 0-1920 860-1920 1920s860 1920 1920 1920 1920-860 1920-1920-860-1920-1920-1920zm0 320c-884 0-1600 716-1600 1600s716 1600 1600 1600 1600-716 1600-1600-716-1600-1600-1600z"/><path fill="#EFC1B4" d="M1920 1600h1920v2859c-203 101-392 225-564 369L2068 3378c-99-120-148-254-148-410V1600zm4480 0h1920v1368c0 156-49 290-148 410L6964 4828c-172-144-361-268-564-368V1600zM1920 640h6400v640H1920V640z"/></svg>