<svg xmlns="http://www.w3.org/2000/svg" width="1024" height="1024" shape-rendering="geometricPrecision" text-rendering="geometricPrecision" image-rendering="optimizeQuality" clip-rule="evenodd" viewBox="0 0 10240 10240"><title>selection_view icon</title><desc>selection_view icon from the IconExperience.com O-Collection. Copyright by INCORS GmbH (www.incors.com).</desc><path fill="#4D82B8" d="M4480 2560c1060 0 1920 860 1920 1920 0 415-131 799-355 1113l261 261 3 11-443 442-12-1-261-261c-314 224-698 355-1113 355-1060 0-1920-860-1920-1920s860-1920 1920-1920zm0 640c-707 0-1280 573-1280 1280s573 1280 1280 1280 1280-573 1280-1280-573-1280-1280-1280z"/><path fill="#4D82B8" d="M5854 6306l452-452c125-125 328-125 453 0l1147 1147c125 125 125 328 0 453l-452 452c-125 125-328 125-453 0L5854 6759c-125-125-125-328 0-453z"/><path fill="gray" d="M1280 1280h640v640h-640v-640zm7040 0h640v640h-640v-640zm0 7040h640v640h-640v-640zm-1920 640h1280v-640H6400v640zm-1920 0h1280v-640H4480v640zm-1920 0h1280v-640H2560v640zm-1280-640h640v640h-640v-640zm5120-6400h1280v-640H6400v640zm-1920 0h1280v-640H4480v640zm3840 2560h640v1280h-640V4480zm0-1920h640v1280h-640V2560zm0 3840h640v1280h-640V6400zM1280 4480h640v1280h-640V4480zm1280-2560h1280v-640H2560v640zm-1280 640h640v1280h-640V2560zm0 3840h640v1280h-640V6400z"/></svg>