<svg xmlns="http://www.w3.org/2000/svg" width="1024" height="1024" shape-rendering="geometricPrecision" text-rendering="geometricPrecision" image-rendering="optimizeQuality" clip-rule="evenodd" viewBox="0 0 10240 10240"><title>selection_refresh icon</title><desc>selection_refresh icon from the IconExperience.com O-Collection. Copyright by INCORS GmbH (www.incors.com).</desc><path fill="#4D82B8" d="M5560 5741h735c68 0 126 40 150 104 24 63 7 131-44 176l-408 360h727c176 0 320-144 320-320V4141c0-176-144-322-320-320l-699 10c140-124 217-293 217-480s-76-356-216-480l698-10c705-10 1280 575 1280 1280v1920c0 705-575 1280-1280 1280h-748l429 379c51 45 68 113 44 177-24 63-82 103-150 103h-735c-82 0-151-26-212-80l-918-809c-71-63-108-145-108-240s37-177 108-240l918-810c61-53 130-80 212-80z"/><path fill="#4D82B8" d="M4680 4480h-735c-68 0-126-40-150-103-24-64-7-132 44-177l408-360h-727c-176 0-320 144-320 320v1920c0 176 144 320 320 320h688c-133 123-206 288-206 471 0 187 77 356 217 480l10 9h-709c-705 0-1280-575-1280-1280V4160c0-705 575-1280 1280-1280h748l-429-379c-51-45-68-113-44-176 24-64 82-104 150-104h735c82 0 151 27 212 80l913 806 5 4 9 9h1l2 3h1l3 3c22 23 41 47 55 74 5 9 9 17 13 26 2 7 5 13 7 20l1 3v1c1 2 2 5 3 8l1 3v1l1 4 1 4c1 2 1 5 2 8l1 4 1 4 1 4v4l1 5 1 4v4l1 4v9l1 4v9l1 4v27l-1 4v9l-1 4v9l-1 4v4l-1 5-1 4v4l-1 4-1 4-1 4v1l-1 4-2 8-1 4-1 4-1 4-2 4-1 4-1 4-2 3v1l-1 3-2 4-1 4-2 4-2 4c-15 34-37 65-64 92l-9 9-1 1-3 3-3 3-4 3-647 570-267 236c-61 54-130 80-212 80z"/><path fill="gray" d="M1280 1280h640v640h-640v-640zm7040 0h640v640h-640v-640zm0 7040h640v640h-640v-640zm-1920 640h1280v-640H6400v640zm-1920 0h1280v-640H4480v640zm-1920 0h1280v-640H2560v640zm-1280-640h640v640h-640v-640zm5120-6400h1280v-640H6400v640zm-1920 0h1280v-640H4480v640zm3840 2560h640v1280h-640V4480zm0-1920h640v1280h-640V2560zm0 3840h640v1280h-640V6400zM1280 4480h640v1280h-640V4480zm1280-2560h1280v-640H2560v640zm-1280 640h640v1280h-640V2560zm0 3840h640v1280h-640V6400z"/></svg>