<svg xmlns="http://www.w3.org/2000/svg" width="1024" height="1024" shape-rendering="geometricPrecision" text-rendering="geometricPrecision" image-rendering="optimizeQuality" clip-rule="evenodd" viewBox="0 0 10240 10240"><title>selection_recycle icon</title><desc>selection_recycle icon from the IconExperience.com O-Collection. Copyright by INCORS GmbH (www.incors.com).</desc><path fill="#76A797" d="M6452 3123c644 431 1068 1164 1068 1997 0 197-24 389-69 572-62-45-133-80-212-101l-707-190c18-91 28-185 28-281 0-472-227-891-578-1153l72 269c17 63-4 128-57 168-52 40-120 45-177 11l-659-380c-77-44-127-109-150-194l-234-875c-45-170 56-346 226-392l875-234c85-23 166-12 243 32l659 381c57 33 87 94 78 159-8 66-53 117-117 134l-289 77zM6106 7561l77-289c-320 159-681 248-1063 248-644 0-1230-254-1661-667 70-31 136-76 194-133l517-518c254 223 586 358 950 358 202 0 394-42 568-116l-269-73c-64-17-109-68-117-133-9-66 21-127 78-160l659-380c77-44 158-55 243-32l875 234c170 46 271 222 226 392l-234 874c-23 85-73 150-150 194l-659 381c-57 33-125 29-177-12-53-40-74-104-57-168zM2513 4753l212 212c65-1024 773-1874 1725-2150-8 76-3 156 18 234l189 707c-516 175-901 636-967 1194l197-197c47-47 113-60 174-35 61 26 99 82 99 148v761c0 89-31 164-94 227l-640 640c-124 124-328 124-452 0l-640-640c-63-63-94-138-94-227v-761c0-66 38-122 99-148 61-25 127-12 174 35z"/><path fill="gray" d="M1280 1280h640v640h-640v-640zm7040 0h640v640h-640v-640zm0 7040h640v640h-640v-640zm-1920 640h1280v-640H6400v640zm-1920 0h1280v-640H4480v640zm-1920 0h1280v-640H2560v640zm-1280-640h640v640h-640v-640zm5120-6400h1280v-640H6400v640zm-1920 0h1280v-640H4480v640zm3840 2560h640v1280h-640V4480zm0-1920h640v1280h-640V2560zm0 3840h640v1280h-640V6400zM1280 4480h640v1280h-640V4480zm1280-2560h1280v-640H2560v640zm-1280 640h640v1280h-640V2560zm0 3840h640v1280h-640V6400z"/></svg>