<svg xmlns="http://www.w3.org/2000/svg" width="1024" height="1024" shape-rendering="geometricPrecision" text-rendering="geometricPrecision" image-rendering="optimizeQuality" clip-rule="evenodd" viewBox="0 0 10240 10240"><title>senior_citizen icon</title><desc>senior_citizen icon from the IconExperience.com O-Collection. Copyright by INCORS GmbH (www.incors.com).</desc><path fill="gray" d="M8320 8472c0 668-1309 1002-2486 1098l600-3005 1-24 432-721c65-108 61-237-6-338 19-14 36-28 54-42 848 659 1405 1771 1405 3032zM4436 9572c-1185-93-2516-427-2516-1099 0-1262 557-2374 1405-3033 18 14 35 28 54 42-67 101-71 230-6 338l421 702 3 29 604 3019 35 2z"/><path fill="#EDC87E" d="M5138 6058l344 560c59 96 161 145 274 142s209-58 267-155l569-950c-426 253-923 400-1454 403zm-36 0l-344 560c-59 96-161 145-274 142s-209-58-267-155l-569-950c426 253 923 400 1454 403z"/><path fill="#EFC1B4" d="M5120 640c1414 0 2560 1141 2560 2549 0 1080-673 2002-1625 2374 16-38 25-79 25-123v-640c0-176-144-320-320-320H4480c-176 0-320 144-320 320v640c0 44 9 85 25 123-952-372-1625-1294-1625-2374 0-1408 1146-2549 2560-2549zm-640 4160h1280v320H4480v-320zm2560-1280v-640c0-176-144-320-320-320H3520c-176 0-320 144-320 320v640c0 176 144 320 320 320h960c176 0 320-144 320-320v-320c0-176 144-320 320-320s320 144 320 320v320c0 176 144 320 320 320h960c176 0 320-144 320-320z"/></svg>