<svg xmlns="http://www.w3.org/2000/svg" width="1024" height="1024" shape-rendering="geometricPrecision" text-rendering="geometricPrecision" image-rendering="optimizeQuality" clip-rule="evenodd" viewBox="0 0 10240 10240"><title>service_bell icon</title><desc>service_bell icon from the IconExperience.com O-Collection. Copyright by INCORS GmbH (www.incors.com).</desc><path fill="#B89A7C" d="M1600 8320h7040c136 272 272 545 408 817 52 102 46 214-14 311s-158 152-272 152H1478c-114 0-212-55-272-152s-65-209-14-311c136-272 272-545 408-817z"/><path fill="gray" d="M4800 3200h640c149 0 275 155 310 363 1365 189 2417 998 2555 2236 23 213 88 390 207 568 113 171 227 341 341 512 73 110 107 223 107 355v446c0 176-144 320-320 320H1600c-176 0-320-144-320-320v-446c0-132 34-245 107-355 114-171 228-341 341-512 119-178 184-355 207-568 138-1238 1190-2047 2555-2236 35-208 161-363 310-363zm3520 4034s-312-468-341-512c-175-262-276-538-310-852-138-1235-1461-1710-2549-1710s-2411 475-2549 1710c-34 314-135 590-310 852-114 171-227 341-341 512v126h6400v-126zM4480 2560h1280v320h-320v320h-640v-320h-320z"/></svg>