<svg xmlns="http://www.w3.org/2000/svg" width="1024" height="1024" shape-rendering="geometricPrecision" text-rendering="geometricPrecision" image-rendering="optimizeQuality" clip-rule="evenodd" viewBox="0 0 10240 10240"><title>server2 icon</title><desc>server2 icon from the IconExperience.com O-Collection. Copyright by INCORS GmbH (www.incors.com).</desc><path fill="#ED9A56" d="M5120 6400c353 0 640 287 640 640s-287 640-640 640-640-287-640-640 287-640 640-640z"/><path fill="gray" d="M2240 640h5760c176 0 320 144 320 320v8640H1920V960c0-176 144-320 320-320zm960 1600h3840v640H3200v-640zm0 2560h3840v640H3200v-640zm0-1280h3840v640H3200v-640zm-640-2240v7360h5120V1280H2560zm320 320v6720h4480V1600H2880zm2240 4480c530 0 960 430 960 960s-430 960-960 960-960-430-960-960 430-960 960-960z"/></svg>