<svg xmlns="http://www.w3.org/2000/svg" width="1024" height="1024" shape-rendering="geometricPrecision" text-rendering="geometricPrecision" image-rendering="optimizeQuality" clip-rule="evenodd" viewBox="0 0 10240 10240"><title>server_mail icon</title><desc>server_mail icon from the IconExperience.com O-Collection. Copyright by INCORS GmbH (www.incors.com).</desc><path fill="gray" d="M3200 4480h5760c353 0 640 288 640 640v3840c0 352-288 640-640 640H3200c-352 0-640-287-640-640V5120c0-352 287-640 640-640zm4157 2588l1603 1446V5419L6232 7744c-106 99-269 98-373 0L3200 5426v3088l1576-1424 169 161-1682 1709h5634L7188 7226l169-158zM3473 5120l2607 1920 2607-1920H3473z"/><path fill="#76A797" d="M1600 5440h640v640h-640zM1600 3840h2560v320h-960c-284 0-539 124-715 320h-885v-640zM1600 2240h2560v640H1600z"/><path fill="gray" d="M960 640h3840c176 0 320 144 320 320v3200h-640v-640H1280v1280h1015c-36 100-55 208-55 320h-960v1280h960v640H640V960c0-176 144-320 320-320zm3200 320c-177 0-320 143-320 320s143 320 320 320 320-143 320-320-143-320-320-320zm-2880 960v1280h3200V1920H1280z"/></svg>