<svg xmlns="http://www.w3.org/2000/svg" width="1024" height="1024" shape-rendering="geometricPrecision" text-rendering="geometricPrecision" image-rendering="optimizeQuality" clip-rule="evenodd" viewBox="0 0 10240 10240"><title>server_from_client icon</title><desc>server_from_client icon from the IconExperience.com O-Collection. Copyright by INCORS GmbH (www.incors.com).</desc><path fill="gray" d="M4960 9600h480c176 0 320-144 320-320v-320H3840c-352 0-640-287-640-640V4480c0-353 288-640 640-640h5120c353 0 640 288 640 640v3840c0 352-288 640-640 640H7040v320c0 176 144 320 320 320h480c88 0 160 72 160 160v160H4800v-160c0-88 72-160 160-160zM3840 4480v3840h5120V4480H3840z"/><path fill="#76A797" d="M1600 5440h1280v640H1600zM1600 3840h1525c-152 170-245 394-245 640H1600v-640zM1600 2240h2560v640H1600z"/><path fill="gray" d="M960 640h3840c143 0 264 94 305 223l-470 397c-201 171-269 429-204 660H1280v1280h3200V2043c37 70 87 135 151 191l489 422v864H1280v1280h1600v320H1280v1280h1600v640H640V960c0-176 144-320 320-320zm3200 320c-177 0-320 143-320 320s143 320 320 320 320-143 320-320-143-320-320-320z"/><path fill="#4D82B8" d="M5984 2878h736c68 0 126-40 150-103 24-64 8-133-44-177l-426-360h640c176 0 320 144 320 320v962h960v-962c0-705-575-1280-1280-1280h-640l426-360c52-44 68-113 44-177-24-63-82-103-150-103h-736c-81 0-150 28-212 80l-930 787c-154 129-153 355-1 487l931 806c62 53 131 80 212 80z"/></svg>