<svg xmlns="http://www.w3.org/2000/svg" width="1024" height="1024" shape-rendering="geometricPrecision" text-rendering="geometricPrecision" image-rendering="optimizeQuality" clip-rule="evenodd" viewBox="0 0 10240 10240"><title>server_out icon</title><desc>server_out icon from the IconExperience.com O-Collection. Copyright by INCORS GmbH (www.incors.com).</desc><path fill="#76A797" d="M2250 7350h4480v10h-330c-173 0-315 138-320 310-172 5-310 147-310 320s138 315 310 320v320H2250V7350zM2240 5120h4480v1280H2240V5120zm3830 330c-177 0-320 143-320 320s143 320 320 320 320-143 320-320-143-320-320-320zM2240 2880h4480v1280H2240V2880zm3840 320c-177 0-320 143-320 320s143 320 320 320 320-143 320-320-143-320-320-320z"/><path fill="gray" d="M6400 1280c177 0 320 143 320 320s-143 320-320 320-320-143-320-320 143-320 320-320z"/><path fill="gray" d="M1600 640h5760c176 0 320 144 320 320v4366l-482 557c-103 119-158 263-158 421V4800H1920v1920h5120v640h122c-77-86-122-199-122-320H1920v1920h5760v640H1280V960c0-176 144-320 320-320zm320 1920v1920h5120V2560H1920zM6400 960c-353 0-640 287-640 640s287 640 640 640 640-287 640-640-287-640-640-640z"/><path fill="#4D82B8" d="M7360 6304v736c0 68 40 126 103 150 64 24 133 8 177-44l360-426v640c0 176-144 320-320 320H6400v960h1280c705 0 1280-575 1280-1280v-640l360 426c44 52 113 68 177 44 63-24 103-82 103-150v-736c0-81-28-150-80-212l-787-930c-129-154-355-153-487-1l-806 931c-53 62-80 131-80 212z"/></svg>