<svg xmlns="http://www.w3.org/2000/svg" width="1024" height="1024" shape-rendering="geometricPrecision" text-rendering="geometricPrecision" image-rendering="optimizeQuality" clip-rule="evenodd" viewBox="0 0 10240 10240"><title>shape_octagon icon</title><desc>shape_octagon icon from the IconExperience.com O-Collection. Copyright by INCORS GmbH (www.incors.com).</desc><path fill="#4D82B8" d="M3662 1280h2916c88 0 164 31 226 94l2062 2062c63 62 94 138 94 226v2916c0 88-31 164-94 226L6804 8866c-62 63-138 94-226 94H3662c-88 0-164-31-226-94L1374 6804c-63-62-94-138-94-226V3662c0-88 31-164 94-226l2062-2062c62-63 138-94 226-94zm133 640L1920 3795v2650l1875 1875h2650l1875-1875V3795L6445 1920H3795z"/></svg>