<svg xmlns="http://www.w3.org/2000/svg" width="1024" height="1024" shape-rendering="geometricPrecision" text-rendering="geometricPrecision" image-rendering="optimizeQuality" clip-rule="evenodd" viewBox="0 0 10240 10240"><title>shape_hexagon icon</title><desc>shape_hexagon icon from the IconExperience.com O-Collection. Copyright by INCORS GmbH (www.incors.com).</desc><path fill="#4D82B8" d="M5280 778l3520 2033c102 58 160 159 160 277v4064c0 118-58 219-160 277L5280 9462c-102 58-218 58-320 0L1440 7429c-102-58-160-159-160-277V3088c0-118 58-219 160-277L4960 778c102-58 218-58 320 0zm-160 647L1920 3272v3696l3200 1847 3200-1847V3272L5120 1425z"/></svg>