<svg xmlns="http://www.w3.org/2000/svg" width="1024" height="1024" shape-rendering="geometricPrecision" text-rendering="geometricPrecision" image-rendering="optimizeQuality" clip-rule="evenodd" viewBox="0 0 10240 10240"><title>shapes icon</title><desc>shapes icon from the IconExperience.com O-Collection. Copyright by INCORS GmbH (www.incors.com).</desc><path fill="#4D82B8" d="M2240 1280h3840c176 0 320 144 320 320v1108c-47 43-88 93-122 150l-518 862V1920H2560v2311c-224 51-439 129-640 229V1600c0-176 144-320 320-320zM7102 3025l2453 4173c59 102 60 219 2 321-59 102-160 161-278 161H6009c46-206 71-420 71-640h2640L6824 3814 5722 5649c-113-204-250-394-407-564l1237-2063c60-99 160-156 276-155 116 0 215 58 274 158z"/><path fill="#4D82B8" d="M3200 4480c1414 0 2560 1146 2560 2560S4614 9600 3200 9600 640 8454 640 7040s1146-2560 2560-2560zm0 640c-1060 0-1920 860-1920 1920s860 1920 1920 1920 1920-860 1920-1920-860-1920-1920-1920z"/></svg>