<svg xmlns="http://www.w3.org/2000/svg" width="1024" height="1024" shape-rendering="geometricPrecision" text-rendering="geometricPrecision" image-rendering="optimizeQuality" clip-rule="evenodd" viewBox="0 0 10240 10240"><title>shelf_full icon</title><desc>shelf_full icon from the IconExperience.com O-Collection. Copyright by INCORS GmbH (www.incors.com).</desc><path fill="gray" d="M8960 960v8640h-640V1280H1920v8320h-640V960c0-176 144-320 320-320h7040c176 0 320 144 320 320z"/><path fill="gray" d="M2240 8320h5760v640H2240v-640zm0-5120h5760v640H2240v-640zm0 2560h5760v640H2240v-640z"/><path fill="#76A797" d="M4480 7360h3200v640H4480zM2560 6720h1600v1280H2560zM7680 4160H5120v1280h2560zM3840 4480h960v960h-960zM2560 4480h960v960h-960zM5760 1920h1920v960H5760zM2560 1920h2880v960H2560z"/></svg>