<svg xmlns="http://www.w3.org/2000/svg" width="1024" height="1024" shape-rendering="geometricPrecision" text-rendering="geometricPrecision" image-rendering="optimizeQuality" clip-rule="evenodd" viewBox="0 0 10240 10240"><title>ship1 icon</title><desc>ship1 icon from the IconExperience.com O-Collection. Copyright by INCORS GmbH (www.incors.com).</desc><path fill="#4D82B8" d="M1760 8300c218 394 639 660 1120 660s897-264 1116-654c219 394 641 654 1124 654s903-262 1120-659c219 393 638 659 1120 659s902-266 1120-660c218 394 638 660 1120 660v640c-410 0-799-130-1120-360-321 230-710 360-1120 360-408 0-797-129-1117-358-321 233-711 358-1123 358-411 0-805-124-1126-356-320 228-707 356-1114 356-410 0-799-130-1120-360-321 230-710 360-1120 360v-640c482 0 902-266 1120-660z"/><path fill="gray" d="M1920 6401l3041-1216-1 3442c-287-46-540-217-684-476-57-104-159-164-279-165-119 0-221 60-279 163-171 304-489 491-838 491-32 0-63-2-95-5-215-755-439-1589-865-2234zm3359-1216l3041 1216c-428 648-650 1478-865 2234-32 3-63 5-95 5-350 0-670-190-840-495-58-104-161-165-281-164-119 0-222 61-279 166-143 261-395 434-682 480l1-3442z"/><path fill="gray" d="M6720 3520v320h390c149 0 275 98 311 242l448 1794-2630-1052c-79-32-159-32-238 0L2371 5876l448-1794c36-144 162-242 311-242h390v-320h-640v-320c0-353 287-640 640-640h1440V960h-800V640h1920v320h-800v1600h1440c353 0 640 287 640 640v320h-640zm-1280 0v320h960v-320h-960zm-1600 0v320h960v-320h-960z"/><path fill="gray" d="M6400 1280c353 0 640 287 640 640s-287 640-640 640-640-287-640-640 287-640 640-640zm-2560 0c353 0 640 287 640 640s-287 640-640 640-640-287-640-640 287-640 640-640z"/></svg>