<svg xmlns="http://www.w3.org/2000/svg" width="1024" height="1024" shape-rendering="geometricPrecision" text-rendering="geometricPrecision" image-rendering="optimizeQuality" clip-rule="evenodd" viewBox="0 0 10240 10240"><title>ship2 icon</title><desc>ship2 icon from the IconExperience.com O-Collection. Copyright by INCORS GmbH (www.incors.com).</desc><path fill="#4D82B8" d="M1760 8300c218 394 639 660 1120 660s897-264 1117-654c218 394 640 654 1123 654s903-262 1120-659c219 393 638 659 1120 659s902-266 1120-660c218 394 638 660 1120 660v640c-410 0-799-130-1120-360-321 230-710 360-1120 360-408 0-797-129-1117-358-321 233-711 358-1123 358-411 0-805-124-1126-356-320 228-707 356-1114 356-410 0-799-130-1120-360-321 230-710 360-1120 360v-640c482 0 902-266 1120-660z"/><path fill="gray" d="M960 7360c0-922 2654-1548 3999-1597v2864c-286-47-539-217-683-476-57-104-159-164-278-165-120 0-222 60-280 163-171 304-489 491-838 491-350 0-671-190-840-495-58-105-161-165-280-165s-222 60-280 165c-116 208-302 363-520 440V7360zm4319-1597c1344 46 4001 650 4001 1597v1225c-218-77-404-232-520-440-58-105-161-165-280-165s-222 60-280 165c-169 305-490 495-840 495s-670-190-840-495c-58-104-161-165-281-164-119 0-222 61-279 166-143 261-394 433-681 480V5763z"/><path fill="gray" d="M2560 3200h2399v-960H3840v-320h2560v320H5279v960h2401c176 0 320 144 320 320v320h-320v640h49c158 0 290 112 316 267l218 1309c-421-168-850-281-1137-349-629-148-1359-267-2006-267s-1381 124-2009 275c-284 69-714 183-1136 353l220-1321c26-155 158-267 316-267h49v-640h-320v-320c0-176 144-320 320-320zm4480 640h-640v640h640v-640zm-3840 0v640h640v-640h-640zm2237 0h-637v640h637v-640z"/></svg>