<svg xmlns="http://www.w3.org/2000/svg" width="1024" height="1024" shape-rendering="geometricPrecision" text-rendering="geometricPrecision" image-rendering="optimizeQuality" clip-rule="evenodd" viewBox="0 0 10240 10240"><title>shopping_bag_full icon</title><desc>shopping_bag_full icon from the IconExperience.com O-Collection. Copyright by INCORS GmbH (www.incors.com).</desc><path fill="#EDC87E" d="M2053 2560h187v320c0 176 144 320 320 320h4907c114 0 212-55 272-152s65-209 14-311l-89-177h523c89 0 164 31 227 94l452 452c63 63 94 138 94 227v136c0 35-5 65-16 99-580 1775-616 3817-109 5626 28 99 10 197-53 279-62 83-151 127-255 127H1713c-104 0-193-44-255-127-63-82-81-180-53-279 507-1809 471-3851-109-5626-11-34-16-64-16-99v-136c0-89 31-164 94-227l452-452c63-63 138-94 227-94zm-101 960c533 1727 590 3667 174 5440h5988c-416-1773-359-3713 174-5440H1952z"/><path fill="gray" d="M6400 4480c353 0 640 287 640 640 0 237-129 444-320 554v406c0 441-180 841-469 1131-290 289-690 469-1131 469-426 0-830-169-1131-469-289-290-469-690-469-1131v-406c-191-110-320-317-320-554 0-353 287-640 640-640s640 287 640 640c0 237-129 444-320 554v406c0 264 108 504 282 678 180 181 423 282 678 282 264 0 504-108 678-282s282-414 282-678v-406c-191-110-320-317-320-554 0-353 287-640 640-640z"/><path fill="#76A797" d="M2880 640h1920c176 0 320 144 320 320v411l-1427 711c-296 148-427 495-312 798h-821V960c0-176 144-320 320-320z"/><path fill="#76A797" d="M3836 2368l2412-1208c157-79 350-15 429 143l790 1577H3735l-42-83c-79-158-14-350 143-429z"/></svg>