<svg xmlns="http://www.w3.org/2000/svg" width="1024" height="1024" shape-rendering="geometricPrecision" text-rendering="geometricPrecision" image-rendering="optimizeQuality" clip-rule="evenodd" viewBox="0 0 10240 10240"><title>shredder icon</title><desc>shredder icon from the IconExperience.com O-Collection. Copyright by INCORS GmbH (www.incors.com).</desc><path fill="gray" d="M8320 6720v2240H7040v-640h-960v960h-960v-640h-960v640h-960v320H1920V6720h640v2240h320V6720h640v1920h320V6720h640v1280h320V6720h640v1920h320V6720h640v960h320v-960h640v1600h320V6720z"/><path fill="#ED9A56" d="M8000 5120c177 0 320 143 320 320s-143 320-320 320-320-143-320-320 143-320 320-320z"/><path fill="gray" d="M1280 3200h320v1280h7040V3200h320c353 0 640 287 640 640v2240c0 176-144 320-320 320H960c-176 0-320-144-320-320V3840c0-353 287-640 640-640zm6720 1600c-353 0-640 287-640 640s287 640 640 640 640-287 640-640-287-640-640-640z"/><path fill="gray" d="M6400 1600v960h960l-960-960zM1920 640h3950c352 0 656 126 905 375l1170 1170c249 249 375 553 375 905v1070h-640v-640c0-176-144-320-320-320H5760V1600c0-176-144-320-320-320H2560v2880h-640V640z"/></svg>