<svg xmlns="http://www.w3.org/2000/svg" width="1024" height="1024" shape-rendering="geometricPrecision" text-rendering="geometricPrecision" image-rendering="optimizeQuality" clip-rule="evenodd" viewBox="0 0 10240 10240"><title>shutter icon</title><desc>shutter icon from the IconExperience.com O-Collection. Copyright by INCORS GmbH (www.incors.com).</desc><path fill="gray" d="M5120 640c2474 0 4480 2006 4480 4480S7594 9600 5120 9600 640 7594 640 5120 2646 640 5120 640zm0 640c-2121 0-3840 1719-3840 3840s1719 3840 3840 3840 3840-1719 3840-3840-1719-3840-3840-3840z"/><path fill="gray" d="M4848 1610c1178-90 2374 415 3120 1441 78 107 148 218 213 330-972-270-2060-269-2947 20-568 184-1072 468-1389 881 33-616 213-1244 474-1796 140-296 318-596 529-876z"/><path fill="gray" d="M8374 3777c450 1093 339 2386-406 3412-78 107-161 209-248 304-44-1007-381-2041-929-2796-351-483-777-875-1268-1048 596-160 1249-182 1854-104 325 41 666 118 997 232z"/><path fill="gray" d="M7403 7800c-900 765-2165 1060-3371 668-126-41-248-89-366-142 945-353 1824-993 2372-1748 351-483 593-1009 606-1529v-1c336 518 559 1132 672 1732 60 322 93 670 87 1020z"/><path fill="gray" d="M3277 8119c-1006-619-1677-1731-1677-2999 0-133 8-263 22-392 627 789 1508 1428 2395 1716 568 184 1143 252 1642 103-389 480-904 882-1439 1174-288 157-608 296-943 398z"/><path fill="gray" d="M1698 4294c278-1148 1128-2130 2334-2522 126-41 253-74 380-100-557 840-892 1875-892 2808 0 597 114 1164 409 1593-576-221-1117-586-1561-1005-238-225-469-487-670-774z"/></svg>