<svg xmlns="http://www.w3.org/2000/svg" width="1024" height="1024" shape-rendering="geometricPrecision" text-rendering="geometricPrecision" image-rendering="optimizeQuality" clip-rule="evenodd" viewBox="0 0 10240 10240"><title>sign_warning_harmful icon</title><desc>sign_warning_harmful icon from the IconExperience.com O-Collection. Copyright by INCORS GmbH (www.incors.com).</desc><path fill="#EDC87E" d="M5680 1282l3846 6712c117 205 117 439 0 644s-319 322-554 322H1281c-234 0-436-117-553-322s-117-439 0-644l3846-6712c117-205 318-322 553-322s436 117 553 322zm-560 318L1280 8320h7680L5120 1600z"/><path fill="gray" d="M6720 5440l-640-640-960 960-960-960-640 640 960 960-960 960 640 640 960-960 960 960 640-640-960-960z"/></svg>