<svg xmlns="http://www.w3.org/2000/svg" width="1024" height="1024" shape-rendering="geometricPrecision" text-rendering="geometricPrecision" image-rendering="optimizeQuality" clip-rule="evenodd" viewBox="0 0 10240 10240"><title>signpost icon</title><desc>signpost icon from the IconExperience.com O-Collection. Copyright by INCORS GmbH (www.incors.com).</desc><path fill="gray" d="M5440 640h640c176 0 320 144 320 320v8640H5120V960c0-176 144-320 320-320z"/><path fill="#76A797" d="M6720 3200h1787c89 0 164 31 227 94l640 640c124 124 124 328 0 452l-640 640c-63 63-138 94-227 94H6720V3200z"/><path fill="#EDC87E" d="M1733 1280h3067v1920H1733c-89 0-164-31-227-94l-640-640c-124-124-124-328 0-452l640-640c63-63 138-94 227-94z"/></svg>