<svg xmlns="http://www.w3.org/2000/svg" width="1024" height="1024" shape-rendering="geometricPrecision" text-rendering="geometricPrecision" image-rendering="optimizeQuality" clip-rule="evenodd" viewBox="0 0 10240 10240"><title>signboard_open icon</title><desc>signboard_open icon from the IconExperience.com O-Collection. Copyright by INCORS GmbH (www.incors.com).</desc><path fill="#4D82B8" d="M2880 7040c353 0 640-287 640-640v-320c0-353-287-640-640-640s-640 287-640 640v320c0 353 287 640 640 640zm320-640c0 177-143 320-320 320s-320-143-320-320v-320c0-177 143-320 320-320s320 143 320 320v320zm640-960h800c265 0 480 215 480 480s-215 480-480 480h-480v640h-320V5440zm800 640c88 0 160-72 160-160s-72-160-160-160h-480v320h480zm1760-640v320h-640v320h320v320h-320v320h640v320h-880c-44 0-80-36-80-80V5520c0-44 36-80 80-80h880zm1280 0h320v1600h-276c-28 0-52-14-68-37l-616-969v1006h-320V5440h276c28 0 52 13 68 37l616 969V5440z"/><path fill="gray" d="M960 3200h8320c176 0 320 144 320 320v5760c0 176-144 320-320 320H960c-176 0-320-144-320-320V3520c0-176 144-320 320-320zm320 640v5120h7680V3840H1280zM5120 320c194 0 366 98 512 219l2809 2341h-498L5753 1055c-46 308-312 545-633 545s-587-237-633-545L2297 2880h-498L4608 539c146-121 318-219 512-219z"/></svg>