<svg xmlns="http://www.w3.org/2000/svg" width="1024" height="1024" shape-rendering="geometricPrecision" text-rendering="geometricPrecision" image-rendering="optimizeQuality" clip-rule="evenodd" viewBox="0 0 10240 10240"><title>sign_stop icon</title><desc>sign_stop icon from the IconExperience.com O-Collection. Copyright by INCORS GmbH (www.incors.com).</desc><path fill="#E68497" d="M734 3106L3106 734c63-63 138-94 227-94h3574c89 0 164 31 227 94l2372 2372c63 63 94 138 94 227v3574c0 89-31 164-94 227L7134 9506c-63 63-138 94-227 94H3333c-89 0-164-31-227-94L734 7134c-63-63-94-138-94-227V3333c0-89 31-164 94-227zm546 359v3310l2185 2185h3310l2185-2185V3465L6775 1280H3465L1280 3465zm640 265v2780l1810 1810h2780l1810-1810V3730L6510 1920H3730L1920 3730z"/></svg>