<svg xmlns="http://www.w3.org/2000/svg" width="1024" height="1024" shape-rendering="geometricPrecision" text-rendering="geometricPrecision" image-rendering="optimizeQuality" clip-rule="evenodd" viewBox="0 0 10240 10240"><title>signboard_sold icon</title><desc>signboard_sold icon from the IconExperience.com O-Collection. Copyright by INCORS GmbH (www.incors.com).</desc><path fill="gray" d="M4480 7360h1280v2560H4480z"/><path fill="#4D82B8" d="M3178 2960c-28-49-81-80-138-80h-320c-88 0-160 72-160 160s72 160 160 160h320c265 0 480 215 480 480s-215 480-480 480h-320c-234 0-435-170-473-400h335c28 49 81 80 138 80h320c88 0 160-72 160-160s-72-160-160-160h-320c-265 0-480-215-480-480s215-480 480-480h320c234 0 435 170 473 400h-335zm3622-400h560c353 0 640 288 640 640v320c0 352-288 640-640 640h-560c-44 0-80-36-80-80V2640c0-44 36-80 80-80zM4480 4160c353 0 640-287 640-640v-320c0-353-287-640-640-640s-640 287-640 640v320c0 353 287 640 640 640zm320-640c0 177-143 320-320 320s-320-143-320-320v-320c0-177 143-320 320-320s320 143 320 320v320zm640-960h320v1280h640v320h-960V2560zm1600 320v960h320c176 0 320-144 320-320v-320c0-176-144-320-320-320h-320z"/><path fill="gray" d="M960 640h8320c176 0 320 144 320 320v5760c0 176-144 320-320 320H960c-176 0-320-144-320-320V960c0-176 144-320 320-320zm320 640v5120h7680V1280H1280z"/></svg>