<svg xmlns="http://www.w3.org/2000/svg" width="1024" height="1024" shape-rendering="geometricPrecision" text-rendering="geometricPrecision" image-rendering="optimizeQuality" clip-rule="evenodd" viewBox="0 0 10240 10240"><title>sixpack_beer icon</title><desc>sixpack_beer icon from the IconExperience.com O-Collection. Copyright by INCORS GmbH (www.incors.com).</desc><path fill="gray" d="M8750 3200l183 1062c111 647 347 858 347 1800v658h-640v-320H7360v320h-640v-658c0-942 242-1185 347-1800l183-1062h-210v-320c0-176 144-320 320-320h1280c176 0 320 144 320 320v320h-210zm-7150-640h1280c176 0 320 144 320 320v320h-210l183 1062c111 647 347 858 347 1800v658h-640v-320H1600v320H960v-658c0-942 242-1185 347-1800l183-1062h-210v-320c0-176 144-320 320-320zm2880 0h1280c176 0 320 144 320 320v320h-210l183 1062c111 647 347 858 347 1800v658h-640v-320H4480v320h-640v-658c0-942 242-1185 347-1800l183-1062h-210v-320c0-176 144-320 320-320z"/><path fill="#76A797" d="M9600 7040v2133c0 235-144 427-320 427H960c-176 0-320-192-320-427V7040h8960zM1920 1280h6400c705 0 1280 575 1280 1280v3520-18c0-482-58-835-203-1290-60-189-115-368-149-564l-126-732c94-56 158-159 158-276v-320c0-350-283-636-632-640H7352c-233 3-436 131-546 320h-492c-110-189-313-317-546-320H4472c-233 3-436 131-546 320h-492c-110-189-313-317-546-320H1592c-349 4-632 290-632 640v320c0 117 63 220 158 276l-126 732c-30 174-79 336-132 504-58 183-112 361-149 550-52 264-71 531-71 800V2560c0-705 575-1280 1280-1280zm4840 2880l-8 48c-30 174-79 336-132 504-21 67-42 132-61 198-13-45-27-91-42-138-60-189-115-368-149-564l-8-48h400zm-2880 0l-8 48c-30 174-79 336-132 504-21 67-42 132-61 198-13-45-27-91-42-138-60-189-115-368-149-564l-8-48h400z"/></svg>