<svg xmlns="http://www.w3.org/2000/svg" width="1024" height="1024" shape-rendering="geometricPrecision" text-rendering="geometricPrecision" image-rendering="optimizeQuality" clip-rule="evenodd" viewBox="0 0 10240 10240"><title>skateboard icon</title><desc>skateboard icon from the IconExperience.com O-Collection. Copyright by INCORS GmbH (www.incors.com).</desc><path fill="gray" d="M7680 6400c353 0 640 287 640 640s-287 640-640 640-640-287-640-640 287-640 640-640zm-5120 0c353 0 640 287 640 640s-287 640-640 640-640-287-640-640 287-640 640-640z"/><path fill="#76A797" d="M414 5346c-125-125-125-327 0-452s327-125 452 0l265 265c192 191 408 281 679 281h6620c271 0 487-90 679-281l265-265c125-125 327-125 452 0s125 327 0 452l-265 265c-307 307-697 469-1131 469H1810c-434 0-824-162-1131-469l-265-265z"/></svg>