<svg xmlns="http://www.w3.org/2000/svg" width="1024" height="1024" shape-rendering="geometricPrecision" text-rendering="geometricPrecision" image-rendering="optimizeQuality" clip-rule="evenodd" viewBox="0 0 10240 10240"><title>sledge icon</title><desc>sledge icon from the IconExperience.com O-Collection. Copyright by INCORS GmbH (www.incors.com).</desc><path fill="#B89A7C" d="M7680 5440h640v1600h960c177 0 320 143 320 320s-143 320-320 320H3520c-795 0-1515-322-2036-844-522-521-844-1241-844-2036 0-366 70-729 206-1069 65-164 251-243 415-178 164 66 243 252 177 415-106 266-158 546-158 832 0 619 251 1179 656 1584s965 656 1584 656h320V5440h640v1600h3200V5440z"/><path fill="gray" d="M1626 4480h7974v640H1627c-18-105-27-212-27-320s9-215 26-320z"/></svg>