<svg xmlns="http://www.w3.org/2000/svg" width="1024" height="1024" shape-rendering="geometricPrecision" text-rendering="geometricPrecision" image-rendering="optimizeQuality" clip-rule="evenodd" viewBox="0 0 10240 10240"><title>slider icon</title><desc>slider icon from the IconExperience.com O-Collection. Copyright by INCORS GmbH (www.incors.com).</desc><path fill="gray" d="M960 5120h640v640H960c-176 0-320-144-320-320s144-320 320-320zm3840 0h4480c176 0 320 144 320 320s-144 320-320 320H4800v-640z"/><path fill="#4D82B8" d="M2240 3840h1920c176 0 320 144 320 320v2107c0 89-31 164-94 227l-960 960c-124 124-328 124-452 0l-960-960c-63-63-94-138-94-227V4160c0-176 144-320 320-320zm320 1280v1015l640 640 640-640V5120H2560z"/></svg>