<svg xmlns="http://www.w3.org/2000/svg" width="1024" height="1024" shape-rendering="geometricPrecision" text-rendering="geometricPrecision" image-rendering="optimizeQuality" clip-rule="evenodd" viewBox="0 0 10240 10240"><title>smartphone_cloud icon</title><desc>smartphone_cloud icon from the IconExperience.com O-Collection. Copyright by INCORS GmbH (www.incors.com).</desc><path fill="gray" d="M9253 2852c408 293 667 771 667 1300 0 883-716 1598-1599 1600l-3521 7v-640l3520-7c530-1 960-430 960-960 0-467-333-856-775-942 73-148 113-314 113-490 0-619-501-1120-1120-1120-344 0-651 155-857 399-173-600-727-1039-1383-1039-795 0-1440 645-1440 1440 0 67 5 133 14 197-211 52-401 148-556 283h-814c169-300 419-547 729-717 118-1037 999-1843 2067-1843 636 0 1220 289 1606 758 200-77 414-118 634-118 972 0 1760 788 1760 1760 0 44-2 88-5 132z"/><path fill="gray" d="M1280 3200h2560c353 0 640 288 640 640v5120c0 352-288 640-640 640H1280c-352 0-640-288-640-640V3840c0-353 288-640 640-640zm1280 5120c-265 0-480 215-480 480s215 480 480 480 480-215 480-480-215-480-480-480zM1280 4480v3520h2560V4480H1280zm960-960c-176 0-320 144-320 320s144 320 320 320h640c176 0 320-144 320-320s-144-320-320-320h-640z"/></svg>