<svg xmlns="http://www.w3.org/2000/svg" width="1024" height="1024" shape-rendering="geometricPrecision" text-rendering="geometricPrecision" image-rendering="optimizeQuality" clip-rule="evenodd" viewBox="0 0 10240 10240"><title>smartcard icon</title><desc>smartcard icon from the IconExperience.com O-Collection. Copyright by INCORS GmbH (www.incors.com).</desc><path fill="gray" d="M1280 1920h7680c353 0 640 287 640 640v5120c0 353-287 640-640 640H1280c-353 0-640-287-640-640V2560c0-353 287-640 640-640zM960 3200v3840h8320V3200H960z"/><path fill="#EDC87E" d="M1280 3840h2560v640h-960v320h960v640h-960v320h960v640H1280v-640h960v-320h-960v-640h960v-320l-960 6z"/></svg>