<svg xmlns="http://www.w3.org/2000/svg" width="1024" height="1024" shape-rendering="geometricPrecision" text-rendering="geometricPrecision" image-rendering="optimizeQuality" clip-rule="evenodd" viewBox="0 0 10240 10240"><title>smartphone icon</title><desc>smartphone icon from the IconExperience.com O-Collection. Copyright by INCORS GmbH (www.incors.com).</desc><path fill="#4D82B8" d="M3200 2240h3840v5120H3200z"/><path fill="gray" d="M2880 640h4480c353 0 640 288 640 640v7680c0 352-288 640-640 640H2880c-352 0-640-287-640-640V1280c0-353 288-640 640-640zm1600 320c-176 0-320 144-320 320s144 320 320 320h1280c176 0 320-144 320-320s-144-320-320-320H4480zm640 7040c-353 0-640 287-640 640s287 640 640 640 640-287 640-640-287-640-640-640zM2880 1920v5760h4480V1920H2880z"/></svg>