<svg xmlns="http://www.w3.org/2000/svg" width="1024" height="1024" shape-rendering="geometricPrecision" text-rendering="geometricPrecision" image-rendering="optimizeQuality" clip-rule="evenodd" viewBox="0 0 10240 10240"><title>sms icon</title><desc>sms icon from the IconExperience.com O-Collection. Copyright by INCORS GmbH (www.incors.com).</desc><path fill="#4D82B8" d="M5120 640c2474 0 4480 1576 4480 3520 0 911-440 1740-1162 2365-108 93-174 203-206 341-318 1393-1486 2414-3112 2414 213-213 354-475 449-761 66-198 37-398-84-569-120-172-298-267-507-272-2409-59-4338-1611-4338-3518 0-1944 2006-3520 4480-3520zm1280 1920h-577c-62 0-116 33-143 88l-560 1119-560-1119c-27-55-81-88-143-88h-577v3200h640V3912l311 622c28 56 81 88 143 88h372c62 0 115-32 143-88l311-621v1847h640V2560zm-3563 800h670c-78-460-479-800-947-800h-320c-529 0-960 431-960 960s431 960 960 960h320c176 0 320 144 320 320s-144 320-320 320h-320c-114 0-220-62-277-160h-670c78 460 479 800 947 800h320c529 0 960-431 960-960s-431-960-960-960h-320c-176 0-320-144-320-320s144-320 320-320h320c114 0 219 62 277 160zm5440 0h670c-78-460-479-800-947-800h-320c-529 0-960 431-960 960s431 960 960 960h320c176 0 320 144 320 320s-144 320-320 320h-320c-114 0-219-62-277-160h-670c78 460 479 800 947 800h320c529 0 960-431 960-960s-431-960-960-960h-320c-176 0-320-144-320-320s144-320 320-320h320c114 0 219 62 277 160z"/></svg>