<svg xmlns="http://www.w3.org/2000/svg" width="1024" height="1024" shape-rendering="geometricPrecision" text-rendering="geometricPrecision" image-rendering="optimizeQuality" clip-rule="evenodd" viewBox="0 0 10240 10240"><title>soap_dispenser icon</title><desc>soap_dispenser icon from the IconExperience.com O-Collection. Copyright by INCORS GmbH (www.incors.com).</desc><path fill="#4D82B8" d="M2880 5760v2560c0 175 145 320 320 320h3840c175 0 320-145 320-320V5760H2880z"/><path fill="gray" d="M3840 3200h640v640h-640c-704 0-1280 576-1280 1280v3200c0 352 288 640 640 640h3840c352 0 640-288 640-640V5120c0-704-576-1280-1280-1280h-640v-640h640c1058 0 1920 862 1920 1920v3200c0 705-575 1280-1280 1280H3200c-705 0-1280-575-1280-1280V5120c0-1058 863-1920 1920-1920z"/><path fill="gray" d="M5440 2880v2560h-640V2880h-960V1280c0-352 288-640 640-640h1280c353 0 640 288 640 640h640c176 0 336 72 452 188 116 115 188 276 188 452v320h-640v-320h-640v960h-960zm1600-960z"/></svg>