<svg xmlns="http://www.w3.org/2000/svg" width="1024" height="1024" shape-rendering="geometricPrecision" text-rendering="geometricPrecision" image-rendering="optimizeQuality" clip-rule="evenodd" viewBox="0 0 10240 10240"><title>sort_ascending icon</title><desc>sort_ascending icon from the IconExperience.com O-Collection. Copyright by INCORS GmbH (www.incors.com).</desc><path fill="#4D82B8" d="M5760 7680h3200v1280H5760V7680zm1920-5760h1280v1280H7680V1920zm-640 1920h1920v1280H7040V3840zm-640 1920h2560v1280H6400V5760z"/><path fill="gray" d="M5253 2747L3426 921c-124-124-328-124-452 0L1147 2747c-124 125-187 277-187 453v1159c0 142 172 214 273 113l1327-1327v5495c0 176 144 320 320 320h640c176 0 320-144 320-320V3145l1327 1327c101 101 273 29 273-113V3200c0-176-63-328-187-453z"/></svg>