<svg xmlns="http://www.w3.org/2000/svg" width="1024" height="1024" shape-rendering="geometricPrecision" text-rendering="geometricPrecision" image-rendering="optimizeQuality" clip-rule="evenodd" viewBox="0 0 10240 10240"><title>spade icon</title><desc>spade icon from the IconExperience.com O-Collection. Copyright by INCORS GmbH (www.incors.com).</desc><path fill="gray" d="M4311 8524c-755 756-1847 928-2793 593-191-68-327-204-395-395-335-946-163-2038 593-2793l901-901c126-127 333-127 459 0l2136 2136c127 126 127 333 0 459l-901 901z"/><path fill="#B89A7C" d="M7906 734l1600 1600c125 125 125 327 0 452l-772 773c-183 182-421 281-679 281H6853L4597 6096l-453-453 2256-2256V2185c0-258 99-496 281-679l773-772c125-125 327-125 452 0zm922 1826L7680 1412l-546 547c-67 67-94 131-94 226v1015h1015c95 0 159-27 226-94l547-546z"/></svg>