<svg xmlns="http://www.w3.org/2000/svg" width="1024" height="1024" shape-rendering="geometricPrecision" text-rendering="geometricPrecision" image-rendering="optimizeQuality" clip-rule="evenodd" viewBox="0 0 10240 10240"><title>spam icon</title><desc>spam icon from the IconExperience.com O-Collection. Copyright by INCORS GmbH (www.incors.com).</desc><path fill="gray" d="M1280 8960h7680c176 0 320 144 320 320s-144 320-320 320H1280c-176 0-320-144-320-320s144-320 320-320zm0-3520h7680v3200H1280V5440zm0-960h7680c176 0 320 144 320 320s-144 320-320 320H1280c-176 0-320-144-320-320s144-320 320-320z"/><path fill="#E68497" d="M5618 4160l-67-181c-61-165 24-350 189-411l1801-666c165-61 350 24 411 189l395 1069H5618zm-921-2103l1734 824c32 15 61 35 85 59l-887 328c-330 122-500 491-378 822l26 70h-477v-640c0-353-287-640-640-640h-208l318-671c76-159 267-227 427-152zM2240 3200h1920c176 0 320 144 320 320v640H1920v-640c0-176 144-320 320-320z"/></svg>