<svg xmlns="http://www.w3.org/2000/svg" width="1024" height="1024" shape-rendering="geometricPrecision" text-rendering="geometricPrecision" image-rendering="optimizeQuality" clip-rule="evenodd" viewBox="0 0 10240 10240"><title>spirit_level icon</title><desc>spirit_level icon from the IconExperience.com O-Collection. Copyright by INCORS GmbH (www.incors.com).</desc><path fill="gray" d="M6720 3831h320v2578h-320zM3200 3831h320v2578h-320z"/><path fill="gray" d="M640 3840h140c298 0 549 196 621 485l398 1590c72 289 323 485 621 485h5400c298 0 549-196 621-485l398-1590c72-289 323-485 621-485h140v3840H640V3840z"/><path fill="#EDC87E" d="M1498 3840h7244c-100 113-175 251-214 407l-397 1591c-37 146-160 242-311 242h-460V3840h-960v2240H3840V3840h-960v2240h-460c-151 0-274-96-311-242l-397-1591c-39-156-114-294-214-407zm3622 320c-640 0-960 0-960 320s320 640 960 640 960-320 960-640-320-320-960-320z"/></svg>