<svg xmlns="http://www.w3.org/2000/svg" width="1024" height="1024" shape-rendering="geometricPrecision" text-rendering="geometricPrecision" image-rendering="optimizeQuality" clip-rule="evenodd" viewBox="0 0 10240 10240"><title>spray_can icon</title><desc>spray_can icon from the IconExperience.com O-Collection. Copyright by INCORS GmbH (www.incors.com).</desc><path fill="gray" d="M3840 4160h3200c176 0 320 144 320 320v4800c0 176-144 320-320 320H3840c-176 0-320-144-320-320V4480c0-176 144-320 320-320zm320 960v3520c0 176 144 320 320 320s320-144 320-320V5120c0-176-144-320-320-320s-320 144-320 320zM4800 1280h1280c176 0 320 144 320 320v1600h160c88 0 160 72 160 160v480H4160v-480c0-88 72-160 160-160h160v-320c353 0 640-287 640-640s-287-640-640-640c0-176 144-320 320-320z"/><path fill="#4D82B8" d="M4480 1920c177 0 320 143 320 320s-143 320-320 320-320-143-320-320 143-320 320-320zM1600 3840c177 0 320 143 320 320s-143 320-320 320-320-143-320-320 143-320 320-320zm0-3840c177 0 320 143 320 320s-143 320-320 320-320-143-320-320S1423 0 1600 0zm0 1280c177 0 320 143 320 320s-143 320-320 320-320-143-320-320 143-320 320-320zm0 1280c177 0 320 143 320 320s-143 320-320 320-320-143-320-320 143-320 320-320zm960 640c177 0 320 143 320 320s-143 320-320 320-320-143-320-320 143-320 320-320zm0-2560c177 0 320 143 320 320s-143 320-320 320-320-143-320-320 143-320 320-320zm0 1280c177 0 320 143 320 320s-143 320-320 320-320-143-320-320 143-320 320-320zm960-640c177 0 320 143 320 320s-143 320-320 320-320-143-320-320 143-320 320-320zm0 1280c177 0 320 143 320 320s-143 320-320 320-320-143-320-320 143-320 320-320z"/></svg>