<svg xmlns="http://www.w3.org/2000/svg" width="1024" height="1024" shape-rendering="geometricPrecision" text-rendering="geometricPrecision" image-rendering="optimizeQuality" clip-rule="evenodd" viewBox="0 0 10240 10240"><title>spreadsheed_data icon</title><desc>spreadsheed_data icon from the IconExperience.com O-Collection. Copyright by INCORS GmbH (www.incors.com).</desc><path fill="#EDC87E" d="M5120 3840h3840c353 0 640 288 640 640v640c0 352-288 640-640 640 353 0 640 288 640 640v640c0 352-288 640-640 640 353 0 640 288 640 640v640c0 352-288 640-640 640H5120c-352 0-640-287-640-640v-640c0-353 288-640 640-640-352 0-640-287-640-640v-640c0-353 288-640 640-640-352 0-640-287-640-640v-640c0-353 288-640 640-640zm128 4480c-70 0-128 72-128 160v320c0 88 58 160 128 160h1792v-640H5248zm0-3840c-70 0-128 72-128 160v320c0 88 58 160 128 160h1792v-640H5248zm0 1920c-70 0-128 72-128 160v320c0 88 58 160 128 160h1792v-640H5248z"/><path fill="gray" d="M9280 2560v1015c-100-36-208-55-320-55h-320v-320H7360v320h-640v-320H5440v320h-320c-112 0-220 19-320 55v-375H3520v1280h640v640h-640v1280h640v640h-640v1280h640v640H2880V2560h6400zM2560 2560v640h-960v1280h960v640h-960v1280h960v640h-960v1280h960v640h-960c-352 0-640-287-640-640V2560h1600zM8640 640c353 0 640 287 640 640v960h-640v-960H7360v960h-640v-960H5440v960h-640v-960H3520v960h-640V640h5760zM1600 640h960v1600H960v-960c0-353 287-640 640-640z"/></svg>