<svg xmlns="http://www.w3.org/2000/svg" width="1024" height="1024" shape-rendering="geometricPrecision" text-rendering="geometricPrecision" image-rendering="optimizeQuality" clip-rule="evenodd" viewBox="0 0 10240 10240"><title>spreadsheed_sort_descending icon</title><desc>spreadsheed_sort_descending icon from the IconExperience.com O-Collection. Copyright by INCORS GmbH (www.incors.com).</desc><path fill="gray" d="M9280 2560v2294l-640-640V3200H7360v405c-47 28-92 62-133 102l-507 507V3200H5440v1280h1014l-640 640h-374v374l-39 39c-184 185-281 418-281 679v1159c0 195 116 368 296 443l24 9v497h1280v640H2880V2560h6400zm0 5009v1391h-640V6930l640 639zm-5760-529v1280h1280V7040H3520zm0-1920v1280h1280V5120H3520zm0-1920v1280h1280V3200H3520zM2560 2560v640h-960v1280h960v640h-960v1280h960v640h-960v1280h960v640h-960c-352 0-640-287-640-640V2560h1600zM8640 640c353 0 640 287 640 640v960h-640v-960H7360v960h-640v-960H5440v960h-640v-960H3520v960h-640V640h5760zM1600 640h960v1600H960v-960c0-353 287-640 640-640z"/><path fill="#4D82B8" d="M9733 5759L7906 3933c-124-124-328-124-452 0L5627 5759c-124 125-187 277-187 453v1159c0 66 38 122 99 148 61 25 127 12 174-35l1327-1327v3443c0 176 144 320 320 320h640c176 0 320-144 320-320V6157l1327 1327c47 46 113 60 174 34 61-25 99-81 99-147V6212c0-176-63-328-187-453z"/></svg>