<svg xmlns="http://www.w3.org/2000/svg" width="1024" height="1024" shape-rendering="geometricPrecision" text-rendering="geometricPrecision" image-rendering="optimizeQuality" clip-rule="evenodd" viewBox="0 0 10240 10240"><title>spreadsheed_sort_ascending icon</title><desc>spreadsheed_sort_ascending icon from the IconExperience.com O-Collection. Copyright by INCORS GmbH (www.incors.com).</desc><path fill="gray" d="M9280 2560v3631l-640 639V3200H7360v320c-352 0-639 287-640 639v-959H5440v1280h1280v640H5440v817l-24 9c-180 75-296 248-296 443v1159c0 261 97 494 281 679l39 39 694 694H2880V2560h6400zM3520 7040v1280h1280V7040H3520zm0-1920v1280h1280V5120H3520zm3200 1280h-430l430 430v-430zM3520 3200v1280h1280V3200H3520zM2560 2560v640h-960v1280h960v640h-960v1280h960v640h-960v1280h960v640h-960c-352 0-640-287-640-640V2560h1600zM8640 640c353 0 640 287 640 640v960h-640v-960H7360v960h-640v-960H5440v960h-640v-960H3520v960h-640V640h5760zM1600 640h960v1600H960v-960c0-353 287-640 640-640z"/><path fill="#4D82B8" d="M9733 8001L7906 9827c-124 124-328 124-452 0L5627 8001c-124-125-187-277-187-453V6389c0-66 38-122 99-148 61-25 127-12 174 35l1327 1327V4160c0-176 144-320 320-320h640c176 0 320 144 320 320v3443l1327-1327c47-46 113-60 174-34 61 25 99 81 99 147v1159c0 176-63 328-187 453z"/></svg>