<svg xmlns="http://www.w3.org/2000/svg" width="1024" height="1024" shape-rendering="geometricPrecision" text-rendering="geometricPrecision" image-rendering="optimizeQuality" clip-rule="evenodd" viewBox="0 0 10240 10240"><title>spy icon</title><desc>spy icon from the IconExperience.com O-Collection. Copyright by INCORS GmbH (www.incors.com).</desc><path fill="gray" d="M2560 4480l1638 546c185 62 320 189 392 370l530 1324 530-1324c72-181 207-308 392-370l1638-546-265 1434c560 660 905 1562 905 2556 0 810-1920 1130-3200 1130s-3200-320-3200-1129c0-995 345-1896 905-2557l-265-1434z"/><path fill="#EFC1B4" d="M5120 640c1414 0 2560 1141 2560 2549 0 365-77 712-216 1026l-1524 508c-274 91-480 285-587 554l-185 461c-16 0-32 1-48 1s-32-1-48-1l-185-461c-107-269-313-463-587-554l-1524-508c-139-314-216-661-216-1026 0-1408 1146-2549 2560-2549zm1920 2560v-640c0-176-144-320-320-320H3520c-176 0-320 144-320 320v640c0 176 144 320 320 320h960c176 0 320-144 320-320v-320c0-176 144-320 320-320s320 144 320 320v320c0 176 144 320 320 320h960c176 0 320-144 320-320z"/></svg>