<svg xmlns="http://www.w3.org/2000/svg" width="1024" height="1024" shape-rendering="geometricPrecision" text-rendering="geometricPrecision" image-rendering="optimizeQuality" clip-rule="evenodd" viewBox="0 0 10240 10240"><title>ssd_drive icon</title><desc>ssd_drive icon from the IconExperience.com O-Collection. Copyright by INCORS GmbH (www.incors.com).</desc><path fill="gray" d="M3840 3520h2560c176 0 320 144 320 320v2560c0 176-144 320-320 320h-507c-88 0-164-31-227-94l-132-132c-63-63-138-94-227-94h-374c-89 0-164 31-227 94l-132 132c-63 63-138 94-227 94h-507c-176 0-320-144-320-320V3840c0-176 144-320 320-320z"/><path fill="gray" d="M2240 960h5760c353 0 640 288 640 640v7040c0 352-288 640-640 640H2240c-352 0-640-287-640-640V1600c0-352 287-640 640-640zm320 7040c-177 0-320 143-320 320s143 320 320 320 320-143 320-320-143-320-320-320zm0-6400c-177 0-320 143-320 320s143 320 320 320 320-143 320-320-143-320-320-320zm5120 0c-177 0-320 143-320 320s143 320 320 320 320-143 320-320-143-320-320-320zm0 6400c-177 0-320 143-320 320s143 320 320 320 320-143 320-320-143-320-320-320zM4000 2560c-88 0-160 72-160 160v480c-352 0-640 288-640 640h-480c-88 0-160 72-160 160v320c0 88 72 160 160 160h480v320h-480c-88 0-160 72-160 160v320c0 88 72 160 160 160h480v320h-480c-88 0-160 72-160 160v320c0 88 72 160 160 160h480c0 353 288 640 640 640v480c0 88 72 160 160 160h320c88 0 160-72 160-160v-480h320v480c0 88 72 160 160 160h320c88 0 160-72 160-160v-480h320v480c0 88 72 160 160 160h320c88 0 160-72 160-160v-480c353 0 640-287 640-640h480c88 0 160-72 160-160v-320c0-88-72-160-160-160h-480v-320h480c88 0 160-72 160-160v-320c0-88-72-160-160-160h-480v-320h480c88 0 160-72 160-160v-320c0-88-72-160-160-160h-480c0-352-287-640-640-640v-480c0-88-72-160-160-160h-320c-88 0-160 72-160 160v480h-320v-480c0-88-72-160-160-160h-320c-88 0-160 72-160 160v480h-320v-480c0-88-72-160-160-160h-320z"/></svg>