<svg xmlns="http://www.w3.org/2000/svg" width="1024" height="1024" shape-rendering="geometricPrecision" text-rendering="geometricPrecision" image-rendering="optimizeQuality" clip-rule="evenodd" viewBox="0 0 10240 10240"><title>stairs_up icon</title><desc>stairs_up icon from the IconExperience.com O-Collection. Copyright by INCORS GmbH (www.incors.com).</desc><path fill="gray" d="M7360 3200h2240v1280H8320v1920H6400v1920H4480v1280H3200V7360c0-176 144-320 320-320h1600V5440c0-176 144-320 320-320h1600V3520c0-176 144-320 320-320z"/><path fill="#4D82B8" d="M6400 960v2263c0 88-31 164-94 226l-776 777c-70 70-170 90-262 52-91-38-148-123-148-222V2825L3685 4260c-125 125-328 125-453 0l-452-452c-125-125-125-328 0-453l1435-1435H2984c-99 0-184-57-222-148-38-92-18-192 52-262l777-776c62-63 138-94 226-94h2263c176 0 320 144 320 320z"/></svg>