<svg xmlns="http://www.w3.org/2000/svg" width="1024" height="1024" shape-rendering="geometricPrecision" text-rendering="geometricPrecision" image-rendering="optimizeQuality" clip-rule="evenodd" viewBox="0 0 10240 10240"><title>star2 icon</title><desc>star2 icon from the IconExperience.com O-Collection. Copyright by INCORS GmbH (www.incors.com).</desc><path fill="#EDC87E" d="M5725 1082l687 2148c43 135 163 223 305 222l2246-4c279-1 518 172 604 439 87 267-3 548-229 713L7513 5932c-114 83-159 223-116 357l698 2155c87 268-4 548-231 713-228 165-522 164-748-2L5310 7825c-115-84-265-84-380 0L3124 9155c-226 166-520 167-748 2-227-165-318-445-231-713l698-2155c43-134-2-274-116-357L903 4600c-227-165-317-446-230-713 86-267 325-440 604-439l2246 4c142 1 262-87 305-222l687-2148c86-268 324-442 605-442s519 174 605 442zm-605 211l-682 2132c-128 400-496 668-916 667l-2235-4 1818 1327c335 245 475 677 347 1072l-695 2143 1794-1320c340-251 798-251 1138 0l1794 1320-695-2143c-128-395 12-827 347-1072l1818-1327-2235 4c-420 1-788-267-916-667l-682-2132z"/></svg>