<svg xmlns="http://www.w3.org/2000/svg" width="1024" height="1024" shape-rendering="geometricPrecision" text-rendering="geometricPrecision" image-rendering="optimizeQuality" clip-rule="evenodd" viewBox="0 0 10240 10240"><title>star_of_david icon</title><desc>star_of_david icon from the IconExperience.com O-Collection. Copyright by INCORS GmbH (www.incors.com).</desc><path fill="#4D82B8" d="M1194 7680h2402l1247 2160c123 212 431 212 554 0l1247-2160h2402c247 0 400-266 277-480L8122 5120l1201-2080c123-214-30-480-277-480H6644L5397 400c-123-212-431-212-554 0L3596 2560H1194c-247 0-400 266-277 480l1201 2080L917 7200c-123 214 30 480 277 480zm3141 0h1570l-785 1360-785-1360zm3417-3200l-739-1280h1479l-740 1280zM3227 3200l-739 1280-739-1280h1478zm1108-640l785-1360 785 1360H4335zm3417 3200l740 1280H7013l739-1280zM3227 7040H1749l739-1280 739 1280zm-370-1920l1109-1920h2308l1109 1920-1109 1920H3966L2857 5120z"/></svg>