<svg xmlns="http://www.w3.org/2000/svg" width="1024" height="1024" shape-rendering="geometricPrecision" text-rendering="geometricPrecision" image-rendering="optimizeQuality" clip-rule="evenodd" viewBox="0 0 10240 10240"><title>steering_wheel icon</title><desc>steering_wheel icon from the IconExperience.com O-Collection. Copyright by INCORS GmbH (www.incors.com).</desc><path fill="gray" d="M7700 3840c192 386 300 820 300 1280h-320c-1057 0-1920 863-1920 1920v889c-206 46-420 71-640 71s-434-25-640-71v-889c0-1057-862-1920-1920-1920h-320c0-460 108-894 300-1280h5160zm-2580 640c-353 0-640 287-640 640s287 640 640 640 640-287 640-640-287-640-640-640z"/><path fill="gray" d="M5120 640c2474 0 4480 2006 4480 4480S7594 9600 5120 9600 640 7594 640 5120 2646 640 5120 640zm0 1280c-1767 0-3200 1433-3200 3200s1433 3200 3200 3200 3200-1433 3200-3200-1433-3200-3200-3200z"/></svg>