<svg xmlns="http://www.w3.org/2000/svg" width="1024" height="1024" shape-rendering="geometricPrecision" text-rendering="geometricPrecision" image-rendering="optimizeQuality" clip-rule="evenodd" viewBox="0 0 10240 10240"><title>stethoscope icon</title><desc>stethoscope icon from the IconExperience.com O-Collection. Copyright by INCORS GmbH (www.incors.com).</desc><path fill="#4D82B8" d="M8001 640c884 0 1600 716 1600 1600s-716 1600-1600 1600c-883 0-1600-716-1600-1600S7118 640 8001 640zm-1 642c-530 0-960 430-960 960s430 960 960 960 960-430 960-960-430-960-960-960z"/><path fill="gray" d="M8000 1602c352 0 640 288 640 640 0 351-288 640-640 640s-640-289-640-640c0-352 288-640 640-640zM8320 4133v2587c0 1591-1289 2880-2880 2880S2560 8311 2560 6720c5-237-118-339-301-454-323-201-659-411-659-1146v-320c0-151-95-345-217-436-466-350-743-901-743-1484 0-717 583-1397 1280-1562v-38c0-176 144-320 320-320s320 144 320 320v640c0 176-144 320-320 320-153 0-282-109-313-253-354 149-647 525-647 893 0 386 177 742 486 974 278 209 474 598 474 946v320c0 381 182 495 356 604 99 61 197 122 284 197 87-75 185-136 284-197 174-109 356-223 356-604v-320c0-348 196-737 474-946 309-232 486-588 486-974 0-368-293-744-647-893-31 147-162 253-313 253-176 0-320-144-320-320v-640c0-176 144-320 320-320s320 144 320 320v38c697 165 1280 845 1280 1562 0 583-277 1134-743 1484-122 91-217 285-217 436v320c0 735-336 945-659 1146-153 96-301 188-301 454-18 1230 1021 2240 2240 2240 1237 0 2240-1003 2240-2240V4133c211 36 429 36 640 0z"/></svg>