<svg xmlns="http://www.w3.org/2000/svg" width="1024" height="1024" shape-rendering="geometricPrecision" text-rendering="geometricPrecision" image-rendering="optimizeQuality" clip-rule="evenodd" viewBox="0 0 10240 10240"><title>sticky_note icon</title><desc>sticky_note icon from the IconExperience.com O-Collection. Copyright by INCORS GmbH (www.incors.com).</desc><path fill="#EDC87E" d="M2560 1280c214 0 441 46 638 126l5393 2174c231 108 369 326 369 580v4160c0 352-287 640-640 640H1920c-352 0-640-288-640-640V1920c0-353 288-640 640-640h640zm5086 2608L4925 2792c401 459 752 938 1027 1304l556 741 1138-949zM1920 1920v6399l6399 1 1-3818c0-136-158-210-262-123l-1140 950c-283 235-701 187-922-108l-556-741c-557-743-1853-2560-2880-2560h-640z"/></svg>