<svg xmlns="http://www.w3.org/2000/svg" width="1024" height="1024" shape-rendering="geometricPrecision" text-rendering="geometricPrecision" image-rendering="optimizeQuality" clip-rule="evenodd" viewBox="0 0 10240 10240"><title>sticky_note_text icon</title><desc>sticky_note_text icon from the IconExperience.com O-Collection. Copyright by INCORS GmbH (www.incors.com).</desc><path fill="#EDC87E" d="M2560 1280c214 0 441 46 638 126l5393 2174c231 108 369 326 369 580v4160c0 352-287 640-640 640H1920c-352 0-640-288-640-640V1920c0-353 288-640 640-640h640zm5086 2608L4925 2792c401 459 752 938 1027 1304l556 741 1138-949zM1920 1920v6399l6399 1 1-3818c0-136-158-210-262-123l-1140 950c-283 235-701 187-922-108l-556-741c-557-743-1853-2560-2880-2560h-640z"/><path fill="gray" d="M6817 5747c-132 46-275 61-421 44-53-7-105-17-155-31h-321c-88 0-160-72-160-160s-72-160-160-160-160 72-160 160-72 160-160 160h-320c-88 0-160 72-160 160v320c0 88 72 160 160 160s160-72 160-160 72-160 160-160h960c88 0 160 72 160 160s72 160 160 160 160-72 160-160 72-160 160-160 160-72 160-160-72-160-160-160c-22 0-43-5-63-13zm-1537-947l-96-128-58-77c-4 14-6 29-6 45 0 88 72 160 160 160zm-812-1060c-129-158-261-314-400-466-21-23-44-48-69-74-88 0-159-72-159-160v-5c-50-51-104-103-160-155-88 0-160 72-160 160s-72 160-160 160h-320c-88 0-160-72-160-160s-72-160-160-160-160 72-160 160v640c0 88 72 160 160 160s160-72 160-160 72-160 160-160 160 72 160 160 72 160 160 160 160-72 160-160 72-160 160-160h320c88 0 160 72 160 160s72 160 160 160c67 0 124-41 148-100zm1772 2980c88 0 160 72 160 160s72 160 160 160h960c88 0 160 72 160 160s-72 160-160 160-160 72-160 160-72 160-160 160-160-72-160-160-72-160-160-160-160 72-160 160-72 160-160 160-160-72-160-160-72-160-160-160-160-72-160-160v-320c0-88 72-160 160-160zm-3520-960h320c88 0 160-72 160-160s72-160 160-160 160 72 160 160v320c0 88 72 160 160 160s160 72 160 160-72 160-160 160h-320c-88 0-160-72-160-160s-72-160-160-160h-320c-88 0-160-72-160-160s72-160 160-160zm3040 1760c0 88-72 160-160 160s-160-72-160-160-72-160-160-160-160 72-160 160-72 160-160 160-160-72-160-160-72-160-160-160h-640c-88 0-160 72-160 160s-72 160-160 160-160-72-160-160v-640c0-88 72-160 160-160s160 72 160 160 72 160 160 160 160-72 160-160 72-160 160-160 160 72 160 160 72 160 160 160h960c88 0 160 72 160 160v320zm-2560-320c0 88-72 160-160 160s-160 72-160 160-72 160-160 160-160-72-160-160v-320c0-88 72-160 160-160h320c88 0 160 72 160 160zm4320-1440h320c88 0 160 72 160 160s-72 160-160 160h-320c-88 0-160-72-160-160s72-160 160-160zm-3200 0c88 0 160 72 160 160s-72 160-160 160-160-72-160-160 72-160 160-160zM2720 4160c88 0 160 72 160 160s72 160 160 160h320c88 0 160-72 160-160s72-160 160-160 160 72 160 160 72 160 160 160h640c88 0 160 72 160 160s-72 160-160 160h-960c-88 0-160 72-160 160s-72 160-160 160-160-72-160-160-72-160-160-160-160 72-160 160-72 160-160 160-160-72-160-160v-640c0-88 72-160 160-160z"/></svg>