<svg xmlns="http://www.w3.org/2000/svg" width="1024" height="1024" shape-rendering="geometricPrecision" text-rendering="geometricPrecision" image-rendering="optimizeQuality" clip-rule="evenodd" viewBox="0 0 10240 10240"><title>stockbroker2 icon</title><desc>stockbroker2 icon from the IconExperience.com O-Collection. Copyright by INCORS GmbH (www.incors.com).</desc><path fill="gray" d="M8000 8640c0 650-1316 881-2417 930l403-404c79-79 110-184 87-293l-358-1676 84-83c184-185 281-418 281-679v-116c0-35-5-68-15-99 170-68 330-152 480-253 947 721 1455 1078 1455 2673zm-3343 930c-1101-49-2417-281-2417-930 0-1594 509-1953 1455-2673 150 101 310 185 480 253-10 31-15 64-15 99v116c0 261 97 494 281 679l84 83-358 1676c-23 109 8 214 87 293l403 404z"/><path fill="#E68497" d="M5760 6319v116c0 176-63 328-187 453l-207 206 394 1846-640 640-640-640 394-1846-207-206c-124-125-187-277-187-453v-116c205 53 419 81 640 81s435-28 640-81z"/><path fill="#EFC1B4" d="M7267 3200c60 203 93 418 93 640 0 1237-1003 2240-2240 2240S2880 5077 2880 3840c0-222 33-437 93-640h4294z"/><path fill="gray" d="M3200 2240v-640c0-893 711-1280 1920-1280s1920 387 1920 1280v640h640c176 0 320 144 320 320s-144 320-320 320H2560c-176 0-320-144-320-320s144-320 320-320h640z"/></svg>