<svg xmlns="http://www.w3.org/2000/svg" width="1024" height="1024" shape-rendering="geometricPrecision" text-rendering="geometricPrecision" image-rendering="optimizeQuality" clip-rule="evenodd" viewBox="0 0 10240 10240"><title>suitcase2 icon</title><desc>suitcase2 icon from the IconExperience.com O-Collection. Copyright by INCORS GmbH (www.incors.com).</desc><path fill="#EDC87E" d="M8000 2560c0 884 716 1600 1600 1600v3200c-884 0-1600 716-1600 1600H2240c0-884-716-1600-1600-1600V4160c884 0 1600-716 1600-1600h5760z"/><path fill="gray" d="M1280 2560h640c0 707-573 1280-1280 1280v-640c0-353 287-640 640-640zm7040 0h640c353 0 640 287 640 640v640c-707 0-1280-573-1280-1280zm1280 5120v640c0 353-287 640-640 640h-640c0-707 573-1280 1280-1280zM1920 8960h-640c-353 0-640-287-640-640v-640c707 0 1280 573 1280 1280zM3840 640h2560c353 0 640 287 640 640v960h-640v-960H3840v960h-640v-960c0-353 287-640 640-640z"/></svg>