<svg xmlns="http://www.w3.org/2000/svg" width="1024" height="1024" shape-rendering="geometricPrecision" text-rendering="geometricPrecision" image-rendering="optimizeQuality" clip-rule="evenodd" viewBox="0 0 10240 10240"><title>suitcase icon</title><desc>suitcase icon from the IconExperience.com O-Collection. Copyright by INCORS GmbH (www.incors.com).</desc><path fill="#B89A7C" d="M1280 2560h640v6400h-640c-352 0-640-288-640-640V3200c0-353 287-640 640-640zm1280 0h5122v6400H2560V2560zm5762 0h638c353 0 640 288 640 640v5120c0 352-288 640-640 640h-638V2560z"/><path fill="gray" d="M3840 640h2560c353 0 640 287 640 640v960h-640v-960H3840v960h-640v-960c0-353 287-640 640-640z"/></svg>