<svg xmlns="http://www.w3.org/2000/svg" width="1024" height="1024" shape-rendering="geometricPrecision" text-rendering="geometricPrecision" image-rendering="optimizeQuality" clip-rule="evenodd" viewBox="0 0 10240 10240"><title>sunglasses icon</title><desc>sunglasses icon from the IconExperience.com O-Collection. Copyright by INCORS GmbH (www.incors.com).</desc><path fill="gray" d="M8289 4141c-572 0-1781-82-2262 182-197 108-390 157-615 157h-584c-225 0-418-49-615-157-481-264-1690-182-2262-182-386 0-737 156-990 442-56 62-104 129-146 198l-495 19v640c0 109 55 206 139 264 152 104 244 233 270 415l65 443c93 633 643 1088 1298 1099l1132 19c445 7 843-208 1090-570l351-514c264-386 644-390 910 0l351 514c247 362 645 577 1090 570l1132-19c655-11 1205-466 1298-1099l62-422c26-183 119-331 272-436 84-57 140-154 140-264v-640h-484c-44-76-96-149-157-217-253-286-604-442-990-442zM2240 5431h-163c-88 0-160 71-160 160v169c0 176-144 320-320 320h-3c-176 0-320-144-320-320v-329c0-359 288-650 643-650h323c176 0 320 144 320 320v10c0 176-144 320-320 320zm4733 16h-163c-88 0-160 72-160 160v169c0 176-144 320-320 320h-3c-176 0-320-144-320-320v-329c0-359 288-650 643-650h323c176 0 320 144 320 320v10c0 176-144 320-320 320z"/><path fill="gray" d="M8115 2240c-130 0-241 28-357 90l-1248 668c-98 52-138 181-89 286l62 133c59 127 162 208 293 231 130 22 252-20 346-120l523-560c155-166 408-166 563 0 139 148 268 505 363 877 365 61 695 241 947 525 32 35 61 72 90 110h269c-197-840-1028-2240-1762-2240zm-5990 0c130 0 241 28 357 89l1248 663c98 53 138 180 89 284l-62 133c-59 125-162 206-293 228-130 23-252-19-346-118l-523-556c-155-165-408-165-563 0-140 148-271 509-366 882-364 62-693 242-944 525-28 32-55 64-80 98l-278 10c198-838 1028-2238 1761-2238z"/></svg>