<svg xmlns="http://www.w3.org/2000/svg" width="1024" height="1024" shape-rendering="geometricPrecision" text-rendering="geometricPrecision" image-rendering="optimizeQuality" clip-rule="evenodd" viewBox="0 0 10240 10240"><title>switch2_on icon</title><desc>switch2_on icon from the IconExperience.com O-Collection. Copyright by INCORS GmbH (www.incors.com).</desc><path fill="gray" d="M1920 8320V1920c0-705 575-1280 1280-1280h3840c705 0 1280 575 1280 1280v6400c0 705-575 1280-1280 1280H3200c-705 0-1280-575-1280-1280zm640 0c0 353 288 640 640 640h3840c352 0 640-288 640-640V1920c0-352-287-640-640-640H3200c-353 0-640 287-640 640v6400z"/><path fill="gray" d="M3520 1600h3200c176 0 320 144 320 320v6400c0 176-144 320-320 320H3520c-176 0-320-144-320-320V1920c0-176 144-320 320-320zm0 320v5760h3200V1920H3520z"/><path fill="gray" d="M4800 5120h640c353 0 640 288 640 640v960c0 352-288 640-640 640h-640c-352 0-640-288-640-640v-960c0-353 287-640 640-640zm0 640v960h640v-960h-640z"/><path fill="#76A797" d="M4960 2240h320c88 0 160 72 160 160v1600c0 88-72 160-160 160h-320c-88 0-160-72-160-160V2400c0-88 72-160 160-160z"/></svg>