<svg xmlns="http://www.w3.org/2000/svg" width="1024" height="1024" shape-rendering="geometricPrecision" text-rendering="geometricPrecision" image-rendering="optimizeQuality" clip-rule="evenodd" viewBox="0 0 10240 10240"><title>symbol_q icon</title><desc>symbol_q icon from the IconExperience.com O-Collection. Copyright by INCORS GmbH (www.incors.com).</desc><path fill="gray" d="M5760 6080l640 640V3520c0-528-432-960-960-960H4160c-528 0-960 432-960 960v3200c0 528 432 960 960 960h1280c35 0 70-2 104-6l-689-689 905-905zm1669 1669l571 571-905 905-555-555c-325 185-700 290-1100 290H4160c-1235 0-2240-1005-2240-2240V3520c0-1235 1005-2240 2240-2240h1280c1235 0 2240 1005 2240 2240v3200c0 371-91 721-251 1029z"/></svg>