<svg xmlns="http://www.w3.org/2000/svg" width="1024" height="1024" shape-rendering="geometricPrecision" text-rendering="geometricPrecision" image-rendering="optimizeQuality" clip-rule="evenodd" viewBox="0 0 10240 10240"><title>symbol_dollar icon</title><desc>symbol_dollar icon from the IconExperience.com O-Collection. Copyright by INCORS GmbH (www.incors.com).</desc><path fill="gray" d="M4480 960h1280v640h160c1146 0 2080 934 2080 2080v480H6720v-480c0-440-360-800-800-800h-160v1600h160c1146 0 2080 934 2080 2080s-934 2080-2080 2080h-160v640H4480v-640h-160c-1146 0-2080-934-2080-2080v-480h1280v480c0 440 360 800 800 800h160V5760h-160c-1146 0-2080-934-2080-2080s934-2080 2080-2080h160V960zm1280 4800v1600h160c440 0 800-360 800-800s-360-800-800-800h-160zM4480 4480V2880h-160c-440 0-800 360-800 800s360 800 800 800h160z"/></svg>