<svg xmlns="http://www.w3.org/2000/svg" width="1024" height="1024" shape-rendering="geometricPrecision" text-rendering="geometricPrecision" image-rendering="optimizeQuality" clip-rule="evenodd" viewBox="0 0 10240 10240"><title>symbol_euro icon</title><desc>symbol_euro icon from the IconExperience.com O-Collection. Copyright by INCORS GmbH (www.incors.com).</desc><path fill="gray" d="M5600 1280c630 0 1224 166 1743 457l-316 1325c-399-315-892-502-1427-502-1007 0-1869 662-2225 1600h3391l-229 960H3200c0 131 9 259 27 384h3219l-214 896H3521c415 765 1191 1280 2079 1280 529 0 1019-183 1415-493l463 1235c-549 342-1192 538-1878 538-1602 0-2965-1069-3470-2560H777l213-896h948c-12-126-18-254-18-384h-838l228-960h726c408-1656 1849-2880 3564-2880z"/></svg>