<svg xmlns="http://www.w3.org/2000/svg" width="1024" height="1024" shape-rendering="geometricPrecision" text-rendering="geometricPrecision" image-rendering="optimizeQuality" clip-rule="evenodd" viewBox="0 0 10240 10240"><title>symbol_questionmark icon</title><desc>symbol_questionmark icon from the IconExperience.com O-Collection. Copyright by INCORS GmbH (www.incors.com).</desc><path fill="gray" d="M4480 7680h1280v1280H4480V7680zM2240 3840v-320c0-1235 1005-2240 2240-2240h1280c1235 0 2240 1005 2240 2240 0 976-641 1843-1571 2137-412 129-669 485-669 916v467H4480v-467c0-989 626-1839 1569-2136 400-126 671-498 671-917 0-528-432-960-960-960H4480c-528 0-960 432-960 960v320H2240z"/></svg>