<svg xmlns="http://www.w3.org/2000/svg" width="1024" height="1024" shape-rendering="geometricPrecision" text-rendering="geometricPrecision" image-rendering="optimizeQuality" clip-rule="evenodd" viewBox="0 0 10240 10240"><title>symbol_female icon</title><desc>symbol_female icon from the IconExperience.com O-Collection. Copyright by INCORS GmbH (www.incors.com).</desc><path fill="gray" d="M3520 7040h960v-717c-1282-290-2240-1436-2240-2806 0-1589 1288-2877 2877-2877s2877 1288 2877 2877c0 1368-954 2513-2234 2805v718h960c176 0 320 144 320 320v640c0 176-144 320-320 320h-960v960c0 176-144 320-320 320h-640c-176 0-320-144-320-320v-960h-960c-176 0-320-144-320-320v-640c0-176 144-320 320-320zm1597-5120c-882 0-1597 715-1597 1597s715 1597 1597 1597 1597-715 1597-1597-715-1597-1597-1597z"/></svg>