<svg xmlns="http://www.w3.org/2000/svg" width="1024" height="1024" shape-rendering="geometricPrecision" text-rendering="geometricPrecision" image-rendering="optimizeQuality" clip-rule="evenodd" viewBox="0 0 10240 10240"><title>symbol_copyright icon</title><desc>symbol_copyright icon from the IconExperience.com O-Collection. Copyright by INCORS GmbH (www.incors.com).</desc><path fill="gray" d="M5120 640c2474 0 4480 2006 4480 4480S7594 9600 5120 9600 640 7594 640 5120 2646 640 5120 640zm0 1920c1193 0 2195 816 2479 1920H6229c-222-383-635-640-1109-640-707 0-1280 573-1280 1280s573 1280 1280 1280c474 0 887-257 1109-640h1370c-284 1104-1286 1920-2479 1920-1414 0-2560-1146-2560-2560s1146-2560 2560-2560zm0-640c-1767 0-3200 1433-3200 3200s1433 3200 3200 3200 3200-1433 3200-3200-1433-3200-3200-3200z"/></svg>