<svg xmlns="http://www.w3.org/2000/svg" width="1024" height="1024" shape-rendering="geometricPrecision" text-rendering="geometricPrecision" image-rendering="optimizeQuality" clip-rule="evenodd" viewBox="0 0 10240 10240"><title>system icon</title><desc>system icon from the IconExperience.com O-Collection. Copyright by INCORS GmbH (www.incors.com).</desc><path fill="gray" d="M3200 8960h640c176 0 320-144 320-320v-640h1920v640c0 176 144 320 320 320h640c176 0 320 144 320 320v320H2880v-320c0-176 144-320 320-320zM1280 640h7680c353 0 640 287 640 640v5760c0 352-288 640-640 640H1280c-353 0-640-287-640-640V1280c0-353 287-640 640-640zm0 640v5760h7680V1280H1280z"/><path fill="#4D82B8" d="M5120 1920c1237 0 2240 1003 2240 2240S6357 6400 5120 6400 2880 5397 2880 4160s1003-2240 2240-2240zm0 640c-265 0-480 215-480 480s215 480 480 480 480-215 480-480-215-480-480-480zm-320 1760v960c0 88-72 160-160 160h-160v320h1280v-320h-160c-88 0-160-72-160-160V4000c0-88-72-160-160-160h-640v320c88 0 160 72 160 160z"/></svg>