<svg xmlns="http://www.w3.org/2000/svg" width="1024" height="1024" shape-rendering="geometricPrecision" text-rendering="geometricPrecision" image-rendering="optimizeQuality" clip-rule="evenodd" viewBox="0 0 10240 10240"><title>tab_pane icon</title><desc>tab_pane icon from the IconExperience.com O-Collection. Copyright by INCORS GmbH (www.incors.com).</desc><path fill="gray" d="M6795 1280h885c353 0 640 288 640 640v960H7040v-960c0-246-93-470-245-640zM5195 1280h885c353 0 640 288 640 640v960H5440v-960c0-246-93-470-245-640z"/><path fill="#4D82B8" d="M1920 1280h2560c353 0 640 288 640 640v1280h3520c176 0 320 144 320 320v5120c0 176-144 320-320 320H1600c-176 0-320-144-320-320V1920c0-353 287-640 640-640zm0 2560v4480h6400V3840H1920z"/></svg>