<svg xmlns="http://www.w3.org/2000/svg" width="1024" height="1024" shape-rendering="geometricPrecision" text-rendering="geometricPrecision" image-rendering="optimizeQuality" clip-rule="evenodd" viewBox="0 0 10240 10240"><title>tablet_computer icon</title><desc>tablet_computer icon from the IconExperience.com O-Collection. Copyright by INCORS GmbH (www.incors.com).</desc><path fill="gray" d="M1920 640h6400c353 0 640 288 640 640v7680c0 352-288 640-640 640H1920c-352 0-640-287-640-640V1280c0-353 288-640 640-640zm2880 8000c-176 0-320 144-320 320s144 320 320 320h640c176 0 320-144 320-320s-144-320-320-320h-640zM1920 1280v7040h6400V1280H1920z"/><path fill="#4D82B8" d="M2240 1600h5760v6400H2240z"/></svg>