<svg xmlns="http://www.w3.org/2000/svg" width="1024" height="1024" shape-rendering="geometricPrecision" text-rendering="geometricPrecision" image-rendering="optimizeQuality" clip-rule="evenodd" viewBox="0 0 10240 10240"><title>tables icon</title><desc>tables icon from the IconExperience.com O-Collection. Copyright by INCORS GmbH (www.incors.com).</desc><path fill="gray" d="M9600 7040H8000v-320h1280V5440H8000v-320h1280V3840H8000c0-283-124-539-320-715v-885H6400v640h-320v-640H4800v640h-320v-640H3200v640h-320V1280c0-352 287-640 640-640h5440c353 0 640 288 640 640v5760zM8000 2240v1280h1280V2240H8000z"/><path fill="gray" d="M7680 9600H960V3840c0-352 287-640 640-640h5440c353 0 640 288 640 640v5760zM1280 4800v1280h1280V4800H1280zm1600 0v1280h1280V4800H2880zm1600 0v1280h1280V4800H4480zm1600 0v1280h1280V4800H6080zM1280 6400v1280h1280V6400H1280zm1600 0v1280h1280V6400H2880zm1600 0v1280h1280V6400H4480zm1600 0v1280h1280V6400H6080zM1280 8000v1280h1280V8000H1280zm1600 0v1280h1280V8000H2880zm1600 0v1280h1280V8000H4480zm1600 0v1280h1280V8000H6080z"/></svg>