<svg xmlns="http://www.w3.org/2000/svg" width="1024" height="1024" shape-rendering="geometricPrecision" text-rendering="geometricPrecision" image-rendering="optimizeQuality" clip-rule="evenodd" viewBox="0 0 10240 10240"><title>table_selection_column icon</title><desc>table_selection_column icon from the IconExperience.com O-Collection. Copyright by INCORS GmbH (www.incors.com).</desc><path fill="gray" d="M9280 9280H960V1920c0-353 287-640 640-640h7040c353 0 640 288 640 640v7360zM1280 2880v1280h1280v320H1280v1280h1280v320H1280v1280h1280v320H1280v1280h4480V7680H4480v-320h1280V6080H4480v-320h1280V4480H4480v-320h1280V2880H1280zm4800 0v1280h1280V2880H6080zm1600 0v1280h1280V2880H7680zM6080 4480v1280h1280V4480H6080zm1600 0v1280h1280V4480H7680zM6080 6080v1280h1280V6080H6080zm1600 0v1280h1280V6080H7680zM6080 7680v1280h1280V7680H6080zm1600 0v1280h1280V7680H7680z"/><path fill="#ED9A56" d="M2880 2880h1280v1280H2880V2880zm1280 1600v1280H2880V4480h1280zm0 1600v1280H2880V6080h1280zm0 1600v1280H2880V7680h1280z"/></svg>