<svg xmlns="http://www.w3.org/2000/svg" width="1024" height="1024" shape-rendering="geometricPrecision" text-rendering="geometricPrecision" image-rendering="optimizeQuality" clip-rule="evenodd" viewBox="0 0 10240 10240"><title>table_tennis_racket icon</title><desc>table_tennis_racket icon from the IconExperience.com O-Collection. Copyright by INCORS GmbH (www.incors.com).</desc><path fill="#B89A7C" d="M2285 9505c-252 325-881-265-1083-467-207-207-761-792-486-1067l1832-1580c282-248 230-818 131-1164-72-250-125-490-157-720l3211 3211c-230-32-470-85-720-157-325-93-988-218-1221 65L2285 9505z"/><path fill="#4D82B8" d="M2484 4016c-9-814 277-1507 910-2140C4788 482 7047 87 8600 1640s1158 3812-236 5206c-633 633-1326 919-2140 910L2484 4016z"/></svg>