<svg xmlns="http://www.w3.org/2000/svg" width="1024" height="1024" shape-rendering="geometricPrecision" text-rendering="geometricPrecision" image-rendering="optimizeQuality" clip-rule="evenodd" viewBox="0 0 10240 10240"><title>tags icon</title><desc>tags icon from the IconExperience.com O-Collection. Copyright by INCORS GmbH (www.incors.com).</desc><path fill="#4D82B8" d="M1280 1600v-320c0-353 288-640 640-640h2715c177 0 328 63 453 187l3885 3886c250 249 250 656 0 905l-294 294c-34-51-74-100-119-145l-320-320 281-282-3621-3620-283 283c-174-150-387-228-622-228h-881c-110-191-317-320-554-320s-444 129-554 320h-726z"/><path fill="#4D82B8" d="M640 5275V2560c0-353 288-640 640-640h2715c177 0 328 63 453 187l3885 3886c250 249 250 656 0 905L5618 9613c-249 250-656 250-905 0L827 5728c-124-125-187-276-187-453zm905 265l3620 3621 2716-2716-3621-3620-2715 2715zm375-2980c-353 0-640 287-640 640s287 640 640 640 640-287 640-640-287-640-640-640z"/></svg>