<svg xmlns="http://www.w3.org/2000/svg" width="1024" height="1024" shape-rendering="geometricPrecision" text-rendering="geometricPrecision" image-rendering="optimizeQuality" clip-rule="evenodd" viewBox="0 0 10240 10240"><title>tape_measure2 icon</title><desc>tape_measure2 icon from the IconExperience.com O-Collection. Copyright by INCORS GmbH (www.incors.com).</desc><path fill="gray" d="M5075 4833c-170-173-275-411-275-673 0-442 179-842 469-1131 289-290 689-469 1131-469s842 179 1131 469l180 171h-31c-619 0-1179 251-1584 656-356 356-593 831-645 1361l-376-384zM640 6080c-82 0-164 31-226 94-125 125-125 327 0 452l1601 1599c57 58 137 94 225 94l4800 1c795 0 1515-322 2036-844 522-521 844-1241 844-2036 0-557-176-1093-541-1459L7984 2576c-405-405-965-656-1584-656s-1179 251-1584 656-656 965-656 1584c0 442 179 842 469 1131l796 789 648 640c248 226 605 320 967 320 442 0 842-179 1131-469 290-289 469-689 469-1131 0-265-107-505-281-679s-414-281-679-281-505 107-679 281-281 414-281 679c0 176 144 320 320 320s320-144 320-320c0-88 36-168 94-226s138-94 226-94 168 36 226 94 94 138 94 226c0 265-107 505-281 679s-414 281-679 281-505-107-679-281-281-414-281-679c0-442 179-842 469-1131 289-290 689-469 1131-469s842 179 1131 469c290 289 469 689 469 1131 0 619-251 1179-656 1584s-965 656-1584 656h-187l-320-320h-906l321 320h-375l-320-320h-906l321 321h-375l-320-321h-896l-40-31 351 352h-374l-962-961h3549l-638-640H640z"/></svg>