<svg xmlns="http://www.w3.org/2000/svg" width="1024" height="1024" shape-rendering="geometricPrecision" text-rendering="geometricPrecision" image-rendering="optimizeQuality" clip-rule="evenodd" viewBox="0 0 10240 10240"><title>telephone_box icon</title><desc>telephone_box icon from the IconExperience.com O-Collection. Copyright by INCORS GmbH (www.incors.com).</desc><path fill="#E68497" d="M3840 640h2560c705 0 1280 575 1280 1280v7680H2560V1920c0-705 575-1280 1280-1280zm1055 1870l-63-62c-74-73-190-86-258-28l-367 315c-67 58-62 165 13 238l68 67c187 184 471 211 645 71 485-389 833-931 983-1536 55-217-87-465-332-560l-89-34c-97-37-197 2-221 87l-133 467c-24 85 35 186 133 224l82 31c45 18 74 60 69 101-28 266-180 504-409 640-36 22-87 13-121-21zM3200 3520v960h640v-960h-640zm640 1280h-640v1280h640V4800zm0 1600h-640v1280h640V6400zm0 1600h-640v960h640v-960zm320-4480v960h1920v-960H4160zm1920 1280H4160v1280h1920V4800zm0 1600H4160v1280h1920V6400zm0 1600H4160v960h1920v-960zm320-4480v960h640v-960h-640zm640 1280h-640v1280h640V4800zm0 1600h-640v1280h640V6400zm0 1600h-640v960h640v-960z"/></svg>