<svg xmlns="http://www.w3.org/2000/svg" width="1024" height="1024" shape-rendering="geometricPrecision" text-rendering="geometricPrecision" image-rendering="optimizeQuality" clip-rule="evenodd" viewBox="0 0 10240 10240"><title>temple icon</title><desc>temple icon from the IconExperience.com O-Collection. Copyright by INCORS GmbH (www.incors.com).</desc><path fill="gray" d="M640 8960h320v-640h8320v640h320v640H640zM7040 4640v160c0 177-143 320-320 320 320 960 320 2240 320 2880H5440c0-640 0-1920 320-2880-177 0-320-143-320-320v-160c0-88 72-160 160-160h1280c88 0 160 72 160 160zm-4160 0v160c0 177-143 320-320 320 320 960 320 2240 320 2880H1280c0-640 0-1920 320-2880-177 0-320-143-320-320v-160c0-88 72-160 160-160h1280c88 0 160 72 160 160zm1920 0v160c0 177-143 320-320 320 320 960 320 2240 320 2880H3200c0-640 0-1920 320-2880-177 0-320-143-320-320v-160c0-88 72-160 160-160h1280c88 0 160 72 160 160zm4160 0v160c0 177-143 320-320 320 320 960 320 2240 320 2880H7360c0-640 0-1920 320-2880-177 0-320-143-320-320v-160c0-88 72-160 160-160h1280c88 0 160 72 160 160zM5120 640l4800 2560-320 640h-320v320H960v-320H640l-320-640z"/></svg>