<svg xmlns="http://www.w3.org/2000/svg" width="1024" height="1024" shape-rendering="geometricPrecision" text-rendering="geometricPrecision" image-rendering="optimizeQuality" clip-rule="evenodd" viewBox="0 0 10240 10240"><title>tent icon</title><desc>tent icon from the IconExperience.com O-Collection. Copyright by INCORS GmbH (www.incors.com).</desc><path fill="#76A797" d="M5495 3175c1353 2808 2640 4515 4105 5785H5440c-320-640-640-2107-640-3840-320 1387-1280 3147-2240 3840H640c1465-1270 2752-2977 4105-5785l-849-2112c-32-78 2-167 78-204l297-145c41-20 84-22 127-5 42 16 73 46 91 88l631 1520 631-1520c18-42 49-72 91-88 43-17 86-15 127 5l297 145c76 37 110 126 78 204l-849 2112z"/></svg>