<svg xmlns="http://www.w3.org/2000/svg" width="1024" height="1024" shape-rendering="geometricPrecision" text-rendering="geometricPrecision" image-rendering="optimizeQuality" clip-rule="evenodd" viewBox="0 0 10240 10240"><title>text_tree icon</title><desc>text_tree icon from the IconExperience.com O-Collection. Copyright by INCORS GmbH (www.incors.com).</desc><path fill="gray" d="M1280 640h7680v8960H1280V640zm640 640v7680h6400V1280H1920z"/><path fill="gray" d="M3200 3542h1280v640H3200v640h1280v640h-640v640h1280v640H3840v640h1280v640H3200V5462h-640V2262h640z"/><path fill="#4D82B8" d="M5760 7382h1920v640H5760v-640zm0-1280h1920v640H5760v-640zm-640-1280h1920v640H5120v-640zm0-1280h1920v640H5120v-640zM3840 2240h2560v640H3840v-640z"/></svg>