<svg xmlns="http://www.w3.org/2000/svg" width="1024" height="1024" shape-rendering="geometricPrecision" text-rendering="geometricPrecision" image-rendering="optimizeQuality" clip-rule="evenodd" viewBox="0 0 10240 10240"><title>text_binary icon</title><desc>text_binary icon from the IconExperience.com O-Collection. Copyright by INCORS GmbH (www.incors.com).</desc><path fill="#4D82B8" d="M7040 2240h640v640h-640v-640zM2560 7360h960v640h-960v-640zm1280 0h320v640h-320v-640zm960 0h640v640h-640v-640zm960 0h320v640h-320v-640zm960 0h960v640h-960v-640zM2560 6080h640v640h-640v-640zm960 0h960v640h-960v-640zm1600 0h640v640h-640v-640zm1280 0h320v640h-320v-640zm640 0h640v640h-640v-640zM2560 4800h320v640h-320v-640zm1280 0h640v640h-640v-640zm960 0h960v640h-960v-640zm1280 0h640v640h-640v-640zm960 0h640v640h-640v-640zM2560 3520h960v640h-960v-640zm1280 0h320v640h-320v-640zm960 0h640v640h-640v-640zm1280 0h320v640h-320v-640zm640 0h960v640h-960v-640zM2560 2240h640v640h-640v-640zm1280 0h640v640h-640v-640zm960 0h960v640h-960v-640zm1280 0h320v640h-320v-640z"/><path fill="gray" d="M1280 640h7680v8960H1280V640zm640 640v7680h6400V1280H1920z"/></svg>