<svg xmlns="http://www.w3.org/2000/svg" width="1024" height="1024" shape-rendering="geometricPrecision" text-rendering="geometricPrecision" image-rendering="optimizeQuality" clip-rule="evenodd" viewBox="0 0 10240 10240"><title>text_speaker icon</title><desc>text_speaker icon from the IconExperience.com O-Collection. Copyright by INCORS GmbH (www.incors.com).</desc><path fill="#4D82B8" d="M8000 4561c1104 284 1920 1286 1920 2479s-816 2195-1920 2479v-668c746-264 1280-975 1280-1811s-534-1547-1280-1811v-668zm0 1370c383 222 640 635 640 1109s-257 887-640 1109V5931zM7360 4160c176 0 320 144 320 320v5120c0 176-144 320-320 320s-320-144-320-320L5760 8320V5760l1280-1280c0-176 144-320 320-320zM4800 5760h640v2560h-640c-220 0-320-144-320-320V6080c0-176 100-320 320-320z"/><path fill="gray" d="M1280 640h7680v4004c-197-131-411-239-640-320V1280H1920v7680h4027l640 640H1280V640z"/><path fill="gray" d="M2560 2262h5120v640H2560v-640zm0 1280h2560v640H2560v-640zm0 1280h3685l-640 640h-49c-36-14-75-22-116-22h-640c-64 0-124 8-180 22H2560v-640zm0 1280h1280v640H2560v-640zm0 1280h1600v640H2560v-640zm3200-3840h1920v384c-94-55-204-86-320-86-245 0-459 139-566 342H5760v-640z"/></svg>