<svg xmlns="http://www.w3.org/2000/svg" width="1024" height="1024" shape-rendering="geometricPrecision" text-rendering="geometricPrecision" image-rendering="optimizeQuality" clip-rule="evenodd" viewBox="0 0 10240 10240"><title>text icon</title><desc>text icon from the IconExperience.com O-Collection. Copyright by INCORS GmbH (www.incors.com).</desc><path fill="gray" d="M1280 640h7680v8960H1280V640zm640 640v7680h6400V1280H1920z"/><path fill="gray" d="M5760 7382h1920v640H5760v-640zM2560 2262h5120v640H2560v-640zm0 1280h2560v640H2560v-640zm0 1280h5120v640H2560v-640zm0 1280h1280v640H2560v-640zm0 1280h2560v640H2560v-640zm3200-3840h1920v640H5760v-640zM4480 6102h3200v640H4480v-640z"/></svg>