<svg xmlns="http://www.w3.org/2000/svg" width="1024" height="1024" shape-rendering="geometricPrecision" text-rendering="geometricPrecision" image-rendering="optimizeQuality" clip-rule="evenodd" viewBox="0 0 10240 10240"><title>text_braille icon</title><desc>text_braille icon from the IconExperience.com O-Collection. Copyright by INCORS GmbH (www.incors.com).</desc><path fill="gray" d="M1280 640h7680v8960H1280V640zm640 640v7680h6400V1280H1920z"/><path fill="gray" d="M5920 7360c265 0 480 215 480 480s-215 480-480 480-480-215-480-480 215-480 480-480c-265 0-480-215-480-480s215-480 480-480 480 215 480 480c0-265 215-480 480-480s480 215 480 480-215 480-480 480-480-215-480-480c0 265-215 480-480 480zm960-1920c265 0 480 215 480 480s-215 480-480 480-480-215-480-480 215-480 480-480zM4320 5440c265 0 480 215 480 480s-215 480-480 480-480-215-480-480c0 265-215 480-480 480s-480-215-480-480 215-480 480-480 480 215 480 480c0-265 215-480 480-480zm0 1920c265 0 480 215 480 480s-215 480-480 480-480-215-480-480c0 265-215 480-480 480s-480-215-480-480 215-480 480-480 480 215 480 480c0-265 215-480 480-480zM6880 2880c265 0 480 215 480 480s-215 480-480 480-480-215-480-480 215-480 480-480zm-960-960c265 0 480 215 480 480s-215 480-480 480-480-215-480-480 215-480 480-480zM4320 1920c265 0 480 215 480 480s-215 480-480 480-480-215-480-480 215-480 480-480zm-960 1920c265 0 480 215 480 480s-215 480-480 480-480-215-480-480 215-480 480-480c-265 0-480-215-480-480s215-480 480-480 480 215 480 480c0-265 215-480 480-480s480 215 480 480-215 480-480 480-480-215-480-480c0 265-215 480-480 480z"/></svg>