<svg xmlns="http://www.w3.org/2000/svg" width="1024" height="1024" shape-rendering="geometricPrecision" text-rendering="geometricPrecision" image-rendering="optimizeQuality" clip-rule="evenodd" viewBox="0 0 10240 10240"><title>thought icon</title><desc>thought icon from the IconExperience.com O-Collection. Copyright by INCORS GmbH (www.incors.com).</desc><path fill="gray" d="M7520 5440c972 0 1760 645 1760 1440s-788 1440-1760 1440-1760-645-1760-1440 788-1440 1760-1440zm0 640c-619 0-1120 358-1120 800s501 800 1120 800 1120-358 1120-800-501-800-1120-800zM5120 7680c707 0 1280 430 1280 960s-573 960-1280 960-1280-430-1280-960 573-960 1280-960zm0 640c-353 0-640 143-640 320s287 320 640 320 640-143 640-320-287-320-640-320z"/><path fill="gray" d="M8711 2703c532 443 889 1063 889 1777 0 188-25 375-75 557-77 282-204 534-368 757-143-154-315-287-510-393 200-274 313-587 313-921 0-569-330-1079-853-1431 8-748-850-1129-1494-1129-150 0-294 17-431 47-320-408-962-687-1702-687-1060 0-1920 573-1920 1280 0 10 0 19 1 29-731 133-1281 714-1281 1411 0 597 404 1109 979 1327 23 785 798 1415 1750 1415 535 0 1014-199 1335-512 70 23 141 45 214 64-76 183-118 380-118 586 0 29 1 58 3 87-422 275-928 415-1434 415-1036 0-2083-621-2334-1628-618-367-1035-1011-1035-1754 0-878 575-1598 1354-1911 317-997 1517-1449 2486-1449 672 0 1411 199 1932 648 67-5 134-8 201-8 905 0 1898 516 2098 1423z"/></svg>