<svg xmlns="http://www.w3.org/2000/svg" width="1024" height="1024" shape-rendering="geometricPrecision" text-rendering="geometricPrecision" image-rendering="optimizeQuality" clip-rule="evenodd" viewBox="0 0 10240 10240"><title>ticket icon</title><desc>ticket icon from the IconExperience.com O-Collection. Copyright by INCORS GmbH (www.incors.com).</desc><path fill="#EDC87E" d="M1280 1920h7680c0 530 430 960 960 960v640c-177 0-320 143-320 320s143 320 320 320v640c-177 0-320 143-320 320s143 320 320 320v640c-177 0-320 143-320 320s143 320 320 320v640c-530 0-960 430-960 960H1280c0-530-430-960-960-960v-640c177 0 320-143 320-320s-143-320-320-320v-640c177 0 320-143 320-320s-143-320-320-320v-640c177 0 320-143 320-320s-143-320-320-320v-640c530 0 960-430 960-960zm507 640c-138 315-374 576-669 747 242 361 208 848-83 1173 325 362 325 918 0 1280 291 325 325 812 83 1173 295 171 531 432 669 747h6666c138-315 374-576 669-747-242-361-208-848 83-1173-325-362-325-918 0-1280-291-325-325-812-83-1173-295-171-531-432-669-747H1787z"/><path fill="#EDC87E" d="M2560 6400h5120v640H2560zM2560 3200h5120v640H2560z"/></svg>