<svg xmlns="http://www.w3.org/2000/svg" width="1024" height="1024" shape-rendering="geometricPrecision" text-rendering="geometricPrecision" image-rendering="optimizeQuality" clip-rule="evenodd" viewBox="0 0 10240 10240"><title>toilet icon</title><desc>toilet icon from the IconExperience.com O-Collection. Copyright by INCORS GmbH (www.incors.com).</desc><path fill="gray" d="M7680 7023c-12 695-443 1308-1097 1679-118 67-183 141-183 258v320c0 102-48 240-142 308-643 467-1633 467-2276 0-93-68-142-206-142-308v-320c0-117-65-191-183-258-654-371-1085-984-1097-1680 187 161 427 277 637 356 591 222 1295 302 1923 302s1332-80 1923-302c210-78 450-195 637-355z"/><path fill="#EDC87E" d="M5120 7360c1414 0 2560-430 2560-960 0-199-39-307-165-440l-795-840H3520l-795 840c-126 133-165 241-165 440 0 530 1146 960 2560 960zm0-1600c884 0 1600 215 1600 480s-716 480-1600 480-1600-215-1600-480 716-480 1600-480z"/><path fill="gray" d="M5120 640c1448 0 2603 1353 2134 2603l-584 1557H3520l-534-1557C2552 1978 3672 640 5120 640z"/></svg>