<svg xmlns="http://www.w3.org/2000/svg" width="1024" height="1024" shape-rendering="geometricPrecision" text-rendering="geometricPrecision" image-rendering="optimizeQuality" clip-rule="evenodd" viewBox="0 0 10240 10240"><title>tools icon</title><desc>tools icon from the IconExperience.com O-Collection. Copyright by INCORS GmbH (www.incors.com).</desc><path fill="#ED9A56" d="M2949 6253L1467 7735c-249 250-249 656 0 906l452 452c250 249 656 249 906 0l1866-1867-900-1052c-7-8-14-14-23-19-64-29-230-2-296 9-177 29-347 65-523 89z"/><path fill="gray" d="M8708 3210c-200-200-27-479-227-679l-452-452c-200-200-479-27-679-227-452-452-1131-679-1952-392-66 23-95 97-84 166 10 69 61 121 129 134 422 78 776 319 1002 545 249 249 249 656 0 905l-838 837-6 39c-8 51-34 224-9 271 1 2 3 4 5 6l820 685 707-707c249-249 429-475 679-226 124 125 124 328 0 453l678 678c125 125 328 125 453 0l905-905c125-124 125-328 0-452l-679-679c-124 125-328 125-452 0z"/><path fill="gray" d="M4034 5966l2505 2926c467 545 1324 485 1810 0 498-498 541-1358 0-1810L5392 4608c-495-414 679-1584-679-2941-482-483-1172-760-1804-773-133-2-248 72-301 195-52 122-26 257 68 352l1132 1131-453 1358-1357 452L866 3251c-94-95-229-121-351-68-123 52-198 167-195 300 13 633 290 1322 773 1804 1357 1358 2487 149 2941 679zm2957 1568c250-249 655-249 905 0 250 250 250 656 0 906-250 249-655 249-905 0-250-250-250-656 0-906z"/></svg>