<svg xmlns="http://www.w3.org/2000/svg" width="1024" height="1024" shape-rendering="geometricPrecision" text-rendering="geometricPrecision" image-rendering="optimizeQuality" clip-rule="evenodd" viewBox="0 0 10240 10240"><title>torii icon</title><desc>torii icon from the IconExperience.com O-Collection. Copyright by INCORS GmbH (www.incors.com).</desc><path fill="gray" d="M7680 8320h1600c176 0 320 144 320 320v640H7360v-640c0-176 144-320 320-320zm-6720 0h1600c176 0 320 144 320 320v640H640v-640c0-176 144-320 320-320z"/><path fill="#E68497" d="M870 1307c2478 284 6022 284 8500 0 112-12 201 89 174 198l-155 621c-67 267-284 454-557 481-166 17-331 33-495 47l162 1186h461c176 0 320 144 320 320v320c0 176-144 320-320 320h-330l436 3200H7778l-437-3200H2899l-437 3200H1174l436-3200h-330c-176 0-320-144-320-320v-320c0-176 144-320 320-320h461l162-1186c-164-14-329-30-495-47-273-27-490-214-557-481l-155-621c-29-117 50-212 174-198zm6340 2533l-149-1094c-1305 72-2577 72-3882 0l-149 1094h4180z"/></svg>