<svg xmlns="http://www.w3.org/2000/svg" width="1024" height="1024" shape-rendering="geometricPrecision" text-rendering="geometricPrecision" image-rendering="optimizeQuality" clip-rule="evenodd" viewBox="0 0 10240 10240"><title>torpedo icon</title><desc>torpedo icon from the IconExperience.com O-Collection. Copyright by INCORS GmbH (www.incors.com).</desc><path fill="gray" d="M8640 3840h960c176 0 320 115 320 256v2048c0 141-144 256-320 256h-960c-176 0-320-115-320-256V4096c0-141 144-256 320-256zM3520 3840h2916c416 0 772 84 1145 270l419 210v1600l-419 210c-373 186-729 270-1145 270H3520V3840z"/><path fill="#E68497" d="M2560 3840h640v2560h-640z"/><path fill="gray" d="M2240 6400c-707 0-1920-573-1920-1280s1213-1280 1920-1280v2560z"/></svg>