<svg xmlns="http://www.w3.org/2000/svg" width="1024" height="1024" shape-rendering="geometricPrecision" text-rendering="geometricPrecision" image-rendering="optimizeQuality" clip-rule="evenodd" viewBox="0 0 10240 10240"><title>touch icon</title><desc>touch icon from the IconExperience.com O-Collection. Copyright by INCORS GmbH (www.incors.com).</desc><path fill="#4D82B8" d="M5120 1280c2121 0 3840 1719 3840 3840S7241 8960 5120 8960 1280 7241 1280 5120s1719-3840 3840-3840zm0 640c-1767 0-3200 1433-3200 3200s1433 3200 3200 3200 3200-1433 3200-3200-1433-3200-3200-3200z"/><path fill="#4D82B8" d="M5120 2560c1414 0 2560 1146 2560 2560S6534 7680 5120 7680 2560 6534 2560 5120s1146-2560 2560-2560zm0 640c-1060 0-1920 860-1920 1920s860 1920 1920 1920 1920-860 1920-1920-860-1920-1920-1920z"/><path fill="#4D82B8" d="M5120 3840c707 0 1280 573 1280 1280s-573 1280-1280 1280-1280-573-1280-1280 573-1280 1280-1280z"/></svg>