<svg xmlns="http://www.w3.org/2000/svg" width="1024" height="1024" shape-rendering="geometricPrecision" text-rendering="geometricPrecision" image-rendering="optimizeQuality" clip-rule="evenodd" viewBox="0 0 10240 10240"><title>tower_crane icon</title><desc>tower_crane icon from the IconExperience.com O-Collection. Copyright by INCORS GmbH (www.incors.com).</desc><path fill="gray" d="M4480 8960h3840v640H4480z"/><path fill="#EDC87E" d="M6400 5760l-320 320 320 320 320-320-320-320zm320-4800l253 1012c-78-33-163-52-253-52h-90l-30-120-200-200 120-120-120-481-120 481 120 120-200 200-33 133c-118 12-234 35-347 67l260-1040c43-171 143-320 320-320s277 149 320 320zm-640 4480v320l160-160-160-160zm0 960v320l160-160-160-160zm640 0l-160 160 160 160v-320zm-640 960v320l160-160-160-160zm640 0l-160 160 160 160v-320zm-320 320l-320 320 320 320 320-320-320-320zm0-960l-320 320 320 320 320-320-320-320zm320-1280l-160 160 160 160v-320zm-640 3200l160-160-160-160v320zm-320 0V5022c110 35 225 61 341 77l-21 21 320 320 320-320c117 0 226-31 320-86v3606h-320v-320l-160 160 160 160h-960z"/><path fill="gray" d="M8000 2560h1600c176 0 320 144 320 320v1280c0 176-144 320-320 320H8320c-176 0-320-144-320-320V2560zM6400 2240h320c176 0 320 144 320 320v1920c0 176-144 320-320 320h-320c-640 0-1280-320-1280-960v-640c0-640 640-960 1280-960zm320 1286v-966h-320c-389 0-960 161-960 640v326h1280z"/><path fill="#EDC87E" d="M1865 2560h3123c-64 96-114 202-146 320h-42l33 33c-21 90-33 185-33 287v640H1093c-133 0-246-75-296-198-51-122-24-255 69-348l547-547c124-124 276-187 452-187zm375 640l320 320 320-320-320-320-320 320zm-320 320h320l-160-160-160 160zm960 0h320l-160-160-160 160zm0-640l160 160 160-160h-320zm960 640h320l-160-160-160 160zm0-640l160 160 160-160h-320zm320 320l320 320 320-320-320-320-320 320zm-960 0l320 320 320-320-320-320-320 320zm-1280-320l160 160 160-160h-320zm-640 320l320 320 320-320-320-320-320 320zm6080-640h320v640h-320v-640z"/><path fill="gray" d="M1834 7478c-86 122-229 202-394 202-261 0-480-215-480-480 0-209 134-387 320-453v-27h-42c-121 0-225-62-282-169s-52-228 16-328l261-392c30-46 77-71 133-71h148c56 0 103 25 133 71l261 392c68 100 73 221 16 328s-161 169-282 169h-42v27c0 139-83 256-213 302-62 22-107 81-107 151 0 88 77 160 160 160 55 0 100-27 128-67 32-44 78-68 132-67h4c61 0 113 32 141 87 28 54 24 115-11 165z"/><path fill="gray" d="M8512 2240l-1371-913-103-413c-1-15-2-29-4-44l2054 1370h-576zM5698 1169L3556 2240h-712L5790 767c-15 47-25 96-28 147l-64 255zM1600 4160h-320v1634h320V4160z"/></svg>