<svg xmlns="http://www.w3.org/2000/svg" width="1024" height="1024" shape-rendering="geometricPrecision" text-rendering="geometricPrecision" image-rendering="optimizeQuality" clip-rule="evenodd" viewBox="0 0 10240 10240"><title>tractor icon</title><desc>tractor icon from the IconExperience.com O-Collection. Copyright by INCORS GmbH (www.incors.com).</desc><path fill="gray" d="M2400 5440c1149 0 2080 931 2080 2080s-931 2080-2080 2080S320 8669 320 7520s931-2080 2080-2080zm5920 3200c353 0 640-287 640-640s-287-640-640-640-640 287-640 640 287 640 640 640zM2400 6720c-442 0-800 358-800 800s358 800 800 800 800-358 800-800-358-800-800-800zm5920 2880c-884 0-1600-716-1600-1600s716-1600 1600-1600 1600 716 1600 1600-716 1600-1600 1600zM5569 6400h1690c-518 344-859 932-859 1600 0 109 9 216 27 320H4663c72-202 117-417 132-640h283c192 0 367-81 490-229 124-148 174-333 140-523-32-182-79-358-139-528z"/><path fill="gray" d="M2400 4480c1496 0 2740 1081 2993 2504 17 96-7 186-70 261-63 76-147 115-245 115h-283c-83-1251-1123-2240-2395-2240-663 0-1263 269-1697 703l-213-213c-67-67-99-151-93-245 5-95 47-174 121-233 518-408 1171-652 1882-652z"/><path fill="#76A797" d="M1388 4315l532-2395h-320v-320c0-176 144-320 320-320h3520c176 0 320 144 320 320v320h-320l640 2240 2624 262c328 33 576 307 576 637v1021H5437c-544-1148-1715-1920-3037-1920-347 0-688 53-1012 155zm3910-563l-457-1600c-40-139-163-232-308-232H3200c-176 0-320 144-320 320v1034c0 156 108 286 261 315 462 86 896 252 1287 482 103 61 205 89 324 89h238c104 0 193-44 256-127 62-83 80-181 52-281z"/></svg>