<svg xmlns="http://www.w3.org/2000/svg" width="1024" height="1024" shape-rendering="geometricPrecision" text-rendering="geometricPrecision" image-rendering="optimizeQuality" clip-rule="evenodd" viewBox="0 0 10240 10240"><title>trafficlight_on icon</title><desc>trafficlight_on icon from the IconExperience.com O-Collection. Copyright by INCORS GmbH (www.incors.com).</desc><path fill="gray" d="M7360 9600c177 0 320-143 320-320V960c0-177-143-320-320-320H2880c-177 0-320 143-320 320v8320c0 177 143 320 320 320h4480zm-2240 0c-884 0-1600-716-1600-1600 0-633 368-1181 902-1440-534-259-902-807-902-1440s368-1181 902-1440c-534-259-902-807-902-1440 0-884 716-1600 1600-1600s1600 716 1600 1600c0 633-368 1181-902 1440 534 259 902 807 902 1440s-368 1181-902 1440c534 259 902 807 902 1440 0 884-716 1600-1600 1600z"/><path fill="#E68497" d="M5120 960c707 0 1280 573 1280 1280s-573 1280-1280 1280-1280-573-1280-1280S4413 960 5120 960z"/><path fill="#EDC87E" d="M5120 3840c707 0 1280 573 1280 1280s-573 1280-1280 1280-1280-573-1280-1280 573-1280 1280-1280z"/><path fill="#76A797" d="M5120 6720c707 0 1280 573 1280 1280s-573 1280-1280 1280-1280-573-1280-1280 573-1280 1280-1280z"/></svg>