<svg xmlns="http://www.w3.org/2000/svg" width="1024" height="1024" shape-rendering="geometricPrecision" text-rendering="geometricPrecision" image-rendering="optimizeQuality" clip-rule="evenodd" viewBox="0 0 10240 10240"><title>tram icon</title><desc>tram icon from the IconExperience.com O-Collection. Copyright by INCORS GmbH (www.incors.com).</desc><path fill="gray" d="M4745 8000c-132 373-487 640-905 640s-773-267-905-640h1810zm-1920 0c-132 373-487 640-905 640s-773-267-905-640h1810zm6400 0c-132 373-487 640-905 640s-773-267-905-640h1810zm-1920 0c-132 373-487 640-905 640s-773-267-905-640h1810z"/><path fill="#4D82B8" d="M1443 3201l2621-1-1041-694c-148-98-187-296-89-443 25-39 57-70 94-93L4943 694c112-75 255-70 360 4l1914 1276c148 98 187 296 89 443-25 39-57 70-94 93l-1036 690h2622c290 0 536 185 615 464l458 1604c35 120 50 226 50 351v1421c0 352-288 640-640 640l-8321 1c-352 0-640-288-640-640V5620c0-125 15-232 49-352l458-1603c80-279 326-464 616-464zm6877 959v1600h961v-141c0-63-8-115-25-176l-367-1283h-569zm-3840 0v1600h1280V4160H4480zm-1920 0v1600h1280V4160H2560zm-1208 0L985 5444c-18 61-25 113-25 176v140h960V4160h-568zm5048 0v1600h1280V4160H6400zM5120 1345l-1343 895 1343 895 1343-895-1343-895z"/></svg>