<svg xmlns="http://www.w3.org/2000/svg" width="1024" height="1024" shape-rendering="geometricPrecision" text-rendering="geometricPrecision" image-rendering="optimizeQuality" clip-rule="evenodd" viewBox="0 0 10240 10240"><title>trojan_horse icon</title><desc>trojan_horse icon from the IconExperience.com O-Collection. Copyright by INCORS GmbH (www.incors.com).</desc><path fill="gray" d="M8952 8366c353 0 640 287 640 640 0 354-287 640-640 640-354 0-640-286-640-640 0-353 286-640 640-640zm-5760 0c353 0 640 287 640 640 0 354-287 640-640 640-354 0-640-286-640-640 0-353 286-640 640-640zm1920 0c353 0 640 287 640 640 0 354-287 640-640 640-354 0-640-286-640-640 0-353 286-640 640-640zm1920 0c353 0 640 287 640 640 0 354-287 640-640 640-354 0-640-286-640-640 0-353 286-640 640-640z"/><path fill="#EDC87E" d="M1280 4800L960 2240l640-640-320-640 1600-320 1280 320 960 960 320 960 640 320h1280l1280 320 640 960 320 1280v1920h320v640h-245c-175-196-431-320-715-320s-540 124-715 320h-490c-175-196-431-320-715-320s-540 124-715 320h-490c-175-196-431-320-715-320s-540 124-715 320h-490c-175-196-431-320-715-320s-540 124-715 320h-245v-640h640l320-640V5440l-320-1600-320 320-320 960h-640l-320-320zm6080 2880l320-640v-640l-640-640-1920 640v1280h2240z"/></svg>