<svg xmlns="http://www.w3.org/2000/svg" width="1024" height="1024" shape-rendering="geometricPrecision" text-rendering="geometricPrecision" image-rendering="optimizeQuality" clip-rule="evenodd" viewBox="0 0 10240 10240"><title>tv icon</title><desc>tv icon from the IconExperience.com O-Collection. Copyright by INCORS GmbH (www.incors.com).</desc><path fill="gray" d="M5117 3210H3843l-3-10c0-119 32-230 89-325L2003 949c-27 7-54 11-83 11-177 0-320-143-320-320s143-320 320-320 320 143 320 320c0 29-4 56-11 83l1926 1926c253-150 578-106 784 105L8640 639c1-176 144-319 320-319 177 0 320 143 320 320s-143 320-320 320c-59 0-114-16-161-44L5097 3031c15 54 23 111 23 169l-3 10z"/><path fill="#76A797" d="M4480 3840c-586 0-1656-5-2115 436-419 402-445 1263-445 1804s26 1402 445 1804c459 441 1529 436 2115 436s1656 5 2115-436c419-403 445-1263 445-1804s-26-1401-445-1804c-459-441-1529-436-2115-436z"/><path fill="gray" d="M1920 3200h6400c353 0 640 287 640 640v4480c0 353-287 640-640 640v480c0 88-72 160-160 160H6853c-69 0-128-41-151-107-44-124-163-213-302-213H3840c-139 0-258 89-302 213-23 66-82 107-151 107H2080c-88 0-160-72-160-160v-480c-353 0-640-287-640-640V3840c0-353 287-640 640-640zm6080 1280c-177 0-320 143-320 320s143 320 320 320 320-143 320-320-143-320-320-320zm0 1280c-177 0-320 143-320 320s143 320 320 320 320-143 320-320-143-320-320-320zm0 1280c-177 0-320 143-320 320s143 320 320 320 320-143 320-320-143-320-320-320zM4480 3520c-711 0-1795 5-2337 525-500 481-543 1381-543 2035s43 1554 543 2035c542 520 1626 525 2337 525s1795-5 2337-525c500-481 543-1381 543-2035s-43-1554-543-2035c-542-520-1626-525-2337-525z"/></svg>