<svg xmlns="http://www.w3.org/2000/svg" width="1024" height="1024" shape-rendering="geometricPrecision" text-rendering="geometricPrecision" image-rendering="optimizeQuality" clip-rule="evenodd" viewBox="0 0 10240 10240"><title>typewriter icon</title><desc>typewriter icon from the IconExperience.com O-Collection. Copyright by INCORS GmbH (www.incors.com).</desc><path fill="gray" d="M1920 3200h640v1600h1294c115-642 832-960 1426-960s1311 318 1426 960h1294V3200h640c176 0 320 144 320 320v1280c0 176-144 320-320 320h-77c29 52 56 107 79 165l866 2166c64 159 92 305 92 476v393c0 705-575 1280-1280 1280H2240c-705 0-1280-575-1280-1280v-393c0-171 28-317 92-476l866-2166c23-58 50-113 79-165h-77c-176 0-320-144-320-320v-107l-320 107-330 1037c-43 172-216 276-387 233-172-43-276-216-233-388l320-1280c26-102 98-181 189-218l761-467v-197c0-176 144-320 320-320zm960 2200c-199 0-360 161-360 360s161 360 360 360 360-161 360-360-161-360-360-360zm3840 1920c-199 0-360 161-360 360s161 360 360 360 360-161 360-360-161-360-360-360zm-960 0c-199 0-360 161-360 360s161 360 360 360 360-161 360-360-161-360-360-360zm-960 0c-199 0-360 161-360 360s161 360 360 360 360-161 360-360-161-360-360-360zm-960 0c-199 0-360 161-360 360s161 360 360 360 360-161 360-360-161-360-360-360zm3360-960c-199 0-360 161-360 360s161 360 360 360 360-161 360-360-161-360-360-360zm-960 0c-199 0-360 161-360 360s161 360 360 360 360-161 360-360-161-360-360-360zm-960 0c-199 0-360 161-360 360s161 360 360 360 360-161 360-360-161-360-360-360zm-960 0c-199 0-360 161-360 360s161 360 360 360 360-161 360-360-161-360-360-360zm-960 0c-199 0-360 161-360 360s161 360 360 360 360-161 360-360-161-360-360-360zm4320-960c-199 0-360 161-360 360s161 360 360 360 360-161 360-360-161-360-360-360zm-960 0c-199 0-360 161-360 360s161 360 360 360 360-161 360-360-161-360-360-360zm-960 0c-199 0-360 161-360 360s161 360 360 360 360-161 360-360-161-360-360-360zm-960 0c-199 0-360 161-360 360s161 360 360 360 360-161 360-360-161-360-360-360zm-960 0c-199 0-360 161-360 360s161 360 360 360 360-161 360-360-161-360-360-360zm690-600h1500c-146-231-496-320-750-320s-604 89-750 320z"/><path fill="#4D82B8" d="M2880 1280h4800v3200h-640V1920H3520v2560h-640z"/></svg>