<svg xmlns="http://www.w3.org/2000/svg" width="1024" height="1024" shape-rendering="geometricPrecision" text-rendering="geometricPrecision" image-rendering="optimizeQuality" clip-rule="evenodd" viewBox="0 0 10240 10240"><title>umbrella_closed icon</title><desc>umbrella_closed icon from the IconExperience.com O-Collection. Copyright by INCORS GmbH (www.incors.com).</desc><path fill="gray" d="M6080 8640c0-177 143-320 320-320s320 143 320 320c0 530-430 960-960 960s-960-430-960-960v-640h640v640c0 177 143 320 320 320s320-143 320-320z"/><path fill="#4D82B8" d="M5440 1600c615 307 934 3863 391 5845-38 141-162 235-308 235h-806c-146 0-270-94-308-235-543-1982-224-5538 391-5845v-10h640v10z"/><path fill="gray" d="M4800 1280c0-177 143-320 320-320s320 143 320 320v320h-640v-320z"/></svg>