<svg xmlns="http://www.w3.org/2000/svg" width="1024" height="1024" shape-rendering="geometricPrecision" text-rendering="geometricPrecision" image-rendering="optimizeQuality" clip-rule="evenodd" viewBox="0 0 10240 10240"><title>uninstall icon</title><desc>uninstall icon from the IconExperience.com O-Collection. Copyright by INCORS GmbH (www.incors.com).</desc><path fill="gray" d="M2560 1280h5120c353 0 640 288 640 640v3840c0 352-288 640-640 640H6080v320c0 176 144 320 320 320h160c88 0 160 72 160 160v160H3520v-160c0-88 72-160 160-160h160c176 0 320-144 320-320v-320H2560c-352 0-640-287-640-640v-106c137 72 290 107 452 106l838 1c8 0 16-1 24-1h4446V1920H2372c-163 0-316 41-452 116v-116c0-352 288-640 640-640zM2505 7680h5230c176 0 328 63 452 187l999 999c63 63 94 138 94 227v187c0 176-144 320-320 320H1280c-176 0-320-144-320-320v-187c0-89 31-164 94-227l999-999c124-124 276-187 452-187zm695 320h-640c-88 0-160 72-160 160s72 160 160 160h640c88 0 160-72 160-160s-72-160-160-160zm4480 0h-960c-88 0-160 72-160 160s72 160 160 160h960c88 0 160-72 160-160s-72-160-160-160zm-1600 0h-320c-88 0-160 72-160 160s72 160 160 160h320c88 0 160-72 160-160s-72-160-160-160zm-960 0h-320c-88 0-160 72-160 160s72 160 160 160h320c88 0 160-72 160-160s-72-160-160-160zm3200 640h-640c-88 0-160 72-160 160s72 160 160 160h640c88 0 160-72 160-160s-72-160-160-160zm-1280 0H3200c-88 0-160 72-160 160s72 160 160 160h3840c88 0 160-72 160-160s-72-160-160-160zm-4480 0h-640c-88 0-160 72-160 160s72 160 160 160h640c88 0 160-72 160-160s-72-160-160-160zm1600-640h-320c-88 0-160 72-160 160s72 160 160 160h320c88 0 160-72 160-160s-72-160-160-160z"/><path fill="#4D82B8" d="M1919 5260L733 4074c-124-125-124-328 0-453l1186-1186c125-124 277-195 453-195l839 1c65 0 122 37 147 98 26 61 12 128-34 175l-687 685 1683 5c88 1 160 73 160 160v956c0 88-72 160-160 160l-1683-1 687 688c46 47 60 114 34 175-25 61-81 98-147 99l-839-1c-176 1-328-55-453-180z"/></svg>