<svg xmlns="http://www.w3.org/2000/svg" width="1024" height="1024" shape-rendering="geometricPrecision" text-rendering="geometricPrecision" image-rendering="optimizeQuality" clip-rule="evenodd" viewBox="0 0 10240 10240"><title>user_mobilephone icon</title><desc>user_mobilephone icon from the IconExperience.com O-Collection. Copyright by INCORS GmbH (www.incors.com).</desc><path fill="gray" d="M9600 7956c0 720-1728 1004-2880 1004-592 0-1336-75-1920-246V5730c154-124 326-250 516-389 403 265 885 419 1404 419s1001-154 1404-419c961 706 1476 1064 1476 2615z"/><path fill="gray" d="M6720 960c1237 0 2240 1003 2240 2240S7957 5440 6720 5440c-815 0-1528-435-1920-1086v-514c0-283-123-538-319-713 39-1204 1026-2167 2239-2167z"/><path fill="#4D82B8" d="M1280 3200h2560c353 0 640 288 640 640v5120c0 352-288 640-640 640H1280c-352 0-640-288-640-640V3840c0-353 288-640 640-640zm0 640v1920h2560V3840H1280zm0 2560v640h640v-640h-640zm960 0v640h640v-640h-640zm960 0v640h640v-640h-640zm-1920 960v640h640v-640h-640zm960 0v640h640v-640h-640zm960 0v640h640v-640h-640zm-1920 960v640h640v-640h-640zm960 0v640h640v-640h-640zm960 0v640h640v-640h-640z"/></svg>