<svg xmlns="http://www.w3.org/2000/svg" width="1024" height="1024" shape-rendering="geometricPrecision" text-rendering="geometricPrecision" image-rendering="optimizeQuality" clip-rule="evenodd" viewBox="0 0 10240 10240"><title>users_relation2 icon</title><desc>users_relation2 icon from the IconExperience.com O-Collection. Copyright by INCORS GmbH (www.incors.com).</desc><path fill="gray" d="M3112 7598c549 443 1247 709 2008 709s1459-266 2008-709c312 62 627 80 842 82-702 778-1719 1267-2850 1267s-2148-489-2850-1267c215-2 530-20 842-82zM5120 1267c1144 0 2170 500 2874 1293-261 1-507 65-725 176-568-515-1322-829-2149-829s-1581 314-2149 829c-218-111-464-175-725-176 704-793 1730-1293 2874-1293z"/><path fill="#4D82B8" d="M9600 6795c0 405-960 565-1600 565s-1600-160-1600-565c0-802 242-984 694-1316 258 177 570 281 906 281s648-104 906-281c452 332 694 513 694 1316zM8000 2880c707 0 1280 573 1280 1280s-573 1280-1280 1280-1280-573-1280-1280 573-1280 1280-1280zM3840 6795c0 405-960 565-1600 565S640 7200 640 6795c0-802 242-984 694-1316 258 177 570 281 906 281s648-104 906-281c452 332 694 513 694 1316zM2240 2880c707 0 1280 573 1280 1280s-573 1280-1280 1280S960 4867 960 4160s573-1280 1280-1280z"/></svg>