<svg xmlns="http://www.w3.org/2000/svg" width="1024" height="1024" shape-rendering="geometricPrecision" text-rendering="geometricPrecision" image-rendering="optimizeQuality" clip-rule="evenodd" viewBox="0 0 10240 10240"><title>users3 icon</title><desc>users3 icon from the IconExperience.com O-Collection. Copyright by INCORS GmbH (www.incors.com).</desc><path fill="#4D82B8" d="M9612 6264c0 543-1152 758-1920 758-392 0-883-56-1271-183 381-349 619-850 619-1406 0-306-72-595-200-851 256 127 546 198 852 198 387 0 748-114 1049-310 568 465 871 694 871 1794zM7680 1280c884 0 1600 713 1600 1593s-716 1594-1600 1594-1600-714-1600-1594 716-1593 1600-1593zM3837 6856c-389 128-883 184-1277 184-768 0-1920-214-1920-757 0-1099 304-1331 871-1795 301 196 662 311 1049 311 295 0 575-67 825-185-119 248-185 526-185 819 0 565 246 1073 637 1423zM2560 1293c884 0 1600 714 1600 1594s-716 1593-1600 1593S960 3767 960 2887s716-1594 1600-1594zM7040 8834c0 544-1152 758-1920 758s-1920-214-1920-757c0-1099 304-1331 871-1795 301 196 662 311 1049 311s748-115 1049-311c568 465 871 694 871 1794z"/><path fill="#4D82B8" d="M5120 3840c884 0 1600 713 1600 1593s-716 1594-1600 1594-1600-714-1600-1594 716-1593 1600-1593z"/></svg>