<svg xmlns="http://www.w3.org/2000/svg" width="1024" height="1024" shape-rendering="geometricPrecision" text-rendering="geometricPrecision" image-rendering="optimizeQuality" clip-rule="evenodd" viewBox="0 0 10240 10240"><title>user_glasses icon</title><desc>user_glasses icon from the IconExperience.com O-Collection. Copyright by INCORS GmbH (www.incors.com).</desc><path fill="#4D82B8" d="M8320 8470c0 810-1920 1130-3200 1130s-3200-320-3200-1129c0-1760 582-2029 1663-2835 445 281 972 444 1537 444s1092-163 1537-444c1082 807 1663 1074 1663 2834z"/><path fill="#4D82B8" d="M5120 640c1414 0 2560 1146 2560 2560S6534 5760 5120 5760 2560 4614 2560 3200 3706 640 5120 640zm1920 2560v-640c0-176-144-320-320-320H3520c-176 0-320 144-320 320v640c0 176 144 320 320 320h960c176 0 320-144 320-320v-320c0-176 144-320 320-320s320 144 320 320v320c0 176 144 320 320 320h960c176 0 320-144 320-320z"/><path fill="#4D82B8" d="M5760 2560h960v640h-960v-640zm-2240 0h960v640h-960v-640z"/></svg>