<svg xmlns="http://www.w3.org/2000/svg" width="1024" height="1024" shape-rendering="geometricPrecision" text-rendering="geometricPrecision" image-rendering="optimizeQuality" clip-rule="evenodd" viewBox="0 0 10240 10240"><title>utility_knife icon</title><desc>utility_knife icon from the IconExperience.com O-Collection. Copyright by INCORS GmbH (www.incors.com).</desc><path fill="gray" d="M3294 8546l-414 414H320l1694-1694 226 227-1147 1147h1654l320-320z"/><path fill="#EDC87E" d="M2146 6494l4629-4629c498-498 1312-498 1810 0l750 750c498 498 498 1312 0 1810l-960 960c-249 249-553 375-905 375h-220c-352 0-656 126-905 375l-585 585-1694 1694c-124 124-328 124-452 0L2146 6946c-124-124-124-328 0-452zm5799-4387c-249-249-655-249-905 0L5893 3255c-227 227-248 583-62 834L2880 7040l640 640 2951-2951c251 186 607 165 834-62l1148-1147c249-250 249-656 0-905l-508-508z"/><path fill="gray" d="M7719 2333l508 508c124 124 124 328 0 452L7079 4441c-124 124-328 124-452 0l-508-508c-124-124-124-328 0-452l1148-1148c124-124 328-124 452 0z"/></svg>