<svg xmlns="http://www.w3.org/2000/svg" width="1024" height="1024" shape-rendering="geometricPrecision" text-rendering="geometricPrecision" image-rendering="optimizeQuality" clip-rule="evenodd" viewBox="0 0 10240 10240"><title>vacuum_cleaner icon</title><desc>vacuum_cleaner icon from the IconExperience.com O-Collection. Copyright by INCORS GmbH (www.incors.com).</desc><path fill="#76A797" d="M7040 3520h1280v750c744 265 1280 977 1280 1810v2880c0 353-287 640-640 640H6400c-353 0-640-287-640-640V6080c0-833 536-1545 1280-1810v-750zm640 1600c-353 0-640 287-640 640s287 640 640 640 640-287 640-640-287-640-640-640z"/><path fill="gray" d="M2560 3520v3840c0 264 108 504 282 678s414 282 678 282 504-108 678-282 282-414 282-678V3040c0-485 198-925 516-1244 319-318 759-516 1244-516h24v1c481 1 916 200 1229 518 314 317 507 754 507 1232v3h-1v166h-638l1-166h-2v-3c0-305-123-583-322-785-198-201-472-326-774-327v1h-24c-308 0-588 126-791 329s-329 483-329 791v4320c0 441-180 841-469 1131-290 289-690 469-1131 469s-841-180-1131-469c-289-290-469-690-469-1131V3520h640z"/><path fill="gray" d="M640 1280h3200v640c0 352-288 640-640 640v320c0 176-144 320-320 320H1600c-176 0-320-144-320-320v-320c-352 0-640-287-640-640v-640z"/></svg>