<svg xmlns="http://www.w3.org/2000/svg" width="1024" height="1024" shape-rendering="geometricPrecision" text-rendering="geometricPrecision" image-rendering="optimizeQuality" clip-rule="evenodd" viewBox="0 0 10240 10240"><title>van icon</title><desc>van icon from the IconExperience.com O-Collection. Copyright by INCORS GmbH (www.incors.com).</desc><path fill="gray" d="M2880 7040c530 0 960 430 960 960s-430 960-960 960-960-430-960-960 430-960 960-960zm4480 640c177 0 320 143 320 320s-143 320-320 320-320-143-320-320 143-320 320-320zm-4480 0c-177 0-320 143-320 320s143 320 320 320 320-143 320-320-143-320-320-320zm4480-640c-530 0-960 430-960 960s430 960 960 960 960-430 960-960-430-960-960-960z"/><path fill="#4D82B8" d="M1280 3200h5929c497 0 923 263 1145 708l606 1212 265 265c249 249 375 553 375 905v110h-320c-176 0-320 144-320 320s144 320 320 320h320v320c0 352-288 640-640 640h-320c0-707-573-1280-1280-1280s-1280 573-1280 1280c0 110 14 218 40 320H4120c26-102 40-210 40-320 0-707-573-1280-1280-1280s-1280 573-1280 1280h-320c-352 0-640-288-640-640V3840c0-351 289-640 640-640zm4800 1920h1647c114 0 212-55 272-152s65-209 14-311l-232-463c-113-228-318-354-572-354H6080v1280z"/></svg>