<svg xmlns="http://www.w3.org/2000/svg" width="1024" height="1024" shape-rendering="geometricPrecision" text-rendering="geometricPrecision" image-rendering="optimizeQuality" clip-rule="evenodd" viewBox="0 0 10240 10240"><title>vector_ellipse icon</title><desc>vector_ellipse icon from the IconExperience.com O-Collection. Copyright by INCORS GmbH (www.incors.com).</desc><path fill="gray" d="M6080 2316c1136 184 2425 768 2967 1844h-753c-507-670-1411-1048-2214-1195v-649zM9047 6080c-542 1076-1831 1660-2967 1844v-649c803-147 1707-525 2214-1195h753zM4160 7924c-1136-184-2425-768-2967-1844h753c507 670 1411 1048 2214 1195v649zM4160 2965c-803 147-1707 525-2214 1195h-753c542-1076 1831-1660 2967-1844v649z"/><path fill="#4D82B8" d="M8320 4480h1280v1280H8320V4480zm320 320v640h640v-640h-640zM4480 7040h1280v1280H4480V7040zm320 320v640h640v-640h-640zM642 4472h1280v1280H642V4472zm320 320v640h640v-640H962zM4480 1920h1280v1280H4480V1920zm320 320v640h640v-640h-640z"/></svg>