<svg xmlns="http://www.w3.org/2000/svg" width="1024" height="1024" shape-rendering="geometricPrecision" text-rendering="geometricPrecision" image-rendering="optimizeQuality" clip-rule="evenodd" viewBox="0 0 10240 10240"><title>vending_machine icon</title><desc>vending_machine icon from the IconExperience.com O-Collection. Copyright by INCORS GmbH (www.incors.com).</desc><path fill="#76A797" d="M6560 1600c265 0 480 215 480 480s-215 480-480 480-480-215-480-480c0 265-215 480-480 480s-480-215-480-480c0 265-215 480-480 480s-480-215-480-480c0 265-215 480-480 480s-480-215-480-480 215-480 480-480 480 215 480 480c0-265 215-480 480-480s480 215 480 480c0-265 215-480 480-480s480 215 480 480c0-265 215-480 480-480zM3680 6400c265 0 480 215 480 480 0-265 215-480 480-480s480 215 480 480c0-265 215-480 480-480s480 215 480 480c0-265 215-480 480-480s480 215 480 480-215 480-480 480-480-215-480-480c0 265-215 480-480 480s-480-215-480-480c0 265-215 480-480 480s-480-215-480-480c0 265-215 480-480 480s-480-215-480-480 215-480 480-480zm0-1600c265 0 480 215 480 480 0-265 215-480 480-480s480 215 480 480c0-265 215-480 480-480s480 215 480 480c0-265 215-480 480-480s480 215 480 480-215 480-480 480-480-215-480-480c0 265-215 480-480 480s-480-215-480-480c0 265-215 480-480 480s-480-215-480-480c0 265-215 480-480 480s-480-215-480-480 215-480 480-480zm0-1600c265 0 480 215 480 480 0-265 215-480 480-480s480 215 480 480c0-265 215-480 480-480s480 215 480 480c0-265 215-480 480-480s480 215 480 480-215 480-480 480-480-215-480-480c0 265-215 480-480 480s-480-215-480-480c0 265-215 480-480 480s-480-215-480-480c0 265-215 480-480 480s-480-215-480-480 215-480 480-480z"/><path fill="gray" d="M2240 640h5760c176 0 320 144 320 320v8640H1920V960c0-176 144-320 320-320zm320 640v1280h5120V1280H2560zm5120 1600H2560v1280h5120V2880zm0 1600H2560v1280h5120V4480zm0 1600H2560v1280h5120V6080zm-320 1920v640h320v-640h-320zm-4480 0c-176 0-320 144-320 320v320c0 176 144 320 320 320h3840c176 0 320-144 320-320v-320c0-176-144-320-320-320H2880z"/></svg>