<svg xmlns="http://www.w3.org/2000/svg" width="1024" height="1024" shape-rendering="geometricPrecision" text-rendering="geometricPrecision" image-rendering="optimizeQuality" clip-rule="evenodd" viewBox="0 0 10240 10240"><title>video_chat icon</title><desc>video_chat icon from the IconExperience.com O-Collection. Copyright by INCORS GmbH (www.incors.com).</desc><path fill="#4D82B8" d="M3230 8000c90-669 378-893 841-1272 301 196 662 311 1049 311s748-115 1049-311c464 380 751 603 841 1272H3230zM5120 3533c884 0 1600 714 1600 1594s-716 1593-1600 1593-1600-713-1600-1593 716-1594 1600-1594z"/><path fill="gray" d="M1280 1280h7680c353 0 640 288 640 640v6720c0 176-144 320-320 320H960c-176 0-320-144-320-320V1920c0-353 288-640 640-640zm0 1920v5120h7680V3200H1280z"/></svg>