<svg xmlns="http://www.w3.org/2000/svg" width="1024" height="1024" shape-rendering="geometricPrecision" text-rendering="geometricPrecision" image-rendering="optimizeQuality" clip-rule="evenodd" viewBox="0 0 10240 10240"><title>walkie_talkie icon</title><desc>walkie_talkie icon from the IconExperience.com O-Collection. Copyright by INCORS GmbH (www.incors.com).</desc><path fill="gray" d="M3200 2240h1280v320h1920V1280c0-353 287-640 640-640s640 288 640 640v7680c0 352-288 640-640 640H3200c-352 0-640-287-640-640V3200c0-353 288-640 640-640v-320zm640 960c-176 0-320 144-320 320v1920c0 176 144 320 320 320h2560c176 0 320-144 320-320V3520c0-176-144-320-320-320H3840zm1280 2880c-884 0-1600 716-1600 1600s716 1600 1600 1600 1600-716 1600-1600-716-1600-1600-1600z"/><path fill="gray" d="M5120 6400c707 0 1280 573 1280 1280s-573 1280-1280 1280-1280-573-1280-1280 573-1280 1280-1280z"/><path fill="#76A797" d="M3840 3519h2560v1921H3840z"/></svg>