<svg xmlns="http://www.w3.org/2000/svg" width="1024" height="1024" shape-rendering="geometricPrecision" text-rendering="geometricPrecision" image-rendering="optimizeQuality" clip-rule="evenodd" viewBox="0 0 10240 10240"><title>wallet icon</title><desc>wallet icon from the IconExperience.com O-Collection. Copyright by INCORS GmbH (www.incors.com).</desc><path fill="#4D82B8" d="M2333 2750L6321 710c314-161 701-35 862 278l967 1892h-359l-747-1461-2857 1461H2160c48-52 106-96 173-130z"/><path fill="gray" d="M1920 3200h245c-152 170-245 394-245 640v960h-640v-960c0-353 288-640 640-640zm959 0h6081c353 0 640 288 640 640v5120c0 353-287 640-640 640H2880c-352 0-640-287-640-640v-960h1600c529 0 960-431 960-960V5760c0-529-431-960-960-960H2240v-960c0-352 287-640 639-640zm-714 6400h-245c-352 0-640-287-640-640v-960h640v960c0 246 93 470 245 640z"/><path fill="gray" d="M1280 5120h2240c353 0 640 287 640 640v1280c0 353-287 640-640 640H1280c-176 0-320-144-320-320V5440c0-176 144-320 320-320zm1600 640c-353 0-640 287-640 640s287 640 640 640 640-287 640-640-287-640-640-640z"/></svg>