<svg xmlns="http://www.w3.org/2000/svg" width="1024" height="1024" shape-rendering="geometricPrecision" text-rendering="geometricPrecision" image-rendering="optimizeQuality" clip-rule="evenodd" viewBox="0 0 10240 10240"><title>water icon</title><desc>water icon from the IconExperience.com O-Collection. Copyright by INCORS GmbH (www.incors.com).</desc><path fill="#4D82B8" d="M1760 4460c218 394 639 660 1120 660s897-264 1117-654c218 394 637 661 1120 661s906-269 1123-666c219 393 638 659 1120 659s902-266 1120-660c218 394 638 660 1120 660v640c-410 0-799-130-1120-360-321 230-710 360-1120 360-408 0-797-129-1117-358-321 233-714 365-1126 365-411 0-802-131-1123-363-320 228-707 356-1114 356-410 0-799-130-1120-360-321 230-710 360-1120 360v-640c482 0 902-266 1120-660z"/></svg>