<svg xmlns="http://www.w3.org/2000/svg" width="1024" height="1024" shape-rendering="geometricPrecision" text-rendering="geometricPrecision" image-rendering="optimizeQuality" clip-rule="evenodd" viewBox="0 0 10240 10240"><title>watering_can_half icon</title><desc>watering_can_half icon from the IconExperience.com O-Collection. Copyright by INCORS GmbH (www.incors.com).</desc><path fill="gray" d="M3200 1280c1414 0 2560 1146 2560 2560v1672c0 263 150 488 393 590s511 53 696-134l1471-1488c210-213 600-795 804-1066 37-50 95-72 156-62 60 11 107 52 125 112 187 620 174 1536-39 2116-33 90-136 131-222 88l-282-141c-125-63-271-70-369 30L5947 8133c-123 125-276 187-452 187H2560c-352 0-640-287-640-640V6057C1155 5615 640 4788 640 3840c0-1414 1146-2560 2560-2560zm1920 3134c-110 43-229 66-352 66H2561c-1 0-1 0-1 1v1919h2560V4414zm-2560-574h2208c99 0 185-41 248-117 63-77 85-169 66-267-178-876-953-1536-1882-1536-1060 0-1920 860-1920 1920 0 569 247 1079 640 1431v-791c0-353 288-640 640-640z"/></svg>