<svg xmlns="http://www.w3.org/2000/svg" width="1024" height="1024" shape-rendering="geometricPrecision" text-rendering="geometricPrecision" image-rendering="optimizeQuality" clip-rule="evenodd" viewBox="0 0 10240 10240"><title>wedding_rings icon</title><desc>wedding_rings icon from the IconExperience.com O-Collection. Copyright by INCORS GmbH (www.incors.com).</desc><path fill="#EDC87E" d="M6720 1920c1591 0 2880 1289 2880 2880S8311 7680 6720 7680 3840 6390 3840 4800c0-639 208-1229 560-1707 192 99 365 230 512 385-272 370-432 827-432 1322 0 1237 1003 2240 2240 2240s2240-1003 2240-2240-1003-2240-2240-2240c-276 0-540 50-785 141-152-175-324-334-512-473 390-197 831-308 1297-308z"/><path fill="#EDC87E" d="M3520 1920c795 0 1515 322 2036 844 522 521 844 1241 844 2036 0 639-208 1229-560 1707-192-99-365-230-512-384 272-371 432-828 432-1323 0-619-251-1179-656-1584s-965-656-1584-656c-1237 0-2240 1003-2240 2240s1003 2240 2240 2240c276 0 540-50 785-141 152 175 324 334 512 473-390 197-831 308-1297 308-1591 0-2880-1290-2880-2880 0-1591 1289-2880 2880-2880z"/></svg>