<svg xmlns="http://www.w3.org/2000/svg" width="1024" height="1024" shape-rendering="geometricPrecision" text-rendering="geometricPrecision" image-rendering="optimizeQuality" clip-rule="evenodd" viewBox="0 0 10240 10240"><title>wheat icon</title><desc>wheat icon from the IconExperience.com O-Collection. Copyright by INCORS GmbH (www.incors.com).</desc><path fill="#EDC87E" d="M5598 8946v974h-640v-975c120-20 210-59 319-106 110 48 200 87 321 107zM5774 3331c0-386-207-713-496-829-288 115-496 441-496 826-1 14 0 28 0 42 99 58 191 129 272 210 88 87 164 188 224 296 61-108 137-208 224-296 81-80 173-151 271-209 1-13 1-27 1-40zm684 3710c249-270 324-631 206-906-285-123-663-40-936 233-272 272-357 650-235 936 33 14 66 25 101 34 241-200 554-318 864-297zm-2359-1c-250-269-324-631-207-906 285-123 663-39 936 233s357 650 235 936c-32 14-66 26-100 34-242-200-555-317-864-297zm29 1310c-273-272-358-650-236-936 285-123 663-39 936 233s357 650 235 936c-285 123-663 40-935-233zm2301 1c272-272 357-651 235-936-285-123-663-40-936 233-272 272-357 650-235 936 285 123 663 39 936-233zM4099 5760c-250-269-325-632-207-908 285-122 663-39 935 233 273 273 358 651 236 937-33 14-67 25-102 34-241-199-553-316-862-296zm2358 1c251-270 326-632 208-908-285-123-663-39-936 233s-357 651-235 937c32 14 66 25 101 34 242-200 553-316 862-296zM4098 4479c-249-270-323-631-206-906 285-123 663-39 936 233s357 651 235 937c-32 13-66 25-100 33-242-200-555-318-865-297zm2360 0c249-269 323-630 206-905-285-123-663-39-936 233-272 272-357 650-235 936 32 14 66 25 101 34 241-201 555-318 864-298z"/><path fill="#B89A7C" d="M3838 1278h320v1919c-108 1-215 19-320 55V1278zm2560 0h320v1974c-105-36-213-53-320-54V1278zm-640-640h320v2483c-39-250-148-489-320-670V638zm-640-320h320v1904c-96-43-176-58-278-17-14 5-28 11-42 18V318zm-640 320h320v1813c-172 181-281 420-320 670V638z"/></svg>