<svg xmlns="http://www.w3.org/2000/svg" width="1024" height="1024" shape-rendering="geometricPrecision" text-rendering="geometricPrecision" image-rendering="optimizeQuality" clip-rule="evenodd" viewBox="0 0 10240 10240"><title>wheelchair icon</title><desc>wheelchair icon from the IconExperience.com O-Collection. Copyright by INCORS GmbH (www.incors.com).</desc><path fill="gray" d="M2471 2560h3929c177 0 320 143 320 320s-143 320-320 320H2563l99 692c-212 112-409 247-588 402l-431-3014H960c-177 0-320-143-320-320s143-320 320-320h960c168 0 306 129 319 294l232 1626zm5689 5440c55 0 108 6 160 16V6720c0-176-144-320-320-320l-656-1c-22-220-66-433-130-638l786-1c529 0 960 431 960 960v2089c-5 438-360 791-800 791s-800-358-800-800 358-800 800-800zM4156 4800c1063 0 1924 861 1924 1924 0 1062-861 1923-1924 1923-1062 0-1923-861-1923-1923 0-1063 861-1924 1923-1924z"/><path fill="#4D82B8" d="M4160 3840c1591 0 2880 1289 2880 2880S5751 9600 4160 9600 1280 8311 1280 6720s1289-2880 2880-2880zm0 640c-1237 0-2240 1003-2240 2240s1003 2240 2240 2240 2240-1003 2240-2240-1003-2240-2240-2240z"/></svg>