<svg xmlns="http://www.w3.org/2000/svg" width="1024" height="1024" shape-rendering="geometricPrecision" text-rendering="geometricPrecision" image-rendering="optimizeQuality" clip-rule="evenodd" viewBox="0 0 10240 10240"><title>window_key icon</title><desc>window_key icon from the IconExperience.com O-Collection. Copyright by INCORS GmbH (www.incors.com).</desc><path fill="#EDC87E" d="M2240 6400l-414-414c-124-124-124-328 0-452l320-320c63-63 138-94 227-94h2880c247-565 811-960 1467-960 884 0 1600 716 1600 1600s-716 1600-1600 1600c-656 0-1220-395-1467-960h-453l-207-207c-62-62-164-62-226 0l-207 207-207-207c-62-62-164-62-226 0l-207 207-207-207c-62-62-164-62-226 0l-207 207-207-207c-62-62-164-62-226 0l-207 207zm4951-1111c-260 0-471 211-471 471s211 471 471 471 471-211 471-471-211-471-471-471z"/><path fill="gray" d="M1280 1280h7680c353 0 640 288 640 640v6720c0 176-144 320-320 320H960c-176 0-320-144-320-320V1920c0-353 288-640 640-640zm0 1920v5120h7680V3200H1280z"/></svg>