<svg xmlns="http://www.w3.org/2000/svg" width="1024" height="1024" shape-rendering="geometricPrecision" text-rendering="geometricPrecision" image-rendering="optimizeQuality" clip-rule="evenodd" viewBox="0 0 10240 10240"><title>windows_close icon</title><desc>windows_close icon from the IconExperience.com O-Collection. Copyright by INCORS GmbH (www.incors.com).</desc><path fill="gray" d="M1280 640h6400c353 0 640 288 640 640v320H5120c-529 0-960 431-960 960H1280v3840h320v640H960c-176 0-320-144-320-320V1280c0-353 288-640 640-640z"/><path fill="gray" d="M9600 7115v2165c0 176-144 320-320 320H2240c-176 0-320-144-320-320V3840c0-352 288-640 640-640h1600v1920H2560v3840h6400V7360c246 0 470-93 640-245z"/><path fill="#E68497" d="M5120 1920h3840c353 0 640 287 640 640v3840c0 353-287 640-640 640H5120c-353 0-640-287-640-640V2560c0-353 287-640 640-640zm110 3691l679 679 1131-1131 1131 1131 679-679-1131-1131 1131-1131-679-679-1131 1131-1131-1131-679 679 1131 1131-1131 1131z"/></svg>