<svg xmlns="http://www.w3.org/2000/svg" width="1024" height="1024" shape-rendering="geometricPrecision" text-rendering="geometricPrecision" image-rendering="optimizeQuality" clip-rule="evenodd" viewBox="0 0 10240 10240"><title>window_oscillograph icon</title><desc>window_oscillograph icon from the IconExperience.com O-Collection. Copyright by INCORS GmbH (www.incors.com).</desc><path fill="#ED9A56" d="M1600 5440h508l226-226c125-125 327-125 452 0l364 364 424-635c98-148 296-187 443-89 57 38 98 91 121 150l300 600 703-1875c62-165 245-249 410-188 111 41 185 138 204 247v-1l461 2766 530-1238c69-162 257-238 419-169 79 34 137 96 169 169l113 226 7-7c62-63 144-94 226-94h960v640h-827l-227 226-1-1c-23 24-51 44-82 60-158 79-349 15-428-142l-12-25-686 1599c-40 101-130 179-244 198-174 29-339-89-368-263l-444-2666-542 1445c-28 73-81 136-156 174-158 79-349 15-428-143l-394-787-333 500c-12 18-26 35-42 51-125 125-327 125-452 0l-414-413-92 91c-58 59-139 96-228 96h-640v-640z"/><path fill="gray" d="M1280 1280h7680c353 0 640 288 640 640v6720c0 176-144 320-320 320H960c-176 0-320-144-320-320V1920c0-353 288-640 640-640zm0 1920v5120h7680V3200H1280z"/></svg>