<svg xmlns="http://www.w3.org/2000/svg" width="1024" height="1024" shape-rendering="geometricPrecision" text-rendering="geometricPrecision" image-rendering="optimizeQuality" clip-rule="evenodd" viewBox="0 0 10240 10240"><title>window_explorer icon</title><desc>window_explorer icon from the IconExperience.com O-Collection. Copyright by INCORS GmbH (www.incors.com).</desc><path fill="gray" d="M9600 8640c0 176-144 320-320 320H960c-176 0-320-144-320-320V1920c0-353 288-640 640-640h7680c353 0 640 288 640 640v6720zM3840 3200v5120h5120V3200H3840zm-2560 0v5120h1920V3200H1280z"/><path fill="#4D82B8" d="M6720 3520h1280v1280H6720V3520zm-1920 0h1280v1280H4800V3520zm1920 1600h1280v1280H6720V5120zm-1920 0h1280v1280H4800V5120zm1920 1600h1280v1280H6720V6720zm-1920 0h1280v1280H4800V6720z"/><path fill="#EDC87E" d="M1600 3840h1280v640H1600v-640zm0 1920h1280v640H1600v-640zm-5-960h1280v640H1595v-640z"/></svg>