<svg xmlns="http://www.w3.org/2000/svg" width="1024" height="1024" shape-rendering="geometricPrecision" text-rendering="geometricPrecision" image-rendering="optimizeQuality" clip-rule="evenodd" viewBox="0 0 10240 10240"><title>window_warning icon</title><desc>window_warning icon from the IconExperience.com O-Collection. Copyright by INCORS GmbH (www.incors.com).</desc><path fill="#EDC87E" d="M5402 3859l1914 3340c59 102 59 219 0 321-58 102-158 160-275 160H3213c-117 0-217-58-275-160-59-102-59-219 0-321l1914-3340c58-102 158-160 275-160s217 58 275 160zm-282 2861c-177 0-320 143-320 320s143 320 320 320 320-143 320-320-143-320-320-320zm-160-1600c-88 0-160 72-160 160v401c0 55 6 102 19 155l126 503c9 37 40 61 77 61h196c37 0 68-25 77-61l126-503c13-53 19-100 19-155v-401c0-88-72-160-160-160h-320z"/><path fill="gray" d="M1280 1280h7680c353 0 640 288 640 640v6720c0 176-144 320-320 320H960c-176 0-320-144-320-320V1920c0-353 288-640 640-640zm0 1920v5120h7680V3200H1280z"/></svg>