<svg xmlns="http://www.w3.org/2000/svg" width="1024" height="1024" shape-rendering="geometricPrecision" text-rendering="geometricPrecision" image-rendering="optimizeQuality" clip-rule="evenodd" viewBox="0 0 10240 10240"><title>window_dialog icon</title><desc>window_dialog icon from the IconExperience.com O-Collection. Copyright by INCORS GmbH (www.incors.com).</desc><path fill="gray" d="M1280 1280h7680c353 0 640 288 640 640v6720c0 176-144 320-320 320H960c-176 0-320-144-320-320V1920c0-353 288-640 640-640zm0 1920v5120h7680V3200H1280z"/><path fill="#4D82B8" d="M5760 6400h1600c176 0 320 144 320 320v640c0 176-144 320-320 320H5760c-176 0-320-144-320-320v-640c0-176 144-320 320-320zM2880 6400h1600c176 0 320 144 320 320v640c0 176-144 320-320 320H2880c-176 0-320-144-320-320v-640c0-176 144-320 320-320zM2560 3840h5120v1920H2560V3840zm320 320v1280h4480V4160H2880z"/></svg>