<svg xmlns="http://www.w3.org/2000/svg" width="1024" height="1024" shape-rendering="geometricPrecision" text-rendering="geometricPrecision" image-rendering="optimizeQuality" clip-rule="evenodd" viewBox="0 0 10240 10240"><title>window_information icon</title><desc>window_information icon from the IconExperience.com O-Collection. Copyright by INCORS GmbH (www.incors.com).</desc><path fill="#4D82B8" d="M5120 3840c1060 0 1920 860 1920 1920s-860 1920-1920 1920-1920-860-1920-1920 860-1920 1920-1920zm0 320c-265 0-480 215-480 480s215 480 480 480 480-215 480-480-215-480-480-480zm-320 1760v640c0 88-72 160-160 160h-160v320h1280v-320h-160c-88 0-160-72-160-160v-960c0-88-72-160-160-160h-640v320c88 0 160 72 160 160z"/><path fill="gray" d="M1280 1280h7680c353 0 640 288 640 640v6720c0 176-144 320-320 320H960c-176 0-320-144-320-320V1920c0-353 288-640 640-640zm0 1920v5120h7680V3200H1280z"/></svg>