<svg xmlns="http://www.w3.org/2000/svg" width="1024" height="1024" shape-rendering="geometricPrecision" text-rendering="geometricPrecision" image-rendering="optimizeQuality" clip-rule="evenodd" viewBox="0 0 10240 10240"><title>window_time icon</title><desc>window_time icon from the IconExperience.com O-Collection. Copyright by INCORS GmbH (www.incors.com).</desc><path fill="#4D82B8" d="M6045 5503l-445 257c0 265-215 480-480 480s-480-215-480-480c0-87 23-169 64-240l-420-729c120-104 261-186 415-240l421 729c87 0 169 23 240 64l445-257c112 115 196 257 240 416z"/><path fill="#4D82B8" d="M5120 3520c1237 0 2240 1003 2240 2240S6357 8000 5120 8000 2880 6997 2880 5760s1003-2240 2240-2240zm0 640c-884 0-1600 716-1600 1600s716 1600 1600 1600 1600-716 1600-1600-716-1600-1600-1600z"/><path fill="gray" d="M1280 1280h7680c353 0 640 288 640 640v6720c0 176-144 320-320 320H960c-176 0-320-144-320-320V1920c0-353 288-640 640-640zm0 1920v5120h7680V3200H1280z"/></svg>