<svg xmlns="http://www.w3.org/2000/svg" width="1024" height="1024" shape-rendering="geometricPrecision" text-rendering="geometricPrecision" image-rendering="optimizeQuality" clip-rule="evenodd" viewBox="0 0 10240 10240"><title>wine_bottle icon</title><desc>wine_bottle icon from the IconExperience.com O-Collection. Copyright by INCORS GmbH (www.incors.com).</desc><path fill="gray" d="M5760 2560v361c0 147 97 272 240 309 413 107 720 484 720 930v5440c0 176-144 320-320 320H3840c-176 0-320-144-320-320V4160c0-446 307-823 720-930 143-37 240-162 240-309v-361h1280zM4160 7680v640h1920v-640H4160zm0-2560v1920h1920V5120H4160z"/><path fill="#E68497" d="M5920 480v320c0 88-72 160-160 160v1280H4480V960c-88 0-160-72-160-160V480c0-88 72-160 160-160h1280c88 0 160 72 160 160z"/></svg>