<svg xmlns="http://www.w3.org/2000/svg" width="1024" height="1024" shape-rendering="geometricPrecision" text-rendering="geometricPrecision" image-rendering="optimizeQuality" clip-rule="evenodd" viewBox="0 0 10240 10240"><title>wlan_antenna icon</title><desc>wlan_antenna icon from the IconExperience.com O-Collection. Copyright by INCORS GmbH (www.incors.com).</desc><path fill="#4D82B8" d="M6030 2934c-125-125-125-327 0-452 124-125 327-125 452 0 176 176 318 387 416 624 94 228 146 475 146 733 0 259-52 506-146 734-98 237-240 448-416 624-125 125-328 125-452 0-125-125-125-327 0-452 119-120 214-260 278-415 62-149 96-315 96-491 0-175-34-341-96-490-64-155-159-295-278-415zm-2263-452c125-125 327-125 452 0s125 327 0 452c-119 120-214 260-278 415-62 149-97 315-97 490 0 176 35 342 97 491 64 155 159 295 278 415 125 125 125 327 0 452s-327 125-452 0c-176-176-318-387-416-624-95-228-147-475-147-734 0-258 52-505 147-733 98-237 240-448 416-624z"/><path fill="#4D82B8" d="M6935 2029c-125-125-125-327 0-452s327-125 452 0c294 293 531 646 694 1040 157 378 243 791 243 1222 0 432-86 845-243 1223-163 394-400 747-694 1040-125 125-327 125-452 0s-125-327 0-452c237-238 427-519 556-830 125-301 193-632 193-981 0-348-68-679-193-980-129-311-319-592-556-830zm-4073-452c125-125 327-125 452 0s125 327 0 452c-237 238-428 519-557 830-124 301-193 632-193 980 0 349 69 680 193 981 129 311 320 592 557 830 125 125 125 327 0 452s-327 125-452 0c-294-293-531-646-695-1040-156-378-243-791-243-1223 0-431 87-844 243-1222 164-394 401-747 695-1040z"/><path fill="#4D82B8" d="M7840 1124c-125-125-125-327 0-452s327-125 452 0c412 411 744 905 972 1455 219 529 340 1108 340 1713 0 604-121 1183-340 1712-228 550-560 1044-972 1455-125 125-327 125-452 0s-125-327 0-452c355-356 641-778 834-1246 187-451 290-947 290-1469 0-523-103-1019-290-1470-193-468-479-890-834-1246zM1957 672c125-125 327-125 452 0s125 327 0 452c-355 356-641 778-835 1246-186 451-290 947-290 1470 0 522 104 1018 290 1469 194 468 480 890 835 1246 125 125 125 327 0 452s-327 125-452 0c-412-411-745-905-973-1455-219-529-340-1108-340-1712 0-605 121-1184 340-1713 228-550 561-1044 973-1455z"/><path fill="gray" d="M5440 3840v2250c0 220 23 407 76 621l168 668c53 213 76 401 76 621v1280c0 176-144 320-320 320h-640c-176 0-320-144-320-320V8000c0-220 23-408 76-621l168-668c53-214 76-401 76-621V3840c0-177 143-320 320-320s320 143 320 320z"/></svg>