<svg xmlns="http://www.w3.org/2000/svg" width="1024" height="1024" shape-rendering="geometricPrecision" text-rendering="geometricPrecision" image-rendering="optimizeQuality" clip-rule="evenodd" viewBox="0 0 10240 10240"><title>woman icon</title><desc>woman icon from the IconExperience.com O-Collection. Copyright by INCORS GmbH (www.incors.com).</desc><path fill="#4D82B8" d="M8320 8490c0 796-1920 1110-3200 1110s-3200-314-3200-1109c0-1641 1391-1730 1926-2255 63 811 609 1444 1274 1444s1211-633 1274-1444c535 525 1926 613 1926 2254z"/><path fill="#EFC1B4" d="M6070 6083c-68 541-467 957-950 957s-882-416-950-957c283 195 606 317 950 317s667-122 950-317zM3201 3388c30 1053 691 2692 1919 2692 1008 0 1634-1105 1842-2083-383 17-790-72-1148-198-559-196-1114-618-1499-1111-200 248-454 463-729 581-115 50-248 93-385 119z"/><path fill="#EDC87E" d="M7350 3599c-320 130-841 105-1430-102-717-251-1334-875-1608-1398-160 336-481 717-852 876-214 92-412 130-572 120-5 70-8 143-8 219 0 767 227 1543 667 2150 80 109 167 214 261 311-437 116-860 221-1200 273-96 14-184-11-257-74s-111-146-111-243V3040c0-907 320-1813 1280-2116 640-604 960-604 1600-604 1591 0 2880 1218 2880 2720v2691c0 97-38 180-111 243s-161 88-257 74c-340-52-763-157-1200-273 94-97 181-202 261-311 386-532 608-1194 657-1865z"/></svg>