<svg xmlns="http://www.w3.org/2000/svg" width="1024" height="1024" shape-rendering="geometricPrecision" text-rendering="geometricPrecision" image-rendering="optimizeQuality" clip-rule="evenodd" viewBox="0 0 10240 10240"><title>workplace icon</title><desc>workplace icon from the IconExperience.com O-Collection. Copyright by INCORS GmbH (www.incors.com).</desc><path fill="gray" d="M3360 7040h480c176 0 320-144 320-320v-320H2560c-352 0-640-287-640-640V1920c0-352 288-640 640-640h5120c353 0 640 288 640 640v3840c0 352-288 640-640 640H6080v320c0 176 144 320 320 320h480c88 0 160 72 160 160v160H3200v-160c0-88 72-160 160-160zm-800-5120v3840h5120V1920H2560zM2505 7680h5230c176 0 328 63 452 187l999 999c63 63 94 138 94 227v187c0 176-144 320-320 320H1280c-176 0-320-144-320-320v-187c0-89 31-164 94-227l999-999c124-124 276-187 452-187zm5175 320h-960c-88 0-160 72-160 160s72 160 160 160h960c88 0 160-72 160-160s-72-160-160-160zm-4480 0h-640c-88 0-160 72-160 160s72 160 160 160h640c88 0 160-72 160-160s-72-160-160-160zm960 0h-320c-88 0-160 72-160 160s72 160 160 160h320c88 0 160-72 160-160s-72-160-160-160zm-1600 640h-640c-88 0-160 72-160 160s72 160 160 160h640c88 0 160-72 160-160s-72-160-160-160zm4480 0H3200c-88 0-160 72-160 160s72 160 160 160h3840c88 0 160-72 160-160s-72-160-160-160zm1280 0h-640c-88 0-160 72-160 160s72 160 160 160h640c88 0 160-72 160-160s-72-160-160-160zm-3200-640h-320c-88 0-160 72-160 160s72 160 160 160h320c88 0 160-72 160-160s-72-160-160-160zm960 0h-320c-88 0-160 72-160 160s72 160 160 160h320c88 0 160-72 160-160s-72-160-160-160z"/></svg>