<svg xmlns="http://www.w3.org/2000/svg" width="1024" height="1024" shape-rendering="geometricPrecision" text-rendering="geometricPrecision" image-rendering="optimizeQuality" clip-rule="evenodd" viewBox="0 0 10240 10240"><title>wrench icon</title><desc>wrench icon from the IconExperience.com O-Collection. Copyright by INCORS GmbH (www.incors.com).</desc><path fill="gray" d="M5665 5966L3160 8892c-458 536-1312 499-1810 0-499-498-541-1358 0-1810l2957-2474c495-414-679-1584 679-2941 482-483 1171-760 1804-773 133-2 248 72 300 195 53 122 27 257-68 352L5891 2572l452 1358 1358 452 1131-1131c95-95 230-121 352-68 123 52 197 167 195 300-13 633-290 1322-773 1804-1357 1358-2487 149-2941 679zM2708 7534c-250-249-656-249-906 0-249 250-249 656 0 906 250 249 656 249 906 0 249-250 249-656 0-906z"/></svg>