<svg xmlns="http://www.w3.org/2000/svg" width="1024" height="1024" shape-rendering="geometricPrecision" text-rendering="geometricPrecision" image-rendering="optimizeQuality" clip-rule="evenodd" viewBox="0 0 10240 10240"><title>yinyang icon</title><desc>yinyang icon from the IconExperience.com O-Collection. Copyright by INCORS GmbH (www.incors.com).</desc><path fill="gray" d="M5120 640c2474 0 4480 2006 4480 4480S7594 9600 5120 9600 640 7594 640 5120 2646 640 5120 640zm0 1600c530 0 960 430 960 960s-430 960-960 960-960-430-960-960 430-960 960-960zm0 3840c-530 0-960 430-960 960s430 960 960 960 960-430 960-960-430-960-960-960zm-50 2879c-1037-26-1870-875-1870-1919 0-1060 860-1920 1920-1920s1920-860 1920-1920-860-1920-1920-1920c-2121 0-3840 1728-3840 3840s1692 3813 3790 3839z"/></svg>